<?xml version="1.0" encoding="UTF-8" standalone="no"?>
<!DOCTYPE svg PUBLIC "-//W3C//DTD SVG 1.1//EN"
 "http://www.w3.org/Graphics/SVG/1.1/DTD/svg11.dtd">
<!-- Generated by graphviz version 2.40.1 (20161225.0304)
 -->
<!-- Pages: 1 -->
<svg width="925pt" height="392pt"
 viewBox="0.00 0.00 925.32 392.00" xmlns="http://www.w3.org/2000/svg" xmlns:xlink="http://www.w3.org/1999/xlink">
<g id="graph0" class="graph" transform="scale(1 1) rotate(0) translate(4 388)">
<polygon fill="#ffffff" stroke="transparent" points="-4,4 -4,-388 921.32,-388 921.32,4 -4,4"/>
<g id="clust1" class="cluster">
<title>cluster2</title>
<polygon fill="#d3d3d3" stroke="#d3d3d3" points="0,-101 0,-384 668.3,-384 668.3,-101 0,-101"/>
<text text-anchor="middle" x="334.15" y="-368.8" font-family="Times,serif" font-size="14.00" fill="#000000">possible new correlations</text>
</g>
<g id="clust2" class="cluster">
<title>cluster1</title>
<polygon fill="#d3d3d3" stroke="#d3d3d3" points="249.02,0 249.02,-93 917.32,-93 917.32,0 249.02,0"/>
<text text-anchor="middle" x="583.17" y="-77.8" font-family="Times,serif" font-size="14.00" fill="#000000">found contradictions</text>
</g>
<!-- poss_new9 -->
<g id="node1" class="node">
<title>poss_new9</title>
<ellipse fill="none" stroke="#000000" cx="98.51" cy="-335" rx="69.5877" ry="18"/>
<text text-anchor="middle" x="98.51" y="-331.3" font-family="Times,serif" font-size="14.00" fill="#000000">Forms of speech</text>
</g>
<!-- poss_new34 -->
<g id="node2" class="node">
<title>poss_new34</title>
<ellipse fill="none" stroke="#000000" cx="567.67" cy="-326" rx="75" ry="27"/>
<text text-anchor="middle" x="567.67" y="-329.8" font-family="Times,serif" font-size="14.00" fill="#000000">Examples of the</text>
<text text-anchor="middle" x="567.67" y="-314.8" font-family="Times,serif" font-size="14.00" fill="#000000">former</text>
</g>
<!-- poss_new9&#45;&gt;poss_new34 -->
<g id="edge1" class="edge">
<title>poss_new9&#45;&gt;poss_new34</title>
<path fill="none" stroke="#000000" d="M167.83,-333.38C230.18,-331.92 312.03,-330 312.03,-330 312.03,-330 408.02,-328.5 482.36,-327.33"/>
<polygon fill="#000000" stroke="#000000" points="482.7554,-330.8244 492.7,-327.17 482.647,-323.8252 482.7554,-330.8244"/>
<text text-anchor="middle" x="347.53" y="-333.8" font-family="Times,serif" font-size="14.00" fill="#000000">possible new</text>
</g>
<!-- poss_new0 -->
<g id="node3" class="node">
<title>poss_new0</title>
<ellipse fill="none" stroke="#000000" cx="98.51" cy="-272" rx="90.5" ry="27"/>
<text text-anchor="middle" x="98.51" y="-275.8" font-family="Times,serif" font-size="14.00" fill="#000000">Forms of speech are</text>
<text text-anchor="middle" x="98.51" y="-260.8" font-family="Times,serif" font-size="14.00" fill="#000000">either simple</text>
</g>
<!-- poss_new3 -->
<g id="node4" class="node">
<title>poss_new3</title>
<ellipse fill="none" stroke="#000000" cx="567.67" cy="-253" rx="90.5" ry="27"/>
<text text-anchor="middle" x="567.67" y="-256.8" font-family="Times,serif" font-size="14.00" fill="#000000">Forms of speech are</text>
<text text-anchor="middle" x="567.67" y="-241.8" font-family="Times,serif" font-size="14.00" fill="#000000">or composite</text>
</g>
<!-- poss_new0&#45;&gt;poss_new3 -->
<g id="edge2" class="edge">
<title>poss_new0&#45;&gt;poss_new3</title>
<path fill="none" stroke="#000000" d="M183.1,-262.19C266.97,-252.46 383.03,-239 383.03,-239 383.03,-239 425.62,-242.23 469.89,-245.59"/>
<polygon fill="#000000" stroke="#000000" points="469.7147,-249.0866 479.95,-246.35 470.2421,-242.1065 469.7147,-249.0866"/>
<text text-anchor="middle" x="347.53" y="-227.8" font-family="Times,serif" font-size="14.00" fill="#000000">possible new</text>
</g>
<!-- poss_new3&#45;&gt;poss_new0 -->
<g id="edge3" class="edge">
<title>poss_new3&#45;&gt;poss_new0</title>
<path fill="none" stroke="#000000" d="M480.41,-260.51C406.35,-266.88 312.03,-275 312.03,-275 312.03,-275 254.62,-274.19 199.34,-273.42"/>
<polygon fill="#000000" stroke="#000000" points="199.11,-269.9164 189.06,-273.27 199.0078,-276.9156 199.11,-269.9164"/>
<text text-anchor="middle" x="347.53" y="-278.8" font-family="Times,serif" font-size="14.00" fill="#000000">possible new</text>
</g>
<!-- poss_new37 -->
<g id="node5" class="node">
<title>poss_new37</title>
<ellipse fill="none" stroke="#000000" cx="98.51" cy="-168" rx="75" ry="58.8803"/>
<text text-anchor="middle" x="98.51" y="-194.3" font-family="Times,serif" font-size="14.00" fill="#000000">Examples of the</text>
<text text-anchor="middle" x="98.51" y="-179.3" font-family="Times,serif" font-size="14.00" fill="#000000">latter are such</text>
<text text-anchor="middle" x="98.51" y="-164.3" font-family="Times,serif" font-size="14.00" fill="#000000">expressions as</text>
<text text-anchor="middle" x="98.51" y="-149.3" font-family="Times,serif" font-size="14.00" fill="#000000">Themanruns ,</text>
<text text-anchor="middle" x="98.51" y="-134.3" font-family="Times,serif" font-size="14.00" fill="#000000">Themanwins , .</text>
</g>
<!-- poss_new36 -->
<g id="node6" class="node">
<title>poss_new36</title>
<ellipse fill="none" stroke="#000000" cx="567.67" cy="-158" rx="92.7622" ry="48.1667"/>
<text text-anchor="middle" x="567.67" y="-176.8" font-family="Times,serif" font-size="14.00" fill="#000000">Examples of the</text>
<text text-anchor="middle" x="567.67" y="-161.8" font-family="Times,serif" font-size="14.00" fill="#000000">former are such</text>
<text text-anchor="middle" x="567.67" y="-146.8" font-family="Times,serif" font-size="14.00" fill="#000000">expressions as Man ,</text>
<text text-anchor="middle" x="567.67" y="-131.8" font-family="Times,serif" font-size="14.00" fill="#000000">Ox , Runs , Wins</text>
</g>
<!-- poss_new37&#45;&gt;poss_new36 -->
<g id="edge4" class="edge">
<title>poss_new37&#45;&gt;poss_new36</title>
<path fill="none" stroke="#000000" d="M173.49,-166.24C235.01,-164.8 312.03,-163 312.03,-163 312.03,-163 393.63,-161.4 464.63,-160.02"/>
<polygon fill="#000000" stroke="#000000" points="465.0928,-163.5115 475.02,-159.81 464.9513,-156.5129 465.0928,-163.5115"/>
<text text-anchor="middle" x="347.53" y="-166.8" font-family="Times,serif" font-size="14.00" fill="#000000">possible new</text>
</g>
<!-- contra0 -->
<g id="node7" class="node">
<title>contra0</title>
<ellipse fill="none" stroke="#000000" cx="347.53" cy="-35" rx="90.5" ry="27"/>
<text text-anchor="middle" x="347.53" y="-38.8" font-family="Times,serif" font-size="14.00" fill="#000000">Forms of speech are</text>
<text text-anchor="middle" x="347.53" y="-23.8" font-family="Times,serif" font-size="14.00" fill="#000000">either simple</text>
</g>
<!-- poss_new37&#45;&gt;contra0 -->
<g id="edge6" class="edge">
<title>poss_new37&#45;&gt;contra0</title>
<path fill="none" stroke="#000000" d="M160.71,-134.78C201.78,-112.84 255.05,-84.392 294.19,-63.488"/>
<polygon fill="#000000" stroke="#000000" points="296.1473,-66.4106 303.32,-58.613 292.8502,-60.2358 296.1473,-66.4106"/>
<text text-anchor="middle" x="223.02" y="-112.8" font-family="Times,serif" font-size="14.00" fill="#000000">correl</text>
</g>
<!-- contra3 -->
<g id="node8" class="node">
<title>contra3</title>
<ellipse fill="none" stroke="#000000" cx="818.81" cy="-35" rx="90.5" ry="27"/>
<text text-anchor="middle" x="818.81" y="-38.8" font-family="Times,serif" font-size="14.00" fill="#000000">Forms of speech are</text>
<text text-anchor="middle" x="818.81" y="-23.8" font-family="Times,serif" font-size="14.00" fill="#000000">or composite</text>
</g>
<!-- poss_new36&#45;&gt;contra3 -->
<g id="edge7" class="edge">
<title>poss_new36&#45;&gt;contra3</title>
<path fill="none" stroke="#000000" d="M635.3,-124.88C675.08,-105.39 724.79,-81.047 762.44,-62.609"/>
<polygon fill="#000000" stroke="#000000" points="764.2975,-65.5966 771.74,-58.056 761.2196,-59.3096 764.2975,-65.5966"/>
<text text-anchor="middle" x="694.3" y="-103.8" font-family="Times,serif" font-size="14.00" fill="#000000">correl</text>
</g>
<!-- contra0&#45;&gt;contra3 -->
<g id="edge5" class="edge">
<title>contra0&#45;&gt;contra3</title>
<path fill="none" stroke="#000000" d="M438.25,-35C484.73,-35 531.67,-35 531.67,-35 531.67,-35 635.03,-35 717.73,-35"/>
<polygon fill="#000000" stroke="#000000" points="717.96,-38.5001 727.96,-35 717.96,-31.5001 717.96,-38.5001"/>
<text text-anchor="middle" x="567.67" y="-38.8" font-family="Times,serif" font-size="14.00" fill="#000000">contradiction</text>
</g>
</g>
</svg>
