<?xml version="1.0" encoding="UTF-8" standalone="no"?>
<!DOCTYPE svg PUBLIC "-//W3C//DTD SVG 1.1//EN"
 "http://www.w3.org/Graphics/SVG/1.1/DTD/svg11.dtd">
<!-- Generated by graphviz version 2.40.1 (20161225.0304)
 -->
<!-- Pages: 1 -->
<svg width="1047pt" height="875pt"
 viewBox="0.00 0.00 1047.00 875.00" xmlns="http://www.w3.org/2000/svg" xmlns:xlink="http://www.w3.org/1999/xlink">
<g id="graph0" class="graph" transform="scale(1 1) rotate(0) translate(4 871)">
<polygon fill="#ffffff" stroke="transparent" points="-4,4 -4,-871 1043,-871 1043,4 -4,4"/>
<g id="clust1" class="cluster">
<title>cluster2</title>
<polygon fill="#d3d3d3" stroke="#d3d3d3" points="303.48,0 303.48,-638 1039,-638 1039,0 303.48,0"/>
<text text-anchor="middle" x="671.22" y="-622.8" font-family="Times,serif" font-size="14.00" fill="#000000">Possible New Correlations</text>
</g>
<g id="clust2" class="cluster">
<title>cluster1</title>
<polygon fill="#d3d3d3" stroke="#d3d3d3" points="0,-646 0,-867 752.45,-867 752.45,-646 0,-646"/>
<text text-anchor="middle" x="376.23" y="-851.8" font-family="Times,serif" font-size="14.00" fill="#000000">Found Contradictions</text>
</g>
<!-- poss_new23 -->
<g id="node1" class="node">
<title>poss_new23</title>
<ellipse fill="none" stroke="#000000" cx="414.71" cy="-382" rx="71" ry="18"/>
<text text-anchor="middle" x="414.71" y="-378.3" font-family="Times,serif" font-size="14.00" fill="#000000">a common name</text>
</g>
<!-- poss_new47 -->
<g id="node2" class="node">
<title>poss_new47</title>
<ellipse fill="none" stroke="#000000" cx="936.21" cy="-388" rx="61.99" ry="18"/>
<text text-anchor="middle" x="936.21" y="-384.3" font-family="Times,serif" font-size="14.00" fill="#000000">the other hand</text>
</g>
<!-- poss_new23&#45;&gt;poss_new47 -->
<g id="edge1" class="edge">
<title>poss_new23&#45;&gt;poss_new47</title>
<path fill="none" stroke="#000000" d="M479.56,-374.55C556.86,-365.66 675.7,-352 675.7,-352 675.7,-352 793.01,-368.21 870.18,-378.88"/>
<polygon fill="#000000" stroke="#000000" points="869.9352,-382.3793 880.32,-380.28 870.8927,-375.4451 869.9352,-382.3793"/>
<text text-anchor="middle" x="649.7" y="-340.8" font-family="Times,serif" font-size="14.00" fill="#000000">*opposed</text>
</g>
<!-- poss_new47&#45;&gt;poss_new23 -->
<g id="edge2" class="edge">
<title>poss_new47&#45;&gt;poss_new23</title>
<path fill="none" stroke="#000000" d="M874.09,-388C782.96,-388 623.7,-388 623.7,-388 623.7,-388 554.13,-386 495.27,-384.31"/>
<polygon fill="#000000" stroke="#000000" points="495.2765,-380.8088 485.18,-384.02 495.0753,-387.8059 495.2765,-380.8088"/>
<text text-anchor="middle" x="649.7" y="-391.8" font-family="Times,serif" font-size="14.00" fill="#000000">*opposed</text>
</g>
<!-- poss_new25 -->
<g id="node3" class="node">
<title>poss_new25</title>
<ellipse fill="none" stroke="#000000" cx="414.71" cy="-570" rx="86.5" ry="37.5"/>
<text text-anchor="middle" x="414.71" y="-581.3" font-family="Times,serif" font-size="14.00" fill="#000000">the definition</text>
<text text-anchor="middle" x="414.71" y="-566.3" font-family="Times,serif" font-size="14.00" fill="#000000">corresponding with</text>
<text text-anchor="middle" x="414.71" y="-551.3" font-family="Times,serif" font-size="14.00" fill="#000000">the name</text>
</g>
<!-- poss_new49 -->
<g id="node4" class="node">
<title>poss_new49</title>
<ellipse fill="none" stroke="#000000" cx="936.21" cy="-570" rx="80" ry="37.5"/>
<text text-anchor="middle" x="936.21" y="-581.3" font-family="Times,serif" font-size="14.00" fill="#000000">both the name</text>
<text text-anchor="middle" x="936.21" y="-566.3" font-family="Times,serif" font-size="14.00" fill="#000000">answering to the</text>
<text text-anchor="middle" x="936.21" y="-551.3" font-family="Times,serif" font-size="14.00" fill="#000000">name in common</text>
</g>
<!-- poss_new25&#45;&gt;poss_new49 -->
<g id="edge3" class="edge">
<title>poss_new25&#45;&gt;poss_new49</title>
<path fill="none" stroke="#000000" d="M500.53,-565.4C576.6,-561.32 675.7,-556 675.7,-556 675.7,-556 771.25,-561.13 846.61,-565.19"/>
<polygon fill="#000000" stroke="#000000" points="846.4591,-568.6868 856.63,-565.72 846.8289,-561.6966 846.4591,-568.6868"/>
<text text-anchor="middle" x="649.7" y="-544.8" font-family="Times,serif" font-size="14.00" fill="#000000">*opposed</text>
</g>
<!-- poss_new49&#45;&gt;poss_new25 -->
<g id="edge4" class="edge">
<title>poss_new49&#45;&gt;poss_new25</title>
<path fill="none" stroke="#000000" d="M856.95,-575.58C764.36,-582.1 623.7,-592 623.7,-592 623.7,-592 564.49,-585.77 509.1,-579.94"/>
<polygon fill="#000000" stroke="#000000" points="509.1231,-576.4229 498.81,-578.85 508.3856,-583.384 509.1231,-576.4229"/>
<text text-anchor="middle" x="649.7" y="-595.8" font-family="Times,serif" font-size="14.00" fill="#000000">*opposed</text>
</g>
<!-- poss_new12 -->
<g id="node5" class="node">
<title>poss_new12</title>
<ellipse fill="none" stroke="#000000" cx="414.71" cy="-466" rx="88.5" ry="48.1667"/>
<text text-anchor="middle" x="414.71" y="-484.8" font-family="Times,serif" font-size="14.00" fill="#000000">when the definition</text>
<text text-anchor="middle" x="414.71" y="-469.8" font-family="Times,serif" font-size="14.00" fill="#000000">corresponding with</text>
<text text-anchor="middle" x="414.71" y="-454.8" font-family="Times,serif" font-size="14.00" fill="#000000">the name differs for</text>
<text text-anchor="middle" x="414.71" y="-439.8" font-family="Times,serif" font-size="14.00" fill="#000000">each</text>
</g>
<!-- poss_new35 -->
<g id="node6" class="node">
<title>poss_new35</title>
<ellipse fill="none" stroke="#000000" cx="936.21" cy="-477" rx="95" ry="37.5"/>
<text text-anchor="middle" x="936.21" y="-488.3" font-family="Times,serif" font-size="14.00" fill="#000000">which have both the</text>
<text text-anchor="middle" x="936.21" y="-473.3" font-family="Times,serif" font-size="14.00" fill="#000000">name answering to</text>
<text text-anchor="middle" x="936.21" y="-458.3" font-family="Times,serif" font-size="14.00" fill="#000000">the name in common</text>
</g>
<!-- poss_new12&#45;&gt;poss_new35 -->
<g id="edge5" class="edge">
<title>poss_new12&#45;&gt;poss_new35</title>
<path fill="none" stroke="#000000" d="M503.07,-461.94C578.79,-458.46 675.7,-454 675.7,-454 675.7,-454 760.58,-461.49 833.44,-467.93"/>
<polygon fill="#000000" stroke="#000000" points="833.3608,-471.4365 843.63,-468.83 833.9767,-464.4637 833.3608,-471.4365"/>
<text text-anchor="middle" x="649.7" y="-442.8" font-family="Times,serif" font-size="14.00" fill="#000000">*opposed</text>
</g>
<!-- poss_new35&#45;&gt;poss_new12 -->
<g id="edge6" class="edge">
<title>poss_new35&#45;&gt;poss_new12</title>
<path fill="none" stroke="#000000" d="M841.6,-480.94C749.62,-484.76 623.7,-490 623.7,-490 623.7,-490 566.11,-483.39 511.39,-477.1"/>
<polygon fill="#000000" stroke="#000000" points="511.5648,-473.5971 501.23,-475.93 510.7639,-480.5511 511.5648,-473.5971"/>
<text text-anchor="middle" x="649.7" y="-493.8" font-family="Times,serif" font-size="14.00" fill="#000000">*opposed</text>
</g>
<!-- poss_new27 -->
<g id="node7" class="node">
<title>poss_new27</title>
<ellipse fill="none" stroke="#000000" cx="414.71" cy="-255" rx="103.4757" ry="90.5193"/>
<text text-anchor="middle" x="414.71" y="-303.8" font-family="Times,serif" font-size="14.00" fill="#000000">Things are said to</text>
<text text-anchor="middle" x="414.71" y="-288.8" font-family="Times,serif" font-size="14.00" fill="#000000">be named Equivocally</text>
<text text-anchor="middle" x="414.71" y="-273.8" font-family="Times,serif" font-size="14.00" fill="#000000">when , though they</text>
<text text-anchor="middle" x="414.71" y="-258.8" font-family="Times,serif" font-size="14.00" fill="#000000">have a common name ,</text>
<text text-anchor="middle" x="414.71" y="-243.8" font-family="Times,serif" font-size="14.00" fill="#000000">the definition</text>
<text text-anchor="middle" x="414.71" y="-228.8" font-family="Times,serif" font-size="14.00" fill="#000000">corresponding with</text>
<text text-anchor="middle" x="414.71" y="-213.8" font-family="Times,serif" font-size="14.00" fill="#000000">the name differs for</text>
<text text-anchor="middle" x="414.71" y="-198.8" font-family="Times,serif" font-size="14.00" fill="#000000">each .</text>
</g>
<!-- poss_new51 -->
<g id="node8" class="node">
<title>poss_new51</title>
<ellipse fill="none" stroke="#000000" cx="936.21" cy="-255" rx="95" ry="90.5193"/>
<text text-anchor="middle" x="936.21" y="-303.8" font-family="Times,serif" font-size="14.00" fill="#000000">On the other hand ,</text>
<text text-anchor="middle" x="936.21" y="-288.8" font-family="Times,serif" font-size="14.00" fill="#000000">things are said to</text>
<text text-anchor="middle" x="936.21" y="-273.8" font-family="Times,serif" font-size="14.00" fill="#000000">be named Univocally</text>
<text text-anchor="middle" x="936.21" y="-258.8" font-family="Times,serif" font-size="14.00" fill="#000000">which have both the</text>
<text text-anchor="middle" x="936.21" y="-243.8" font-family="Times,serif" font-size="14.00" fill="#000000">name and the</text>
<text text-anchor="middle" x="936.21" y="-228.8" font-family="Times,serif" font-size="14.00" fill="#000000">definition answering</text>
<text text-anchor="middle" x="936.21" y="-213.8" font-family="Times,serif" font-size="14.00" fill="#000000">to the name in</text>
<text text-anchor="middle" x="936.21" y="-198.8" font-family="Times,serif" font-size="14.00" fill="#000000">common .</text>
</g>
<!-- poss_new27&#45;&gt;poss_new51 -->
<g id="edge7" class="edge">
<title>poss_new27&#45;&gt;poss_new51</title>
<path fill="none" stroke="#000000" d="M517.99,-255C559.71,-255 598.2,-255 598.2,-255 598.2,-255 731.84,-255 831.06,-255"/>
<polygon fill="#000000" stroke="#000000" points="831.15,-258.5001 841.15,-255 831.15,-251.5001 831.15,-258.5001"/>
<text text-anchor="middle" x="649.7" y="-258.8" font-family="Times,serif" font-size="14.00" fill="#000000">possibly correlated</text>
</g>
<!-- poss_new0 -->
<g id="node9" class="node">
<title>poss_new0</title>
<ellipse fill="none" stroke="#000000" cx="414.71" cy="-77" rx="98.5" ry="69.5"/>
<text text-anchor="middle" x="414.71" y="-110.8" font-family="Times,serif" font-size="14.00" fill="#000000">Things are said to</text>
<text text-anchor="middle" x="414.71" y="-95.8" font-family="Times,serif" font-size="14.00" fill="#000000">be named Equivocally</text>
<text text-anchor="middle" x="414.71" y="-80.8" font-family="Times,serif" font-size="14.00" fill="#000000">when the definition</text>
<text text-anchor="middle" x="414.71" y="-65.8" font-family="Times,serif" font-size="14.00" fill="#000000">corresponding with</text>
<text text-anchor="middle" x="414.71" y="-50.8" font-family="Times,serif" font-size="14.00" fill="#000000">the name differs for</text>
<text text-anchor="middle" x="414.71" y="-35.8" font-family="Times,serif" font-size="14.00" fill="#000000">each</text>
</g>
<!-- poss_new28 -->
<g id="node10" class="node">
<title>poss_new28</title>
<ellipse fill="none" stroke="#000000" cx="936.21" cy="-77" rx="95" ry="69.5"/>
<text text-anchor="middle" x="936.21" y="-110.8" font-family="Times,serif" font-size="14.00" fill="#000000">On the other hand</text>
<text text-anchor="middle" x="936.21" y="-95.8" font-family="Times,serif" font-size="14.00" fill="#000000">things are said to</text>
<text text-anchor="middle" x="936.21" y="-80.8" font-family="Times,serif" font-size="14.00" fill="#000000">be named Univocally</text>
<text text-anchor="middle" x="936.21" y="-65.8" font-family="Times,serif" font-size="14.00" fill="#000000">which have both the</text>
<text text-anchor="middle" x="936.21" y="-50.8" font-family="Times,serif" font-size="14.00" fill="#000000">name answering to</text>
<text text-anchor="middle" x="936.21" y="-35.8" font-family="Times,serif" font-size="14.00" fill="#000000">the name in common</text>
</g>
<!-- poss_new0&#45;&gt;poss_new28 -->
<g id="edge8" class="edge">
<title>poss_new0&#45;&gt;poss_new28</title>
<path fill="none" stroke="#000000" d="M513.17,-77C556.7,-77 598.2,-77 598.2,-77 598.2,-77 731.84,-77 831.06,-77"/>
<polygon fill="#000000" stroke="#000000" points="831.15,-80.5001 841.15,-77 831.15,-73.5001 831.15,-80.5001"/>
<text text-anchor="middle" x="649.7" y="-80.8" font-family="Times,serif" font-size="14.00" fill="#000000">possibly correlated</text>
</g>
<!-- contra27 -->
<g id="node11" class="node">
<title>contra27</title>
<ellipse fill="none" stroke="#000000" cx="111.24" cy="-745" rx="103.4757" ry="90.5193"/>
<text text-anchor="middle" x="111.24" y="-793.8" font-family="Times,serif" font-size="14.00" fill="#000000">Things are said to</text>
<text text-anchor="middle" x="111.24" y="-778.8" font-family="Times,serif" font-size="14.00" fill="#000000">be named Equivocally</text>
<text text-anchor="middle" x="111.24" y="-763.8" font-family="Times,serif" font-size="14.00" fill="#000000">when , though they</text>
<text text-anchor="middle" x="111.24" y="-748.8" font-family="Times,serif" font-size="14.00" fill="#000000">have a common name ,</text>
<text text-anchor="middle" x="111.24" y="-733.8" font-family="Times,serif" font-size="14.00" fill="#000000">the definition</text>
<text text-anchor="middle" x="111.24" y="-718.8" font-family="Times,serif" font-size="14.00" fill="#000000">corresponding with</text>
<text text-anchor="middle" x="111.24" y="-703.8" font-family="Times,serif" font-size="14.00" fill="#000000">the name differs for</text>
<text text-anchor="middle" x="111.24" y="-688.8" font-family="Times,serif" font-size="14.00" fill="#000000">each .</text>
</g>
<!-- contra27&#45;&gt;poss_new23 -->
<g id="edge10" class="edge">
<title>contra27&#45;&gt;poss_new23</title>
<path fill="none" stroke="#000000" d="M172.29,-671.98C240.77,-590.06 348.2,-461.56 393.47,-407.41"/>
<polygon fill="#000000" stroke="#000000" points="396.203,-409.5977 399.93,-399.68 390.8317,-405.1089 396.203,-409.5977"/>
<text text-anchor="middle" x="262.98" y="-519.8" font-family="Times,serif" font-size="14.00" fill="#000000">*correlated</text>
</g>
<!-- contra27&#45;&gt;poss_new25 -->
<g id="edge11" class="edge">
<title>contra27&#45;&gt;poss_new25</title>
<path fill="none" stroke="#000000" d="M197.8,-695.09C247.73,-666.29 309.28,-630.8 354.05,-604.98"/>
<polygon fill="#000000" stroke="#000000" points="355.8566,-607.9785 362.77,-599.95 352.359,-601.9149 355.8566,-607.9785"/>
<text text-anchor="middle" x="262.98" y="-676.8" font-family="Times,serif" font-size="14.00" fill="#000000">*correlated</text>
</g>
<!-- contra27&#45;&gt;poss_new12 -->
<g id="edge12" class="edge">
<title>contra27&#45;&gt;poss_new12</title>
<path fill="none" stroke="#000000" d="M182.77,-679.23C237.78,-628.67 312.51,-559.96 362.11,-514.36"/>
<polygon fill="#000000" stroke="#000000" points="364.5571,-516.8646 369.55,-507.52 359.8195,-511.7114 364.5571,-516.8646"/>
<text text-anchor="middle" x="262.98" y="-604.8" font-family="Times,serif" font-size="14.00" fill="#000000">*correlated</text>
</g>
<!-- contra51 -->
<g id="node12" class="node">
<title>contra51</title>
<ellipse fill="none" stroke="#000000" cx="649.7" cy="-745" rx="95" ry="90.5193"/>
<text text-anchor="middle" x="649.7" y="-793.8" font-family="Times,serif" font-size="14.00" fill="#000000">On the other hand ,</text>
<text text-anchor="middle" x="649.7" y="-778.8" font-family="Times,serif" font-size="14.00" fill="#000000">things are said to</text>
<text text-anchor="middle" x="649.7" y="-763.8" font-family="Times,serif" font-size="14.00" fill="#000000">be named Univocally</text>
<text text-anchor="middle" x="649.7" y="-748.8" font-family="Times,serif" font-size="14.00" fill="#000000">which have both the</text>
<text text-anchor="middle" x="649.7" y="-733.8" font-family="Times,serif" font-size="14.00" fill="#000000">name and the</text>
<text text-anchor="middle" x="649.7" y="-718.8" font-family="Times,serif" font-size="14.00" fill="#000000">definition answering</text>
<text text-anchor="middle" x="649.7" y="-703.8" font-family="Times,serif" font-size="14.00" fill="#000000">to the name in</text>
<text text-anchor="middle" x="649.7" y="-688.8" font-family="Times,serif" font-size="14.00" fill="#000000">common .</text>
</g>
<!-- contra27&#45;&gt;contra51 -->
<g id="edge9" class="edge">
<title>contra27&#45;&gt;contra51</title>
<path fill="none" stroke="#000000" d="M214.65,-745C289.92,-745 378.71,-745 378.71,-745 378.71,-745 468.53,-745 544.75,-745"/>
<polygon fill="#000000" stroke="#000000" points="544.92,-748.5001 554.92,-745 544.92,-741.5001 544.92,-748.5001"/>
<text text-anchor="middle" x="414.71" y="-748.8" font-family="Times,serif" font-size="14.00" fill="#000000">contradicting</text>
</g>
<!-- contra51&#45;&gt;poss_new47 -->
<g id="edge13" class="edge">
<title>contra51&#45;&gt;poss_new47</title>
<path fill="none" stroke="#000000" d="M707.68,-672.76C772.09,-592.5 872.67,-467.18 915.63,-413.64"/>
<polygon fill="#000000" stroke="#000000" points="918.4869,-415.6719 922.01,-405.68 913.0248,-411.294 918.4869,-415.6719"/>
<text text-anchor="middle" x="792.95" y="-618.8" font-family="Times,serif" font-size="14.00" fill="#000000">*correlated</text>
</g>
<!-- contra51&#45;&gt;poss_new49 -->
<g id="edge14" class="edge">
<title>contra51&#45;&gt;poss_new49</title>
<path fill="none" stroke="#000000" d="M729.89,-696.02C777.28,-667.07 836.18,-631.1 878.9,-605.01"/>
<polygon fill="#000000" stroke="#000000" points="880.7826,-607.9614 887.49,-599.76 877.1322,-601.9885 880.7826,-607.9614"/>
<text text-anchor="middle" x="792.95" y="-725.8" font-family="Times,serif" font-size="14.00" fill="#000000">*correlated</text>
</g>
<!-- contra51&#45;&gt;poss_new35 -->
<g id="edge15" class="edge">
<title>contra51&#45;&gt;poss_new35</title>
<path fill="none" stroke="#000000" d="M717.6,-681.49C771.37,-631.2 844.93,-562.38 891.51,-518.81"/>
<polygon fill="#000000" stroke="#000000" points="894.1151,-521.1659 899.03,-511.78 889.3347,-516.0523 894.1151,-521.1659"/>
<text text-anchor="middle" x="792.95" y="-691.8" font-family="Times,serif" font-size="14.00" fill="#000000">*correlated</text>
</g>
</g>
</svg>
