<?xml version="1.0" encoding="UTF-8" standalone="no"?>
<!DOCTYPE svg PUBLIC "-//W3C//DTD SVG 1.1//EN"
 "http://www.w3.org/Graphics/SVG/1.1/DTD/svg11.dtd">
<!-- Generated by graphviz version 2.40.1 (20161225.0304)
 -->
<!-- Pages: 1 -->
<svg width="335pt" height="249pt"
 viewBox="0.00 0.00 335.28 249.00" xmlns="http://www.w3.org/2000/svg" xmlns:xlink="http://www.w3.org/1999/xlink">
<g id="graph0" class="graph" transform="scale(1 1) rotate(0) translate(4 245)">
<polygon fill="#ffffff" stroke="transparent" points="-4,4 -4,-245 331.28,-245 331.28,4 -4,4"/>
<g id="clust1" class="cluster">
<title>cluster2</title>
<polygon fill="#d3d3d3" stroke="#d3d3d3" points="8,-8 8,-233 319.28,-233 319.28,-8 8,-8"/>
<text text-anchor="middle" x="163.64" y="-217.8" font-family="Times,serif" font-size="14.00" fill="#000000">Possible New Correlations</text>
</g>
<g id="clust2" class="cluster">
<title>cluster1</title>
<polygon fill="#d3d3d3" stroke="#d3d3d3" points="0,0 0,-241 327.28,-241 327.28,0 0,0"/>
<text text-anchor="middle" x="163.64" y="-225.8" font-family="Times,serif" font-size="14.00" fill="#000000">Found Contradictions</text>
</g>
<!-- poss_new24 -->
<g id="node1" class="node">
<title>poss_new24</title>
<ellipse fill="none" stroke="#000000" cx="52.397" cy="-160" rx="36.5" ry="18"/>
<text text-anchor="middle" x="52.397" y="-156.3" font-family="Times,serif" font-size="14.00" fill="#000000">a name</text>
</g>
<!-- poss_new65 -->
<g id="node2" class="node">
<title>poss_new65</title>
<ellipse fill="none" stroke="#000000" cx="262.54" cy="-160" rx="48.9926" ry="18"/>
<text text-anchor="middle" x="262.54" y="-156.3" font-family="Times,serif" font-size="14.00" fill="#000000">their name</text>
</g>
<!-- poss_new24&#45;&gt;poss_new65 -->
<g id="edge1" class="edge">
<title>poss_new24&#45;&gt;poss_new65</title>
<path fill="none" stroke="#000000" d="M88.64,-157.32C124.57,-154.67 174.29,-151 174.29,-151 174.29,-151 188.3,-152.43 205.15,-154.15"/>
<polygon fill="#000000" stroke="#000000" points="205.0182,-157.6545 215.32,-155.18 205.7236,-150.6901 205.0182,-157.6545"/>
<text text-anchor="middle" x="151.29" y="-139.8" font-family="Times,serif" font-size="14.00" fill="#000000">*aspects</text>
</g>
<!-- poss_new65&#45;&gt;poss_new24 -->
<g id="edge2" class="edge">
<title>poss_new65&#45;&gt;poss_new24</title>
<path fill="none" stroke="#000000" d="M219.69,-168.62C180.41,-176.52 128.29,-187 128.29,-187 128.29,-187 110.15,-180.54 91.599,-173.95"/>
<polygon fill="#000000" stroke="#000000" points="92.5527,-170.5744 81.958,-170.52 90.2063,-177.1695 92.5527,-170.5744"/>
<text text-anchor="middle" x="151.29" y="-190.8" font-family="Times,serif" font-size="14.00" fill="#000000">*aspects</text>
</g>
<!-- poss_new17 -->
<g id="node3" class="node">
<title>poss_new17</title>
<ellipse fill="none" stroke="#000000" cx="52.397" cy="-59" rx="35.194" ry="18"/>
<text text-anchor="middle" x="52.397" y="-55.3" font-family="Times,serif" font-size="14.00" fill="#000000">Things</text>
</g>
<!-- poss_new63 -->
<g id="node4" class="node">
<title>poss_new63</title>
<ellipse fill="none" stroke="#000000" cx="262.54" cy="-60" rx="35.194" ry="18"/>
<text text-anchor="middle" x="262.54" y="-56.3" font-family="Times,serif" font-size="14.00" fill="#000000">Things</text>
</g>
<!-- poss_new17&#45;&gt;poss_new63 -->
<g id="edge3" class="edge">
<title>poss_new17&#45;&gt;poss_new63</title>
<path fill="none" stroke="#000000" d="M87.379,-56.188C124.17,-53.23 176.79,-49 176.79,-49 176.79,-49 197.11,-51.606 217.96,-54.282"/>
<polygon fill="#000000" stroke="#000000" points="217.7962,-57.7896 228.16,-55.589 218.686,-50.8463 217.7962,-57.7896"/>
<text text-anchor="middle" x="151.29" y="-37.8" font-family="Times,serif" font-size="14.00" fill="#000000">*subjects</text>
</g>
<!-- poss_new63&#45;&gt;poss_new17 -->
<g id="edge4" class="edge">
<title>poss_new63&#45;&gt;poss_new17</title>
<path fill="none" stroke="#000000" d="M229.44,-66.052C188.97,-73.451 125.79,-85 125.79,-85 125.79,-85 108.8,-78.98 91.164,-72.733"/>
<polygon fill="#000000" stroke="#000000" points="91.9998,-69.316 81.405,-69.276 89.6624,-75.9142 91.9998,-69.316"/>
<text text-anchor="middle" x="151.29" y="-88.8" font-family="Times,serif" font-size="14.00" fill="#000000">*subjects</text>
</g>
</g>
</svg>
