<?xml version="1.0" encoding="UTF-8" standalone="no"?>
<!DOCTYPE svg PUBLIC "-//W3C//DTD SVG 1.1//EN"
 "http://www.w3.org/Graphics/SVG/1.1/DTD/svg11.dtd">
<!-- Generated by graphviz version 2.40.1 (20161225.0304)
 -->
<!-- Pages: 1 -->
<svg width="465pt" height="3432pt"
 viewBox="0.00 0.00 464.68 3431.54" xmlns="http://www.w3.org/2000/svg" xmlns:xlink="http://www.w3.org/1999/xlink">
<g id="graph0" class="graph" transform="scale(1 1) rotate(0) translate(4 3427.5397)">
<polygon fill="#ffffff" stroke="transparent" points="-4,4 -4,-3427.5397 460.6826,-3427.5397 460.6826,4 -4,4"/>
<!-- 13770 -->
<g id="node1" class="node">
<title>13770</title>
<ellipse fill="none" stroke="#000000" cx="80.712" cy="-2101.03" rx="32.5" ry="18"/>
<text text-anchor="middle" x="80.712" y="-2097.33" font-family="Times,serif" font-size="14.00" fill="#000000">13770</text>
</g>
<!-- 13763 -->
<g id="1" class="node">
<title>13763</title>
<ellipse fill="none" stroke="#000000" cx="181.705" cy="-3062.03" rx="32.5" ry="18"/>
<text text-anchor="middle" x="181.705" y="-3058.33" font-family="Times,serif" font-size="14.00" fill="#000000">13763</text>
</g>
<!-- 13770&#45;&gt;13763 -->
<g id="edge1" class="edge">
<title>13770&#45;&gt;13763</title>
<path fill="none" stroke="#000000" d="M81.352,-2119.03C103.758,-2751.03 105.152,-2774.63 174.285,-3034.23"/>
<polygon fill="#000000" stroke="#000000" points="170.9152,-3035.1771 176.885,-3043.93 177.6766,-3033.3648 170.9152,-3035.1771"/>
</g>
<!-- 13769 -->
<g id="5" class="node">
<title>13769</title>
<ellipse fill="none" stroke="#000000" cx="181.705" cy="-2732.03" rx="32.5" ry="18"/>
<text text-anchor="middle" x="181.705" y="-2728.33" font-family="Times,serif" font-size="14.00" fill="#000000">13769</text>
</g>
<!-- 13770&#45;&gt;13769 -->
<g id="edge2" class="edge">
<title>13770&#45;&gt;13769</title>
<path fill="none" stroke="#000000" d="M81.899,-2119.13C108.126,-2520.63 110.37,-2543.73 171.235,-2704.43"/>
<polygon fill="#000000" stroke="#000000" points="168.1311,-2706.1169 174.945,-2714.23 174.6777,-2703.6385 168.1311,-2706.1169"/>
</g>
<!-- 13765 -->
<g id="3" class="node">
<title>13765</title>
<ellipse fill="none" stroke="#000000" cx="181.705" cy="-2565.03" rx="32.5" ry="18"/>
<text text-anchor="middle" x="181.705" y="-2561.33" font-family="Times,serif" font-size="14.00" fill="#000000">13765</text>
</g>
<!-- 13770&#45;&gt;13765 -->
<g id="edge3" class="edge">
<title>13770&#45;&gt;13765</title>
<path fill="none" stroke="#000000" d="M82.524,-2119.23C110.902,-2404.73 114.001,-2427.03 168.475,-2538.23"/>
<polygon fill="#000000" stroke="#000000" points="165.451,-2540.0113 173.015,-2547.43 171.7283,-2536.9136 165.451,-2540.0113"/>
</g>
<!-- 13767 -->
<g id="16" class="node">
<title>13767</title>
<ellipse fill="none" stroke="#000000" cx="181.705" cy="-2101.03" rx="32.5" ry="18"/>
<text text-anchor="middle" x="181.705" y="-2097.33" font-family="Times,serif" font-size="14.00" fill="#000000">13767</text>
</g>
<!-- 13770&#45;&gt;13767 -->
<g id="edge4" class="edge">
<title>13770&#45;&gt;13767</title>
<path fill="none" stroke="#000000" d="M106.98,-2111.73C120.143,-2116.23 129.175,-2116.63 143.815,-2113.03"/>
<polygon fill="#000000" stroke="#000000" points="145.0702,-2116.3126 153.745,-2110.23 143.1704,-2109.5753 145.0702,-2116.3126"/>
</g>
<!-- 13766 -->
<g id="8" class="node">
<title>13766</title>
<ellipse fill="none" stroke="#000000" cx="181.705" cy="-1760.03" rx="32.5" ry="18"/>
<text text-anchor="middle" x="181.705" y="-1756.33" font-family="Times,serif" font-size="14.00" fill="#000000">13766</text>
</g>
<!-- 13770&#45;&gt;13766 -->
<g id="edge5" class="edge">
<title>13770&#45;&gt;13766</title>
<path fill="none" stroke="#000000" d="M83.382,-2083.03C96.42,-1995.83 101.276,-1980.33 171.685,-1787.43"/>
<polygon fill="#000000" stroke="#000000" points="175.0482,-1788.4238 175.195,-1777.83 168.4738,-1786.02 175.0482,-1788.4238"/>
</g>
<!-- 13764 -->
<g id="15" class="node">
<title>13764</title>
<ellipse fill="none" stroke="#000000" cx="181.705" cy="-999" rx="32.5" ry="18"/>
<text text-anchor="middle" x="181.705" y="-995.3" font-family="Times,serif" font-size="14.00" fill="#000000">13764</text>
</g>
<!-- 13770&#45;&gt;13764 -->
<g id="edge6" class="edge">
<title>13770&#45;&gt;13764</title>
<path fill="none" stroke="#000000" d="M78.682,-2083.03C.463,-1390.13 0,-1370.33 168.795,-1025.33"/>
<polygon fill="#000000" stroke="#000000" points="171.9472,-1026.8511 173.195,-1016.33 165.6585,-1023.7766 171.9472,-1026.8511"/>
</g>
<!-- 13768 -->
<g id="20" class="node">
<title>13768</title>
<ellipse fill="none" stroke="#000000" cx="181.705" cy="-188" rx="32.5" ry="18"/>
<text text-anchor="middle" x="181.705" y="-184.3" font-family="Times,serif" font-size="14.00" fill="#000000">13768</text>
</g>
<!-- 13770&#45;&gt;13768 -->
<g id="edge7" class="edge">
<title>13770&#45;&gt;13768</title>
<path fill="none" stroke="#000000" d="M80.394,-2082.53C58.111,-789.88 58.302,-766.22 175.775,-215.8"/>
<polygon fill="#000000" stroke="#000000" points="179.2,-216.5204 177.865,-206.01 172.3543,-215.0589 179.2,-216.5204"/>
</g>
<!-- 13741 -->
<g id="101" class="node">
<title>13741</title>
<ellipse fill="none" stroke="#000000" cx="353.445" cy="-3333.03" rx="95" ry="90.5193"/>
<text text-anchor="middle" x="353.445" y="-3381.83" font-family="Times,serif" font-size="14.00" fill="#000000">On the other hand ,</text>
<text text-anchor="middle" x="353.445" y="-3366.83" font-family="Times,serif" font-size="14.00" fill="#000000">things are said to</text>
<text text-anchor="middle" x="353.445" y="-3351.83" font-family="Times,serif" font-size="14.00" fill="#000000">be named Univocally</text>
<text text-anchor="middle" x="353.445" y="-3336.83" font-family="Times,serif" font-size="14.00" fill="#000000">which have both the</text>
<text text-anchor="middle" x="353.445" y="-3321.83" font-family="Times,serif" font-size="14.00" fill="#000000">name and the</text>
<text text-anchor="middle" x="353.445" y="-3306.83" font-family="Times,serif" font-size="14.00" fill="#000000">definition answering</text>
<text text-anchor="middle" x="353.445" y="-3291.83" font-family="Times,serif" font-size="14.00" fill="#000000">to the name in</text>
<text text-anchor="middle" x="353.445" y="-3276.83" font-family="Times,serif" font-size="14.00" fill="#000000">common .</text>
</g>
<!-- 13763&#45;&gt;13741 -->
<g id="edge8" class="edge">
<title>13763&#45;&gt;13741</title>
<path fill="none" stroke="#000000" d="M189.335,-3079.63C234.545,-3183.83 254.695,-3229.13 279.175,-3261.73"/>
<polygon fill="#000000" stroke="#000000" points="276.5896,-3264.1058 285.505,-3269.83 282.1052,-3259.7955 276.5896,-3264.1058"/>
</g>
<!-- 13807 -->
<g id="87" class="node">
<title>13807</title>
<ellipse fill="none" stroke="#000000" cx="353.445" cy="-3187.03" rx="95" ry="37.5"/>
<text text-anchor="middle" x="353.445" y="-3198.33" font-family="Times,serif" font-size="14.00" fill="#000000">which have both the</text>
<text text-anchor="middle" x="353.445" y="-3183.33" font-family="Times,serif" font-size="14.00" fill="#000000">name answering to</text>
<text text-anchor="middle" x="353.445" y="-3168.33" font-family="Times,serif" font-size="14.00" fill="#000000">the name in common</text>
</g>
<!-- 13763&#45;&gt;13807 -->
<g id="edge9" class="edge">
<title>13763&#45;&gt;13807</title>
<path fill="none" stroke="#000000" d="M195.345,-3078.53C231.255,-3122.13 250.575,-3144.53 270.555,-3158.23"/>
<polygon fill="#000000" stroke="#000000" points="268.8688,-3161.3033 279.205,-3163.63 272.5757,-3155.3654 268.8688,-3161.3033"/>
</g>
<!-- 13808 -->
<g id="80" class="node">
<title>13808</title>
<ellipse fill="none" stroke="#000000" cx="353.445" cy="-3062.03" rx="95" ry="69.5"/>
<text text-anchor="middle" x="353.445" y="-3095.83" font-family="Times,serif" font-size="14.00" fill="#000000">On the other hand</text>
<text text-anchor="middle" x="353.445" y="-3080.83" font-family="Times,serif" font-size="14.00" fill="#000000">things are said to</text>
<text text-anchor="middle" x="353.445" y="-3065.83" font-family="Times,serif" font-size="14.00" fill="#000000">be named Univocally</text>
<text text-anchor="middle" x="353.445" y="-3050.83" font-family="Times,serif" font-size="14.00" fill="#000000">which have both the</text>
<text text-anchor="middle" x="353.445" y="-3035.83" font-family="Times,serif" font-size="14.00" fill="#000000">name answering to</text>
<text text-anchor="middle" x="353.445" y="-3020.83" font-family="Times,serif" font-size="14.00" fill="#000000">the name in common</text>
</g>
<!-- 13763&#45;&gt;13808 -->
<g id="edge10" class="edge">
<title>13763&#45;&gt;13808</title>
<path fill="none" stroke="#000000" d="M208.355,-3072.53C228.005,-3080.03 242.215,-3084.83 255.015,-3086.73"/>
<polygon fill="#000000" stroke="#000000" points="254.7471,-3090.2206 265.045,-3087.73 255.4416,-3083.2551 254.7471,-3090.2206"/>
</g>
<!-- 13806 -->
<g id="99" class="node">
<title>13806</title>
<ellipse fill="none" stroke="#000000" cx="353.445" cy="-2937.03" rx="80" ry="37.5"/>
<text text-anchor="middle" x="353.445" y="-2948.33" font-family="Times,serif" font-size="14.00" fill="#000000">both the name</text>
<text text-anchor="middle" x="353.445" y="-2933.33" font-family="Times,serif" font-size="14.00" fill="#000000">answering to the</text>
<text text-anchor="middle" x="353.445" y="-2918.33" font-family="Times,serif" font-size="14.00" fill="#000000">name in common</text>
</g>
<!-- 13763&#45;&gt;13806 -->
<g id="edge11" class="edge">
<title>13763&#45;&gt;13806</title>
<path fill="none" stroke="#000000" d="M211.565,-3054.93C258.815,-3042.93 274.005,-3032.73 318.195,-2980.03"/>
<polygon fill="#000000" stroke="#000000" points="320.9672,-2982.1697 324.635,-2972.23 315.5692,-2977.7129 320.9672,-2982.1697"/>
</g>
<!-- 13745 -->
<g id="110" class="node">
<title>13745</title>
<ellipse fill="none" stroke="#000000" cx="353.445" cy="-2844.03" rx="87" ry="37.5"/>
<text text-anchor="middle" x="353.445" y="-2855.33" font-family="Times,serif" font-size="14.00" fill="#000000">A man are both</text>
<text text-anchor="middle" x="353.445" y="-2840.33" font-family="Times,serif" font-size="14.00" fill="#000000">Animal is the same</text>
<text text-anchor="middle" x="353.445" y="-2825.33" font-family="Times,serif" font-size="14.00" fill="#000000">in both cases</text>
</g>
<!-- 13769&#45;&gt;13745 -->
<g id="edge12" class="edge">
<title>13769&#45;&gt;13745</title>
<path fill="none" stroke="#000000" d="M196.275,-2748.33C231.145,-2787.33 250.285,-2807.73 269.805,-2819.93"/>
<polygon fill="#000000" stroke="#000000" points="268.1107,-2822.9926 278.545,-2824.83 271.5339,-2816.8867 268.1107,-2822.9926"/>
</g>
<!-- 13744 -->
<g id="145" class="node">
<title>13744</title>
<ellipse fill="none" stroke="#000000" cx="353.445" cy="-2751.03" rx="98.5" ry="37.5"/>
<text text-anchor="middle" x="353.445" y="-2762.33" font-family="Times,serif" font-size="14.00" fill="#000000">to be which derive</text>
<text text-anchor="middle" x="353.445" y="-2747.33" font-family="Times,serif" font-size="14.00" fill="#000000">their name from some</text>
<text text-anchor="middle" x="353.445" y="-2732.33" font-family="Times,serif" font-size="14.00" fill="#000000">other name</text>
</g>
<!-- 13765&#45;&gt;13744 -->
<g id="edge13" class="edge">
<title>13765&#45;&gt;13744</title>
<path fill="none" stroke="#000000" d="M192.185,-2582.33C240.845,-2662.83 259.885,-2692.73 288.385,-2714.33"/>
<polygon fill="#000000" stroke="#000000" points="286.5468,-2717.3196 296.705,-2720.33 290.6413,-2711.6419 286.5468,-2717.3196"/>
</g>
<!-- 13749 -->
<g id="143" class="node">
<title>13749</title>
<ellipse fill="none" stroke="#000000" cx="353.445" cy="-2658.03" rx="80.6202" ry="37.5"/>
<text text-anchor="middle" x="353.445" y="-2669.33" font-family="Times,serif" font-size="14.00" fill="#000000">Things are said to</text>
<text text-anchor="middle" x="353.445" y="-2654.33" font-family="Times,serif" font-size="14.00" fill="#000000">be named</text>
<text text-anchor="middle" x="353.445" y="-2639.33" font-family="Times,serif" font-size="14.00" fill="#000000">Derivatively</text>
</g>
<!-- 13765&#45;&gt;13749 -->
<g id="edge14" class="edge">
<title>13765&#45;&gt;13749</title>
<path fill="none" stroke="#000000" d="M197.845,-2580.93C230.865,-2613.43 249.625,-2630.83 268.325,-2640.93"/>
<polygon fill="#000000" stroke="#000000" points="267.0316,-2644.1906 277.565,-2645.33 270.0412,-2637.8706 267.0316,-2644.1906"/>
</g>
<!-- 13746 -->
<g id="149" class="node">
<title>13746</title>
<ellipse fill="none" stroke="#000000" cx="353.445" cy="-2565.03" rx="76.5" ry="37.5"/>
<text text-anchor="middle" x="353.445" y="-2576.33" font-family="Times,serif" font-size="14.00" fill="#000000">Things are differ</text>
<text text-anchor="middle" x="353.445" y="-2561.33" font-family="Times,serif" font-size="14.00" fill="#000000">from it in</text>
<text text-anchor="middle" x="353.445" y="-2546.33" font-family="Times,serif" font-size="14.00" fill="#000000">termination</text>
</g>
<!-- 13765&#45;&gt;13746 -->
<g id="edge15" class="edge">
<title>13765&#45;&gt;13746</title>
<path fill="none" stroke="#000000" d="M208.415,-2575.53C242.345,-2588.53 260.065,-2593.23 282.155,-2589.53"/>
<polygon fill="#000000" stroke="#000000" points="282.9104,-2592.9477 291.955,-2587.43 281.4436,-2586.1031 282.9104,-2592.9477"/>
</g>
<!-- 13743 -->
<g id="160" class="node">
<title>13743</title>
<ellipse fill="none" stroke="#000000" cx="353.445" cy="-2430.03" rx="100.5" ry="80"/>
<text text-anchor="middle" x="353.445" y="-2471.33" font-family="Times,serif" font-size="14.00" fill="#000000">Things are said to</text>
<text text-anchor="middle" x="353.445" y="-2456.33" font-family="Times,serif" font-size="14.00" fill="#000000">be named</text>
<text text-anchor="middle" x="353.445" y="-2441.33" font-family="Times,serif" font-size="14.00" fill="#000000">Derivatively , which</text>
<text text-anchor="middle" x="353.445" y="-2426.33" font-family="Times,serif" font-size="14.00" fill="#000000">derive their name</text>
<text text-anchor="middle" x="353.445" y="-2411.33" font-family="Times,serif" font-size="14.00" fill="#000000">from some other name</text>
<text text-anchor="middle" x="353.445" y="-2396.33" font-family="Times,serif" font-size="14.00" fill="#000000">, but differ from it</text>
<text text-anchor="middle" x="353.445" y="-2381.33" font-family="Times,serif" font-size="14.00" fill="#000000">in termination .</text>
</g>
<!-- 13765&#45;&gt;13743 -->
<g id="edge16" class="edge">
<title>13765&#45;&gt;13743</title>
<path fill="none" stroke="#000000" d="M210.885,-2556.83C248.695,-2545.63 266.115,-2536.53 293.375,-2505.83"/>
<polygon fill="#000000" stroke="#000000" points="296.2955,-2507.8008 300.145,-2497.93 290.9802,-2503.2458 296.2955,-2507.8008"/>
</g>
<!-- 13751 -->
<g id="140" class="node">
<title>13751</title>
<ellipse fill="none" stroke="#000000" cx="353.445" cy="-2305.03" rx="87.5" ry="27"/>
<text text-anchor="middle" x="353.445" y="-2308.83" font-family="Times,serif" font-size="14.00" fill="#000000">the statement in the</text>
<text text-anchor="middle" x="353.445" y="-2293.83" font-family="Times,serif" font-size="14.00" fill="#000000">one case</text>
</g>
<!-- 13767&#45;&gt;13751 -->
<g id="edge17" class="edge">
<title>13767&#45;&gt;13751</title>
<path fill="none" stroke="#000000" d="M191.575,-2118.53C249.715,-2221.63 266.155,-2248.63 304.575,-2275.23"/>
<polygon fill="#000000" stroke="#000000" points="302.863,-2278.2951 313.125,-2280.93 306.7459,-2272.4708 302.863,-2278.2951"/>
</g>
<!-- 13801 -->
<g id="106" class="node">
<title>13801</title>
<ellipse fill="none" stroke="#000000" cx="353.445" cy="-2201.03" rx="99" ry="58.8803"/>
<text text-anchor="middle" x="353.445" y="-2227.33" font-family="Times,serif" font-size="14.00" fill="#000000">A man and an ox and</text>
<text text-anchor="middle" x="353.445" y="-2212.33" font-family="Times,serif" font-size="14.00" fill="#000000">these are univocally</text>
<text text-anchor="middle" x="353.445" y="-2197.33" font-family="Times,serif" font-size="14.00" fill="#000000">so named inasmuch as</text>
<text text-anchor="middle" x="353.445" y="-2182.33" font-family="Times,serif" font-size="14.00" fill="#000000">not only the name</text>
<text text-anchor="middle" x="353.445" y="-2167.33" font-family="Times,serif" font-size="14.00" fill="#000000">also is</text>
</g>
<!-- 13767&#45;&gt;13801 -->
<g id="edge18" class="edge">
<title>13767&#45;&gt;13801</title>
<path fill="none" stroke="#000000" d="M197.535,-2117.23C222.605,-2142.93 239.545,-2159.73 254.335,-2171.13"/>
<polygon fill="#000000" stroke="#000000" points="252.6783,-2174.2487 262.845,-2177.23 256.7564,-2168.5594 252.6783,-2174.2487"/>
</g>
<!-- 13799 -->
<g id="120" class="node">
<title>13799</title>
<ellipse fill="none" stroke="#000000" cx="353.445" cy="-2002.03" rx="94" ry="122.5"/>
<text text-anchor="middle" x="353.445" y="-2073.33" font-family="Times,serif" font-size="14.00" fill="#000000">A man and an ox are</text>
<text text-anchor="middle" x="353.445" y="-2058.33" font-family="Times,serif" font-size="14.00" fill="#000000">both Animal , and</text>
<text text-anchor="middle" x="353.445" y="-2043.33" font-family="Times,serif" font-size="14.00" fill="#000000">these are univocally</text>
<text text-anchor="middle" x="353.445" y="-2028.33" font-family="Times,serif" font-size="14.00" fill="#000000">so named , inasmuch</text>
<text text-anchor="middle" x="353.445" y="-2013.33" font-family="Times,serif" font-size="14.00" fill="#000000">as not only the name</text>
<text text-anchor="middle" x="353.445" y="-1998.33" font-family="Times,serif" font-size="14.00" fill="#000000">, but also the</text>
<text text-anchor="middle" x="353.445" y="-1983.33" font-family="Times,serif" font-size="14.00" fill="#000000">definition , the</text>
<text text-anchor="middle" x="353.445" y="-1968.33" font-family="Times,serif" font-size="14.00" fill="#000000">statement in the one</text>
<text text-anchor="middle" x="353.445" y="-1953.33" font-family="Times,serif" font-size="14.00" fill="#000000">case would be</text>
<text text-anchor="middle" x="353.445" y="-1938.33" font-family="Times,serif" font-size="14.00" fill="#000000">identical with that</text>
<text text-anchor="middle" x="353.445" y="-1923.33" font-family="Times,serif" font-size="14.00" fill="#000000">in the other</text>
</g>
<!-- 13767&#45;&gt;13799 -->
<g id="edge19" class="edge">
<title>13767&#45;&gt;13799</title>
<path fill="none" stroke="#000000" d="M213.565,-2097.23C237.775,-2093.93 253.565,-2090.13 269.165,-2081.03"/>
<polygon fill="#000000" stroke="#000000" points="271.3451,-2083.7889 277.855,-2075.43 267.5533,-2077.9049 271.3451,-2083.7889"/>
</g>
<!-- 13753 -->
<g id="104" class="node">
<title>13753</title>
<ellipse fill="none" stroke="#000000" cx="353.445" cy="-1844.03" rx="42.4939" ry="18"/>
<text text-anchor="middle" x="353.445" y="-1840.33" font-family="Times,serif" font-size="14.00" fill="#000000">these are</text>
</g>
<!-- 13767&#45;&gt;13753 -->
<g id="edge20" class="edge">
<title>13767&#45;&gt;13753</title>
<path fill="none" stroke="#000000" d="M201.115,-2086.43C267.785,-2036.03 276.735,-2021.03 341.545,-1871.43"/>
<polygon fill="#000000" stroke="#000000" points="344.8991,-1872.4949 345.695,-1861.93 338.4845,-1869.6927 344.8991,-1872.4949"/>
</g>
<!-- 13747 -->
<g id="161" class="node">
<title>13747</title>
<ellipse fill="none" stroke="#000000" cx="353.445" cy="-1760.03" rx="95" ry="48.1667"/>
<text text-anchor="middle" x="353.445" y="-1778.83" font-family="Times,serif" font-size="14.00" fill="#000000">Thus the grammarian</text>
<text text-anchor="middle" x="353.445" y="-1763.83" font-family="Times,serif" font-size="14.00" fill="#000000">derives his name</text>
<text text-anchor="middle" x="353.445" y="-1748.83" font-family="Times,serif" font-size="14.00" fill="#000000">from the word</text>
<text text-anchor="middle" x="353.445" y="-1733.83" font-family="Times,serif" font-size="14.00" fill="#000000">Grammar</text>
</g>
<!-- 13766&#45;&gt;13747 -->
<g id="edge21" class="edge">
<title>13766&#45;&gt;13747</title>
<path fill="none" stroke="#000000" d="M209.575,-1769.43C232.185,-1776.93 248.175,-1781.63 261.815,-1783.53"/>
<polygon fill="#000000" stroke="#000000" points="261.5573,-1787.0216 271.855,-1784.53 262.2512,-1780.056 261.5573,-1787.0216"/>
</g>
<!-- 13748 -->
<g id="174" class="node">
<title>13748</title>
<ellipse fill="none" stroke="#000000" cx="353.445" cy="-1614.03" rx="93.5" ry="80"/>
<text text-anchor="middle" x="353.445" y="-1655.33" font-family="Times,serif" font-size="14.00" fill="#000000">Thus , the</text>
<text text-anchor="middle" x="353.445" y="-1640.33" font-family="Times,serif" font-size="14.00" fill="#000000">grammarian derives</text>
<text text-anchor="middle" x="353.445" y="-1625.33" font-family="Times,serif" font-size="14.00" fill="#000000">his name from the</text>
<text text-anchor="middle" x="353.445" y="-1610.33" font-family="Times,serif" font-size="14.00" fill="#000000">word Grammar , and</text>
<text text-anchor="middle" x="353.445" y="-1595.33" font-family="Times,serif" font-size="14.00" fill="#000000">the courageous man</text>
<text text-anchor="middle" x="353.445" y="-1580.33" font-family="Times,serif" font-size="14.00" fill="#000000">from the word</text>
<text text-anchor="middle" x="353.445" y="-1565.33" font-family="Times,serif" font-size="14.00" fill="#000000">Courage .</text>
</g>
<!-- 13766&#45;&gt;13748 -->
<g id="edge22" class="edge">
<title>13766&#45;&gt;13748</title>
<path fill="none" stroke="#000000" d="M197.245,-1744.13C232.255,-1708.53 254.625,-1685.83 271.985,-1669.83"/>
<polygon fill="#000000" stroke="#000000" points="274.5535,-1672.2267 279.635,-1662.93 269.8651,-1667.0287 274.5535,-1672.2267"/>
</g>
<!-- 13742 -->
<g id="57" class="node">
<title>13742</title>
<ellipse fill="none" stroke="#000000" cx="353.445" cy="-1373.03" rx="92.7622" ry="143.5854"/>
<text text-anchor="middle" x="353.445" y="-1459.33" font-family="Times,serif" font-size="14.00" fill="#000000">Thus , a real man</text>
<text text-anchor="middle" x="353.445" y="-1444.33" font-family="Times,serif" font-size="14.00" fill="#000000">and a figure in a</text>
<text text-anchor="middle" x="353.445" y="-1429.33" font-family="Times,serif" font-size="14.00" fill="#000000">picture can both lay</text>
<text text-anchor="middle" x="353.445" y="-1414.33" font-family="Times,serif" font-size="14.00" fill="#000000">claim to the name</text>
<text text-anchor="middle" x="353.445" y="-1399.33" font-family="Times,serif" font-size="14.00" fill="#000000">Animal , yet these</text>
<text text-anchor="middle" x="353.445" y="-1384.33" font-family="Times,serif" font-size="14.00" fill="#000000">are equivocally so</text>
<text text-anchor="middle" x="353.445" y="-1369.33" font-family="Times,serif" font-size="14.00" fill="#000000">named , for , though</text>
<text text-anchor="middle" x="353.445" y="-1354.33" font-family="Times,serif" font-size="14.00" fill="#000000">they have a common</text>
<text text-anchor="middle" x="353.445" y="-1339.33" font-family="Times,serif" font-size="14.00" fill="#000000">name , the</text>
<text text-anchor="middle" x="353.445" y="-1324.33" font-family="Times,serif" font-size="14.00" fill="#000000">definition</text>
<text text-anchor="middle" x="353.445" y="-1309.33" font-family="Times,serif" font-size="14.00" fill="#000000">corresponding with</text>
<text text-anchor="middle" x="353.445" y="-1294.33" font-family="Times,serif" font-size="14.00" fill="#000000">the name differs for</text>
<text text-anchor="middle" x="353.445" y="-1279.33" font-family="Times,serif" font-size="14.00" fill="#000000">each .</text>
</g>
<!-- 13764&#45;&gt;13742 -->
<g id="edge23" class="edge">
<title>13764&#45;&gt;13742</title>
<path fill="none" stroke="#000000" d="M195.655,-1015.53C253.395,-1084.53 269.045,-1108.53 309.805,-1234.03"/>
<polygon fill="#000000" stroke="#000000" points="306.5034,-1235.1954 312.915,-1243.63 313.1627,-1233.0381 306.5034,-1235.1954"/>
</g>
<!-- 13750 -->
<g id="23" class="node">
<title>13750</title>
<ellipse fill="none" stroke="#000000" cx="353.445" cy="-1174.03" rx="86.5" ry="37.5"/>
<text text-anchor="middle" x="353.445" y="-1185.33" font-family="Times,serif" font-size="14.00" fill="#000000">the definition</text>
<text text-anchor="middle" x="353.445" y="-1170.33" font-family="Times,serif" font-size="14.00" fill="#000000">corresponding with</text>
<text text-anchor="middle" x="353.445" y="-1155.33" font-family="Times,serif" font-size="14.00" fill="#000000">the name</text>
</g>
<!-- 13764&#45;&gt;13750 -->
<g id="edge24" class="edge">
<title>13764&#45;&gt;13750</title>
<path fill="none" stroke="#000000" d="M207.375,-1010.43C261.045,-1035.13 274.655,-1048.43 325.405,-1129.03"/>
<polygon fill="#000000" stroke="#000000" points="322.4705,-1130.9382 330.765,-1137.53 328.3916,-1127.2044 322.4705,-1130.9382"/>
</g>
<!-- 13802 -->
<g id="9" class="node">
<title>13802</title>
<ellipse fill="none" stroke="#000000" cx="353.445" cy="-1092.03" rx="85" ry="27"/>
<text text-anchor="middle" x="353.445" y="-1095.83" font-family="Times,serif" font-size="14.00" fill="#000000">though they have a</text>
<text text-anchor="middle" x="353.445" y="-1080.83" font-family="Times,serif" font-size="14.00" fill="#000000">common name</text>
</g>
<!-- 13764&#45;&gt;13802 -->
<g id="edge25" class="edge">
<title>13764&#45;&gt;13802</title>
<path fill="none" stroke="#000000" d="M214.025,-1002.03C260.455,-1007.13 275.605,-1015.13 320.625,-1059.23"/>
<polygon fill="#000000" stroke="#000000" points="318.2334,-1061.7873 327.805,-1066.33 323.1554,-1056.8099 318.2334,-1061.7873"/>
</g>
<!-- 13804 -->
<g id="12" class="node">
<title>13804</title>
<ellipse fill="none" stroke="#000000" cx="353.445" cy="-999" rx="88.5" ry="48.1667"/>
<text text-anchor="middle" x="353.445" y="-1017.8" font-family="Times,serif" font-size="14.00" fill="#000000">when the definition</text>
<text text-anchor="middle" x="353.445" y="-1002.8" font-family="Times,serif" font-size="14.00" fill="#000000">corresponding with</text>
<text text-anchor="middle" x="353.445" y="-987.8" font-family="Times,serif" font-size="14.00" fill="#000000">the name differs for</text>
<text text-anchor="middle" x="353.445" y="-972.8" font-family="Times,serif" font-size="14.00" fill="#000000">each</text>
</g>
<!-- 13764&#45;&gt;13804 -->
<g id="edge26" class="edge">
<title>13764&#45;&gt;13804</title>
<path fill="none" stroke="#000000" d="M208.455,-988.5C234.695,-978.44 251.245,-973.35 267.595,-973.25"/>
<polygon fill="#000000" stroke="#000000" points="267.6457,-976.7582 277.825,-973.82 268.0352,-969.769 267.6457,-976.7582"/>
</g>
<!-- 13800 -->
<g id="0" class="node">
<title>13800</title>
<ellipse fill="none" stroke="#000000" cx="353.445" cy="-864" rx="98.5" ry="69.5"/>
<text text-anchor="middle" x="353.445" y="-897.8" font-family="Times,serif" font-size="14.00" fill="#000000">Things are said to</text>
<text text-anchor="middle" x="353.445" y="-882.8" font-family="Times,serif" font-size="14.00" fill="#000000">be named Equivocally</text>
<text text-anchor="middle" x="353.445" y="-867.8" font-family="Times,serif" font-size="14.00" fill="#000000">when the definition</text>
<text text-anchor="middle" x="353.445" y="-852.8" font-family="Times,serif" font-size="14.00" fill="#000000">corresponding with</text>
<text text-anchor="middle" x="353.445" y="-837.8" font-family="Times,serif" font-size="14.00" fill="#000000">the name differs for</text>
<text text-anchor="middle" x="353.445" y="-822.8" font-family="Times,serif" font-size="14.00" fill="#000000">each</text>
</g>
<!-- 13764&#45;&gt;13800 -->
<g id="edge27" class="edge">
<title>13764&#45;&gt;13800</title>
<path fill="none" stroke="#000000" d="M194.725,-982.32C225.025,-943.56 243.625,-920.48 260.565,-905.2"/>
<polygon fill="#000000" stroke="#000000" points="262.8882,-907.8191 268.265,-898.69 258.3688,-902.4736 262.8882,-907.8191"/>
</g>
<!-- 13752 -->
<g id="53" class="node">
<title>13752</title>
<ellipse fill="none" stroke="#000000" cx="353.445" cy="-759" rx="73" ry="18"/>
<text text-anchor="middle" x="353.445" y="-755.3" font-family="Times,serif" font-size="14.00" fill="#000000">the name Animal</text>
</g>
<!-- 13764&#45;&gt;13752 -->
<g id="edge28" class="edge">
<title>13764&#45;&gt;13752</title>
<path fill="none" stroke="#000000" d="M190.325,-981.26C257.035,-844 269.025,-822.05 321.545,-782.29"/>
<polygon fill="#000000" stroke="#000000" points="323.6757,-785.0671 329.595,-776.28 319.488,-779.4579 323.6757,-785.0671"/>
</g>
<!-- 13740 -->
<g id="25" class="node">
<title>13740</title>
<ellipse fill="none" stroke="#000000" cx="353.445" cy="-632" rx="103.4757" ry="90.5193"/>
<text text-anchor="middle" x="353.445" y="-680.8" font-family="Times,serif" font-size="14.00" fill="#000000">Things are said to</text>
<text text-anchor="middle" x="353.445" y="-665.8" font-family="Times,serif" font-size="14.00" fill="#000000">be named Equivocally</text>
<text text-anchor="middle" x="353.445" y="-650.8" font-family="Times,serif" font-size="14.00" fill="#000000">when , though they</text>
<text text-anchor="middle" x="353.445" y="-635.8" font-family="Times,serif" font-size="14.00" fill="#000000">have a common name ,</text>
<text text-anchor="middle" x="353.445" y="-620.8" font-family="Times,serif" font-size="14.00" fill="#000000">the definition</text>
<text text-anchor="middle" x="353.445" y="-605.8" font-family="Times,serif" font-size="14.00" fill="#000000">corresponding with</text>
<text text-anchor="middle" x="353.445" y="-590.8" font-family="Times,serif" font-size="14.00" fill="#000000">the name differs for</text>
<text text-anchor="middle" x="353.445" y="-575.8" font-family="Times,serif" font-size="14.00" fill="#000000">each .</text>
</g>
<!-- 13764&#45;&gt;13740 -->
<g id="edge29" class="edge">
<title>13764&#45;&gt;13740</title>
<path fill="none" stroke="#000000" d="M187.575,-981.2C240.525,-820.69 259.835,-763.61 289.585,-715.76"/>
<polygon fill="#000000" stroke="#000000" points="292.6046,-717.5352 295.065,-707.23 286.7152,-713.7516 292.6046,-717.5352"/>
</g>
<!-- 13798 -->
<g id="5" class="node">
<title>13798</title>
<ellipse fill="none" stroke="#000000" cx="353.445" cy="-454" rx="95.5" ry="69.5"/>
<text text-anchor="middle" x="353.445" y="-487.8" font-family="Times,serif" font-size="14.00" fill="#000000">to be named</text>
<text text-anchor="middle" x="353.445" y="-472.8" font-family="Times,serif" font-size="14.00" fill="#000000">Equivocally when the</text>
<text text-anchor="middle" x="353.445" y="-457.8" font-family="Times,serif" font-size="14.00" fill="#000000">definition</text>
<text text-anchor="middle" x="353.445" y="-442.8" font-family="Times,serif" font-size="14.00" fill="#000000">corresponding with</text>
<text text-anchor="middle" x="353.445" y="-427.8" font-family="Times,serif" font-size="14.00" fill="#000000">the name differs for</text>
<text text-anchor="middle" x="353.445" y="-412.8" font-family="Times,serif" font-size="14.00" fill="#000000">each</text>
</g>
<!-- 13764&#45;&gt;13798 -->
<g id="edge30" class="edge">
<title>13764&#45;&gt;13798</title>
<path fill="none" stroke="#000000" d="M185.815,-980.88C253.925,-680.26 267.375,-623.12 314.895,-527.85"/>
<polygon fill="#000000" stroke="#000000" points="318.0754,-529.316 319.445,-518.81 311.8228,-526.1688 318.0754,-529.316"/>
</g>
<!-- 13803 -->
<g id="35" class="node">
<title>13803</title>
<ellipse fill="none" stroke="#000000" cx="353.445" cy="-266" rx="96.3333" ry="101.2327"/>
<text text-anchor="middle" x="353.445" y="-322.3" font-family="Times,serif" font-size="14.00" fill="#000000">Thus , a real man</text>
<text text-anchor="middle" x="353.445" y="-307.3" font-family="Times,serif" font-size="14.00" fill="#000000">and a figure in a</text>
<text text-anchor="middle" x="353.445" y="-292.3" font-family="Times,serif" font-size="14.00" fill="#000000">picture can both</text>
<text text-anchor="middle" x="353.445" y="-277.3" font-family="Times,serif" font-size="14.00" fill="#000000">these are</text>
<text text-anchor="middle" x="353.445" y="-262.3" font-family="Times,serif" font-size="14.00" fill="#000000">equivocally so named</text>
<text text-anchor="middle" x="353.445" y="-247.3" font-family="Times,serif" font-size="14.00" fill="#000000">for the definition</text>
<text text-anchor="middle" x="353.445" y="-232.3" font-family="Times,serif" font-size="14.00" fill="#000000">corresponding with</text>
<text text-anchor="middle" x="353.445" y="-217.3" font-family="Times,serif" font-size="14.00" fill="#000000">the name differs for</text>
<text text-anchor="middle" x="353.445" y="-202.3" font-family="Times,serif" font-size="14.00" fill="#000000">each</text>
</g>
<!-- 13768&#45;&gt;13803 -->
<g id="edge31" class="edge">
<title>13768&#45;&gt;13803</title>
<path fill="none" stroke="#000000" d="M214.215,-188.71C237.425,-189.62 252.785,-191.8 268.135,-198.83"/>
<polygon fill="#000000" stroke="#000000" points="266.7385,-202.0488 277.225,-203.56 269.9697,-195.8391 266.7385,-202.0488"/>
</g>
<!-- 13754 -->
<g id="30" class="node">
<title>13754</title>
<ellipse fill="none" stroke="#000000" cx="353.445" cy="-109" rx="96.2136" ry="37.5"/>
<text text-anchor="middle" x="353.445" y="-120.3" font-family="Times,serif" font-size="14.00" fill="#000000">these are</text>
<text text-anchor="middle" x="353.445" y="-105.3" font-family="Times,serif" font-size="14.00" fill="#000000">equivocally so named</text>
<text text-anchor="middle" x="353.445" y="-90.3" font-family="Times,serif" font-size="14.00" fill="#000000">for</text>
</g>
<!-- 13768&#45;&gt;13754 -->
<g id="edge32" class="edge">
<title>13768&#45;&gt;13754</title>
<path fill="none" stroke="#000000" d="M199.115,-172.42C223.315,-150.85 239.765,-136.81 254.295,-127.59"/>
<polygon fill="#000000" stroke="#000000" points="256.2615,-130.4955 263.155,-122.45 252.7488,-124.4407 256.2615,-130.4955"/>
</g>
<!-- 13805 -->
<g id="32" class="node">
<title>13805</title>
<ellipse fill="none" stroke="#000000" cx="353.445" cy="-27" rx="85" ry="27"/>
<text text-anchor="middle" x="353.445" y="-30.8" font-family="Times,serif" font-size="14.00" fill="#000000">though they have a</text>
<text text-anchor="middle" x="353.445" y="-15.8" font-family="Times,serif" font-size="14.00" fill="#000000">common name</text>
</g>
<!-- 13768&#45;&gt;13805 -->
<g id="edge33" class="edge">
<title>13768&#45;&gt;13805</title>
<path fill="none" stroke="#000000" d="M193.295,-170.88C243.575,-96.685 261.825,-71.621 293.025,-53.525"/>
<polygon fill="#000000" stroke="#000000" points="295.0604,-56.4035 302.195,-48.571 291.7332,-50.2448 295.0604,-56.4035"/>
</g>
</g>
</svg>
