<?xml version="1.0" encoding="UTF-8" standalone="no"?>
<!DOCTYPE svg PUBLIC "-//W3C//DTD SVG 1.1//EN"
 "http://www.w3.org/Graphics/SVG/1.1/DTD/svg11.dtd">
<!-- Generated by graphviz version 2.40.1 (20161225.0304)
 -->
<!-- Pages: 1 -->
<svg width="1660pt" height="1073pt"
 viewBox="0.00 0.00 1660.14 1072.68" xmlns="http://www.w3.org/2000/svg" xmlns:xlink="http://www.w3.org/1999/xlink">
<g id="graph0" class="graph" transform="scale(1 1) rotate(0) translate(4 1068.682)">
<polygon fill="#ffffff" stroke="transparent" points="-4,4 -4,-1068.682 1656.141,-1068.682 1656.141,4 -4,4"/>
<!-- {12} -->
<g id="[12, 12, 12, 12, 12, 12, 12, 12, 12, 12, 12, 12, 12, 12, 12, 12, 12, 12, 12, 12, 12, 12, 12, 12, 12, 12, 12]" class="node">
<title>{12}</title>
<ellipse fill="none" stroke="#000000" cx="95.5" cy="-582.842" rx="88.5" ry="48.1667"/>
<text text-anchor="middle" x="95.5" y="-601.642" font-family="Times,serif" font-size="14.00" fill="#000000">when the definition</text>
<text text-anchor="middle" x="95.5" y="-586.642" font-family="Times,serif" font-size="14.00" fill="#000000">corresponding with</text>
<text text-anchor="middle" x="95.5" y="-571.642" font-family="Times,serif" font-size="14.00" fill="#000000">the name differs for</text>
<text text-anchor="middle" x="95.5" y="-556.642" font-family="Times,serif" font-size="14.00" fill="#000000">each</text>
</g>
<!-- {2, 20, 13, 6} -->
<g id="[13, 13, 13, 13, 13, 13, 6, 6, 6, 6, 6, 6, 13, 13, 13, 6, 6, 6, 13, 13, 13, 6, 6, 6, 2, 2, 2, 2, 2, 2, 2, 2, 2, 2, 2, 2, 2, 2, 2, 2, 2, 2, 2, 2, 2, 2, 2, 2, 2, 2, 2, 2, 2, 2, 20, 20, 20, 20, 20, 20, 20, 20, 20, 20, 20, 20, 20, 20, 20, 20, 20, 20, 20, 20, 20, 20, 20, 20, 20, 20, 20, 20, 20, 20, 20, 20, 20, 2, 2, 2, 20, 20, 20, 2, 2, 2]" class="node">
<title>{2, 20, 13, 6}</title>
<ellipse fill="none" stroke="#000000" cx="1585.141" cy="-941.842" rx="67" ry="18"/>
<text text-anchor="middle" x="1585.141" y="-938.142" font-family="Times,serif" font-size="14.00" fill="#000000">definition name</text>
</g>
<!-- {12}&#45;&gt;{2, 20, 13, 6} -->
<g id="edge1" class="edge">
<title>{12}&#45;&gt;{2, 20, 13, 6}</title>
<path fill="none" stroke="#000000" d="M153.021,-619.392C836.881,-1053.632 876.051,-1064.682 1518.641,-953.402"/>
<polygon fill="#000000" stroke="#000000" points="1519.384,-956.8255 1528.641,-951.672 1518.1907,-949.928 1519.384,-956.8255"/>
</g>
<!-- {17, 1} -->
<g id="[17, 17, 17, 17, 17, 17, 1, 1, 1, 1, 1, 1, 17, 17, 17, 17, 17, 17, 1, 1, 1, 1, 1, 1, 17, 17, 17, 1, 1, 1, 17, 17, 17, 17, 17, 17, 1, 1, 1, 1, 1, 1, 1, 1, 1, 1, 1, 1, 1, 1, 1, 1, 1, 1, 1, 1, 1, 17, 17, 17, 1, 1, 1, 1, 1, 1, 1, 1, 1, 1, 1, 1, 1, 1, 1, 1, 1, 1, 17, 17, 17, 17, 17, 17, 17, 17, 17, 17, 17, 17, 17, 17, 17, 17, 17, 17, 17, 17, 17, 17, 17, 17, 17, 17, 17, 17, 17, 17, 17, 17, 17, 1, 1, 1, 17, 17, 17, 1, 1, 1]" class="node">
<title>{17, 1}</title>
<ellipse fill="none" stroke="#000000" cx="1585.141" cy="-206.842" rx="35.194" ry="18"/>
<text text-anchor="middle" x="1585.141" y="-203.142" font-family="Times,serif" font-size="14.00" fill="#000000">Things</text>
</g>
<!-- {12}&#45;&gt;{17, 1} -->
<g id="edge2" class="edge">
<title>{12}&#45;&gt;{17, 1}</title>
<path fill="none" stroke="#000000" d="M153.081,-546.182C855.871,-98.938 887.841,-92.157 1541.341,-199.632"/>
<polygon fill="#000000" stroke="#000000" points="1541.1069,-203.1402 1551.541,-201.302 1542.2379,-196.2322 1541.1069,-203.1402"/>
</g>
<!-- {35} -->
<g id="[35, 35, 35, 35, 35, 35, 35, 35, 35, 35, 35, 35, 35, 35, 35, 35, 35, 35, 35, 35, 35, 35, 35, 35, 35, 35, 35, 35, 35, 35, 35, 35, 35, 35, 35, 35, 35, 35]" class="node">
<title>{35}</title>
<ellipse fill="none" stroke="#000000" cx="772.721" cy="-760.842" rx="95" ry="37.5"/>
<text text-anchor="middle" x="772.721" y="-772.142" font-family="Times,serif" font-size="14.00" fill="#000000">which have both the</text>
<text text-anchor="middle" x="772.721" y="-757.142" font-family="Times,serif" font-size="14.00" fill="#000000">name answering to</text>
<text text-anchor="middle" x="772.721" y="-742.142" font-family="Times,serif" font-size="14.00" fill="#000000">the name in common</text>
</g>
<!-- {12}&#45;&gt;{35} -->
<g id="edge3" class="edge">
<title>{12}&#45;&gt;{35}</title>
<path fill="none" stroke="#000000" d="M156.631,-617.792C290.191,-692.632 341.301,-704.212 672.111,-747.702"/>
<polygon fill="#000000" stroke="#000000" points="672.1108,-751.2319 682.481,-749.062 673.0211,-744.2913 672.1108,-751.2319"/>
</g>
<!-- {27} -->
<g id="[27, 27, 27, 27, 27, 27, 27, 27, 27, 27, 27, 27, 27, 27, 27, 27, 27, 27, 27, 27, 27, 27, 27, 27, 27, 27, 27, 27, 27, 27, 27]" class="node">
<title>{27}</title>
<ellipse fill="none" stroke="#000000" cx="330.201" cy="-582.842" rx="103.4757" ry="90.5193"/>
<text text-anchor="middle" x="330.201" y="-631.642" font-family="Times,serif" font-size="14.00" fill="#000000">Things are said to</text>
<text text-anchor="middle" x="330.201" y="-616.642" font-family="Times,serif" font-size="14.00" fill="#000000">be named Equivocally</text>
<text text-anchor="middle" x="330.201" y="-601.642" font-family="Times,serif" font-size="14.00" fill="#000000">when , though they</text>
<text text-anchor="middle" x="330.201" y="-586.642" font-family="Times,serif" font-size="14.00" fill="#000000">have a common name ,</text>
<text text-anchor="middle" x="330.201" y="-571.642" font-family="Times,serif" font-size="14.00" fill="#000000">the definition</text>
<text text-anchor="middle" x="330.201" y="-556.642" font-family="Times,serif" font-size="14.00" fill="#000000">corresponding with</text>
<text text-anchor="middle" x="330.201" y="-541.642" font-family="Times,serif" font-size="14.00" fill="#000000">the name differs for</text>
<text text-anchor="middle" x="330.201" y="-526.642" font-family="Times,serif" font-size="14.00" fill="#000000">each .</text>
</g>
<!-- {12}&#45;&gt;{27} -->
<g id="edge4" class="edge">
<title>{12}&#45;&gt;{27}</title>
<path fill="none" stroke="#000000" d="M184.021,-582.162C193.391,-582.172 204.011,-582.202 216.681,-582.252"/>
<polygon fill="#000000" stroke="#000000" points="216.7672,-585.7523 226.781,-582.292 216.795,-578.7523 216.7672,-585.7523"/>
</g>
<!-- {0} -->
<g id="[0, 0, 0, 0, 0, 0, 0, 0, 0, 0, 0, 0, 0, 0, 0, 0, 0, 0, 0, 0, 0, 0, 0, 0, 0, 0, 0, 0, 0, 0, 0]" class="node">
<title>{0}</title>
<ellipse fill="none" stroke="#000000" cx="330.201" cy="-328.842" rx="98.5" ry="69.5"/>
<text text-anchor="middle" x="330.201" y="-362.642" font-family="Times,serif" font-size="14.00" fill="#000000">Things are said to</text>
<text text-anchor="middle" x="330.201" y="-347.642" font-family="Times,serif" font-size="14.00" fill="#000000">be named Equivocally</text>
<text text-anchor="middle" x="330.201" y="-332.642" font-family="Times,serif" font-size="14.00" fill="#000000">when the definition</text>
<text text-anchor="middle" x="330.201" y="-317.642" font-family="Times,serif" font-size="14.00" fill="#000000">corresponding with</text>
<text text-anchor="middle" x="330.201" y="-302.642" font-family="Times,serif" font-size="14.00" fill="#000000">the name differs for</text>
<text text-anchor="middle" x="330.201" y="-287.642" font-family="Times,serif" font-size="14.00" fill="#000000">each</text>
</g>
<!-- {12}&#45;&gt;{0} -->
<g id="edge5" class="edge">
<title>{12}&#45;&gt;{0}</title>
<path fill="none" stroke="#000000" d="M112.451,-535.342C140.921,-458.702 159.621,-435.142 246.891,-379.862"/>
<polygon fill="#000000" stroke="#000000" points="248.9517,-382.7006 255.551,-374.412 245.2233,-376.7761 248.9517,-382.7006"/>
</g>
<!-- {23} -->
<g id="[23, 23, 23, 23, 23, 23, 23, 23, 23, 23, 23, 23, 23, 23, 23, 23]" class="node">
<title>{23}</title>
<ellipse fill="none" stroke="#000000" cx="555.701" cy="-412.842" rx="71" ry="18"/>
<text text-anchor="middle" x="555.701" y="-409.142" font-family="Times,serif" font-size="14.00" fill="#000000">a common name</text>
</g>
<!-- {12}&#45;&gt;{23} -->
<g id="edge6" class="edge">
<title>{12}&#45;&gt;{23}</title>
<path fill="none" stroke="#000000" d="M146.811,-543.652C228.681,-483.312 269.611,-471.322 490.341,-426.162"/>
<polygon fill="#000000" stroke="#000000" points="491.2067,-429.5574 500.301,-424.122 489.8021,-422.6998 491.2067,-429.5574"/>
</g>
<!-- {49} -->
<g id="[49, 49, 49, 49, 49, 49, 49, 49, 49, 49, 49, 49, 49, 49, 49, 49, 49, 49, 49, 49, 49, 49, 49, 49, 49, 49, 49, 49, 49, 49, 49]" class="node">
<title>{49}</title>
<ellipse fill="none" stroke="#000000" cx="772.721" cy="-854.842" rx="80" ry="37.5"/>
<text text-anchor="middle" x="772.721" y="-866.142" font-family="Times,serif" font-size="14.00" fill="#000000">both the name</text>
<text text-anchor="middle" x="772.721" y="-851.142" font-family="Times,serif" font-size="14.00" fill="#000000">answering to the</text>
<text text-anchor="middle" x="772.721" y="-836.142" font-family="Times,serif" font-size="14.00" fill="#000000">name in common</text>
</g>
<!-- {12}&#45;&gt;{49} -->
<g id="edge7" class="edge">
<title>{12}&#45;&gt;{49}</title>
<path fill="none" stroke="#000000" d="M141.431,-624.112C287.571,-754.032 329.101,-768.962 688.681,-838.632"/>
<polygon fill="#000000" stroke="#000000" points="688.1078,-842.086 698.591,-840.552 689.4393,-835.2137 688.1078,-842.086"/>
</g>
<!-- {44} -->
<g id="[44, 44, 44, 44, 44, 44, 44, 44, 44, 44, 44, 44, 44, 44, 44, 44, 44, 44, 44, 44, 44, 44, 44, 44, 44, 44, 44, 44, 44, 44, 44, 44, 44, 44, 44, 44]" class="node">
<title>{44}</title>
<ellipse fill="none" stroke="#000000" cx="1385.341" cy="-973.842" rx="97" ry="27"/>
<text text-anchor="middle" x="1385.341" y="-977.642" font-family="Times,serif" font-size="14.00" fill="#000000">name definition name</text>
<text text-anchor="middle" x="1385.341" y="-962.642" font-family="Times,serif" font-size="14.00" fill="#000000">common</text>
</g>
<!-- {35}&#45;&gt;{44} -->
<g id="edge8" class="edge">
<title>{35}&#45;&gt;{44}</title>
<path fill="none" stroke="#000000" d="M830.901,-790.552C1100.441,-928.042 1161.241,-955.922 1280.541,-967.122"/>
<polygon fill="#000000" stroke="#000000" points="1280.472,-970.6294 1290.741,-968.022 1281.0874,-963.6565 1280.472,-970.6294"/>
</g>
<!-- {32, 37} -->
<g id="[37, 37, 37, 37, 37, 37, 37, 37, 37, 37, 37, 37, 37, 37, 37, 37, 37, 37, 37, 37, 37, 37, 37, 37, 32, 32, 32, 32, 32, 32, 32, 32, 32, 32, 32, 32, 32, 32, 32, 32, 32, 32, 32, 32, 32, 32, 32, 32, 32, 32, 32, 32, 32, 32, 32, 32, 32, 32, 32, 32]" class="node">
<title>{32, 37}</title>
<ellipse fill="none" stroke="#000000" cx="1385.341" cy="-910.842" rx="86.5" ry="18"/>
<text text-anchor="middle" x="1385.341" y="-907.142" font-family="Times,serif" font-size="14.00" fill="#000000">name name common</text>
</g>
<!-- {35}&#45;&gt;{32, 37} -->
<g id="edge9" class="edge">
<title>{35}&#45;&gt;{32, 37}</title>
<path fill="none" stroke="#000000" d="M838.901,-787.792C1110.841,-898.342 1168.141,-917.942 1291.041,-915.202"/>
<polygon fill="#000000" stroke="#000000" points="1291.2381,-918.6981 1301.141,-914.932 1291.051,-911.7006 1291.2381,-918.6981"/>
</g>
<!-- {42, 30} -->
<g id="[42, 42, 42, 42, 42, 42, 30, 30, 30, 30, 30, 30, 42, 42, 42, 42, 42, 42, 30, 30, 30, 30, 30, 30, 42, 42, 42, 30, 30, 30, 42, 42, 42, 42, 42, 42, 30, 30, 30, 30, 30, 30, 30, 30, 30, 30, 30, 30, 30, 30, 30, 30, 30, 30, 30, 30, 30, 42, 42, 42, 30, 30, 30, 30, 30, 30, 30, 30, 30, 30, 30, 30, 30, 30, 30, 30, 30, 30, 42, 42, 42, 42, 42, 42, 42, 42, 42, 42, 42, 42, 42, 42, 42, 42, 42, 42, 42, 42, 42, 42, 42, 42, 42, 42, 42, 42, 42, 42, 42, 42, 42, 30, 30, 30, 42, 42, 42, 30, 30, 30]" class="node">
<title>{42, 30}</title>
<ellipse fill="none" stroke="#000000" cx="1385.341" cy="-699.842" rx="32.5" ry="18"/>
<text text-anchor="middle" x="1385.341" y="-696.142" font-family="Times,serif" font-size="14.00" fill="#000000">things</text>
</g>
<!-- {35}&#45;&gt;{42, 30} -->
<g id="edge10" class="edge">
<title>{35}&#45;&gt;{42, 30}</title>
<path fill="none" stroke="#000000" d="M866.261,-767.022C1166.841,-786.492 1200.241,-782.052 1350.241,-715.502"/>
<polygon fill="#000000" stroke="#000000" points="1352.1202,-718.4973 1359.841,-711.242 1349.2809,-712.099 1352.1202,-718.4973"/>
</g>
<!-- {51} -->
<g id="[51, 51, 51, 51, 51, 51, 51, 51, 51, 51, 51, 51, 51, 51, 51, 51, 51, 51, 51, 51, 51, 51, 51, 51, 51, 51, 51, 51, 51, 51, 51, 51, 51, 51, 51, 51, 51, 51, 51, 51]" class="node">
<title>{51}</title>
<ellipse fill="none" stroke="#000000" cx="998.221" cy="-861.842" rx="95" ry="90.5193"/>
<text text-anchor="middle" x="998.221" y="-910.642" font-family="Times,serif" font-size="14.00" fill="#000000">On the other hand ,</text>
<text text-anchor="middle" x="998.221" y="-895.642" font-family="Times,serif" font-size="14.00" fill="#000000">things are said to</text>
<text text-anchor="middle" x="998.221" y="-880.642" font-family="Times,serif" font-size="14.00" fill="#000000">be named Univocally</text>
<text text-anchor="middle" x="998.221" y="-865.642" font-family="Times,serif" font-size="14.00" fill="#000000">which have both the</text>
<text text-anchor="middle" x="998.221" y="-850.642" font-family="Times,serif" font-size="14.00" fill="#000000">name and the</text>
<text text-anchor="middle" x="998.221" y="-835.642" font-family="Times,serif" font-size="14.00" fill="#000000">definition answering</text>
<text text-anchor="middle" x="998.221" y="-820.642" font-family="Times,serif" font-size="14.00" fill="#000000">to the name in</text>
<text text-anchor="middle" x="998.221" y="-805.642" font-family="Times,serif" font-size="14.00" fill="#000000">common .</text>
</g>
<!-- {35}&#45;&gt;{51} -->
<g id="edge11" class="edge">
<title>{35}&#45;&gt;{51}</title>
<path fill="none" stroke="#000000" d="M815.871,-794.342C851.451,-821.632 874.021,-837.472 894.741,-846.852"/>
<polygon fill="#000000" stroke="#000000" points="893.5909,-850.1632 904.171,-850.722 896.2486,-843.6874 893.5909,-850.1632"/>
</g>
<!-- {28} -->
<g id="[28, 28, 28, 28, 28, 28, 28, 28, 28, 28, 28, 28, 28, 28, 28, 28, 28, 28, 28, 28, 28, 28, 28, 28, 28, 28, 28, 28, 28, 28, 28, 28, 28, 28, 28, 28, 28, 28, 28, 28]" class="node">
<title>{28}</title>
<ellipse fill="none" stroke="#000000" cx="998.221" cy="-607.842" rx="95" ry="69.5"/>
<text text-anchor="middle" x="998.221" y="-641.642" font-family="Times,serif" font-size="14.00" fill="#000000">On the other hand</text>
<text text-anchor="middle" x="998.221" y="-626.642" font-family="Times,serif" font-size="14.00" fill="#000000">things are said to</text>
<text text-anchor="middle" x="998.221" y="-611.642" font-family="Times,serif" font-size="14.00" fill="#000000">be named Univocally</text>
<text text-anchor="middle" x="998.221" y="-596.642" font-family="Times,serif" font-size="14.00" fill="#000000">which have both the</text>
<text text-anchor="middle" x="998.221" y="-581.642" font-family="Times,serif" font-size="14.00" fill="#000000">name answering to</text>
<text text-anchor="middle" x="998.221" y="-566.642" font-family="Times,serif" font-size="14.00" fill="#000000">the name in common</text>
</g>
<!-- {35}&#45;&gt;{28} -->
<g id="edge12" class="edge">
<title>{35}&#45;&gt;{28}</title>
<path fill="none" stroke="#000000" d="M854.341,-741.632C899.031,-728.802 920.411,-714.442 948.981,-677.852"/>
<polygon fill="#000000" stroke="#000000" points="951.9142,-679.7774 955.191,-669.702 946.3463,-675.5348 951.9142,-679.7774"/>
</g>
<!-- {47} -->
<g id="[47, 47, 47, 47, 47, 47, 47, 47, 47, 47, 47, 47, 47, 47, 47, 47, 47, 47, 47, 47, 47, 47]" class="node">
<title>{47}</title>
<ellipse fill="none" stroke="#000000" cx="1190.741" cy="-864.842" rx="61.99" ry="18"/>
<text text-anchor="middle" x="1190.741" y="-861.142" font-family="Times,serif" font-size="14.00" fill="#000000">the other hand</text>
</g>
<!-- {35}&#45;&gt;{47} -->
<g id="edge13" class="edge">
<title>{35}&#45;&gt;{47}</title>
<path fill="none" stroke="#000000" d="M833.711,-789.542C996.671,-865.852 1034.641,-878.792 1122.641,-871.912"/>
<polygon fill="#000000" stroke="#000000" points="1123.074,-875.3879 1132.741,-871.052 1122.4801,-868.4131 1123.074,-875.3879"/>
</g>
<!-- {27}&#45;&gt;{2, 20, 13, 6} -->
<g id="edge14" class="edge">
<title>{27}&#45;&gt;{2, 20, 13, 6}</title>
<path fill="none" stroke="#000000" d="M418.751,-629.582C1056.641,-965.922 1108.741,-982.922 1511.141,-948.352"/>
<polygon fill="#000000" stroke="#000000" points="1511.6789,-951.8187 1521.341,-947.472 1511.0771,-944.8446 1511.6789,-951.8187"/>
</g>
<!-- {27}&#45;&gt;{17, 1} -->
<g id="edge15" class="edge">
<title>{27}&#45;&gt;{17, 1}</title>
<path fill="none" stroke="#000000" d="M420.901,-539.182C1105.441,-209.912 1145.941,-198.422 1539.641,-205.942"/>
<polygon fill="#000000" stroke="#000000" points="1539.8749,-209.4471 1549.941,-206.142 1540.0109,-202.4484 1539.8749,-209.4471"/>
</g>
<!-- {27}&#45;&gt;{23} -->
<g id="edge16" class="edge">
<title>{27}&#45;&gt;{23}</title>
<path fill="none" stroke="#000000" d="M382.601,-504.662C406.851,-479.012 438.341,-463.162 509.891,-432.372"/>
<polygon fill="#000000" stroke="#000000" points="511.4864,-435.4963 519.301,-428.342 508.7306,-429.0615 511.4864,-435.4963"/>
</g>
<!-- {27}&#45;&gt;{51} -->
<g id="edge17" class="edge">
<title>{27}&#45;&gt;{51}</title>
<path fill="none" stroke="#000000" d="M397.291,-652.032C541.051,-797.302 591.421,-815.232 893.881,-850.102"/>
<polygon fill="#000000" stroke="#000000" points="893.4873,-853.5797 903.821,-851.242 894.2849,-846.6253 893.4873,-853.5797"/>
</g>
<!-- {26} -->
<g id="[26, 26, 26, 26, 26, 26, 26, 26, 26, 26, 26, 26]" class="node">
<title>{26}</title>
<ellipse fill="none" stroke="#000000" cx="555.701" cy="-504.842" rx="45" ry="18"/>
<text text-anchor="middle" x="555.701" y="-501.142" font-family="Times,serif" font-size="14.00" fill="#000000">definition</text>
</g>
<!-- {27}&#45;&gt;{26} -->
<g id="edge18" class="edge">
<title>{27}&#45;&gt;{26}</title>
<path fill="none" stroke="#000000" d="M418.651,-535.522C438.891,-529.432 465.431,-523.482 505.691,-515.112"/>
<polygon fill="#000000" stroke="#000000" points="506.5583,-518.5068 515.641,-513.052 505.1391,-511.6521 506.5583,-518.5068"/>
</g>
<!-- {14} -->
<g id="[14, 14, 14, 14, 14, 14, 14, 14, 14, 14, 14, 14]" class="node">
<title>{14}</title>
<ellipse fill="none" stroke="#000000" cx="1385.341" cy="-472.842" rx="30.5947" ry="18"/>
<text text-anchor="middle" x="1385.341" y="-469.142" font-family="Times,serif" font-size="14.00" fill="#000000">name</text>
</g>
<!-- {27}&#45;&gt;{14} -->
<g id="edge19" class="edge">
<title>{27}&#45;&gt;{14}</title>
<path fill="none" stroke="#000000" d="M424.241,-545.362C933.881,-342.812 970.121,-343.182 1348.741,-461.402"/>
<polygon fill="#000000" stroke="#000000" points="1347.7522,-464.7599 1358.341,-464.402 1349.8402,-458.0785 1347.7522,-464.7599"/>
</g>
<!-- {25} -->
<g id="[25, 25, 25, 25, 25, 25, 25, 25, 25, 25, 25, 25]" class="node">
<title>{25}</title>
<ellipse fill="none" stroke="#000000" cx="555.701" cy="-653.842" rx="86.5" ry="37.5"/>
<text text-anchor="middle" x="555.701" y="-665.142" font-family="Times,serif" font-size="14.00" fill="#000000">the definition</text>
<text text-anchor="middle" x="555.701" y="-650.142" font-family="Times,serif" font-size="14.00" fill="#000000">corresponding with</text>
<text text-anchor="middle" x="555.701" y="-635.142" font-family="Times,serif" font-size="14.00" fill="#000000">the name</text>
</g>
<!-- {27}&#45;&gt;{25} -->
<g id="edge20" class="edge">
<title>{27}&#45;&gt;{25}</title>
<path fill="none" stroke="#000000" d="M422.121,-624.762C434.451,-628.112 449.101,-631.552 467.581,-635.572"/>
<polygon fill="#000000" stroke="#000000" points="467.088,-639.046 477.601,-637.732 468.5631,-632.2032 467.088,-639.046"/>
</g>
<!-- {0}&#45;&gt;{2, 20, 13, 6} -->
<g id="edge21" class="edge">
<title>{0}&#45;&gt;{2, 20, 13, 6}</title>
<path fill="none" stroke="#000000" d="M408.451,-371.182C1154.141,-774.632 1198.141,-796.562 1536.341,-923.542"/>
<polygon fill="#000000" stroke="#000000" points="1535.3487,-926.9079 1545.941,-927.142 1537.8067,-920.3535 1535.3487,-926.9079"/>
</g>
<!-- {0}&#45;&gt;{17, 1} -->
<g id="edge22" class="edge">
<title>{0}&#45;&gt;{17, 1}</title>
<path fill="none" stroke="#000000" d="M415.621,-294.112C1037.441,-41.71 1073.741,-41.45 1545.641,-194.052"/>
<polygon fill="#000000" stroke="#000000" points="1544.8489,-197.4746 1555.441,-197.232 1547.0095,-190.8163 1544.8489,-197.4746"/>
</g>
<!-- {0}&#45;&gt;{23} -->
<g id="edge23" class="edge">
<title>{0}&#45;&gt;{23}</title>
<path fill="none" stroke="#000000" d="M420.721,-356.032C441.481,-364.062 468.331,-375.382 510.081,-393.262"/>
<polygon fill="#000000" stroke="#000000" points="508.9511,-396.5857 519.521,-397.312 511.711,-390.1527 508.9511,-396.5857"/>
</g>
<!-- {0}&#45;&gt;{28} -->
<g id="edge24" class="edge">
<title>{0}&#45;&gt;{28}</title>
<path fill="none" stroke="#000000" d="M423.631,-350.802C550.641,-382.492 612.861,-411.482 910.981,-563.352"/>
<polygon fill="#000000" stroke="#000000" points="909.8221,-566.6896 920.321,-568.112 913.0006,-560.4529 909.8221,-566.6896"/>
</g>
<!-- {0}&#45;&gt;{26} -->
<g id="edge25" class="edge">
<title>{0}&#45;&gt;{26}</title>
<path fill="none" stroke="#000000" d="M387.381,-385.202C413.171,-407.232 447.001,-430.772 524.201,-483.392"/>
<polygon fill="#000000" stroke="#000000" points="522.5854,-486.5263 532.821,-489.262 526.5255,-480.7404 522.5854,-486.5263"/>
</g>
<!-- {0}&#45;&gt;{14} -->
<g id="edge26" class="edge">
<title>{0}&#45;&gt;{14}</title>
<path fill="none" stroke="#000000" d="M423.401,-306.002C883.191,-194.202 919.571,-206.542 1354.541,-455.212"/>
<polygon fill="#000000" stroke="#000000" points="1352.8235,-458.2617 1363.241,-460.192 1356.301,-452.1866 1352.8235,-458.2617"/>
</g>
<!-- {0}&#45;&gt;{25} -->
<g id="edge27" class="edge">
<title>{0}&#45;&gt;{25}</title>
<path fill="none" stroke="#000000" d="M348.671,-397.002C370.971,-469.242 396.861,-499.462 512.711,-612.162"/>
<polygon fill="#000000" stroke="#000000" points="510.4999,-614.8936 520.111,-619.352 515.3779,-609.8732 510.4999,-614.8936"/>
</g>
<!-- {23}&#45;&gt;{2, 20, 13, 6} -->
<g id="edge28" class="edge">
<title>{23}&#45;&gt;{2, 20, 13, 6}</title>
<path fill="none" stroke="#000000" d="M589.491,-428.702C1258.941,-742.842 1291.041,-758.552 1550.041,-919.942"/>
<polygon fill="#000000" stroke="#000000" points="1548.2035,-922.9209 1558.541,-925.242 1551.9073,-916.981 1548.2035,-922.9209"/>
</g>
<!-- {23}&#45;&gt;{17, 1} -->
<g id="edge29" class="edge">
<title>{23}&#45;&gt;{17, 1}</title>
<path fill="none" stroke="#000000" d="M593.591,-397.582C1181.841,-160.715 1212.941,-151.907 1540.941,-200.272"/>
<polygon fill="#000000" stroke="#000000" points="1540.8371,-203.7945 1551.241,-201.792 1541.8591,-196.8695 1540.8371,-203.7945"/>
</g>
<!-- {23}&#45;&gt;{47} -->
<g id="edge30" class="edge">
<title>{23}&#45;&gt;{47}</title>
<path fill="none" stroke="#000000" d="M578.051,-430.072C960.541,-724.822 988.501,-745.802 1154.041,-843.262"/>
<polygon fill="#000000" stroke="#000000" points="1152.6498,-846.5049 1163.041,-848.572 1156.2068,-840.476 1152.6498,-846.5049"/>
</g>
<!-- {49}&#45;&gt;{44} -->
<g id="edge31" class="edge">
<title>{49}&#45;&gt;{44}</title>
<path fill="none" stroke="#000000" d="M833.101,-879.582C1102.641,-989.792 1156.341,-1006.952 1291.141,-988.752"/>
<polygon fill="#000000" stroke="#000000" points="1291.9238,-992.1766 1301.341,-987.322 1290.9519,-985.2444 1291.9238,-992.1766"/>
</g>
<!-- {49}&#45;&gt;{32, 37} -->
<g id="edge32" class="edge">
<title>{49}&#45;&gt;{32, 37}</title>
<path fill="none" stroke="#000000" d="M839.481,-875.562C1126.941,-964.492 1167.741,-970.982 1324.141,-928.132"/>
<polygon fill="#000000" stroke="#000000" points="1325.427,-931.4084 1334.141,-925.382 1323.5709,-924.6589 1325.427,-931.4084"/>
</g>
<!-- {49}&#45;&gt;{42, 30} -->
<g id="edge33" class="edge">
<title>{49}&#45;&gt;{42, 30}</title>
<path fill="none" stroke="#000000" d="M852.841,-854.102C1165.441,-850.742 1193.541,-841.702 1357.341,-720.642"/>
<polygon fill="#000000" stroke="#000000" points="1359.794,-723.1803 1365.741,-714.412 1355.624,-717.5579 1359.794,-723.1803"/>
</g>
<!-- {49}&#45;&gt;{51} -->
<g id="edge34" class="edge">
<title>{49}&#45;&gt;{51}</title>
<path fill="none" stroke="#000000" d="M835.141,-878.312C861.571,-887.432 880.011,-891.712 898.151,-891.392"/>
<polygon fill="#000000" stroke="#000000" points="898.4965,-894.8771 908.251,-890.742 898.0468,-887.8916 898.4965,-894.8771"/>
</g>
<!-- {49}&#45;&gt;{28} -->
<g id="edge35" class="edge">
<title>{49}&#45;&gt;{28}</title>
<path fill="none" stroke="#000000" d="M830.211,-828.602C898.471,-795.582 919.031,-772.912 962.861,-682.842"/>
<polygon fill="#000000" stroke="#000000" points="966.1171,-684.1482 967.321,-673.622 959.8156,-681.1 966.1171,-684.1482"/>
</g>
<!-- {49}&#45;&gt;{47} -->
<g id="edge36" class="edge">
<title>{49}&#45;&gt;{47}</title>
<path fill="none" stroke="#000000" d="M839.861,-875.332C1004.741,-924.992 1034.941,-925.922 1144.541,-883.232"/>
<polygon fill="#000000" stroke="#000000" points="1145.993,-886.4226 1154.041,-879.532 1143.4525,-879.8999 1145.993,-886.4226"/>
</g>
<!-- {44}&#45;&gt;{2, 20, 13, 6} -->
<g id="edge37" class="edge">
<title>{44}&#45;&gt;{2, 20, 13, 6}</title>
<path fill="none" stroke="#000000" d="M1482.341,-975.032C1510.841,-974.072 1527.041,-970.622 1545.841,-962.312"/>
<polygon fill="#000000" stroke="#000000" points="1547.4769,-965.4106 1555.041,-957.992 1544.5016,-959.0743 1547.4769,-965.4106"/>
</g>
<!-- {32, 37}&#45;&gt;{2, 20, 13, 6} -->
<g id="edge38" class="edge">
<title>{32, 37}&#45;&gt;{2, 20, 13, 6}</title>
<path fill="none" stroke="#000000" d="M1441.341,-924.632C1471.441,-931.932 1491.641,-936.492 1507.741,-939.232"/>
<polygon fill="#000000" stroke="#000000" points="1507.4258,-942.7245 1517.841,-940.782 1508.4877,-935.8055 1507.4258,-942.7245"/>
</g>
<!-- {42, 30}&#45;&gt;{17, 1} -->
<g id="edge39" class="edge">
<title>{42, 30}&#45;&gt;{17, 1}</title>
<path fill="none" stroke="#000000" d="M1398.241,-682.882C1580.641,-442.242 1588.841,-427.132 1585.641,-235.152"/>
<polygon fill="#000000" stroke="#000000" points="1589.1368,-234.9013 1585.441,-224.972 1582.1382,-235.0389 1589.1368,-234.9013"/>
</g>
<!-- {51}&#45;&gt;{44} -->
<g id="edge40" class="edge">
<title>{51}&#45;&gt;{44}</title>
<path fill="none" stroke="#000000" d="M1084.941,-899.042C1187.641,-942.792 1233.641,-960.142 1279.641,-967.542"/>
<polygon fill="#000000" stroke="#000000" points="1279.444,-971.0497 1289.841,-969.012 1280.4425,-964.1213 1279.444,-971.0497"/>
</g>
<!-- {51}&#45;&gt;{32, 37} -->
<g id="edge41" class="edge">
<title>{51}&#45;&gt;{32, 37}</title>
<path fill="none" stroke="#000000" d="M1089.041,-887.792C1209.341,-921.632 1250.741,-929.492 1307.841,-923.342"/>
<polygon fill="#000000" stroke="#000000" points="1308.4284,-926.7968 1317.941,-922.132 1307.5956,-919.8465 1308.4284,-926.7968"/>
</g>
<!-- {51}&#45;&gt;{42, 30} -->
<g id="edge42" class="edge">
<title>{51}&#45;&gt;{42, 30}</title>
<path fill="none" stroke="#000000" d="M1091.841,-846.632C1254.641,-819.172 1279.141,-805.372 1362.341,-722.852"/>
<polygon fill="#000000" stroke="#000000" points="1364.8649,-725.2776 1369.441,-715.722 1359.9047,-720.3383 1364.8649,-725.2776"/>
</g>
<!-- {51}&#45;&gt;{47} -->
<g id="edge43" class="edge">
<title>{51}&#45;&gt;{47}</title>
<path fill="none" stroke="#000000" d="M1091.041,-881.622C1111.741,-884.672 1125.841,-884.482 1141.141,-881.172"/>
<polygon fill="#000000" stroke="#000000" points="1142.0941,-884.5414 1150.941,-878.712 1140.3897,-877.7521 1142.0941,-884.5414"/>
</g>
<!-- {50} -->
<g id="[50, 50, 50, 50, 50, 50, 50, 50, 50, 50, 50, 50, 50, 50, 50, 50, 50, 50, 50, 50, 50, 50, 50, 50]" class="node">
<title>{50}</title>
<ellipse fill="none" stroke="#000000" cx="1190.741" cy="-518.842" rx="30.5947" ry="18"/>
<text text-anchor="middle" x="1190.741" y="-515.142" font-family="Times,serif" font-size="14.00" fill="#000000">name</text>
</g>
<!-- {51}&#45;&gt;{50} -->
<g id="edge44" class="edge">
<title>{51}&#45;&gt;{50}</title>
<path fill="none" stroke="#000000" d="M1068.841,-800.942C1163.041,-716.892 1171.441,-687.962 1187.541,-547.482"/>
<polygon fill="#000000" stroke="#000000" points="1191.0603,-547.4869 1188.641,-537.172 1184.0998,-546.7442 1191.0603,-547.4869"/>
</g>
<!-- {28}&#45;&gt;{32, 37} -->
<g id="edge45" class="edge">
<title>{28}&#45;&gt;{32, 37}</title>
<path fill="none" stroke="#000000" d="M1067.941,-655.122C1263.241,-787.642 1287.641,-806.982 1361.941,-885.852"/>
<polygon fill="#000000" stroke="#000000" points="1359.4315,-888.2924 1368.841,-893.162 1364.522,-883.4874 1359.4315,-888.2924"/>
</g>
<!-- {28}&#45;&gt;{42, 30} -->
<g id="edge46" class="edge">
<title>{28}&#45;&gt;{42, 30}</title>
<path fill="none" stroke="#000000" d="M1089.241,-627.482C1245.541,-661.302 1277.541,-668.912 1346.241,-688.562"/>
<polygon fill="#000000" stroke="#000000" points="1345.563,-692.0089 1356.141,-691.412 1347.4995,-685.2821 1345.563,-692.0089"/>
</g>
<!-- {28}&#45;&gt;{47} -->
<g id="edge47" class="edge">
<title>{28}&#45;&gt;{47}</title>
<path fill="none" stroke="#000000" d="M1052.941,-664.612C1140.141,-755.772 1154.241,-775.682 1179.541,-837.212"/>
<polygon fill="#000000" stroke="#000000" points="1176.3759,-838.7167 1183.441,-846.612 1182.8415,-836.0341 1176.3759,-838.7167"/>
</g>
<!-- {28}&#45;&gt;{50} -->
<g id="edge48" class="edge">
<title>{28}&#45;&gt;{50}</title>
<path fill="none" stroke="#000000" d="M1083.241,-577.072C1124.641,-561.512 1141.641,-553.152 1162.941,-538.732"/>
<polygon fill="#000000" stroke="#000000" points="1165.142,-541.4641 1171.341,-532.872 1161.137,-535.723 1165.142,-541.4641"/>
</g>
<!-- {47}&#45;&gt;{44} -->
<g id="edge49" class="edge">
<title>{47}&#45;&gt;{44}</title>
<path fill="none" stroke="#000000" d="M1218.041,-881.212C1277.841,-916.992 1305.441,-933.362 1328.041,-945.522"/>
<polygon fill="#000000" stroke="#000000" points="1326.6672,-948.7552 1337.141,-950.352 1329.949,-942.5722 1326.6672,-948.7552"/>
</g>
<!-- {47}&#45;&gt;{32, 37} -->
<g id="edge50" class="edge">
<title>{47}&#45;&gt;{32, 37}</title>
<path fill="none" stroke="#000000" d="M1231.141,-878.502C1261.141,-888.612 1282.041,-895.422 1298.541,-900.052"/>
<polygon fill="#000000" stroke="#000000" points="1297.675,-903.4434 1308.241,-902.662 1299.4939,-896.6838 1297.675,-903.4434"/>
</g>
<!-- {47}&#45;&gt;{42, 30} -->
<g id="edge51" class="edge">
<title>{47}&#45;&gt;{42, 30}</title>
<path fill="none" stroke="#000000" d="M1224.941,-849.822C1324.041,-805.922 1337.641,-794.922 1372.141,-726.392"/>
<polygon fill="#000000" stroke="#000000" points="1375.3625,-727.7768 1376.741,-717.272 1369.1125,-724.6243 1375.3625,-727.7768"/>
</g>
<!-- {26}&#45;&gt;{50} -->
<g id="edge52" class="edge">
<title>{26}&#45;&gt;{50}</title>
<path fill="none" stroke="#000000" d="M592.871,-494.742C920.011,-405.952 943.031,-405.212 1157.241,-503.452"/>
<polygon fill="#000000" stroke="#000000" points="1156.0913,-506.7749 1166.641,-507.752 1159.0033,-500.4093 1156.0913,-506.7749"/>
</g>
<!-- {25}&#45;&gt;{2, 20, 13, 6} -->
<g id="edge53" class="edge">
<title>{25}&#45;&gt;{2, 20, 13, 6}</title>
<path fill="none" stroke="#000000" d="M618.161,-679.952C1183.241,-916.092 1238.241,-935.382 1508.141,-940.642"/>
<polygon fill="#000000" stroke="#000000" points="1508.1769,-944.1432 1518.241,-940.832 1508.3086,-937.1444 1508.1769,-944.1432"/>
</g>
<!-- {25}&#45;&gt;{17, 1} -->
<g id="edge54" class="edge">
<title>{25}&#45;&gt;{17, 1}</title>
<path fill="none" stroke="#000000" d="M613.291,-625.552C1230.941,-322.132 1266.041,-306.382 1545.341,-219.232"/>
<polygon fill="#000000" stroke="#000000" points="1546.5157,-222.5325 1555.041,-216.242 1544.4537,-215.8431 1546.5157,-222.5325"/>
</g>
<!-- {25}&#45;&gt;{49} -->
<g id="edge55" class="edge">
<title>{25}&#45;&gt;{49}</title>
<path fill="none" stroke="#000000" d="M573.131,-690.892C612.961,-774.402 629.431,-795.022 702.081,-826.412"/>
<polygon fill="#000000" stroke="#000000" points="701.1489,-829.8189 711.721,-830.512 703.8886,-823.3773 701.1489,-829.8189"/>
</g>
<!-- {50}&#45;&gt;{14} -->
<g id="edge56" class="edge">
<title>{50}&#45;&gt;{14}</title>
<path fill="none" stroke="#000000" d="M1219.241,-512.282C1295.641,-494.702 1320.141,-489.022 1346.941,-482.452"/>
<polygon fill="#000000" stroke="#000000" points="1348.083,-485.7746 1356.941,-479.962 1346.3916,-478.982 1348.083,-485.7746"/>
</g>
<!-- {5} -->
<g id="[5, 5, 5, 5, 5, 5, 5, 5, 5, 5, 5, 5, 5, 5, 5]" class="node">
<title>{5}</title>
<ellipse fill="none" stroke="#000000" cx="95.5" cy="-377.842" rx="95.5" ry="69.5"/>
<text text-anchor="middle" x="95.5" y="-411.642" font-family="Times,serif" font-size="14.00" fill="#000000">to be named</text>
<text text-anchor="middle" x="95.5" y="-396.642" font-family="Times,serif" font-size="14.00" fill="#000000">Equivocally when the</text>
<text text-anchor="middle" x="95.5" y="-381.642" font-family="Times,serif" font-size="14.00" fill="#000000">definition</text>
<text text-anchor="middle" x="95.5" y="-366.642" font-family="Times,serif" font-size="14.00" fill="#000000">corresponding with</text>
<text text-anchor="middle" x="95.5" y="-351.642" font-family="Times,serif" font-size="14.00" fill="#000000">the name differs for</text>
<text text-anchor="middle" x="95.5" y="-336.642" font-family="Times,serif" font-size="14.00" fill="#000000">each</text>
</g>
<!-- {5}&#45;&gt;{2, 20, 13, 6} -->
<g id="edge57" class="edge">
<title>{5}&#45;&gt;{2, 20, 13, 6}</title>
<path fill="none" stroke="#000000" d="M161.431,-428.292C850.441,-955.192 895.281,-974.522 1508.841,-945.522"/>
<polygon fill="#000000" stroke="#000000" points="1509.0203,-949.0175 1518.841,-945.042 1508.6847,-942.0256 1509.0203,-949.0175"/>
</g>
<!-- {5}&#45;&gt;{17, 1} -->
<g id="edge58" class="edge">
<title>{5}&#45;&gt;{17, 1}</title>
<path fill="none" stroke="#000000" d="M174.121,-338.142C844.651,0 881.911,-.403 1544.441,-194.882"/>
<polygon fill="#000000" stroke="#000000" points="1543.6599,-198.3004 1554.241,-197.762 1545.6336,-191.5844 1543.6599,-198.3004"/>
</g>
<!-- {5}&#45;&gt;{35} -->
<g id="edge59" class="edge">
<title>{5}&#45;&gt;{35}</title>
<path fill="none" stroke="#000000" d="M152.611,-433.922C277.341,-554.192 329.341,-579.612 697.441,-730.102"/>
<polygon fill="#000000" stroke="#000000" points="696.1699,-733.3634 706.751,-733.902 698.8152,-726.8825 696.1699,-733.3634"/>
</g>
<!-- {5}&#45;&gt;{27} -->
<g id="edge60" class="edge">
<title>{5}&#45;&gt;{27}</title>
<path fill="none" stroke="#000000" d="M137.011,-440.562C158.261,-467.382 182.861,-487.102 238.111,-523.572"/>
<polygon fill="#000000" stroke="#000000" points="236.2017,-526.5054 246.481,-529.072 240.0459,-520.6554 236.2017,-526.5054"/>
</g>
<!-- {5}&#45;&gt;{0} -->
<g id="edge61" class="edge">
<title>{5}&#45;&gt;{0}</title>
<path fill="none" stroke="#000000" d="M176.331,-340.832C188.781,-338.022 203.161,-336.092 221.881,-334.532"/>
<polygon fill="#000000" stroke="#000000" points="222.3715,-338.0046 232.071,-333.742 221.8304,-331.0255 222.3715,-338.0046"/>
</g>
<!-- {5}&#45;&gt;{23} -->
<g id="edge62" class="edge">
<title>{5}&#45;&gt;{23}</title>
<path fill="none" stroke="#000000" d="M190.361,-368.652C255.151,-365.382 311.781,-373.132 485.851,-401.442"/>
<polygon fill="#000000" stroke="#000000" points="485.42,-404.9177 495.851,-403.062 486.5394,-398.0078 485.42,-404.9177"/>
</g>
</g>
</svg>
