<?xml version="1.0" encoding="UTF-8" standalone="no"?>
<!DOCTYPE svg PUBLIC "-//W3C//DTD SVG 1.1//EN"
 "http://www.w3.org/Graphics/SVG/1.1/DTD/svg11.dtd">
<!-- Generated by graphviz version 2.40.1 (20161225.0304)
 -->
<!-- Pages: 1 -->
<svg width="687pt" height="456pt"
 viewBox="0.00 0.00 687.16 455.69" xmlns="http://www.w3.org/2000/svg" xmlns:xlink="http://www.w3.org/1999/xlink">
<g id="graph0" class="graph" transform="scale(1 1) rotate(0) translate(4 451.6899)">
<polygon fill="#ffffff" stroke="transparent" points="-4,4 -4,-451.6899 683.16,-451.6899 683.16,4 -4,4"/>
<!-- center0 -->
<g id="node1" class="node">
<title>center0</title>
<ellipse fill="#ecfee8" stroke="#000000" cx="67.594" cy="-183" rx="67.6881" ry="18"/>
<text text-anchor="middle" x="67.594" y="-179.3" font-family="Times,serif" font-size="14.00" fill="#000000">let&#39;s distinguish:</text>
</g>
<!-- 2 -->
<g id="node2" class="node">
<title>2</title>
<ellipse fill="#9ffff5" stroke="#000000" cx="263.82" cy="-267" rx="90.5193" ry="58.8803"/>
<text text-anchor="middle" x="263.82" y="-293.3" font-family="Times,serif" font-size="14.00" fill="#000000">Examples of the</text>
<text text-anchor="middle" x="263.82" y="-278.3" font-family="Times,serif" font-size="14.00" fill="#000000">latter are such</text>
<text text-anchor="middle" x="263.82" y="-263.3" font-family="Times,serif" font-size="14.00" fill="#000000">expressions as</text>
<text text-anchor="middle" x="263.82" y="-248.3" font-family="Times,serif" font-size="14.00" fill="#000000">Themanruns ,</text>
<text text-anchor="middle" x="263.82" y="-233.3" font-family="Times,serif" font-size="14.00" fill="#000000">Themanwins Wins .</text>
</g>
<!-- center0&#45;&gt;2 -->
<g id="edge1" class="edge">
<title>center0&#45;&gt;2</title>
<path fill="none" stroke="#000000" d="M90.263,-200.07C113.97,-217.3 130.11,-225.6 171.82,-239.15"/>
<polygon fill="#000000" stroke="#000000" points="170.8392,-242.5109 181.43,-242.22 172.9694,-235.8428 170.8392,-242.5109"/>
<text text-anchor="middle" x="84.622" y="-214.03" font-family="Times,serif" font-size="14.00" fill="#000000">side of distinction</text>
</g>
<!-- 1 -->
<g id="node3" class="node">
<title>1</title>
<ellipse fill="#9ffff5" stroke="#000000" cx="263.82" cy="-121" rx="92.7622" ry="48.1667"/>
<text text-anchor="middle" x="263.82" y="-139.8" font-family="Times,serif" font-size="14.00" fill="#000000">, Examples of the</text>
<text text-anchor="middle" x="263.82" y="-124.8" font-family="Times,serif" font-size="14.00" fill="#000000">former are such</text>
<text text-anchor="middle" x="263.82" y="-109.8" font-family="Times,serif" font-size="14.00" fill="#000000">expressions as Man ,</text>
<text text-anchor="middle" x="263.82" y="-94.8" font-family="Times,serif" font-size="14.00" fill="#000000">Ox , Runs ,</text>
</g>
<!-- center0&#45;&gt;1 -->
<g id="edge2" class="edge">
<title>center0&#45;&gt;1</title>
<path fill="none" stroke="#000000" d="M89.014,-165.88C114.1,-146.42 129.71,-137.99 162.55,-132.16"/>
<polygon fill="#000000" stroke="#000000" points="163.5022,-135.5512 172.81,-130.49 162.3776,-128.6421 163.5022,-135.5512"/>
<text text-anchor="middle" x="79.18" y="-130.36" font-family="Times,serif" font-size="14.00" fill="#000000">side of distinction</text>
</g>
<!-- correl7 -->
<g id="node4" class="node">
<title>correl7</title>
<ellipse fill="#465775" stroke="#000000" cx="485.08" cy="-389" rx="90.5193" ry="58.8803"/>
<text text-anchor="middle" x="485.08" y="-415.3" font-family="Times,serif" font-size="14.00" fill="#000000">Examples of the</text>
<text text-anchor="middle" x="485.08" y="-400.3" font-family="Times,serif" font-size="14.00" fill="#000000">latter are such</text>
<text text-anchor="middle" x="485.08" y="-385.3" font-family="Times,serif" font-size="14.00" fill="#000000">expressions as</text>
<text text-anchor="middle" x="485.08" y="-370.3" font-family="Times,serif" font-size="14.00" fill="#000000">Themanruns ,</text>
<text text-anchor="middle" x="485.08" y="-355.3" font-family="Times,serif" font-size="14.00" fill="#000000">Themanwins Wins .</text>
</g>
<!-- 2&#45;&gt;correl7 -->
<g id="edge3" class="edge">
<title>2&#45;&gt;correl7</title>
<path fill="none" stroke="#000000" d="M323.48,-311.26C354.94,-334.31 375.96,-348.83 393.91,-358.87"/>
<polygon fill="#000000" stroke="#000000" points="392.5774,-362.1254 403.05,-363.73 395.8638,-355.9448 392.5774,-362.1254"/>
<text text-anchor="middle" x="321.83" y="-343.79" font-family="Times,serif" font-size="14.00" fill="#000000">correlating part</text>
</g>
<!-- contra3 -->
<g id="node5" class="node">
<title>contra3</title>
<ellipse fill="#ef6f6c" stroke="#000000" cx="485.08" cy="-294" rx="83.3857" ry="18"/>
<text text-anchor="middle" x="485.08" y="-290.3" font-family="Times,serif" font-size="14.00" fill="#000000">, Examples of the as</text>
</g>
<!-- 2&#45;&gt;contra3 -->
<g id="edge4" class="edge">
<title>2&#45;&gt;contra3</title>
<path fill="none" stroke="#000000" d="M346.81,-290.44C370.43,-296.68 387.42,-300.36 402.11,-302"/>
<polygon fill="#000000" stroke="#000000" points="402.207,-305.5197 412.46,-302.85 402.7801,-298.5432 402.207,-305.5197"/>
<text text-anchor="middle" x="427.57" y="-302.01" font-family="Times,serif" font-size="14.00" fill="#000000">contradicting part</text>
</g>
<!-- subjectarg13 -->
<g id="node6" class="node">
<title>subjectarg13</title>
<ellipse fill="#5b6c5d" stroke="#000000" cx="485.08" cy="-240" rx="31.3957" ry="18"/>
<text text-anchor="middle" x="485.08" y="-236.3" font-family="Times,serif" font-size="14.00" fill="#000000">of the</text>
</g>
<!-- 2&#45;&gt;subjectarg13 -->
<g id="edge5" class="edge">
<title>2&#45;&gt;subjectarg13</title>
<path fill="none" stroke="#000000" d="M354.35,-268.94C402.69,-269.07 422.64,-265.88 450.51,-254.92"/>
<polygon fill="#000000" stroke="#000000" points="451.9477,-258.1135 459.88,-251.09 449.2991,-251.6339 451.9477,-258.1135"/>
<text text-anchor="middle" x="390.69" y="-254.88" font-family="Times,serif" font-size="14.00" fill="#000000">subject</text>
</g>
<!-- correl8 -->
<g id="node7" class="node">
<title>correl8</title>
<ellipse fill="#465775" stroke="#000000" cx="485.08" cy="-156" rx="92.7622" ry="48.1667"/>
<text text-anchor="middle" x="485.08" y="-174.8" font-family="Times,serif" font-size="14.00" fill="#000000">, Examples of the</text>
<text text-anchor="middle" x="485.08" y="-159.8" font-family="Times,serif" font-size="14.00" fill="#000000">former are such</text>
<text text-anchor="middle" x="485.08" y="-144.8" font-family="Times,serif" font-size="14.00" fill="#000000">expressions as Man ,</text>
<text text-anchor="middle" x="485.08" y="-129.8" font-family="Times,serif" font-size="14.00" fill="#000000">Ox , Runs ,</text>
</g>
<!-- 1&#45;&gt;correl8 -->
<g id="edge6" class="edge">
<title>1&#45;&gt;correl8</title>
<path fill="none" stroke="#000000" d="M354.68,-111.11C379.35,-109.7 396.35,-111.1 412.95,-116.49"/>
<polygon fill="#000000" stroke="#000000" points="412.1372,-119.922 422.73,-120.13 414.5789,-113.3616 412.1372,-119.922"/>
<text text-anchor="middle" x="431.03" y="-100.26" font-family="Times,serif" font-size="14.00" fill="#000000">correlating part</text>
</g>
<!-- contra4 -->
<g id="node8" class="node">
<title>contra4</title>
<ellipse fill="#ef6f6c" stroke="#000000" cx="485.08" cy="-72" rx="73.5" ry="18"/>
<text text-anchor="middle" x="485.08" y="-68.3" font-family="Times,serif" font-size="14.00" fill="#000000">Examples of the .</text>
</g>
<!-- 1&#45;&gt;contra4 -->
<g id="edge7" class="edge">
<title>1&#45;&gt;contra4</title>
<path fill="none" stroke="#000000" d="M332.13,-88.27C367.28,-72.216 388.22,-65.173 410.01,-63.803"/>
<polygon fill="#000000" stroke="#000000" points="410.2169,-67.2991 420.13,-63.56 410.0488,-60.3012 410.2169,-67.2991"/>
<text text-anchor="middle" x="327.65" y="-59.307" font-family="Times,serif" font-size="14.00" fill="#000000">contradicting part</text>
</g>
<!-- subjectarg18 -->
<g id="node9" class="node">
<title>subjectarg18</title>
<ellipse fill="#5b6c5d" stroke="#000000" cx="485.08" cy="-18" rx="31.3957" ry="18"/>
<text text-anchor="middle" x="485.08" y="-14.3" font-family="Times,serif" font-size="14.00" fill="#000000">of the</text>
</g>
<!-- 1&#45;&gt;subjectarg18 -->
<g id="edge8" class="edge">
<title>1&#45;&gt;subjectarg18</title>
<path fill="none" stroke="#000000" d="M317.65,-81.6C379.76,-36.879 400.62,-26.743 443.72,-21.64"/>
<polygon fill="#000000" stroke="#000000" points="444.3364,-25.0943 453.91,-20.556 443.5958,-18.1335 444.3364,-25.0943"/>
<text text-anchor="middle" x="368.34" y="-25.551" font-family="Times,serif" font-size="14.00" fill="#000000">subject</text>
</g>
<!-- correl8&#45;&gt;correl7 -->
<g id="edge9" class="edge">
<title>correl8:e&#45;&gt;correl7:e</title>
<path fill="none" stroke="#000000" stroke-dasharray="1,5" d="M578.08,-156C621.67,-276.87 622.95,-280.42 580.08,-379.74"/>
<polygon fill="#000000" stroke="#000000" points="576.8325,-378.4319 576.08,-389 583.2586,-381.2078 576.8325,-378.4319"/>
<text text-anchor="middle" x="570.5" y="-264.79" font-family="Times,serif" font-size="14.00" fill="#000000">compared with</text>
</g>
<!-- contra4&#45;&gt;contra3 -->
<g id="edge10" class="edge">
<title>contra4:e&#45;&gt;contra3:e</title>
<path fill="none" stroke="#000000" stroke-dasharray="1,5" d="M559.08,-72C606.66,-173.52 608.01,-176.39 572.3,-284.29"/>
<polygon fill="#000000" stroke="#000000" points="568.9056,-283.4066 569.08,-294 575.5498,-285.61 568.9056,-283.4066"/>
<text text-anchor="middle" x="638.16" y="-171.52" font-family="Times,serif" font-size="14.00" fill="#000000">compared with</text>
</g>
</g>
</svg>
