<?xml version="1.0" encoding="UTF-8" standalone="no"?>
<!DOCTYPE svg PUBLIC "-//W3C//DTD SVG 1.1//EN"
 "http://www.w3.org/Graphics/SVG/1.1/DTD/svg11.dtd">
<!-- Generated by graphviz version 2.40.1 (20161225.0304)
 -->
<!-- Pages: 1 -->
<svg width="435pt" height="649pt"
 viewBox="0.00 0.00 435.19 648.97" xmlns="http://www.w3.org/2000/svg" xmlns:xlink="http://www.w3.org/1999/xlink">
<g id="graph0" class="graph" transform="scale(1 1) rotate(0) translate(4 644.9703)">
<polygon fill="#ffffff" stroke="transparent" points="-4,4 -4,-644.9703 431.1901,-644.9703 431.1901,4 -4,4"/>
<!-- 16809 -->
<g id="0" class="node">
<title>16809</title>
<ellipse fill="none" stroke="#000000" cx="43.5461" cy="-291.0803" rx="27" ry="18"/>
</g>
<!-- 16891 -->
<g id="0" class="node">
<title>16891</title>
<ellipse fill="none" stroke="#000000" cx="166.6401" cy="-295.0803" rx="27" ry="18"/>
<text text-anchor="middle" x="166.6401" y="-291.3803" font-family="Times,serif" font-size="14.00" fill="#000000">IN</text>
</g>
<!-- 16809&#45;&gt;16891 -->
<g id="edge1" class="edge">
<title>16809&#45;&gt;16891</title>
<path fill="none" stroke="#000000" d="M70.3391,-288.7203C84.2571,-288.0603 97.8651,-288.8503 129.7401,-291.6903"/>
<polygon fill="#000000" stroke="#000000" points="129.4641,-295.1795 139.7401,-292.6003 130.0985,-288.2083 129.4641,-295.1795"/>
</g>
<!-- 16892 -->
<g id="1" class="node">
<title>16892</title>
<ellipse fill="none" stroke="#000000" cx="166.6401" cy="-213.0803" rx="27" ry="18"/>
<text text-anchor="middle" x="166.6401" y="-209.3803" font-family="Times,serif" font-size="14.00" fill="#000000">IN</text>
</g>
<!-- 16809&#45;&gt;16892 -->
<g id="edge2" class="edge">
<title>16809&#45;&gt;16892</title>
<path fill="none" stroke="#000000" d="M54.8281,-274.5603C76.7091,-243.1803 86.4701,-235.9503 131.5001,-222.8503"/>
<polygon fill="#000000" stroke="#000000" points="132.6715,-226.1559 141.3301,-220.0503 130.7538,-219.4237 132.6715,-226.1559"/>
</g>
<!-- 17404 -->
<g id="34" class="node">
<title>17404</title>
<ellipse fill="none" stroke="#000000" cx="336.6901" cy="-449.0803" rx="75" ry="27"/>
<text text-anchor="middle" x="336.6901" y="-452.8803" font-family="Times,serif" font-size="14.00" fill="#000000">Examples of the</text>
<text text-anchor="middle" x="336.6901" y="-437.8803" font-family="Times,serif" font-size="14.00" fill="#000000">former</text>
</g>
<!-- 16891&#45;&gt;17404 -->
<g id="edge3" class="edge">
<title>16891&#45;&gt;17404</title>
<path fill="none" stroke="#000000" d="M181.6801,-310.3803C247.1201,-376.9103 269.6801,-399.4603 294.2801,-418.7203"/>
<polygon fill="#000000" stroke="#000000" points="292.3255,-421.6312 302.4001,-424.9103 296.5693,-416.0643 292.3255,-421.6312"/>
</g>
<!-- 16877 -->
<g id="0" class="node">
<title>16877</title>
<ellipse fill="none" stroke="#000000" cx="336.6901" cy="-377.0803" rx="90.5" ry="27"/>
<text text-anchor="middle" x="336.6901" y="-380.8803" font-family="Times,serif" font-size="14.00" fill="#000000">Forms of speech are</text>
<text text-anchor="middle" x="336.6901" y="-365.8803" font-family="Times,serif" font-size="14.00" fill="#000000">either simple</text>
</g>
<!-- 16891&#45;&gt;16877 -->
<g id="edge4" class="edge">
<title>16891&#45;&gt;16877</title>
<path fill="none" stroke="#000000" d="M188.9701,-305.4603C237.9501,-328.2203 263.1601,-339.9803 282.0301,-349.1503"/>
<polygon fill="#000000" stroke="#000000" points="280.6197,-352.3567 291.1401,-353.6103 283.6977,-346.0697 280.6197,-352.3567"/>
</g>
<!-- 16879 -->
<g id="17" class="node">
<title>16879</title>
<ellipse fill="none" stroke="#000000" cx="336.6901" cy="-295.0803" rx="87.7537" ry="37.5"/>
<text text-anchor="middle" x="336.6901" y="-306.3803" font-family="Times,serif" font-size="14.00" fill="#000000">Examples of the</text>
<text text-anchor="middle" x="336.6901" y="-291.3803" font-family="Times,serif" font-size="14.00" fill="#000000">former are such</text>
<text text-anchor="middle" x="336.6901" y="-276.3803" font-family="Times,serif" font-size="14.00" fill="#000000">expressions as Man</text>
</g>
<!-- 16891&#45;&gt;16879 -->
<g id="edge5" class="edge">
<title>16891&#45;&gt;16879</title>
<path fill="none" stroke="#000000" d="M192.9301,-290.7803C214.3901,-287.3003 230.8501,-284.7503 244.2401,-283.1503"/>
<polygon fill="#000000" stroke="#000000" points="244.7925,-286.6111 254.3601,-282.0603 244.0428,-279.6514 244.7925,-286.6111"/>
</g>
<!-- 16878 -->
<g id="3" class="node">
<title>16878</title>
<ellipse fill="none" stroke="#000000" cx="336.6901" cy="-213.0803" rx="90.5" ry="27"/>
<text text-anchor="middle" x="336.6901" y="-216.8803" font-family="Times,serif" font-size="14.00" fill="#000000">Forms of speech are</text>
<text text-anchor="middle" x="336.6901" y="-201.8803" font-family="Times,serif" font-size="14.00" fill="#000000">or composite</text>
</g>
<!-- 16892&#45;&gt;16878 -->
<g id="edge6" class="edge">
<title>16892&#45;&gt;16878</title>
<path fill="none" stroke="#000000" d="M190.8901,-205.0703C230.6601,-192.0903 250.5401,-187.0003 271.2901,-189.7903"/>
<polygon fill="#000000" stroke="#000000" points="270.808,-193.2617 281.2901,-191.7203 272.1346,-186.3886 270.808,-193.2617"/>
</g>
<!-- 17405 -->
<g id="32" class="node">
<title>17405</title>
<ellipse fill="none" stroke="#000000" cx="336.6901" cy="-141.0803" rx="75" ry="27"/>
<text text-anchor="middle" x="336.6901" y="-144.8803" font-family="Times,serif" font-size="14.00" fill="#000000">Examples of the</text>
<text text-anchor="middle" x="336.6901" y="-129.8803" font-family="Times,serif" font-size="14.00" fill="#000000">latter</text>
</g>
<!-- 16892&#45;&gt;17405 -->
<g id="edge7" class="edge">
<title>16892&#45;&gt;17405</title>
<path fill="none" stroke="#000000" d="M184.7501,-199.3603C217.6501,-174.5203 237.3301,-160.3203 254.6201,-152.1803"/>
<polygon fill="#000000" stroke="#000000" points="256.1523,-155.3337 264.0401,-148.2603 253.4629,-148.8709 256.1523,-155.3337"/>
</g>
<!-- 16880 -->
<g id="12" class="node">
<title>16880</title>
<ellipse fill="none" stroke="#000000" cx="336.6901" cy="-48.0833" rx="75" ry="48.1667"/>
<text text-anchor="middle" x="336.6901" y="-66.8833" font-family="Times,serif" font-size="14.00" fill="#000000">Examples of the</text>
<text text-anchor="middle" x="336.6901" y="-51.8833" font-family="Times,serif" font-size="14.00" fill="#000000">latter are such</text>
<text text-anchor="middle" x="336.6901" y="-36.8833" font-family="Times,serif" font-size="14.00" fill="#000000">expressions as</text>
<text text-anchor="middle" x="336.6901" y="-21.8833" font-family="Times,serif" font-size="14.00" fill="#000000">Themanruns</text>
</g>
<!-- 16892&#45;&gt;16880 -->
<g id="edge8" class="edge">
<title>16892&#45;&gt;16880</title>
<path fill="none" stroke="#000000" d="M178.5501,-196.8103C226.0901,-131.9103 247.3201,-103.8603 270.5801,-85.1783"/>
<polygon fill="#000000" stroke="#000000" points="272.6928,-87.9688 278.5801,-79.1603 268.4847,-82.3748 272.6928,-87.9688"/>
</g>
<!-- 16890 -->
<g id="4" class="node">
<title>16890</title>
<ellipse fill="none" stroke="#000000" cx="43.5461" cy="-223.0803" rx="27" ry="18"/>
</g>
<!-- 16890&#45;&gt;16891 -->
<g id="edge9" class="edge">
<title>16890&#45;&gt;16891</title>
<path fill="none" stroke="#000000" d="M63.6411,-235.1303C80.9401,-245.4603 94.0901,-253.1203 137.2401,-278.0803"/>
<polygon fill="#000000" stroke="#000000" points="135.5615,-281.1526 145.9701,-283.1303 139.0666,-275.0933 135.5615,-281.1526"/>
</g>
<!-- 16890&#45;&gt;16892 -->
<g id="edge10" class="edge">
<title>16890&#45;&gt;16892</title>
<path fill="none" stroke="#000000" d="M65.7241,-212.3603C84.6911,-204.1303 96.6871,-203.3703 130.0901,-207.7903"/>
<polygon fill="#000000" stroke="#000000" points="129.7158,-211.2717 140.1001,-209.1703 130.6719,-204.3373 129.7158,-211.2717"/>
</g>
<!-- 16906 -->
<g id="node11" class="node">
<title>16906</title>
<ellipse fill="none" stroke="#000000" cx="43.5461" cy="-352.0803" rx="43.5923" ry="18"/>
<text text-anchor="middle" x="43.5461" y="-348.3803" font-family="Times,serif" font-size="14.00" fill="#000000">ASPECT</text>
</g>
<!-- 16902 -->
<g id="node12" class="node">
<title>16902</title>
<ellipse fill="none" stroke="#000000" cx="166.6401" cy="-352.0803" rx="43.5923" ry="18"/>
<text text-anchor="middle" x="166.6401" y="-348.3803" font-family="Times,serif" font-size="14.00" fill="#000000">ASPECT</text>
</g>
<!-- 16906&#45;&gt;16902 -->
<g id="edge11" class="edge">
<title>16906&#45;&gt;16902</title>
<path fill="none" stroke="#000000" d="M85.2581,-357.3003C92.6941,-357.3803 101.4301,-357.0303 113.3801,-356.2403"/>
<polygon fill="#000000" stroke="#000000" points="113.9623,-359.7079 123.6901,-355.5103 113.4679,-352.7254 113.9623,-359.7079"/>
</g>
<!-- 16931 -->
<g id="node13" class="node">
<title>16931</title>
<ellipse fill="none" stroke="#000000" cx="43.5461" cy="-406.0803" rx="43.5923" ry="18"/>
<text text-anchor="middle" x="43.5461" y="-402.3803" font-family="Times,serif" font-size="14.00" fill="#000000">ASPECT</text>
</g>
<!-- 16923 -->
<g id="node14" class="node">
<title>16923</title>
<ellipse fill="none" stroke="#000000" cx="166.6401" cy="-406.0803" rx="43.5923" ry="18"/>
<text text-anchor="middle" x="166.6401" y="-402.3803" font-family="Times,serif" font-size="14.00" fill="#000000">ASPECT</text>
</g>
<!-- 16931&#45;&gt;16923 -->
<g id="edge12" class="edge">
<title>16931&#45;&gt;16923</title>
<path fill="none" stroke="#000000" d="M78.7701,-416.7003C88.9791,-418.2303 99.5211,-417.7103 116.4901,-415.1203"/>
<polygon fill="#000000" stroke="#000000" points="117.3129,-418.5325 126.6201,-413.4703 116.1875,-411.6235 117.3129,-418.5325"/>
</g>
<!-- 16945 -->
<g id="node15" class="node">
<title>16945</title>
<ellipse fill="none" stroke="#000000" cx="43.5461" cy="-460.0803" rx="43.5923" ry="18"/>
<text text-anchor="middle" x="43.5461" y="-456.3803" font-family="Times,serif" font-size="14.00" fill="#000000">ASPECT</text>
</g>
<!-- 16941 -->
<g id="node16" class="node">
<title>16941</title>
<ellipse fill="none" stroke="#000000" cx="166.6401" cy="-460.0803" rx="43.5923" ry="18"/>
<text text-anchor="middle" x="166.6401" y="-456.3803" font-family="Times,serif" font-size="14.00" fill="#000000">ASPECT</text>
</g>
<!-- 16945&#45;&gt;16941 -->
<g id="edge13" class="edge">
<title>16945&#45;&gt;16941</title>
<path fill="none" stroke="#000000" d="M75.8661,-472.2703C88.8351,-475.7203 99.9141,-475.4603 119.3301,-471.5003"/>
<polygon fill="#000000" stroke="#000000" points="120.1919,-474.8948 129.2201,-469.3503 118.7048,-468.0545 120.1919,-474.8948"/>
</g>
<!-- 16953 -->
<g id="node17" class="node">
<title>16953</title>
<ellipse fill="none" stroke="#000000" cx="43.5461" cy="-514.0803" rx="43.5923" ry="18"/>
<text text-anchor="middle" x="43.5461" y="-510.3803" font-family="Times,serif" font-size="14.00" fill="#000000">ASPECT</text>
</g>
<!-- 16867 -->
<g id="node18" class="node">
<title>16867</title>
<ellipse fill="none" stroke="#000000" cx="166.6401" cy="-514.0803" rx="43.5923" ry="18"/>
<text text-anchor="middle" x="166.6401" y="-510.3803" font-family="Times,serif" font-size="14.00" fill="#000000">ASPECT</text>
</g>
<!-- 16953&#45;&gt;16867 -->
<g id="edge14" class="edge">
<title>16953&#45;&gt;16867</title>
<path fill="none" stroke="#000000" d="M74.8391,-526.6603C89.6791,-531.3403 100.8801,-531.3803 120.8201,-526.7603"/>
<polygon fill="#000000" stroke="#000000" points="121.7879,-530.1263 130.6501,-524.3203 120.1014,-523.3325 121.7879,-530.1263"/>
</g>
<!-- 16992 -->
<g id="node19" class="node">
<title>16992</title>
<ellipse fill="none" stroke="#000000" cx="43.5461" cy="-568.0803" rx="43.5923" ry="18"/>
<text text-anchor="middle" x="43.5461" y="-564.3803" font-family="Times,serif" font-size="14.00" fill="#000000">ASPECT</text>
</g>
<!-- 16988 -->
<g id="node20" class="node">
<title>16988</title>
<ellipse fill="none" stroke="#000000" cx="166.6401" cy="-568.0803" rx="43.5923" ry="18"/>
<text text-anchor="middle" x="166.6401" y="-564.3803" font-family="Times,serif" font-size="14.00" fill="#000000">ASPECT</text>
</g>
<!-- 16992&#45;&gt;16988 -->
<g id="edge15" class="edge">
<title>16992&#45;&gt;16988</title>
<path fill="none" stroke="#000000" d="M74.5391,-580.7703C90.5551,-586.1603 101.8001,-586.4003 121.6901,-581.4903"/>
<polygon fill="#000000" stroke="#000000" points="122.7277,-584.836 131.4901,-578.8803 120.9262,-578.0718 122.7277,-584.836"/>
</g>
<!-- 17010 -->
<g id="node21" class="node">
<title>17010</title>
<ellipse fill="none" stroke="#000000" cx="43.5461" cy="-622.0803" rx="43.5923" ry="18"/>
<text text-anchor="middle" x="43.5461" y="-618.3803" font-family="Times,serif" font-size="14.00" fill="#000000">ASPECT</text>
</g>
<!-- 17006 -->
<g id="node22" class="node">
<title>17006</title>
<ellipse fill="none" stroke="#000000" cx="166.6401" cy="-622.0803" rx="43.5923" ry="18"/>
<text text-anchor="middle" x="166.6401" y="-618.3803" font-family="Times,serif" font-size="14.00" fill="#000000">ASPECT</text>
</g>
<!-- 17010&#45;&gt;17006 -->
<g id="edge16" class="edge">
<title>17010&#45;&gt;17006</title>
<path fill="none" stroke="#000000" d="M74.5991,-634.8403C91.3281,-640.6103 102.6001,-640.9703 122.2601,-635.9503"/>
<polygon fill="#000000" stroke="#000000" points="123.234,-639.3123 131.9301,-633.2603 121.3579,-632.5684 123.234,-639.3123"/>
</g>
</g>
</svg>
