<?xml version="1.0" encoding="UTF-8" standalone="no"?>
<!DOCTYPE svg PUBLIC "-//W3C//DTD SVG 1.1//EN"
 "http://www.w3.org/Graphics/SVG/1.1/DTD/svg11.dtd">
<!-- Generated by graphviz version 2.40.1 (20161225.0304)
 -->
<!-- Pages: 1 -->
<svg width="395pt" height="734pt"
 viewBox="0.00 0.00 395.25 734.08" xmlns="http://www.w3.org/2000/svg" xmlns:xlink="http://www.w3.org/1999/xlink">
<g id="graph0" class="graph" transform="scale(1 1) rotate(0) translate(4 730.0803)">
<polygon fill="#ffffff" stroke="transparent" points="-4,4 -4,-730.0803 391.254,-730.0803 391.254,4 -4,4"/>
<!-- 13662 -->
<g id="node1" class="node">
<title>13662</title>
<ellipse fill="none" stroke="#000000" cx="32.5" cy="-378.0803" rx="32.5" ry="18"/>
<text text-anchor="middle" x="32.5" y="-374.3803" font-family="Times,serif" font-size="14.00" fill="#000000">13662</text>
</g>
<!-- 13661 -->
<g id="3" class="node">
<title>13661</title>
<ellipse fill="none" stroke="#000000" cx="133.493" cy="-534.0803" rx="32.5" ry="18"/>
<text text-anchor="middle" x="133.493" y="-530.3803" font-family="Times,serif" font-size="14.00" fill="#000000">13661</text>
</g>
<!-- 13662&#45;&gt;13661 -->
<g id="edge1" class="edge">
<title>13662&#45;&gt;13661</title>
<path fill="none" stroke="#000000" d="M36.403,-396.0403C52.118,-467.6903 57.809,-480.6503 104.773,-514.1703"/>
<polygon fill="#000000" stroke="#000000" points="102.815,-517.0723 113.003,-519.9803 106.8521,-511.3537 102.815,-517.0723"/>
</g>
<!-- 13660 -->
<g id="2" class="node">
<title>13660</title>
<ellipse fill="none" stroke="#000000" cx="133.493" cy="-223.0803" rx="32.5" ry="18"/>
<text text-anchor="middle" x="133.493" y="-219.3803" font-family="Times,serif" font-size="14.00" fill="#000000">13660</text>
</g>
<!-- 13662&#45;&gt;13660 -->
<g id="edge2" class="edge">
<title>13662&#45;&gt;13660</title>
<path fill="none" stroke="#000000" d="M36.023,-359.7503C49.068,-292.8403 54.782,-280.8003 105.473,-243.3503"/>
<polygon fill="#000000" stroke="#000000" points="107.6408,-246.1009 113.643,-237.3703 103.5064,-240.4524 107.6408,-246.1009"/>
</g>
<!-- 13648 -->
<g id="32" class="node">
<title>13648</title>
<ellipse fill="none" stroke="#000000" cx="294.623" cy="-699.0803" rx="75" ry="27"/>
<text text-anchor="middle" x="294.623" y="-702.8803" font-family="Times,serif" font-size="14.00" fill="#000000">Examples of the</text>
<text text-anchor="middle" x="294.623" y="-687.8803" font-family="Times,serif" font-size="14.00" fill="#000000">latter</text>
</g>
<!-- 13661&#45;&gt;13648 -->
<g id="edge3" class="edge">
<title>13661&#45;&gt;13648</title>
<path fill="none" stroke="#000000" d="M144.803,-551.3203C195.063,-627.8303 212.403,-652.5303 242.123,-671.7903"/>
<polygon fill="#000000" stroke="#000000" points="240.503,-674.9018 250.863,-677.1203 244.1477,-668.9254 240.503,-674.9018"/>
</g>
<!-- 13646 -->
<g id="3" class="node">
<title>13646</title>
<ellipse fill="none" stroke="#000000" cx="294.623" cy="-627.0803" rx="90.5" ry="27"/>
<text text-anchor="middle" x="294.623" y="-630.8803" font-family="Times,serif" font-size="14.00" fill="#000000">Forms of speech are</text>
<text text-anchor="middle" x="294.623" y="-615.8803" font-family="Times,serif" font-size="14.00" fill="#000000">or composite</text>
</g>
<!-- 13661&#45;&gt;13646 -->
<g id="edge4" class="edge">
<title>13661&#45;&gt;13646</title>
<path fill="none" stroke="#000000" d="M149.603,-550.0803C178.863,-579.0403 196.493,-595.7003 212.723,-605.9803"/>
<polygon fill="#000000" stroke="#000000" points="211.2501,-609.169 221.673,-611.0703 214.7107,-603.0842 211.2501,-609.169"/>
</g>
<!-- 13650 -->
<g id="12" class="node">
<title>13650</title>
<ellipse fill="none" stroke="#000000" cx="294.623" cy="-534.0803" rx="75" ry="48.1667"/>
<text text-anchor="middle" x="294.623" y="-552.8803" font-family="Times,serif" font-size="14.00" fill="#000000">Examples of the</text>
<text text-anchor="middle" x="294.623" y="-537.8803" font-family="Times,serif" font-size="14.00" fill="#000000">latter are such</text>
<text text-anchor="middle" x="294.623" y="-522.8803" font-family="Times,serif" font-size="14.00" fill="#000000">expressions as</text>
<text text-anchor="middle" x="294.623" y="-507.8803" font-family="Times,serif" font-size="14.00" fill="#000000">Themanruns</text>
</g>
<!-- 13661&#45;&gt;13650 -->
<g id="edge5" class="edge">
<title>13661&#45;&gt;13650</title>
<path fill="none" stroke="#000000" d="M160.723,-544.3003C186.683,-553.7903 202.703,-558.3803 218.443,-558.0703"/>
<polygon fill="#000000" stroke="#000000" points="219.1903,-561.5179 228.843,-557.1503 218.5735,-554.5451 219.1903,-561.5179"/>
</g>
<!-- 13657 -->
<g id="37" class="node">
<title>13657</title>
<ellipse fill="none" stroke="#000000" cx="294.623" cy="-409.0803" rx="75" ry="58.8803"/>
<text text-anchor="middle" x="294.623" y="-435.3803" font-family="Times,serif" font-size="14.00" fill="#000000">Examples of the</text>
<text text-anchor="middle" x="294.623" y="-420.3803" font-family="Times,serif" font-size="14.00" fill="#000000">latter are such</text>
<text text-anchor="middle" x="294.623" y="-405.3803" font-family="Times,serif" font-size="14.00" fill="#000000">expressions as</text>
<text text-anchor="middle" x="294.623" y="-390.3803" font-family="Times,serif" font-size="14.00" fill="#000000">Themanruns ,</text>
<text text-anchor="middle" x="294.623" y="-375.3803" font-family="Times,serif" font-size="14.00" fill="#000000">Themanwins , .</text>
</g>
<!-- 13661&#45;&gt;13657 -->
<g id="edge6" class="edge">
<title>13661&#45;&gt;13657</title>
<path fill="none" stroke="#000000" d="M163.123,-526.3703C205.763,-514.6803 222.053,-505.5303 251.163,-468.5603"/>
<polygon fill="#000000" stroke="#000000" points="254.2449,-470.2955 257.583,-460.2403 248.7029,-466.0191 254.2449,-470.2955"/>
</g>
<!-- 13647 -->
<g id="34" class="node">
<title>13647</title>
<ellipse fill="none" stroke="#000000" cx="294.623" cy="-305.0803" rx="75" ry="27"/>
<text text-anchor="middle" x="294.623" y="-308.8803" font-family="Times,serif" font-size="14.00" fill="#000000">Examples of the</text>
<text text-anchor="middle" x="294.623" y="-293.8803" font-family="Times,serif" font-size="14.00" fill="#000000">former</text>
</g>
<!-- 13660&#45;&gt;13647 -->
<g id="edge7" class="edge">
<title>13660&#45;&gt;13647</title>
<path fill="none" stroke="#000000" d="M165.803,-225.3403C211.513,-229.2203 226.273,-235.9303 262.753,-272.2703"/>
<polygon fill="#000000" stroke="#000000" points="260.3033,-274.7705 269.833,-279.4003 265.2704,-269.8382 260.3033,-274.7705"/>
</g>
<!-- 13649 -->
<g id="17" class="node">
<title>13649</title>
<ellipse fill="none" stroke="#000000" cx="294.623" cy="-223.0803" rx="87.7537" ry="37.5"/>
<text text-anchor="middle" x="294.623" y="-234.3803" font-family="Times,serif" font-size="14.00" fill="#000000">Examples of the</text>
<text text-anchor="middle" x="294.623" y="-219.3803" font-family="Times,serif" font-size="14.00" fill="#000000">former are such</text>
<text text-anchor="middle" x="294.623" y="-204.3803" font-family="Times,serif" font-size="14.00" fill="#000000">expressions as Man</text>
</g>
<!-- 13660&#45;&gt;13649 -->
<g id="edge8" class="edge">
<title>13660&#45;&gt;13649</title>
<path fill="none" stroke="#000000" d="M160.593,-213.0403C185.213,-204.1503 200.963,-199.5303 215.783,-199.1903"/>
<polygon fill="#000000" stroke="#000000" points="215.8384,-202.696 225.983,-199.6403 216.147,-195.7028 215.8384,-202.696"/>
</g>
<!-- 13645 -->
<g id="0" class="node">
<title>13645</title>
<ellipse fill="none" stroke="#000000" cx="294.623" cy="-141.0803" rx="90.5" ry="27"/>
<text text-anchor="middle" x="294.623" y="-144.8803" font-family="Times,serif" font-size="14.00" fill="#000000">Forms of speech are</text>
<text text-anchor="middle" x="294.623" y="-129.8803" font-family="Times,serif" font-size="14.00" fill="#000000">either simple</text>
</g>
<!-- 13660&#45;&gt;13645 -->
<g id="edge9" class="edge">
<title>13660&#45;&gt;13645</title>
<path fill="none" stroke="#000000" d="M150.573,-207.5803C176.513,-184.1203 193.293,-169.5703 208.073,-160.2803"/>
<polygon fill="#000000" stroke="#000000" points="210.1375,-163.1323 217.093,-155.1403 206.6718,-157.0504 210.1375,-163.1323"/>
</g>
<!-- 13651 -->
<g id="36" class="node">
<title>13651</title>
<ellipse fill="none" stroke="#000000" cx="294.623" cy="-48.0833" rx="92.7622" ry="48.1667"/>
<text text-anchor="middle" x="294.623" y="-66.8833" font-family="Times,serif" font-size="14.00" fill="#000000">Examples of the</text>
<text text-anchor="middle" x="294.623" y="-51.8833" font-family="Times,serif" font-size="14.00" fill="#000000">former are such</text>
<text text-anchor="middle" x="294.623" y="-36.8833" font-family="Times,serif" font-size="14.00" fill="#000000">expressions as Man ,</text>
<text text-anchor="middle" x="294.623" y="-21.8833" font-family="Times,serif" font-size="14.00" fill="#000000">Ox , Runs , Wins</text>
</g>
<!-- 13660&#45;&gt;13651 -->
<g id="edge10" class="edge">
<title>13660&#45;&gt;13651</title>
<path fill="none" stroke="#000000" d="M144.203,-206.0703C185.203,-140.9503 204.543,-111.2703 225.923,-91.2913"/>
<polygon fill="#000000" stroke="#000000" points="228.3711,-93.8002 233.603,-84.5873 223.7678,-88.5267 228.3711,-93.8002"/>
</g>
</g>
</svg>
