<?xml version="1.0" encoding="UTF-8" standalone="no"?>
<!DOCTYPE svg PUBLIC "-//W3C//DTD SVG 1.1//EN"
 "http://www.w3.org/Graphics/SVG/1.1/DTD/svg11.dtd">
<!-- Generated by graphviz version 2.40.1 (20161225.0304)
 -->
<!-- Pages: 1 -->
<svg width="174pt" height="476pt"
 viewBox="0.00 0.00 173.99 476.00" xmlns="http://www.w3.org/2000/svg" xmlns:xlink="http://www.w3.org/1999/xlink">
<g id="graph0" class="graph" transform="scale(1 1) rotate(0) translate(4 472)">
<polygon fill="#ffffff" stroke="transparent" points="-4,4 -4,-472 169.993,-472 169.993,4 -4,4"/>
<!-- 13296 -->
<g id="6" class="node">
<title>13296</title>
<ellipse fill="none" stroke="#000000" cx="32.5" cy="-234" rx="32.5" ry="18"/>
<text text-anchor="middle" x="32.5" y="-230.3" font-family="Times,serif" font-size="14.00" fill="#000000">13296</text>
</g>
<!-- 13628 -->
<g id="2" class="node">
<title>13628</title>
<ellipse fill="none" stroke="#000000" cx="133.493" cy="-450" rx="32.5" ry="18"/>
<text text-anchor="middle" x="133.493" y="-446.3" font-family="Times,serif" font-size="14.00" fill="#000000">13628</text>
</g>
<!-- 13296&#45;&gt;13628 -->
<g id="edge1" class="edge">
<title>13296&#45;&gt;13628</title>
<path fill="none" stroke="#000000" d="M38.329,-251.97C75.939,-367.8 83.31,-387.91 113.483,-425.76"/>
<polygon fill="#000000" stroke="#000000" points="110.8192,-428.0321 119.833,-433.6 116.2588,-423.6262 110.8192,-428.0321"/>
</g>
<!-- 13630 -->
<g id="9" class="node">
<title>13630</title>
<ellipse fill="none" stroke="#000000" cx="133.493" cy="-396" rx="32.5" ry="18"/>
<text text-anchor="middle" x="133.493" y="-392.3" font-family="Times,serif" font-size="14.00" fill="#000000">13630</text>
</g>
<!-- 13296&#45;&gt;13630 -->
<g id="edge2" class="edge">
<title>13296&#45;&gt;13630</title>
<path fill="none" stroke="#000000" d="M39.949,-251.57C73.871,-331.48 82.675,-349.91 108.103,-373.83"/>
<polygon fill="#000000" stroke="#000000" points="105.9876,-376.6369 115.743,-380.77 110.6943,-371.4554 105.9876,-376.6369"/>
</g>
<!-- 13643 -->
<g id="30" class="node">
<title>13643</title>
<ellipse fill="none" stroke="#000000" cx="133.493" cy="-342" rx="32.5" ry="18"/>
<text text-anchor="middle" x="133.493" y="-338.3" font-family="Times,serif" font-size="14.00" fill="#000000">13643</text>
</g>
<!-- 13296&#45;&gt;13643 -->
<g id="edge3" class="edge">
<title>13296&#45;&gt;13643</title>
<path fill="none" stroke="#000000" d="M42.95,-251.27C71.055,-297.57 81.257,-312.42 100.683,-324.82"/>
<polygon fill="#000000" stroke="#000000" points="98.9179,-327.8423 109.313,-329.89 102.4637,-321.8068 98.9179,-327.8423"/>
</g>
<!-- 13298 -->
<g id="1" class="node">
<title>13298</title>
<ellipse fill="none" stroke="#000000" cx="133.493" cy="-288" rx="32.5" ry="18"/>
<text text-anchor="middle" x="133.493" y="-284.3" font-family="Times,serif" font-size="14.00" fill="#000000">13298</text>
</g>
<!-- 13296&#45;&gt;13298 -->
<g id="edge4" class="edge">
<title>13296&#45;&gt;13298</title>
<path fill="none" stroke="#000000" d="M48.803,-250.03C68.428,-269.09 78.725,-277.59 91.848,-282.01"/>
<polygon fill="#000000" stroke="#000000" points="90.9773,-285.3999 101.533,-284.49 92.7138,-278.6187 90.9773,-285.3999"/>
</g>
<!-- 13644 -->
<g id="31" class="node">
<title>13644</title>
<ellipse fill="none" stroke="#000000" cx="133.493" cy="-234" rx="32.5" ry="18"/>
<text text-anchor="middle" x="133.493" y="-230.3" font-family="Times,serif" font-size="14.00" fill="#000000">13644</text>
</g>
<!-- 13296&#45;&gt;13644 -->
<g id="edge5" class="edge">
<title>13296&#45;&gt;13644</title>
<path fill="none" stroke="#000000" d="M65.011,-234C73.128,-234 81.959,-234 90.496,-234"/>
<polygon fill="#000000" stroke="#000000" points="90.693,-237.5001 100.693,-234 90.693,-230.5001 90.693,-237.5001"/>
</g>
<!-- 13631 -->
<g id="10" class="node">
<title>13631</title>
<ellipse fill="none" stroke="#000000" cx="133.493" cy="-180" rx="32.5" ry="18"/>
<text text-anchor="middle" x="133.493" y="-176.3" font-family="Times,serif" font-size="14.00" fill="#000000">13631</text>
</g>
<!-- 13296&#45;&gt;13631 -->
<g id="edge6" class="edge">
<title>13296&#45;&gt;13631</title>
<path fill="none" stroke="#000000" d="M48.803,-217.97C68.428,-198.91 78.725,-190.41 91.848,-185.99"/>
<polygon fill="#000000" stroke="#000000" points="92.7138,-189.3813 101.533,-183.51 90.9773,-182.6001 92.7138,-189.3813"/>
</g>
<!-- 13629 -->
<g id="8" class="node">
<title>13629</title>
<ellipse fill="none" stroke="#000000" cx="133.493" cy="-126" rx="32.5" ry="18"/>
<text text-anchor="middle" x="133.493" y="-122.3" font-family="Times,serif" font-size="14.00" fill="#000000">13629</text>
</g>
<!-- 13296&#45;&gt;13629 -->
<g id="edge7" class="edge">
<title>13296&#45;&gt;13629</title>
<path fill="none" stroke="#000000" d="M42.95,-216.73C71.055,-170.43 81.257,-155.58 100.683,-143.18"/>
<polygon fill="#000000" stroke="#000000" points="102.4637,-146.1932 109.313,-138.11 98.9179,-140.1577 102.4637,-146.1932"/>
</g>
<!-- 13642 -->
<g id="13" class="node">
<title>13642</title>
<ellipse fill="none" stroke="#000000" cx="133.493" cy="-72" rx="32.5" ry="18"/>
<text text-anchor="middle" x="133.493" y="-68.3" font-family="Times,serif" font-size="14.00" fill="#000000">13642</text>
</g>
<!-- 13296&#45;&gt;13642 -->
<g id="edge8" class="edge">
<title>13296&#45;&gt;13642</title>
<path fill="none" stroke="#000000" d="M39.949,-216.43C73.871,-136.52 82.675,-118.09 108.103,-94.175"/>
<polygon fill="#000000" stroke="#000000" points="110.6983,-96.5458 115.743,-87.229 105.9894,-91.3663 110.6983,-96.5458"/>
</g>
<!-- 13297 -->
<g id="0" class="node">
<title>13297</title>
<ellipse fill="none" stroke="#000000" cx="133.493" cy="-18" rx="32.5" ry="18"/>
<text text-anchor="middle" x="133.493" y="-14.3" font-family="Times,serif" font-size="14.00" fill="#000000">13297</text>
</g>
<!-- 13296&#45;&gt;13297 -->
<g id="edge9" class="edge">
<title>13296&#45;&gt;13297</title>
<path fill="none" stroke="#000000" d="M38.329,-216.03C75.939,-100.2 83.31,-80.085 113.483,-42.243"/>
<polygon fill="#000000" stroke="#000000" points="116.2575,-44.3783 119.833,-34.405 110.8185,-39.9718 116.2575,-44.3783"/>
</g>
</g>
</svg>
