<?xml version="1.0" encoding="UTF-8" standalone="no"?>
<!DOCTYPE svg PUBLIC "-//W3C//DTD SVG 1.1//EN"
 "http://www.w3.org/Graphics/SVG/1.1/DTD/svg11.dtd">
<!-- Generated by graphviz version 2.40.1 (20161225.0304)
 -->
<!-- Pages: 1 -->
<svg width="1114pt" height="279pt"
 viewBox="0.00 0.00 1114.30 279.00" xmlns="http://www.w3.org/2000/svg" xmlns:xlink="http://www.w3.org/1999/xlink">
<g id="graph0" class="graph" transform="scale(1 1) rotate(0) translate(4 275)">
<polygon fill="#ffffff" stroke="transparent" points="-4,4 -4,-275 1110.3,-275 1110.3,4 -4,4"/>
<g id="clust1" class="cluster">
<title>cluster2</title>
<polygon fill="#d3d3d3" stroke="#d3d3d3" points="578.17,0 578.17,-271 1106.3,-271 1106.3,0 578.17,0"/>
<text text-anchor="middle" x="842.25" y="-255.8" font-family="Times,serif" font-size="14.00" fill="#000000">Possible New Correlations</text>
</g>
<g id="clust2" class="cluster">
<title>cluster1</title>
<polygon fill="#d3d3d3" stroke="#d3d3d3" points="0,-77 0,-234 497.17,-234 497.17,-77 0,-77"/>
<text text-anchor="middle" x="248.58" y="-218.8" font-family="Times,serif" font-size="14.00" fill="#000000">Found Contradictions</text>
</g>
<!-- poss_new17 -->
<g id="node1" class="node">
<title>poss_new17</title>
<ellipse fill="none" stroke="#000000" cx="678.8" cy="-201" rx="87.7537" ry="37.5"/>
<text text-anchor="middle" x="678.8" y="-212.3" font-family="Times,serif" font-size="14.00" fill="#000000">Examples of the</text>
<text text-anchor="middle" x="678.8" y="-197.3" font-family="Times,serif" font-size="14.00" fill="#000000">former are such</text>
<text text-anchor="middle" x="678.8" y="-182.3" font-family="Times,serif" font-size="14.00" fill="#000000">expressions as Man</text>
</g>
<!-- poss_new12 -->
<g id="node2" class="node">
<title>poss_new12</title>
<ellipse fill="none" stroke="#000000" cx="1023.4" cy="-192" rx="75" ry="48.1667"/>
<text text-anchor="middle" x="1023.4" y="-210.8" font-family="Times,serif" font-size="14.00" fill="#000000">Examples of the</text>
<text text-anchor="middle" x="1023.4" y="-195.8" font-family="Times,serif" font-size="14.00" fill="#000000">latter are such</text>
<text text-anchor="middle" x="1023.4" y="-180.8" font-family="Times,serif" font-size="14.00" fill="#000000">expressions as</text>
<text text-anchor="middle" x="1023.4" y="-165.8" font-family="Times,serif" font-size="14.00" fill="#000000">Themanruns</text>
</g>
<!-- poss_new17&#45;&gt;poss_new12 -->
<g id="edge1" class="edge">
<title>poss_new17&#45;&gt;poss_new12</title>
<path fill="none" stroke="#000000" d="M765.44,-194.73C822.2,-190.62 885.93,-186 885.93,-186 885.93,-186 910.1,-187.05 938.17,-188.28"/>
<polygon fill="#000000" stroke="#000000" points="938.0764,-191.7792 948.22,-188.72 938.3827,-184.7859 938.0764,-191.7792"/>
<text text-anchor="middle" x="859.93" y="-174.8" font-family="Times,serif" font-size="14.00" fill="#000000">*opposed</text>
</g>
<!-- poss_new12&#45;&gt;poss_new17 -->
<g id="edge2" class="edge">
<title>poss_new12&#45;&gt;poss_new17</title>
<path fill="none" stroke="#000000" d="M950.41,-203.56C897.04,-212.01 833.93,-222 833.93,-222 833.93,-222 805.47,-218.15 772.92,-213.74"/>
<polygon fill="#000000" stroke="#000000" points="773.099,-210.2324 762.72,-212.36 772.1604,-217.1692 773.099,-210.2324"/>
<text text-anchor="middle" x="859.93" y="-225.8" font-family="Times,serif" font-size="14.00" fill="#000000">*opposed</text>
</g>
<!-- poss_new36 -->
<g id="node3" class="node">
<title>poss_new36</title>
<ellipse fill="none" stroke="#000000" cx="678.8" cy="-97" rx="92.7622" ry="48.1667"/>
<text text-anchor="middle" x="678.8" y="-115.8" font-family="Times,serif" font-size="14.00" fill="#000000">Examples of the</text>
<text text-anchor="middle" x="678.8" y="-100.8" font-family="Times,serif" font-size="14.00" fill="#000000">former are such</text>
<text text-anchor="middle" x="678.8" y="-85.8" font-family="Times,serif" font-size="14.00" fill="#000000">expressions as Man ,</text>
<text text-anchor="middle" x="678.8" y="-70.8" font-family="Times,serif" font-size="14.00" fill="#000000">Ox , Runs , Wins</text>
</g>
<!-- poss_new37 -->
<g id="node4" class="node">
<title>poss_new37</title>
<ellipse fill="none" stroke="#000000" cx="1023.4" cy="-67" rx="75" ry="58.8803"/>
<text text-anchor="middle" x="1023.4" y="-93.3" font-family="Times,serif" font-size="14.00" fill="#000000">Examples of the</text>
<text text-anchor="middle" x="1023.4" y="-78.3" font-family="Times,serif" font-size="14.00" fill="#000000">latter are such</text>
<text text-anchor="middle" x="1023.4" y="-63.3" font-family="Times,serif" font-size="14.00" fill="#000000">expressions as</text>
<text text-anchor="middle" x="1023.4" y="-48.3" font-family="Times,serif" font-size="14.00" fill="#000000">Themanruns ,</text>
<text text-anchor="middle" x="1023.4" y="-33.3" font-family="Times,serif" font-size="14.00" fill="#000000">Themanwins , .</text>
</g>
<!-- poss_new36&#45;&gt;poss_new37 -->
<g id="edge3" class="edge">
<title>poss_new36&#45;&gt;poss_new37</title>
<path fill="none" stroke="#000000" d="M770.74,-91.072C835.77,-86.879 911.43,-82 911.43,-82 911.43,-82 923.15,-80.43 939,-78.307"/>
<polygon fill="#000000" stroke="#000000" points="939.8838,-81.7199 949.33,-76.922 938.9536,-74.782 939.8838,-81.7199"/>
<text text-anchor="middle" x="859.93" y="-70.8" font-family="Times,serif" font-size="14.00" fill="#000000">possibly correlated</text>
</g>
<!-- poss_new37&#45;&gt;poss_new36 -->
<g id="edge4" class="edge">
<title>poss_new37&#45;&gt;poss_new36</title>
<path fill="none" stroke="#000000" d="M951.51,-84.053C889.02,-98.88 808.43,-118 808.43,-118 808.43,-118 795.45,-115.9 777.71,-113.02"/>
<polygon fill="#000000" stroke="#000000" points="777.8395,-109.4958 767.41,-111.36 776.7257,-116.4066 777.8395,-109.4958"/>
<text text-anchor="middle" x="859.93" y="-121.8" font-family="Times,serif" font-size="14.00" fill="#000000">possibly correlated</text>
</g>
<!-- contra36 -->
<g id="node5" class="node">
<title>contra36</title>
<ellipse fill="none" stroke="#000000" cx="100.63" cy="-138" rx="92.7622" ry="48.1667"/>
<text text-anchor="middle" x="100.63" y="-156.8" font-family="Times,serif" font-size="14.00" fill="#000000">Examples of the</text>
<text text-anchor="middle" x="100.63" y="-141.8" font-family="Times,serif" font-size="14.00" fill="#000000">former are such</text>
<text text-anchor="middle" x="100.63" y="-126.8" font-family="Times,serif" font-size="14.00" fill="#000000">expressions as Man ,</text>
<text text-anchor="middle" x="100.63" y="-111.8" font-family="Times,serif" font-size="14.00" fill="#000000">Ox , Runs , Wins</text>
</g>
<!-- contra36&#45;&gt;poss_new12 -->
<g id="edge6" class="edge">
<title>contra36&#45;&gt;poss_new12</title>
<path fill="none" stroke="#000000" d="M186.11,-119.35C321.03,-89.917 568.17,-36 568.17,-36 568.17,-36 818.26,-121.71 947.71,-166.07"/>
<polygon fill="#000000" stroke="#000000" points="946.5954,-169.3878 957.19,-169.32 948.8655,-162.7661 946.5954,-169.3878"/>
<text text-anchor="middle" x="537.67" y="-24.8" font-family="Times,serif" font-size="14.00" fill="#000000">*correlated</text>
</g>
<!-- contra37 -->
<g id="node6" class="node">
<title>contra37</title>
<ellipse fill="none" stroke="#000000" cx="414.22" cy="-144" rx="75" ry="58.8803"/>
<text text-anchor="middle" x="414.22" y="-170.3" font-family="Times,serif" font-size="14.00" fill="#000000">Examples of the</text>
<text text-anchor="middle" x="414.22" y="-155.3" font-family="Times,serif" font-size="14.00" fill="#000000">latter are such</text>
<text text-anchor="middle" x="414.22" y="-140.3" font-family="Times,serif" font-size="14.00" fill="#000000">expressions as</text>
<text text-anchor="middle" x="414.22" y="-125.3" font-family="Times,serif" font-size="14.00" fill="#000000">Themanruns ,</text>
<text text-anchor="middle" x="414.22" y="-110.3" font-family="Times,serif" font-size="14.00" fill="#000000">Themanwins , .</text>
</g>
<!-- contra36&#45;&gt;contra37 -->
<g id="edge5" class="edge">
<title>contra36&#45;&gt;contra37</title>
<path fill="none" stroke="#000000" d="M193.46,-140.15C214.24,-140.63 230.26,-141 230.26,-141 230.26,-141 280.82,-141.82 328.92,-142.61"/>
<polygon fill="#000000" stroke="#000000" points="329.0731,-146.1129 339.13,-142.78 329.1897,-139.1139 329.0731,-146.1129"/>
<text text-anchor="middle" x="266.26" y="-144.8" font-family="Times,serif" font-size="14.00" fill="#000000">contradicting</text>
</g>
<!-- contra37&#45;&gt;poss_new17 -->
<g id="edge7" class="edge">
<title>contra37&#45;&gt;poss_new17</title>
<path fill="none" stroke="#000000" d="M486.51,-159.58C518.54,-166.48 556.53,-174.66 590.24,-181.92"/>
<polygon fill="#000000" stroke="#000000" points="589.5774,-185.3575 600.09,-184.04 591.0503,-178.5142 589.5774,-185.3575"/>
<text text-anchor="middle" x="537.67" y="-178.8" font-family="Times,serif" font-size="14.00" fill="#000000">*correlated</text>
</g>
</g>
</svg>
