<?xml version="1.0" encoding="UTF-8" standalone="no"?>
<!DOCTYPE svg PUBLIC "-//W3C//DTD SVG 1.1//EN"
 "http://www.w3.org/Graphics/SVG/1.1/DTD/svg11.dtd">
<!-- Generated by graphviz version 2.40.1 (20161225.0304)
 -->
<!-- Pages: 1 -->
<svg width="1043pt" height="299pt"
 viewBox="0.00 0.00 1043.40 299.00" xmlns="http://www.w3.org/2000/svg" xmlns:xlink="http://www.w3.org/1999/xlink">
<g id="graph0" class="graph" transform="scale(1 1) rotate(0) translate(4 295)">
<polygon fill="#ffffff" stroke="transparent" points="-4,4 -4,-295 1039.4,-295 1039.4,4 -4,4"/>
<g id="clust1" class="cluster">
<title>cluster1</title>
<polygon fill="#d3d3d3" stroke="#d3d3d3" points="548.17,-11 548.17,-146 1035.4,-146 1035.4,-11 548.17,-11"/>
<text text-anchor="middle" x="791.8" y="-130.8" font-family="Times,serif" font-size="14.00" fill="#000000">found contradictions</text>
</g>
<g id="clust2" class="cluster">
<title>cluster2</title>
<polygon fill="#d3d3d3" stroke="#d3d3d3" points="0,-20 0,-291 496.17,-291 496.17,-20 0,-20"/>
<text text-anchor="middle" x="248.08" y="-275.8" font-family="Times,serif" font-size="14.00" fill="#000000">possible new correlations</text>
</g>
<!-- contra17 -->
<g id="node1" class="node">
<title>contra17</title>
<ellipse fill="none" stroke="#000000" cx="643.85" cy="-73" rx="87.7537" ry="37.5"/>
<text text-anchor="middle" x="643.85" y="-84.3" font-family="Times,serif" font-size="14.00" fill="#000000">Examples of the</text>
<text text-anchor="middle" x="643.85" y="-69.3" font-family="Times,serif" font-size="14.00" fill="#000000">former are such</text>
<text text-anchor="middle" x="643.85" y="-54.3" font-family="Times,serif" font-size="14.00" fill="#000000">expressions as Man</text>
</g>
<!-- contra12 -->
<g id="node2" class="node">
<title>contra12</title>
<ellipse fill="none" stroke="#000000" cx="952.48" cy="-67" rx="75" ry="48.1667"/>
<text text-anchor="middle" x="952.48" y="-85.8" font-family="Times,serif" font-size="14.00" fill="#000000">Examples of the</text>
<text text-anchor="middle" x="952.48" y="-70.8" font-family="Times,serif" font-size="14.00" fill="#000000">latter are such</text>
<text text-anchor="middle" x="952.48" y="-55.8" font-family="Times,serif" font-size="14.00" fill="#000000">expressions as</text>
<text text-anchor="middle" x="952.48" y="-40.8" font-family="Times,serif" font-size="14.00" fill="#000000">Themanruns</text>
</g>
<!-- contra17&#45;&gt;contra12 -->
<g id="edge1" class="edge">
<title>contra17&#45;&gt;contra12</title>
<path fill="none" stroke="#000000" d="M731.46,-70.892C752.25,-70.392 768.53,-70 768.53,-70 768.53,-70 819.09,-69.176 867.19,-68.391"/>
<polygon fill="#000000" stroke="#000000" points="867.4583,-71.8872 877.4,-68.225 867.3444,-64.8881 867.4583,-71.8872"/>
<text text-anchor="middle" x="804.53" y="-73.8" font-family="Times,serif" font-size="14.00" fill="#000000">contradiction</text>
</g>
<!-- poss_new17 -->
<g id="node3" class="node">
<title>poss_new17</title>
<ellipse fill="none" stroke="#000000" cx="100.63" cy="-199" rx="87.7537" ry="37.5"/>
<text text-anchor="middle" x="100.63" y="-210.3" font-family="Times,serif" font-size="14.00" fill="#000000">Examples of the</text>
<text text-anchor="middle" x="100.63" y="-195.3" font-family="Times,serif" font-size="14.00" fill="#000000">former are such</text>
<text text-anchor="middle" x="100.63" y="-180.3" font-family="Times,serif" font-size="14.00" fill="#000000">expressions as Man</text>
</g>
<!-- poss_new12 -->
<g id="node4" class="node">
<title>poss_new12</title>
<ellipse fill="none" stroke="#000000" cx="413.22" cy="-212" rx="75" ry="48.1667"/>
<text text-anchor="middle" x="413.22" y="-230.8" font-family="Times,serif" font-size="14.00" fill="#000000">Examples of the</text>
<text text-anchor="middle" x="413.22" y="-215.8" font-family="Times,serif" font-size="14.00" fill="#000000">latter are such</text>
<text text-anchor="middle" x="413.22" y="-200.8" font-family="Times,serif" font-size="14.00" fill="#000000">expressions as</text>
<text text-anchor="middle" x="413.22" y="-185.8" font-family="Times,serif" font-size="14.00" fill="#000000">Themanruns</text>
</g>
<!-- poss_new17&#45;&gt;poss_new12 -->
<g id="edge2" class="edge">
<title>poss_new17&#45;&gt;poss_new12</title>
<path fill="none" stroke="#000000" d="M186.59,-191.29C241.04,-186.4 301.26,-181 301.26,-181 301.26,-181 315.84,-185.04 334.48,-190.2"/>
<polygon fill="#000000" stroke="#000000" points="333.6586,-193.6042 344.23,-192.9 335.5268,-186.8581 333.6586,-193.6042"/>
<text text-anchor="middle" x="265.76" y="-169.8" font-family="Times,serif" font-size="14.00" fill="#000000">possible new</text>
</g>
<!-- poss_new12&#45;&gt;poss_new17 -->
<g id="edge3" class="edge">
<title>poss_new12&#45;&gt;poss_new17</title>
<path fill="none" stroke="#000000" d="M338.27,-214.05C287.75,-215.43 230.26,-217 230.26,-217 230.26,-217 214.62,-214.83 194.21,-211.99"/>
<polygon fill="#000000" stroke="#000000" points="194.5761,-208.5074 184.19,-210.6 193.6142,-215.441 194.5761,-208.5074"/>
<text text-anchor="middle" x="265.76" y="-220.8" font-family="Times,serif" font-size="14.00" fill="#000000">possible new</text>
</g>
<!-- poss_new36 -->
<g id="node5" class="node">
<title>poss_new36</title>
<ellipse fill="none" stroke="#000000" cx="100.63" cy="-76" rx="92.7622" ry="48.1667"/>
<text text-anchor="middle" x="100.63" y="-94.8" font-family="Times,serif" font-size="14.00" fill="#000000">Examples of the</text>
<text text-anchor="middle" x="100.63" y="-79.8" font-family="Times,serif" font-size="14.00" fill="#000000">former are such</text>
<text text-anchor="middle" x="100.63" y="-64.8" font-family="Times,serif" font-size="14.00" fill="#000000">expressions as Man ,</text>
<text text-anchor="middle" x="100.63" y="-49.8" font-family="Times,serif" font-size="14.00" fill="#000000">Ox , Runs , Wins</text>
</g>
<!-- poss_new36&#45;&gt;contra12 -->
<g id="edge6" class="edge">
<title>poss_new36&#45;&gt;contra12</title>
<path fill="none" stroke="#000000" d="M190.23,-63.509C318.24,-45.662 538.17,-15 538.17,-15 538.17,-15 747.88,-41.32 868.9,-56.51"/>
<polygon fill="#000000" stroke="#000000" points="868.5321,-59.9912 878.89,-57.763 869.4033,-53.0456 868.5321,-59.9912"/>
<text text-anchor="middle" x="522.17" y="-3.8" font-family="Times,serif" font-size="14.00" fill="#000000">correl</text>
</g>
<!-- poss_new37 -->
<g id="node6" class="node">
<title>poss_new37</title>
<ellipse fill="none" stroke="#000000" cx="413.22" cy="-87" rx="75" ry="58.8803"/>
<text text-anchor="middle" x="413.22" y="-113.3" font-family="Times,serif" font-size="14.00" fill="#000000">Examples of the</text>
<text text-anchor="middle" x="413.22" y="-98.3" font-family="Times,serif" font-size="14.00" fill="#000000">latter are such</text>
<text text-anchor="middle" x="413.22" y="-83.3" font-family="Times,serif" font-size="14.00" fill="#000000">expressions as</text>
<text text-anchor="middle" x="413.22" y="-68.3" font-family="Times,serif" font-size="14.00" fill="#000000">Themanruns ,</text>
<text text-anchor="middle" x="413.22" y="-53.3" font-family="Times,serif" font-size="14.00" fill="#000000">Themanwins , .</text>
</g>
<!-- poss_new36&#45;&gt;poss_new37 -->
<g id="edge4" class="edge">
<title>poss_new36&#45;&gt;poss_new37</title>
<path fill="none" stroke="#000000" d="M193.31,-74.614C245.88,-73.828 301.26,-73 301.26,-73 301.26,-73 312.98,-74.465 328.83,-76.447"/>
<polygon fill="#000000" stroke="#000000" points="328.8027,-79.9708 339.16,-77.74 329.6722,-73.025 328.8027,-79.9708"/>
<text text-anchor="middle" x="265.76" y="-61.8" font-family="Times,serif" font-size="14.00" fill="#000000">possible new</text>
</g>
<!-- poss_new37&#45;&gt;contra17 -->
<g id="edge7" class="edge">
<title>poss_new37&#45;&gt;contra17</title>
<path fill="none" stroke="#000000" d="M488.1,-82.455C506.8,-81.319 527.13,-80.085 546.74,-78.895"/>
<polygon fill="#000000" stroke="#000000" points="547.1505,-82.3766 556.92,-78.277 546.7263,-75.3895 547.1505,-82.3766"/>
<text text-anchor="middle" x="522.17" y="-84.8" font-family="Times,serif" font-size="14.00" fill="#000000">correl</text>
</g>
<!-- poss_new37&#45;&gt;poss_new36 -->
<g id="edge5" class="edge">
<title>poss_new37&#45;&gt;poss_new36</title>
<path fill="none" stroke="#000000" d="M339.06,-95.917C288.35,-102.01 230.26,-109 230.26,-109 230.26,-109 214.33,-104.94 193.63,-99.675"/>
<polygon fill="#000000" stroke="#000000" points="194.3845,-96.2555 183.83,-97.179 192.6568,-103.0389 194.3845,-96.2555"/>
<text text-anchor="middle" x="265.76" y="-112.8" font-family="Times,serif" font-size="14.00" fill="#000000">possible new</text>
</g>
</g>
</svg>
