<?xml version="1.0" encoding="UTF-8" standalone="no"?>
<!DOCTYPE svg PUBLIC "-//W3C//DTD SVG 1.1//EN"
 "http://www.w3.org/Graphics/SVG/1.1/DTD/svg11.dtd">
<!-- Generated by graphviz version 2.40.1 (20161225.0304)
 -->
<!-- Pages: 1 -->
<svg width="1409pt" height="259pt"
 viewBox="0.00 0.00 1409.00 259.00" xmlns="http://www.w3.org/2000/svg" xmlns:xlink="http://www.w3.org/1999/xlink">
<g id="graph0" class="graph" transform="scale(1 1) rotate(0) translate(4 255)">
<polygon fill="#ffffff" stroke="transparent" points="-4,4 -4,-255 1405.0048,-255 1405.0048,4 -4,4"/>
<!-- 34 -->
<g id="node1" class="node">
<title>34</title>
<ellipse fill="none" stroke="#000000" cx="333.5" cy="-26" rx="95.5831" ry="18"/>
<text text-anchor="middle" x="333.5" y="-22.3" font-family="Times,serif" font-size="14.00" fill="#000000">Examples of the former</text>
</g>
<!-- 32 -->
<g id="node2" class="node">
<title>32</title>
<ellipse fill="none" stroke="#000000" cx="1116.98" cy="-18" rx="89.0842" ry="18"/>
<text text-anchor="middle" x="1116.98" y="-14.3" font-family="Times,serif" font-size="14.00" fill="#000000">Examples of the latter</text>
</g>
<!-- 34&#45;&gt;32 -->
<g id="edge1" class="edge">
<title>34&#45;&gt;32</title>
<path fill="none" stroke="#000000" d="M429.17,-25.023C578.61,-23.497 865.97,-20.563 1017.58,-19.014"/>
<polygon fill="#000000" stroke="#000000" points="1017.9159,-22.5109 1027.88,-18.91 1017.8451,-15.5112 1017.9159,-22.5109"/>
<text text-anchor="middle" x="749.92" y="-27.8" font-family="Times,serif" font-size="14.00" fill="#000000">contradiction *antonym</text>
</g>
<!-- 32&#45;&gt;34 -->
<g id="edge2" class="edge">
<title>32&#45;&gt;34</title>
<path fill="none" stroke="#000000" d="M1027.88,-18.91C882.44,-20.395 594.75,-23.332 439.22,-24.92"/>
<polygon fill="#000000" stroke="#000000" points="439.1336,-21.4206 429.17,-25.023 439.2054,-28.4202 439.1336,-21.4206"/>
<text text-anchor="middle" x="749.92" y="-7.8" font-family="Times,serif" font-size="14.00" fill="#000000">contradiction *antonym</text>
</g>
<!-- 17 -->
<g id="node3" class="node">
<title>17</title>
<ellipse fill="none" stroke="#000000" cx="333.5" cy="-114" rx="199.5646" ry="18"/>
<text text-anchor="middle" x="333.5" y="-110.3" font-family="Times,serif" font-size="14.00" fill="#000000">Examples of the former are such expressions as Man</text>
</g>
<!-- 12 -->
<g id="node4" class="node">
<title>12</title>
<ellipse fill="none" stroke="#000000" cx="1116.98" cy="-102" rx="221" ry="18"/>
<text text-anchor="middle" x="1116.98" y="-98.3" font-family="Times,serif" font-size="14.00" fill="#000000">Examples of the latter are such expressions as Themanruns</text>
</g>
<!-- 17&#45;&gt;12 -->
<g id="edge3" class="edge">
<title>17&#45;&gt;12</title>
<path fill="none" stroke="#000000" d="M530.44,-110.98C639.56,-109.31 775.72,-107.23 889.38,-105.49"/>
<polygon fill="#000000" stroke="#000000" points="889.666,-108.9861 899.61,-105.33 889.5565,-101.9869 889.666,-108.9861"/>
<text text-anchor="middle" x="749.92" y="-111.8" font-family="Times,serif" font-size="14.00" fill="#000000">contradiction *antonym</text>
</g>
<!-- 12&#45;&gt;17 -->
<g id="edge4" class="edge">
<title>12&#45;&gt;17</title>
<path fill="none" stroke="#000000" d="M899.61,-105.33C787.47,-107.05 651.37,-109.13 540.72,-110.83"/>
<polygon fill="#000000" stroke="#000000" points="540.3878,-107.3344 530.44,-110.98 540.49,-114.3336 540.3878,-107.3344"/>
<text text-anchor="middle" x="749.92" y="-90.8" font-family="Times,serif" font-size="14.00" fill="#000000">contradiction *antonym</text>
</g>
<!-- 36 -->
<g id="node5" class="node">
<title>36</title>
<ellipse fill="none" stroke="#000000" cx="333.5" cy="-179" rx="269.1523" ry="18"/>
<text text-anchor="middle" x="333.5" y="-175.3" font-family="Times,serif" font-size="14.00" fill="#000000">Examples of the former are such expressions as Man , Ox , Runs , Wins</text>
</g>
<!-- 37 -->
<g id="node6" class="node">
<title>37</title>
<ellipse fill="none" stroke="#000000" cx="1116.98" cy="-185" rx="284.0496" ry="18"/>
<text text-anchor="middle" x="1116.98" y="-181.3" font-family="Times,serif" font-size="14.00" fill="#000000">Examples of the latter are such expressions as Themanruns , Themanwins , .</text>
</g>
<!-- 36&#45;&gt;37 -->
<g id="edge5" class="edge">
<title>36&#45;&gt;37</title>
<path fill="none" stroke="#000000" d="M600.93,-181.05C672.9,-181.6 751.12,-182.2 824.38,-182.76"/>
<polygon fill="#000000" stroke="#000000" points="824.6531,-186.2621 834.68,-182.84 824.7075,-179.2623 824.6531,-186.2621"/>
<text text-anchor="middle" x="749.92" y="-185.8" font-family="Times,serif" font-size="14.00" fill="#000000">contradiction *antonym</text>
</g>
<!-- 37&#45;&gt;36 -->
<g id="edge6" class="edge">
<title>37&#45;&gt;36</title>
<path fill="none" stroke="#000000" d="M834.68,-182.84C761.91,-182.28 683.66,-181.68 611.12,-181.13"/>
<polygon fill="#000000" stroke="#000000" points="610.9572,-177.6287 600.93,-181.05 610.9022,-184.6285 610.9572,-177.6287"/>
<text text-anchor="middle" x="749.92" y="-166.8" font-family="Times,serif" font-size="14.00" fill="#000000">contradiction *antonym</text>
</g>
<!-- 53 -->
<g id="node7" class="node">
<title>53</title>
<ellipse fill="none" stroke="#000000" cx="333.5" cy="-233" rx="333.5" ry="18"/>
<text text-anchor="middle" x="333.5" y="-229.3" font-family="Times,serif" font-size="14.00" fill="#000000">Of things themselves some are predicable of a subject , and are never present in a subject .</text>
</g>
</g>
</svg>
