<?xml version="1.0" encoding="UTF-8" standalone="no"?>
<!DOCTYPE svg PUBLIC "-//W3C//DTD SVG 1.1//EN"
 "http://www.w3.org/Graphics/SVG/1.1/DTD/svg11.dtd">
<!-- Generated by graphviz version 2.40.1 (20161225.0304)
 -->
<!-- Pages: 1 -->
<svg width="1018pt" height="299pt"
 viewBox="0.00 0.00 1018.00 299.00" xmlns="http://www.w3.org/2000/svg" xmlns:xlink="http://www.w3.org/1999/xlink">
<g id="graph0" class="graph" transform="scale(1 1) rotate(0) translate(4 295)">
<polygon fill="#ffffff" stroke="transparent" points="-4,4 -4,-295 1014,-295 1014,4 -4,4"/>
<g id="clust1" class="cluster">
<title>cluster1</title>
<polygon fill="#d3d3d3" stroke="#d3d3d3" points="548.17,-20 548.17,-113 1010,-113 1010,-20 548.17,-20"/>
<text text-anchor="middle" x="779.08" y="-97.8" font-family="Times,serif" font-size="14.00" fill="#000000">found contradictions</text>
</g>
<g id="clust2" class="cluster">
<title>cluster2</title>
<polygon fill="#d3d3d3" stroke="#d3d3d3" points="0,-20 0,-291 496.17,-291 496.17,-20 0,-20"/>
<text text-anchor="middle" x="248.08" y="-275.8" font-family="Times,serif" font-size="14.00" fill="#000000">possible new correlations</text>
</g>
<!-- contra34 -->
<g id="node1" class="node">
<title>contra34</title>
<ellipse fill="none" stroke="#000000" cx="631.12" cy="-55" rx="75" ry="27"/>
<text text-anchor="middle" x="631.12" y="-58.8" font-family="Times,serif" font-size="14.00" fill="#000000">Examples of the</text>
<text text-anchor="middle" x="631.12" y="-43.8" font-family="Times,serif" font-size="14.00" fill="#000000">former</text>
</g>
<!-- contra32 -->
<g id="node2" class="node">
<title>contra32</title>
<ellipse fill="none" stroke="#000000" cx="927.03" cy="-55" rx="75" ry="27"/>
<text text-anchor="middle" x="927.03" y="-58.8" font-family="Times,serif" font-size="14.00" fill="#000000">Examples of the</text>
<text text-anchor="middle" x="927.03" y="-43.8" font-family="Times,serif" font-size="14.00" fill="#000000">latter</text>
</g>
<!-- contra34&#45;&gt;contra32 -->
<g id="edge1" class="edge">
<title>contra34&#45;&gt;contra32</title>
<path fill="none" stroke="#000000" d="M706.11,-55C726.5,-55 743.08,-55 743.08,-55 743.08,-55 793.63,-55 841.73,-55"/>
<polygon fill="#000000" stroke="#000000" points="841.94,-58.5001 851.94,-55 841.94,-51.5001 841.94,-58.5001"/>
<text text-anchor="middle" x="779.08" y="-58.8" font-family="Times,serif" font-size="14.00" fill="#000000">contradiction</text>
</g>
<!-- poss_new17 -->
<g id="node3" class="node">
<title>poss_new17</title>
<ellipse fill="none" stroke="#000000" cx="100.63" cy="-199" rx="87.7537" ry="37.5"/>
<text text-anchor="middle" x="100.63" y="-210.3" font-family="Times,serif" font-size="14.00" fill="#000000">Examples of the</text>
<text text-anchor="middle" x="100.63" y="-195.3" font-family="Times,serif" font-size="14.00" fill="#000000">former are such</text>
<text text-anchor="middle" x="100.63" y="-180.3" font-family="Times,serif" font-size="14.00" fill="#000000">expressions as Man</text>
</g>
<!-- poss_new12 -->
<g id="node4" class="node">
<title>poss_new12</title>
<ellipse fill="none" stroke="#000000" cx="413.22" cy="-212" rx="75" ry="48.1667"/>
<text text-anchor="middle" x="413.22" y="-230.8" font-family="Times,serif" font-size="14.00" fill="#000000">Examples of the</text>
<text text-anchor="middle" x="413.22" y="-215.8" font-family="Times,serif" font-size="14.00" fill="#000000">latter are such</text>
<text text-anchor="middle" x="413.22" y="-200.8" font-family="Times,serif" font-size="14.00" fill="#000000">expressions as</text>
<text text-anchor="middle" x="413.22" y="-185.8" font-family="Times,serif" font-size="14.00" fill="#000000">Themanruns</text>
</g>
<!-- poss_new17&#45;&gt;poss_new12 -->
<g id="edge2" class="edge">
<title>poss_new17&#45;&gt;poss_new12</title>
<path fill="none" stroke="#000000" d="M186.59,-191.29C241.04,-186.4 301.26,-181 301.26,-181 301.26,-181 315.84,-185.04 334.48,-190.2"/>
<polygon fill="#000000" stroke="#000000" points="333.6586,-193.6042 344.23,-192.9 335.5268,-186.8581 333.6586,-193.6042"/>
<text text-anchor="middle" x="265.76" y="-169.8" font-family="Times,serif" font-size="14.00" fill="#000000">possible new</text>
</g>
<!-- poss_new12&#45;&gt;poss_new17 -->
<g id="edge3" class="edge">
<title>poss_new12&#45;&gt;poss_new17</title>
<path fill="none" stroke="#000000" d="M338.27,-214.05C287.75,-215.43 230.26,-217 230.26,-217 230.26,-217 214.62,-214.83 194.21,-211.99"/>
<polygon fill="#000000" stroke="#000000" points="194.5761,-208.5074 184.19,-210.6 193.6142,-215.441 194.5761,-208.5074"/>
<text text-anchor="middle" x="265.76" y="-220.8" font-family="Times,serif" font-size="14.00" fill="#000000">possible new</text>
</g>
<!-- poss_new36 -->
<g id="node5" class="node">
<title>poss_new36</title>
<ellipse fill="none" stroke="#000000" cx="100.63" cy="-76" rx="92.7622" ry="48.1667"/>
<text text-anchor="middle" x="100.63" y="-94.8" font-family="Times,serif" font-size="14.00" fill="#000000">Examples of the</text>
<text text-anchor="middle" x="100.63" y="-79.8" font-family="Times,serif" font-size="14.00" fill="#000000">former are such</text>
<text text-anchor="middle" x="100.63" y="-64.8" font-family="Times,serif" font-size="14.00" fill="#000000">expressions as Man ,</text>
<text text-anchor="middle" x="100.63" y="-49.8" font-family="Times,serif" font-size="14.00" fill="#000000">Ox , Runs , Wins</text>
</g>
<!-- poss_new36&#45;&gt;contra32 -->
<g id="edge6" class="edge">
<title>poss_new36&#45;&gt;contra32</title>
<path fill="none" stroke="#000000" d="M190.23,-63.509C318.24,-45.662 538.17,-15 538.17,-15 538.17,-15 730.55,-34.79 844.69,-46.53"/>
<polygon fill="#000000" stroke="#000000" points="844.4943,-50.0283 854.8,-47.57 845.2107,-43.065 844.4943,-50.0283"/>
<text text-anchor="middle" x="522.17" y="-3.8" font-family="Times,serif" font-size="14.00" fill="#000000">correl</text>
</g>
<!-- poss_new37 -->
<g id="node6" class="node">
<title>poss_new37</title>
<ellipse fill="none" stroke="#000000" cx="413.22" cy="-87" rx="75" ry="58.8803"/>
<text text-anchor="middle" x="413.22" y="-113.3" font-family="Times,serif" font-size="14.00" fill="#000000">Examples of the</text>
<text text-anchor="middle" x="413.22" y="-98.3" font-family="Times,serif" font-size="14.00" fill="#000000">latter are such</text>
<text text-anchor="middle" x="413.22" y="-83.3" font-family="Times,serif" font-size="14.00" fill="#000000">expressions as</text>
<text text-anchor="middle" x="413.22" y="-68.3" font-family="Times,serif" font-size="14.00" fill="#000000">Themanruns ,</text>
<text text-anchor="middle" x="413.22" y="-53.3" font-family="Times,serif" font-size="14.00" fill="#000000">Themanwins , .</text>
</g>
<!-- poss_new36&#45;&gt;poss_new37 -->
<g id="edge4" class="edge">
<title>poss_new36&#45;&gt;poss_new37</title>
<path fill="none" stroke="#000000" d="M193.31,-74.614C245.88,-73.828 301.26,-73 301.26,-73 301.26,-73 312.98,-74.465 328.83,-76.447"/>
<polygon fill="#000000" stroke="#000000" points="328.8027,-79.9708 339.16,-77.74 329.6722,-73.025 328.8027,-79.9708"/>
<text text-anchor="middle" x="265.76" y="-61.8" font-family="Times,serif" font-size="14.00" fill="#000000">possible new</text>
</g>
<!-- poss_new37&#45;&gt;contra34 -->
<g id="edge7" class="edge">
<title>poss_new37&#45;&gt;contra34</title>
<path fill="none" stroke="#000000" d="M486.99,-76.166C507.77,-73.114 530.47,-69.781 551.58,-66.681"/>
<polygon fill="#000000" stroke="#000000" points="552.085,-70.1445 561.47,-65.228 551.0674,-63.2188 552.085,-70.1445"/>
<text text-anchor="middle" x="522.17" y="-75.8" font-family="Times,serif" font-size="14.00" fill="#000000">correl</text>
</g>
<!-- poss_new37&#45;&gt;poss_new36 -->
<g id="edge5" class="edge">
<title>poss_new37&#45;&gt;poss_new36</title>
<path fill="none" stroke="#000000" d="M339.06,-95.917C288.35,-102.01 230.26,-109 230.26,-109 230.26,-109 214.33,-104.94 193.63,-99.675"/>
<polygon fill="#000000" stroke="#000000" points="194.3845,-96.2555 183.83,-97.179 192.6568,-103.0389 194.3845,-96.2555"/>
<text text-anchor="middle" x="265.76" y="-112.8" font-family="Times,serif" font-size="14.00" fill="#000000">possible new</text>
</g>
</g>
</svg>
