<?xml version="1.0" encoding="UTF-8" standalone="no"?>
<!DOCTYPE svg PUBLIC "-//W3C//DTD SVG 1.1//EN"
 "http://www.w3.org/Graphics/SVG/1.1/DTD/svg11.dtd">
<!-- Generated by graphviz version 2.40.1 (20161225.0304)
 -->
<!-- Pages: 1 -->
<svg width="152pt" height="152pt"
 viewBox="0.00 0.00 152.00 152.00" xmlns="http://www.w3.org/2000/svg" xmlns:xlink="http://www.w3.org/1999/xlink">
<g id="graph0" class="graph" transform="scale(1 1) rotate(0) translate(4 148)">
<polygon fill="#ffffff" stroke="transparent" points="-4,4 -4,-148 148,-148 148,4 -4,4"/>
<!-- 34 -->
<g id="node1" class="node">
<title>34</title>
<ellipse fill="none" stroke="#000000" cx="27" cy="-18" rx="27" ry="18"/>
<text text-anchor="middle" x="27" y="-14.3" font-family="Times,serif" font-size="14.00" fill="#000000">34</text>
</g>
<!-- 32 -->
<g id="node2" class="node">
<title>32</title>
<ellipse fill="none" stroke="#000000" cx="117" cy="-18" rx="27" ry="18"/>
<text text-anchor="middle" x="117" y="-14.3" font-family="Times,serif" font-size="14.00" fill="#000000">32</text>
</g>
<!-- 34&#45;&gt;32 -->
<g id="edge1" class="edge">
<title>34&#45;&gt;32</title>
<path fill="none" stroke="#000000" d="M52.55,-24.155C61.48,-24.737 71.676,-24.892 81.282,-24.621"/>
<polygon fill="#000000" stroke="#000000" points="81.5563,-28.1122 91.386,-24.159 81.2365,-21.1195 81.5563,-28.1122"/>
</g>
<!-- 32&#45;&gt;34 -->
<g id="edge2" class="edge">
<title>32&#45;&gt;34</title>
<path fill="none" stroke="#000000" d="M52.614,-11.841C61.55,-11.261 71.748,-11.108 81.351,-11.381"/>
<polygon fill="#000000" stroke="#000000" points="81.2999,-14.8823 91.45,-11.845 81.6212,-7.8896 81.2999,-14.8823"/>
</g>
<!-- 17 -->
<g id="node3" class="node">
<title>17</title>
<ellipse fill="none" stroke="#000000" cx="27" cy="-72" rx="27" ry="18"/>
<text text-anchor="middle" x="27" y="-68.3" font-family="Times,serif" font-size="14.00" fill="#000000">17</text>
</g>
<!-- 12 -->
<g id="node4" class="node">
<title>12</title>
<ellipse fill="none" stroke="#000000" cx="117" cy="-72" rx="27" ry="18"/>
<text text-anchor="middle" x="117" y="-68.3" font-family="Times,serif" font-size="14.00" fill="#000000">12</text>
</g>
<!-- 17&#45;&gt;12 -->
<g id="edge3" class="edge">
<title>17&#45;&gt;12</title>
<path fill="none" stroke="#000000" d="M52.55,-78.155C61.48,-78.737 71.676,-78.892 81.282,-78.621"/>
<polygon fill="#000000" stroke="#000000" points="81.5563,-82.1122 91.386,-78.159 81.2365,-75.1195 81.5563,-82.1122"/>
</g>
<!-- 12&#45;&gt;17 -->
<g id="edge4" class="edge">
<title>12&#45;&gt;17</title>
<path fill="none" stroke="#000000" d="M52.614,-65.841C61.55,-65.261 71.748,-65.108 81.351,-65.381"/>
<polygon fill="#000000" stroke="#000000" points="81.2999,-68.8823 91.45,-65.845 81.6212,-61.8896 81.2999,-68.8823"/>
</g>
<!-- 36 -->
<g id="node5" class="node">
<title>36</title>
<ellipse fill="none" stroke="#000000" cx="27" cy="-126" rx="27" ry="18"/>
<text text-anchor="middle" x="27" y="-122.3" font-family="Times,serif" font-size="14.00" fill="#000000">36</text>
</g>
<!-- 37 -->
<g id="node6" class="node">
<title>37</title>
<ellipse fill="none" stroke="#000000" cx="117" cy="-126" rx="27" ry="18"/>
<text text-anchor="middle" x="117" y="-122.3" font-family="Times,serif" font-size="14.00" fill="#000000">37</text>
</g>
<!-- 36&#45;&gt;37 -->
<g id="edge5" class="edge">
<title>36&#45;&gt;37</title>
<path fill="none" stroke="#000000" d="M52.55,-132.16C61.48,-132.74 71.676,-132.89 81.282,-132.62"/>
<polygon fill="#000000" stroke="#000000" points="81.5556,-136.1113 91.386,-132.16 81.2371,-129.1185 81.5556,-136.1113"/>
</g>
<!-- 37&#45;&gt;36 -->
<g id="edge6" class="edge">
<title>37&#45;&gt;36</title>
<path fill="none" stroke="#000000" d="M52.614,-119.84C61.55,-119.26 71.748,-119.11 81.351,-119.38"/>
<polygon fill="#000000" stroke="#000000" points="81.3011,-122.8813 91.45,-119.84 81.6196,-115.8885 81.3011,-122.8813"/>
</g>
</g>
</svg>
