<?xml version="1.0" encoding="UTF-8" standalone="no"?>
<!DOCTYPE svg PUBLIC "-//W3C//DTD SVG 1.1//EN"
 "http://www.w3.org/Graphics/SVG/1.1/DTD/svg11.dtd">
<!-- Generated by graphviz version 2.40.1 (20161225.0304)
 -->
<!-- Pages: 1 -->
<svg width="152pt" height="44pt"
 viewBox="0.00 0.00 152.00 44.00" xmlns="http://www.w3.org/2000/svg" xmlns:xlink="http://www.w3.org/1999/xlink">
<g id="graph0" class="graph" transform="scale(1 1) rotate(0) translate(4 40)">
<polygon fill="#ffffff" stroke="transparent" points="-4,4 -4,-40 148,-40 148,4 -4,4"/>
<!-- 0 -->
<g id="node1" class="node">
<title>0</title>
<ellipse fill="none" stroke="#000000" cx="27" cy="-18" rx="27" ry="18"/>
<text text-anchor="middle" x="27" y="-14.3" font-family="Times,serif" font-size="14.00" fill="#000000">0</text>
</g>
<!-- 3 -->
<g id="node2" class="node">
<title>3</title>
<ellipse fill="none" stroke="#000000" cx="117" cy="-18" rx="27" ry="18"/>
<text text-anchor="middle" x="117" y="-14.3" font-family="Times,serif" font-size="14.00" fill="#000000">3</text>
</g>
<!-- 0&#45;&gt;3 -->
<g id="edge1" class="edge">
<title>0&#45;&gt;3</title>
<path fill="none" stroke="#000000" d="M52.55,-24.155C61.48,-24.737 71.676,-24.892 81.282,-24.621"/>
<polygon fill="#000000" stroke="#000000" points="81.5563,-28.1122 91.386,-24.159 81.2365,-21.1195 81.5563,-28.1122"/>
</g>
<!-- 3&#45;&gt;0 -->
<g id="edge2" class="edge">
<title>3&#45;&gt;0</title>
<path fill="none" stroke="#000000" d="M52.614,-11.841C61.55,-11.261 71.748,-11.108 81.351,-11.381"/>
<polygon fill="#000000" stroke="#000000" points="81.2999,-14.8823 91.45,-11.845 81.6212,-7.8896 81.2999,-14.8823"/>
</g>
</g>
</svg>
