<?xml version="1.0" encoding="UTF-8" standalone="no"?>
<!DOCTYPE svg PUBLIC "-//W3C//DTD SVG 1.1//EN"
 "http://www.w3.org/Graphics/SVG/1.1/DTD/svg11.dtd">
<!-- Generated by graphviz version 2.40.1 (20161225.0304)
 -->
<!-- Pages: 1 -->
<svg width="1007pt" height="155pt"
 viewBox="0.00 0.00 1006.98 154.50" xmlns="http://www.w3.org/2000/svg" xmlns:xlink="http://www.w3.org/1999/xlink">
<g id="graph0" class="graph" transform="scale(1 1) rotate(0) translate(4 150.5)">
<polygon fill="#ffffff" stroke="transparent" points="-4,4 -4,-150.5 1002.98,-150.5 1002.98,4 -4,4"/>
<!-- 36 -->
<g id="node1" class="node">
<title>36</title>
<ellipse fill="none" stroke="#000000" cx="213.5" cy="-27" rx="213.5" ry="27"/>
<text text-anchor="middle" x="213.5" y="-30.8" font-family="Times,serif" font-size="14.00" fill="#000000">which have both the name answering to the name in</text>
<text text-anchor="middle" x="213.5" y="-15.8" font-family="Times,serif" font-size="14.00" fill="#000000">common</text>
</g>
<!-- 57 -->
<g id="node2" class="node">
<title>57</title>
<ellipse fill="none" stroke="#000000" cx="795.98" cy="-27" rx="201" ry="18"/>
<text text-anchor="middle" x="795.98" y="-23.3" font-family="Times,serif" font-size="14.00" fill="#000000">to be which derive their name from some other name</text>
</g>
<!-- 36&#45;&gt;57 -->
<g id="edge1" class="edge">
<title>36&#45;&gt;57</title>
<path fill="none" stroke="#000000" d="M427.08,-27C478.53,-27 533.46,-27 584.79,-27"/>
<polygon fill="#000000" stroke="#000000" points="585.01,-30.5001 595.01,-27 585.01,-23.5001 585.01,-30.5001"/>
<text text-anchor="middle" x="510.04" y="-30.8" font-family="Times,serif" font-size="14.00" fill="#000000">contradiction *antonym</text>
</g>
<!-- 54 -->
<g id="node3" class="node">
<title>54</title>
<ellipse fill="none" stroke="#000000" cx="213.5" cy="-109" rx="195.0803" ry="37.5"/>
<text text-anchor="middle" x="213.5" y="-120.3" font-family="Times,serif" font-size="14.00" fill="#000000">On the other hand , things are said to be named</text>
<text text-anchor="middle" x="213.5" y="-105.3" font-family="Times,serif" font-size="14.00" fill="#000000">Univocally which have both the name and the</text>
<text text-anchor="middle" x="213.5" y="-90.3" font-family="Times,serif" font-size="14.00" fill="#000000">definition answering to the name in common .</text>
</g>
<!-- 74 -->
<g id="node4" class="node">
<title>74</title>
<ellipse fill="none" stroke="#000000" cx="795.98" cy="-109" rx="203" ry="37.5"/>
<text text-anchor="middle" x="795.98" y="-120.3" font-family="Times,serif" font-size="14.00" fill="#000000">Things are said to be named Derivatively , which</text>
<text text-anchor="middle" x="795.98" y="-105.3" font-family="Times,serif" font-size="14.00" fill="#000000">derive their name from some other name , but</text>
<text text-anchor="middle" x="795.98" y="-90.3" font-family="Times,serif" font-size="14.00" fill="#000000">differ from it in termination .</text>
</g>
<!-- 54&#45;&gt;74 -->
<g id="edge2" class="edge">
<title>54&#45;&gt;74</title>
<path fill="none" stroke="#000000" d="M408.67,-109C464.58,-109 525.8,-109 582.73,-109"/>
<polygon fill="#000000" stroke="#000000" points="582.94,-112.5001 592.94,-109 582.94,-105.5001 582.94,-112.5001"/>
<text text-anchor="middle" x="510.04" y="-112.8" font-family="Times,serif" font-size="14.00" fill="#000000">contradiction *antonym</text>
</g>
</g>
</svg>
