<?xml version="1.0" encoding="UTF-8" standalone="no"?>
<!DOCTYPE svg PUBLIC "-//W3C//DTD SVG 1.1//EN"
 "http://www.w3.org/Graphics/SVG/1.1/DTD/svg11.dtd">
<!-- Generated by graphviz version 2.40.1 (20161225.0304)
 -->
<!-- Pages: 1 -->
<svg width="930pt" height="715pt"
 viewBox="0.00 0.00 929.56 715.00" xmlns="http://www.w3.org/2000/svg" xmlns:xlink="http://www.w3.org/1999/xlink">
<g id="graph0" class="graph" transform="scale(1 1) rotate(0) translate(4 711)">
<polygon fill="#ffffff" stroke="transparent" points="-4,4 -4,-711 925.56,-711 925.56,4 -4,4"/>
<g id="clust1" class="cluster">
<title>cluster2</title>
<polygon fill="#d3d3d3" stroke="#d3d3d3" points="253.26,0 253.26,-303 921.56,-303 921.56,0 253.26,0"/>
<text text-anchor="middle" x="587.41" y="-287.8" font-family="Times,serif" font-size="14.00" fill="#000000">found contradictions</text>
</g>
<g id="clust2" class="cluster">
<title>cluster1</title>
<polygon fill="#d3d3d3" stroke="#d3d3d3" points="0,-311 0,-707 668.3,-707 668.3,-311 0,-311"/>
<text text-anchor="middle" x="334.15" y="-691.8" font-family="Times,serif" font-size="14.00" fill="#000000">possible new correlations</text>
</g>
<!-- contra4 -->
<g id="node1" class="node">
<title>contra4</title>
<ellipse fill="none" stroke="#000000" cx="351.77" cy="-254" rx="73.5" ry="18"/>
<text text-anchor="middle" x="351.77" y="-250.3" font-family="Times,serif" font-size="14.00" fill="#000000">Examples of the .</text>
</g>
<!-- contra3 -->
<g id="node2" class="node">
<title>contra3</title>
<ellipse fill="none" stroke="#000000" cx="820.93" cy="-254" rx="83.3857" ry="18"/>
<text text-anchor="middle" x="820.93" y="-250.3" font-family="Times,serif" font-size="14.00" fill="#000000">, Examples of the as</text>
</g>
<!-- contra4&#45;&gt;contra3 -->
<g id="edge1" class="edge">
<title>contra4&#45;&gt;contra3</title>
<path fill="none" stroke="#000000" d="M425.28,-254C475.8,-254 533.79,-254 533.79,-254 533.79,-254 643.6,-254 727.41,-254"/>
<polygon fill="#000000" stroke="#000000" points="727.49,-257.5001 737.49,-254 727.49,-250.5001 727.49,-257.5001"/>
<text text-anchor="middle" x="569.79" y="-257.8" font-family="Times,serif" font-size="14.00" fill="#000000">contradiction</text>
</g>
<!-- contra5 -->
<g id="node3" class="node">
<title>contra5</title>
<ellipse fill="none" stroke="#000000" cx="351.77" cy="-181" rx="75" ry="37.5"/>
<text text-anchor="middle" x="351.77" y="-192.3" font-family="Times,serif" font-size="14.00" fill="#000000">Examples of the</text>
<text text-anchor="middle" x="351.77" y="-177.3" font-family="Times,serif" font-size="14.00" fill="#000000">latter are such</text>
<text text-anchor="middle" x="351.77" y="-162.3" font-family="Times,serif" font-size="14.00" fill="#000000">expressions as .</text>
</g>
<!-- contra6 -->
<g id="node4" class="node">
<title>contra6</title>
<ellipse fill="none" stroke="#000000" cx="820.93" cy="-181" rx="80" ry="37.5"/>
<text text-anchor="middle" x="820.93" y="-192.3" font-family="Times,serif" font-size="14.00" fill="#000000">, Examples of the</text>
<text text-anchor="middle" x="820.93" y="-177.3" font-family="Times,serif" font-size="14.00" fill="#000000">former are such</text>
<text text-anchor="middle" x="820.93" y="-162.3" font-family="Times,serif" font-size="14.00" fill="#000000">expressions as</text>
</g>
<!-- contra5&#45;&gt;contra6 -->
<g id="edge2" class="edge">
<title>contra5&#45;&gt;contra6</title>
<path fill="none" stroke="#000000" d="M426.86,-181C477,-181 533.79,-181 533.79,-181 533.79,-181 646.62,-181 730.83,-181"/>
<polygon fill="#000000" stroke="#000000" points="730.95,-184.5001 740.95,-181 730.95,-177.5001 730.95,-184.5001"/>
<text text-anchor="middle" x="569.79" y="-184.8" font-family="Times,serif" font-size="14.00" fill="#000000">contradiction</text>
</g>
<!-- contra7 -->
<g id="node5" class="node">
<title>contra7</title>
<ellipse fill="none" stroke="#000000" cx="351.77" cy="-67" rx="90.5193" ry="58.8803"/>
<text text-anchor="middle" x="351.77" y="-93.3" font-family="Times,serif" font-size="14.00" fill="#000000">Examples of the</text>
<text text-anchor="middle" x="351.77" y="-78.3" font-family="Times,serif" font-size="14.00" fill="#000000">latter are such</text>
<text text-anchor="middle" x="351.77" y="-63.3" font-family="Times,serif" font-size="14.00" fill="#000000">expressions as</text>
<text text-anchor="middle" x="351.77" y="-48.3" font-family="Times,serif" font-size="14.00" fill="#000000">Themanruns ,</text>
<text text-anchor="middle" x="351.77" y="-33.3" font-family="Times,serif" font-size="14.00" fill="#000000">Themanwins Wins .</text>
</g>
<!-- contra8 -->
<g id="node6" class="node">
<title>contra8</title>
<ellipse fill="none" stroke="#000000" cx="820.93" cy="-67" rx="92.7622" ry="48.1667"/>
<text text-anchor="middle" x="820.93" y="-85.8" font-family="Times,serif" font-size="14.00" fill="#000000">, Examples of the</text>
<text text-anchor="middle" x="820.93" y="-70.8" font-family="Times,serif" font-size="14.00" fill="#000000">former are such</text>
<text text-anchor="middle" x="820.93" y="-55.8" font-family="Times,serif" font-size="14.00" fill="#000000">expressions as Man ,</text>
<text text-anchor="middle" x="820.93" y="-40.8" font-family="Times,serif" font-size="14.00" fill="#000000">Ox , Runs ,</text>
</g>
<!-- contra7&#45;&gt;contra8 -->
<g id="edge3" class="edge">
<title>contra7&#45;&gt;contra8</title>
<path fill="none" stroke="#000000" d="M442.51,-67C488.11,-67 533.79,-67 533.79,-67 533.79,-67 635.54,-67 717.91,-67"/>
<polygon fill="#000000" stroke="#000000" points="718.1,-70.5001 728.1,-67 718.1,-63.5001 718.1,-70.5001"/>
<text text-anchor="middle" x="569.79" y="-70.8" font-family="Times,serif" font-size="14.00" fill="#000000">contradiction</text>
</g>
<!-- poss new3 -->
<g id="node7" class="node">
<title>poss new3</title>
<ellipse fill="none" stroke="#000000" cx="100.63" cy="-658" rx="83.3857" ry="18"/>
<text text-anchor="middle" x="100.63" y="-654.3" font-family="Times,serif" font-size="14.00" fill="#000000">, Examples of the as</text>
</g>
<!-- poss new4 -->
<g id="node8" class="node">
<title>poss new4</title>
<ellipse fill="none" stroke="#000000" cx="569.79" cy="-658" rx="73.5" ry="18"/>
<text text-anchor="middle" x="569.79" y="-654.3" font-family="Times,serif" font-size="14.00" fill="#000000">Examples of the .</text>
</g>
<!-- poss new3&#45;&gt;poss new4 -->
<g id="edge4" class="edge">
<title>poss new3&#45;&gt;poss new4</title>
<path fill="none" stroke="#000000" d="M184,-658C244.68,-658 316.27,-658 316.27,-658 316.27,-658 412.05,-658 485.86,-658"/>
<polygon fill="#000000" stroke="#000000" points="486.12,-661.5001 496.12,-658 486.12,-654.5001 486.12,-661.5001"/>
<text text-anchor="middle" x="351.77" y="-661.8" font-family="Times,serif" font-size="14.00" fill="#000000">possible new</text>
</g>
<!-- poss new6 -->
<g id="node9" class="node">
<title>poss new6</title>
<ellipse fill="none" stroke="#000000" cx="100.63" cy="-585" rx="80" ry="37.5"/>
<text text-anchor="middle" x="100.63" y="-596.3" font-family="Times,serif" font-size="14.00" fill="#000000">, Examples of the</text>
<text text-anchor="middle" x="100.63" y="-581.3" font-family="Times,serif" font-size="14.00" fill="#000000">former are such</text>
<text text-anchor="middle" x="100.63" y="-566.3" font-family="Times,serif" font-size="14.00" fill="#000000">expressions as</text>
</g>
<!-- poss new5 -->
<g id="node10" class="node">
<title>poss new5</title>
<ellipse fill="none" stroke="#000000" cx="569.79" cy="-585" rx="75" ry="37.5"/>
<text text-anchor="middle" x="569.79" y="-596.3" font-family="Times,serif" font-size="14.00" fill="#000000">Examples of the</text>
<text text-anchor="middle" x="569.79" y="-581.3" font-family="Times,serif" font-size="14.00" fill="#000000">latter are such</text>
<text text-anchor="middle" x="569.79" y="-566.3" font-family="Times,serif" font-size="14.00" fill="#000000">expressions as .</text>
</g>
<!-- poss new6&#45;&gt;poss new5 -->
<g id="edge5" class="edge">
<title>poss new6&#45;&gt;poss new5</title>
<path fill="none" stroke="#000000" d="M180.62,-585C241.99,-585 316.27,-585 316.27,-585 316.27,-585 410.89,-585 484.52,-585"/>
<polygon fill="#000000" stroke="#000000" points="484.76,-588.5001 494.76,-585 484.76,-581.5001 484.76,-588.5001"/>
<text text-anchor="middle" x="351.77" y="-588.8" font-family="Times,serif" font-size="14.00" fill="#000000">possible new</text>
</g>
<!-- poss new8 -->
<g id="node11" class="node">
<title>poss new8</title>
<ellipse fill="none" stroke="#000000" cx="100.63" cy="-370" rx="92.7622" ry="48.1667"/>
<text text-anchor="middle" x="100.63" y="-388.8" font-family="Times,serif" font-size="14.00" fill="#000000">, Examples of the</text>
<text text-anchor="middle" x="100.63" y="-373.8" font-family="Times,serif" font-size="14.00" fill="#000000">former are such</text>
<text text-anchor="middle" x="100.63" y="-358.8" font-family="Times,serif" font-size="14.00" fill="#000000">expressions as Man ,</text>
<text text-anchor="middle" x="100.63" y="-343.8" font-family="Times,serif" font-size="14.00" fill="#000000">Ox , Runs ,</text>
</g>
<!-- poss new8&#45;&gt;contra4 -->
<g id="edge8" class="edge">
<title>poss new8&#45;&gt;contra4</title>
<path fill="none" stroke="#000000" d="M169.92,-338C214.09,-317.59 269.97,-291.78 308.05,-274.19"/>
<polygon fill="#000000" stroke="#000000" points="309.7221,-277.2733 317.34,-269.91 306.793,-270.9156 309.7221,-277.2733"/>
<text text-anchor="middle" x="227.26" y="-318.8" font-family="Times,serif" font-size="14.00" fill="#000000">correl</text>
</g>
<!-- poss new7 -->
<g id="node12" class="node">
<title>poss new7</title>
<ellipse fill="none" stroke="#000000" cx="569.79" cy="-378" rx="90.5193" ry="58.8803"/>
<text text-anchor="middle" x="569.79" y="-404.3" font-family="Times,serif" font-size="14.00" fill="#000000">Examples of the</text>
<text text-anchor="middle" x="569.79" y="-389.3" font-family="Times,serif" font-size="14.00" fill="#000000">latter are such</text>
<text text-anchor="middle" x="569.79" y="-374.3" font-family="Times,serif" font-size="14.00" fill="#000000">expressions as</text>
<text text-anchor="middle" x="569.79" y="-359.3" font-family="Times,serif" font-size="14.00" fill="#000000">Themanruns ,</text>
<text text-anchor="middle" x="569.79" y="-344.3" font-family="Times,serif" font-size="14.00" fill="#000000">Themanwins Wins .</text>
</g>
<!-- poss new8&#45;&gt;poss new7 -->
<g id="edge6" class="edge">
<title>poss new8&#45;&gt;poss new7</title>
<path fill="none" stroke="#000000" d="M193.33,-371.29C251.78,-372.1 316.27,-373 316.27,-373 316.27,-373 398,-374.61 468.65,-376.01"/>
<polygon fill="#000000" stroke="#000000" points="468.9141,-379.5157 478.98,-376.21 469.0497,-372.517 468.9141,-379.5157"/>
<text text-anchor="middle" x="351.77" y="-376.8" font-family="Times,serif" font-size="14.00" fill="#000000">possible new</text>
</g>
<!-- poss new7&#45;&gt;contra3 -->
<g id="edge9" class="edge">
<title>poss new7&#45;&gt;contra3</title>
<path fill="none" stroke="#000000" d="M642.09,-342.3C686.18,-320.53 741.01,-293.46 778.26,-275.07"/>
<polygon fill="#000000" stroke="#000000" points="779.9141,-278.1567 787.33,-270.59 776.8141,-271.8806 779.9141,-278.1567"/>
<text text-anchor="middle" x="694.3" y="-326.8" font-family="Times,serif" font-size="14.00" fill="#000000">correl</text>
</g>
<!-- poss new1 -->
<g id="node13" class="node">
<title>poss new1</title>
<ellipse fill="none" stroke="#000000" cx="100.63" cy="-492" rx="90.5" ry="27"/>
<text text-anchor="middle" x="100.63" y="-495.8" font-family="Times,serif" font-size="14.00" fill="#000000">Forms of speech are</text>
<text text-anchor="middle" x="100.63" y="-480.8" font-family="Times,serif" font-size="14.00" fill="#000000">either .</text>
</g>
<!-- poss new2 -->
<g id="node14" class="node">
<title>poss new2</title>
<ellipse fill="none" stroke="#000000" cx="569.79" cy="-492" rx="90.5" ry="37.5"/>
<text text-anchor="middle" x="569.79" y="-503.3" font-family="Times,serif" font-size="14.00" fill="#000000">Forms of speech are</text>
<text text-anchor="middle" x="569.79" y="-488.3" font-family="Times,serif" font-size="14.00" fill="#000000">either simple or</text>
<text text-anchor="middle" x="569.79" y="-473.3" font-family="Times,serif" font-size="14.00" fill="#000000">composite .</text>
</g>
<!-- poss new1&#45;&gt;poss new2 -->
<g id="edge7" class="edge">
<title>poss new1&#45;&gt;poss new2</title>
<path fill="none" stroke="#000000" d="M191.14,-492C250.16,-492 316.27,-492 316.27,-492 316.27,-492 398,-492 468.65,-492"/>
<polygon fill="#000000" stroke="#000000" points="468.98,-495.5001 478.98,-492 468.98,-488.5001 468.98,-495.5001"/>
<text text-anchor="middle" x="351.77" y="-495.8" font-family="Times,serif" font-size="14.00" fill="#000000">possible new</text>
</g>
</g>
</svg>
