<?xml version="1.0" encoding="UTF-8" standalone="no"?>
<!DOCTYPE svg PUBLIC "-//W3C//DTD SVG 1.1//EN"
 "http://www.w3.org/Graphics/SVG/1.1/DTD/svg11.dtd">
<!-- Generated by graphviz version 2.40.1 (20161225.0304)
 -->
<!-- Pages: 1 -->
<svg width="1112pt" height="299pt"
 viewBox="0.00 0.00 1112.00 299.00" xmlns="http://www.w3.org/2000/svg" xmlns:xlink="http://www.w3.org/1999/xlink">
<g id="graph0" class="graph" transform="scale(1 1) rotate(0) translate(4 295)">
<polygon fill="#ffffff" stroke="transparent" points="-4,4 -4,-295 1108,-295 1108,4 -4,4"/>
<g id="clust1" class="cluster">
<title>cluster2</title>
<polygon fill="#d3d3d3" stroke="#d3d3d3" points="0,-20 0,-291 528.17,-291 528.17,-20 0,-20"/>
<text text-anchor="middle" x="264.08" y="-275.8" font-family="Times,serif" font-size="14.00" fill="#000000">Possible New Correlations</text>
</g>
<g id="clust2" class="cluster">
<title>cluster1</title>
<polygon fill="#d3d3d3" stroke="#d3d3d3" points="642.17,-20 642.17,-113 1104,-113 1104,-20 642.17,-20"/>
<text text-anchor="middle" x="873.08" y="-97.8" font-family="Times,serif" font-size="14.00" fill="#000000">Found Contradictions</text>
</g>
<!-- poss_new17 -->
<g id="node1" class="node">
<title>poss_new17</title>
<ellipse fill="none" stroke="#000000" cx="100.63" cy="-199" rx="87.7537" ry="37.5"/>
<text text-anchor="middle" x="100.63" y="-210.3" font-family="Times,serif" font-size="14.00" fill="#000000">Examples of the</text>
<text text-anchor="middle" x="100.63" y="-195.3" font-family="Times,serif" font-size="14.00" fill="#000000">former are such</text>
<text text-anchor="middle" x="100.63" y="-180.3" font-family="Times,serif" font-size="14.00" fill="#000000">expressions as Man</text>
</g>
<!-- poss_new12 -->
<g id="node2" class="node">
<title>poss_new12</title>
<ellipse fill="none" stroke="#000000" cx="445.22" cy="-212" rx="75" ry="48.1667"/>
<text text-anchor="middle" x="445.22" y="-230.8" font-family="Times,serif" font-size="14.00" fill="#000000">Examples of the</text>
<text text-anchor="middle" x="445.22" y="-215.8" font-family="Times,serif" font-size="14.00" fill="#000000">latter are such</text>
<text text-anchor="middle" x="445.22" y="-200.8" font-family="Times,serif" font-size="14.00" fill="#000000">expressions as</text>
<text text-anchor="middle" x="445.22" y="-185.8" font-family="Times,serif" font-size="14.00" fill="#000000">Themanruns</text>
</g>
<!-- poss_new17&#45;&gt;poss_new12 -->
<g id="edge1" class="edge">
<title>poss_new17&#45;&gt;poss_new12</title>
<path fill="none" stroke="#000000" d="M186.92,-192.32C253.13,-187.2 333.26,-181 333.26,-181 333.26,-181 347.84,-185.04 366.48,-190.2"/>
<polygon fill="#000000" stroke="#000000" points="365.6586,-193.6042 376.23,-192.9 367.5268,-186.8581 365.6586,-193.6042"/>
<text text-anchor="middle" x="281.76" y="-169.8" font-family="Times,serif" font-size="14.00" fill="#000000">possibly correlated</text>
</g>
<!-- poss_new12&#45;&gt;poss_new17 -->
<g id="edge2" class="edge">
<title>poss_new12&#45;&gt;poss_new17</title>
<path fill="none" stroke="#000000" d="M370.04,-213.75C308.05,-215.19 230.26,-217 230.26,-217 230.26,-217 214.62,-214.83 194.21,-211.99"/>
<polygon fill="#000000" stroke="#000000" points="194.5761,-208.5074 184.19,-210.6 193.6142,-215.441 194.5761,-208.5074"/>
<text text-anchor="middle" x="281.76" y="-220.8" font-family="Times,serif" font-size="14.00" fill="#000000">possibly correlated</text>
</g>
<!-- poss_new36 -->
<g id="node3" class="node">
<title>poss_new36</title>
<ellipse fill="none" stroke="#000000" cx="100.63" cy="-76" rx="92.7622" ry="48.1667"/>
<text text-anchor="middle" x="100.63" y="-94.8" font-family="Times,serif" font-size="14.00" fill="#000000">Examples of the</text>
<text text-anchor="middle" x="100.63" y="-79.8" font-family="Times,serif" font-size="14.00" fill="#000000">former are such</text>
<text text-anchor="middle" x="100.63" y="-64.8" font-family="Times,serif" font-size="14.00" fill="#000000">expressions as Man ,</text>
<text text-anchor="middle" x="100.63" y="-49.8" font-family="Times,serif" font-size="14.00" fill="#000000">Ox , Runs , Wins</text>
</g>
<!-- poss_new37 -->
<g id="node4" class="node">
<title>poss_new37</title>
<ellipse fill="none" stroke="#000000" cx="445.22" cy="-87" rx="75" ry="58.8803"/>
<text text-anchor="middle" x="445.22" y="-113.3" font-family="Times,serif" font-size="14.00" fill="#000000">Examples of the</text>
<text text-anchor="middle" x="445.22" y="-98.3" font-family="Times,serif" font-size="14.00" fill="#000000">latter are such</text>
<text text-anchor="middle" x="445.22" y="-83.3" font-family="Times,serif" font-size="14.00" fill="#000000">expressions as</text>
<text text-anchor="middle" x="445.22" y="-68.3" font-family="Times,serif" font-size="14.00" fill="#000000">Themanruns ,</text>
<text text-anchor="middle" x="445.22" y="-53.3" font-family="Times,serif" font-size="14.00" fill="#000000">Themanwins , .</text>
</g>
<!-- poss_new36&#45;&gt;poss_new37 -->
<g id="edge3" class="edge">
<title>poss_new36&#45;&gt;poss_new37</title>
<path fill="none" stroke="#000000" d="M193.24,-74.806C258.11,-73.969 333.26,-73 333.26,-73 333.26,-73 344.98,-74.465 360.83,-76.447"/>
<polygon fill="#000000" stroke="#000000" points="360.8027,-79.9708 371.16,-77.74 361.6722,-73.025 360.8027,-79.9708"/>
<text text-anchor="middle" x="281.76" y="-61.8" font-family="Times,serif" font-size="14.00" fill="#000000">possibly correlated</text>
</g>
<!-- contra32 -->
<g id="node6" class="node">
<title>contra32</title>
<ellipse fill="none" stroke="#000000" cx="1021" cy="-55" rx="75" ry="27"/>
<text text-anchor="middle" x="1021" y="-58.8" font-family="Times,serif" font-size="14.00" fill="#000000">Examples of the</text>
<text text-anchor="middle" x="1021" y="-43.8" font-family="Times,serif" font-size="14.00" fill="#000000">latter</text>
</g>
<!-- poss_new36&#45;&gt;contra32 -->
<g id="edge6" class="edge">
<title>poss_new36&#45;&gt;contra32</title>
<path fill="none" stroke="#000000" d="M191.1,-65.618C342.83,-48.205 632.17,-15 632.17,-15 632.17,-15 824.55,-34.79 938.69,-46.53"/>
<polygon fill="#000000" stroke="#000000" points="938.4943,-50.0283 948.8,-47.57 939.2107,-43.065 938.4943,-50.0283"/>
<text text-anchor="middle" x="585.17" y="-3.8" font-family="Times,serif" font-size="14.00" fill="#000000">found correlation</text>
</g>
<!-- poss_new37&#45;&gt;poss_new36 -->
<g id="edge4" class="edge">
<title>poss_new37&#45;&gt;poss_new36</title>
<path fill="none" stroke="#000000" d="M370.64,-94.633C308.55,-100.99 230.26,-109 230.26,-109 230.26,-109 214.33,-104.94 193.63,-99.675"/>
<polygon fill="#000000" stroke="#000000" points="194.3845,-96.2555 183.83,-97.179 192.6568,-103.0389 194.3845,-96.2555"/>
<text text-anchor="middle" x="281.76" y="-112.8" font-family="Times,serif" font-size="14.00" fill="#000000">possibly correlated</text>
</g>
<!-- contra34 -->
<g id="node5" class="node">
<title>contra34</title>
<ellipse fill="none" stroke="#000000" cx="725.12" cy="-55" rx="75" ry="27"/>
<text text-anchor="middle" x="725.12" y="-58.8" font-family="Times,serif" font-size="14.00" fill="#000000">Examples of the</text>
<text text-anchor="middle" x="725.12" y="-43.8" font-family="Times,serif" font-size="14.00" fill="#000000">former</text>
</g>
<!-- poss_new37&#45;&gt;contra34 -->
<g id="edge7" class="edge">
<title>poss_new37&#45;&gt;contra34</title>
<path fill="none" stroke="#000000" d="M519.49,-78.509C557.55,-74.157 603.99,-68.848 643.1,-64.377"/>
<polygon fill="#000000" stroke="#000000" points="643.8625,-67.8127 653.4,-63.199 643.067,-60.858 643.8625,-67.8127"/>
<text text-anchor="middle" x="585.17" y="-78.8" font-family="Times,serif" font-size="14.00" fill="#000000">now opposed</text>
</g>
<!-- contra34&#45;&gt;contra32 -->
<g id="edge5" class="edge">
<title>contra34&#45;&gt;contra32</title>
<path fill="none" stroke="#000000" d="M800.11,-55C820.5,-55 837.08,-55 837.08,-55 837.08,-55 887.63,-55 935.73,-55"/>
<polygon fill="#000000" stroke="#000000" points="935.94,-58.5001 945.94,-55 935.94,-51.5001 935.94,-58.5001"/>
<text text-anchor="middle" x="873.08" y="-58.8" font-family="Times,serif" font-size="14.00" fill="#000000">contradicting</text>
</g>
</g>
</svg>
