<?xml version="1.0" encoding="UTF-8" standalone="no"?>
<!DOCTYPE svg PUBLIC "-//W3C//DTD SVG 1.1//EN"
 "http://www.w3.org/Graphics/SVG/1.1/DTD/svg11.dtd">
<!-- Generated by graphviz version 2.40.1 (20161225.0304)
 -->
<!-- Pages: 1 -->
<svg width="1079pt" height="279pt"
 viewBox="0.00 0.00 1079.00 279.00" xmlns="http://www.w3.org/2000/svg" xmlns:xlink="http://www.w3.org/1999/xlink">
<g id="graph0" class="graph" transform="scale(1 1) rotate(0) translate(4 275)">
<polygon fill="#ffffff" stroke="transparent" points="-4,4 -4,-275 1075,-275 1075,4 -4,4"/>
<g id="clust1" class="cluster">
<title>cluster1</title>
<polygon fill="#d3d3d3" stroke="#d3d3d3" points="0,-51 0,-144 461.81,-144 461.81,-51 0,-51"/>
<text text-anchor="middle" x="230.91" y="-128.8" font-family="Times,serif" font-size="14.00" fill="#000000">Found Contradictions</text>
</g>
<g id="clust2" class="cluster">
<title>cluster2</title>
<polygon fill="#d3d3d3" stroke="#d3d3d3" points="542.81,0 542.81,-271 1071,-271 1071,0 542.81,0"/>
<text text-anchor="middle" x="806.9" y="-255.8" font-family="Times,serif" font-size="14.00" fill="#000000">Possible New Correlations</text>
</g>
<!-- contra34 -->
<g id="node1" class="node">
<title>contra34</title>
<ellipse fill="none" stroke="#000000" cx="82.953" cy="-86" rx="75" ry="27"/>
<text text-anchor="middle" x="82.953" y="-89.8" font-family="Times,serif" font-size="14.00" fill="#000000">Examples of the</text>
<text text-anchor="middle" x="82.953" y="-74.8" font-family="Times,serif" font-size="14.00" fill="#000000">former</text>
</g>
<!-- contra32 -->
<g id="node2" class="node">
<title>contra32</title>
<ellipse fill="none" stroke="#000000" cx="378.86" cy="-86" rx="75" ry="27"/>
<text text-anchor="middle" x="378.86" y="-89.8" font-family="Times,serif" font-size="14.00" fill="#000000">Examples of the</text>
<text text-anchor="middle" x="378.86" y="-74.8" font-family="Times,serif" font-size="14.00" fill="#000000">latter</text>
</g>
<!-- contra34&#45;&gt;contra32 -->
<g id="edge1" class="edge">
<title>contra34&#45;&gt;contra32</title>
<path fill="none" stroke="#000000" d="M157.94,-86C178.33,-86 194.91,-86 194.91,-86 194.91,-86 245.46,-86 293.57,-86"/>
<polygon fill="#000000" stroke="#000000" points="293.77,-89.5001 303.77,-86 293.77,-82.5001 293.77,-89.5001"/>
<text text-anchor="middle" x="230.91" y="-89.8" font-family="Times,serif" font-size="14.00" fill="#000000">contradicting</text>
</g>
<!-- poss_new37 -->
<g id="node6" class="node">
<title>poss_new37</title>
<ellipse fill="none" stroke="#000000" cx="988.03" cy="-67" rx="75" ry="58.8803"/>
<text text-anchor="middle" x="988.03" y="-93.3" font-family="Times,serif" font-size="14.00" fill="#000000">Examples of the</text>
<text text-anchor="middle" x="988.03" y="-78.3" font-family="Times,serif" font-size="14.00" fill="#000000">latter are such</text>
<text text-anchor="middle" x="988.03" y="-63.3" font-family="Times,serif" font-size="14.00" fill="#000000">expressions as</text>
<text text-anchor="middle" x="988.03" y="-48.3" font-family="Times,serif" font-size="14.00" fill="#000000">Themanruns ,</text>
<text text-anchor="middle" x="988.03" y="-33.3" font-family="Times,serif" font-size="14.00" fill="#000000">Themanwins , .</text>
</g>
<!-- contra34&#45;&gt;poss_new37 -->
<g id="edge6" class="edge">
<title>contra34&#45;&gt;poss_new37</title>
<path fill="none" stroke="#000000" d="M154.73,-78.022C281.74,-63.906 532.81,-36 532.81,-36 532.81,-36 771.31,-52.241 903.04,-61.212"/>
<polygon fill="#000000" stroke="#000000" points="902.8952,-64.7102 913.11,-61.898 903.371,-57.7263 902.8952,-64.7102"/>
<text text-anchor="middle" x="502.31" y="-24.8" font-family="Times,serif" font-size="14.00" fill="#000000">*correlated</text>
</g>
<!-- poss_new36 -->
<g id="node5" class="node">
<title>poss_new36</title>
<ellipse fill="none" stroke="#000000" cx="643.44" cy="-97" rx="92.7622" ry="48.1667"/>
<text text-anchor="middle" x="643.44" y="-115.8" font-family="Times,serif" font-size="14.00" fill="#000000">Examples of the</text>
<text text-anchor="middle" x="643.44" y="-100.8" font-family="Times,serif" font-size="14.00" fill="#000000">former are such</text>
<text text-anchor="middle" x="643.44" y="-85.8" font-family="Times,serif" font-size="14.00" fill="#000000">expressions as Man ,</text>
<text text-anchor="middle" x="643.44" y="-70.8" font-family="Times,serif" font-size="14.00" fill="#000000">Ox , Runs , Wins</text>
</g>
<!-- contra32&#45;&gt;poss_new36 -->
<g id="edge7" class="edge">
<title>contra32&#45;&gt;poss_new36</title>
<path fill="none" stroke="#000000" d="M453.62,-89.108C480.68,-90.233 511.74,-91.524 540.79,-92.73"/>
<polygon fill="#000000" stroke="#000000" points="540.8312,-96.2348 550.97,-93.16 541.1266,-89.241 540.8312,-96.2348"/>
<text text-anchor="middle" x="502.31" y="-95.8" font-family="Times,serif" font-size="14.00" fill="#000000">*correlated</text>
</g>
<!-- poss_new17 -->
<g id="node3" class="node">
<title>poss_new17</title>
<ellipse fill="none" stroke="#000000" cx="643.44" cy="-202" rx="87.7537" ry="37.5"/>
<text text-anchor="middle" x="643.44" y="-213.3" font-family="Times,serif" font-size="14.00" fill="#000000">Examples of the</text>
<text text-anchor="middle" x="643.44" y="-198.3" font-family="Times,serif" font-size="14.00" fill="#000000">former are such</text>
<text text-anchor="middle" x="643.44" y="-183.3" font-family="Times,serif" font-size="14.00" fill="#000000">expressions as Man</text>
</g>
<!-- poss_new12 -->
<g id="node4" class="node">
<title>poss_new12</title>
<ellipse fill="none" stroke="#000000" cx="988.03" cy="-192" rx="75" ry="48.1667"/>
<text text-anchor="middle" x="988.03" y="-210.8" font-family="Times,serif" font-size="14.00" fill="#000000">Examples of the</text>
<text text-anchor="middle" x="988.03" y="-195.8" font-family="Times,serif" font-size="14.00" fill="#000000">latter are such</text>
<text text-anchor="middle" x="988.03" y="-180.8" font-family="Times,serif" font-size="14.00" fill="#000000">expressions as</text>
<text text-anchor="middle" x="988.03" y="-165.8" font-family="Times,serif" font-size="14.00" fill="#000000">Themanruns</text>
</g>
<!-- poss_new17&#45;&gt;poss_new12 -->
<g id="edge2" class="edge">
<title>poss_new17&#45;&gt;poss_new12</title>
<path fill="none" stroke="#000000" d="M730.07,-196.04C796.21,-191.49 876.08,-186 876.08,-186 876.08,-186 887.44,-186.61 902.93,-187.44"/>
<polygon fill="#000000" stroke="#000000" points="902.8675,-190.9416 913.04,-187.98 903.2409,-183.9515 902.8675,-190.9416"/>
<text text-anchor="middle" x="824.58" y="-174.8" font-family="Times,serif" font-size="14.00" fill="#000000">possibly correlated</text>
</g>
<!-- poss_new12&#45;&gt;poss_new17 -->
<g id="edge3" class="edge">
<title>poss_new12&#45;&gt;poss_new17</title>
<path fill="none" stroke="#000000" d="M914.66,-202.24C852.38,-210.93 773.08,-222 773.08,-222 773.08,-222 757.13,-219.54 736.43,-216.35"/>
<polygon fill="#000000" stroke="#000000" points="736.6975,-212.8498 726.28,-214.78 735.6274,-219.7676 736.6975,-212.8498"/>
<text text-anchor="middle" x="824.58" y="-225.8" font-family="Times,serif" font-size="14.00" fill="#000000">possibly correlated</text>
</g>
<!-- poss_new36&#45;&gt;poss_new37 -->
<g id="edge4" class="edge">
<title>poss_new36&#45;&gt;poss_new37</title>
<path fill="none" stroke="#000000" d="M735.2,-90.355C790.6,-86.343 850.58,-82 850.58,-82 850.58,-82 875.15,-79.319 903.51,-76.223"/>
<polygon fill="#000000" stroke="#000000" points="904.1084,-79.6786 913.67,-75.115 903.3495,-72.7198 904.1084,-79.6786"/>
<text text-anchor="middle" x="824.58" y="-70.8" font-family="Times,serif" font-size="14.00" fill="#000000">*opposed</text>
</g>
<!-- poss_new37&#45;&gt;poss_new36 -->
<g id="edge5" class="edge">
<title>poss_new37&#45;&gt;poss_new36</title>
<path fill="none" stroke="#000000" d="M916.94,-86.136C863.19,-100.61 798.58,-118 798.58,-118 798.58,-118 773.31,-114.58 743.17,-110.5"/>
<polygon fill="#000000" stroke="#000000" points="743.6204,-107.0291 733.24,-109.15 742.6773,-113.9653 743.6204,-107.0291"/>
<text text-anchor="middle" x="824.58" y="-121.8" font-family="Times,serif" font-size="14.00" fill="#000000">*opposed</text>
</g>
</g>
</svg>
