<?xml version="1.0" encoding="UTF-8" standalone="no"?>
<!DOCTYPE svg PUBLIC "-//W3C//DTD SVG 1.1//EN"
 "http://www.w3.org/Graphics/SVG/1.1/DTD/svg11.dtd">
<!-- Generated by graphviz version 2.40.1 (20161225.0304)
 -->
<!-- Pages: 1 -->
<svg width="987pt" height="284pt"
 viewBox="0.00 0.00 987.09 284.00" xmlns="http://www.w3.org/2000/svg" xmlns:xlink="http://www.w3.org/1999/xlink">
<g id="graph0" class="graph" transform="scale(1 1) rotate(0) translate(4 280)">
<polygon fill="#ffffff" stroke="transparent" points="-4,4 -4,-280 983.09,-280 983.09,4 -4,4"/>
<!-- 34 -->
<g id="node1" class="node">
<title>34</title>
<ellipse fill="none" stroke="#000000" cx="217" cy="-23" rx="95.5831" ry="18"/>
<text text-anchor="middle" x="217" y="-19.3" font-family="Times,serif" font-size="14.00" fill="#000000">Examples of the former</text>
</g>
<!-- 32 -->
<g id="node2" class="node">
<title>32</title>
<ellipse fill="none" stroke="#000000" cx="789.59" cy="-18" rx="89.0842" ry="18"/>
<text text-anchor="middle" x="789.59" y="-14.3" font-family="Times,serif" font-size="14.00" fill="#000000">Examples of the latter</text>
</g>
<!-- 34&#45;&gt;32 -->
<g id="edge1" class="edge">
<title>34&#45;&gt;32</title>
<path fill="none" stroke="#000000" d="M312.52,-22.166C417.16,-21.252 584.22,-19.793 690.33,-18.867"/>
<polygon fill="#000000" stroke="#000000" points="690.431,-22.3663 700.4,-18.779 690.3698,-15.3666 690.431,-22.3663"/>
<text text-anchor="middle" x="517.08" y="-24.8" font-family="Times,serif" font-size="14.00" fill="#000000">contradiction *antonym</text>
</g>
<!-- 32&#45;&gt;34 -->
<g id="edge2" class="edge">
<title>32&#45;&gt;34</title>
<path fill="none" stroke="#000000" d="M700.4,-18.779C598.36,-19.67 431.38,-21.128 322.84,-22.076"/>
<polygon fill="#000000" stroke="#000000" points="322.4891,-18.5788 312.52,-22.166 322.5502,-25.5786 322.4891,-18.5788"/>
<text text-anchor="middle" x="517.08" y="-4.8" font-family="Times,serif" font-size="14.00" fill="#000000">contradiction *antonym</text>
</g>
<!-- 17 -->
<g id="node3" class="node">
<title>17</title>
<ellipse fill="none" stroke="#000000" cx="217" cy="-88" rx="199.5646" ry="18"/>
<text text-anchor="middle" x="217" y="-84.3" font-family="Times,serif" font-size="14.00" fill="#000000">Examples of the former are such expressions as Man</text>
</g>
<!-- 12 -->
<g id="node4" class="node">
<title>12</title>
<ellipse fill="none" stroke="#000000" cx="789.59" cy="-93" rx="189.5" ry="27"/>
<text text-anchor="middle" x="789.59" y="-96.8" font-family="Times,serif" font-size="14.00" fill="#000000">Examples of the latter are such expressions as</text>
<text text-anchor="middle" x="789.59" y="-81.8" font-family="Times,serif" font-size="14.00" fill="#000000">Themanruns</text>
</g>
<!-- 17&#45;&gt;12 -->
<g id="edge3" class="edge">
<title>17&#45;&gt;12</title>
<path fill="none" stroke="#000000" d="M415.66,-89.735C472.18,-90.228 533.75,-90.766 590.31,-91.26"/>
<polygon fill="#000000" stroke="#000000" points="590.4099,-94.7609 600.44,-91.348 590.4708,-87.7612 590.4099,-94.7609"/>
<text text-anchor="middle" x="517.08" y="-101.8" font-family="Times,serif" font-size="14.00" fill="#000000">contradiction *antonym</text>
</g>
<!-- 12&#45;&gt;17 -->
<g id="edge4" class="edge">
<title>12&#45;&gt;17</title>
<path fill="none" stroke="#000000" d="M600.44,-91.348C544.52,-90.86 482.98,-90.323 425.89,-89.824"/>
<polygon fill="#000000" stroke="#000000" points="425.6901,-86.3222 415.66,-89.735 425.6291,-93.322 425.6901,-86.3222"/>
<text text-anchor="middle" x="517.08" y="-82.8" font-family="Times,serif" font-size="14.00" fill="#000000">contradiction *antonym</text>
</g>
<!-- 36 -->
<g id="node5" class="node">
<title>36</title>
<ellipse fill="none" stroke="#000000" cx="217" cy="-177" rx="217" ry="27"/>
<text text-anchor="middle" x="217" y="-180.8" font-family="Times,serif" font-size="14.00" fill="#000000">Examples of the former are such expressions as Man</text>
<text text-anchor="middle" x="217" y="-165.8" font-family="Times,serif" font-size="14.00" fill="#000000">, Ox , Runs , Wins</text>
</g>
<!-- 37 -->
<g id="node6" class="node">
<title>37</title>
<ellipse fill="none" stroke="#000000" cx="789.59" cy="-177" rx="189.5" ry="27"/>
<text text-anchor="middle" x="789.59" y="-180.8" font-family="Times,serif" font-size="14.00" fill="#000000">Examples of the latter are such expressions as</text>
<text text-anchor="middle" x="789.59" y="-165.8" font-family="Times,serif" font-size="14.00" fill="#000000">Themanruns , Themanwins , .</text>
</g>
<!-- 36&#45;&gt;37 -->
<g id="edge5" class="edge">
<title>36&#45;&gt;37</title>
<path fill="none" stroke="#000000" d="M434.29,-177C485.2,-177 539.2,-177 589.33,-177"/>
<polygon fill="#000000" stroke="#000000" points="589.63,-180.5001 599.63,-177 589.63,-173.5001 589.63,-180.5001"/>
<text text-anchor="middle" x="517.08" y="-180.8" font-family="Times,serif" font-size="14.00" fill="#000000">contradiction *antonym</text>
</g>
<!-- 37&#45;&gt;36 -->
<g id="edge6" class="edge">
<title>37&#45;&gt;36</title>
<path fill="none" stroke="#000000" d="M599.63,-177C549.97,-177 495.93,-177 444.53,-177"/>
<polygon fill="#000000" stroke="#000000" points="444.29,-173.5001 434.29,-177 444.29,-180.5001 444.29,-173.5001"/>
<text text-anchor="middle" x="517.08" y="-161.8" font-family="Times,serif" font-size="14.00" fill="#000000">contradiction *antonym</text>
</g>
<!-- 53 -->
<g id="node7" class="node">
<title>53</title>
<ellipse fill="none" stroke="#000000" cx="217" cy="-249" rx="191" ry="27"/>
<text text-anchor="middle" x="217" y="-252.8" font-family="Times,serif" font-size="14.00" fill="#000000">Of things themselves some are predicable of a</text>
<text text-anchor="middle" x="217" y="-237.8" font-family="Times,serif" font-size="14.00" fill="#000000">subject , and are never present in a subject .</text>
</g>
</g>
</svg>
