<?xml version="1.0" encoding="UTF-8" standalone="no"?>
<!DOCTYPE svg PUBLIC "-//W3C//DTD SVG 1.1//EN"
 "http://www.w3.org/Graphics/SVG/1.1/DTD/svg11.dtd">
<!-- Generated by graphviz version 2.40.1 (20161225.0304)
 -->
<!-- Pages: 1 -->
<svg width="872pt" height="315pt"
 viewBox="0.00 0.00 872.02 315.00" xmlns="http://www.w3.org/2000/svg" xmlns:xlink="http://www.w3.org/1999/xlink">
<g id="graph0" class="graph" transform="scale(1 1) rotate(0) translate(4 311)">
<polygon fill="#ffffff" stroke="transparent" points="-4,4 -4,-311 868.02,-311 868.02,4 -4,4"/>
<!-- 0 -->
<g id="node1" class="node">
<title>0</title>
<ellipse fill="none" stroke="#000000" cx="217" cy="-19" rx="132" ry="18"/>
<text text-anchor="middle" x="217" y="-15.3" font-family="Times,serif" font-size="14.00" fill="#000000">Forms of speech are either simple</text>
</g>
<!-- 3 -->
<g id="node2" class="node">
<title>3</title>
<ellipse fill="none" stroke="#000000" cx="732.02" cy="-19" rx="132" ry="18"/>
<text text-anchor="middle" x="732.02" y="-15.3" font-family="Times,serif" font-size="14.00" fill="#000000">Forms of speech are or composite</text>
</g>
<!-- 0&#45;&gt;3 -->
<g id="edge1" class="edge">
<title>0&#45;&gt;3</title>
<path fill="none" stroke="#000000" d="M348.96,-19C422.69,-19 514.61,-19 589.92,-19"/>
<polygon fill="#000000" stroke="#000000" points="589.96,-22.5001 599.96,-19 589.96,-15.5001 589.96,-22.5001"/>
<text text-anchor="middle" x="517.08" y="-22.8" font-family="Times,serif" font-size="14.00" fill="#000000">contradiction *antonym</text>
</g>
<!-- 3&#45;&gt;0 -->
<g id="edge2" class="edge">
<title>3&#45;&gt;0</title>
<path fill="none" stroke="#000000" d="M599.96,-19C526.21,-19 434.3,-19 359,-19"/>
<polygon fill="#000000" stroke="#000000" points="358.96,-15.5001 348.96,-19 358.96,-22.5001 358.96,-15.5001"/>
<text text-anchor="middle" x="517.08" y="-3.8" font-family="Times,serif" font-size="14.00" fill="#000000">contradiction *antonym</text>
</g>
<!-- 11 -->
<g id="node3" class="node">
<title>11</title>
<ellipse fill="none" stroke="#000000" cx="217" cy="-73" rx="185.4674" ry="18"/>
<text text-anchor="middle" x="217" y="-69.3" font-family="Times,serif" font-size="14.00" fill="#000000">Forms of speech are either simple or composite .</text>
</g>
<!-- 36 -->
<g id="node4" class="node">
<title>36</title>
<ellipse fill="none" stroke="#000000" cx="217" cy="-136" rx="217" ry="27"/>
<text text-anchor="middle" x="217" y="-139.8" font-family="Times,serif" font-size="14.00" fill="#000000">Examples of the former are such expressions as Man</text>
<text text-anchor="middle" x="217" y="-124.8" font-family="Times,serif" font-size="14.00" fill="#000000">, Ox , Runs , Wins</text>
</g>
<!-- 37 -->
<g id="node5" class="node">
<title>37</title>
<ellipse fill="none" stroke="#000000" cx="217" cy="-208" rx="189.5" ry="27"/>
<text text-anchor="middle" x="217" y="-211.8" font-family="Times,serif" font-size="14.00" fill="#000000">Examples of the latter are such expressions as</text>
<text text-anchor="middle" x="217" y="-196.8" font-family="Times,serif" font-size="14.00" fill="#000000">Themanruns , Themanwins , .</text>
</g>
<!-- 53 -->
<g id="node6" class="node">
<title>53</title>
<ellipse fill="none" stroke="#000000" cx="217" cy="-280" rx="191" ry="27"/>
<text text-anchor="middle" x="217" y="-283.8" font-family="Times,serif" font-size="14.00" fill="#000000">Of things themselves some are predicable of a</text>
<text text-anchor="middle" x="217" y="-268.8" font-family="Times,serif" font-size="14.00" fill="#000000">subject , and are never present in a subject .</text>
</g>
</g>
</svg>
