<?xml version="1.0" encoding="UTF-8" standalone="no"?>
<!DOCTYPE svg PUBLIC "-//W3C//DTD SVG 1.1//EN"
 "http://www.w3.org/Graphics/SVG/1.1/DTD/svg11.dtd">
<!-- Generated by graphviz version 2.40.1 (20161225.0304)
 -->
<!-- Pages: 1 -->
<svg width="1137pt" height="299pt"
 viewBox="0.00 0.00 1137.40 299.00" xmlns="http://www.w3.org/2000/svg" xmlns:xlink="http://www.w3.org/1999/xlink">
<g id="graph0" class="graph" transform="scale(1 1) rotate(0) translate(4 295)">
<polygon fill="#ffffff" stroke="transparent" points="-4,4 -4,-295 1133.4,-295 1133.4,4 -4,4"/>
<g id="clust1" class="cluster">
<title>cluster1</title>
<polygon fill="#d3d3d3" stroke="#d3d3d3" points="642.17,-11 642.17,-146 1129.4,-146 1129.4,-11 642.17,-11"/>
<text text-anchor="middle" x="885.8" y="-130.8" font-family="Times,serif" font-size="14.00" fill="#000000">Found Contradictions</text>
</g>
<g id="clust2" class="cluster">
<title>cluster2</title>
<polygon fill="#d3d3d3" stroke="#d3d3d3" points="0,-20 0,-291 528.17,-291 528.17,-20 0,-20"/>
<text text-anchor="middle" x="264.08" y="-275.8" font-family="Times,serif" font-size="14.00" fill="#000000">Possible New Correlations</text>
</g>
<!-- contra17 -->
<g id="node1" class="node">
<title>contra17</title>
<ellipse fill="none" stroke="#000000" cx="737.85" cy="-73" rx="87.7537" ry="37.5"/>
<text text-anchor="middle" x="737.85" y="-84.3" font-family="Times,serif" font-size="14.00" fill="#000000">Examples of the</text>
<text text-anchor="middle" x="737.85" y="-69.3" font-family="Times,serif" font-size="14.00" fill="#000000">former are such</text>
<text text-anchor="middle" x="737.85" y="-54.3" font-family="Times,serif" font-size="14.00" fill="#000000">expressions as Man</text>
</g>
<!-- contra12 -->
<g id="node2" class="node">
<title>contra12</title>
<ellipse fill="none" stroke="#000000" cx="1046.5" cy="-67" rx="75" ry="48.1667"/>
<text text-anchor="middle" x="1046.5" y="-85.8" font-family="Times,serif" font-size="14.00" fill="#000000">Examples of the</text>
<text text-anchor="middle" x="1046.5" y="-70.8" font-family="Times,serif" font-size="14.00" fill="#000000">latter are such</text>
<text text-anchor="middle" x="1046.5" y="-55.8" font-family="Times,serif" font-size="14.00" fill="#000000">expressions as</text>
<text text-anchor="middle" x="1046.5" y="-40.8" font-family="Times,serif" font-size="14.00" fill="#000000">Themanruns</text>
</g>
<!-- contra17&#45;&gt;contra12 -->
<g id="edge1" class="edge">
<title>contra17&#45;&gt;contra12</title>
<path fill="none" stroke="#000000" d="M825.46,-70.892C846.25,-70.392 862.53,-70 862.53,-70 862.53,-70 913.09,-69.176 961.19,-68.391"/>
<polygon fill="#000000" stroke="#000000" points="961.4583,-71.8872 971.4,-68.225 961.3444,-64.8881 961.4583,-71.8872"/>
<text text-anchor="middle" x="898.53" y="-73.8" font-family="Times,serif" font-size="14.00" fill="#000000">contradicting</text>
</g>
<!-- poss_new17 -->
<g id="node3" class="node">
<title>poss_new17</title>
<ellipse fill="none" stroke="#000000" cx="100.63" cy="-199" rx="87.7537" ry="37.5"/>
<text text-anchor="middle" x="100.63" y="-210.3" font-family="Times,serif" font-size="14.00" fill="#000000">Examples of the</text>
<text text-anchor="middle" x="100.63" y="-195.3" font-family="Times,serif" font-size="14.00" fill="#000000">former are such</text>
<text text-anchor="middle" x="100.63" y="-180.3" font-family="Times,serif" font-size="14.00" fill="#000000">expressions as Man</text>
</g>
<!-- poss_new12 -->
<g id="node4" class="node">
<title>poss_new12</title>
<ellipse fill="none" stroke="#000000" cx="445.22" cy="-212" rx="75" ry="48.1667"/>
<text text-anchor="middle" x="445.22" y="-230.8" font-family="Times,serif" font-size="14.00" fill="#000000">Examples of the</text>
<text text-anchor="middle" x="445.22" y="-215.8" font-family="Times,serif" font-size="14.00" fill="#000000">latter are such</text>
<text text-anchor="middle" x="445.22" y="-200.8" font-family="Times,serif" font-size="14.00" fill="#000000">expressions as</text>
<text text-anchor="middle" x="445.22" y="-185.8" font-family="Times,serif" font-size="14.00" fill="#000000">Themanruns</text>
</g>
<!-- poss_new17&#45;&gt;poss_new12 -->
<g id="edge2" class="edge">
<title>poss_new17&#45;&gt;poss_new12</title>
<path fill="none" stroke="#000000" d="M186.92,-192.32C253.13,-187.2 333.26,-181 333.26,-181 333.26,-181 347.84,-185.04 366.48,-190.2"/>
<polygon fill="#000000" stroke="#000000" points="365.6586,-193.6042 376.23,-192.9 367.5268,-186.8581 365.6586,-193.6042"/>
<text text-anchor="middle" x="281.76" y="-169.8" font-family="Times,serif" font-size="14.00" fill="#000000">possibly correlated</text>
</g>
<!-- poss_new12&#45;&gt;poss_new17 -->
<g id="edge3" class="edge">
<title>poss_new12&#45;&gt;poss_new17</title>
<path fill="none" stroke="#000000" d="M370.04,-213.75C308.05,-215.19 230.26,-217 230.26,-217 230.26,-217 214.62,-214.83 194.21,-211.99"/>
<polygon fill="#000000" stroke="#000000" points="194.5761,-208.5074 184.19,-210.6 193.6142,-215.441 194.5761,-208.5074"/>
<text text-anchor="middle" x="281.76" y="-220.8" font-family="Times,serif" font-size="14.00" fill="#000000">possibly correlated</text>
</g>
<!-- poss_new36 -->
<g id="node5" class="node">
<title>poss_new36</title>
<ellipse fill="none" stroke="#000000" cx="100.63" cy="-76" rx="92.7622" ry="48.1667"/>
<text text-anchor="middle" x="100.63" y="-94.8" font-family="Times,serif" font-size="14.00" fill="#000000">Examples of the</text>
<text text-anchor="middle" x="100.63" y="-79.8" font-family="Times,serif" font-size="14.00" fill="#000000">former are such</text>
<text text-anchor="middle" x="100.63" y="-64.8" font-family="Times,serif" font-size="14.00" fill="#000000">expressions as Man ,</text>
<text text-anchor="middle" x="100.63" y="-49.8" font-family="Times,serif" font-size="14.00" fill="#000000">Ox , Runs , Wins</text>
</g>
<!-- poss_new36&#45;&gt;contra12 -->
<g id="edge6" class="edge">
<title>poss_new36&#45;&gt;contra12</title>
<path fill="none" stroke="#000000" d="M191.1,-65.618C342.83,-48.205 632.17,-15 632.17,-15 632.17,-15 841.88,-41.32 962.9,-56.51"/>
<polygon fill="#000000" stroke="#000000" points="962.5321,-59.9912 972.89,-57.763 963.4033,-53.0456 962.5321,-59.9912"/>
<text text-anchor="middle" x="585.17" y="-3.8" font-family="Times,serif" font-size="14.00" fill="#000000">found correlation</text>
</g>
<!-- poss_new37 -->
<g id="node6" class="node">
<title>poss_new37</title>
<ellipse fill="none" stroke="#000000" cx="445.22" cy="-87" rx="75" ry="58.8803"/>
<text text-anchor="middle" x="445.22" y="-113.3" font-family="Times,serif" font-size="14.00" fill="#000000">Examples of the</text>
<text text-anchor="middle" x="445.22" y="-98.3" font-family="Times,serif" font-size="14.00" fill="#000000">latter are such</text>
<text text-anchor="middle" x="445.22" y="-83.3" font-family="Times,serif" font-size="14.00" fill="#000000">expressions as</text>
<text text-anchor="middle" x="445.22" y="-68.3" font-family="Times,serif" font-size="14.00" fill="#000000">Themanruns ,</text>
<text text-anchor="middle" x="445.22" y="-53.3" font-family="Times,serif" font-size="14.00" fill="#000000">Themanwins , .</text>
</g>
<!-- poss_new36&#45;&gt;poss_new37 -->
<g id="edge4" class="edge">
<title>poss_new36&#45;&gt;poss_new37</title>
<path fill="none" stroke="#000000" d="M193.24,-74.806C258.11,-73.969 333.26,-73 333.26,-73 333.26,-73 344.98,-74.465 360.83,-76.447"/>
<polygon fill="#000000" stroke="#000000" points="360.8027,-79.9708 371.16,-77.74 361.6722,-73.025 360.8027,-79.9708"/>
<text text-anchor="middle" x="281.76" y="-61.8" font-family="Times,serif" font-size="14.00" fill="#000000">possibly correlated</text>
</g>
<!-- poss_new37&#45;&gt;contra17 -->
<g id="edge7" class="edge">
<title>poss_new37&#45;&gt;contra17</title>
<path fill="none" stroke="#000000" d="M520.2,-83.413C556.73,-81.665 601.11,-79.542 640.25,-77.669"/>
<polygon fill="#000000" stroke="#000000" points="640.7885,-81.1474 650.61,-77.174 640.4543,-74.1553 640.7885,-81.1474"/>
<text text-anchor="middle" x="585.17" y="-85.8" font-family="Times,serif" font-size="14.00" fill="#000000">now opposed</text>
</g>
<!-- poss_new37&#45;&gt;poss_new36 -->
<g id="edge5" class="edge">
<title>poss_new37&#45;&gt;poss_new36</title>
<path fill="none" stroke="#000000" d="M370.64,-94.633C308.55,-100.99 230.26,-109 230.26,-109 230.26,-109 214.33,-104.94 193.63,-99.675"/>
<polygon fill="#000000" stroke="#000000" points="194.3845,-96.2555 183.83,-97.179 192.6568,-103.0389 194.3845,-96.2555"/>
<text text-anchor="middle" x="281.76" y="-112.8" font-family="Times,serif" font-size="14.00" fill="#000000">possibly correlated</text>
</g>
</g>
</svg>
