<?xml version="1.0" encoding="UTF-8" standalone="no"?>
<!DOCTYPE svg PUBLIC "-//W3C//DTD SVG 1.1//EN"
 "http://www.w3.org/Graphics/SVG/1.1/DTD/svg11.dtd">
<!-- Generated by graphviz version 2.40.1 (20161225.0304)
 -->
<!-- Pages: 1 -->
<svg width="983pt" height="392pt"
 viewBox="0.00 0.00 983.32 392.00" xmlns="http://www.w3.org/2000/svg" xmlns:xlink="http://www.w3.org/1999/xlink">
<g id="graph0" class="graph" transform="scale(1 1) rotate(0) translate(4 388)">
<polygon fill="#ffffff" stroke="transparent" points="-4,4 -4,-388 979.32,-388 979.32,4 -4,4"/>
<g id="clust1" class="cluster">
<title>cluster2</title>
<polygon fill="#d3d3d3" stroke="#d3d3d3" points="278.02,0 278.02,-283 975.32,-283 975.32,0 278.02,0"/>
<text text-anchor="middle" x="626.67" y="-267.8" font-family="Times,serif" font-size="14.00" fill="#000000">Possible New Correlations</text>
</g>
<g id="clust2" class="cluster">
<title>cluster1</title>
<polygon fill="#d3d3d3" stroke="#d3d3d3" points="0,-291 0,-384 693.06,-384 693.06,-291 0,-291"/>
<text text-anchor="middle" x="346.53" y="-368.8" font-family="Times,serif" font-size="14.00" fill="#000000">Found Contradictions</text>
</g>
<!-- poss_new9 -->
<g id="node1" class="node">
<title>poss_new9</title>
<ellipse fill="none" stroke="#000000" cx="376.53" cy="-234" rx="69.5877" ry="18"/>
<text text-anchor="middle" x="376.53" y="-230.3" font-family="Times,serif" font-size="14.00" fill="#000000">Forms of speech</text>
</g>
<!-- poss_new34 -->
<g id="node2" class="node">
<title>poss_new34</title>
<ellipse fill="none" stroke="#000000" cx="874.69" cy="-225" rx="75" ry="27"/>
<text text-anchor="middle" x="874.69" y="-228.8" font-family="Times,serif" font-size="14.00" fill="#000000">Examples of the</text>
<text text-anchor="middle" x="874.69" y="-213.8" font-family="Times,serif" font-size="14.00" fill="#000000">former</text>
</g>
<!-- poss_new9&#45;&gt;poss_new34 -->
<g id="edge1" class="edge">
<title>poss_new9&#45;&gt;poss_new34</title>
<path fill="none" stroke="#000000" d="M446.18,-233.58C491.81,-233.31 543.05,-233 543.05,-233 543.05,-233 691.35,-229.42 789.61,-227.05"/>
<polygon fill="#000000" stroke="#000000" points="789.9348,-230.5434 799.85,-226.81 789.7707,-223.5454 789.9348,-230.5434"/>
<text text-anchor="middle" x="594.55" y="-236.8" font-family="Times,serif" font-size="14.00" fill="#000000">possibly correlated</text>
</g>
<!-- poss_new0 -->
<g id="node3" class="node">
<title>poss_new0</title>
<ellipse fill="none" stroke="#000000" cx="376.53" cy="-171" rx="90.5" ry="27"/>
<text text-anchor="middle" x="376.53" y="-174.8" font-family="Times,serif" font-size="14.00" fill="#000000">Forms of speech are</text>
<text text-anchor="middle" x="376.53" y="-159.8" font-family="Times,serif" font-size="14.00" fill="#000000">either simple</text>
</g>
<!-- poss_new3 -->
<g id="node4" class="node">
<title>poss_new3</title>
<ellipse fill="none" stroke="#000000" cx="874.69" cy="-153" rx="90.5" ry="27"/>
<text text-anchor="middle" x="874.69" y="-156.8" font-family="Times,serif" font-size="14.00" fill="#000000">Forms of speech are</text>
<text text-anchor="middle" x="874.69" y="-141.8" font-family="Times,serif" font-size="14.00" fill="#000000">or composite</text>
</g>
<!-- poss_new0&#45;&gt;poss_new3 -->
<g id="edge2" class="edge">
<title>poss_new0&#45;&gt;poss_new3</title>
<path fill="none" stroke="#000000" d="M463.29,-162.95C542.08,-155.64 646.05,-146 646.05,-146 646.05,-146 713.01,-148.05 774.45,-149.93"/>
<polygon fill="#000000" stroke="#000000" points="774.5483,-153.4345 784.65,-150.24 774.761,-146.4377 774.5483,-153.4345"/>
<text text-anchor="middle" x="594.55" y="-134.8" font-family="Times,serif" font-size="14.00" fill="#000000">possibly correlated</text>
</g>
<!-- poss_new3&#45;&gt;poss_new0 -->
<g id="edge3" class="edge">
<title>poss_new3&#45;&gt;poss_new0</title>
<path fill="none" stroke="#000000" d="M787.55,-160.62C689.29,-169.21 543.05,-182 543.05,-182 543.05,-182 511.19,-179.9 475.34,-177.53"/>
<polygon fill="#000000" stroke="#000000" points="475.3609,-174.0237 465.15,-176.85 474.8947,-181.0082 475.3609,-174.0237"/>
<text text-anchor="middle" x="594.55" y="-185.8" font-family="Times,serif" font-size="14.00" fill="#000000">possibly correlated</text>
</g>
<!-- poss_new37 -->
<g id="node5" class="node">
<title>poss_new37</title>
<ellipse fill="none" stroke="#000000" cx="376.53" cy="-67" rx="75" ry="58.8803"/>
<text text-anchor="middle" x="376.53" y="-93.3" font-family="Times,serif" font-size="14.00" fill="#000000">Examples of the</text>
<text text-anchor="middle" x="376.53" y="-78.3" font-family="Times,serif" font-size="14.00" fill="#000000">latter are such</text>
<text text-anchor="middle" x="376.53" y="-63.3" font-family="Times,serif" font-size="14.00" fill="#000000">expressions as</text>
<text text-anchor="middle" x="376.53" y="-48.3" font-family="Times,serif" font-size="14.00" fill="#000000">Themanruns ,</text>
<text text-anchor="middle" x="376.53" y="-33.3" font-family="Times,serif" font-size="14.00" fill="#000000">Themanwins , .</text>
</g>
<!-- poss_new36 -->
<g id="node6" class="node">
<title>poss_new36</title>
<ellipse fill="none" stroke="#000000" cx="874.69" cy="-60" rx="92.7622" ry="48.1667"/>
<text text-anchor="middle" x="874.69" y="-78.8" font-family="Times,serif" font-size="14.00" fill="#000000">Examples of the</text>
<text text-anchor="middle" x="874.69" y="-63.8" font-family="Times,serif" font-size="14.00" fill="#000000">former are such</text>
<text text-anchor="middle" x="874.69" y="-48.8" font-family="Times,serif" font-size="14.00" fill="#000000">expressions as Man ,</text>
<text text-anchor="middle" x="874.69" y="-33.8" font-family="Times,serif" font-size="14.00" fill="#000000">Ox , Runs , Wins</text>
</g>
<!-- poss_new37&#45;&gt;poss_new36 -->
<g id="edge4" class="edge">
<title>poss_new37&#45;&gt;poss_new36</title>
<path fill="none" stroke="#000000" d="M451.07,-59.669C522.83,-52.611 620.55,-43 620.55,-43 620.55,-43 701.67,-48.427 772.25,-53.148"/>
<polygon fill="#000000" stroke="#000000" points="772.3687,-56.6637 782.58,-53.839 772.8359,-49.6793 772.3687,-56.6637"/>
<text text-anchor="middle" x="594.55" y="-31.8" font-family="Times,serif" font-size="14.00" fill="#000000">*opposed</text>
</g>
<!-- poss_new36&#45;&gt;poss_new37 -->
<g id="edge5" class="edge">
<title>poss_new36&#45;&gt;poss_new37</title>
<path fill="none" stroke="#000000" d="M782.42,-65.726C692.28,-71.321 568.55,-79 568.55,-79 568.55,-79 512.9,-75.522 461.52,-72.311"/>
<polygon fill="#000000" stroke="#000000" points="461.5187,-68.8042 451.32,-71.674 461.0824,-75.7906 461.5187,-68.8042"/>
<text text-anchor="middle" x="594.55" y="-82.8" font-family="Times,serif" font-size="14.00" fill="#000000">*opposed</text>
</g>
<!-- contra0 -->
<g id="node7" class="node">
<title>contra0</title>
<ellipse fill="none" stroke="#000000" cx="98.51" cy="-326" rx="90.5" ry="27"/>
<text text-anchor="middle" x="98.51" y="-329.8" font-family="Times,serif" font-size="14.00" fill="#000000">Forms of speech are</text>
<text text-anchor="middle" x="98.51" y="-314.8" font-family="Times,serif" font-size="14.00" fill="#000000">either simple</text>
</g>
<!-- contra0&#45;&gt;poss_new37 -->
<g id="edge7" class="edge">
<title>contra0&#45;&gt;poss_new37</title>
<path fill="none" stroke="#000000" d="M126.18,-300.22C171.36,-258.13 261.82,-173.86 320.73,-118.98"/>
<polygon fill="#000000" stroke="#000000" points="323.1753,-121.4855 328.11,-112.11 318.4057,-116.3618 323.1753,-121.4855"/>
<text text-anchor="middle" x="237.52" y="-210.8" font-family="Times,serif" font-size="14.00" fill="#000000">*correlated</text>
</g>
<!-- contra3 -->
<g id="node8" class="node">
<title>contra3</title>
<ellipse fill="none" stroke="#000000" cx="594.55" cy="-326" rx="90.5" ry="27"/>
<text text-anchor="middle" x="594.55" y="-329.8" font-family="Times,serif" font-size="14.00" fill="#000000">Forms of speech are</text>
<text text-anchor="middle" x="594.55" y="-314.8" font-family="Times,serif" font-size="14.00" fill="#000000">or composite</text>
</g>
<!-- contra0&#45;&gt;contra3 -->
<g id="edge6" class="edge">
<title>contra0&#45;&gt;contra3</title>
<path fill="none" stroke="#000000" d="M189.32,-326C257.99,-326 340.53,-326 340.53,-326 340.53,-326 422.69,-326 493.55,-326"/>
<polygon fill="#000000" stroke="#000000" points="493.92,-329.5001 503.92,-326 493.92,-322.5001 493.92,-329.5001"/>
<text text-anchor="middle" x="376.53" y="-329.8" font-family="Times,serif" font-size="14.00" fill="#000000">contradicting</text>
</g>
<!-- contra3&#45;&gt;poss_new36 -->
<g id="edge8" class="edge">
<title>contra3&#45;&gt;poss_new36</title>
<path fill="none" stroke="#000000" d="M621.66,-300.25C668.02,-256.24 763.23,-165.83 822.73,-109.33"/>
<polygon fill="#000000" stroke="#000000" points="825.3149,-111.7021 830.16,-102.28 820.4967,-106.6242 825.3149,-111.7021"/>
<text text-anchor="middle" x="733.56" y="-268.8" font-family="Times,serif" font-size="14.00" fill="#000000">*correlated</text>
</g>
</g>
</svg>
