<?xml version="1.0" encoding="UTF-8" standalone="no"?>
<!DOCTYPE svg PUBLIC "-//W3C//DTD SVG 1.1//EN"
 "http://www.w3.org/Graphics/SVG/1.1/DTD/svg11.dtd">
<!-- Generated by graphviz version 2.40.1 (20161225.0304)
 -->
<!-- Pages: 1 -->
<svg width="1104pt" height="279pt"
 viewBox="0.00 0.00 1104.40 279.00" xmlns="http://www.w3.org/2000/svg" xmlns:xlink="http://www.w3.org/1999/xlink">
<g id="graph0" class="graph" transform="scale(1 1) rotate(0) translate(4 275)">
<polygon fill="#ffffff" stroke="transparent" points="-4,4 -4,-275 1100.4,-275 1100.4,4 -4,4"/>
<g id="clust1" class="cluster">
<title>cluster2</title>
<polygon fill="#d3d3d3" stroke="#d3d3d3" points="568.27,0 568.27,-271 1096.4,-271 1096.4,0 568.27,0"/>
<text text-anchor="middle" x="832.35" y="-255.8" font-family="Times,serif" font-size="14.00" fill="#000000">Possible New Correlations</text>
</g>
<g id="clust2" class="cluster">
<title>cluster1</title>
<polygon fill="#d3d3d3" stroke="#d3d3d3" points="0,-41 0,-176 487.27,-176 487.27,-41 0,-41"/>
<text text-anchor="middle" x="243.63" y="-160.8" font-family="Times,serif" font-size="14.00" fill="#000000">Found Contradictions</text>
</g>
<!-- poss_new17 -->
<g id="node1" class="node">
<title>poss_new17</title>
<ellipse fill="none" stroke="#000000" cx="668.9" cy="-202" rx="87.7537" ry="37.5"/>
<text text-anchor="middle" x="668.9" y="-213.3" font-family="Times,serif" font-size="14.00" fill="#000000">Examples of the</text>
<text text-anchor="middle" x="668.9" y="-198.3" font-family="Times,serif" font-size="14.00" fill="#000000">former are such</text>
<text text-anchor="middle" x="668.9" y="-183.3" font-family="Times,serif" font-size="14.00" fill="#000000">expressions as Man</text>
</g>
<!-- poss_new12 -->
<g id="node2" class="node">
<title>poss_new12</title>
<ellipse fill="none" stroke="#000000" cx="1013.5" cy="-192" rx="75" ry="48.1667"/>
<text text-anchor="middle" x="1013.5" y="-210.8" font-family="Times,serif" font-size="14.00" fill="#000000">Examples of the</text>
<text text-anchor="middle" x="1013.5" y="-195.8" font-family="Times,serif" font-size="14.00" fill="#000000">latter are such</text>
<text text-anchor="middle" x="1013.5" y="-180.8" font-family="Times,serif" font-size="14.00" fill="#000000">expressions as</text>
<text text-anchor="middle" x="1013.5" y="-165.8" font-family="Times,serif" font-size="14.00" fill="#000000">Themanruns</text>
</g>
<!-- poss_new17&#45;&gt;poss_new12 -->
<g id="edge1" class="edge">
<title>poss_new17&#45;&gt;poss_new12</title>
<path fill="none" stroke="#000000" d="M755.52,-196.04C821.66,-191.49 901.53,-186 901.53,-186 901.53,-186 912.9,-186.61 928.39,-187.44"/>
<polygon fill="#000000" stroke="#000000" points="928.3275,-190.9416 938.5,-187.98 928.7009,-183.9515 928.3275,-190.9416"/>
<text text-anchor="middle" x="850.03" y="-174.8" font-family="Times,serif" font-size="14.00" fill="#000000">possibly correlated</text>
</g>
<!-- poss_new12&#45;&gt;poss_new17 -->
<g id="edge2" class="edge">
<title>poss_new12&#45;&gt;poss_new17</title>
<path fill="none" stroke="#000000" d="M940.11,-202.24C877.84,-210.93 798.53,-222 798.53,-222 798.53,-222 782.59,-219.54 761.88,-216.35"/>
<polygon fill="#000000" stroke="#000000" points="762.1475,-212.8498 751.73,-214.78 761.0774,-219.7676 762.1475,-212.8498"/>
<text text-anchor="middle" x="850.03" y="-225.8" font-family="Times,serif" font-size="14.00" fill="#000000">possibly correlated</text>
</g>
<!-- poss_new36 -->
<g id="node3" class="node">
<title>poss_new36</title>
<ellipse fill="none" stroke="#000000" cx="668.9" cy="-97" rx="92.7622" ry="48.1667"/>
<text text-anchor="middle" x="668.9" y="-115.8" font-family="Times,serif" font-size="14.00" fill="#000000">Examples of the</text>
<text text-anchor="middle" x="668.9" y="-100.8" font-family="Times,serif" font-size="14.00" fill="#000000">former are such</text>
<text text-anchor="middle" x="668.9" y="-85.8" font-family="Times,serif" font-size="14.00" fill="#000000">expressions as Man ,</text>
<text text-anchor="middle" x="668.9" y="-70.8" font-family="Times,serif" font-size="14.00" fill="#000000">Ox , Runs , Wins</text>
</g>
<!-- poss_new37 -->
<g id="node4" class="node">
<title>poss_new37</title>
<ellipse fill="none" stroke="#000000" cx="1013.5" cy="-67" rx="75" ry="58.8803"/>
<text text-anchor="middle" x="1013.5" y="-93.3" font-family="Times,serif" font-size="14.00" fill="#000000">Examples of the</text>
<text text-anchor="middle" x="1013.5" y="-78.3" font-family="Times,serif" font-size="14.00" fill="#000000">latter are such</text>
<text text-anchor="middle" x="1013.5" y="-63.3" font-family="Times,serif" font-size="14.00" fill="#000000">expressions as</text>
<text text-anchor="middle" x="1013.5" y="-48.3" font-family="Times,serif" font-size="14.00" fill="#000000">Themanruns ,</text>
<text text-anchor="middle" x="1013.5" y="-33.3" font-family="Times,serif" font-size="14.00" fill="#000000">Themanwins , .</text>
</g>
<!-- poss_new36&#45;&gt;poss_new37 -->
<g id="edge3" class="edge">
<title>poss_new36&#45;&gt;poss_new37</title>
<path fill="none" stroke="#000000" d="M760.66,-90.355C816.06,-86.343 876.03,-82 876.03,-82 876.03,-82 900.6,-79.319 928.97,-76.223"/>
<polygon fill="#000000" stroke="#000000" points="929.5684,-79.6786 939.13,-75.115 928.8095,-72.7198 929.5684,-79.6786"/>
<text text-anchor="middle" x="850.03" y="-70.8" font-family="Times,serif" font-size="14.00" fill="#000000">*opposed</text>
</g>
<!-- poss_new37&#45;&gt;poss_new36 -->
<g id="edge4" class="edge">
<title>poss_new37&#45;&gt;poss_new36</title>
<path fill="none" stroke="#000000" d="M942.4,-86.136C888.64,-100.61 824.03,-118 824.03,-118 824.03,-118 798.76,-114.58 768.62,-110.5"/>
<polygon fill="#000000" stroke="#000000" points="769.0704,-107.0291 758.69,-109.15 768.1273,-113.9653 769.0704,-107.0291"/>
<text text-anchor="middle" x="850.03" y="-121.8" font-family="Times,serif" font-size="14.00" fill="#000000">*opposed</text>
</g>
<!-- contra17 -->
<g id="node5" class="node">
<title>contra17</title>
<ellipse fill="none" stroke="#000000" cx="95.68" cy="-91" rx="87.7537" ry="37.5"/>
<text text-anchor="middle" x="95.68" y="-102.3" font-family="Times,serif" font-size="14.00" fill="#000000">Examples of the</text>
<text text-anchor="middle" x="95.68" y="-87.3" font-family="Times,serif" font-size="14.00" fill="#000000">former are such</text>
<text text-anchor="middle" x="95.68" y="-72.3" font-family="Times,serif" font-size="14.00" fill="#000000">expressions as Man</text>
</g>
<!-- contra17&#45;&gt;poss_new37 -->
<g id="edge6" class="edge">
<title>contra17&#45;&gt;poss_new37</title>
<path fill="none" stroke="#000000" d="M180.26,-80.944C313.74,-65.073 558.27,-36 558.27,-36 558.27,-36 796.76,-52.241 928.5,-61.212"/>
<polygon fill="#000000" stroke="#000000" points="928.3552,-64.7102 938.57,-61.898 928.831,-57.7263 928.3552,-64.7102"/>
<text text-anchor="middle" x="527.77" y="-24.8" font-family="Times,serif" font-size="14.00" fill="#000000">*correlated</text>
</g>
<!-- contra12 -->
<g id="node6" class="node">
<title>contra12</title>
<ellipse fill="none" stroke="#000000" cx="404.32" cy="-97" rx="75" ry="48.1667"/>
<text text-anchor="middle" x="404.32" y="-115.8" font-family="Times,serif" font-size="14.00" fill="#000000">Examples of the</text>
<text text-anchor="middle" x="404.32" y="-100.8" font-family="Times,serif" font-size="14.00" fill="#000000">latter are such</text>
<text text-anchor="middle" x="404.32" y="-85.8" font-family="Times,serif" font-size="14.00" fill="#000000">expressions as</text>
<text text-anchor="middle" x="404.32" y="-70.8" font-family="Times,serif" font-size="14.00" fill="#000000">Themanruns</text>
</g>
<!-- contra17&#45;&gt;contra12 -->
<g id="edge5" class="edge">
<title>contra17&#45;&gt;contra12</title>
<path fill="none" stroke="#000000" d="M183.29,-93.11C204.08,-93.61 220.36,-94 220.36,-94 220.36,-94 270.92,-94.82 319.02,-95.61"/>
<polygon fill="#000000" stroke="#000000" points="319.1731,-99.1129 329.23,-95.78 319.2897,-92.1139 319.1731,-99.1129"/>
<text text-anchor="middle" x="256.36" y="-97.8" font-family="Times,serif" font-size="14.00" fill="#000000">contradicting</text>
</g>
<!-- contra12&#45;&gt;poss_new36 -->
<g id="edge7" class="edge">
<title>contra12&#45;&gt;poss_new36</title>
<path fill="none" stroke="#000000" d="M479.43,-97C506.35,-97 537.19,-97 566.05,-97"/>
<polygon fill="#000000" stroke="#000000" points="566.17,-100.5001 576.17,-97 566.17,-93.5001 566.17,-100.5001"/>
<text text-anchor="middle" x="527.77" y="-100.8" font-family="Times,serif" font-size="14.00" fill="#000000">*correlated</text>
</g>
</g>
</svg>
