<?xml version="1.0" encoding="UTF-8" standalone="no"?>
<!DOCTYPE svg PUBLIC "-//W3C//DTD SVG 1.1//EN"
 "http://www.w3.org/Graphics/SVG/1.1/DTD/svg11.dtd">
<!-- Generated by graphviz version 2.40.1 (20161225.0304)
 -->
<!-- Pages: 1 -->
<svg width="898pt" height="774pt"
 viewBox="0.00 0.00 898.45 774.00" xmlns="http://www.w3.org/2000/svg" xmlns:xlink="http://www.w3.org/1999/xlink">
<g id="graph0" class="graph" transform="scale(1 1) rotate(0) translate(4 770)">
<polygon fill="#ffffff" stroke="transparent" points="-4,4 -4,-770 894.45,-770 894.45,4 -4,4"/>
<g id="clust1" class="cluster">
<title>cluster1</title>
<polygon fill="#d3d3d3" stroke="#d3d3d3" points="0,-351 0,-766 637.19,-766 637.19,-351 0,-351"/>
<text text-anchor="middle" x="318.59" y="-750.8" font-family="Times,serif" font-size="14.00" fill="#000000">possible new correlations</text>
</g>
<g id="clust2" class="cluster">
<title>cluster2</title>
<polygon fill="#d3d3d3" stroke="#d3d3d3" points="253.26,0 253.26,-343 890.45,-343 890.45,0 253.26,0"/>
<text text-anchor="middle" x="571.86" y="-327.8" font-family="Times,serif" font-size="14.00" fill="#000000">found contradictions</text>
</g>
<!-- poss new5 -->
<g id="node1" class="node">
<title>poss new5</title>
<ellipse fill="none" stroke="#000000" cx="100.63" cy="-708" rx="75" ry="27"/>
<text text-anchor="middle" x="100.63" y="-711.8" font-family="Times,serif" font-size="14.00" fill="#000000">Examples of the</text>
<text text-anchor="middle" x="100.63" y="-696.8" font-family="Times,serif" font-size="14.00" fill="#000000">former Man</text>
</g>
<!-- poss new4 -->
<g id="node2" class="node">
<title>poss new4</title>
<ellipse fill="none" stroke="#000000" cx="538.68" cy="-708" rx="75" ry="27"/>
<text text-anchor="middle" x="538.68" y="-711.8" font-family="Times,serif" font-size="14.00" fill="#000000">Examples of the</text>
<text text-anchor="middle" x="538.68" y="-696.8" font-family="Times,serif" font-size="14.00" fill="#000000">latter</text>
</g>
<!-- poss new5&#45;&gt;poss new4 -->
<g id="edge1" class="edge">
<title>poss new5&#45;&gt;poss new4</title>
<path fill="none" stroke="#000000" d="M175.7,-708C232.48,-708 300.72,-708 300.72,-708 300.72,-708 385.08,-708 453.34,-708"/>
<polygon fill="#000000" stroke="#000000" points="453.71,-711.5001 463.71,-708 453.71,-704.5001 453.71,-711.5001"/>
<text text-anchor="middle" x="336.22" y="-711.8" font-family="Times,serif" font-size="14.00" fill="#000000">possible new</text>
</g>
<!-- poss new7 -->
<g id="node3" class="node">
<title>poss new7</title>
<ellipse fill="none" stroke="#000000" cx="100.63" cy="-615" rx="87.7537" ry="37.5"/>
<text text-anchor="middle" x="100.63" y="-626.3" font-family="Times,serif" font-size="14.00" fill="#000000">Examples of the</text>
<text text-anchor="middle" x="100.63" y="-611.3" font-family="Times,serif" font-size="14.00" fill="#000000">former are such</text>
<text text-anchor="middle" x="100.63" y="-596.3" font-family="Times,serif" font-size="14.00" fill="#000000">expressions as Man</text>
</g>
<!-- poss new6 -->
<g id="node4" class="node">
<title>poss new6</title>
<ellipse fill="none" stroke="#000000" cx="538.68" cy="-615" rx="75" ry="48.1667"/>
<text text-anchor="middle" x="538.68" y="-633.8" font-family="Times,serif" font-size="14.00" fill="#000000">Examples of the</text>
<text text-anchor="middle" x="538.68" y="-618.8" font-family="Times,serif" font-size="14.00" fill="#000000">latter are such</text>
<text text-anchor="middle" x="538.68" y="-603.8" font-family="Times,serif" font-size="14.00" fill="#000000">expressions as</text>
<text text-anchor="middle" x="538.68" y="-588.8" font-family="Times,serif" font-size="14.00" fill="#000000">Themanruns</text>
</g>
<!-- poss new7&#45;&gt;poss new6 -->
<g id="edge2" class="edge">
<title>poss new7&#45;&gt;poss new6</title>
<path fill="none" stroke="#000000" d="M188.39,-615C242.15,-615 300.72,-615 300.72,-615 300.72,-615 385.08,-615 453.34,-615"/>
<polygon fill="#000000" stroke="#000000" points="453.71,-618.5001 463.71,-615 453.71,-611.5001 453.71,-618.5001"/>
<text text-anchor="middle" x="336.22" y="-618.8" font-family="Times,serif" font-size="14.00" fill="#000000">possible new</text>
</g>
<!-- poss new9 -->
<g id="node5" class="node">
<title>poss new9</title>
<ellipse fill="none" stroke="#000000" cx="100.63" cy="-413" rx="92.7622" ry="48.1667"/>
<text text-anchor="middle" x="100.63" y="-431.8" font-family="Times,serif" font-size="14.00" fill="#000000">Examples of the</text>
<text text-anchor="middle" x="100.63" y="-416.8" font-family="Times,serif" font-size="14.00" fill="#000000">former are such</text>
<text text-anchor="middle" x="100.63" y="-401.8" font-family="Times,serif" font-size="14.00" fill="#000000">expressions as Man ,</text>
<text text-anchor="middle" x="100.63" y="-386.8" font-family="Times,serif" font-size="14.00" fill="#000000">Ox , Runs , Wins</text>
</g>
<!-- poss new8 -->
<g id="node6" class="node">
<title>poss new8</title>
<ellipse fill="none" stroke="#000000" cx="538.68" cy="-418" rx="75" ry="58.8803"/>
<text text-anchor="middle" x="538.68" y="-444.3" font-family="Times,serif" font-size="14.00" fill="#000000">Examples of the</text>
<text text-anchor="middle" x="538.68" y="-429.3" font-family="Times,serif" font-size="14.00" fill="#000000">latter are such</text>
<text text-anchor="middle" x="538.68" y="-414.3" font-family="Times,serif" font-size="14.00" fill="#000000">expressions as</text>
<text text-anchor="middle" x="538.68" y="-399.3" font-family="Times,serif" font-size="14.00" fill="#000000">Themanruns ,</text>
<text text-anchor="middle" x="538.68" y="-384.3" font-family="Times,serif" font-size="14.00" fill="#000000">Themanwins , .</text>
</g>
<!-- poss new9&#45;&gt;poss new8 -->
<g id="edge3" class="edge">
<title>poss new9&#45;&gt;poss new8</title>
<path fill="none" stroke="#000000" d="M193.35,-413.93C245.69,-414.45 300.72,-415 300.72,-415 300.72,-415 385.08,-416.06 453.34,-416.92"/>
<polygon fill="#000000" stroke="#000000" points="453.6669,-420.4243 463.71,-417.05 453.7547,-413.4248 453.6669,-420.4243"/>
<text text-anchor="middle" x="336.22" y="-418.8" font-family="Times,serif" font-size="14.00" fill="#000000">possible new</text>
</g>
<!-- contra4 -->
<g id="node9" class="node">
<title>contra4</title>
<ellipse fill="none" stroke="#000000" cx="336.22" cy="-285" rx="75" ry="27"/>
<text text-anchor="middle" x="336.22" y="-288.8" font-family="Times,serif" font-size="14.00" fill="#000000">Examples of the</text>
<text text-anchor="middle" x="336.22" y="-273.8" font-family="Times,serif" font-size="14.00" fill="#000000">latter</text>
</g>
<!-- poss new9&#45;&gt;contra4 -->
<g id="edge8" class="edge">
<title>poss new9&#45;&gt;contra4</title>
<path fill="none" stroke="#000000" d="M164.69,-378.19C202.72,-357.53 250.25,-331.71 285.62,-312.49"/>
<polygon fill="#000000" stroke="#000000" points="287.6856,-315.3509 294.8,-307.5 284.3426,-309.2008 287.6856,-315.3509"/>
<text text-anchor="middle" x="227.26" y="-355.8" font-family="Times,serif" font-size="14.00" fill="#000000">correl</text>
</g>
<!-- contra5 -->
<g id="node10" class="node">
<title>contra5</title>
<ellipse fill="none" stroke="#000000" cx="789.82" cy="-285" rx="75" ry="27"/>
<text text-anchor="middle" x="789.82" y="-288.8" font-family="Times,serif" font-size="14.00" fill="#000000">Examples of the</text>
<text text-anchor="middle" x="789.82" y="-273.8" font-family="Times,serif" font-size="14.00" fill="#000000">former Man</text>
</g>
<!-- poss new8&#45;&gt;contra5 -->
<g id="edge9" class="edge">
<title>poss new8&#45;&gt;contra5</title>
<path fill="none" stroke="#000000" d="M601.08,-384.95C643.4,-362.54 698.66,-333.28 738.44,-312.21"/>
<polygon fill="#000000" stroke="#000000" points="740.2433,-315.2155 747.44,-307.44 736.9652,-309.0305 740.2433,-315.2155"/>
<text text-anchor="middle" x="663.19" y="-362.8" font-family="Times,serif" font-size="14.00" fill="#000000">correl</text>
</g>
<!-- poss new3 -->
<g id="node7" class="node">
<title>poss new3</title>
<ellipse fill="none" stroke="#000000" cx="100.63" cy="-522" rx="90.5" ry="37.5"/>
<text text-anchor="middle" x="100.63" y="-533.3" font-family="Times,serif" font-size="14.00" fill="#000000">Forms of speech are</text>
<text text-anchor="middle" x="100.63" y="-518.3" font-family="Times,serif" font-size="14.00" fill="#000000">either simple or</text>
<text text-anchor="middle" x="100.63" y="-503.3" font-family="Times,serif" font-size="14.00" fill="#000000">composite .</text>
</g>
<!-- poss new2 -->
<g id="node8" class="node">
<title>poss new2</title>
<ellipse fill="none" stroke="#000000" cx="538.68" cy="-522" rx="90.5" ry="27"/>
<text text-anchor="middle" x="538.68" y="-525.8" font-family="Times,serif" font-size="14.00" fill="#000000">Forms of speech are</text>
<text text-anchor="middle" x="538.68" y="-510.8" font-family="Times,serif" font-size="14.00" fill="#000000">or composite</text>
</g>
<!-- poss new3&#45;&gt;poss new2 -->
<g id="edge4" class="edge">
<title>poss new3&#45;&gt;poss new2</title>
<path fill="none" stroke="#000000" d="M191.31,-522C244.25,-522 300.72,-522 300.72,-522 300.72,-522 372.86,-522 437.7,-522"/>
<polygon fill="#000000" stroke="#000000" points="438.04,-525.5001 448.04,-522 438.04,-518.5001 438.04,-525.5001"/>
<text text-anchor="middle" x="336.22" y="-525.8" font-family="Times,serif" font-size="14.00" fill="#000000">possible new</text>
</g>
<!-- contra4&#45;&gt;contra5 -->
<g id="edge5" class="edge">
<title>contra4&#45;&gt;contra5</title>
<path fill="none" stroke="#000000" d="M411.65,-285C455.7,-285 502.68,-285 502.68,-285 502.68,-285 619.95,-285 704.6,-285"/>
<polygon fill="#000000" stroke="#000000" points="704.75,-288.5001 714.75,-285 704.75,-281.5001 704.75,-288.5001"/>
<text text-anchor="middle" x="538.68" y="-288.8" font-family="Times,serif" font-size="14.00" fill="#000000">contradiction</text>
</g>
<!-- contra6 -->
<g id="node11" class="node">
<title>contra6</title>
<ellipse fill="none" stroke="#000000" cx="336.22" cy="-192" rx="75" ry="48.1667"/>
<text text-anchor="middle" x="336.22" y="-210.8" font-family="Times,serif" font-size="14.00" fill="#000000">Examples of the</text>
<text text-anchor="middle" x="336.22" y="-195.8" font-family="Times,serif" font-size="14.00" fill="#000000">latter are such</text>
<text text-anchor="middle" x="336.22" y="-180.8" font-family="Times,serif" font-size="14.00" fill="#000000">expressions as</text>
<text text-anchor="middle" x="336.22" y="-165.8" font-family="Times,serif" font-size="14.00" fill="#000000">Themanruns</text>
</g>
<!-- contra7 -->
<g id="node12" class="node">
<title>contra7</title>
<ellipse fill="none" stroke="#000000" cx="789.82" cy="-192" rx="87.7537" ry="37.5"/>
<text text-anchor="middle" x="789.82" y="-203.3" font-family="Times,serif" font-size="14.00" fill="#000000">Examples of the</text>
<text text-anchor="middle" x="789.82" y="-188.3" font-family="Times,serif" font-size="14.00" fill="#000000">former are such</text>
<text text-anchor="middle" x="789.82" y="-173.3" font-family="Times,serif" font-size="14.00" fill="#000000">expressions as Man</text>
</g>
<!-- contra6&#45;&gt;contra7 -->
<g id="edge6" class="edge">
<title>contra6&#45;&gt;contra7</title>
<path fill="none" stroke="#000000" d="M411.65,-192C455.7,-192 502.68,-192 502.68,-192 502.68,-192 608.86,-192 692.08,-192"/>
<polygon fill="#000000" stroke="#000000" points="692.11,-195.5001 702.11,-192 692.11,-188.5001 692.11,-195.5001"/>
<text text-anchor="middle" x="538.68" y="-195.8" font-family="Times,serif" font-size="14.00" fill="#000000">contradiction</text>
</g>
<!-- contra8 -->
<g id="node13" class="node">
<title>contra8</title>
<ellipse fill="none" stroke="#000000" cx="336.22" cy="-67" rx="75" ry="58.8803"/>
<text text-anchor="middle" x="336.22" y="-93.3" font-family="Times,serif" font-size="14.00" fill="#000000">Examples of the</text>
<text text-anchor="middle" x="336.22" y="-78.3" font-family="Times,serif" font-size="14.00" fill="#000000">latter are such</text>
<text text-anchor="middle" x="336.22" y="-63.3" font-family="Times,serif" font-size="14.00" fill="#000000">expressions as</text>
<text text-anchor="middle" x="336.22" y="-48.3" font-family="Times,serif" font-size="14.00" fill="#000000">Themanruns ,</text>
<text text-anchor="middle" x="336.22" y="-33.3" font-family="Times,serif" font-size="14.00" fill="#000000">Themanwins , .</text>
</g>
<!-- contra9 -->
<g id="node14" class="node">
<title>contra9</title>
<ellipse fill="none" stroke="#000000" cx="789.82" cy="-67" rx="92.7622" ry="48.1667"/>
<text text-anchor="middle" x="789.82" y="-85.8" font-family="Times,serif" font-size="14.00" fill="#000000">Examples of the</text>
<text text-anchor="middle" x="789.82" y="-70.8" font-family="Times,serif" font-size="14.00" fill="#000000">former are such</text>
<text text-anchor="middle" x="789.82" y="-55.8" font-family="Times,serif" font-size="14.00" fill="#000000">expressions as Man ,</text>
<text text-anchor="middle" x="789.82" y="-40.8" font-family="Times,serif" font-size="14.00" fill="#000000">Ox , Runs , Wins</text>
</g>
<!-- contra8&#45;&gt;contra9 -->
<g id="edge7" class="edge">
<title>contra8&#45;&gt;contra9</title>
<path fill="none" stroke="#000000" d="M411.65,-67C455.7,-67 502.68,-67 502.68,-67 502.68,-67 604.43,-67 686.79,-67"/>
<polygon fill="#000000" stroke="#000000" points="686.99,-70.5001 696.99,-67 686.99,-63.5001 686.99,-70.5001"/>
<text text-anchor="middle" x="538.68" y="-70.8" font-family="Times,serif" font-size="14.00" fill="#000000">contradiction</text>
</g>
</g>
</svg>
