<?xml version="1.0" encoding="UTF-8" standalone="no"?>
<!DOCTYPE svg PUBLIC "-//W3C//DTD SVG 1.1//EN"
 "http://www.w3.org/Graphics/SVG/1.1/DTD/svg11.dtd">
<!-- Generated by graphviz version 2.40.1 (20161225.0304)
 -->
<!-- Pages: 1 -->
<svg width="1957pt" height="645pt"
 viewBox="0.00 0.00 1957.36 645.08" xmlns="http://www.w3.org/2000/svg" xmlns:xlink="http://www.w3.org/1999/xlink">
<g id="graph0" class="graph" transform="scale(1 1) rotate(0) translate(4 641.0833)">
<polygon fill="#ffffff" stroke="transparent" points="-4,4 -4,-641.0833 1953.3574,-641.0833 1953.3574,4 -4,4"/>
<!-- 0 -->
<g id="node1" class="node">
<title>0</title>
<ellipse fill="none" stroke="#000000" cx="202" cy="-55" rx="191" ry="27"/>
<text text-anchor="middle" x="202" y="-58.8" font-family="Times,serif" font-size="14.00" fill="#000000">Of things themselves some are predicable of a</text>
<text text-anchor="middle" x="202" y="-43.8" font-family="Times,serif" font-size="14.00" fill="#000000">subject</text>
</g>
<!-- 19 -->
<g id="node2" class="node">
<title>19</title>
<ellipse fill="none" stroke="#000000" cx="754.57" cy="-101" rx="192.5" ry="27"/>
<text text-anchor="middle" x="754.57" y="-104.8" font-family="Times,serif" font-size="14.00" fill="#000000">Some things , again , are never predicable of a</text>
<text text-anchor="middle" x="754.57" y="-89.8" font-family="Times,serif" font-size="14.00" fill="#000000">subject</text>
</g>
<!-- 0&#45;&gt;19 -->
<g id="edge1" class="edge">
<title>0&#45;&gt;19</title>
<path fill="none" stroke="#000000" d="M366.67,-68.708C433.67,-74.286 511.19,-80.739 579.24,-86.405"/>
<polygon fill="#000000" stroke="#000000" points="578.9543,-89.8932 589.21,-87.234 579.5344,-82.9173 578.9543,-89.8932"/>
<text text-anchor="middle" x="483.24" y="-95.8" font-family="Times,serif" font-size="14.00" fill="#000000">contradiction negation</text>
</g>
<!-- 47 -->
<g id="node3" class="node">
<title>47</title>
<ellipse fill="none" stroke="#000000" cx="1807.67" cy="-54" rx="141.8751" ry="18"/>
<text text-anchor="middle" x="1807.67" y="-50.3" font-family="Times,serif" font-size="14.00" fill="#000000">which are nor predicable of a subject</text>
</g>
<!-- 0&#45;&gt;47 -->
<g id="edge2" class="edge">
<title>0&#45;&gt;47</title>
<path fill="none" stroke="#000000" d="M392.92,-54.568C653.06,-53.981 1086.87,-53 1086.87,-53 1086.87,-53 1443.87,-53.495 1655.37,-53.789"/>
<polygon fill="#000000" stroke="#000000" points="1655.6652,-57.2893 1665.67,-53.803 1655.6748,-50.2893 1655.6652,-57.2893"/>
<text text-anchor="middle" x="1025.87" y="-41.8" font-family="Times,serif" font-size="14.00" fill="#000000">contradiction negation</text>
</g>
<!-- 19&#45;&gt;0 -->
<g id="edge3" class="edge">
<title>19&#45;&gt;0</title>
<path fill="none" stroke="#000000" d="M589.21,-87.234C522.28,-81.662 444.93,-75.223 377.05,-69.572"/>
<polygon fill="#000000" stroke="#000000" points="376.9259,-66.0497 366.67,-68.708 376.3452,-73.0255 376.9259,-66.0497"/>
<text text-anchor="middle" x="483.24" y="-71.8" font-family="Times,serif" font-size="14.00" fill="#000000">contradiction negation</text>
</g>
<!-- 27 -->
<g id="node4" class="node">
<title>27</title>
<ellipse fill="none" stroke="#000000" cx="1306.47" cy="-105" rx="177" ry="27"/>
<text text-anchor="middle" x="1306.47" y="-108.8" font-family="Times,serif" font-size="14.00" fill="#000000">Other things again are both predicable of a</text>
<text text-anchor="middle" x="1306.47" y="-93.8" font-family="Times,serif" font-size="14.00" fill="#000000">subject</text>
</g>
<!-- 19&#45;&gt;27 -->
<g id="edge4" class="edge">
<title>19&#45;&gt;27</title>
<path fill="none" stroke="#000000" d="M946.81,-102.39C1002.77,-102.8 1063.77,-103.24 1119.37,-103.64"/>
<polygon fill="#000000" stroke="#000000" points="1119.6431,-107.1421 1129.67,-103.72 1119.6975,-100.1423 1119.6431,-107.1421"/>
<text text-anchor="middle" x="1025.87" y="-108.8" font-family="Times,serif" font-size="14.00" fill="#000000">contradiction negation</text>
</g>
<!-- 47&#45;&gt;0 -->
<g id="edge5" class="edge">
<title>47&#45;&gt;0</title>
<path fill="none" stroke="#000000" d="M1677.07,-46.937C1469.47,-35.699 1086.87,-15 1086.87,-15 1086.87,-15 654.64,-34.539 394.35,-46.305"/>
<polygon fill="#000000" stroke="#000000" points="393.8415,-42.8243 384.01,-46.773 394.1581,-49.8172 393.8415,-42.8243"/>
<text text-anchor="middle" x="1025.87" y="-3.8" font-family="Times,serif" font-size="14.00" fill="#000000">contradiction negation</text>
</g>
<!-- 47&#45;&gt;27 -->
<g id="edge6" class="edge">
<title>47&#45;&gt;27</title>
<path fill="none" stroke="#000000" d="M1696.87,-65.266C1628.37,-72.24 1539.27,-81.304 1463.57,-89.013"/>
<polygon fill="#000000" stroke="#000000" points="1463.0633,-85.5464 1453.47,-90.043 1463.7735,-92.5103 1463.0633,-85.5464"/>
<text text-anchor="middle" x="1586.97" y="-75.8" font-family="Times,serif" font-size="14.00" fill="#000000">contradiction negation</text>
</g>
<!-- 27&#45;&gt;19 -->
<g id="edge7" class="edge">
<title>27&#45;&gt;19</title>
<path fill="none" stroke="#000000" d="M1129.67,-103.72C1074.67,-103.32 1013.57,-102.88 956.96,-102.47"/>
<polygon fill="#000000" stroke="#000000" points="956.8373,-98.969 946.81,-102.39 956.7821,-105.9688 956.8373,-98.969"/>
<text text-anchor="middle" x="1025.87" y="-89.8" font-family="Times,serif" font-size="14.00" fill="#000000">contradiction negation</text>
</g>
<!-- 27&#45;&gt;47 -->
<g id="edge8" class="edge">
<title>27&#45;&gt;47</title>
<path fill="none" stroke="#000000" d="M1453.47,-90.043C1527.57,-82.493 1616.57,-73.447 1686.67,-66.306"/>
<polygon fill="#000000" stroke="#000000" points="1687.2766,-69.7624 1696.87,-65.266 1686.5665,-62.7985 1687.2766,-69.7624"/>
<text text-anchor="middle" x="1586.97" y="-97.8" font-family="Times,serif" font-size="14.00" fill="#000000">contradiction negation</text>
</g>
<!-- 4 -->
<g id="node5" class="node">
<title>4</title>
<ellipse fill="none" stroke="#000000" cx="202" cy="-280" rx="202" ry="27"/>
<text text-anchor="middle" x="202" y="-283.8" font-family="Times,serif" font-size="14.00" fill="#000000">Of things themselves some are never present in a</text>
<text text-anchor="middle" x="202" y="-268.8" font-family="Times,serif" font-size="14.00" fill="#000000">subject</text>
</g>
<!-- 16 -->
<g id="node6" class="node">
<title>16</title>
<ellipse fill="none" stroke="#000000" cx="754.57" cy="-198" rx="160.5715" ry="18"/>
<text text-anchor="middle" x="754.57" y="-194.3" font-family="Times,serif" font-size="14.00" fill="#000000">Some things again are present in a subject</text>
</g>
<!-- 4&#45;&gt;16 -->
<g id="edge9" class="edge">
<title>4&#45;&gt;16</title>
<path fill="none" stroke="#000000" d="M337.18,-259.94C432.7,-245.76 558.99,-227.02 647.54,-213.88"/>
<polygon fill="#000000" stroke="#000000" points="648.23,-217.3161 657.61,-212.39 647.2054,-210.3915 648.23,-217.3161"/>
<text text-anchor="middle" x="483.24" y="-256.8" font-family="Times,serif" font-size="14.00" fill="#000000">contradiction negation</text>
</g>
<!-- 30 -->
<g id="node7" class="node">
<title>30</title>
<ellipse fill="none" stroke="#000000" cx="754.57" cy="-286" rx="171" ry="27"/>
<text text-anchor="middle" x="754.57" y="-289.8" font-family="Times,serif" font-size="14.00" fill="#000000">Other things , again , are and present in a</text>
<text text-anchor="middle" x="754.57" y="-274.8" font-family="Times,serif" font-size="14.00" fill="#000000">subject</text>
</g>
<!-- 4&#45;&gt;30 -->
<g id="edge10" class="edge">
<title>4&#45;&gt;30</title>
<path fill="none" stroke="#000000" d="M403.84,-282.19C459.42,-282.8 519.34,-283.45 573.66,-284.04"/>
<polygon fill="#000000" stroke="#000000" points="573.6957,-287.5404 583.73,-284.14 573.7653,-280.5408 573.6957,-287.5404"/>
<text text-anchor="middle" x="483.24" y="-286.8" font-family="Times,serif" font-size="14.00" fill="#000000">contradiction negation</text>
</g>
<!-- 16&#45;&gt;4 -->
<g id="edge11" class="edge">
<title>16&#45;&gt;4</title>
<path fill="none" stroke="#000000" d="M657.61,-212.39C571.72,-225.13 445.12,-243.92 347.16,-258.46"/>
<polygon fill="#000000" stroke="#000000" points="346.5584,-255.0109 337.18,-259.94 347.5853,-261.9351 346.5584,-255.0109"/>
<text text-anchor="middle" x="483.24" y="-189.8" font-family="Times,serif" font-size="14.00" fill="#000000">contradiction negation</text>
</g>
<!-- 57 -->
<g id="node8" class="node">
<title>57</title>
<ellipse fill="none" stroke="#000000" cx="1306.47" cy="-229" rx="201.5" ry="27"/>
<text text-anchor="middle" x="1306.47" y="-232.8" font-family="Times,serif" font-size="14.00" fill="#000000">things which are neither present in a subject such</text>
<text text-anchor="middle" x="1306.47" y="-217.8" font-family="Times,serif" font-size="14.00" fill="#000000">as the individual man</text>
</g>
<!-- 16&#45;&gt;57 -->
<g id="edge12" class="edge">
<title>16&#45;&gt;57</title>
<path fill="none" stroke="#000000" d="M898.12,-206.06C962.88,-209.7 1040.37,-214.06 1110.37,-217.99"/>
<polygon fill="#000000" stroke="#000000" points="1110.4919,-221.502 1120.67,-218.56 1110.8787,-214.5127 1110.4919,-221.502"/>
<text text-anchor="middle" x="1025.87" y="-219.8" font-family="Times,serif" font-size="14.00" fill="#000000">contradiction negation</text>
</g>
<!-- 30&#45;&gt;4 -->
<g id="edge13" class="edge">
<title>30&#45;&gt;4</title>
<path fill="none" stroke="#000000" d="M583.73,-284.14C530.04,-283.56 470.1,-282.91 413.91,-282.3"/>
<polygon fill="#000000" stroke="#000000" points="413.8777,-278.7995 403.84,-282.19 413.8011,-285.7991 413.8777,-278.7995"/>
<text text-anchor="middle" x="483.24" y="-305.8" font-family="Times,serif" font-size="14.00" fill="#000000">contradiction negation</text>
</g>
<!-- 30&#45;&gt;57 -->
<g id="edge14" class="edge">
<title>30&#45;&gt;57</title>
<path fill="none" stroke="#000000" d="M897.76,-271.21C970.81,-263.66 1060.17,-254.44 1136.67,-246.54"/>
<polygon fill="#000000" stroke="#000000" points="1137.2854,-249.995 1146.87,-245.48 1136.5618,-243.0325 1137.2854,-249.995"/>
<text text-anchor="middle" x="1025.87" y="-265.8" font-family="Times,serif" font-size="14.00" fill="#000000">contradiction negation</text>
</g>
<!-- 44 -->
<g id="node9" class="node">
<title>44</title>
<ellipse fill="none" stroke="#000000" cx="202" cy="-172" rx="143" ry="18"/>
<text text-anchor="middle" x="202" y="-168.3" font-family="Times,serif" font-size="14.00" fill="#000000">which are neither present in a subject</text>
</g>
<!-- 44&#45;&gt;16 -->
<g id="edge15" class="edge">
<title>44&#45;&gt;16</title>
<path fill="none" stroke="#000000" d="M336.12,-178.31C414.46,-182 513.77,-186.67 595.98,-190.54"/>
<polygon fill="#000000" stroke="#000000" points="596.0265,-194.046 606.18,-191.02 596.3556,-187.0537 596.0265,-194.046"/>
<text text-anchor="middle" x="483.24" y="-151.8" font-family="Times,serif" font-size="14.00" fill="#000000">contradiction negation</text>
</g>
<!-- 44&#45;&gt;30 -->
<g id="edge16" class="edge">
<title>44&#45;&gt;30</title>
<path fill="none" stroke="#000000" d="M276.52,-187.37C370.08,-206.68 531.5,-239.98 640.6,-262.49"/>
<polygon fill="#000000" stroke="#000000" points="640.1598,-265.9727 650.66,-264.56 641.5706,-259.1163 640.1598,-265.9727"/>
<text text-anchor="middle" x="483.24" y="-223.8" font-family="Times,serif" font-size="14.00" fill="#000000">contradiction negation</text>
</g>
<!-- 15 -->
<g id="node10" class="node">
<title>15</title>
<ellipse fill="none" stroke="#000000" cx="202" cy="-352" rx="191" ry="27"/>
<text text-anchor="middle" x="202" y="-355.8" font-family="Times,serif" font-size="14.00" fill="#000000">Of things themselves some are predicable of a</text>
<text text-anchor="middle" x="202" y="-340.8" font-family="Times,serif" font-size="14.00" fill="#000000">subject , and are never present in a subject .</text>
</g>
<!-- 26 -->
<g id="node11" class="node">
<title>26</title>
<ellipse fill="none" stroke="#000000" cx="202" cy="-424" rx="190" ry="27"/>
<text text-anchor="middle" x="202" y="-427.8" font-family="Times,serif" font-size="14.00" fill="#000000">Some things , again , are present in a subject ,</text>
<text text-anchor="middle" x="202" y="-412.8" font-family="Times,serif" font-size="14.00" fill="#000000">but are never predicable of a subject .</text>
</g>
<!-- 39 -->
<g id="node12" class="node">
<title>39</title>
<ellipse fill="none" stroke="#000000" cx="202" cy="-496" rx="187.5" ry="27"/>
<text text-anchor="middle" x="202" y="-499.8" font-family="Times,serif" font-size="14.00" fill="#000000">Other things , again , are both predicable of a</text>
<text text-anchor="middle" x="202" y="-484.8" font-family="Times,serif" font-size="14.00" fill="#000000">subject and present in a subject .</text>
</g>
<!-- 61 -->
<g id="node13" class="node">
<title>61</title>
<ellipse fill="none" stroke="#000000" cx="202" cy="-589" rx="190.4237" ry="48.1667"/>
<text text-anchor="middle" x="202" y="-607.8" font-family="Times,serif" font-size="14.00" fill="#000000">There is , lastly , a class of things which are</text>
<text text-anchor="middle" x="202" y="-592.8" font-family="Times,serif" font-size="14.00" fill="#000000">neither present in a subject nor predicable of a</text>
<text text-anchor="middle" x="202" y="-577.8" font-family="Times,serif" font-size="14.00" fill="#000000">subject , such as the individual man or the</text>
<text text-anchor="middle" x="202" y="-562.8" font-family="Times,serif" font-size="14.00" fill="#000000">individual horse .</text>
</g>
</g>
</svg>
