<?xml version="1.0" encoding="UTF-8" standalone="no"?>
<!DOCTYPE svg PUBLIC "-//W3C//DTD SVG 1.1//EN"
 "http://www.w3.org/Graphics/SVG/1.1/DTD/svg11.dtd">
<!-- Generated by graphviz version 2.40.1 (20161225.0304)
 -->
<!-- Pages: 1 -->
<svg width="1053pt" height="299pt"
 viewBox="0.00 0.00 1053.30 299.00" xmlns="http://www.w3.org/2000/svg" xmlns:xlink="http://www.w3.org/1999/xlink">
<g id="graph0" class="graph" transform="scale(1 1) rotate(0) translate(4 295)">
<polygon fill="#ffffff" stroke="transparent" points="-4,4 -4,-295 1049.3,-295 1049.3,4 -4,4"/>
<g id="clust1" class="cluster">
<title>cluster1</title>
<polygon fill="#d3d3d3" stroke="#d3d3d3" points="548.17,-11 548.17,-168 1045.3,-168 1045.3,-11 548.17,-11"/>
<text text-anchor="middle" x="796.75" y="-152.8" font-family="Times,serif" font-size="14.00" fill="#000000">found contradictions</text>
</g>
<g id="clust2" class="cluster">
<title>cluster2</title>
<polygon fill="#d3d3d3" stroke="#d3d3d3" points="0,-20 0,-291 496.17,-291 496.17,-20 0,-20"/>
<text text-anchor="middle" x="248.08" y="-275.8" font-family="Times,serif" font-size="14.00" fill="#000000">possible new correlations</text>
</g>
<!-- contra36 -->
<g id="node1" class="node">
<title>contra36</title>
<ellipse fill="none" stroke="#000000" cx="648.8" cy="-84" rx="92.7622" ry="48.1667"/>
<text text-anchor="middle" x="648.8" y="-102.8" font-family="Times,serif" font-size="14.00" fill="#000000">Examples of the</text>
<text text-anchor="middle" x="648.8" y="-87.8" font-family="Times,serif" font-size="14.00" fill="#000000">former are such</text>
<text text-anchor="middle" x="648.8" y="-72.8" font-family="Times,serif" font-size="14.00" fill="#000000">expressions as Man ,</text>
<text text-anchor="middle" x="648.8" y="-57.8" font-family="Times,serif" font-size="14.00" fill="#000000">Ox , Runs , Wins</text>
</g>
<!-- contra37 -->
<g id="node2" class="node">
<title>contra37</title>
<ellipse fill="none" stroke="#000000" cx="962.38" cy="-78" rx="75" ry="58.8803"/>
<text text-anchor="middle" x="962.38" y="-104.3" font-family="Times,serif" font-size="14.00" fill="#000000">Examples of the</text>
<text text-anchor="middle" x="962.38" y="-89.3" font-family="Times,serif" font-size="14.00" fill="#000000">latter are such</text>
<text text-anchor="middle" x="962.38" y="-74.3" font-family="Times,serif" font-size="14.00" fill="#000000">expressions as</text>
<text text-anchor="middle" x="962.38" y="-59.3" font-family="Times,serif" font-size="14.00" fill="#000000">Themanruns ,</text>
<text text-anchor="middle" x="962.38" y="-44.3" font-family="Times,serif" font-size="14.00" fill="#000000">Themanwins , .</text>
</g>
<!-- contra36&#45;&gt;contra37 -->
<g id="edge1" class="edge">
<title>contra36&#45;&gt;contra37</title>
<path fill="none" stroke="#000000" d="M741.63,-81.852C762.41,-81.371 778.43,-81 778.43,-81 778.43,-81 828.99,-80.176 877.09,-79.391"/>
<polygon fill="#000000" stroke="#000000" points="877.3583,-82.8872 887.3,-79.225 877.2444,-75.8881 877.3583,-82.8872"/>
<text text-anchor="middle" x="814.43" y="-84.8" font-family="Times,serif" font-size="14.00" fill="#000000">contradiction</text>
</g>
<!-- poss_new17 -->
<g id="node3" class="node">
<title>poss_new17</title>
<ellipse fill="none" stroke="#000000" cx="100.63" cy="-180" rx="87.7537" ry="37.5"/>
<text text-anchor="middle" x="100.63" y="-191.3" font-family="Times,serif" font-size="14.00" fill="#000000">Examples of the</text>
<text text-anchor="middle" x="100.63" y="-176.3" font-family="Times,serif" font-size="14.00" fill="#000000">former are such</text>
<text text-anchor="middle" x="100.63" y="-161.3" font-family="Times,serif" font-size="14.00" fill="#000000">expressions as Man</text>
</g>
<!-- poss_new17&#45;&gt;contra37 -->
<g id="edge6" class="edge">
<title>poss_new17&#45;&gt;contra37</title>
<path fill="none" stroke="#000000" d="M166.61,-155.12C288.84,-109.02 538.17,-15 538.17,-15 538.17,-15 754.61,-47.144 878.29,-65.511"/>
<polygon fill="#000000" stroke="#000000" points="878.0843,-69.0188 888.49,-67.026 879.1128,-62.0947 878.0843,-69.0188"/>
<text text-anchor="middle" x="522.17" y="-3.8" font-family="Times,serif" font-size="14.00" fill="#000000">correl</text>
</g>
<!-- poss_new12 -->
<g id="node4" class="node">
<title>poss_new12</title>
<ellipse fill="none" stroke="#000000" cx="413.22" cy="-212" rx="75" ry="48.1667"/>
<text text-anchor="middle" x="413.22" y="-230.8" font-family="Times,serif" font-size="14.00" fill="#000000">Examples of the</text>
<text text-anchor="middle" x="413.22" y="-215.8" font-family="Times,serif" font-size="14.00" fill="#000000">latter are such</text>
<text text-anchor="middle" x="413.22" y="-200.8" font-family="Times,serif" font-size="14.00" fill="#000000">expressions as</text>
<text text-anchor="middle" x="413.22" y="-185.8" font-family="Times,serif" font-size="14.00" fill="#000000">Themanruns</text>
</g>
<!-- poss_new17&#45;&gt;poss_new12 -->
<g id="edge2" class="edge">
<title>poss_new17&#45;&gt;poss_new12</title>
<path fill="none" stroke="#000000" d="M188.34,-182.19C242.33,-183.53 301.26,-185 301.26,-185 301.26,-185 315.18,-188.36 333.2,-192.7"/>
<polygon fill="#000000" stroke="#000000" points="332.4083,-196.1093 342.95,-195.05 334.0485,-189.3042 332.4083,-196.1093"/>
<text text-anchor="middle" x="265.76" y="-173.8" font-family="Times,serif" font-size="14.00" fill="#000000">possible new</text>
</g>
<!-- poss_new12&#45;&gt;contra36 -->
<g id="edge7" class="edge">
<title>poss_new12&#45;&gt;contra36</title>
<path fill="none" stroke="#000000" d="M470.54,-180.85C502.18,-163.66 541.79,-142.14 575.63,-123.75"/>
<polygon fill="#000000" stroke="#000000" points="577.4428,-126.7484 584.56,-118.9 574.1019,-120.597 577.4428,-126.7484"/>
<text text-anchor="middle" x="522.17" y="-162.8" font-family="Times,serif" font-size="14.00" fill="#000000">correl</text>
</g>
<!-- poss_new12&#45;&gt;poss_new17 -->
<g id="edge3" class="edge">
<title>poss_new12&#45;&gt;poss_new17</title>
<path fill="none" stroke="#000000" d="M338.27,-215.69C287.75,-218.17 230.26,-221 230.26,-221 230.26,-221 207.48,-213.79 181.02,-205.42"/>
<polygon fill="#000000" stroke="#000000" points="181.7298,-201.9738 171.14,-202.3 179.6218,-208.6489 181.7298,-201.9738"/>
<text text-anchor="middle" x="265.76" y="-224.8" font-family="Times,serif" font-size="14.00" fill="#000000">possible new</text>
</g>
<!-- poss_new36 -->
<g id="node5" class="node">
<title>poss_new36</title>
<ellipse fill="none" stroke="#000000" cx="100.63" cy="-76" rx="92.7622" ry="48.1667"/>
<text text-anchor="middle" x="100.63" y="-94.8" font-family="Times,serif" font-size="14.00" fill="#000000">Examples of the</text>
<text text-anchor="middle" x="100.63" y="-79.8" font-family="Times,serif" font-size="14.00" fill="#000000">former are such</text>
<text text-anchor="middle" x="100.63" y="-64.8" font-family="Times,serif" font-size="14.00" fill="#000000">expressions as Man ,</text>
<text text-anchor="middle" x="100.63" y="-49.8" font-family="Times,serif" font-size="14.00" fill="#000000">Ox , Runs , Wins</text>
</g>
<!-- poss_new37 -->
<g id="node6" class="node">
<title>poss_new37</title>
<ellipse fill="none" stroke="#000000" cx="413.22" cy="-87" rx="75" ry="58.8803"/>
<text text-anchor="middle" x="413.22" y="-113.3" font-family="Times,serif" font-size="14.00" fill="#000000">Examples of the</text>
<text text-anchor="middle" x="413.22" y="-98.3" font-family="Times,serif" font-size="14.00" fill="#000000">latter are such</text>
<text text-anchor="middle" x="413.22" y="-83.3" font-family="Times,serif" font-size="14.00" fill="#000000">expressions as</text>
<text text-anchor="middle" x="413.22" y="-68.3" font-family="Times,serif" font-size="14.00" fill="#000000">Themanruns ,</text>
<text text-anchor="middle" x="413.22" y="-53.3" font-family="Times,serif" font-size="14.00" fill="#000000">Themanwins , .</text>
</g>
<!-- poss_new36&#45;&gt;poss_new37 -->
<g id="edge4" class="edge">
<title>poss_new36&#45;&gt;poss_new37</title>
<path fill="none" stroke="#000000" d="M193.31,-76.462C245.88,-76.724 301.26,-77 301.26,-77 301.26,-77 312.74,-78.026 328.35,-79.42"/>
<polygon fill="#000000" stroke="#000000" points="328.2683,-82.9265 338.54,-80.33 328.891,-75.9543 328.2683,-82.9265"/>
<text text-anchor="middle" x="265.76" y="-65.8" font-family="Times,serif" font-size="14.00" fill="#000000">possible new</text>
</g>
<!-- poss_new37&#45;&gt;poss_new36 -->
<g id="edge5" class="edge">
<title>poss_new37&#45;&gt;poss_new36</title>
<path fill="none" stroke="#000000" d="M339.33,-97.5C288.55,-104.72 230.26,-113 230.26,-113 230.26,-113 213.4,-108.19 191.83,-102.03"/>
<polygon fill="#000000" stroke="#000000" points="192.5665,-98.6005 181.99,-99.223 190.6462,-105.332 192.5665,-98.6005"/>
<text text-anchor="middle" x="265.76" y="-116.8" font-family="Times,serif" font-size="14.00" fill="#000000">possible new</text>
</g>
</g>
</svg>
