<?xml version="1.0" encoding="UTF-8" standalone="no"?>
<!DOCTYPE svg PUBLIC "-//W3C//DTD SVG 1.1//EN"
 "http://www.w3.org/Graphics/SVG/1.1/DTD/svg11.dtd">
<!-- Generated by graphviz version 2.40.1 (20161225.0304)
 -->
<!-- Pages: 1 -->
<svg width="1007pt" height="248pt"
 viewBox="0.00 0.00 1006.98 247.50" xmlns="http://www.w3.org/2000/svg" xmlns:xlink="http://www.w3.org/1999/xlink">
<g id="graph0" class="graph" transform="scale(1 1) rotate(0) translate(4 243.5)">
<polygon fill="#ffffff" stroke="transparent" points="-4,4 -4,-243.5 1002.98,-243.5 1002.98,4 -4,4"/>
<!-- 35 -->
<g id="node1" class="node">
<title>35</title>
<ellipse fill="none" stroke="#000000" cx="213.5" cy="-27" rx="213.5" ry="27"/>
<text text-anchor="middle" x="213.5" y="-30.8" font-family="Times,serif" font-size="14.00" fill="#000000">which have both the name answering to the name in</text>
<text text-anchor="middle" x="213.5" y="-15.8" font-family="Times,serif" font-size="14.00" fill="#000000">common</text>
</g>
<!-- 54 -->
<g id="node2" class="node">
<title>54</title>
<ellipse fill="none" stroke="#000000" cx="795.98" cy="-27" rx="201" ry="18"/>
<text text-anchor="middle" x="795.98" y="-23.3" font-family="Times,serif" font-size="14.00" fill="#000000">to be which derive their name from some other name</text>
</g>
<!-- 35&#45;&gt;54 -->
<g id="edge1" class="edge">
<title>35&#45;&gt;54</title>
<path fill="none" stroke="#000000" d="M427.08,-27C478.53,-27 533.46,-27 584.79,-27"/>
<polygon fill="#000000" stroke="#000000" points="585.01,-30.5001 595.01,-27 585.01,-23.5001 585.01,-30.5001"/>
<text text-anchor="middle" x="510.04" y="-30.8" font-family="Times,serif" font-size="14.00" fill="#000000">contradiction *antonym</text>
</g>
<!-- 28 -->
<g id="node3" class="node">
<title>28</title>
<ellipse fill="none" stroke="#000000" cx="213.5" cy="-109" rx="210.6737" ry="37.5"/>
<text text-anchor="middle" x="213.5" y="-120.3" font-family="Times,serif" font-size="14.00" fill="#000000">On the other hand things are said to be named</text>
<text text-anchor="middle" x="213.5" y="-105.3" font-family="Times,serif" font-size="14.00" fill="#000000">Univocally which have both the name answering to</text>
<text text-anchor="middle" x="213.5" y="-90.3" font-family="Times,serif" font-size="14.00" fill="#000000">the name in common</text>
</g>
<!-- 58 -->
<g id="node4" class="node">
<title>58</title>
<ellipse fill="none" stroke="#000000" cx="795.98" cy="-109" rx="150.2735" ry="18"/>
<text text-anchor="middle" x="795.98" y="-105.3" font-family="Times,serif" font-size="14.00" fill="#000000">Things are differ from it in termination</text>
</g>
<!-- 28&#45;&gt;58 -->
<g id="edge2" class="edge">
<title>28&#45;&gt;58</title>
<path fill="none" stroke="#000000" d="M424.61,-109C494.15,-109 570.29,-109 635.43,-109"/>
<polygon fill="#000000" stroke="#000000" points="635.79,-112.5001 645.79,-109 635.79,-105.5001 635.79,-112.5001"/>
<text text-anchor="middle" x="510.04" y="-112.8" font-family="Times,serif" font-size="14.00" fill="#000000">contradiction *antonym</text>
</g>
<!-- 51 -->
<g id="node5" class="node">
<title>51</title>
<ellipse fill="none" stroke="#000000" cx="213.5" cy="-202" rx="195.0803" ry="37.5"/>
<text text-anchor="middle" x="213.5" y="-213.3" font-family="Times,serif" font-size="14.00" fill="#000000">On the other hand , things are said to be named</text>
<text text-anchor="middle" x="213.5" y="-198.3" font-family="Times,serif" font-size="14.00" fill="#000000">Univocally which have both the name and the</text>
<text text-anchor="middle" x="213.5" y="-183.3" font-family="Times,serif" font-size="14.00" fill="#000000">definition answering to the name in common .</text>
</g>
<!-- 71 -->
<g id="node6" class="node">
<title>71</title>
<ellipse fill="none" stroke="#000000" cx="795.98" cy="-202" rx="203" ry="37.5"/>
<text text-anchor="middle" x="795.98" y="-213.3" font-family="Times,serif" font-size="14.00" fill="#000000">Things are said to be named Derivatively , which</text>
<text text-anchor="middle" x="795.98" y="-198.3" font-family="Times,serif" font-size="14.00" fill="#000000">derive their name from some other name , but</text>
<text text-anchor="middle" x="795.98" y="-183.3" font-family="Times,serif" font-size="14.00" fill="#000000">differ from it in termination .</text>
</g>
<!-- 51&#45;&gt;71 -->
<g id="edge3" class="edge">
<title>51&#45;&gt;71</title>
<path fill="none" stroke="#000000" d="M408.67,-202C464.58,-202 525.8,-202 582.73,-202"/>
<polygon fill="#000000" stroke="#000000" points="582.94,-205.5001 592.94,-202 582.94,-198.5001 582.94,-205.5001"/>
<text text-anchor="middle" x="510.04" y="-205.8" font-family="Times,serif" font-size="14.00" fill="#000000">contradiction *antonym</text>
</g>
</g>
</svg>
