<?xml version="1.0" encoding="UTF-8" standalone="no"?>
<!DOCTYPE svg PUBLIC "-//W3C//DTD SVG 1.1//EN"
 "http://www.w3.org/Graphics/SVG/1.1/DTD/svg11.dtd">
<!-- Generated by graphviz version 2.40.1 (20161225.0304)
 -->
<!-- Pages: 1 -->
<svg width="1105pt" height="261pt"
 viewBox="0.00 0.00 1104.86 261.00" xmlns="http://www.w3.org/2000/svg" xmlns:xlink="http://www.w3.org/1999/xlink">
<g id="graph0" class="graph" transform="scale(1 1) rotate(0) translate(4 257)">
<polygon fill="#ffffff" stroke="transparent" points="-4,4 -4,-257 1100.86,-257 1100.86,4 -4,4"/>
<!-- 0 -->
<g id="node1" class="node">
<title>0</title>
<ellipse fill="none" stroke="#000000" cx="333.5" cy="-19" rx="132" ry="18"/>
<text text-anchor="middle" x="333.5" y="-15.3" font-family="Times,serif" font-size="14.00" fill="#000000">Forms of speech are either simple</text>
</g>
<!-- 3 -->
<g id="node2" class="node">
<title>3</title>
<ellipse fill="none" stroke="#000000" cx="964.86" cy="-19" rx="132" ry="18"/>
<text text-anchor="middle" x="964.86" y="-15.3" font-family="Times,serif" font-size="14.00" fill="#000000">Forms of speech are or composite</text>
</g>
<!-- 0&#45;&gt;3 -->
<g id="edge1" class="edge">
<title>0&#45;&gt;3</title>
<path fill="none" stroke="#000000" d="M465.47,-19C569.92,-19 715.51,-19 822.55,-19"/>
<polygon fill="#000000" stroke="#000000" points="822.79,-22.5001 832.79,-19 822.79,-15.5001 822.79,-22.5001"/>
<text text-anchor="middle" x="749.92" y="-22.8" font-family="Times,serif" font-size="14.00" fill="#000000">contradiction *antonym</text>
</g>
<!-- 3&#45;&gt;0 -->
<g id="edge2" class="edge">
<title>3&#45;&gt;0</title>
<path fill="none" stroke="#000000" d="M832.79,-19C728.32,-19 582.72,-19 475.7,-19"/>
<polygon fill="#000000" stroke="#000000" points="475.47,-15.5001 465.47,-19 475.47,-22.5001 475.47,-15.5001"/>
<text text-anchor="middle" x="749.92" y="-3.8" font-family="Times,serif" font-size="14.00" fill="#000000">contradiction *antonym</text>
</g>
<!-- 11 -->
<g id="node3" class="node">
<title>11</title>
<ellipse fill="none" stroke="#000000" cx="333.5" cy="-73" rx="185.4674" ry="18"/>
<text text-anchor="middle" x="333.5" y="-69.3" font-family="Times,serif" font-size="14.00" fill="#000000">Forms of speech are either simple or composite .</text>
</g>
<!-- 36 -->
<g id="node4" class="node">
<title>36</title>
<ellipse fill="none" stroke="#000000" cx="333.5" cy="-127" rx="269.1523" ry="18"/>
<text text-anchor="middle" x="333.5" y="-123.3" font-family="Times,serif" font-size="14.00" fill="#000000">Examples of the former are such expressions as Man , Ox , Runs , Wins</text>
</g>
<!-- 37 -->
<g id="node5" class="node">
<title>37</title>
<ellipse fill="none" stroke="#000000" cx="333.5" cy="-181" rx="284.0496" ry="18"/>
<text text-anchor="middle" x="333.5" y="-177.3" font-family="Times,serif" font-size="14.00" fill="#000000">Examples of the latter are such expressions as Themanruns , Themanwins , .</text>
</g>
<!-- 53 -->
<g id="node6" class="node">
<title>53</title>
<ellipse fill="none" stroke="#000000" cx="333.5" cy="-235" rx="333.5" ry="18"/>
<text text-anchor="middle" x="333.5" y="-231.3" font-family="Times,serif" font-size="14.00" fill="#000000">Of things themselves some are predicable of a subject , and are never present in a subject .</text>
</g>
</g>
</svg>
