<?xml version="1.0" encoding="UTF-8" standalone="no"?>
<!DOCTYPE svg PUBLIC "-//W3C//DTD SVG 1.1//EN"
 "http://www.w3.org/Graphics/SVG/1.1/DTD/svg11.dtd">
<!-- Generated by graphviz version 2.40.1 (20161225.0304)
 -->
<!-- Pages: 1 -->
<svg width="1274pt" height="211pt"
 viewBox="0.00 0.00 1274.20 211.00" xmlns="http://www.w3.org/2000/svg" xmlns:xlink="http://www.w3.org/1999/xlink">
<g id="graph0" class="graph" transform="scale(1 1) rotate(0) translate(4 207)">
<polygon fill="#ffffff" stroke="transparent" points="-4,4 -4,-207 1270.2009,-207 1270.2009,4 -4,4"/>
<!-- 34 -->
<g id="node1" class="node">
<title>34</title>
<ellipse fill="none" stroke="#000000" cx="269.0761" cy="-26" rx="95.5831" ry="18"/>
<text text-anchor="middle" x="269.0761" y="-22.3" font-family="Times,serif" font-size="14.00" fill="#000000">Examples of the former</text>
</g>
<!-- 32 -->
<g id="node2" class="node">
<title>32</title>
<ellipse fill="none" stroke="#000000" cx="982.1761" cy="-18" rx="89.0842" ry="18"/>
<text text-anchor="middle" x="982.1761" y="-14.3" font-family="Times,serif" font-size="14.00" fill="#000000">Examples of the latter</text>
</g>
<!-- 34&#45;&gt;32 -->
<g id="edge1" class="edge">
<title>34&#45;&gt;32</title>
<path fill="none" stroke="#000000" d="M364.5061,-24.929C499.7361,-23.412 745.9161,-20.651 883.1061,-19.111"/>
<polygon fill="#000000" stroke="#000000" points="883.236,-22.6099 893.1961,-18.998 883.1575,-15.6103 883.236,-22.6099"/>
<text text-anchor="middle" x="618.1461" y="-27.8" font-family="Times,serif" font-size="14.00" fill="#000000">contradiction antonym</text>
</g>
<!-- 32&#45;&gt;34 -->
<g id="edge2" class="edge">
<title>32&#45;&gt;34</title>
<path fill="none" stroke="#000000" d="M893.1961,-18.998C761.5961,-20.475 515.5161,-23.235 374.8661,-24.813"/>
<polygon fill="#000000" stroke="#000000" points="374.4663,-21.3172 364.5061,-24.929 374.5447,-28.3167 374.4663,-21.3172"/>
<text text-anchor="middle" x="618.1461" y="-7.8" font-family="Times,serif" font-size="14.00" fill="#000000">contradiction antonym</text>
</g>
<!-- 17 -->
<g id="node3" class="node">
<title>17</title>
<ellipse fill="none" stroke="#000000" cx="269.0761" cy="-114" rx="199.5646" ry="18"/>
<text text-anchor="middle" x="269.0761" y="-110.3" font-family="Times,serif" font-size="14.00" fill="#000000">Examples of the former are such expressions as Man</text>
</g>
<!-- 12 -->
<g id="node4" class="node">
<title>12</title>
<ellipse fill="none" stroke="#000000" cx="982.1761" cy="-102" rx="221" ry="18"/>
<text text-anchor="middle" x="982.1761" y="-98.3" font-family="Times,serif" font-size="14.00" fill="#000000">Examples of the latter are such expressions as Themanruns</text>
</g>
<!-- 17&#45;&gt;12 -->
<g id="edge3" class="edge">
<title>17&#45;&gt;12</title>
<path fill="none" stroke="#000000" d="M465.3461,-110.7C555.1461,-109.19 662.0761,-107.39 755.3061,-105.82"/>
<polygon fill="#000000" stroke="#000000" points="755.5062,-109.3172 765.4461,-105.65 755.3888,-102.3182 755.5062,-109.3172"/>
<text text-anchor="middle" x="618.1461" y="-112.8" font-family="Times,serif" font-size="14.00" fill="#000000">contradiction antonym</text>
</g>
<!-- 12&#45;&gt;17 -->
<g id="edge4" class="edge">
<title>12&#45;&gt;17</title>
<path fill="none" stroke="#000000" d="M765.4461,-105.65C673.3461,-107.2 566.4561,-109 475.5061,-110.53"/>
<polygon fill="#000000" stroke="#000000" points="475.2861,-107.0331 465.3461,-110.7 475.4033,-114.0321 475.2861,-107.0331"/>
<text text-anchor="middle" x="618.1461" y="-91.8" font-family="Times,serif" font-size="14.00" fill="#000000">contradiction antonym</text>
</g>
<!-- 36 -->
<g id="node5" class="node">
<title>36</title>
<ellipse fill="none" stroke="#000000" cx="269.0761" cy="-179" rx="269.1523" ry="18"/>
<text text-anchor="middle" x="269.0761" y="-175.3" font-family="Times,serif" font-size="14.00" fill="#000000">Examples of the former are such expressions as Man , Ox , Runs , Wins</text>
</g>
<!-- 37 -->
<g id="node6" class="node">
<title>37</title>
<ellipse fill="none" stroke="#000000" cx="982.1761" cy="-185" rx="284.0496" ry="18"/>
<text text-anchor="middle" x="982.1761" y="-181.3" font-family="Times,serif" font-size="14.00" fill="#000000">Examples of the latter are such expressions as Themanruns , Themanwins , .</text>
</g>
<!-- 36&#45;&gt;37 -->
<g id="edge5" class="edge">
<title>36&#45;&gt;37</title>
<path fill="none" stroke="#000000" d="M536.1261,-181.25C586.4461,-181.67 639.3061,-182.12 690.3461,-182.54"/>
<polygon fill="#000000" stroke="#000000" points="690.4955,-186.0414 700.5261,-182.63 690.5575,-179.0416 690.4955,-186.0414"/>
<text text-anchor="middle" x="618.1461" y="-185.8" font-family="Times,serif" font-size="14.00" fill="#000000">contradiction antonym</text>
</g>
<!-- 37&#45;&gt;36 -->
<g id="edge6" class="edge">
<title>37&#45;&gt;36</title>
<path fill="none" stroke="#000000" d="M700.5261,-182.63C649.7561,-182.2 596.8661,-181.76 546.2261,-181.33"/>
<polygon fill="#000000" stroke="#000000" points="546.1536,-177.8294 536.1261,-181.25 546.0981,-184.8292 546.1536,-177.8294"/>
<text text-anchor="middle" x="618.1461" y="-166.8" font-family="Times,serif" font-size="14.00" fill="#000000">contradiction antonym</text>
</g>
</g>
</svg>
