<?xml version="1.0" encoding="UTF-8" standalone="no"?>
<!DOCTYPE svg PUBLIC "-//W3C//DTD SVG 1.1//EN"
 "http://www.w3.org/Graphics/SVG/1.1/DTD/svg11.dtd">
<!-- Generated by graphviz version 2.40.1 (20161225.0304)
 -->
<!-- Pages: 1 -->
<svg width="1138pt" height="605pt"
 viewBox="0.00 0.00 1137.70 605.00" xmlns="http://www.w3.org/2000/svg" xmlns:xlink="http://www.w3.org/1999/xlink">
<g id="graph0" class="graph" transform="scale(1 1) rotate(0) translate(4 601)">
<polygon fill="#ffffff" stroke="transparent" points="-4,4 -4,-601 1133.7,-601 1133.7,4 -4,4"/>
<g id="clust1" class="cluster">
<title>cluster2</title>
<polygon fill="#d3d3d3" stroke="#d3d3d3" points="249.02,0 249.02,-123 917.32,-123 917.32,0 249.02,0"/>
<text text-anchor="middle" x="583.17" y="-107.8" font-family="Times,serif" font-size="14.00" fill="#000000">found contradictions</text>
</g>
<g id="clust2" class="cluster">
<title>cluster1</title>
<polygon fill="#d3d3d3" stroke="#d3d3d3" points="0,-131 0,-597 1129.7,-597 1129.7,-131 0,-131"/>
<text text-anchor="middle" x="564.84" y="-581.8" font-family="Times,serif" font-size="14.00" fill="#000000">possible new correlations</text>
</g>
<!-- contra1 -->
<g id="node1" class="node">
<title>contra1</title>
<ellipse fill="none" stroke="#000000" cx="347.53" cy="-65" rx="90.5" ry="27"/>
<text text-anchor="middle" x="347.53" y="-68.8" font-family="Times,serif" font-size="14.00" fill="#000000">Forms of speech are</text>
<text text-anchor="middle" x="347.53" y="-53.8" font-family="Times,serif" font-size="14.00" fill="#000000">either simple</text>
</g>
<!-- contra2 -->
<g id="node2" class="node">
<title>contra2</title>
<ellipse fill="none" stroke="#000000" cx="818.81" cy="-65" rx="90.5" ry="27"/>
<text text-anchor="middle" x="818.81" y="-68.8" font-family="Times,serif" font-size="14.00" fill="#000000">Forms of speech are</text>
<text text-anchor="middle" x="818.81" y="-53.8" font-family="Times,serif" font-size="14.00" fill="#000000">or composite</text>
</g>
<!-- contra1&#45;&gt;contra2 -->
<g id="edge1" class="edge">
<title>contra1&#45;&gt;contra2</title>
<path fill="none" stroke="#000000" d="M433.89,-56.908C508.25,-49.941 603.67,-41 603.67,-41 603.67,-41 666.2,-47.976 723.84,-54.406"/>
<polygon fill="#000000" stroke="#000000" points="723.4535,-57.8845 733.78,-55.515 724.2298,-50.9277 723.4535,-57.8845"/>
<text text-anchor="middle" x="567.67" y="-29.8" font-family="Times,serif" font-size="14.00" fill="#000000">contradiction</text>
</g>
<!-- contra2&#45;&gt;contra1 -->
<g id="edge2" class="edge">
<title>contra2&#45;&gt;contra1</title>
<path fill="none" stroke="#000000" d="M729.14,-68.748C644.89,-72.268 531.67,-77 531.67,-77 531.67,-77 490.01,-74.285 446.32,-71.438"/>
<polygon fill="#000000" stroke="#000000" points="446.2963,-67.9291 436.09,-70.772 445.8415,-74.9143 446.2963,-67.9291"/>
<text text-anchor="middle" x="567.67" y="-80.8" font-family="Times,serif" font-size="14.00" fill="#000000">contradiction</text>
</g>
<!-- poss new0 -->
<g id="node3" class="node">
<title>poss new0</title>
<ellipse fill="none" stroke="#000000" cx="98.51" cy="-537" rx="69.5877" ry="18"/>
<text text-anchor="middle" x="98.51" y="-533.3" font-family="Times,serif" font-size="14.00" fill="#000000">Forms of speech</text>
</g>
<!-- poss new5 -->
<g id="node4" class="node">
<title>poss new5</title>
<ellipse fill="none" stroke="#000000" cx="567.67" cy="-539" rx="75" ry="27"/>
<text text-anchor="middle" x="567.67" y="-542.8" font-family="Times,serif" font-size="14.00" fill="#000000">Examples of the</text>
<text text-anchor="middle" x="567.67" y="-527.8" font-family="Times,serif" font-size="14.00" fill="#000000">former Man</text>
</g>
<!-- poss new0&#45;&gt;poss new5 -->
<g id="edge3" class="edge">
<title>poss new0&#45;&gt;poss new5</title>
<path fill="none" stroke="#000000" d="M165.22,-531.84C249.31,-525.34 383.03,-515 383.03,-515 383.03,-515 437.23,-522.04 486.89,-528.5"/>
<polygon fill="#000000" stroke="#000000" points="486.7029,-532.005 497.07,-529.82 487.6031,-525.0631 486.7029,-532.005"/>
<text text-anchor="middle" x="347.53" y="-503.8" font-family="Times,serif" font-size="14.00" fill="#000000">possible new</text>
</g>
<!-- poss new5&#45;&gt;poss new0 -->
<g id="edge4" class="edge">
<title>poss new5&#45;&gt;poss new0</title>
<path fill="none" stroke="#000000" d="M493.04,-542.5C417.58,-546.05 312.03,-551 312.03,-551 312.03,-551 237.19,-546.09 176.12,-542.09"/>
<polygon fill="#000000" stroke="#000000" points="176.2779,-538.5929 166.07,-541.43 175.8191,-545.5779 176.2779,-538.5929"/>
<text text-anchor="middle" x="347.53" y="-554.8" font-family="Times,serif" font-size="14.00" fill="#000000">possible new</text>
</g>
<!-- poss new1 -->
<g id="node5" class="node">
<title>poss new1</title>
<ellipse fill="none" stroke="#000000" cx="98.51" cy="-439" rx="90.5" ry="27"/>
<text text-anchor="middle" x="98.51" y="-442.8" font-family="Times,serif" font-size="14.00" fill="#000000">Forms of speech are</text>
<text text-anchor="middle" x="98.51" y="-427.8" font-family="Times,serif" font-size="14.00" fill="#000000">either simple</text>
</g>
<!-- poss new6 -->
<g id="node6" class="node">
<title>poss new6</title>
<ellipse fill="none" stroke="#000000" cx="567.67" cy="-395" rx="75" ry="48.1667"/>
<text text-anchor="middle" x="567.67" y="-413.8" font-family="Times,serif" font-size="14.00" fill="#000000">Examples of the</text>
<text text-anchor="middle" x="567.67" y="-398.8" font-family="Times,serif" font-size="14.00" fill="#000000">latter are such</text>
<text text-anchor="middle" x="567.67" y="-383.8" font-family="Times,serif" font-size="14.00" fill="#000000">expressions as</text>
<text text-anchor="middle" x="567.67" y="-368.8" font-family="Times,serif" font-size="14.00" fill="#000000">Themanruns</text>
</g>
<!-- poss new1&#45;&gt;poss new6 -->
<g id="edge5" class="edge">
<title>poss new1&#45;&gt;poss new6</title>
<path fill="none" stroke="#000000" d="M181.98,-428.45C241.87,-420.87 312.03,-412 312.03,-412 312.03,-412 408.31,-405.6 482.7,-400.65"/>
<polygon fill="#000000" stroke="#000000" points="483.2953,-404.1182 493.04,-399.96 482.8291,-397.1337 483.2953,-404.1182"/>
<text text-anchor="middle" x="347.53" y="-415.8" font-family="Times,serif" font-size="14.00" fill="#000000">possible new</text>
</g>
<!-- poss new7 -->
<g id="node7" class="node">
<title>poss new7</title>
<ellipse fill="none" stroke="#000000" cx="1034" cy="-437" rx="87.7537" ry="37.5"/>
<text text-anchor="middle" x="1034" y="-448.3" font-family="Times,serif" font-size="14.00" fill="#000000">Examples of the</text>
<text text-anchor="middle" x="1034" y="-433.3" font-family="Times,serif" font-size="14.00" fill="#000000">former are such</text>
<text text-anchor="middle" x="1034" y="-418.3" font-family="Times,serif" font-size="14.00" fill="#000000">expressions as Man</text>
</g>
<!-- poss new6&#45;&gt;poss new7 -->
<g id="edge6" class="edge">
<title>poss new6&#45;&gt;poss new7</title>
<path fill="none" stroke="#000000" d="M641.88,-402.23C704.26,-408.3 783.31,-416 783.31,-416 783.31,-416 866.8,-422.99 937.41,-428.91"/>
<polygon fill="#000000" stroke="#000000" points="937.4739,-432.4274 947.73,-429.77 938.0552,-425.4515 937.4739,-432.4274"/>
<text text-anchor="middle" x="818.81" y="-419.8" font-family="Times,serif" font-size="14.00" fill="#000000">possible new</text>
</g>
<!-- poss new7&#45;&gt;poss new1 -->
<g id="edge7" class="edge">
<title>poss new7&#45;&gt;poss new1</title>
<path fill="none" stroke="#000000" d="M947.73,-444.22C804.25,-456.23 532.17,-479 532.17,-479 532.17,-479 322.96,-459.7 195.16,-447.92"/>
<polygon fill="#000000" stroke="#000000" points="195.2517,-444.4135 184.97,-446.97 194.6019,-451.3832 195.2517,-444.4135"/>
<text text-anchor="middle" x="567.67" y="-482.8" font-family="Times,serif" font-size="14.00" fill="#000000">possible new</text>
</g>
<!-- poss new2 -->
<g id="node8" class="node">
<title>poss new2</title>
<ellipse fill="none" stroke="#000000" cx="98.51" cy="-318" rx="90.5" ry="27"/>
<text text-anchor="middle" x="98.51" y="-321.8" font-family="Times,serif" font-size="14.00" fill="#000000">Forms of speech are</text>
<text text-anchor="middle" x="98.51" y="-306.8" font-family="Times,serif" font-size="14.00" fill="#000000">or composite</text>
</g>
<!-- poss new3 -->
<g id="node9" class="node">
<title>poss new3</title>
<ellipse fill="none" stroke="#000000" cx="567.67" cy="-291" rx="90.5" ry="37.5"/>
<text text-anchor="middle" x="567.67" y="-302.3" font-family="Times,serif" font-size="14.00" fill="#000000">Forms of speech are</text>
<text text-anchor="middle" x="567.67" y="-287.3" font-family="Times,serif" font-size="14.00" fill="#000000">either simple or</text>
<text text-anchor="middle" x="567.67" y="-272.3" font-family="Times,serif" font-size="14.00" fill="#000000">composite .</text>
</g>
<!-- poss new2&#45;&gt;poss new3 -->
<g id="edge8" class="edge">
<title>poss new2&#45;&gt;poss new3</title>
<path fill="none" stroke="#000000" d="M186.58,-311.81C270.15,-305.94 383.03,-298 383.03,-298 383.03,-298 424.01,-296.45 467.36,-294.8"/>
<polygon fill="#000000" stroke="#000000" points="467.648,-298.2918 477.51,-294.42 467.386,-291.2967 467.648,-298.2918"/>
<text text-anchor="middle" x="347.53" y="-286.8" font-family="Times,serif" font-size="14.00" fill="#000000">possible new</text>
</g>
<!-- poss new3&#45;&gt;poss new2 -->
<g id="edge9" class="edge">
<title>poss new3&#45;&gt;poss new2</title>
<path fill="none" stroke="#000000" d="M483.61,-305.14C409.1,-317.67 312.03,-334 312.03,-334 312.03,-334 252.53,-329.54 196.35,-325.33"/>
<polygon fill="#000000" stroke="#000000" points="196.5124,-321.8325 186.28,-324.58 195.9924,-328.8132 196.5124,-321.8325"/>
<text text-anchor="middle" x="347.53" y="-337.8" font-family="Times,serif" font-size="14.00" fill="#000000">possible new</text>
</g>
<!-- poss new8 -->
<g id="node10" class="node">
<title>poss new8</title>
<ellipse fill="none" stroke="#000000" cx="98.51" cy="-198" rx="75" ry="58.8803"/>
<text text-anchor="middle" x="98.51" y="-224.3" font-family="Times,serif" font-size="14.00" fill="#000000">Examples of the</text>
<text text-anchor="middle" x="98.51" y="-209.3" font-family="Times,serif" font-size="14.00" fill="#000000">latter are such</text>
<text text-anchor="middle" x="98.51" y="-194.3" font-family="Times,serif" font-size="14.00" fill="#000000">expressions as</text>
<text text-anchor="middle" x="98.51" y="-179.3" font-family="Times,serif" font-size="14.00" fill="#000000">Themanruns ,</text>
<text text-anchor="middle" x="98.51" y="-164.3" font-family="Times,serif" font-size="14.00" fill="#000000">Themanwins , .</text>
</g>
<!-- poss new8&#45;&gt;contra1 -->
<g id="edge12" class="edge">
<title>poss new8&#45;&gt;contra1</title>
<path fill="none" stroke="#000000" d="M160.71,-164.78C201.78,-142.84 255.05,-114.39 294.19,-93.49"/>
<polygon fill="#000000" stroke="#000000" points="296.1486,-96.4119 303.32,-88.613 292.8504,-90.2375 296.1486,-96.4119"/>
<text text-anchor="middle" x="223.02" y="-142.8" font-family="Times,serif" font-size="14.00" fill="#000000">correl</text>
</g>
<!-- poss new9 -->
<g id="node11" class="node">
<title>poss new9</title>
<ellipse fill="none" stroke="#000000" cx="567.67" cy="-187" rx="92.7622" ry="48.1667"/>
<text text-anchor="middle" x="567.67" y="-205.8" font-family="Times,serif" font-size="14.00" fill="#000000">Examples of the</text>
<text text-anchor="middle" x="567.67" y="-190.8" font-family="Times,serif" font-size="14.00" fill="#000000">former are such</text>
<text text-anchor="middle" x="567.67" y="-175.8" font-family="Times,serif" font-size="14.00" fill="#000000">expressions as Man ,</text>
<text text-anchor="middle" x="567.67" y="-160.8" font-family="Times,serif" font-size="14.00" fill="#000000">Ox , Runs , Wins</text>
</g>
<!-- poss new8&#45;&gt;poss new9 -->
<g id="edge10" class="edge">
<title>poss new8&#45;&gt;poss new9</title>
<path fill="none" stroke="#000000" d="M173.64,-195.1C257.93,-191.84 383.03,-187 383.03,-187 383.03,-187 422.28,-187 464.59,-187"/>
<polygon fill="#000000" stroke="#000000" points="464.81,-190.5001 474.81,-187 464.81,-183.5001 464.81,-190.5001"/>
<text text-anchor="middle" x="347.53" y="-175.8" font-family="Times,serif" font-size="14.00" fill="#000000">possible new</text>
</g>
<!-- poss new9&#45;&gt;contra2 -->
<g id="edge13" class="edge">
<title>poss new9&#45;&gt;contra2</title>
<path fill="none" stroke="#000000" d="M635.63,-153.99C675.27,-134.73 724.69,-110.72 762.2,-92.5"/>
<polygon fill="#000000" stroke="#000000" points="764.0044,-95.5147 771.47,-87.997 760.9458,-89.2182 764.0044,-95.5147"/>
<text text-anchor="middle" x="694.3" y="-132.8" font-family="Times,serif" font-size="14.00" fill="#000000">correl</text>
</g>
<!-- poss new9&#45;&gt;poss new8 -->
<g id="edge11" class="edge">
<title>poss new9&#45;&gt;poss new8</title>
<path fill="none" stroke="#000000" d="M478.26,-199.59C404.54,-209.97 312.03,-223 312.03,-223 312.03,-223 242.76,-214.89 183.13,-207.91"/>
<polygon fill="#000000" stroke="#000000" points="183.2294,-204.3978 172.89,-206.71 182.4146,-211.3502 183.2294,-204.3978"/>
<text text-anchor="middle" x="347.53" y="-226.8" font-family="Times,serif" font-size="14.00" fill="#000000">possible new</text>
</g>
</g>
</svg>
