<?xml version="1.0" encoding="UTF-8" standalone="no"?>
<!DOCTYPE svg PUBLIC "-//W3C//DTD SVG 1.1//EN"
 "http://www.w3.org/Graphics/SVG/1.1/DTD/svg11.dtd">
<!-- Generated by graphviz version 2.40.1 (20161225.0304)
 -->
<!-- Pages: 1 -->
<svg width="696pt" height="45pt"
 viewBox="0.00 0.00 695.87 45.00" xmlns="http://www.w3.org/2000/svg" xmlns:xlink="http://www.w3.org/1999/xlink">
<g id="graph0" class="graph" transform="scale(1 1) rotate(0) translate(4 41)">
<polygon fill="#ffffff" stroke="transparent" points="-4,4 -4,-41 691.87,-41 691.87,4 -4,4"/>
<!-- 0 -->
<g id="node1" class="node">
<title>0</title>
<ellipse fill="none" stroke="#000000" cx="132" cy="-19" rx="132" ry="18"/>
<text text-anchor="middle" x="132" y="-15.3" font-family="Times,serif" font-size="14.00" fill="#000000">Forms of speech are either simple</text>
</g>
<!-- 3 -->
<g id="node2" class="node">
<title>3</title>
<ellipse fill="none" stroke="#000000" cx="555.87" cy="-19" rx="132" ry="18"/>
<text text-anchor="middle" x="555.87" y="-15.3" font-family="Times,serif" font-size="14.00" fill="#000000">Forms of speech are or composite</text>
</g>
<!-- 0&#45;&gt;3 -->
<g id="edge1" class="edge">
<title>0&#45;&gt;3</title>
<path fill="none" stroke="#000000" d="M264.08,-19C311.49,-19 365.14,-19 413.39,-19"/>
<polygon fill="#000000" stroke="#000000" points="413.6,-22.5001 423.6,-19 413.6,-15.5001 413.6,-22.5001"/>
<text text-anchor="middle" x="343.94" y="-22.8" font-family="Times,serif" font-size="14.00" fill="#000000">contradiction antonym</text>
</g>
<!-- 3&#45;&gt;0 -->
<g id="edge2" class="edge">
<title>3&#45;&gt;0</title>
<path fill="none" stroke="#000000" d="M423.6,-19C376.18,-19 322.53,-19 274.29,-19"/>
<polygon fill="#000000" stroke="#000000" points="274.08,-15.5001 264.08,-19 274.08,-22.5001 274.08,-15.5001"/>
<text text-anchor="middle" x="343.94" y="-3.8" font-family="Times,serif" font-size="14.00" fill="#000000">contradiction antonym</text>
</g>
</g>
</svg>
