<?xml version="1.0" encoding="UTF-8" standalone="no"?>
<!DOCTYPE svg PUBLIC "-//W3C//DTD SVG 1.1//EN"
 "http://www.w3.org/Graphics/SVG/1.1/DTD/svg11.dtd">
<!-- Generated by graphviz version 2.40.1 (20161225.0304)
 -->
<!-- Pages: 1 -->
<svg width="1015pt" height="519pt"
 viewBox="0.00 0.00 1015.28 518.50" xmlns="http://www.w3.org/2000/svg" xmlns:xlink="http://www.w3.org/1999/xlink">
<g id="graph0" class="graph" transform="scale(1 1) rotate(0) translate(4 514.5)">
<polygon fill="#ffffff" stroke="transparent" points="-4,4 -4,-514.5 1011.2835,-514.5 1011.2835,4 -4,4"/>
<!-- 12 -->
<g id="node1" class="node">
<title>12</title>
<ellipse fill="none" stroke="#000000" cx="207.0535" cy="-27" rx="201.5" ry="27"/>
<text text-anchor="middle" x="207.0535" y="-30.8" font-family="Times,serif" font-size="14.00" fill="#000000">when the definition corresponding with the name</text>
<text text-anchor="middle" x="207.0535" y="-15.8" font-family="Times,serif" font-size="14.00" fill="#000000">differs for each</text>
</g>
<!-- 49 -->
<g id="node2" class="node">
<title>49</title>
<ellipse fill="none" stroke="#000000" cx="793.7835" cy="-27" rx="188" ry="18"/>
<text text-anchor="middle" x="793.7835" y="-23.3" font-family="Times,serif" font-size="14.00" fill="#000000">both the name answering to the name in common</text>
</g>
<!-- 12&#45;&gt;49 -->
<g id="edge1" class="edge">
<title>12&#45;&gt;49</title>
<path fill="none" stroke="#000000" d="M408.9735,-27C469.2935,-27 535.3435,-27 595.4335,-27"/>
<polygon fill="#000000" stroke="#000000" points="595.8035,-30.5001 605.8035,-27 595.8035,-23.5001 595.8035,-30.5001"/>
<text text-anchor="middle" x="497.2335" y="-30.8" font-family="Times,serif" font-size="14.00" fill="#000000">contradiction *antonym</text>
</g>
<!-- 5 -->
<g id="node3" class="node">
<title>5</title>
<ellipse fill="none" stroke="#000000" cx="207.0535" cy="-99" rx="186" ry="27"/>
<text text-anchor="middle" x="207.0535" y="-102.8" font-family="Times,serif" font-size="14.00" fill="#000000">to be named Equivocally when the definition</text>
<text text-anchor="middle" x="207.0535" y="-87.8" font-family="Times,serif" font-size="14.00" fill="#000000">corresponding with the name differs for each</text>
</g>
<!-- 35 -->
<g id="node4" class="node">
<title>35</title>
<ellipse fill="none" stroke="#000000" cx="793.7835" cy="-99" rx="213.5" ry="27"/>
<text text-anchor="middle" x="793.7835" y="-102.8" font-family="Times,serif" font-size="14.00" fill="#000000">which have both the name answering to the name in</text>
<text text-anchor="middle" x="793.7835" y="-87.8" font-family="Times,serif" font-size="14.00" fill="#000000">common</text>
</g>
<!-- 5&#45;&gt;35 -->
<g id="edge2" class="edge">
<title>5&#45;&gt;35</title>
<path fill="none" stroke="#000000" d="M393.1035,-99C449.3435,-99 511.6835,-99 570.1135,-99"/>
<polygon fill="#000000" stroke="#000000" points="570.2135,-102.5001 580.2135,-99 570.2135,-95.5001 570.2135,-102.5001"/>
<text text-anchor="middle" x="497.2335" y="-102.8" font-family="Times,serif" font-size="14.00" fill="#000000">contradiction *antonym</text>
</g>
<!-- 0 -->
<g id="node5" class="node">
<title>0</title>
<ellipse fill="none" stroke="#000000" cx="207.0535" cy="-181" rx="207.107" ry="37.5"/>
<text text-anchor="middle" x="207.0535" y="-192.3" font-family="Times,serif" font-size="14.00" fill="#000000">Things are said to be named Equivocally when the</text>
<text text-anchor="middle" x="207.0535" y="-177.3" font-family="Times,serif" font-size="14.00" fill="#000000">definition corresponding with the name differs for</text>
<text text-anchor="middle" x="207.0535" y="-162.3" font-family="Times,serif" font-size="14.00" fill="#000000">each</text>
</g>
<!-- 28 -->
<g id="node6" class="node">
<title>28</title>
<ellipse fill="none" stroke="#000000" cx="793.7835" cy="-181" rx="210.6737" ry="37.5"/>
<text text-anchor="middle" x="793.7835" y="-192.3" font-family="Times,serif" font-size="14.00" fill="#000000">On the other hand things are said to be named</text>
<text text-anchor="middle" x="793.7835" y="-177.3" font-family="Times,serif" font-size="14.00" fill="#000000">Univocally which have both the name answering to</text>
<text text-anchor="middle" x="793.7835" y="-162.3" font-family="Times,serif" font-size="14.00" fill="#000000">the name in common</text>
</g>
<!-- 0&#45;&gt;28 -->
<g id="edge3" class="edge">
<title>0&#45;&gt;28</title>
<path fill="none" stroke="#000000" d="M414.3235,-181C465.4935,-181 520.5035,-181 572.3135,-181"/>
<polygon fill="#000000" stroke="#000000" points="572.6335,-184.5001 582.6335,-181 572.6335,-177.5001 572.6335,-184.5001"/>
<text text-anchor="middle" x="497.2335" y="-184.8" font-family="Times,serif" font-size="14.00" fill="#000000">contradiction *antonym</text>
</g>
<!-- 27 -->
<g id="node7" class="node">
<title>27</title>
<ellipse fill="none" stroke="#000000" cx="207.0535" cy="-301" rx="205" ry="37.5"/>
<text text-anchor="middle" x="207.0535" y="-312.3" font-family="Times,serif" font-size="14.00" fill="#000000">Things are said to be named Equivocally when ,</text>
<text text-anchor="middle" x="207.0535" y="-297.3" font-family="Times,serif" font-size="14.00" fill="#000000">though they have a common name , the definition</text>
<text text-anchor="middle" x="207.0535" y="-282.3" font-family="Times,serif" font-size="14.00" fill="#000000">corresponding with the name differs for each .</text>
</g>
<!-- 51 -->
<g id="node8" class="node">
<title>51</title>
<ellipse fill="none" stroke="#000000" cx="793.7835" cy="-327" rx="195.0803" ry="37.5"/>
<text text-anchor="middle" x="793.7835" y="-338.3" font-family="Times,serif" font-size="14.00" fill="#000000">On the other hand , things are said to be named</text>
<text text-anchor="middle" x="793.7835" y="-323.3" font-family="Times,serif" font-size="14.00" fill="#000000">Univocally which have both the name and the</text>
<text text-anchor="middle" x="793.7835" y="-308.3" font-family="Times,serif" font-size="14.00" fill="#000000">definition answering to the name in common .</text>
</g>
<!-- 27&#45;&gt;51 -->
<g id="edge4" class="edge">
<title>27&#45;&gt;51</title>
<path fill="none" stroke="#000000" d="M406.5135,-309.84C466.7735,-312.51 532.9535,-315.44 593.2835,-318.12"/>
<polygon fill="#000000" stroke="#000000" points="593.1595,-321.6178 603.3035,-318.56 593.4667,-314.6246 593.1595,-321.6178"/>
<text text-anchor="middle" x="497.2335" y="-320.8" font-family="Times,serif" font-size="14.00" fill="#000000">contradiction *antonym</text>
</g>
<!-- 54 -->
<g id="node9" class="node">
<title>54</title>
<ellipse fill="none" stroke="#000000" cx="793.7835" cy="-254" rx="201" ry="18"/>
<text text-anchor="middle" x="793.7835" y="-250.3" font-family="Times,serif" font-size="14.00" fill="#000000">to be which derive their name from some other name</text>
</g>
<!-- 27&#45;&gt;54 -->
<g id="edge5" class="edge">
<title>27&#45;&gt;54</title>
<path fill="none" stroke="#000000" d="M395.1235,-285.94C471.9535,-279.78 559.8935,-272.74 633.5935,-266.83"/>
<polygon fill="#000000" stroke="#000000" points="634.2125,-270.2919 643.9035,-266.01 633.6574,-263.3139 634.2125,-270.2919"/>
<text text-anchor="middle" x="497.2335" y="-285.8" font-family="Times,serif" font-size="14.00" fill="#000000">contradiction *antonym</text>
</g>
<!-- 23 -->
<g id="node10" class="node">
<title>23</title>
<ellipse fill="none" stroke="#000000" cx="207.0535" cy="-400" rx="71" ry="18"/>
<text text-anchor="middle" x="207.0535" y="-396.3" font-family="Times,serif" font-size="14.00" fill="#000000">a common name</text>
</g>
<!-- 58 -->
<g id="node11" class="node">
<title>58</title>
<ellipse fill="none" stroke="#000000" cx="793.7835" cy="-400" rx="150.2735" ry="18"/>
<text text-anchor="middle" x="793.7835" y="-396.3" font-family="Times,serif" font-size="14.00" fill="#000000">Things are differ from it in termination</text>
</g>
<!-- 23&#45;&gt;58 -->
<g id="edge6" class="edge">
<title>23&#45;&gt;58</title>
<path fill="none" stroke="#000000" d="M278.1235,-400C365.7235,-400 517.2435,-400 633.4435,-400"/>
<polygon fill="#000000" stroke="#000000" points="633.5135,-403.5001 643.5135,-400 633.5135,-396.5001 633.5135,-403.5001"/>
<text text-anchor="middle" x="497.2335" y="-403.8" font-family="Times,serif" font-size="14.00" fill="#000000">contradiction *antonym</text>
</g>
<!-- 9 -->
<g id="node12" class="node">
<title>9</title>
<ellipse fill="none" stroke="#000000" cx="207.0535" cy="-473" rx="134" ry="18"/>
<text text-anchor="middle" x="207.0535" y="-469.3" font-family="Times,serif" font-size="14.00" fill="#000000">though they have a common name</text>
</g>
<!-- 71 -->
<g id="node13" class="node">
<title>71</title>
<ellipse fill="none" stroke="#000000" cx="793.7835" cy="-473" rx="203" ry="37.5"/>
<text text-anchor="middle" x="793.7835" y="-484.3" font-family="Times,serif" font-size="14.00" fill="#000000">Things are said to be named Derivatively , which</text>
<text text-anchor="middle" x="793.7835" y="-469.3" font-family="Times,serif" font-size="14.00" fill="#000000">derive their name from some other name , but</text>
<text text-anchor="middle" x="793.7835" y="-454.3" font-family="Times,serif" font-size="14.00" fill="#000000">differ from it in termination .</text>
</g>
<!-- 9&#45;&gt;71 -->
<g id="edge7" class="edge">
<title>9&#45;&gt;71</title>
<path fill="none" stroke="#000000" d="M341.2935,-473C412.0935,-473 500.6235,-473 580.5535,-473"/>
<polygon fill="#000000" stroke="#000000" points="580.7635,-476.5001 590.7635,-473 580.7635,-469.5001 580.7635,-476.5001"/>
<text text-anchor="middle" x="497.2335" y="-476.8" font-family="Times,serif" font-size="14.00" fill="#000000">contradiction *antonym</text>
</g>
</g>
</svg>
