<?xml version="1.0" encoding="UTF-8" standalone="no"?>
<!DOCTYPE svg PUBLIC "-//W3C//DTD SVG 1.1//EN"
 "http://www.w3.org/Graphics/SVG/1.1/DTD/svg11.dtd">
<!-- Generated by graphviz version 2.40.1 (20161225.0304)
 -->
<!-- Pages: 1 -->
<svg width="935pt" height="588pt"
 viewBox="0.00 0.00 935.24 588.00" xmlns="http://www.w3.org/2000/svg" xmlns:xlink="http://www.w3.org/1999/xlink">
<g id="graph0" class="graph" transform="scale(1 1) rotate(0) translate(4 584)">
<polygon fill="#ffffff" stroke="transparent" points="-4,4 -4,-584 931.24,-584 931.24,4 -4,4"/>
<g id="clust1" class="cluster">
<title>cluster2</title>
<polygon fill="#d3d3d3" stroke="#d3d3d3" points="269.53,0 269.53,-395 927.24,-395 927.24,0 269.53,0"/>
<text text-anchor="middle" x="598.39" y="-379.8" font-family="Times,serif" font-size="14.00" fill="#000000">Possible New Correlations</text>
</g>
<g id="clust2" class="cluster">
<title>cluster1</title>
<polygon fill="#d3d3d3" stroke="#d3d3d3" points="0,-403 0,-580 632.25,-580 632.25,-403 0,-403"/>
<text text-anchor="middle" x="316.12" y="-564.8" font-family="Times,serif" font-size="14.00" fill="#000000">Found Contradictions</text>
</g>
<!-- poss_new87 -->
<g id="node1" class="node">
<title>poss_new87</title>
<ellipse fill="none" stroke="#000000" cx="370.17" cy="-337" rx="61" ry="27"/>
<text text-anchor="middle" x="370.17" y="-340.8" font-family="Times,serif" font-size="14.00" fill="#000000">grammatical</text>
<text text-anchor="middle" x="370.17" y="-325.8" font-family="Times,serif" font-size="14.00" fill="#000000">knowledge</text>
</g>
<!-- poss_new102 -->
<g id="node2" class="node">
<title>poss_new102</title>
<ellipse fill="none" stroke="#000000" cx="820.24" cy="-327" rx="92.6469" ry="37.5"/>
<text text-anchor="middle" x="820.24" y="-338.3" font-family="Times,serif" font-size="14.00" fill="#000000">while knowledge is</text>
<text text-anchor="middle" x="820.24" y="-323.3" font-family="Times,serif" font-size="14.00" fill="#000000">present in the human</text>
<text text-anchor="middle" x="820.24" y="-308.3" font-family="Times,serif" font-size="14.00" fill="#000000">mind</text>
</g>
<!-- poss_new87&#45;&gt;poss_new102 -->
<g id="edge1" class="edge">
<title>poss_new87&#45;&gt;poss_new102</title>
<path fill="none" stroke="#000000" d="M429.41,-330.47C493.92,-323.37 588.02,-313 588.02,-313 588.02,-313 655.8,-317.09 718.12,-320.84"/>
<polygon fill="#000000" stroke="#000000" points="718.2656,-324.3553 728.46,-321.47 718.6914,-317.3682 718.2656,-324.3553"/>
<text text-anchor="middle" x="562.02" y="-301.8" font-family="Times,serif" font-size="14.00" fill="#000000">*opposed</text>
</g>
<!-- poss_new102&#45;&gt;poss_new87 -->
<g id="edge2" class="edge">
<title>poss_new102&#45;&gt;poss_new87</title>
<path fill="none" stroke="#000000" d="M729.14,-334.05C646.01,-340.49 536.02,-349 536.02,-349 536.02,-349 485.82,-345.37 440.65,-342.1"/>
<polygon fill="#000000" stroke="#000000" points="440.7355,-338.5972 430.51,-341.37 440.2328,-345.5791 440.7355,-338.5972"/>
<text text-anchor="middle" x="562.02" y="-352.8" font-family="Times,serif" font-size="14.00" fill="#000000">*opposed</text>
</g>
<!-- poss_new89 -->
<g id="node3" class="node">
<title>poss_new89</title>
<ellipse fill="none" stroke="#000000" cx="370.17" cy="-254" rx="78" ry="18"/>
<text text-anchor="middle" x="370.17" y="-250.3" font-family="Times,serif" font-size="14.00" fill="#000000">a certain whiteness</text>
</g>
<!-- poss_new113 -->
<g id="node4" class="node">
<title>poss_new113</title>
<ellipse fill="none" stroke="#000000" cx="820.24" cy="-254" rx="69.5877" ry="18"/>
<text text-anchor="middle" x="820.24" y="-250.3" font-family="Times,serif" font-size="14.00" fill="#000000">the human mind</text>
</g>
<!-- poss_new89&#45;&gt;poss_new113 -->
<g id="edge3" class="edge">
<title>poss_new89&#45;&gt;poss_new113</title>
<path fill="none" stroke="#000000" d="M429.7,-242.25C494.2,-229.52 588.02,-211 588.02,-211 588.02,-211 684.92,-228.94 753.53,-241.65"/>
<polygon fill="#000000" stroke="#000000" points="752.9604,-245.1039 763.43,-243.48 754.2328,-238.2205 752.9604,-245.1039"/>
<text text-anchor="middle" x="562.02" y="-199.8" font-family="Times,serif" font-size="14.00" fill="#000000">*opposed</text>
</g>
<!-- poss_new113&#45;&gt;poss_new89 -->
<g id="edge4" class="edge">
<title>poss_new113&#45;&gt;poss_new89</title>
<path fill="none" stroke="#000000" d="M750.71,-252.29C666.57,-250.22 536.02,-247 536.02,-247 536.02,-247 497.4,-248.63 457.43,-250.32"/>
<polygon fill="#000000" stroke="#000000" points="457.113,-246.8302 447.27,-250.75 457.4091,-253.8239 457.113,-246.8302"/>
<text text-anchor="middle" x="562.02" y="-250.8" font-family="Times,serif" font-size="14.00" fill="#000000">*opposed</text>
</g>
<!-- poss_new85 -->
<g id="node5" class="node">
<title>poss_new85</title>
<ellipse fill="none" stroke="#000000" cx="370.17" cy="-181" rx="78" ry="37.5"/>
<text text-anchor="middle" x="370.17" y="-192.3" font-family="Times,serif" font-size="14.00" fill="#000000">a certain point of</text>
<text text-anchor="middle" x="370.17" y="-177.3" font-family="Times,serif" font-size="14.00" fill="#000000">grammatical</text>
<text text-anchor="middle" x="370.17" y="-162.3" font-family="Times,serif" font-size="14.00" fill="#000000">knowledge</text>
</g>
<!-- poss_new105 -->
<g id="node6" class="node">
<title>poss_new105</title>
<ellipse fill="none" stroke="#000000" cx="820.24" cy="-181" rx="62.374" ry="37.5"/>
<text text-anchor="middle" x="820.24" y="-192.3" font-family="Times,serif" font-size="14.00" fill="#000000">Thus it is</text>
<text text-anchor="middle" x="820.24" y="-177.3" font-family="Times,serif" font-size="14.00" fill="#000000">predicable of</text>
<text text-anchor="middle" x="820.24" y="-162.3" font-family="Times,serif" font-size="14.00" fill="#000000">grammar</text>
</g>
<!-- poss_new85&#45;&gt;poss_new105 -->
<g id="edge5" class="edge">
<title>poss_new85&#45;&gt;poss_new105</title>
<path fill="none" stroke="#000000" d="M446.83,-174.38C518.16,-168.23 613.52,-160 613.52,-160 613.52,-160 688.87,-167.65 748.59,-173.72"/>
<polygon fill="#000000" stroke="#000000" points="748.4763,-177.2265 758.78,-174.76 749.1871,-170.2627 748.4763,-177.2265"/>
<text text-anchor="middle" x="562.02" y="-148.8" font-family="Times,serif" font-size="14.00" fill="#000000">possibly correlated</text>
</g>
<!-- poss_new56 -->
<g id="node7" class="node">
<title>poss_new56</title>
<ellipse fill="none" stroke="#000000" cx="370.17" cy="-67" rx="92.7622" ry="58.8803"/>
<text text-anchor="middle" x="370.17" y="-93.3" font-family="Times,serif" font-size="14.00" fill="#000000">For instance a</text>
<text text-anchor="middle" x="370.17" y="-78.3" font-family="Times,serif" font-size="14.00" fill="#000000">certain point of</text>
<text text-anchor="middle" x="370.17" y="-63.3" font-family="Times,serif" font-size="14.00" fill="#000000">grammatical</text>
<text text-anchor="middle" x="370.17" y="-48.3" font-family="Times,serif" font-size="14.00" fill="#000000">knowledge is present</text>
<text text-anchor="middle" x="370.17" y="-33.3" font-family="Times,serif" font-size="14.00" fill="#000000">in the mind</text>
</g>
<!-- poss_new115 -->
<g id="node8" class="node">
<title>poss_new115</title>
<ellipse fill="none" stroke="#000000" cx="820.24" cy="-67" rx="99" ry="58.8803"/>
<text text-anchor="middle" x="820.24" y="-93.3" font-family="Times,serif" font-size="14.00" fill="#000000">Thus while knowledge</text>
<text text-anchor="middle" x="820.24" y="-78.3" font-family="Times,serif" font-size="14.00" fill="#000000">is present in the</text>
<text text-anchor="middle" x="820.24" y="-63.3" font-family="Times,serif" font-size="14.00" fill="#000000">human mind , it is</text>
<text text-anchor="middle" x="820.24" y="-48.3" font-family="Times,serif" font-size="14.00" fill="#000000">predicable of</text>
<text text-anchor="middle" x="820.24" y="-33.3" font-family="Times,serif" font-size="14.00" fill="#000000">grammar .</text>
</g>
<!-- poss_new56&#45;&gt;poss_new115 -->
<g id="edge6" class="edge">
<title>poss_new56&#45;&gt;poss_new115</title>
<path fill="none" stroke="#000000" d="M463,-67C489.1,-67 510.52,-67 510.52,-67 510.52,-67 621.64,-67 710.77,-67"/>
<polygon fill="#000000" stroke="#000000" points="710.97,-70.5001 720.97,-67 710.97,-63.5001 710.97,-70.5001"/>
<text text-anchor="middle" x="562.02" y="-70.8" font-family="Times,serif" font-size="14.00" fill="#000000">possibly correlated</text>
</g>
<!-- contra69 -->
<g id="node9" class="node">
<title>contra69</title>
<ellipse fill="none" stroke="#000000" cx="94.27" cy="-480" rx="86.5" ry="69.5"/>
<text text-anchor="middle" x="94.27" y="-513.8" font-family="Times,serif" font-size="14.00" fill="#000000">For instance , a</text>
<text text-anchor="middle" x="94.27" y="-498.8" font-family="Times,serif" font-size="14.00" fill="#000000">certain point of</text>
<text text-anchor="middle" x="94.27" y="-483.8" font-family="Times,serif" font-size="14.00" fill="#000000">grammatical</text>
<text text-anchor="middle" x="94.27" y="-468.8" font-family="Times,serif" font-size="14.00" fill="#000000">knowledge it is</text>
<text text-anchor="middle" x="94.27" y="-453.8" font-family="Times,serif" font-size="14.00" fill="#000000">never predicable of</text>
<text text-anchor="middle" x="94.27" y="-438.8" font-family="Times,serif" font-size="14.00" fill="#000000">anything</text>
</g>
<!-- contra69&#45;&gt;poss_new87 -->
<g id="edge8" class="edge">
<title>contra69&#45;&gt;poss_new87</title>
<path fill="none" stroke="#000000" d="M166.76,-442.43C215.54,-417.14 278.55,-384.48 321.43,-362.26"/>
<polygon fill="#000000" stroke="#000000" points="323.2579,-365.255 330.53,-357.55 320.0402,-359.0383 323.2579,-365.255"/>
<text text-anchor="middle" x="229.03" y="-428.8" font-family="Times,serif" font-size="14.00" fill="#000000">*correlated</text>
</g>
<!-- contra69&#45;&gt;poss_new89 -->
<g id="edge9" class="edge">
<title>contra69&#45;&gt;poss_new89</title>
<path fill="none" stroke="#000000" d="M154.81,-430.4C212.48,-383.16 296.84,-314.06 340.9,-277.97"/>
<polygon fill="#000000" stroke="#000000" points="343.3798,-280.4632 348.9,-271.42 338.9453,-275.0469 343.3798,-280.4632"/>
<text text-anchor="middle" x="229.03" y="-372.8" font-family="Times,serif" font-size="14.00" fill="#000000">*correlated</text>
</g>
<!-- contra105 -->
<g id="node10" class="node">
<title>contra105</title>
<ellipse fill="none" stroke="#000000" cx="562.02" cy="-448" rx="62.374" ry="37.5"/>
<text text-anchor="middle" x="562.02" y="-459.3" font-family="Times,serif" font-size="14.00" fill="#000000">Thus it is</text>
<text text-anchor="middle" x="562.02" y="-444.3" font-family="Times,serif" font-size="14.00" fill="#000000">predicable of</text>
<text text-anchor="middle" x="562.02" y="-429.3" font-family="Times,serif" font-size="14.00" fill="#000000">grammar</text>
</g>
<!-- contra69&#45;&gt;contra105 -->
<g id="edge7" class="edge">
<title>contra69&#45;&gt;contra105</title>
<path fill="none" stroke="#000000" d="M180.54,-474.25C249.31,-469.66 334.17,-464 334.17,-464 334.17,-464 423.21,-457.75 489.97,-453.06"/>
<polygon fill="#000000" stroke="#000000" points="490.3304,-456.5434 500.06,-452.35 489.839,-449.5607 490.3304,-456.5434"/>
<text text-anchor="middle" x="370.17" y="-467.8" font-family="Times,serif" font-size="14.00" fill="#000000">contradicting</text>
</g>
<!-- contra105&#45;&gt;poss_new102 -->
<g id="edge10" class="edge">
<title>contra105&#45;&gt;poss_new102</title>
<path fill="none" stroke="#000000" d="M611.2,-424.96C650.54,-406.52 706.21,-380.43 750.21,-359.81"/>
<polygon fill="#000000" stroke="#000000" points="751.8393,-362.9118 759.41,-355.5 748.8696,-356.5729 751.8393,-362.9118"/>
<text text-anchor="middle" x="672.75" y="-428.8" font-family="Times,serif" font-size="14.00" fill="#000000">*correlated</text>
</g>
<!-- contra105&#45;&gt;poss_new113 -->
<g id="edge11" class="edge">
<title>contra105&#45;&gt;poss_new113</title>
<path fill="none" stroke="#000000" d="M600.96,-418.75C652.53,-380 742.43,-312.46 789.51,-277.09"/>
<polygon fill="#000000" stroke="#000000" points="791.617,-279.8848 797.51,-271.08 787.4125,-274.2881 791.617,-279.8848"/>
<text text-anchor="middle" x="672.75" y="-387.8" font-family="Times,serif" font-size="14.00" fill="#000000">*correlated</text>
</g>
</g>
</svg>
