<?xml version="1.0" encoding="UTF-8" standalone="no"?>
<!DOCTYPE svg PUBLIC "-//W3C//DTD SVG 1.1//EN"
 "http://www.w3.org/Graphics/SVG/1.1/DTD/svg11.dtd">
<!-- Generated by graphviz version 2.40.1 (20161225.0304)
 -->
<!-- Pages: 1 -->
<svg width="988pt" height="567pt"
 viewBox="0.00 0.00 987.56 567.00" xmlns="http://www.w3.org/2000/svg" xmlns:xlink="http://www.w3.org/1999/xlink">
<g id="graph0" class="graph" transform="scale(1 1) rotate(0) translate(4 563)">
<polygon fill="#ffffff" stroke="transparent" points="-4,4 -4,-563 983.56,-563 983.56,4 -4,4"/>
<g id="clust1" class="cluster">
<title>cluster1</title>
<polygon fill="#d3d3d3" stroke="#d3d3d3" points="0,-446 0,-559 684.57,-559 684.57,-446 0,-446"/>
<text text-anchor="middle" x="342.29" y="-543.8" font-family="Times,serif" font-size="14.00" fill="#000000">Found Contradictions</text>
</g>
<g id="clust2" class="cluster">
<title>cluster2</title>
<polygon fill="#d3d3d3" stroke="#d3d3d3" points="276.61,0 276.61,-438 979.56,-438 979.56,0 276.61,0"/>
<text text-anchor="middle" x="628.08" y="-422.8" font-family="Times,serif" font-size="14.00" fill="#000000">Possible New Correlations</text>
</g>
<!-- contra18 -->
<g id="node1" class="node">
<title>contra18</title>
<ellipse fill="none" stroke="#000000" cx="97.8" cy="-486" rx="90" ry="27"/>
<text text-anchor="middle" x="97.8" y="-489.8" font-family="Times,serif" font-size="14.00" fill="#000000">Thus , Man is never</text>
<text text-anchor="middle" x="97.8" y="-474.8" font-family="Times,serif" font-size="14.00" fill="#000000">present in a subject</text>
</g>
<!-- contra92 -->
<g id="node2" class="node">
<title>contra92</title>
<ellipse fill="none" stroke="#000000" cx="591.01" cy="-491" rx="85.5135" ry="37.5"/>
<text text-anchor="middle" x="591.01" y="-502.3" font-family="Times,serif" font-size="14.00" fill="#000000">Other things again</text>
<text text-anchor="middle" x="591.01" y="-487.3" font-family="Times,serif" font-size="14.00" fill="#000000">are both predicable</text>
<text text-anchor="middle" x="591.01" y="-472.3" font-family="Times,serif" font-size="14.00" fill="#000000">of a subject</text>
</g>
<!-- contra18&#45;&gt;contra92 -->
<g id="edge1" class="edge">
<title>contra18&#45;&gt;contra92</title>
<path fill="none" stroke="#000000" d="M187.84,-486.74C256.92,-487.31 340.53,-488 340.53,-488 340.53,-488 424.22,-489 494.85,-489.85"/>
<polygon fill="#000000" stroke="#000000" points="495.1199,-493.3533 505.16,-489.97 495.2014,-486.3538 495.1199,-493.3533"/>
<text text-anchor="middle" x="376.53" y="-491.8" font-family="Times,serif" font-size="14.00" fill="#000000">contradicting</text>
</g>
<!-- poss_new23 -->
<g id="node3" class="node">
<title>poss_new23</title>
<ellipse fill="none" stroke="#000000" cx="376.53" cy="-389" rx="77.5" ry="18"/>
<text text-anchor="middle" x="376.53" y="-385.3" font-family="Times,serif" font-size="14.00" fill="#000000">the individual man</text>
</g>
<!-- contra18&#45;&gt;poss_new23 -->
<g id="edge7" class="edge">
<title>contra18&#45;&gt;poss_new23</title>
<path fill="none" stroke="#000000" d="M156.57,-465.55C206.03,-448.34 276.12,-423.94 323.8,-407.35"/>
<polygon fill="#000000" stroke="#000000" points="325.0241,-410.63 333.32,-404.04 322.7252,-404.0182 325.0241,-410.63"/>
<text text-anchor="middle" x="236.11" y="-449.8" font-family="Times,serif" font-size="14.00" fill="#000000">*correlated</text>
</g>
<!-- poss_new99 -->
<g id="node4" class="node">
<title>poss_new99</title>
<ellipse fill="none" stroke="#000000" cx="872.57" cy="-389" rx="54.6905" ry="18"/>
<text text-anchor="middle" x="872.57" y="-385.3" font-family="Times,serif" font-size="14.00" fill="#000000">Other things</text>
</g>
<!-- contra92&#45;&gt;poss_new99 -->
<g id="edge8" class="edge">
<title>contra92&#45;&gt;poss_new99</title>
<path fill="none" stroke="#000000" d="M657.02,-467.09C708.92,-448.28 779.91,-422.57 826,-405.87"/>
<polygon fill="#000000" stroke="#000000" points="827.2302,-409.147 835.44,-402.45 824.8458,-402.5656 827.2302,-409.147"/>
<text text-anchor="middle" x="725.07" y="-455.8" font-family="Times,serif" font-size="14.00" fill="#000000">*correlated</text>
</g>
<!-- poss_new23&#45;&gt;poss_new99 -->
<g id="edge2" class="edge">
<title>poss_new23&#45;&gt;poss_new99</title>
<path fill="none" stroke="#000000" d="M443.2,-379.85C514.37,-370.09 617.01,-356 617.01,-356 617.01,-356 735.48,-371.3 811.1,-381.06"/>
<polygon fill="#000000" stroke="#000000" points="811.1039,-384.5895 821.47,-382.4 812.001,-377.6472 811.1039,-384.5895"/>
<text text-anchor="middle" x="591.01" y="-344.8" font-family="Times,serif" font-size="14.00" fill="#000000">*opposed</text>
</g>
<!-- poss_new99&#45;&gt;poss_new23 -->
<g id="edge3" class="edge">
<title>poss_new99&#45;&gt;poss_new23</title>
<path fill="none" stroke="#000000" d="M817.94,-389.53C729.56,-390.39 565.01,-392 565.01,-392 565.01,-392 513.18,-391.17 463.87,-390.39"/>
<polygon fill="#000000" stroke="#000000" points="463.7941,-386.8885 453.74,-390.23 463.6834,-393.8876 463.7941,-386.8885"/>
<text text-anchor="middle" x="591.01" y="-395.8" font-family="Times,serif" font-size="14.00" fill="#000000">*opposed</text>
</g>
<!-- poss_new16 -->
<g id="node5" class="node">
<title>poss_new16</title>
<ellipse fill="none" stroke="#000000" cx="376.53" cy="-290" rx="76.5" ry="37.5"/>
<text text-anchor="middle" x="376.53" y="-301.3" font-family="Times,serif" font-size="14.00" fill="#000000">Thus Man is</text>
<text text-anchor="middle" x="376.53" y="-286.3" font-family="Times,serif" font-size="14.00" fill="#000000">predicable of the</text>
<text text-anchor="middle" x="376.53" y="-271.3" font-family="Times,serif" font-size="14.00" fill="#000000">individual man</text>
</g>
<!-- poss_new92 -->
<g id="node6" class="node">
<title>poss_new92</title>
<ellipse fill="none" stroke="#000000" cx="872.57" cy="-316" rx="85.5135" ry="37.5"/>
<text text-anchor="middle" x="872.57" y="-327.3" font-family="Times,serif" font-size="14.00" fill="#000000">Other things again</text>
<text text-anchor="middle" x="872.57" y="-312.3" font-family="Times,serif" font-size="14.00" fill="#000000">are both predicable</text>
<text text-anchor="middle" x="872.57" y="-297.3" font-family="Times,serif" font-size="14.00" fill="#000000">of a subject</text>
</g>
<!-- poss_new16&#45;&gt;poss_new92 -->
<g id="edge4" class="edge">
<title>poss_new16&#45;&gt;poss_new92</title>
<path fill="none" stroke="#000000" d="M452.75,-294.3C531.35,-298.73 642.51,-305 642.51,-305 642.51,-305 713.92,-308.41 777.16,-311.44"/>
<polygon fill="#000000" stroke="#000000" points="777.0747,-314.9398 787.23,-311.92 777.408,-307.9478 777.0747,-314.9398"/>
<text text-anchor="middle" x="591.01" y="-293.8" font-family="Times,serif" font-size="14.00" fill="#000000">possibly correlated</text>
</g>
<!-- poss_new18 -->
<g id="node7" class="node">
<title>poss_new18</title>
<ellipse fill="none" stroke="#000000" cx="376.53" cy="-202" rx="90" ry="27"/>
<text text-anchor="middle" x="376.53" y="-205.8" font-family="Times,serif" font-size="14.00" fill="#000000">Thus , Man is never</text>
<text text-anchor="middle" x="376.53" y="-190.8" font-family="Times,serif" font-size="14.00" fill="#000000">present in a subject</text>
</g>
<!-- poss_new101 -->
<g id="node8" class="node">
<title>poss_new101</title>
<ellipse fill="none" stroke="#000000" cx="872.57" cy="-202" rx="88.5" ry="58.8803"/>
<text text-anchor="middle" x="872.57" y="-228.3" font-family="Times,serif" font-size="14.00" fill="#000000">Other things , again</text>
<text text-anchor="middle" x="872.57" y="-213.3" font-family="Times,serif" font-size="14.00" fill="#000000">, are both</text>
<text text-anchor="middle" x="872.57" y="-198.3" font-family="Times,serif" font-size="14.00" fill="#000000">predicable of a</text>
<text text-anchor="middle" x="872.57" y="-183.3" font-family="Times,serif" font-size="14.00" fill="#000000">subject and present</text>
<text text-anchor="middle" x="872.57" y="-168.3" font-family="Times,serif" font-size="14.00" fill="#000000">in a subject .</text>
</g>
<!-- poss_new18&#45;&gt;poss_new101 -->
<g id="edge5" class="edge">
<title>poss_new18&#45;&gt;poss_new101</title>
<path fill="none" stroke="#000000" d="M466.6,-202C504.3,-202 539.51,-202 539.51,-202 539.51,-202 675.31,-202 773.48,-202"/>
<polygon fill="#000000" stroke="#000000" points="773.75,-205.5001 783.75,-202 773.75,-198.5001 773.75,-205.5001"/>
<text text-anchor="middle" x="591.01" y="-205.8" font-family="Times,serif" font-size="14.00" fill="#000000">possibly correlated</text>
</g>
<!-- poss_new25 -->
<g id="node9" class="node">
<title>poss_new25</title>
<ellipse fill="none" stroke="#000000" cx="376.53" cy="-67" rx="92" ry="58.8803"/>
<text text-anchor="middle" x="376.53" y="-93.3" font-family="Times,serif" font-size="14.00" fill="#000000">Thus , Man is</text>
<text text-anchor="middle" x="376.53" y="-78.3" font-family="Times,serif" font-size="14.00" fill="#000000">predicable of the</text>
<text text-anchor="middle" x="376.53" y="-63.3" font-family="Times,serif" font-size="14.00" fill="#000000">individual man , and</text>
<text text-anchor="middle" x="376.53" y="-48.3" font-family="Times,serif" font-size="14.00" fill="#000000">is never present in</text>
<text text-anchor="middle" x="376.53" y="-33.3" font-family="Times,serif" font-size="14.00" fill="#000000">a subject .</text>
</g>
<!-- poss_new115 -->
<g id="node10" class="node">
<title>poss_new115</title>
<ellipse fill="none" stroke="#000000" cx="872.57" cy="-67" rx="99" ry="58.8803"/>
<text text-anchor="middle" x="872.57" y="-93.3" font-family="Times,serif" font-size="14.00" fill="#000000">Thus while knowledge</text>
<text text-anchor="middle" x="872.57" y="-78.3" font-family="Times,serif" font-size="14.00" fill="#000000">is present in the</text>
<text text-anchor="middle" x="872.57" y="-63.3" font-family="Times,serif" font-size="14.00" fill="#000000">human mind , it is</text>
<text text-anchor="middle" x="872.57" y="-48.3" font-family="Times,serif" font-size="14.00" fill="#000000">predicable of</text>
<text text-anchor="middle" x="872.57" y="-33.3" font-family="Times,serif" font-size="14.00" fill="#000000">grammar .</text>
</g>
<!-- poss_new25&#45;&gt;poss_new115 -->
<g id="edge6" class="edge">
<title>poss_new25&#45;&gt;poss_new115</title>
<path fill="none" stroke="#000000" d="M468.5,-67C505.47,-67 539.51,-67 539.51,-67 539.51,-67 666.24,-67 763.35,-67"/>
<polygon fill="#000000" stroke="#000000" points="763.54,-70.5001 773.54,-67 763.54,-63.5001 763.54,-70.5001"/>
<text text-anchor="middle" x="591.01" y="-70.8" font-family="Times,serif" font-size="14.00" fill="#000000">possibly correlated</text>
</g>
</g>
</svg>
