<?xml version="1.0" encoding="UTF-8" standalone="no"?>
<!DOCTYPE svg PUBLIC "-//W3C//DTD SVG 1.1//EN"
 "http://www.w3.org/Graphics/SVG/1.1/DTD/svg11.dtd">
<!-- Generated by graphviz version 2.40.1 (20161225.0304)
 -->
<!-- Pages: 1 -->
<svg width="939pt" height="611pt"
 viewBox="0.00 0.00 939.48 611.00" xmlns="http://www.w3.org/2000/svg" xmlns:xlink="http://www.w3.org/1999/xlink">
<g id="graph0" class="graph" transform="scale(1 1) rotate(0) translate(4 607)">
<polygon fill="#ffffff" stroke="transparent" points="-4,4 -4,-607 935.48,-607 935.48,4 -4,4"/>
<g id="clust1" class="cluster">
<title>cluster1</title>
<polygon fill="#d3d3d3" stroke="#d3d3d3" points="0,-426 0,-603 636.49,-603 636.49,-426 0,-426"/>
<text text-anchor="middle" x="318.24" y="-587.8" font-family="Times,serif" font-size="14.00" fill="#000000">Found Contradictions</text>
</g>
<g id="clust2" class="cluster">
<title>cluster2</title>
<polygon fill="#d3d3d3" stroke="#d3d3d3" points="278.02,0 278.02,-418 931.48,-418 931.48,0 278.02,0"/>
<text text-anchor="middle" x="604.75" y="-402.8" font-family="Times,serif" font-size="14.00" fill="#000000">Possible New Correlations</text>
</g>
<!-- contra32 -->
<g id="node1" class="node">
<title>contra32</title>
<ellipse fill="none" stroke="#000000" cx="98.51" cy="-503" rx="90.5" ry="69.5"/>
<text text-anchor="middle" x="98.51" y="-536.8" font-family="Times,serif" font-size="14.00" fill="#000000">By being</text>
<text text-anchor="middle" x="98.51" y="-521.8" font-family="Times,serif" font-size="14.00" fill="#000000">Presentinasubject I</text>
<text text-anchor="middle" x="98.51" y="-506.8" font-family="Times,serif" font-size="14.00" fill="#000000">do not being</text>
<text text-anchor="middle" x="98.51" y="-491.8" font-family="Times,serif" font-size="14.00" fill="#000000">incapable of</text>
<text text-anchor="middle" x="98.51" y="-476.8" font-family="Times,serif" font-size="14.00" fill="#000000">existence apart from</text>
<text text-anchor="middle" x="98.51" y="-461.8" font-family="Times,serif" font-size="14.00" fill="#000000">the said subject</text>
</g>
<!-- contra105 -->
<g id="node2" class="node">
<title>contra105</title>
<ellipse fill="none" stroke="#000000" cx="566.26" cy="-471" rx="62.374" ry="37.5"/>
<text text-anchor="middle" x="566.26" y="-482.3" font-family="Times,serif" font-size="14.00" fill="#000000">Thus it is</text>
<text text-anchor="middle" x="566.26" y="-467.3" font-family="Times,serif" font-size="14.00" fill="#000000">predicable of</text>
<text text-anchor="middle" x="566.26" y="-452.3" font-family="Times,serif" font-size="14.00" fill="#000000">grammar</text>
</g>
<!-- contra32&#45;&gt;contra105 -->
<g id="edge1" class="edge">
<title>contra32&#45;&gt;contra105</title>
<path fill="none" stroke="#000000" d="M188.97,-497.02C257.71,-492.47 340.53,-487 340.53,-487 340.53,-487 428.22,-480.78 494.29,-476.1"/>
<polygon fill="#000000" stroke="#000000" points="494.5533,-479.5902 504.28,-475.39 494.057,-472.6078 494.5533,-479.5902"/>
<text text-anchor="middle" x="376.53" y="-490.8" font-family="Times,serif" font-size="14.00" fill="#000000">contradicting</text>
</g>
<!-- poss_new42 -->
<g id="node5" class="node">
<title>poss_new42</title>
<ellipse fill="none" stroke="#000000" cx="376.53" cy="-297" rx="65.7887" ry="18"/>
<text text-anchor="middle" x="376.53" y="-293.3" font-family="Times,serif" font-size="14.00" fill="#000000">the said subject</text>
</g>
<!-- contra32&#45;&gt;poss_new42 -->
<g id="edge8" class="edge">
<title>contra32&#45;&gt;poss_new42</title>
<path fill="none" stroke="#000000" d="M163.69,-454.7C220.87,-412.34 301.52,-352.58 345.3,-320.14"/>
<polygon fill="#000000" stroke="#000000" points="347.592,-322.7977 353.54,-314.03 343.4226,-317.1748 347.592,-322.7977"/>
<text text-anchor="middle" x="237.52" y="-406.8" font-family="Times,serif" font-size="14.00" fill="#000000">*correlated</text>
</g>
<!-- poss_new29 -->
<g id="node7" class="node">
<title>poss_new29</title>
<ellipse fill="none" stroke="#000000" cx="376.53" cy="-234" rx="85.5" ry="27"/>
<text text-anchor="middle" x="376.53" y="-237.8" font-family="Times,serif" font-size="14.00" fill="#000000">as parts are present</text>
<text text-anchor="middle" x="376.53" y="-222.8" font-family="Times,serif" font-size="14.00" fill="#000000">in a whole</text>
</g>
<!-- contra32&#45;&gt;poss_new29 -->
<g id="edge9" class="edge">
<title>contra32&#45;&gt;poss_new29</title>
<path fill="none" stroke="#000000" d="M154.77,-448.56C210.98,-394.17 295.58,-312.32 342.37,-267.06"/>
<polygon fill="#000000" stroke="#000000" points="345.0681,-269.3195 349.82,-259.85 340.2001,-264.2893 345.0681,-269.3195"/>
<text text-anchor="middle" x="237.52" y="-334.8" font-family="Times,serif" font-size="14.00" fill="#000000">*correlated</text>
</g>
<!-- poss_new113 -->
<g id="node6" class="node">
<title>poss_new113</title>
<ellipse fill="none" stroke="#000000" cx="824.48" cy="-277" rx="69.5877" ry="18"/>
<text text-anchor="middle" x="824.48" y="-273.3" font-family="Times,serif" font-size="14.00" fill="#000000">the human mind</text>
</g>
<!-- contra105&#45;&gt;poss_new113 -->
<g id="edge10" class="edge">
<title>contra105&#45;&gt;poss_new113</title>
<path fill="none" stroke="#000000" d="M605.2,-441.75C656.77,-403 746.68,-335.46 793.75,-300.09"/>
<polygon fill="#000000" stroke="#000000" points="795.857,-302.8848 801.75,-294.08 791.6525,-297.2881 795.857,-302.8848"/>
<text text-anchor="middle" x="676.99" y="-451.8" font-family="Times,serif" font-size="14.00" fill="#000000">*correlated</text>
</g>
<!-- poss_new102 -->
<g id="node8" class="node">
<title>poss_new102</title>
<ellipse fill="none" stroke="#000000" cx="824.48" cy="-204" rx="92.6469" ry="37.5"/>
<text text-anchor="middle" x="824.48" y="-215.3" font-family="Times,serif" font-size="14.00" fill="#000000">while knowledge is</text>
<text text-anchor="middle" x="824.48" y="-200.3" font-family="Times,serif" font-size="14.00" fill="#000000">present in the human</text>
<text text-anchor="middle" x="824.48" y="-185.3" font-family="Times,serif" font-size="14.00" fill="#000000">mind</text>
</g>
<!-- contra105&#45;&gt;poss_new102 -->
<g id="edge11" class="edge">
<title>contra105&#45;&gt;poss_new102</title>
<path fill="none" stroke="#000000" d="M597.67,-438.53C644.27,-390.35 731.76,-299.88 783.39,-246.49"/>
<polygon fill="#000000" stroke="#000000" points="785.9944,-248.8317 790.43,-239.21 780.9624,-243.9655 785.9944,-248.8317"/>
<text text-anchor="middle" x="676.99" y="-403.8" font-family="Times,serif" font-size="14.00" fill="#000000">*correlated</text>
</g>
<!-- poss_new26 -->
<g id="node3" class="node">
<title>poss_new26</title>
<ellipse fill="none" stroke="#000000" cx="376.53" cy="-360" rx="78.5" ry="27"/>
<text text-anchor="middle" x="376.53" y="-363.8" font-family="Times,serif" font-size="14.00" fill="#000000">being</text>
<text text-anchor="middle" x="376.53" y="-348.8" font-family="Times,serif" font-size="14.00" fill="#000000">Presentinasubject</text>
</g>
<!-- poss_new105 -->
<g id="node4" class="node">
<title>poss_new105</title>
<ellipse fill="none" stroke="#000000" cx="824.48" cy="-350" rx="62.374" ry="37.5"/>
<text text-anchor="middle" x="824.48" y="-361.3" font-family="Times,serif" font-size="14.00" fill="#000000">Thus it is</text>
<text text-anchor="middle" x="824.48" y="-346.3" font-family="Times,serif" font-size="14.00" fill="#000000">predicable of</text>
<text text-anchor="middle" x="824.48" y="-331.3" font-family="Times,serif" font-size="14.00" fill="#000000">grammar</text>
</g>
<!-- poss_new26&#45;&gt;poss_new105 -->
<g id="edge2" class="edge">
<title>poss_new26&#45;&gt;poss_new105</title>
<path fill="none" stroke="#000000" d="M454.53,-363.39C485.89,-364.75 514.76,-366 514.76,-366 514.76,-366 660.6,-358.47 752.13,-353.74"/>
<polygon fill="#000000" stroke="#000000" points="752.3742,-357.2321 762.18,-353.22 752.0125,-350.2415 752.3742,-357.2321"/>
<text text-anchor="middle" x="566.26" y="-369.8" font-family="Times,serif" font-size="14.00" fill="#000000">possibly correlated</text>
</g>
<!-- poss_new42&#45;&gt;poss_new113 -->
<g id="edge3" class="edge">
<title>poss_new42&#45;&gt;poss_new113</title>
<path fill="none" stroke="#000000" d="M439.51,-291.75C503.19,-286.43 592.26,-279 592.26,-279 592.26,-279 677.44,-278.27 744.62,-277.69"/>
<polygon fill="#000000" stroke="#000000" points="744.8413,-281.1883 754.81,-277.6 744.7794,-274.1886 744.8413,-281.1883"/>
<text text-anchor="middle" x="566.26" y="-267.8" font-family="Times,serif" font-size="14.00" fill="#000000">*opposed</text>
</g>
<!-- poss_new113&#45;&gt;poss_new42 -->
<g id="edge4" class="edge">
<title>poss_new113&#45;&gt;poss_new42</title>
<path fill="none" stroke="#000000" d="M762.46,-285.29C678.83,-296.47 540.26,-315 540.26,-315 540.26,-315 491.88,-309.68 447.72,-304.83"/>
<polygon fill="#000000" stroke="#000000" points="447.8241,-301.3203 437.5,-303.7 447.0548,-308.2779 447.8241,-301.3203"/>
<text text-anchor="middle" x="566.26" y="-318.8" font-family="Times,serif" font-size="14.00" fill="#000000">*opposed</text>
</g>
<!-- poss_new29&#45;&gt;poss_new102 -->
<g id="edge5" class="edge">
<title>poss_new29&#45;&gt;poss_new102</title>
<path fill="none" stroke="#000000" d="M442.14,-216.67C505.61,-199.9 592.26,-177 592.26,-177 592.26,-177 662.2,-185.13 725.31,-192.47"/>
<polygon fill="#000000" stroke="#000000" points="725.0326,-195.9612 735.37,-193.64 725.8413,-189.0081 725.0326,-195.9612"/>
<text text-anchor="middle" x="566.26" y="-165.8" font-family="Times,serif" font-size="14.00" fill="#000000">*opposed</text>
</g>
<!-- poss_new102&#45;&gt;poss_new29 -->
<g id="edge6" class="edge">
<title>poss_new102&#45;&gt;poss_new29</title>
<path fill="none" stroke="#000000" d="M734.7,-213.28C669.36,-220.03 592.26,-228 592.26,-228 592.26,-228 529.82,-229.74 472.12,-231.34"/>
<polygon fill="#000000" stroke="#000000" points="471.6878,-227.8507 461.79,-231.63 471.8843,-234.8479 471.6878,-227.8507"/>
<text text-anchor="middle" x="566.26" y="-216.8" font-family="Times,serif" font-size="14.00" fill="#000000">*opposed</text>
</g>
<!-- poss_new44 -->
<g id="node9" class="node">
<title>poss_new44</title>
<ellipse fill="none" stroke="#000000" cx="376.53" cy="-99" rx="90.5193" ry="90.5193"/>
<text text-anchor="middle" x="376.53" y="-147.8" font-family="Times,serif" font-size="14.00" fill="#000000">By being</text>
<text text-anchor="middle" x="376.53" y="-132.8" font-family="Times,serif" font-size="14.00" fill="#000000">Presentinasubject I</text>
<text text-anchor="middle" x="376.53" y="-117.8" font-family="Times,serif" font-size="14.00" fill="#000000">do not mean present</text>
<text text-anchor="middle" x="376.53" y="-102.8" font-family="Times,serif" font-size="14.00" fill="#000000">as parts are present</text>
<text text-anchor="middle" x="376.53" y="-87.8" font-family="Times,serif" font-size="14.00" fill="#000000">in a whole , but</text>
<text text-anchor="middle" x="376.53" y="-72.8" font-family="Times,serif" font-size="14.00" fill="#000000">being incapable of</text>
<text text-anchor="middle" x="376.53" y="-57.8" font-family="Times,serif" font-size="14.00" fill="#000000">existence apart from</text>
<text text-anchor="middle" x="376.53" y="-42.8" font-family="Times,serif" font-size="14.00" fill="#000000">the said subject .</text>
</g>
<!-- poss_new115 -->
<g id="node10" class="node">
<title>poss_new115</title>
<ellipse fill="none" stroke="#000000" cx="824.48" cy="-90" rx="99" ry="58.8803"/>
<text text-anchor="middle" x="824.48" y="-116.3" font-family="Times,serif" font-size="14.00" fill="#000000">Thus while knowledge</text>
<text text-anchor="middle" x="824.48" y="-101.3" font-family="Times,serif" font-size="14.00" fill="#000000">is present in the</text>
<text text-anchor="middle" x="824.48" y="-86.3" font-family="Times,serif" font-size="14.00" fill="#000000">human mind , it is</text>
<text text-anchor="middle" x="824.48" y="-71.3" font-family="Times,serif" font-size="14.00" fill="#000000">predicable of</text>
<text text-anchor="middle" x="824.48" y="-56.3" font-family="Times,serif" font-size="14.00" fill="#000000">grammar .</text>
</g>
<!-- poss_new44&#45;&gt;poss_new115 -->
<g id="edge7" class="edge">
<title>poss_new44&#45;&gt;poss_new115</title>
<path fill="none" stroke="#000000" d="M467.19,-95.72C493.25,-94.78 514.76,-94 514.76,-94 514.76,-94 625.89,-92.56 715.01,-91.414"/>
<polygon fill="#000000" stroke="#000000" points="715.2562,-94.9112 725.21,-91.282 715.1655,-87.9118 715.2562,-94.9112"/>
<text text-anchor="middle" x="566.26" y="-97.8" font-family="Times,serif" font-size="14.00" fill="#000000">possibly correlated</text>
</g>
</g>
</svg>
