<?xml version="1.0" encoding="UTF-8" standalone="no"?>
<!DOCTYPE svg PUBLIC "-//W3C//DTD SVG 1.1//EN"
 "http://www.w3.org/Graphics/SVG/1.1/DTD/svg11.dtd">
<!-- Generated by graphviz version 2.40.1 (20161225.0304)
 -->
<!-- Pages: 1 -->
<svg width="1320pt" height="514pt"
 viewBox="0.00 0.00 1320.10 514.00" xmlns="http://www.w3.org/2000/svg" xmlns:xlink="http://www.w3.org/1999/xlink">
<g id="graph0" class="graph" transform="scale(1 1) rotate(0) translate(4 510)">
<polygon fill="#ffffff" stroke="transparent" points="-4,4 -4,-510 1316.1,-510 1316.1,4 -4,4"/>
<g id="clust1" class="cluster">
<title>cluster2</title>
<polygon fill="#d3d3d3" stroke="#d3d3d3" points="253.98,0 253.98,-321 1312.1,-321 1312.1,0 253.98,0"/>
<text text-anchor="middle" x="783.05" y="-305.8" font-family="Times,serif" font-size="14.00" fill="#000000">Possible New Correlations</text>
</g>
<g id="clust2" class="cluster">
<title>cluster1</title>
<polygon fill="#d3d3d3" stroke="#d3d3d3" points="0,-329 0,-506 663.36,-506 663.36,-329 0,-329"/>
<text text-anchor="middle" x="331.68" y="-490.8" font-family="Times,serif" font-size="14.00" fill="#000000">Found Contradictions</text>
</g>
<!-- poss_new87 -->
<g id="node1" class="node">
<title>poss_new87</title>
<ellipse fill="none" stroke="#000000" cx="354.61" cy="-263" rx="61" ry="27"/>
<text text-anchor="middle" x="354.61" y="-266.8" font-family="Times,serif" font-size="14.00" fill="#000000">grammatical</text>
<text text-anchor="middle" x="354.61" y="-251.8" font-family="Times,serif" font-size="14.00" fill="#000000">knowledge</text>
</g>
<!-- poss_new99 -->
<g id="node2" class="node">
<title>poss_new99</title>
<ellipse fill="none" stroke="#000000" cx="851.35" cy="-272" rx="54.6905" ry="18"/>
<text text-anchor="middle" x="851.35" y="-268.3" font-family="Times,serif" font-size="14.00" fill="#000000">Other things</text>
</g>
<!-- poss_new87&#45;&gt;poss_new99 -->
<g id="edge1" class="edge">
<title>poss_new87&#45;&gt;poss_new99</title>
<path fill="none" stroke="#000000" d="M414.23,-257.07C485.65,-249.96 595.8,-239 595.8,-239 595.8,-239 714.27,-254.3 789.88,-264.06"/>
<polygon fill="#000000" stroke="#000000" points="789.8839,-267.5895 800.25,-265.4 790.781,-260.6472 789.8839,-267.5895"/>
<text text-anchor="middle" x="569.8" y="-227.8" font-family="Times,serif" font-size="14.00" fill="#000000">*opposed</text>
</g>
<!-- poss_new99&#45;&gt;poss_new87 -->
<g id="edge2" class="edge">
<title>poss_new99&#45;&gt;poss_new87</title>
<path fill="none" stroke="#000000" d="M796.72,-272.53C708.35,-273.39 543.8,-275 543.8,-275 543.8,-275 478.98,-270.89 425.23,-267.48"/>
<polygon fill="#000000" stroke="#000000" points="425.1917,-263.9706 414.99,-266.83 424.7482,-270.9566 425.1917,-263.9706"/>
<text text-anchor="middle" x="569.8" y="-278.8" font-family="Times,serif" font-size="14.00" fill="#000000">*opposed</text>
</g>
<!-- poss_new85 -->
<g id="node3" class="node">
<title>poss_new85</title>
<ellipse fill="none" stroke="#000000" cx="354.61" cy="-181" rx="78" ry="37.5"/>
<text text-anchor="middle" x="354.61" y="-192.3" font-family="Times,serif" font-size="14.00" fill="#000000">a certain point of</text>
<text text-anchor="middle" x="354.61" y="-177.3" font-family="Times,serif" font-size="14.00" fill="#000000">grammatical</text>
<text text-anchor="middle" x="354.61" y="-162.3" font-family="Times,serif" font-size="14.00" fill="#000000">knowledge</text>
</g>
<!-- poss_new92 -->
<g id="node4" class="node">
<title>poss_new92</title>
<ellipse fill="none" stroke="#000000" cx="851.35" cy="-181" rx="85.5135" ry="37.5"/>
<text text-anchor="middle" x="851.35" y="-192.3" font-family="Times,serif" font-size="14.00" fill="#000000">Other things again</text>
<text text-anchor="middle" x="851.35" y="-177.3" font-family="Times,serif" font-size="14.00" fill="#000000">are both predicable</text>
<text text-anchor="middle" x="851.35" y="-162.3" font-family="Times,serif" font-size="14.00" fill="#000000">of a subject</text>
</g>
<!-- poss_new85&#45;&gt;poss_new92 -->
<g id="edge3" class="edge">
<title>poss_new85&#45;&gt;poss_new92</title>
<path fill="none" stroke="#000000" d="M432.46,-183.04C511.18,-185.11 621.3,-188 621.3,-188 621.3,-188 692.46,-185.83 755.63,-183.91"/>
<polygon fill="#000000" stroke="#000000" points="755.7988,-187.4066 765.69,-183.61 755.5901,-180.4097 755.7988,-187.4066"/>
<text text-anchor="middle" x="569.8" y="-176.8" font-family="Times,serif" font-size="14.00" fill="#000000">possibly correlated</text>
</g>
<!-- poss_new56 -->
<g id="node5" class="node">
<title>poss_new56</title>
<ellipse fill="none" stroke="#000000" cx="354.61" cy="-67" rx="92.7622" ry="58.8803"/>
<text text-anchor="middle" x="354.61" y="-93.3" font-family="Times,serif" font-size="14.00" fill="#000000">For instance a</text>
<text text-anchor="middle" x="354.61" y="-78.3" font-family="Times,serif" font-size="14.00" fill="#000000">certain point of</text>
<text text-anchor="middle" x="354.61" y="-63.3" font-family="Times,serif" font-size="14.00" fill="#000000">grammatical</text>
<text text-anchor="middle" x="354.61" y="-48.3" font-family="Times,serif" font-size="14.00" fill="#000000">knowledge is present</text>
<text text-anchor="middle" x="354.61" y="-33.3" font-family="Times,serif" font-size="14.00" fill="#000000">in the mind</text>
</g>
<!-- poss_new115 -->
<g id="node6" class="node">
<title>poss_new115</title>
<ellipse fill="none" stroke="#000000" cx="851.35" cy="-67" rx="99" ry="58.8803"/>
<text text-anchor="middle" x="851.35" y="-93.3" font-family="Times,serif" font-size="14.00" fill="#000000">Thus while knowledge</text>
<text text-anchor="middle" x="851.35" y="-78.3" font-family="Times,serif" font-size="14.00" fill="#000000">is present in the</text>
<text text-anchor="middle" x="851.35" y="-63.3" font-family="Times,serif" font-size="14.00" fill="#000000">human mind , it is</text>
<text text-anchor="middle" x="851.35" y="-48.3" font-family="Times,serif" font-size="14.00" fill="#000000">predicable of</text>
<text text-anchor="middle" x="851.35" y="-33.3" font-family="Times,serif" font-size="14.00" fill="#000000">grammar .</text>
</g>
<!-- poss_new56&#45;&gt;poss_new115 -->
<g id="edge4" class="edge">
<title>poss_new56&#45;&gt;poss_new115</title>
<path fill="none" stroke="#000000" d="M447.45,-67C484.4,-67 518.3,-67 518.3,-67 518.3,-67 645.03,-67 742.14,-67"/>
<polygon fill="#000000" stroke="#000000" points="742.33,-70.5001 752.33,-67 742.33,-63.5001 742.33,-70.5001"/>
<text text-anchor="middle" x="569.8" y="-70.8" font-family="Times,serif" font-size="14.00" fill="#000000">possibly correlated</text>
</g>
<!-- poss_new101 -->
<g id="node7" class="node">
<title>poss_new101</title>
<ellipse fill="none" stroke="#000000" cx="1215.7" cy="-67" rx="88.5" ry="58.8803"/>
<text text-anchor="middle" x="1215.7" y="-93.3" font-family="Times,serif" font-size="14.00" fill="#000000">Other things , again</text>
<text text-anchor="middle" x="1215.7" y="-78.3" font-family="Times,serif" font-size="14.00" fill="#000000">, are both</text>
<text text-anchor="middle" x="1215.7" y="-63.3" font-family="Times,serif" font-size="14.00" fill="#000000">predicable of a</text>
<text text-anchor="middle" x="1215.7" y="-48.3" font-family="Times,serif" font-size="14.00" fill="#000000">subject and present</text>
<text text-anchor="middle" x="1215.7" y="-33.3" font-family="Times,serif" font-size="14.00" fill="#000000">in a subject .</text>
</g>
<!-- poss_new115&#45;&gt;poss_new101 -->
<g id="edge5" class="edge">
<title>poss_new115&#45;&gt;poss_new101</title>
<path fill="none" stroke="#000000" d="M950.55,-67C971.46,-67 987.35,-67 987.35,-67 987.35,-67 1055.2,-67 1116.9,-67"/>
<polygon fill="#000000" stroke="#000000" points="1117.1,-70.5001 1127.1,-67 1117.1,-63.5001 1117.1,-70.5001"/>
<text text-anchor="middle" x="1038.8" y="-70.8" font-family="Times,serif" font-size="14.00" fill="#000000">possibly correlated</text>
</g>
<!-- contra61 -->
<g id="node8" class="node">
<title>contra61</title>
<ellipse fill="none" stroke="#000000" cx="86.489" cy="-406" rx="78.5" ry="69.5"/>
<text text-anchor="middle" x="86.489" y="-439.8" font-family="Times,serif" font-size="14.00" fill="#000000">For instance , a</text>
<text text-anchor="middle" x="86.489" y="-424.8" font-family="Times,serif" font-size="14.00" fill="#000000">certain point of</text>
<text text-anchor="middle" x="86.489" y="-409.8" font-family="Times,serif" font-size="14.00" fill="#000000">grammatical</text>
<text text-anchor="middle" x="86.489" y="-394.8" font-family="Times,serif" font-size="14.00" fill="#000000">knowledge is not</text>
<text text-anchor="middle" x="86.489" y="-379.8" font-family="Times,serif" font-size="14.00" fill="#000000">predicable of any</text>
<text text-anchor="middle" x="86.489" y="-364.8" font-family="Times,serif" font-size="14.00" fill="#000000">subject</text>
</g>
<!-- contra61&#45;&gt;poss_new87 -->
<g id="edge7" class="edge">
<title>contra61&#45;&gt;poss_new87</title>
<path fill="none" stroke="#000000" d="M153.8,-370.1C201.35,-344.74 263.93,-311.36 306.51,-288.65"/>
<polygon fill="#000000" stroke="#000000" points="308.3726,-291.6233 315.55,-283.83 305.0792,-285.4465 308.3726,-291.6233"/>
<text text-anchor="middle" x="213.48" y="-354.8" font-family="Times,serif" font-size="14.00" fill="#000000">*correlated</text>
</g>
<!-- contra92 -->
<g id="node9" class="node">
<title>contra92</title>
<ellipse fill="none" stroke="#000000" cx="569.8" cy="-390" rx="85.5135" ry="37.5"/>
<text text-anchor="middle" x="569.8" y="-401.3" font-family="Times,serif" font-size="14.00" fill="#000000">Other things again</text>
<text text-anchor="middle" x="569.8" y="-386.3" font-family="Times,serif" font-size="14.00" fill="#000000">are both predicable</text>
<text text-anchor="middle" x="569.8" y="-371.3" font-family="Times,serif" font-size="14.00" fill="#000000">of a subject</text>
</g>
<!-- contra61&#45;&gt;contra92 -->
<g id="edge6" class="edge">
<title>contra61&#45;&gt;contra92</title>
<path fill="none" stroke="#000000" d="M165.07,-403.29C232.41,-400.97 318.61,-398 318.61,-398 318.61,-398 403.07,-395.31 474.05,-393.05"/>
<polygon fill="#000000" stroke="#000000" points="474.5265,-396.5367 484.41,-392.72 474.3036,-389.5402 474.5265,-396.5367"/>
<text text-anchor="middle" x="354.61" y="-401.8" font-family="Times,serif" font-size="14.00" fill="#000000">contradicting</text>
</g>
<!-- contra92&#45;&gt;poss_new99 -->
<g id="edge8" class="edge">
<title>contra92&#45;&gt;poss_new99</title>
<path fill="none" stroke="#000000" d="M631.94,-363.96C685.42,-341.54 761.19,-309.79 808.25,-290.06"/>
<polygon fill="#000000" stroke="#000000" points="809.6751,-293.2578 817.55,-286.17 806.9739,-286.8 809.6751,-293.2578"/>
<text text-anchor="middle" x="703.86" y="-348.8" font-family="Times,serif" font-size="14.00" fill="#000000">*correlated</text>
</g>
</g>
</svg>
