<?xml version="1.0" encoding="UTF-8" standalone="no"?>
<!DOCTYPE svg PUBLIC "-//W3C//DTD SVG 1.1//EN"
 "http://www.w3.org/Graphics/SVG/1.1/DTD/svg11.dtd">
<!-- Generated by graphviz version 2.40.1 (20161225.0304)
 -->
<!-- Pages: 1 -->
<svg width="969pt" height="632pt"
 viewBox="0.00 0.00 969.18 632.00" xmlns="http://www.w3.org/2000/svg" xmlns:xlink="http://www.w3.org/1999/xlink">
<g id="graph0" class="graph" transform="scale(1 1) rotate(0) translate(4 628)">
<polygon fill="#ffffff" stroke="transparent" points="-4,4 -4,-628 965.18,-628 965.18,4 -4,4"/>
<g id="clust1" class="cluster">
<title>cluster2</title>
<polygon fill="#d3d3d3" stroke="#d3d3d3" points="268.12,0 268.12,-481 961.18,-481 961.18,0 268.12,0"/>
<text text-anchor="middle" x="614.65" y="-465.8" font-family="Times,serif" font-size="14.00" fill="#000000">Possible New Correlations</text>
</g>
<g id="clust2" class="cluster">
<title>cluster1</title>
<polygon fill="#d3d3d3" stroke="#d3d3d3" points="0,-489 0,-624 691.64,-624 691.64,-489 0,-489"/>
<text text-anchor="middle" x="345.82" y="-608.8" font-family="Times,serif" font-size="14.00" fill="#000000">Found Contradictions</text>
</g>
<!-- poss_new99 -->
<g id="node1" class="node">
<title>poss_new99</title>
<ellipse fill="none" stroke="#000000" cx="375.11" cy="-432" rx="54.6905" ry="18"/>
<text text-anchor="middle" x="375.11" y="-428.3" font-family="Times,serif" font-size="14.00" fill="#000000">Other things</text>
</g>
<!-- poss_new129 -->
<g id="node2" class="node">
<title>poss_new129</title>
<ellipse fill="none" stroke="#000000" cx="866.91" cy="-432" rx="77.5" ry="18"/>
<text text-anchor="middle" x="866.91" y="-428.3" font-family="Times,serif" font-size="14.00" fill="#000000">the individual man</text>
</g>
<!-- poss_new99&#45;&gt;poss_new129 -->
<g id="edge1" class="edge">
<title>poss_new99&#45;&gt;poss_new129</title>
<path fill="none" stroke="#000000" d="M425.95,-425.24C498.59,-415.59 623.38,-399 623.38,-399 623.38,-399 718.37,-411.87 789.7,-421.54"/>
<polygon fill="#000000" stroke="#000000" points="789.6608,-425.0665 800.04,-422.94 790.6001,-418.1298 789.6608,-425.0665"/>
<text text-anchor="middle" x="597.38" y="-387.8" font-family="Times,serif" font-size="14.00" fill="#000000">*opposed</text>
</g>
<!-- poss_new129&#45;&gt;poss_new99 -->
<g id="edge2" class="edge">
<title>poss_new129&#45;&gt;poss_new99</title>
<path fill="none" stroke="#000000" d="M789.26,-432.79C701.7,-433.68 571.38,-435 571.38,-435 571.38,-435 497.05,-433.86 439.88,-432.99"/>
<polygon fill="#000000" stroke="#000000" points="439.8309,-429.489 429.78,-432.84 439.7269,-436.4882 439.8309,-429.489"/>
<text text-anchor="middle" x="597.38" y="-438.8" font-family="Times,serif" font-size="14.00" fill="#000000">*opposed</text>
</g>
<!-- poss_new92 -->
<g id="node3" class="node">
<title>poss_new92</title>
<ellipse fill="none" stroke="#000000" cx="375.11" cy="-335" rx="85.5135" ry="37.5"/>
<text text-anchor="middle" x="375.11" y="-346.3" font-family="Times,serif" font-size="14.00" fill="#000000">Other things again</text>
<text text-anchor="middle" x="375.11" y="-331.3" font-family="Times,serif" font-size="14.00" fill="#000000">are both predicable</text>
<text text-anchor="middle" x="375.11" y="-316.3" font-family="Times,serif" font-size="14.00" fill="#000000">of a subject</text>
</g>
<!-- poss_new116 -->
<g id="node4" class="node">
<title>poss_new116</title>
<ellipse fill="none" stroke="#000000" cx="866.91" cy="-369" rx="73.5" ry="27"/>
<text text-anchor="middle" x="866.91" y="-372.8" font-family="Times,serif" font-size="14.00" fill="#000000">There is lastly a</text>
<text text-anchor="middle" x="866.91" y="-357.8" font-family="Times,serif" font-size="14.00" fill="#000000">class of things</text>
</g>
<!-- poss_new92&#45;&gt;poss_new116 -->
<g id="edge3" class="edge">
<title>poss_new92&#45;&gt;poss_new116</title>
<path fill="none" stroke="#000000" d="M460.23,-339.04C540.6,-342.86 648.88,-348 648.88,-348 648.88,-348 723.4,-355.18 785.31,-361.14"/>
<polygon fill="#000000" stroke="#000000" points="785.2313,-364.6484 795.52,-362.12 785.9002,-357.6805 785.2313,-364.6484"/>
<text text-anchor="middle" x="597.38" y="-336.8" font-family="Times,serif" font-size="14.00" fill="#000000">possibly correlated</text>
</g>
<!-- poss_new101 -->
<g id="node5" class="node">
<title>poss_new101</title>
<ellipse fill="none" stroke="#000000" cx="375.11" cy="-221" rx="88.5" ry="58.8803"/>
<text text-anchor="middle" x="375.11" y="-247.3" font-family="Times,serif" font-size="14.00" fill="#000000">Other things , again</text>
<text text-anchor="middle" x="375.11" y="-232.3" font-family="Times,serif" font-size="14.00" fill="#000000">, are both</text>
<text text-anchor="middle" x="375.11" y="-217.3" font-family="Times,serif" font-size="14.00" fill="#000000">predicable of a</text>
<text text-anchor="middle" x="375.11" y="-202.3" font-family="Times,serif" font-size="14.00" fill="#000000">subject and present</text>
<text text-anchor="middle" x="375.11" y="-187.3" font-family="Times,serif" font-size="14.00" fill="#000000">in a subject .</text>
</g>
<!-- poss_new131 -->
<g id="node6" class="node">
<title>poss_new131</title>
<ellipse fill="none" stroke="#000000" cx="866.91" cy="-223" rx="86.5" ry="101.2327"/>
<text text-anchor="middle" x="866.91" y="-279.3" font-family="Times,serif" font-size="14.00" fill="#000000">There is , lastly ,</text>
<text text-anchor="middle" x="866.91" y="-264.3" font-family="Times,serif" font-size="14.00" fill="#000000">a class of things</text>
<text text-anchor="middle" x="866.91" y="-249.3" font-family="Times,serif" font-size="14.00" fill="#000000">which are neither</text>
<text text-anchor="middle" x="866.91" y="-234.3" font-family="Times,serif" font-size="14.00" fill="#000000">present in a subject</text>
<text text-anchor="middle" x="866.91" y="-219.3" font-family="Times,serif" font-size="14.00" fill="#000000">nor predicable of a</text>
<text text-anchor="middle" x="866.91" y="-204.3" font-family="Times,serif" font-size="14.00" fill="#000000">subject , such as</text>
<text text-anchor="middle" x="866.91" y="-189.3" font-family="Times,serif" font-size="14.00" fill="#000000">the individual man</text>
<text text-anchor="middle" x="866.91" y="-174.3" font-family="Times,serif" font-size="14.00" fill="#000000">or the individual</text>
<text text-anchor="middle" x="866.91" y="-159.3" font-family="Times,serif" font-size="14.00" fill="#000000">horse .</text>
</g>
<!-- poss_new101&#45;&gt;poss_new131 -->
<g id="edge4" class="edge">
<title>poss_new101&#45;&gt;poss_new131</title>
<path fill="none" stroke="#000000" d="M464,-221.52C505.49,-221.76 545.88,-222 545.88,-222 545.88,-222 675.74,-222.4 770.27,-222.7"/>
<polygon fill="#000000" stroke="#000000" points="770.4497,-226.2004 780.46,-222.73 770.4704,-219.2005 770.4497,-226.2004"/>
<text text-anchor="middle" x="597.38" y="-225.8" font-family="Times,serif" font-size="14.00" fill="#000000">possibly correlated</text>
</g>
<!-- poss_new115 -->
<g id="node7" class="node">
<title>poss_new115</title>
<ellipse fill="none" stroke="#000000" cx="375.11" cy="-67" rx="99" ry="58.8803"/>
<text text-anchor="middle" x="375.11" y="-93.3" font-family="Times,serif" font-size="14.00" fill="#000000">Thus while knowledge</text>
<text text-anchor="middle" x="375.11" y="-78.3" font-family="Times,serif" font-size="14.00" fill="#000000">is present in the</text>
<text text-anchor="middle" x="375.11" y="-63.3" font-family="Times,serif" font-size="14.00" fill="#000000">human mind , it is</text>
<text text-anchor="middle" x="375.11" y="-48.3" font-family="Times,serif" font-size="14.00" fill="#000000">predicable of</text>
<text text-anchor="middle" x="375.11" y="-33.3" font-family="Times,serif" font-size="14.00" fill="#000000">grammar .</text>
</g>
<!-- poss_new119 -->
<g id="node8" class="node">
<title>poss_new119</title>
<ellipse fill="none" stroke="#000000" cx="866.91" cy="-56" rx="86.5" ry="48.1667"/>
<text text-anchor="middle" x="866.91" y="-74.8" font-family="Times,serif" font-size="14.00" fill="#000000">which are neither</text>
<text text-anchor="middle" x="866.91" y="-59.8" font-family="Times,serif" font-size="14.00" fill="#000000">present in a subject</text>
<text text-anchor="middle" x="866.91" y="-44.8" font-family="Times,serif" font-size="14.00" fill="#000000">such as the</text>
<text text-anchor="middle" x="866.91" y="-29.8" font-family="Times,serif" font-size="14.00" fill="#000000">individual man</text>
</g>
<!-- poss_new115&#45;&gt;poss_new119 -->
<g id="edge5" class="edge">
<title>poss_new115&#45;&gt;poss_new119</title>
<path fill="none" stroke="#000000" d="M473.95,-63.527C511.72,-62.2 545.88,-61 545.88,-61 545.88,-61 675.74,-58.977 770.27,-57.505"/>
<polygon fill="#000000" stroke="#000000" points="770.5159,-61.0017 780.46,-57.346 770.4066,-54.0025 770.5159,-61.0017"/>
<text text-anchor="middle" x="597.38" y="-64.8" font-family="Times,serif" font-size="14.00" fill="#000000">possibly correlated</text>
</g>
<!-- contra92 -->
<g id="node9" class="node">
<title>contra92</title>
<ellipse fill="none" stroke="#000000" cx="93.56" cy="-539" rx="85.5135" ry="37.5"/>
<text text-anchor="middle" x="93.56" y="-550.3" font-family="Times,serif" font-size="14.00" fill="#000000">Other things again</text>
<text text-anchor="middle" x="93.56" y="-535.3" font-family="Times,serif" font-size="14.00" fill="#000000">are both predicable</text>
<text text-anchor="middle" x="93.56" y="-520.3" font-family="Times,serif" font-size="14.00" fill="#000000">of a subject</text>
</g>
<!-- contra92&#45;&gt;poss_new99 -->
<g id="edge7" class="edge">
<title>contra92&#45;&gt;poss_new99</title>
<path fill="none" stroke="#000000" d="M158.51,-514.32C210.97,-494.38 283.45,-466.83 329.81,-449.22"/>
<polygon fill="#000000" stroke="#000000" points="331.1902,-452.4397 339.29,-445.61 328.6991,-445.8979 331.1902,-452.4397"/>
<text text-anchor="middle" x="227.62" y="-501.8" font-family="Times,serif" font-size="14.00" fill="#000000">*correlated</text>
</g>
<!-- contra119 -->
<g id="node10" class="node">
<title>contra119</title>
<ellipse fill="none" stroke="#000000" cx="597.38" cy="-545" rx="86.5" ry="48.1667"/>
<text text-anchor="middle" x="597.38" y="-563.8" font-family="Times,serif" font-size="14.00" fill="#000000">which are neither</text>
<text text-anchor="middle" x="597.38" y="-548.8" font-family="Times,serif" font-size="14.00" fill="#000000">present in a subject</text>
<text text-anchor="middle" x="597.38" y="-533.8" font-family="Times,serif" font-size="14.00" fill="#000000">such as the</text>
<text text-anchor="middle" x="597.38" y="-518.8" font-family="Times,serif" font-size="14.00" fill="#000000">individual man</text>
</g>
<!-- contra92&#45;&gt;contra119 -->
<g id="edge6" class="edge">
<title>contra92&#45;&gt;contra119</title>
<path fill="none" stroke="#000000" d="M179.1,-540.05C249.97,-540.91 339.11,-542 339.11,-542 339.11,-542 427.44,-543.03 500.78,-543.88"/>
<polygon fill="#000000" stroke="#000000" points="500.9796,-547.3825 511.02,-544 501.0617,-540.383 500.9796,-547.3825"/>
<text text-anchor="middle" x="375.11" y="-545.8" font-family="Times,serif" font-size="14.00" fill="#000000">contradicting</text>
</g>
<!-- contra119&#45;&gt;poss_new129 -->
<g id="edge8" class="edge">
<title>contra119&#45;&gt;poss_new129</title>
<path fill="none" stroke="#000000" d="M666.44,-516.05C714.58,-495.86 777.53,-469.47 819.95,-451.69"/>
<polygon fill="#000000" stroke="#000000" points="821.3322,-454.9057 829.2,-447.81 818.6245,-448.4506 821.3322,-454.9057"/>
<text text-anchor="middle" x="732.14" y="-501.8" font-family="Times,serif" font-size="14.00" fill="#000000">*correlated</text>
</g>
</g>
</svg>
