<?xml version="1.0" encoding="UTF-8" standalone="no"?>
<!DOCTYPE svg PUBLIC "-//W3C//DTD SVG 1.1//EN"
 "http://www.w3.org/Graphics/SVG/1.1/DTD/svg11.dtd">
<!-- Generated by graphviz version 2.40.1 (20161225.0304)
 -->
<!-- Pages: 1 -->
<svg width="550pt" height="515pt"
 viewBox="0.00 0.00 550.31 515.00" xmlns="http://www.w3.org/2000/svg" xmlns:xlink="http://www.w3.org/1999/xlink">
<g id="graph0" class="graph" transform="scale(1 1) rotate(0) translate(4 511)">
<polygon fill="#ffffff" stroke="transparent" points="-4,4 -4,-511 546.31,-511 546.31,4 -4,4"/>
<g id="clust1" class="cluster">
<title>cluster1</title>
<polygon fill="#d3d3d3" stroke="#d3d3d3" points="4.95,0 4.95,-135 542.31,-135 542.31,0 4.95,0"/>
<text text-anchor="middle" x="273.63" y="-119.8" font-family="Times,serif" font-size="14.00" fill="#000000">Found Contradictions</text>
</g>
<g id="clust2" class="cluster">
<title>cluster2</title>
<polygon fill="#d3d3d3" stroke="#d3d3d3" points="0,-143 0,-507 542.31,-507 542.31,-143 0,-143"/>
<text text-anchor="middle" x="271.16" y="-491.8" font-family="Times,serif" font-size="14.00" fill="#000000">Possible New Correlations</text>
</g>
<!-- contra45 -->
<g id="node1" class="node">
<title>contra45</title>
<ellipse fill="none" stroke="#000000" cx="96.39" cy="-56" rx="83.5" ry="37.5"/>
<text text-anchor="middle" x="96.39" y="-67.3" font-family="Times,serif" font-size="14.00" fill="#000000">Some things again</text>
<text text-anchor="middle" x="96.39" y="-52.3" font-family="Times,serif" font-size="14.00" fill="#000000">are present in a</text>
<text text-anchor="middle" x="96.39" y="-37.3" font-family="Times,serif" font-size="14.00" fill="#000000">subject</text>
</g>
<!-- contra119 -->
<g id="node2" class="node">
<title>contra119</title>
<ellipse fill="none" stroke="#000000" cx="448.04" cy="-56" rx="86.5" ry="48.1667"/>
<text text-anchor="middle" x="448.04" y="-74.8" font-family="Times,serif" font-size="14.00" fill="#000000">which are neither</text>
<text text-anchor="middle" x="448.04" y="-59.8" font-family="Times,serif" font-size="14.00" fill="#000000">present in a subject</text>
<text text-anchor="middle" x="448.04" y="-44.8" font-family="Times,serif" font-size="14.00" fill="#000000">such as the</text>
<text text-anchor="middle" x="448.04" y="-29.8" font-family="Times,serif" font-size="14.00" fill="#000000">individual man</text>
</g>
<!-- contra45&#45;&gt;contra119 -->
<g id="edge1" class="edge">
<title>contra45&#45;&gt;contra119</title>
<path fill="none" stroke="#000000" d="M179.97,-56C210.31,-56 237.28,-56 237.28,-56 237.28,-56 295.97,-56 351.41,-56"/>
<polygon fill="#000000" stroke="#000000" points="351.71,-59.5001 361.71,-56 351.71,-52.5001 351.71,-59.5001"/>
<text text-anchor="middle" x="273.28" y="-59.8" font-family="Times,serif" font-size="14.00" fill="#000000">contradicting</text>
</g>
<!-- poss_new45 -->
<g id="node3" class="node">
<title>poss_new45</title>
<ellipse fill="none" stroke="#000000" cx="96.39" cy="-439" rx="83.5" ry="37.5"/>
<text text-anchor="middle" x="96.39" y="-450.3" font-family="Times,serif" font-size="14.00" fill="#000000">Some things again</text>
<text text-anchor="middle" x="96.39" y="-435.3" font-family="Times,serif" font-size="14.00" fill="#000000">are present in a</text>
<text text-anchor="middle" x="96.39" y="-420.3" font-family="Times,serif" font-size="14.00" fill="#000000">subject</text>
</g>
<!-- poss_new128 -->
<g id="node4" class="node">
<title>poss_new128</title>
<ellipse fill="none" stroke="#000000" cx="448.04" cy="-439" rx="84" ry="27"/>
<text text-anchor="middle" x="448.04" y="-442.8" font-family="Times,serif" font-size="14.00" fill="#000000">a subject such as</text>
<text text-anchor="middle" x="448.04" y="-427.8" font-family="Times,serif" font-size="14.00" fill="#000000">the individual man</text>
</g>
<!-- poss_new45&#45;&gt;poss_new128 -->
<g id="edge2" class="edge">
<title>poss_new45&#45;&gt;poss_new128</title>
<path fill="none" stroke="#000000" d="M180.02,-439C203.02,-439 221.78,-439 221.78,-439 221.78,-439 291.48,-439 353.51,-439"/>
<polygon fill="#000000" stroke="#000000" points="353.79,-442.5001 363.79,-439 353.79,-435.5001 353.79,-442.5001"/>
<text text-anchor="middle" x="273.28" y="-442.8" font-family="Times,serif" font-size="14.00" fill="#000000">possibly correlated</text>
</g>
<!-- poss_new48 -->
<g id="node5" class="node">
<title>poss_new48</title>
<ellipse fill="none" stroke="#000000" cx="96.39" cy="-335" rx="88.5" ry="48.1667"/>
<text text-anchor="middle" x="96.39" y="-353.8" font-family="Times,serif" font-size="14.00" fill="#000000">Some things , again</text>
<text text-anchor="middle" x="96.39" y="-338.8" font-family="Times,serif" font-size="14.00" fill="#000000">, are never</text>
<text text-anchor="middle" x="96.39" y="-323.8" font-family="Times,serif" font-size="14.00" fill="#000000">predicable of a</text>
<text text-anchor="middle" x="96.39" y="-308.8" font-family="Times,serif" font-size="14.00" fill="#000000">subject</text>
</g>
<!-- poss_new116 -->
<g id="node6" class="node">
<title>poss_new116</title>
<ellipse fill="none" stroke="#000000" cx="448.04" cy="-335" rx="73.5" ry="27"/>
<text text-anchor="middle" x="448.04" y="-338.8" font-family="Times,serif" font-size="14.00" fill="#000000">There is lastly a</text>
<text text-anchor="middle" x="448.04" y="-323.8" font-family="Times,serif" font-size="14.00" fill="#000000">class of things</text>
</g>
<!-- poss_new48&#45;&gt;poss_new116 -->
<g id="edge3" class="edge">
<title>poss_new48&#45;&gt;poss_new116</title>
<path fill="none" stroke="#000000" d="M184.83,-335C205.58,-335 221.78,-335 221.78,-335 221.78,-335 299.68,-335 364.07,-335"/>
<polygon fill="#000000" stroke="#000000" points="364.27,-338.5001 374.27,-335 364.27,-331.5001 364.27,-338.5001"/>
<text text-anchor="middle" x="273.28" y="-338.8" font-family="Times,serif" font-size="14.00" fill="#000000">possibly correlated</text>
</g>
<!-- poss_new55 -->
<g id="node7" class="node">
<title>poss_new55</title>
<ellipse fill="none" stroke="#000000" cx="96.39" cy="-210" rx="88.5" ry="58.8803"/>
<text text-anchor="middle" x="96.39" y="-236.3" font-family="Times,serif" font-size="14.00" fill="#000000">Some things , again</text>
<text text-anchor="middle" x="96.39" y="-221.3" font-family="Times,serif" font-size="14.00" fill="#000000">, are present in a</text>
<text text-anchor="middle" x="96.39" y="-206.3" font-family="Times,serif" font-size="14.00" fill="#000000">subject , but are</text>
<text text-anchor="middle" x="96.39" y="-191.3" font-family="Times,serif" font-size="14.00" fill="#000000">never predicable of</text>
<text text-anchor="middle" x="96.39" y="-176.3" font-family="Times,serif" font-size="14.00" fill="#000000">a subject .</text>
</g>
<!-- poss_new119 -->
<g id="node8" class="node">
<title>poss_new119</title>
<ellipse fill="none" stroke="#000000" cx="448.04" cy="-210" rx="86.5" ry="48.1667"/>
<text text-anchor="middle" x="448.04" y="-228.8" font-family="Times,serif" font-size="14.00" fill="#000000">which are neither</text>
<text text-anchor="middle" x="448.04" y="-213.8" font-family="Times,serif" font-size="14.00" fill="#000000">present in a subject</text>
<text text-anchor="middle" x="448.04" y="-198.8" font-family="Times,serif" font-size="14.00" fill="#000000">such as the</text>
<text text-anchor="middle" x="448.04" y="-183.8" font-family="Times,serif" font-size="14.00" fill="#000000">individual man</text>
</g>
<!-- poss_new55&#45;&gt;poss_new119 -->
<g id="edge4" class="edge">
<title>poss_new55&#45;&gt;poss_new119</title>
<path fill="none" stroke="#000000" d="M184.83,-210C205.58,-210 221.78,-210 221.78,-210 221.78,-210 289.87,-210 351.34,-210"/>
<polygon fill="#000000" stroke="#000000" points="351.53,-213.5001 361.53,-210 351.53,-206.5001 351.53,-213.5001"/>
<text text-anchor="middle" x="273.28" y="-213.8" font-family="Times,serif" font-size="14.00" fill="#000000">possibly correlated</text>
</g>
</g>
</svg>
