<?xml version="1.0" encoding="UTF-8" standalone="no"?>
<!DOCTYPE svg PUBLIC "-//W3C//DTD SVG 1.1//EN"
 "http://www.w3.org/Graphics/SVG/1.1/DTD/svg11.dtd">
<!-- Generated by graphviz version 2.40.1 (20161225.0304)
 -->
<!-- Pages: 1 -->
<svg width="923pt" height="505pt"
 viewBox="0.00 0.00 922.51 505.00" xmlns="http://www.w3.org/2000/svg" xmlns:xlink="http://www.w3.org/1999/xlink">
<g id="graph0" class="graph" transform="scale(1 1) rotate(0) translate(4 501)">
<polygon fill="#ffffff" stroke="transparent" points="-4,4 -4,-501 918.51,-501 918.51,4 -4,4"/>
<g id="clust1" class="cluster">
<title>cluster2</title>
<polygon fill="#d3d3d3" stroke="#d3d3d3" points="258.22,0 258.22,-354 914.51,-354 914.51,0 258.22,0"/>
<text text-anchor="middle" x="586.36" y="-338.8" font-family="Times,serif" font-size="14.00" fill="#000000">Possible New Correlations</text>
</g>
<g id="clust2" class="cluster">
<title>cluster1</title>
<polygon fill="#d3d3d3" stroke="#d3d3d3" points="0,-362 0,-497 644.97,-497 644.97,-362 0,-362"/>
<text text-anchor="middle" x="322.49" y="-481.8" font-family="Times,serif" font-size="14.00" fill="#000000">Found Contradictions</text>
</g>
<!-- poss_new87 -->
<g id="node1" class="node">
<title>poss_new87</title>
<ellipse fill="none" stroke="#000000" cx="346.83" cy="-296" rx="61" ry="27"/>
<text text-anchor="middle" x="346.83" y="-299.8" font-family="Times,serif" font-size="14.00" fill="#000000">grammatical</text>
<text text-anchor="middle" x="346.83" y="-284.8" font-family="Times,serif" font-size="14.00" fill="#000000">knowledge</text>
</g>
<!-- poss_new129 -->
<g id="node2" class="node">
<title>poss_new129</title>
<ellipse fill="none" stroke="#000000" cx="820.24" cy="-305" rx="77.5" ry="18"/>
<text text-anchor="middle" x="820.24" y="-301.3" font-family="Times,serif" font-size="14.00" fill="#000000">the individual man</text>
</g>
<!-- poss_new87&#45;&gt;poss_new129 -->
<g id="edge1" class="edge">
<title>poss_new87&#45;&gt;poss_new129</title>
<path fill="none" stroke="#000000" d="M406.03,-289.82C474.14,-282.71 576.71,-272 576.71,-272 576.71,-272 671.7,-284.87 743.03,-294.54"/>
<polygon fill="#000000" stroke="#000000" points="742.9908,-298.0665 753.37,-295.94 743.9301,-291.1298 742.9908,-298.0665"/>
<text text-anchor="middle" x="550.71" y="-260.8" font-family="Times,serif" font-size="14.00" fill="#000000">*opposed</text>
</g>
<!-- poss_new129&#45;&gt;poss_new87 -->
<g id="edge2" class="edge">
<title>poss_new129&#45;&gt;poss_new87</title>
<path fill="none" stroke="#000000" d="M742.59,-305.79C655.03,-306.68 524.71,-308 524.71,-308 524.71,-308 466.9,-304.1 417.19,-300.75"/>
<polygon fill="#000000" stroke="#000000" points="417.2646,-297.2471 407.05,-300.06 416.7893,-304.2309 417.2646,-297.2471"/>
<text text-anchor="middle" x="550.71" y="-311.8" font-family="Times,serif" font-size="14.00" fill="#000000">*opposed</text>
</g>
<!-- poss_new89 -->
<g id="node3" class="node">
<title>poss_new89</title>
<ellipse fill="none" stroke="#000000" cx="346.83" cy="-233" rx="78" ry="18"/>
<text text-anchor="middle" x="346.83" y="-229.3" font-family="Times,serif" font-size="14.00" fill="#000000">a certain whiteness</text>
</g>
<!-- poss_new116 -->
<g id="node4" class="node">
<title>poss_new116</title>
<ellipse fill="none" stroke="#000000" cx="820.24" cy="-221" rx="73.5" ry="27"/>
<text text-anchor="middle" x="820.24" y="-224.8" font-family="Times,serif" font-size="14.00" fill="#000000">There is lastly a</text>
<text text-anchor="middle" x="820.24" y="-209.8" font-family="Times,serif" font-size="14.00" fill="#000000">class of things</text>
</g>
<!-- poss_new89&#45;&gt;poss_new116 -->
<g id="edge3" class="edge">
<title>poss_new89&#45;&gt;poss_new116</title>
<path fill="none" stroke="#000000" d="M397.28,-219.17C464.95,-200.63 576.71,-170 576.71,-170 576.71,-170 674.67,-190.51 746.33,-205.52"/>
<polygon fill="#000000" stroke="#000000" points="745.7548,-208.9754 756.26,-207.6 747.19,-202.1241 745.7548,-208.9754"/>
<text text-anchor="middle" x="550.71" y="-158.8" font-family="Times,serif" font-size="14.00" fill="#000000">*opposed</text>
</g>
<!-- poss_new116&#45;&gt;poss_new89 -->
<g id="edge4" class="edge">
<title>poss_new116&#45;&gt;poss_new89</title>
<path fill="none" stroke="#000000" d="M746.51,-221C674.83,-221 576.71,-221 576.71,-221 576.71,-221 498.56,-225.08 433.39,-228.48"/>
<polygon fill="#000000" stroke="#000000" points="432.8636,-225.0026 423.06,-229.02 433.2291,-231.9931 432.8636,-225.0026"/>
<text text-anchor="middle" x="550.71" y="-209.8" font-family="Times,serif" font-size="14.00" fill="#000000">*opposed</text>
</g>
<!-- poss_new85 -->
<g id="node5" class="node">
<title>poss_new85</title>
<ellipse fill="none" stroke="#000000" cx="346.83" cy="-160" rx="78" ry="37.5"/>
<text text-anchor="middle" x="346.83" y="-171.3" font-family="Times,serif" font-size="14.00" fill="#000000">a certain point of</text>
<text text-anchor="middle" x="346.83" y="-156.3" font-family="Times,serif" font-size="14.00" fill="#000000">grammatical</text>
<text text-anchor="middle" x="346.83" y="-141.3" font-family="Times,serif" font-size="14.00" fill="#000000">knowledge</text>
</g>
<!-- poss_new128 -->
<g id="node6" class="node">
<title>poss_new128</title>
<ellipse fill="none" stroke="#000000" cx="820.24" cy="-149" rx="84" ry="27"/>
<text text-anchor="middle" x="820.24" y="-152.8" font-family="Times,serif" font-size="14.00" fill="#000000">a subject such as</text>
<text text-anchor="middle" x="820.24" y="-137.8" font-family="Times,serif" font-size="14.00" fill="#000000">the individual man</text>
</g>
<!-- poss_new85&#45;&gt;poss_new128 -->
<g id="edge5" class="edge">
<title>poss_new85&#45;&gt;poss_new128</title>
<path fill="none" stroke="#000000" d="M420.7,-148.14C496.12,-136.03 602.21,-119 602.21,-119 602.21,-119 672.09,-128.62 732.73,-136.96"/>
<polygon fill="#000000" stroke="#000000" points="732.3762,-140.4442 742.76,-138.34 733.3304,-133.5095 732.3762,-140.4442"/>
<text text-anchor="middle" x="550.71" y="-107.8" font-family="Times,serif" font-size="14.00" fill="#000000">possibly correlated</text>
</g>
<!-- poss_new66 -->
<g id="node7" class="node">
<title>poss_new66</title>
<ellipse fill="none" stroke="#000000" cx="346.83" cy="-56" rx="80.7205" ry="48.1667"/>
<text text-anchor="middle" x="346.83" y="-74.8" font-family="Times,serif" font-size="14.00" fill="#000000">is or again a</text>
<text text-anchor="middle" x="346.83" y="-59.8" font-family="Times,serif" font-size="14.00" fill="#000000">certain whiteness</text>
<text text-anchor="middle" x="346.83" y="-44.8" font-family="Times,serif" font-size="14.00" fill="#000000">may be present in</text>
<text text-anchor="middle" x="346.83" y="-29.8" font-family="Times,serif" font-size="14.00" fill="#000000">the body</text>
</g>
<!-- poss_new119 -->
<g id="node8" class="node">
<title>poss_new119</title>
<ellipse fill="none" stroke="#000000" cx="820.24" cy="-56" rx="86.5" ry="48.1667"/>
<text text-anchor="middle" x="820.24" y="-74.8" font-family="Times,serif" font-size="14.00" fill="#000000">which are neither</text>
<text text-anchor="middle" x="820.24" y="-59.8" font-family="Times,serif" font-size="14.00" fill="#000000">present in a subject</text>
<text text-anchor="middle" x="820.24" y="-44.8" font-family="Times,serif" font-size="14.00" fill="#000000">such as the</text>
<text text-anchor="middle" x="820.24" y="-29.8" font-family="Times,serif" font-size="14.00" fill="#000000">individual man</text>
</g>
<!-- poss_new66&#45;&gt;poss_new119 -->
<g id="edge6" class="edge">
<title>poss_new66&#45;&gt;poss_new119</title>
<path fill="none" stroke="#000000" d="M427.48,-54.412C464.03,-53.693 499.21,-53 499.21,-53 499.21,-53 629.07,-54.214 723.6,-55.097"/>
<polygon fill="#000000" stroke="#000000" points="723.7578,-58.5985 733.79,-55.192 723.8231,-51.5988 723.7578,-58.5985"/>
<text text-anchor="middle" x="550.71" y="-56.8" font-family="Times,serif" font-size="14.00" fill="#000000">possibly correlated</text>
</g>
<!-- contra66 -->
<g id="node9" class="node">
<title>contra66</title>
<ellipse fill="none" stroke="#000000" cx="88.61" cy="-418" rx="80.7205" ry="48.1667"/>
<text text-anchor="middle" x="88.61" y="-436.8" font-family="Times,serif" font-size="14.00" fill="#000000">is or again a</text>
<text text-anchor="middle" x="88.61" y="-421.8" font-family="Times,serif" font-size="14.00" fill="#000000">certain whiteness</text>
<text text-anchor="middle" x="88.61" y="-406.8" font-family="Times,serif" font-size="14.00" fill="#000000">may be present in</text>
<text text-anchor="middle" x="88.61" y="-391.8" font-family="Times,serif" font-size="14.00" fill="#000000">the body</text>
</g>
<!-- contra66&#45;&gt;poss_new87 -->
<g id="edge8" class="edge">
<title>contra66&#45;&gt;poss_new87</title>
<path fill="none" stroke="#000000" d="M152.11,-388C196.4,-367.08 254.71,-339.52 295.94,-320.04"/>
<polygon fill="#000000" stroke="#000000" points="297.4396,-323.2025 304.99,-315.77 294.4526,-316.8718 297.4396,-323.2025"/>
<text text-anchor="middle" x="217.72" y="-370.8" font-family="Times,serif" font-size="14.00" fill="#000000">*correlated</text>
</g>
<!-- contra66&#45;&gt;poss_new89 -->
<g id="edge9" class="edge">
<title>contra66&#45;&gt;poss_new89</title>
<path fill="none" stroke="#000000" d="M140.24,-381.01C192.26,-343.74 270.91,-287.39 314.63,-256.07"/>
<polygon fill="#000000" stroke="#000000" points="316.8009,-258.8203 322.89,-250.15 312.7231,-253.1306 316.8009,-258.8203"/>
<text text-anchor="middle" x="217.72" y="-327.8" font-family="Times,serif" font-size="14.00" fill="#000000">*correlated</text>
</g>
<!-- contra119 -->
<g id="node10" class="node">
<title>contra119</title>
<ellipse fill="none" stroke="#000000" cx="550.71" cy="-418" rx="86.5" ry="48.1667"/>
<text text-anchor="middle" x="550.71" y="-436.8" font-family="Times,serif" font-size="14.00" fill="#000000">which are neither</text>
<text text-anchor="middle" x="550.71" y="-421.8" font-family="Times,serif" font-size="14.00" fill="#000000">present in a subject</text>
<text text-anchor="middle" x="550.71" y="-406.8" font-family="Times,serif" font-size="14.00" fill="#000000">such as the</text>
<text text-anchor="middle" x="550.71" y="-391.8" font-family="Times,serif" font-size="14.00" fill="#000000">individual man</text>
</g>
<!-- contra66&#45;&gt;contra119 -->
<g id="edge7" class="edge">
<title>contra66&#45;&gt;contra119</title>
<path fill="none" stroke="#000000" d="M169.47,-418C233,-418 310.83,-418 310.83,-418 310.83,-418 387.34,-418 453.94,-418"/>
<polygon fill="#000000" stroke="#000000" points="454.11,-421.5001 464.11,-418 454.11,-414.5001 454.11,-421.5001"/>
<text text-anchor="middle" x="346.83" y="-421.8" font-family="Times,serif" font-size="14.00" fill="#000000">contradicting</text>
</g>
<!-- contra119&#45;&gt;poss_new129 -->
<g id="edge10" class="edge">
<title>contra119&#45;&gt;poss_new129</title>
<path fill="none" stroke="#000000" d="M619.77,-389.05C667.91,-368.86 730.87,-342.47 773.28,-324.69"/>
<polygon fill="#000000" stroke="#000000" points="774.6622,-327.9057 782.53,-320.81 771.9545,-321.4506 774.6622,-327.9057"/>
<text text-anchor="middle" x="685.47" y="-393.8" font-family="Times,serif" font-size="14.00" fill="#000000">*correlated</text>
</g>
<!-- contra119&#45;&gt;poss_new116 -->
<g id="edge11" class="edge">
<title>contra119&#45;&gt;poss_new116</title>
<path fill="none" stroke="#000000" d="M603.32,-379.55C654.77,-341.94 732.05,-285.46 779.14,-251.04"/>
<polygon fill="#000000" stroke="#000000" points="781.2771,-253.8133 787.29,-245.09 777.1496,-248.1597 781.2771,-253.8133"/>
<text text-anchor="middle" x="685.47" y="-351.8" font-family="Times,serif" font-size="14.00" fill="#000000">*correlated</text>
</g>
</g>
</svg>
