<?xml version="1.0" encoding="UTF-8" standalone="no"?>
<!DOCTYPE svg PUBLIC "-//W3C//DTD SVG 1.1//EN"
 "http://www.w3.org/Graphics/SVG/1.1/DTD/svg11.dtd">
<!-- Generated by graphviz version 2.40.1 (20161225.0304)
 -->
<!-- Pages: 1 -->
<svg width="918pt" height="515pt"
 viewBox="0.00 0.00 918.27 515.00" xmlns="http://www.w3.org/2000/svg" xmlns:xlink="http://www.w3.org/1999/xlink">
<g id="graph0" class="graph" transform="scale(1 1) rotate(0) translate(4 511)">
<polygon fill="#ffffff" stroke="transparent" points="-4,4 -4,-511 914.27,-511 914.27,4 -4,4"/>
<g id="clust1" class="cluster">
<title>cluster1</title>
<polygon fill="#d3d3d3" stroke="#d3d3d3" points="0,-372 0,-507 628,-507 628,-372 0,-372"/>
<text text-anchor="middle" x="314" y="-491.8" font-family="Times,serif" font-size="14.00" fill="#000000">Found Contradictions</text>
</g>
<g id="clust2" class="cluster">
<title>cluster2</title>
<polygon fill="#d3d3d3" stroke="#d3d3d3" points="273.78,0 273.78,-364 910.27,-364 910.27,0 273.78,0"/>
<text text-anchor="middle" x="592.02" y="-348.8" font-family="Times,serif" font-size="14.00" fill="#000000">Possible New Correlations</text>
</g>
<!-- contra48 -->
<g id="node1" class="node">
<title>contra48</title>
<ellipse fill="none" stroke="#000000" cx="96.39" cy="-428" rx="88.5" ry="48.1667"/>
<text text-anchor="middle" x="96.39" y="-446.8" font-family="Times,serif" font-size="14.00" fill="#000000">Some things , again</text>
<text text-anchor="middle" x="96.39" y="-431.8" font-family="Times,serif" font-size="14.00" fill="#000000">, are never</text>
<text text-anchor="middle" x="96.39" y="-416.8" font-family="Times,serif" font-size="14.00" fill="#000000">predicable of a</text>
<text text-anchor="middle" x="96.39" y="-401.8" font-family="Times,serif" font-size="14.00" fill="#000000">subject</text>
</g>
<!-- contra105 -->
<g id="node2" class="node">
<title>contra105</title>
<ellipse fill="none" stroke="#000000" cx="557.78" cy="-417" rx="62.374" ry="37.5"/>
<text text-anchor="middle" x="557.78" y="-428.3" font-family="Times,serif" font-size="14.00" fill="#000000">Thus it is</text>
<text text-anchor="middle" x="557.78" y="-413.3" font-family="Times,serif" font-size="14.00" fill="#000000">predicable of</text>
<text text-anchor="middle" x="557.78" y="-398.3" font-family="Times,serif" font-size="14.00" fill="#000000">grammar</text>
</g>
<!-- contra48&#45;&gt;contra105 -->
<g id="edge1" class="edge">
<title>contra48&#45;&gt;contra105</title>
<path fill="none" stroke="#000000" d="M184.93,-425.77C252.53,-424.06 334.17,-422 334.17,-422 334.17,-422 419.91,-420.08 485.2,-418.62"/>
<polygon fill="#000000" stroke="#000000" points="485.5707,-422.1127 495.49,-418.39 485.4143,-415.1144 485.5707,-422.1127"/>
<text text-anchor="middle" x="370.17" y="-425.8" font-family="Times,serif" font-size="14.00" fill="#000000">contradicting</text>
</g>
<!-- poss_new45 -->
<g id="node3" class="node">
<title>poss_new45</title>
<ellipse fill="none" stroke="#000000" cx="370.17" cy="-296" rx="83.5" ry="37.5"/>
<text text-anchor="middle" x="370.17" y="-307.3" font-family="Times,serif" font-size="14.00" fill="#000000">Some things again</text>
<text text-anchor="middle" x="370.17" y="-292.3" font-family="Times,serif" font-size="14.00" fill="#000000">are present in a</text>
<text text-anchor="middle" x="370.17" y="-277.3" font-family="Times,serif" font-size="14.00" fill="#000000">subject</text>
</g>
<!-- contra48&#45;&gt;poss_new45 -->
<g id="edge7" class="edge">
<title>contra48&#45;&gt;poss_new45</title>
<path fill="none" stroke="#000000" d="M162.66,-396.05C205.42,-375.43 260.83,-348.72 303.64,-328.08"/>
<polygon fill="#000000" stroke="#000000" points="305.362,-331.1354 312.85,-323.64 302.3222,-324.8299 305.362,-331.1354"/>
<text text-anchor="middle" x="233.28" y="-376.8" font-family="Times,serif" font-size="14.00" fill="#000000">*correlated</text>
</g>
<!-- poss_new55 -->
<g id="node7" class="node">
<title>poss_new55</title>
<ellipse fill="none" stroke="#000000" cx="370.17" cy="-67" rx="88.5" ry="58.8803"/>
<text text-anchor="middle" x="370.17" y="-93.3" font-family="Times,serif" font-size="14.00" fill="#000000">Some things , again</text>
<text text-anchor="middle" x="370.17" y="-78.3" font-family="Times,serif" font-size="14.00" fill="#000000">, are present in a</text>
<text text-anchor="middle" x="370.17" y="-63.3" font-family="Times,serif" font-size="14.00" fill="#000000">subject , but are</text>
<text text-anchor="middle" x="370.17" y="-48.3" font-family="Times,serif" font-size="14.00" fill="#000000">never predicable of</text>
<text text-anchor="middle" x="370.17" y="-33.3" font-family="Times,serif" font-size="14.00" fill="#000000">a subject .</text>
</g>
<!-- contra48&#45;&gt;poss_new55 -->
<g id="edge8" class="edge">
<title>contra48&#45;&gt;poss_new55</title>
<path fill="none" stroke="#000000" d="M130.23,-383.37C179,-319.07 269.18,-200.16 324.01,-127.86"/>
<polygon fill="#000000" stroke="#000000" points="326.9367,-129.793 330.19,-119.71 321.3589,-125.5635 326.9367,-129.793"/>
<text text-anchor="middle" x="233.28" y="-249.8" font-family="Times,serif" font-size="14.00" fill="#000000">*correlated</text>
</g>
<!-- poss_new113 -->
<g id="node4" class="node">
<title>poss_new113</title>
<ellipse fill="none" stroke="#000000" cx="809.64" cy="-315" rx="69.5877" ry="18"/>
<text text-anchor="middle" x="809.64" y="-311.3" font-family="Times,serif" font-size="14.00" fill="#000000">the human mind</text>
</g>
<!-- contra105&#45;&gt;poss_new113 -->
<g id="edge9" class="edge">
<title>contra105&#45;&gt;poss_new113</title>
<path fill="none" stroke="#000000" d="M609.66,-395.99C654.64,-377.77 719.17,-351.64 762.66,-334.03"/>
<polygon fill="#000000" stroke="#000000" points="764.1919,-337.1856 772.14,-330.18 761.5579,-330.7 764.1919,-337.1856"/>
<text text-anchor="middle" x="668.5" y="-397.8" font-family="Times,serif" font-size="14.00" fill="#000000">*correlated</text>
</g>
<!-- poss_new102 -->
<g id="node8" class="node">
<title>poss_new102</title>
<ellipse fill="none" stroke="#000000" cx="809.64" cy="-104" rx="92.6469" ry="37.5"/>
<text text-anchor="middle" x="809.64" y="-115.3" font-family="Times,serif" font-size="14.00" fill="#000000">while knowledge is</text>
<text text-anchor="middle" x="809.64" y="-100.3" font-family="Times,serif" font-size="14.00" fill="#000000">present in the human</text>
<text text-anchor="middle" x="809.64" y="-85.3" font-family="Times,serif" font-size="14.00" fill="#000000">mind</text>
</g>
<!-- contra105&#45;&gt;poss_new102 -->
<g id="edge10" class="edge">
<title>contra105&#45;&gt;poss_new102</title>
<path fill="none" stroke="#000000" d="M584.97,-383.21C630.84,-326.21 723.53,-211.01 774.34,-147.86"/>
<polygon fill="#000000" stroke="#000000" points="777.0812,-150.0364 780.62,-140.05 771.626,-145.6499 777.0812,-150.0364"/>
<text text-anchor="middle" x="668.5" y="-344.8" font-family="Times,serif" font-size="14.00" fill="#000000">*correlated</text>
</g>
<!-- poss_new45&#45;&gt;poss_new113 -->
<g id="edge2" class="edge">
<title>poss_new45&#45;&gt;poss_new113</title>
<path fill="none" stroke="#000000" d="M452.75,-289.81C512.86,-285.31 583.78,-280 583.78,-280 583.78,-280 673.36,-293.88 739.69,-304.16"/>
<polygon fill="#000000" stroke="#000000" points="739.2822,-307.6385 749.7,-305.71 740.3534,-300.7209 739.2822,-307.6385"/>
<text text-anchor="middle" x="557.78" y="-268.8" font-family="Times,serif" font-size="14.00" fill="#000000">*opposed</text>
</g>
<!-- poss_new113&#45;&gt;poss_new45 -->
<g id="edge3" class="edge">
<title>poss_new113&#45;&gt;poss_new45</title>
<path fill="none" stroke="#000000" d="M739.88,-315.25C657.57,-315.55 531.78,-316 531.78,-316 531.78,-316 498.02,-311.82 461.36,-307.29"/>
<polygon fill="#000000" stroke="#000000" points="461.3251,-303.7589 450.97,-306 460.4625,-310.7055 461.3251,-303.7589"/>
<text text-anchor="middle" x="557.78" y="-319.8" font-family="Times,serif" font-size="14.00" fill="#000000">*opposed</text>
</g>
<!-- poss_new48 -->
<g id="node5" class="node">
<title>poss_new48</title>
<ellipse fill="none" stroke="#000000" cx="370.17" cy="-192" rx="88.5" ry="48.1667"/>
<text text-anchor="middle" x="370.17" y="-210.8" font-family="Times,serif" font-size="14.00" fill="#000000">Some things , again</text>
<text text-anchor="middle" x="370.17" y="-195.8" font-family="Times,serif" font-size="14.00" fill="#000000">, are never</text>
<text text-anchor="middle" x="370.17" y="-180.8" font-family="Times,serif" font-size="14.00" fill="#000000">predicable of a</text>
<text text-anchor="middle" x="370.17" y="-165.8" font-family="Times,serif" font-size="14.00" fill="#000000">subject</text>
</g>
<!-- poss_new105 -->
<g id="node6" class="node">
<title>poss_new105</title>
<ellipse fill="none" stroke="#000000" cx="809.64" cy="-197" rx="62.374" ry="37.5"/>
<text text-anchor="middle" x="809.64" y="-208.3" font-family="Times,serif" font-size="14.00" fill="#000000">Thus it is</text>
<text text-anchor="middle" x="809.64" y="-193.3" font-family="Times,serif" font-size="14.00" fill="#000000">predicable of</text>
<text text-anchor="middle" x="809.64" y="-178.3" font-family="Times,serif" font-size="14.00" fill="#000000">grammar</text>
</g>
<!-- poss_new48&#45;&gt;poss_new105 -->
<g id="edge4" class="edge">
<title>poss_new48&#45;&gt;poss_new105</title>
<path fill="none" stroke="#000000" d="M458.67,-193.3C484.67,-193.68 506.28,-194 506.28,-194 506.28,-194 647.27,-195.39 737.01,-196.28"/>
<polygon fill="#000000" stroke="#000000" points="737.1159,-199.7811 747.15,-196.38 737.185,-192.7815 737.1159,-199.7811"/>
<text text-anchor="middle" x="557.78" y="-197.8" font-family="Times,serif" font-size="14.00" fill="#000000">possibly correlated</text>
</g>
<!-- poss_new55&#45;&gt;poss_new102 -->
<g id="edge5" class="edge">
<title>poss_new55&#45;&gt;poss_new102</title>
<path fill="none" stroke="#000000" d="M458.59,-71.14C517.36,-73.891 583.78,-77 583.78,-77 583.78,-77 649.92,-84.907 710.62,-92.16"/>
<polygon fill="#000000" stroke="#000000" points="710.3438,-95.6519 720.69,-93.37 711.179,-88.7019 710.3438,-95.6519"/>
<text text-anchor="middle" x="557.78" y="-65.8" font-family="Times,serif" font-size="14.00" fill="#000000">*opposed</text>
</g>
<!-- poss_new102&#45;&gt;poss_new55 -->
<g id="edge6" class="edge">
<title>poss_new102&#45;&gt;poss_new55</title>
<path fill="none" stroke="#000000" d="M717.11,-107C636.28,-109.61 531.78,-113 531.78,-113 531.78,-113 498,-103.38 461.32,-92.95"/>
<polygon fill="#000000" stroke="#000000" points="462.0265,-89.512 451.45,-90.135 460.1066,-96.2436 462.0265,-89.512"/>
<text text-anchor="middle" x="557.78" y="-116.8" font-family="Times,serif" font-size="14.00" fill="#000000">*opposed</text>
</g>
</g>
</svg>
