<?xml version="1.0" encoding="UTF-8" standalone="no"?>
<!DOCTYPE svg PUBLIC "-//W3C//DTD SVG 1.1//EN"
 "http://www.w3.org/Graphics/SVG/1.1/DTD/svg11.dtd">
<!-- Generated by graphviz version 2.40.1 (20161225.0304)
 -->
<!-- Pages: 1 -->
<svg width="564pt" height="493pt"
 viewBox="0.00 0.00 564.45 493.00" xmlns="http://www.w3.org/2000/svg" xmlns:xlink="http://www.w3.org/1999/xlink">
<g id="graph0" class="graph" transform="scale(1 1) rotate(0) translate(4 489)">
<polygon fill="#ffffff" stroke="transparent" points="-4,4 -4,-489 560.45,-489 560.45,4 -4,4"/>
<g id="clust1" class="cluster">
<title>cluster2</title>
<polygon fill="#d3d3d3" stroke="#d3d3d3" points="0,-121 0,-485 556.45,-485 556.45,-121 0,-121"/>
<text text-anchor="middle" x="278.23" y="-469.8" font-family="Times,serif" font-size="14.00" fill="#000000">Possible New Correlations</text>
</g>
<g id="clust2" class="cluster">
<title>cluster1</title>
<polygon fill="#d3d3d3" stroke="#d3d3d3" points="0,0 0,-113 551.5,-113 551.5,0 0,0"/>
<text text-anchor="middle" x="275.75" y="-97.8" font-family="Times,serif" font-size="14.00" fill="#000000">Found Contradictions</text>
</g>
<!-- poss_new0 -->
<g id="node1" class="node">
<title>poss_new0</title>
<ellipse fill="none" stroke="#000000" cx="101.34" cy="-406" rx="93.5" ry="37.5"/>
<text text-anchor="middle" x="101.34" y="-417.3" font-family="Times,serif" font-size="14.00" fill="#000000">Of things themselves</text>
<text text-anchor="middle" x="101.34" y="-402.3" font-family="Times,serif" font-size="14.00" fill="#000000">some are predicable</text>
<text text-anchor="middle" x="101.34" y="-387.3" font-family="Times,serif" font-size="14.00" fill="#000000">of a subject</text>
</g>
<!-- poss_new48 -->
<g id="node2" class="node">
<title>poss_new48</title>
<ellipse fill="none" stroke="#000000" cx="460.06" cy="-406" rx="88.5" ry="48.1667"/>
<text text-anchor="middle" x="460.06" y="-424.8" font-family="Times,serif" font-size="14.00" fill="#000000">Some things , again</text>
<text text-anchor="middle" x="460.06" y="-409.8" font-family="Times,serif" font-size="14.00" fill="#000000">, are never</text>
<text text-anchor="middle" x="460.06" y="-394.8" font-family="Times,serif" font-size="14.00" fill="#000000">predicable of a</text>
<text text-anchor="middle" x="460.06" y="-379.8" font-family="Times,serif" font-size="14.00" fill="#000000">subject</text>
</g>
<!-- poss_new0&#45;&gt;poss_new48 -->
<g id="edge1" class="edge">
<title>poss_new0&#45;&gt;poss_new48</title>
<path fill="none" stroke="#000000" d="M195.02,-406C215.75,-406 231.68,-406 231.68,-406 231.68,-406 299.48,-406 361.2,-406"/>
<polygon fill="#000000" stroke="#000000" points="361.44,-409.5001 371.44,-406 361.44,-402.5001 361.44,-409.5001"/>
<text text-anchor="middle" x="283.18" y="-409.8" font-family="Times,serif" font-size="14.00" fill="#000000">possibly correlated</text>
</g>
<!-- poss_new4 -->
<g id="node3" class="node">
<title>poss_new4</title>
<ellipse fill="none" stroke="#000000" cx="101.34" cy="-302" rx="93.5" ry="37.5"/>
<text text-anchor="middle" x="101.34" y="-313.3" font-family="Times,serif" font-size="14.00" fill="#000000">Of things themselves</text>
<text text-anchor="middle" x="101.34" y="-298.3" font-family="Times,serif" font-size="14.00" fill="#000000">some are never</text>
<text text-anchor="middle" x="101.34" y="-283.3" font-family="Times,serif" font-size="14.00" fill="#000000">present in a subject</text>
</g>
<!-- poss_new45 -->
<g id="node4" class="node">
<title>poss_new45</title>
<ellipse fill="none" stroke="#000000" cx="460.06" cy="-302" rx="83.5" ry="37.5"/>
<text text-anchor="middle" x="460.06" y="-313.3" font-family="Times,serif" font-size="14.00" fill="#000000">Some things again</text>
<text text-anchor="middle" x="460.06" y="-298.3" font-family="Times,serif" font-size="14.00" fill="#000000">are present in a</text>
<text text-anchor="middle" x="460.06" y="-283.3" font-family="Times,serif" font-size="14.00" fill="#000000">subject</text>
</g>
<!-- poss_new4&#45;&gt;poss_new45 -->
<g id="edge2" class="edge">
<title>poss_new4&#45;&gt;poss_new45</title>
<path fill="none" stroke="#000000" d="M195.02,-302C215.75,-302 231.68,-302 231.68,-302 231.68,-302 303.27,-302 366.29,-302"/>
<polygon fill="#000000" stroke="#000000" points="366.32,-305.5001 376.32,-302 366.32,-298.5001 366.32,-305.5001"/>
<text text-anchor="middle" x="283.18" y="-305.8" font-family="Times,serif" font-size="14.00" fill="#000000">possibly correlated</text>
</g>
<!-- poss_new15 -->
<g id="node5" class="node">
<title>poss_new15</title>
<ellipse fill="none" stroke="#000000" cx="101.34" cy="-188" rx="93.5" ry="58.8803"/>
<text text-anchor="middle" x="101.34" y="-214.3" font-family="Times,serif" font-size="14.00" fill="#000000">Of things themselves</text>
<text text-anchor="middle" x="101.34" y="-199.3" font-family="Times,serif" font-size="14.00" fill="#000000">some are predicable</text>
<text text-anchor="middle" x="101.34" y="-184.3" font-family="Times,serif" font-size="14.00" fill="#000000">of a subject , and</text>
<text text-anchor="middle" x="101.34" y="-169.3" font-family="Times,serif" font-size="14.00" fill="#000000">are never present in</text>
<text text-anchor="middle" x="101.34" y="-154.3" font-family="Times,serif" font-size="14.00" fill="#000000">a subject .</text>
</g>
<!-- poss_new55 -->
<g id="node6" class="node">
<title>poss_new55</title>
<ellipse fill="none" stroke="#000000" cx="460.06" cy="-188" rx="88.5" ry="58.8803"/>
<text text-anchor="middle" x="460.06" y="-214.3" font-family="Times,serif" font-size="14.00" fill="#000000">Some things , again</text>
<text text-anchor="middle" x="460.06" y="-199.3" font-family="Times,serif" font-size="14.00" fill="#000000">, are present in a</text>
<text text-anchor="middle" x="460.06" y="-184.3" font-family="Times,serif" font-size="14.00" fill="#000000">subject , but are</text>
<text text-anchor="middle" x="460.06" y="-169.3" font-family="Times,serif" font-size="14.00" fill="#000000">never predicable of</text>
<text text-anchor="middle" x="460.06" y="-154.3" font-family="Times,serif" font-size="14.00" fill="#000000">a subject .</text>
</g>
<!-- poss_new15&#45;&gt;poss_new55 -->
<g id="edge3" class="edge">
<title>poss_new15&#45;&gt;poss_new55</title>
<path fill="none" stroke="#000000" d="M195.02,-188C215.75,-188 231.68,-188 231.68,-188 231.68,-188 299.48,-188 361.2,-188"/>
<polygon fill="#000000" stroke="#000000" points="361.44,-191.5001 371.44,-188 361.44,-184.5001 361.44,-191.5001"/>
<text text-anchor="middle" x="283.18" y="-191.8" font-family="Times,serif" font-size="14.00" fill="#000000">possibly correlated</text>
</g>
<!-- contra4 -->
<g id="node7" class="node">
<title>contra4</title>
<ellipse fill="none" stroke="#000000" cx="101.34" cy="-45" rx="93.5" ry="37.5"/>
<text text-anchor="middle" x="101.34" y="-56.3" font-family="Times,serif" font-size="14.00" fill="#000000">Of things themselves</text>
<text text-anchor="middle" x="101.34" y="-41.3" font-family="Times,serif" font-size="14.00" fill="#000000">some are never</text>
<text text-anchor="middle" x="101.34" y="-26.3" font-family="Times,serif" font-size="14.00" fill="#000000">present in a subject</text>
</g>
<!-- contra45 -->
<g id="node8" class="node">
<title>contra45</title>
<ellipse fill="none" stroke="#000000" cx="460.06" cy="-45" rx="83.5" ry="37.5"/>
<text text-anchor="middle" x="460.06" y="-56.3" font-family="Times,serif" font-size="14.00" fill="#000000">Some things again</text>
<text text-anchor="middle" x="460.06" y="-41.3" font-family="Times,serif" font-size="14.00" fill="#000000">are present in a</text>
<text text-anchor="middle" x="460.06" y="-26.3" font-family="Times,serif" font-size="14.00" fill="#000000">subject</text>
</g>
<!-- contra4&#45;&gt;contra45 -->
<g id="edge4" class="edge">
<title>contra4&#45;&gt;contra45</title>
<path fill="none" stroke="#000000" d="M194.94,-45C223.34,-45 247.18,-45 247.18,-45 247.18,-45 309.22,-45 366.32,-45"/>
<polygon fill="#000000" stroke="#000000" points="366.54,-48.5001 376.54,-45 366.54,-41.5001 366.54,-48.5001"/>
<text text-anchor="middle" x="283.18" y="-48.8" font-family="Times,serif" font-size="14.00" fill="#000000">contradicting</text>
</g>
</g>
</svg>
