<?xml version="1.0" encoding="UTF-8" standalone="no"?>
<!DOCTYPE svg PUBLIC "-//W3C//DTD SVG 1.1//EN"
 "http://www.w3.org/Graphics/SVG/1.1/DTD/svg11.dtd">
<!-- Generated by graphviz version 2.40.1 (20161225.0304)
 -->
<!-- Pages: 1 -->
<svg width="978pt" height="569pt"
 viewBox="0.00 0.00 977.66 569.00" xmlns="http://www.w3.org/2000/svg" xmlns:xlink="http://www.w3.org/1999/xlink">
<g id="graph0" class="graph" transform="scale(1 1) rotate(0) translate(4 565)">
<polygon fill="#ffffff" stroke="transparent" points="-4,4 -4,-565 973.66,-565 973.66,4 -4,4"/>
<g id="clust1" class="cluster">
<title>cluster2</title>
<polygon fill="#d3d3d3" stroke="#d3d3d3" points="276.61,0 276.61,-418 969.66,-418 969.66,0 276.61,0"/>
<text text-anchor="middle" x="623.13" y="-402.8" font-family="Times,serif" font-size="14.00" fill="#000000">Possible New Correlations</text>
</g>
<g id="clust2" class="cluster">
<title>cluster1</title>
<polygon fill="#d3d3d3" stroke="#d3d3d3" points="0,-426 0,-561 674.67,-561 674.67,-426 0,-426"/>
<text text-anchor="middle" x="337.34" y="-545.8" font-family="Times,serif" font-size="14.00" fill="#000000">Found Contradictions</text>
</g>
<!-- poss_new23 -->
<g id="node1" class="node">
<title>poss_new23</title>
<ellipse fill="none" stroke="#000000" cx="376.53" cy="-369" rx="77.5" ry="18"/>
<text text-anchor="middle" x="376.53" y="-365.3" font-family="Times,serif" font-size="14.00" fill="#000000">the individual man</text>
</g>
<!-- poss_new89 -->
<g id="node2" class="node">
<title>poss_new89</title>
<ellipse fill="none" stroke="#000000" cx="862.67" cy="-369" rx="78" ry="18"/>
<text text-anchor="middle" x="862.67" y="-365.3" font-family="Times,serif" font-size="14.00" fill="#000000">a certain whiteness</text>
</g>
<!-- poss_new23&#45;&gt;poss_new89 -->
<g id="edge1" class="edge">
<title>poss_new23&#45;&gt;poss_new89</title>
<path fill="none" stroke="#000000" d="M443.08,-359.68C512.73,-349.92 612.06,-336 612.06,-336 612.06,-336 711.1,-349.04 784.65,-358.73"/>
<polygon fill="#000000" stroke="#000000" points="784.4793,-362.2376 794.85,-360.07 785.3911,-355.2972 784.4793,-362.2376"/>
<text text-anchor="middle" x="586.06" y="-324.8" font-family="Times,serif" font-size="14.00" fill="#000000">*opposed</text>
</g>
<!-- poss_new89&#45;&gt;poss_new23 -->
<g id="edge2" class="edge">
<title>poss_new89&#45;&gt;poss_new23</title>
<path fill="none" stroke="#000000" d="M784.74,-369.77C695.08,-370.66 560.06,-372 560.06,-372 560.06,-372 511.19,-371.2 463.88,-370.43"/>
<polygon fill="#000000" stroke="#000000" points="463.8878,-366.9297 453.83,-370.26 463.7693,-373.9287 463.8878,-366.9297"/>
<text text-anchor="middle" x="586.06" y="-375.8" font-family="Times,serif" font-size="14.00" fill="#000000">*opposed</text>
</g>
<!-- poss_new16 -->
<g id="node3" class="node">
<title>poss_new16</title>
<ellipse fill="none" stroke="#000000" cx="376.53" cy="-270" rx="76.5" ry="37.5"/>
<text text-anchor="middle" x="376.53" y="-281.3" font-family="Times,serif" font-size="14.00" fill="#000000">Thus Man is</text>
<text text-anchor="middle" x="376.53" y="-266.3" font-family="Times,serif" font-size="14.00" fill="#000000">predicable of the</text>
<text text-anchor="middle" x="376.53" y="-251.3" font-family="Times,serif" font-size="14.00" fill="#000000">individual man</text>
</g>
<!-- poss_new85 -->
<g id="node4" class="node">
<title>poss_new85</title>
<ellipse fill="none" stroke="#000000" cx="862.67" cy="-296" rx="78" ry="37.5"/>
<text text-anchor="middle" x="862.67" y="-307.3" font-family="Times,serif" font-size="14.00" fill="#000000">a certain point of</text>
<text text-anchor="middle" x="862.67" y="-292.3" font-family="Times,serif" font-size="14.00" fill="#000000">grammatical</text>
<text text-anchor="middle" x="862.67" y="-277.3" font-family="Times,serif" font-size="14.00" fill="#000000">knowledge</text>
</g>
<!-- poss_new16&#45;&gt;poss_new85 -->
<g id="edge3" class="edge">
<title>poss_new16&#45;&gt;poss_new85</title>
<path fill="none" stroke="#000000" d="M449.76,-258.81C518.9,-248.24 612.06,-234 612.06,-234 612.06,-234 710.03,-258.24 783.46,-276.4"/>
<polygon fill="#000000" stroke="#000000" points="782.6418,-279.803 793.19,-278.81 784.3248,-273.0084 782.6418,-279.803"/>
<text text-anchor="middle" x="586.06" y="-222.8" font-family="Times,serif" font-size="14.00" fill="#000000">*opposed</text>
</g>
<!-- poss_new85&#45;&gt;poss_new16 -->
<g id="edge4" class="edge">
<title>poss_new85&#45;&gt;poss_new16</title>
<path fill="none" stroke="#000000" d="M785.09,-292.59C711.49,-289.36 612.06,-285 612.06,-285 612.06,-285 529.86,-279.76 462.58,-275.48"/>
<polygon fill="#000000" stroke="#000000" points="462.5518,-271.9712 452.35,-274.83 462.1079,-278.9572 462.5518,-271.9712"/>
<text text-anchor="middle" x="586.06" y="-273.8" font-family="Times,serif" font-size="14.00" fill="#000000">*opposed</text>
</g>
<!-- poss_new18 -->
<g id="node5" class="node">
<title>poss_new18</title>
<ellipse fill="none" stroke="#000000" cx="376.53" cy="-171" rx="90" ry="27"/>
<text text-anchor="middle" x="376.53" y="-174.8" font-family="Times,serif" font-size="14.00" fill="#000000">Thus , Man is never</text>
<text text-anchor="middle" x="376.53" y="-159.8" font-family="Times,serif" font-size="14.00" fill="#000000">present in a subject</text>
</g>
<!-- poss_new66 -->
<g id="node6" class="node">
<title>poss_new66</title>
<ellipse fill="none" stroke="#000000" cx="862.67" cy="-192" rx="80.7205" ry="48.1667"/>
<text text-anchor="middle" x="862.67" y="-210.8" font-family="Times,serif" font-size="14.00" fill="#000000">is or again a</text>
<text text-anchor="middle" x="862.67" y="-195.8" font-family="Times,serif" font-size="14.00" fill="#000000">certain whiteness</text>
<text text-anchor="middle" x="862.67" y="-180.8" font-family="Times,serif" font-size="14.00" fill="#000000">may be present in</text>
<text text-anchor="middle" x="862.67" y="-165.8" font-family="Times,serif" font-size="14.00" fill="#000000">the body</text>
</g>
<!-- poss_new18&#45;&gt;poss_new66 -->
<g id="edge5" class="edge">
<title>poss_new18&#45;&gt;poss_new66</title>
<path fill="none" stroke="#000000" d="M465.63,-175.1C541.25,-178.57 637.56,-183 637.56,-183 637.56,-183 709.24,-185.87 771.7,-188.36"/>
<polygon fill="#000000" stroke="#000000" points="771.9062,-191.8712 782.04,-188.78 772.1903,-184.8769 771.9062,-191.8712"/>
<text text-anchor="middle" x="586.06" y="-171.8" font-family="Times,serif" font-size="14.00" fill="#000000">possibly correlated</text>
</g>
<!-- poss_new25 -->
<g id="node7" class="node">
<title>poss_new25</title>
<ellipse fill="none" stroke="#000000" cx="376.53" cy="-67" rx="92" ry="58.8803"/>
<text text-anchor="middle" x="376.53" y="-93.3" font-family="Times,serif" font-size="14.00" fill="#000000">Thus , Man is</text>
<text text-anchor="middle" x="376.53" y="-78.3" font-family="Times,serif" font-size="14.00" fill="#000000">predicable of the</text>
<text text-anchor="middle" x="376.53" y="-63.3" font-family="Times,serif" font-size="14.00" fill="#000000">individual man , and</text>
<text text-anchor="middle" x="376.53" y="-48.3" font-family="Times,serif" font-size="14.00" fill="#000000">is never present in</text>
<text text-anchor="middle" x="376.53" y="-33.3" font-family="Times,serif" font-size="14.00" fill="#000000">a subject .</text>
</g>
<!-- poss_new115 -->
<g id="node8" class="node">
<title>poss_new115</title>
<ellipse fill="none" stroke="#000000" cx="862.67" cy="-67" rx="99" ry="58.8803"/>
<text text-anchor="middle" x="862.67" y="-93.3" font-family="Times,serif" font-size="14.00" fill="#000000">Thus while knowledge</text>
<text text-anchor="middle" x="862.67" y="-78.3" font-family="Times,serif" font-size="14.00" fill="#000000">is present in the</text>
<text text-anchor="middle" x="862.67" y="-63.3" font-family="Times,serif" font-size="14.00" fill="#000000">human mind , it is</text>
<text text-anchor="middle" x="862.67" y="-48.3" font-family="Times,serif" font-size="14.00" fill="#000000">predicable of</text>
<text text-anchor="middle" x="862.67" y="-33.3" font-family="Times,serif" font-size="14.00" fill="#000000">grammar .</text>
</g>
<!-- poss_new25&#45;&gt;poss_new115 -->
<g id="edge6" class="edge">
<title>poss_new25&#45;&gt;poss_new115</title>
<path fill="none" stroke="#000000" d="M468.46,-67C503.22,-67 534.56,-67 534.56,-67 534.56,-67 657.88,-67 753.32,-67"/>
<polygon fill="#000000" stroke="#000000" points="753.34,-70.5001 763.34,-67 753.34,-63.5001 753.34,-70.5001"/>
<text text-anchor="middle" x="586.06" y="-70.8" font-family="Times,serif" font-size="14.00" fill="#000000">possibly correlated</text>
</g>
<!-- contra18 -->
<g id="node9" class="node">
<title>contra18</title>
<ellipse fill="none" stroke="#000000" cx="97.8" cy="-461" rx="90" ry="27"/>
<text text-anchor="middle" x="97.8" y="-464.8" font-family="Times,serif" font-size="14.00" fill="#000000">Thus , Man is never</text>
<text text-anchor="middle" x="97.8" y="-449.8" font-family="Times,serif" font-size="14.00" fill="#000000">present in a subject</text>
</g>
<!-- contra18&#45;&gt;poss_new23 -->
<g id="edge8" class="edge">
<title>contra18&#45;&gt;poss_new23</title>
<path fill="none" stroke="#000000" d="M158.28,-441.04C207.01,-424.95 274.93,-402.54 322,-387"/>
<polygon fill="#000000" stroke="#000000" points="323.314,-390.252 331.71,-383.79 321.1168,-383.6057 323.314,-390.252"/>
<text text-anchor="middle" x="236.11" y="-426.8" font-family="Times,serif" font-size="14.00" fill="#000000">*correlated</text>
</g>
<!-- contra18&#45;&gt;poss_new16 -->
<g id="edge9" class="edge">
<title>contra18&#45;&gt;poss_new16</title>
<path fill="none" stroke="#000000" d="M133.96,-436.23C182.15,-403.2 267.82,-344.5 323.37,-306.42"/>
<polygon fill="#000000" stroke="#000000" points="325.4063,-309.2676 331.68,-300.73 321.4515,-303.4918 325.4063,-309.2676"/>
<text text-anchor="middle" x="236.11" y="-390.8" font-family="Times,serif" font-size="14.00" fill="#000000">*correlated</text>
</g>
<!-- contra66 -->
<g id="node10" class="node">
<title>contra66</title>
<ellipse fill="none" stroke="#000000" cx="586.06" cy="-482" rx="80.7205" ry="48.1667"/>
<text text-anchor="middle" x="586.06" y="-500.8" font-family="Times,serif" font-size="14.00" fill="#000000">is or again a</text>
<text text-anchor="middle" x="586.06" y="-485.8" font-family="Times,serif" font-size="14.00" fill="#000000">certain whiteness</text>
<text text-anchor="middle" x="586.06" y="-470.8" font-family="Times,serif" font-size="14.00" fill="#000000">may be present in</text>
<text text-anchor="middle" x="586.06" y="-455.8" font-family="Times,serif" font-size="14.00" fill="#000000">the body</text>
</g>
<!-- contra18&#45;&gt;contra66 -->
<g id="edge7" class="edge">
<title>contra18&#45;&gt;contra66</title>
<path fill="none" stroke="#000000" d="M186.81,-464.67C256.08,-467.52 340.53,-471 340.53,-471 340.53,-471 425.5,-474.81 495.46,-477.94"/>
<polygon fill="#000000" stroke="#000000" points="495.5226,-481.4463 505.67,-478.4 495.8377,-474.4534 495.5226,-481.4463"/>
<text text-anchor="middle" x="376.53" y="-474.8" font-family="Times,serif" font-size="14.00" fill="#000000">contradicting</text>
</g>
<!-- contra66&#45;&gt;poss_new89 -->
<g id="edge10" class="edge">
<title>contra66&#45;&gt;poss_new89</title>
<path fill="none" stroke="#000000" d="M652.67,-454.79C702.56,-434.41 769.66,-407 814.45,-388.7"/>
<polygon fill="#000000" stroke="#000000" points="815.9946,-391.8499 823.93,-384.83 813.3489,-385.3691 815.9946,-391.8499"/>
<text text-anchor="middle" x="715.17" y="-458.8" font-family="Times,serif" font-size="14.00" fill="#000000">*correlated</text>
</g>
<!-- contra66&#45;&gt;poss_new85 -->
<g id="edge11" class="edge">
<title>contra66&#45;&gt;poss_new85</title>
<path fill="none" stroke="#000000" d="M639.72,-445.92C688.34,-413.23 759.62,-365.3 808.41,-332.48"/>
<polygon fill="#000000" stroke="#000000" points="810.6029,-335.2232 816.95,-326.74 806.698,-329.4136 810.6029,-335.2232"/>
<text text-anchor="middle" x="715.17" y="-415.8" font-family="Times,serif" font-size="14.00" fill="#000000">*correlated</text>
</g>
</g>
</svg>
