<?xml version="1.0" encoding="UTF-8" standalone="no"?>
<!DOCTYPE svg PUBLIC "-//W3C//DTD SVG 1.1//EN"
 "http://www.w3.org/Graphics/SVG/1.1/DTD/svg11.dtd">
<!-- Generated by graphviz version 2.40.1 (20161225.0304)
 -->
<!-- Pages: 1 -->
<svg width="980pt" height="649pt"
 viewBox="0.00 0.00 980.49 649.00" xmlns="http://www.w3.org/2000/svg" xmlns:xlink="http://www.w3.org/1999/xlink">
<g id="graph0" class="graph" transform="scale(1 1) rotate(0) translate(4 645)">
<polygon fill="#ffffff" stroke="transparent" points="-4,4 -4,-645 976.49,-645 976.49,4 -4,4"/>
<g id="clust1" class="cluster">
<title>cluster2</title>
<polygon fill="#d3d3d3" stroke="#d3d3d3" points="283.68,0 283.68,-520 972.49,-520 972.49,0 283.68,0"/>
<text text-anchor="middle" x="628.08" y="-504.8" font-family="Times,serif" font-size="14.00" fill="#000000">Possible New Correlations</text>
</g>
<g id="clust2" class="cluster">
<title>cluster1</title>
<polygon fill="#d3d3d3" stroke="#d3d3d3" points="0,-528 0,-641 694.47,-641 694.47,-528 0,-528"/>
<text text-anchor="middle" x="347.24" y="-625.8" font-family="Times,serif" font-size="14.00" fill="#000000">Found Contradictions</text>
</g>
<!-- poss_new13 -->
<g id="node1" class="node">
<title>poss_new13</title>
<ellipse fill="none" stroke="#000000" cx="385.01" cy="-471" rx="71.5" ry="18"/>
<text text-anchor="middle" x="385.01" y="-467.3" font-family="Times,serif" font-size="14.00" fill="#000000">themselves some</text>
</g>
<!-- poss_new26 -->
<g id="node2" class="node">
<title>poss_new26</title>
<ellipse fill="none" stroke="#000000" cx="873.98" cy="-462" rx="78.5" ry="27"/>
<text text-anchor="middle" x="873.98" y="-465.8" font-family="Times,serif" font-size="14.00" fill="#000000">being</text>
<text text-anchor="middle" x="873.98" y="-450.8" font-family="Times,serif" font-size="14.00" fill="#000000">Presentinasubject</text>
</g>
<!-- poss_new13&#45;&gt;poss_new26 -->
<g id="edge1" class="edge">
<title>poss_new13&#45;&gt;poss_new26</title>
<path fill="none" stroke="#000000" d="M447.31,-461.99C518.98,-451.62 626.91,-436 626.91,-436 626.91,-436 717.44,-445.53 788.9,-453.05"/>
<polygon fill="#000000" stroke="#000000" points="788.5403,-456.5314 798.85,-454.09 789.2681,-449.5693 788.5403,-456.5314"/>
<text text-anchor="middle" x="600.91" y="-424.8" font-family="Times,serif" font-size="14.00" fill="#000000">*opposed</text>
</g>
<!-- poss_new26&#45;&gt;poss_new13 -->
<g id="edge2" class="edge">
<title>poss_new26&#45;&gt;poss_new13</title>
<path fill="none" stroke="#000000" d="M795.8,-464.61C707.18,-467.58 574.91,-472 574.91,-472 574.91,-472 518.18,-471.7 466.74,-471.43"/>
<polygon fill="#000000" stroke="#000000" points="466.5571,-467.9292 456.54,-471.38 466.5227,-474.9291 466.5571,-467.9292"/>
<text text-anchor="middle" x="600.91" y="-475.8" font-family="Times,serif" font-size="14.00" fill="#000000">*opposed</text>
</g>
<!-- poss_new0 -->
<g id="node3" class="node">
<title>poss_new0</title>
<ellipse fill="none" stroke="#000000" cx="385.01" cy="-348" rx="93.5" ry="37.5"/>
<text text-anchor="middle" x="385.01" y="-359.3" font-family="Times,serif" font-size="14.00" fill="#000000">Of things themselves</text>
<text text-anchor="middle" x="385.01" y="-344.3" font-family="Times,serif" font-size="14.00" fill="#000000">some are predicable</text>
<text text-anchor="middle" x="385.01" y="-329.3" font-family="Times,serif" font-size="14.00" fill="#000000">of a subject</text>
</g>
<!-- poss_new32 -->
<g id="node4" class="node">
<title>poss_new32</title>
<ellipse fill="none" stroke="#000000" cx="873.98" cy="-348" rx="90.5" ry="69.5"/>
<text text-anchor="middle" x="873.98" y="-381.8" font-family="Times,serif" font-size="14.00" fill="#000000">By being</text>
<text text-anchor="middle" x="873.98" y="-366.8" font-family="Times,serif" font-size="14.00" fill="#000000">Presentinasubject I</text>
<text text-anchor="middle" x="873.98" y="-351.8" font-family="Times,serif" font-size="14.00" fill="#000000">do not being</text>
<text text-anchor="middle" x="873.98" y="-336.8" font-family="Times,serif" font-size="14.00" fill="#000000">incapable of</text>
<text text-anchor="middle" x="873.98" y="-321.8" font-family="Times,serif" font-size="14.00" fill="#000000">existence apart from</text>
<text text-anchor="middle" x="873.98" y="-306.8" font-family="Times,serif" font-size="14.00" fill="#000000">the said subject</text>
</g>
<!-- poss_new0&#45;&gt;poss_new32 -->
<g id="edge3" class="edge">
<title>poss_new0&#45;&gt;poss_new32</title>
<path fill="none" stroke="#000000" d="M478.74,-348C515.66,-348 549.41,-348 549.41,-348 549.41,-348 677.61,-348 772.87,-348"/>
<polygon fill="#000000" stroke="#000000" points="773.14,-351.5001 783.14,-348 773.14,-344.5001 773.14,-351.5001"/>
<text text-anchor="middle" x="600.91" y="-351.8" font-family="Times,serif" font-size="14.00" fill="#000000">possibly correlated</text>
</g>
<!-- poss_new4 -->
<g id="node5" class="node">
<title>poss_new4</title>
<ellipse fill="none" stroke="#000000" cx="385.01" cy="-234" rx="93.5" ry="37.5"/>
<text text-anchor="middle" x="385.01" y="-245.3" font-family="Times,serif" font-size="14.00" fill="#000000">Of things themselves</text>
<text text-anchor="middle" x="385.01" y="-230.3" font-family="Times,serif" font-size="14.00" fill="#000000">some are never</text>
<text text-anchor="middle" x="385.01" y="-215.3" font-family="Times,serif" font-size="14.00" fill="#000000">present in a subject</text>
</g>
<!-- poss_new29 -->
<g id="node6" class="node">
<title>poss_new29</title>
<ellipse fill="none" stroke="#000000" cx="873.98" cy="-234" rx="85.5" ry="27"/>
<text text-anchor="middle" x="873.98" y="-237.8" font-family="Times,serif" font-size="14.00" fill="#000000">as parts are present</text>
<text text-anchor="middle" x="873.98" y="-222.8" font-family="Times,serif" font-size="14.00" fill="#000000">in a whole</text>
</g>
<!-- poss_new4&#45;&gt;poss_new29 -->
<g id="edge4" class="edge">
<title>poss_new4&#45;&gt;poss_new29</title>
<path fill="none" stroke="#000000" d="M478.74,-234C515.66,-234 549.41,-234 549.41,-234 549.41,-234 682.53,-234 778.26,-234"/>
<polygon fill="#000000" stroke="#000000" points="778.28,-237.5001 788.28,-234 778.28,-230.5001 778.28,-237.5001"/>
<text text-anchor="middle" x="600.91" y="-237.8" font-family="Times,serif" font-size="14.00" fill="#000000">possibly correlated</text>
</g>
<!-- poss_new15 -->
<g id="node7" class="node">
<title>poss_new15</title>
<ellipse fill="none" stroke="#000000" cx="385.01" cy="-99" rx="93.5" ry="58.8803"/>
<text text-anchor="middle" x="385.01" y="-125.3" font-family="Times,serif" font-size="14.00" fill="#000000">Of things themselves</text>
<text text-anchor="middle" x="385.01" y="-110.3" font-family="Times,serif" font-size="14.00" fill="#000000">some are predicable</text>
<text text-anchor="middle" x="385.01" y="-95.3" font-family="Times,serif" font-size="14.00" fill="#000000">of a subject , and</text>
<text text-anchor="middle" x="385.01" y="-80.3" font-family="Times,serif" font-size="14.00" fill="#000000">are never present in</text>
<text text-anchor="middle" x="385.01" y="-65.3" font-family="Times,serif" font-size="14.00" fill="#000000">a subject .</text>
</g>
<!-- poss_new44 -->
<g id="node8" class="node">
<title>poss_new44</title>
<ellipse fill="none" stroke="#000000" cx="873.98" cy="-99" rx="90.5193" ry="90.5193"/>
<text text-anchor="middle" x="873.98" y="-147.8" font-family="Times,serif" font-size="14.00" fill="#000000">By being</text>
<text text-anchor="middle" x="873.98" y="-132.8" font-family="Times,serif" font-size="14.00" fill="#000000">Presentinasubject I</text>
<text text-anchor="middle" x="873.98" y="-117.8" font-family="Times,serif" font-size="14.00" fill="#000000">do not mean present</text>
<text text-anchor="middle" x="873.98" y="-102.8" font-family="Times,serif" font-size="14.00" fill="#000000">as parts are present</text>
<text text-anchor="middle" x="873.98" y="-87.8" font-family="Times,serif" font-size="14.00" fill="#000000">in a whole , but</text>
<text text-anchor="middle" x="873.98" y="-72.8" font-family="Times,serif" font-size="14.00" fill="#000000">being incapable of</text>
<text text-anchor="middle" x="873.98" y="-57.8" font-family="Times,serif" font-size="14.00" fill="#000000">existence apart from</text>
<text text-anchor="middle" x="873.98" y="-42.8" font-family="Times,serif" font-size="14.00" fill="#000000">the said subject .</text>
</g>
<!-- poss_new15&#45;&gt;poss_new44 -->
<g id="edge5" class="edge">
<title>poss_new15&#45;&gt;poss_new44</title>
<path fill="none" stroke="#000000" d="M478.74,-99C515.66,-99 549.41,-99 549.41,-99 549.41,-99 677.61,-99 772.87,-99"/>
<polygon fill="#000000" stroke="#000000" points="773.14,-102.5001 783.14,-99 773.14,-95.5001 773.14,-102.5001"/>
<text text-anchor="middle" x="600.91" y="-102.8" font-family="Times,serif" font-size="14.00" fill="#000000">possibly correlated</text>
</g>
<!-- contra4 -->
<g id="node9" class="node">
<title>contra4</title>
<ellipse fill="none" stroke="#000000" cx="101.34" cy="-573" rx="93.5" ry="37.5"/>
<text text-anchor="middle" x="101.34" y="-584.3" font-family="Times,serif" font-size="14.00" fill="#000000">Of things themselves</text>
<text text-anchor="middle" x="101.34" y="-569.3" font-family="Times,serif" font-size="14.00" fill="#000000">some are never</text>
<text text-anchor="middle" x="101.34" y="-554.3" font-family="Times,serif" font-size="14.00" fill="#000000">present in a subject</text>
</g>
<!-- contra4&#45;&gt;poss_new13 -->
<g id="edge7" class="edge">
<title>contra4&#45;&gt;poss_new13</title>
<path fill="none" stroke="#000000" d="M171.1,-547.92C221.53,-529.78 288.53,-505.69 334.01,-489.34"/>
<polygon fill="#000000" stroke="#000000" points="335.4342,-492.5473 343.66,-485.87 333.0655,-485.9603 335.4342,-492.5473"/>
<text text-anchor="middle" x="243.18" y="-534.8" font-family="Times,serif" font-size="14.00" fill="#000000">*correlated</text>
</g>
<!-- contra29 -->
<g id="node10" class="node">
<title>contra29</title>
<ellipse fill="none" stroke="#000000" cx="600.91" cy="-568" rx="85.5" ry="27"/>
<text text-anchor="middle" x="600.91" y="-571.8" font-family="Times,serif" font-size="14.00" fill="#000000">as parts are present</text>
<text text-anchor="middle" x="600.91" y="-556.8" font-family="Times,serif" font-size="14.00" fill="#000000">in a whole</text>
</g>
<!-- contra4&#45;&gt;contra29 -->
<g id="edge6" class="edge">
<title>contra4&#45;&gt;contra29</title>
<path fill="none" stroke="#000000" d="M194.97,-571.87C265.11,-571.02 349.01,-570 349.01,-570 349.01,-570 433.72,-569.33 504.89,-568.76"/>
<polygon fill="#000000" stroke="#000000" points="505.3073,-572.257 515.28,-568.68 505.2533,-565.2572 505.3073,-572.257"/>
<text text-anchor="middle" x="385.01" y="-573.8" font-family="Times,serif" font-size="14.00" fill="#000000">contradicting</text>
</g>
<!-- contra29&#45;&gt;poss_new26 -->
<g id="edge8" class="edge">
<title>contra29&#45;&gt;poss_new26</title>
<path fill="none" stroke="#000000" d="M654.86,-547.06C700.23,-529.45 765.09,-504.27 812.47,-485.88"/>
<polygon fill="#000000" stroke="#000000" points="813.9447,-489.0621 822,-482.18 811.4112,-482.5366 813.9447,-489.0621"/>
<text text-anchor="middle" x="734.97" y="-530.8" font-family="Times,serif" font-size="14.00" fill="#000000">*correlated</text>
</g>
</g>
</svg>
