<?xml version="1.0" encoding="UTF-8" standalone="no"?>
<!DOCTYPE svg PUBLIC "-//W3C//DTD SVG 1.1//EN"
 "http://www.w3.org/Graphics/SVG/1.1/DTD/svg11.dtd">
<!-- Generated by graphviz version 2.40.1 (20161225.0304)
 -->
<!-- Pages: 1 -->
<svg width="962pt" height="611pt"
 viewBox="0.00 0.00 962.11 611.00" xmlns="http://www.w3.org/2000/svg" xmlns:xlink="http://www.w3.org/1999/xlink">
<g id="graph0" class="graph" transform="scale(1 1) rotate(0) translate(4 607)">
<polygon fill="#ffffff" stroke="transparent" points="-4,4 -4,-607 958.11,-607 958.11,4 -4,4"/>
<g id="clust1" class="cluster">
<title>cluster1</title>
<polygon fill="#d3d3d3" stroke="#d3d3d3" points="0,-426 0,-603 659.12,-603 659.12,-426 0,-426"/>
<text text-anchor="middle" x="329.56" y="-587.8" font-family="Times,serif" font-size="14.00" fill="#000000">Found Contradictions</text>
</g>
<g id="clust2" class="cluster">
<title>cluster2</title>
<polygon fill="#d3d3d3" stroke="#d3d3d3" points="249.74,0 249.74,-418 954.11,-418 954.11,0 249.74,0"/>
<text text-anchor="middle" x="601.92" y="-402.8" font-family="Times,serif" font-size="14.00" fill="#000000">Possible New Correlations</text>
</g>
<!-- contra16 -->
<g id="node1" class="node">
<title>contra16</title>
<ellipse fill="none" stroke="#000000" cx="84.368" cy="-471" rx="76.5" ry="37.5"/>
<text text-anchor="middle" x="84.368" y="-482.3" font-family="Times,serif" font-size="14.00" fill="#000000">Thus Man is</text>
<text text-anchor="middle" x="84.368" y="-467.3" font-family="Times,serif" font-size="14.00" fill="#000000">predicable of the</text>
<text text-anchor="middle" x="84.368" y="-452.3" font-family="Times,serif" font-size="14.00" fill="#000000">individual man</text>
</g>
<!-- contra69 -->
<g id="node2" class="node">
<title>contra69</title>
<ellipse fill="none" stroke="#000000" cx="564.85" cy="-503" rx="86.5" ry="69.5"/>
<text text-anchor="middle" x="564.85" y="-536.8" font-family="Times,serif" font-size="14.00" fill="#000000">For instance , a</text>
<text text-anchor="middle" x="564.85" y="-521.8" font-family="Times,serif" font-size="14.00" fill="#000000">certain point of</text>
<text text-anchor="middle" x="564.85" y="-506.8" font-family="Times,serif" font-size="14.00" fill="#000000">grammatical</text>
<text text-anchor="middle" x="564.85" y="-491.8" font-family="Times,serif" font-size="14.00" fill="#000000">knowledge it is</text>
<text text-anchor="middle" x="564.85" y="-476.8" font-family="Times,serif" font-size="14.00" fill="#000000">never predicable of</text>
<text text-anchor="middle" x="564.85" y="-461.8" font-family="Times,serif" font-size="14.00" fill="#000000">anything</text>
</g>
<!-- contra16&#45;&gt;contra69 -->
<g id="edge1" class="edge">
<title>contra16&#45;&gt;contra69</title>
<path fill="none" stroke="#000000" d="M160.08,-476.28C226.87,-480.94 313.66,-487 313.66,-487 313.66,-487 397.58,-492.35 468.41,-496.86"/>
<polygon fill="#000000" stroke="#000000" points="468.5575,-500.3764 478.76,-497.52 469.003,-493.3906 468.5575,-500.3764"/>
<text text-anchor="middle" x="349.66" y="-490.8" font-family="Times,serif" font-size="14.00" fill="#000000">contradicting</text>
</g>
<!-- poss_new23 -->
<g id="node3" class="node">
<title>poss_new23</title>
<ellipse fill="none" stroke="#000000" cx="349.66" cy="-369" rx="77.5" ry="18"/>
<text text-anchor="middle" x="349.66" y="-365.3" font-family="Times,serif" font-size="14.00" fill="#000000">the individual man</text>
</g>
<!-- contra16&#45;&gt;poss_new23 -->
<g id="edge8" class="edge">
<title>contra16&#45;&gt;poss_new23</title>
<path fill="none" stroke="#000000" d="M144.57,-447.85C191.57,-429.78 256.07,-404.98 300.11,-388.05"/>
<polygon fill="#000000" stroke="#000000" points="301.3791,-391.3119 309.46,-384.46 298.8699,-384.7771 301.3791,-391.3119"/>
<text text-anchor="middle" x="209.24" y="-435.8" font-family="Times,serif" font-size="14.00" fill="#000000">*correlated</text>
</g>
<!-- poss_new18 -->
<g id="node7" class="node">
<title>poss_new18</title>
<ellipse fill="none" stroke="#000000" cx="349.66" cy="-203" rx="90" ry="27"/>
<text text-anchor="middle" x="349.66" y="-206.8" font-family="Times,serif" font-size="14.00" fill="#000000">Thus , Man is never</text>
<text text-anchor="middle" x="349.66" y="-191.8" font-family="Times,serif" font-size="14.00" fill="#000000">present in a subject</text>
</g>
<!-- contra16&#45;&gt;poss_new18 -->
<g id="edge9" class="edge">
<title>contra16&#45;&gt;poss_new18</title>
<path fill="none" stroke="#000000" d="M117.97,-437.06C169.13,-385.37 265.97,-287.55 316.73,-236.27"/>
<polygon fill="#000000" stroke="#000000" points="319.327,-238.6214 323.87,-229.05 314.3498,-233.6993 319.327,-238.6214"/>
<text text-anchor="middle" x="209.24" y="-337.8" font-family="Times,serif" font-size="14.00" fill="#000000">*correlated</text>
</g>
<!-- poss_new89 -->
<g id="node4" class="node">
<title>poss_new89</title>
<ellipse fill="none" stroke="#000000" cx="847.11" cy="-369" rx="78" ry="18"/>
<text text-anchor="middle" x="847.11" y="-365.3" font-family="Times,serif" font-size="14.00" fill="#000000">a certain whiteness</text>
</g>
<!-- contra69&#45;&gt;poss_new89 -->
<g id="edge10" class="edge">
<title>contra69&#45;&gt;poss_new89</title>
<path fill="none" stroke="#000000" d="M639.38,-467.62C691.73,-442.77 759.93,-410.39 803.63,-389.64"/>
<polygon fill="#000000" stroke="#000000" points="805.3058,-392.7189 812.84,-385.27 802.305,-386.3947 805.3058,-392.7189"/>
<text text-anchor="middle" x="699.62" y="-471.8" font-family="Times,serif" font-size="14.00" fill="#000000">*correlated</text>
</g>
<!-- poss_new66 -->
<g id="node8" class="node">
<title>poss_new66</title>
<ellipse fill="none" stroke="#000000" cx="847.11" cy="-192" rx="80.7205" ry="48.1667"/>
<text text-anchor="middle" x="847.11" y="-210.8" font-family="Times,serif" font-size="14.00" fill="#000000">is or again a</text>
<text text-anchor="middle" x="847.11" y="-195.8" font-family="Times,serif" font-size="14.00" fill="#000000">certain whiteness</text>
<text text-anchor="middle" x="847.11" y="-180.8" font-family="Times,serif" font-size="14.00" fill="#000000">may be present in</text>
<text text-anchor="middle" x="847.11" y="-165.8" font-family="Times,serif" font-size="14.00" fill="#000000">the body</text>
</g>
<!-- contra69&#45;&gt;poss_new66 -->
<g id="edge11" class="edge">
<title>contra69&#45;&gt;poss_new66</title>
<path fill="none" stroke="#000000" d="M615.97,-446.68C668.92,-388.33 750.89,-298.02 801.66,-242.08"/>
<polygon fill="#000000" stroke="#000000" points="804.4732,-244.1881 808.6,-234.43 799.2887,-239.4848 804.4732,-244.1881"/>
<text text-anchor="middle" x="699.62" y="-403.8" font-family="Times,serif" font-size="14.00" fill="#000000">*correlated</text>
</g>
<!-- poss_new23&#45;&gt;poss_new89 -->
<g id="edge2" class="edge">
<title>poss_new23&#45;&gt;poss_new89</title>
<path fill="none" stroke="#000000" d="M416.52,-359.85C487.9,-350.09 590.85,-336 590.85,-336 590.85,-336 693.44,-349.21 768.8,-358.92"/>
<polygon fill="#000000" stroke="#000000" points="768.4057,-362.398 778.77,-360.2 769.2971,-355.455 768.4057,-362.398"/>
<text text-anchor="middle" x="564.85" y="-324.8" font-family="Times,serif" font-size="14.00" fill="#000000">*opposed</text>
</g>
<!-- poss_new89&#45;&gt;poss_new23 -->
<g id="edge3" class="edge">
<title>poss_new89&#45;&gt;poss_new23</title>
<path fill="none" stroke="#000000" d="M768.93,-369.76C677.6,-370.65 538.85,-372 538.85,-372 538.85,-372 486.64,-371.17 437.07,-370.39"/>
<polygon fill="#000000" stroke="#000000" points="436.937,-366.8874 426.88,-370.22 436.8202,-373.8864 436.937,-366.8874"/>
<text text-anchor="middle" x="564.85" y="-375.8" font-family="Times,serif" font-size="14.00" fill="#000000">*opposed</text>
</g>
<!-- poss_new16 -->
<g id="node5" class="node">
<title>poss_new16</title>
<ellipse fill="none" stroke="#000000" cx="349.66" cy="-285" rx="76.5" ry="37.5"/>
<text text-anchor="middle" x="349.66" y="-296.3" font-family="Times,serif" font-size="14.00" fill="#000000">Thus Man is</text>
<text text-anchor="middle" x="349.66" y="-281.3" font-family="Times,serif" font-size="14.00" fill="#000000">predicable of the</text>
<text text-anchor="middle" x="349.66" y="-266.3" font-family="Times,serif" font-size="14.00" fill="#000000">individual man</text>
</g>
<!-- poss_new85 -->
<g id="node6" class="node">
<title>poss_new85</title>
<ellipse fill="none" stroke="#000000" cx="847.11" cy="-296" rx="78" ry="37.5"/>
<text text-anchor="middle" x="847.11" y="-307.3" font-family="Times,serif" font-size="14.00" fill="#000000">a certain point of</text>
<text text-anchor="middle" x="847.11" y="-292.3" font-family="Times,serif" font-size="14.00" fill="#000000">grammatical</text>
<text text-anchor="middle" x="847.11" y="-277.3" font-family="Times,serif" font-size="14.00" fill="#000000">knowledge</text>
</g>
<!-- poss_new16&#45;&gt;poss_new85 -->
<g id="edge4" class="edge">
<title>poss_new16&#45;&gt;poss_new85</title>
<path fill="none" stroke="#000000" d="M426.08,-285C504.89,-285 616.35,-285 616.35,-285 616.35,-285 694.05,-288.7 759.28,-291.81"/>
<polygon fill="#000000" stroke="#000000" points="759.4727,-295.3233 769.63,-292.31 759.8106,-288.3315 759.4727,-295.3233"/>
<text text-anchor="middle" x="564.85" y="-273.8" font-family="Times,serif" font-size="14.00" fill="#000000">possibly correlated</text>
</g>
<!-- poss_new18&#45;&gt;poss_new66 -->
<g id="edge5" class="edge">
<title>poss_new18&#45;&gt;poss_new66</title>
<path fill="none" stroke="#000000" d="M433.68,-193.25C503.28,-185.17 590.85,-175 590.85,-175 590.85,-175 682.73,-181.1 756.46,-185.99"/>
<polygon fill="#000000" stroke="#000000" points="756.5206,-189.5016 766.73,-186.67 756.9831,-182.5169 756.5206,-189.5016"/>
<text text-anchor="middle" x="564.85" y="-163.8" font-family="Times,serif" font-size="14.00" fill="#000000">*opposed</text>
</g>
<!-- poss_new66&#45;&gt;poss_new18 -->
<g id="edge6" class="edge">
<title>poss_new66&#45;&gt;poss_new18</title>
<path fill="none" stroke="#000000" d="M766.92,-196.94C675.59,-202.57 538.85,-211 538.85,-211 538.85,-211 494.53,-209.13 448.79,-207.19"/>
<polygon fill="#000000" stroke="#000000" points="448.8471,-203.6894 438.71,-206.77 448.5556,-210.6834 448.8471,-203.6894"/>
<text text-anchor="middle" x="564.85" y="-214.8" font-family="Times,serif" font-size="14.00" fill="#000000">*opposed</text>
</g>
<!-- poss_new25 -->
<g id="node9" class="node">
<title>poss_new25</title>
<ellipse fill="none" stroke="#000000" cx="349.66" cy="-67" rx="92" ry="58.8803"/>
<text text-anchor="middle" x="349.66" y="-93.3" font-family="Times,serif" font-size="14.00" fill="#000000">Thus , Man is</text>
<text text-anchor="middle" x="349.66" y="-78.3" font-family="Times,serif" font-size="14.00" fill="#000000">predicable of the</text>
<text text-anchor="middle" x="349.66" y="-63.3" font-family="Times,serif" font-size="14.00" fill="#000000">individual man , and</text>
<text text-anchor="middle" x="349.66" y="-48.3" font-family="Times,serif" font-size="14.00" fill="#000000">is never present in</text>
<text text-anchor="middle" x="349.66" y="-33.3" font-family="Times,serif" font-size="14.00" fill="#000000">a subject .</text>
</g>
<!-- poss_new115 -->
<g id="node10" class="node">
<title>poss_new115</title>
<ellipse fill="none" stroke="#000000" cx="847.11" cy="-67" rx="99" ry="58.8803"/>
<text text-anchor="middle" x="847.11" y="-93.3" font-family="Times,serif" font-size="14.00" fill="#000000">Thus while knowledge</text>
<text text-anchor="middle" x="847.11" y="-78.3" font-family="Times,serif" font-size="14.00" fill="#000000">is present in the</text>
<text text-anchor="middle" x="847.11" y="-63.3" font-family="Times,serif" font-size="14.00" fill="#000000">human mind , it is</text>
<text text-anchor="middle" x="847.11" y="-48.3" font-family="Times,serif" font-size="14.00" fill="#000000">predicable of</text>
<text text-anchor="middle" x="847.11" y="-33.3" font-family="Times,serif" font-size="14.00" fill="#000000">grammar .</text>
</g>
<!-- poss_new25&#45;&gt;poss_new115 -->
<g id="edge7" class="edge">
<title>poss_new25&#45;&gt;poss_new115</title>
<path fill="none" stroke="#000000" d="M442.03,-67C479.16,-67 513.35,-67 513.35,-67 513.35,-67 640.34,-67 737.66,-67"/>
<polygon fill="#000000" stroke="#000000" points="737.88,-70.5001 747.88,-67 737.88,-63.5001 737.88,-70.5001"/>
<text text-anchor="middle" x="564.85" y="-70.8" font-family="Times,serif" font-size="14.00" fill="#000000">possibly correlated</text>
</g>
</g>
</svg>
