<?xml version="1.0" encoding="UTF-8" standalone="no"?>
<!DOCTYPE svg PUBLIC "-//W3C//DTD SVG 1.1//EN"
 "http://www.w3.org/Graphics/SVG/1.1/DTD/svg11.dtd">
<!-- Generated by graphviz version 2.40.1 (20161225.0304)
 -->
<!-- Pages: 1 -->
<svg width="988pt" height="726pt"
 viewBox="0.00 0.00 987.56 726.00" xmlns="http://www.w3.org/2000/svg" xmlns:xlink="http://www.w3.org/1999/xlink">
<g id="graph0" class="graph" transform="scale(1 1) rotate(0) translate(4 722)">
<polygon fill="#ffffff" stroke="transparent" points="-4,4 -4,-722 983.56,-722 983.56,4 -4,4"/>
<g id="clust1" class="cluster">
<title>cluster2</title>
<polygon fill="#d3d3d3" stroke="#d3d3d3" points="278.02,0 278.02,-553 979.56,-553 979.56,0 278.02,0"/>
<text text-anchor="middle" x="628.79" y="-537.8" font-family="Times,serif" font-size="14.00" fill="#000000">Possible New Correlations</text>
</g>
<g id="clust2" class="cluster">
<title>cluster1</title>
<polygon fill="#d3d3d3" stroke="#d3d3d3" points="0,-561 0,-718 697.3,-718 697.3,-561 0,-561"/>
<text text-anchor="middle" x="348.65" y="-702.8" font-family="Times,serif" font-size="14.00" fill="#000000">Found Contradictions</text>
</g>
<!-- poss_new26 -->
<g id="node1" class="node">
<title>poss_new26</title>
<ellipse fill="none" stroke="#000000" cx="376.53" cy="-303" rx="78.5" ry="27"/>
<text text-anchor="middle" x="376.53" y="-306.8" font-family="Times,serif" font-size="14.00" fill="#000000">being</text>
<text text-anchor="middle" x="376.53" y="-291.8" font-family="Times,serif" font-size="14.00" fill="#000000">Presentinasubject</text>
</g>
<!-- poss_new87 -->
<g id="node2" class="node">
<title>poss_new87</title>
<ellipse fill="none" stroke="#000000" cx="878.93" cy="-327" rx="61" ry="27"/>
<text text-anchor="middle" x="878.93" y="-330.8" font-family="Times,serif" font-size="14.00" fill="#000000">grammatical</text>
<text text-anchor="middle" x="878.93" y="-315.8" font-family="Times,serif" font-size="14.00" fill="#000000">knowledge</text>
</g>
<!-- poss_new26&#45;&gt;poss_new87 -->
<g id="edge1" class="edge">
<title>poss_new26&#45;&gt;poss_new87</title>
<path fill="none" stroke="#000000" d="M448.72,-292.44C521.35,-281.82 622.67,-267 622.67,-267 622.67,-267 739.03,-294.24 814.93,-312.02"/>
<polygon fill="#000000" stroke="#000000" points="814.3659,-315.4824 824.9,-314.35 815.9589,-308.6661 814.3659,-315.4824"/>
<text text-anchor="middle" x="596.67" y="-255.8" font-family="Times,serif" font-size="14.00" fill="#000000">*opposed</text>
</g>
<!-- poss_new87&#45;&gt;poss_new26 -->
<g id="edge2" class="edge">
<title>poss_new87&#45;&gt;poss_new26</title>
<path fill="none" stroke="#000000" d="M818.2,-324.87C742.42,-322.21 622.67,-318 622.67,-318 622.67,-318 535.05,-312.66 464.37,-308.35"/>
<polygon fill="#000000" stroke="#000000" points="464.2623,-304.8373 454.07,-307.73 463.8416,-311.8246 464.2623,-304.8373"/>
<text text-anchor="middle" x="596.67" y="-306.8" font-family="Times,serif" font-size="14.00" fill="#000000">*opposed</text>
</g>
<!-- poss_new42 -->
<g id="node3" class="node">
<title>poss_new42</title>
<ellipse fill="none" stroke="#000000" cx="376.53" cy="-504" rx="65.7887" ry="18"/>
<text text-anchor="middle" x="376.53" y="-500.3" font-family="Times,serif" font-size="14.00" fill="#000000">the said subject</text>
</g>
<!-- poss_new89 -->
<g id="node4" class="node">
<title>poss_new89</title>
<ellipse fill="none" stroke="#000000" cx="878.93" cy="-504" rx="78" ry="18"/>
<text text-anchor="middle" x="878.93" y="-500.3" font-family="Times,serif" font-size="14.00" fill="#000000">a certain whiteness</text>
</g>
<!-- poss_new42&#45;&gt;poss_new89 -->
<g id="edge3" class="edge">
<title>poss_new42&#45;&gt;poss_new89</title>
<path fill="none" stroke="#000000" d="M435.8,-496.05C508.63,-486.29 622.67,-471 622.67,-471 622.67,-471 725.26,-484.21 800.62,-493.92"/>
<polygon fill="#000000" stroke="#000000" points="800.2257,-497.398 810.59,-495.2 801.1171,-490.455 800.2257,-497.398"/>
<text text-anchor="middle" x="596.67" y="-459.8" font-family="Times,serif" font-size="14.00" fill="#000000">*opposed</text>
</g>
<!-- poss_new89&#45;&gt;poss_new42 -->
<g id="edge4" class="edge">
<title>poss_new89&#45;&gt;poss_new42</title>
<path fill="none" stroke="#000000" d="M800.75,-504.76C709.42,-505.65 570.67,-507 570.67,-507 570.67,-507 506.78,-506.01 452.3,-505.17"/>
<polygon fill="#000000" stroke="#000000" points="452.3112,-501.6699 442.26,-505.02 452.2066,-508.6691 452.3112,-501.6699"/>
<text text-anchor="middle" x="596.67" y="-510.8" font-family="Times,serif" font-size="14.00" fill="#000000">*opposed</text>
</g>
<!-- poss_new29 -->
<g id="node5" class="node">
<title>poss_new29</title>
<ellipse fill="none" stroke="#000000" cx="376.53" cy="-405" rx="85.5" ry="27"/>
<text text-anchor="middle" x="376.53" y="-408.8" font-family="Times,serif" font-size="14.00" fill="#000000">as parts are present</text>
<text text-anchor="middle" x="376.53" y="-393.8" font-family="Times,serif" font-size="14.00" fill="#000000">in a whole</text>
</g>
<!-- poss_new66 -->
<g id="node6" class="node">
<title>poss_new66</title>
<ellipse fill="none" stroke="#000000" cx="878.93" cy="-420" rx="80.7205" ry="48.1667"/>
<text text-anchor="middle" x="878.93" y="-438.8" font-family="Times,serif" font-size="14.00" fill="#000000">is or again a</text>
<text text-anchor="middle" x="878.93" y="-423.8" font-family="Times,serif" font-size="14.00" fill="#000000">certain whiteness</text>
<text text-anchor="middle" x="878.93" y="-408.8" font-family="Times,serif" font-size="14.00" fill="#000000">may be present in</text>
<text text-anchor="middle" x="878.93" y="-393.8" font-family="Times,serif" font-size="14.00" fill="#000000">the body</text>
</g>
<!-- poss_new29&#45;&gt;poss_new66 -->
<g id="edge5" class="edge">
<title>poss_new29&#45;&gt;poss_new66</title>
<path fill="none" stroke="#000000" d="M454.41,-393.61C526.52,-383.06 622.67,-369 622.67,-369 622.67,-369 718.12,-388 792.51,-402.8"/>
<polygon fill="#000000" stroke="#000000" points="791.8986,-406.2469 802.39,-404.77 793.2675,-399.3821 791.8986,-406.2469"/>
<text text-anchor="middle" x="596.67" y="-357.8" font-family="Times,serif" font-size="14.00" fill="#000000">*opposed</text>
</g>
<!-- poss_new66&#45;&gt;poss_new29 -->
<g id="edge6" class="edge">
<title>poss_new66&#45;&gt;poss_new29</title>
<path fill="none" stroke="#000000" d="M798.34,-416.08C707.01,-411.63 570.67,-405 570.67,-405 570.67,-405 521.29,-405 472.34,-405"/>
<polygon fill="#000000" stroke="#000000" points="472.25,-401.5001 462.25,-405 472.25,-408.5001 472.25,-401.5001"/>
<text text-anchor="middle" x="596.67" y="-408.8" font-family="Times,serif" font-size="14.00" fill="#000000">*opposed</text>
</g>
<!-- poss_new27 -->
<g id="node7" class="node">
<title>poss_new27</title>
<ellipse fill="none" stroke="#000000" cx="376.53" cy="-202" rx="90.5" ry="37.5"/>
<text text-anchor="middle" x="376.53" y="-213.3" font-family="Times,serif" font-size="14.00" fill="#000000">By being</text>
<text text-anchor="middle" x="376.53" y="-198.3" font-family="Times,serif" font-size="14.00" fill="#000000">Presentinasubject I</text>
<text text-anchor="middle" x="376.53" y="-183.3" font-family="Times,serif" font-size="14.00" fill="#000000">do not mean present</text>
</g>
<!-- poss_new56 -->
<g id="node8" class="node">
<title>poss_new56</title>
<ellipse fill="none" stroke="#000000" cx="878.93" cy="-223" rx="92.7622" ry="58.8803"/>
<text text-anchor="middle" x="878.93" y="-249.3" font-family="Times,serif" font-size="14.00" fill="#000000">For instance a</text>
<text text-anchor="middle" x="878.93" y="-234.3" font-family="Times,serif" font-size="14.00" fill="#000000">certain point of</text>
<text text-anchor="middle" x="878.93" y="-219.3" font-family="Times,serif" font-size="14.00" fill="#000000">grammatical</text>
<text text-anchor="middle" x="878.93" y="-204.3" font-family="Times,serif" font-size="14.00" fill="#000000">knowledge is present</text>
<text text-anchor="middle" x="878.93" y="-189.3" font-family="Times,serif" font-size="14.00" fill="#000000">in the mind</text>
</g>
<!-- poss_new27&#45;&gt;poss_new56 -->
<g id="edge7" class="edge">
<title>poss_new27&#45;&gt;poss_new56</title>
<path fill="none" stroke="#000000" d="M466.6,-206.64C545.68,-210.72 648.17,-216 648.17,-216 648.17,-216 714.6,-218.02 776.18,-219.88"/>
<polygon fill="#000000" stroke="#000000" points="776.2984,-223.3851 786.4,-220.19 776.5107,-216.3883 776.2984,-223.3851"/>
<text text-anchor="middle" x="596.67" y="-204.8" font-family="Times,serif" font-size="14.00" fill="#000000">possibly correlated</text>
</g>
<!-- poss_new32 -->
<g id="node9" class="node">
<title>poss_new32</title>
<ellipse fill="none" stroke="#000000" cx="376.53" cy="-77" rx="90.5" ry="69.5"/>
<text text-anchor="middle" x="376.53" y="-110.8" font-family="Times,serif" font-size="14.00" fill="#000000">By being</text>
<text text-anchor="middle" x="376.53" y="-95.8" font-family="Times,serif" font-size="14.00" fill="#000000">Presentinasubject I</text>
<text text-anchor="middle" x="376.53" y="-80.8" font-family="Times,serif" font-size="14.00" fill="#000000">do not being</text>
<text text-anchor="middle" x="376.53" y="-65.8" font-family="Times,serif" font-size="14.00" fill="#000000">incapable of</text>
<text text-anchor="middle" x="376.53" y="-50.8" font-family="Times,serif" font-size="14.00" fill="#000000">existence apart from</text>
<text text-anchor="middle" x="376.53" y="-35.8" font-family="Times,serif" font-size="14.00" fill="#000000">the said subject</text>
</g>
<!-- poss_new61 -->
<g id="node10" class="node">
<title>poss_new61</title>
<ellipse fill="none" stroke="#000000" cx="878.93" cy="-77" rx="78.5" ry="69.5"/>
<text text-anchor="middle" x="878.93" y="-110.8" font-family="Times,serif" font-size="14.00" fill="#000000">For instance , a</text>
<text text-anchor="middle" x="878.93" y="-95.8" font-family="Times,serif" font-size="14.00" fill="#000000">certain point of</text>
<text text-anchor="middle" x="878.93" y="-80.8" font-family="Times,serif" font-size="14.00" fill="#000000">grammatical</text>
<text text-anchor="middle" x="878.93" y="-65.8" font-family="Times,serif" font-size="14.00" fill="#000000">knowledge is not</text>
<text text-anchor="middle" x="878.93" y="-50.8" font-family="Times,serif" font-size="14.00" fill="#000000">predicable of any</text>
<text text-anchor="middle" x="878.93" y="-35.8" font-family="Times,serif" font-size="14.00" fill="#000000">subject</text>
</g>
<!-- poss_new32&#45;&gt;poss_new61 -->
<g id="edge8" class="edge">
<title>poss_new32&#45;&gt;poss_new61</title>
<path fill="none" stroke="#000000" d="M467.27,-77C507.18,-77 545.17,-77 545.17,-77 545.17,-77 691.37,-77 790.25,-77"/>
<polygon fill="#000000" stroke="#000000" points="790.26,-80.5001 800.26,-77 790.26,-73.5001 790.26,-80.5001"/>
<text text-anchor="middle" x="596.67" y="-80.8" font-family="Times,serif" font-size="14.00" fill="#000000">possibly correlated</text>
</g>
<!-- contra27 -->
<g id="node11" class="node">
<title>contra27</title>
<ellipse fill="none" stroke="#000000" cx="98.51" cy="-606" rx="90.5" ry="37.5"/>
<text text-anchor="middle" x="98.51" y="-617.3" font-family="Times,serif" font-size="14.00" fill="#000000">By being</text>
<text text-anchor="middle" x="98.51" y="-602.3" font-family="Times,serif" font-size="14.00" fill="#000000">Presentinasubject I</text>
<text text-anchor="middle" x="98.51" y="-587.3" font-family="Times,serif" font-size="14.00" fill="#000000">do not mean present</text>
</g>
<!-- contra27&#45;&gt;poss_new26 -->
<g id="edge10" class="edge">
<title>contra27&#45;&gt;poss_new26</title>
<path fill="none" stroke="#000000" d="M130.67,-570.95C184.71,-512.06 292.98,-394.06 345.94,-336.34"/>
<polygon fill="#000000" stroke="#000000" points="348.548,-338.6746 352.73,-328.94 343.3902,-333.942 348.548,-338.6746"/>
<text text-anchor="middle" x="237.52" y="-462.8" font-family="Times,serif" font-size="14.00" fill="#000000">*correlated</text>
</g>
<!-- contra27&#45;&gt;poss_new42 -->
<g id="edge11" class="edge">
<title>contra27&#45;&gt;poss_new42</title>
<path fill="none" stroke="#000000" d="M166.52,-581.05C216.39,-562.75 282.93,-538.34 327.63,-521.94"/>
<polygon fill="#000000" stroke="#000000" points="328.9147,-525.1969 337.1,-518.47 326.5063,-518.6242 328.9147,-525.1969"/>
<text text-anchor="middle" x="237.52" y="-567.8" font-family="Times,serif" font-size="14.00" fill="#000000">*correlated</text>
</g>
<!-- contra27&#45;&gt;poss_new29 -->
<g id="edge12" class="edge">
<title>contra27&#45;&gt;poss_new29</title>
<path fill="none" stroke="#000000" d="M143.8,-573.26C196.41,-535.22 282.56,-472.93 333.98,-435.76"/>
<polygon fill="#000000" stroke="#000000" points="336.1805,-438.488 342.23,-429.79 332.0768,-432.817 336.1805,-438.488"/>
<text text-anchor="middle" x="237.52" y="-529.8" font-family="Times,serif" font-size="14.00" fill="#000000">*correlated</text>
</g>
<!-- contra56 -->
<g id="node12" class="node">
<title>contra56</title>
<ellipse fill="none" stroke="#000000" cx="596.67" cy="-628" rx="92.7622" ry="58.8803"/>
<text text-anchor="middle" x="596.67" y="-654.3" font-family="Times,serif" font-size="14.00" fill="#000000">For instance a</text>
<text text-anchor="middle" x="596.67" y="-639.3" font-family="Times,serif" font-size="14.00" fill="#000000">certain point of</text>
<text text-anchor="middle" x="596.67" y="-624.3" font-family="Times,serif" font-size="14.00" fill="#000000">grammatical</text>
<text text-anchor="middle" x="596.67" y="-609.3" font-family="Times,serif" font-size="14.00" fill="#000000">knowledge is present</text>
<text text-anchor="middle" x="596.67" y="-594.3" font-family="Times,serif" font-size="14.00" fill="#000000">in the mind</text>
</g>
<!-- contra27&#45;&gt;contra56 -->
<g id="edge9" class="edge">
<title>contra27&#45;&gt;contra56</title>
<path fill="none" stroke="#000000" d="M188.63,-610.1C257.44,-613.22 340.53,-617 340.53,-617 340.53,-617 422.56,-620.52 493.78,-623.58"/>
<polygon fill="#000000" stroke="#000000" points="494.0583,-627.0952 504.2,-624.03 494.3604,-620.1017 494.0583,-627.0952"/>
<text text-anchor="middle" x="376.53" y="-620.8" font-family="Times,serif" font-size="14.00" fill="#000000">contradicting</text>
</g>
<!-- contra56&#45;&gt;poss_new87 -->
<g id="edge13" class="edge">
<title>contra56&#45;&gt;poss_new87</title>
<path fill="none" stroke="#000000" d="M644.23,-577.28C702.48,-515.16 799.45,-411.76 848.51,-359.45"/>
<polygon fill="#000000" stroke="#000000" points="851.1048,-361.7996 855.39,-352.11 845.9976,-357.0124 851.1048,-361.7996"/>
<text text-anchor="middle" x="737.8" y="-535.8" font-family="Times,serif" font-size="14.00" fill="#000000">*correlated</text>
</g>
<!-- contra56&#45;&gt;poss_new89 -->
<g id="edge14" class="edge">
<title>contra56&#45;&gt;poss_new89</title>
<path fill="none" stroke="#000000" d="M673.05,-594.44C724.21,-571.97 789.85,-543.14 833.09,-524.14"/>
<polygon fill="#000000" stroke="#000000" points="834.7562,-527.2308 842.5,-520 831.9372,-520.8235 834.7562,-527.2308"/>
<text text-anchor="middle" x="737.8" y="-614.8" font-family="Times,serif" font-size="14.00" fill="#000000">*correlated</text>
</g>
<!-- contra56&#45;&gt;poss_new66 -->
<g id="edge15" class="edge">
<title>contra56&#45;&gt;poss_new66</title>
<path fill="none" stroke="#000000" d="M657.22,-583.38C705.3,-547.95 772.15,-498.69 819.85,-463.54"/>
<polygon fill="#000000" stroke="#000000" points="821.953,-466.338 827.93,-457.59 817.8023,-460.7013 821.953,-466.338"/>
<text text-anchor="middle" x="737.8" y="-587.8" font-family="Times,serif" font-size="14.00" fill="#000000">*correlated</text>
</g>
</g>
</svg>
