<?xml version="1.0" encoding="UTF-8" standalone="no"?>
<!DOCTYPE svg PUBLIC "-//W3C//DTD SVG 1.1//EN"
 "http://www.w3.org/Graphics/SVG/1.1/DTD/svg11.dtd">
<!-- Generated by graphviz version 2.40.1 (20161225.0304)
 -->
<!-- Pages: 1 -->
<svg width="983pt" height="852pt"
 viewBox="0.00 0.00 983.32 852.00" xmlns="http://www.w3.org/2000/svg" xmlns:xlink="http://www.w3.org/1999/xlink">
<g id="graph0" class="graph" transform="scale(1 1) rotate(0) translate(4 848)">
<polygon fill="#ffffff" stroke="transparent" points="-4,4 -4,-848 979.32,-848 979.32,4 -4,4"/>
<g id="clust1" class="cluster">
<title>cluster2</title>
<polygon fill="#d3d3d3" stroke="#d3d3d3" points="283.68,0 283.68,-659 975.32,-659 975.32,0 283.68,0"/>
<text text-anchor="middle" x="629.5" y="-643.8" font-family="Times,serif" font-size="14.00" fill="#000000">Possible New Correlations</text>
</g>
<g id="clust2" class="cluster">
<title>cluster1</title>
<polygon fill="#d3d3d3" stroke="#d3d3d3" points="0,-667 0,-844 680.33,-844 680.33,-667 0,-667"/>
<text text-anchor="middle" x="340.17" y="-828.8" font-family="Times,serif" font-size="14.00" fill="#000000">Found Contradictions</text>
</g>
<!-- poss_new13 -->
<g id="node1" class="node">
<title>poss_new13</title>
<ellipse fill="none" stroke="#000000" cx="385.01" cy="-610" rx="71.5" ry="18"/>
<text text-anchor="middle" x="385.01" y="-606.3" font-family="Times,serif" font-size="14.00" fill="#000000">themselves some</text>
</g>
<!-- poss_new89 -->
<g id="node2" class="node">
<title>poss_new89</title>
<ellipse fill="none" stroke="#000000" cx="868.33" cy="-610" rx="78" ry="18"/>
<text text-anchor="middle" x="868.33" y="-606.3" font-family="Times,serif" font-size="14.00" fill="#000000">a certain whiteness</text>
</g>
<!-- poss_new13&#45;&gt;poss_new89 -->
<g id="edge1" class="edge">
<title>poss_new13&#45;&gt;poss_new89</title>
<path fill="none" stroke="#000000" d="M446.71,-600.8C516.29,-590.43 619.84,-575 619.84,-575 619.84,-575 718.62,-588.91 791.62,-599.2"/>
<polygon fill="#000000" stroke="#000000" points="791.3506,-602.6964 801.74,-600.62 792.3234,-595.7643 791.3506,-602.6964"/>
<text text-anchor="middle" x="593.84" y="-563.8" font-family="Times,serif" font-size="14.00" fill="#000000">*opposed</text>
</g>
<!-- poss_new89&#45;&gt;poss_new13 -->
<g id="edge2" class="edge">
<title>poss_new89&#45;&gt;poss_new13</title>
<path fill="none" stroke="#000000" d="M790.16,-610.26C701.13,-610.56 567.84,-611 567.84,-611 567.84,-611 515.66,-610.71 467.05,-610.45"/>
<polygon fill="#000000" stroke="#000000" points="466.7703,-606.9484 456.75,-610.39 466.7294,-613.9483 466.7703,-606.9484"/>
<text text-anchor="middle" x="593.84" y="-614.8" font-family="Times,serif" font-size="14.00" fill="#000000">*opposed</text>
</g>
<!-- poss_new0 -->
<g id="node3" class="node">
<title>poss_new0</title>
<ellipse fill="none" stroke="#000000" cx="385.01" cy="-505" rx="93.5" ry="37.5"/>
<text text-anchor="middle" x="385.01" y="-516.3" font-family="Times,serif" font-size="14.00" fill="#000000">Of things themselves</text>
<text text-anchor="middle" x="385.01" y="-501.3" font-family="Times,serif" font-size="14.00" fill="#000000">some are predicable</text>
<text text-anchor="middle" x="385.01" y="-486.3" font-family="Times,serif" font-size="14.00" fill="#000000">of a subject</text>
</g>
<!-- poss_new61 -->
<g id="node4" class="node">
<title>poss_new61</title>
<ellipse fill="none" stroke="#000000" cx="868.33" cy="-505" rx="78.5" ry="69.5"/>
<text text-anchor="middle" x="868.33" y="-538.8" font-family="Times,serif" font-size="14.00" fill="#000000">For instance , a</text>
<text text-anchor="middle" x="868.33" y="-523.8" font-family="Times,serif" font-size="14.00" fill="#000000">certain point of</text>
<text text-anchor="middle" x="868.33" y="-508.8" font-family="Times,serif" font-size="14.00" fill="#000000">grammatical</text>
<text text-anchor="middle" x="868.33" y="-493.8" font-family="Times,serif" font-size="14.00" fill="#000000">knowledge is not</text>
<text text-anchor="middle" x="868.33" y="-478.8" font-family="Times,serif" font-size="14.00" fill="#000000">predicable of any</text>
<text text-anchor="middle" x="868.33" y="-463.8" font-family="Times,serif" font-size="14.00" fill="#000000">subject</text>
</g>
<!-- poss_new0&#45;&gt;poss_new61 -->
<g id="edge3" class="edge">
<title>poss_new0&#45;&gt;poss_new61</title>
<path fill="none" stroke="#000000" d="M478.8,-505C512.5,-505 542.34,-505 542.34,-505 542.34,-505 683.22,-505 779.76,-505"/>
<polygon fill="#000000" stroke="#000000" points="779.83,-508.5001 789.83,-505 779.83,-501.5001 779.83,-508.5001"/>
<text text-anchor="middle" x="593.84" y="-508.8" font-family="Times,serif" font-size="14.00" fill="#000000">possibly correlated</text>
</g>
<!-- poss_new4 -->
<g id="node5" class="node">
<title>poss_new4</title>
<ellipse fill="none" stroke="#000000" cx="385.01" cy="-359" rx="93.5" ry="37.5"/>
<text text-anchor="middle" x="385.01" y="-370.3" font-family="Times,serif" font-size="14.00" fill="#000000">Of things themselves</text>
<text text-anchor="middle" x="385.01" y="-355.3" font-family="Times,serif" font-size="14.00" fill="#000000">some are never</text>
<text text-anchor="middle" x="385.01" y="-340.3" font-family="Times,serif" font-size="14.00" fill="#000000">present in a subject</text>
</g>
<!-- poss_new56 -->
<g id="node6" class="node">
<title>poss_new56</title>
<ellipse fill="none" stroke="#000000" cx="868.33" cy="-359" rx="92.7622" ry="58.8803"/>
<text text-anchor="middle" x="868.33" y="-385.3" font-family="Times,serif" font-size="14.00" fill="#000000">For instance a</text>
<text text-anchor="middle" x="868.33" y="-370.3" font-family="Times,serif" font-size="14.00" fill="#000000">certain point of</text>
<text text-anchor="middle" x="868.33" y="-355.3" font-family="Times,serif" font-size="14.00" fill="#000000">grammatical</text>
<text text-anchor="middle" x="868.33" y="-340.3" font-family="Times,serif" font-size="14.00" fill="#000000">knowledge is present</text>
<text text-anchor="middle" x="868.33" y="-325.3" font-family="Times,serif" font-size="14.00" fill="#000000">in the mind</text>
</g>
<!-- poss_new4&#45;&gt;poss_new56 -->
<g id="edge4" class="edge">
<title>poss_new4&#45;&gt;poss_new56</title>
<path fill="none" stroke="#000000" d="M478.8,-359C512.5,-359 542.34,-359 542.34,-359 542.34,-359 669.81,-359 765.33,-359"/>
<polygon fill="#000000" stroke="#000000" points="765.35,-362.5001 775.35,-359 765.35,-355.5001 765.35,-362.5001"/>
<text text-anchor="middle" x="593.84" y="-362.8" font-family="Times,serif" font-size="14.00" fill="#000000">possibly correlated</text>
</g>
<!-- poss_new15 -->
<g id="node7" class="node">
<title>poss_new15</title>
<ellipse fill="none" stroke="#000000" cx="385.01" cy="-229" rx="93.5" ry="58.8803"/>
<text text-anchor="middle" x="385.01" y="-255.3" font-family="Times,serif" font-size="14.00" fill="#000000">Of things themselves</text>
<text text-anchor="middle" x="385.01" y="-240.3" font-family="Times,serif" font-size="14.00" fill="#000000">some are predicable</text>
<text text-anchor="middle" x="385.01" y="-225.3" font-family="Times,serif" font-size="14.00" fill="#000000">of a subject , and</text>
<text text-anchor="middle" x="385.01" y="-210.3" font-family="Times,serif" font-size="14.00" fill="#000000">are never present in</text>
<text text-anchor="middle" x="385.01" y="-195.3" font-family="Times,serif" font-size="14.00" fill="#000000">a subject .</text>
</g>
<!-- poss_new69 -->
<g id="node8" class="node">
<title>poss_new69</title>
<ellipse fill="none" stroke="#000000" cx="868.33" cy="-213" rx="86.5" ry="69.5"/>
<text text-anchor="middle" x="868.33" y="-246.8" font-family="Times,serif" font-size="14.00" fill="#000000">For instance , a</text>
<text text-anchor="middle" x="868.33" y="-231.8" font-family="Times,serif" font-size="14.00" fill="#000000">certain point of</text>
<text text-anchor="middle" x="868.33" y="-216.8" font-family="Times,serif" font-size="14.00" fill="#000000">grammatical</text>
<text text-anchor="middle" x="868.33" y="-201.8" font-family="Times,serif" font-size="14.00" fill="#000000">knowledge it is</text>
<text text-anchor="middle" x="868.33" y="-186.8" font-family="Times,serif" font-size="14.00" fill="#000000">never predicable of</text>
<text text-anchor="middle" x="868.33" y="-171.8" font-family="Times,serif" font-size="14.00" fill="#000000">anything</text>
</g>
<!-- poss_new15&#45;&gt;poss_new69 -->
<g id="edge5" class="edge">
<title>poss_new15&#45;&gt;poss_new69</title>
<path fill="none" stroke="#000000" d="M478.35,-224.25C512.23,-222.53 542.34,-221 542.34,-221 542.34,-221 675.65,-217.73 771.77,-215.37"/>
<polygon fill="#000000" stroke="#000000" points="771.9102,-218.8677 781.82,-215.12 771.736,-211.8699 771.9102,-218.8677"/>
<text text-anchor="middle" x="593.84" y="-224.8" font-family="Times,serif" font-size="14.00" fill="#000000">possibly correlated</text>
</g>
<!-- poss_new25 -->
<g id="node9" class="node">
<title>poss_new25</title>
<ellipse fill="none" stroke="#000000" cx="385.01" cy="-94" rx="92" ry="58.8803"/>
<text text-anchor="middle" x="385.01" y="-120.3" font-family="Times,serif" font-size="14.00" fill="#000000">Thus , Man is</text>
<text text-anchor="middle" x="385.01" y="-105.3" font-family="Times,serif" font-size="14.00" fill="#000000">predicable of the</text>
<text text-anchor="middle" x="385.01" y="-90.3" font-family="Times,serif" font-size="14.00" fill="#000000">individual man , and</text>
<text text-anchor="middle" x="385.01" y="-75.3" font-family="Times,serif" font-size="14.00" fill="#000000">is never present in</text>
<text text-anchor="middle" x="385.01" y="-60.3" font-family="Times,serif" font-size="14.00" fill="#000000">a subject .</text>
</g>
<!-- poss_new115 -->
<g id="node10" class="node">
<title>poss_new115</title>
<ellipse fill="none" stroke="#000000" cx="868.33" cy="-67" rx="99" ry="58.8803"/>
<text text-anchor="middle" x="868.33" y="-93.3" font-family="Times,serif" font-size="14.00" fill="#000000">Thus while knowledge</text>
<text text-anchor="middle" x="868.33" y="-78.3" font-family="Times,serif" font-size="14.00" fill="#000000">is present in the</text>
<text text-anchor="middle" x="868.33" y="-63.3" font-family="Times,serif" font-size="14.00" fill="#000000">human mind , it is</text>
<text text-anchor="middle" x="868.33" y="-48.3" font-family="Times,serif" font-size="14.00" fill="#000000">predicable of</text>
<text text-anchor="middle" x="868.33" y="-33.3" font-family="Times,serif" font-size="14.00" fill="#000000">grammar .</text>
</g>
<!-- poss_new25&#45;&gt;poss_new115 -->
<g id="edge6" class="edge">
<title>poss_new25&#45;&gt;poss_new115</title>
<path fill="none" stroke="#000000" d="M475.8,-84.721C541.88,-77.967 619.84,-70 619.84,-70 619.84,-70 692.21,-69.126 758.84,-68.322"/>
<polygon fill="#000000" stroke="#000000" points="759.0929,-71.8193 769.05,-68.199 759.0085,-64.8198 759.0929,-71.8193"/>
<text text-anchor="middle" x="593.84" y="-58.8" font-family="Times,serif" font-size="14.00" fill="#000000">*opposed</text>
</g>
<!-- poss_new115&#45;&gt;poss_new25 -->
<g id="edge7" class="edge">
<title>poss_new115&#45;&gt;poss_new25</title>
<path fill="none" stroke="#000000" d="M771.6,-79.555C683.76,-90.955 567.84,-106 567.84,-106 567.84,-106 528.82,-103.44 486.83,-100.68"/>
<polygon fill="#000000" stroke="#000000" points="486.9064,-97.1776 476.7,-100.02 486.4513,-104.1628 486.9064,-97.1776"/>
<text text-anchor="middle" x="593.84" y="-109.8" font-family="Times,serif" font-size="14.00" fill="#000000">*opposed</text>
</g>
<!-- contra0 -->
<g id="node11" class="node">
<title>contra0</title>
<ellipse fill="none" stroke="#000000" cx="101.34" cy="-712" rx="93.5" ry="37.5"/>
<text text-anchor="middle" x="101.34" y="-723.3" font-family="Times,serif" font-size="14.00" fill="#000000">Of things themselves</text>
<text text-anchor="middle" x="101.34" y="-708.3" font-family="Times,serif" font-size="14.00" fill="#000000">some are predicable</text>
<text text-anchor="middle" x="101.34" y="-693.3" font-family="Times,serif" font-size="14.00" fill="#000000">of a subject</text>
</g>
<!-- contra0&#45;&gt;poss_new13 -->
<g id="edge9" class="edge">
<title>contra0&#45;&gt;poss_new13</title>
<path fill="none" stroke="#000000" d="M171.1,-686.92C221.53,-668.78 288.53,-644.69 334.01,-628.34"/>
<polygon fill="#000000" stroke="#000000" points="335.4342,-631.5473 343.66,-624.87 333.0655,-624.9603 335.4342,-631.5473"/>
<text text-anchor="middle" x="243.18" y="-673.8" font-family="Times,serif" font-size="14.00" fill="#000000">*correlated</text>
</g>
<!-- contra0&#45;&gt;poss_new25 -->
<g id="edge10" class="edge">
<title>contra0&#45;&gt;poss_new25</title>
<path fill="none" stroke="#000000" d="M118.44,-674.73C165.13,-573.02 295.21,-289.65 354.66,-160.12"/>
<polygon fill="#000000" stroke="#000000" points="357.9978,-161.2383 358.99,-150.69 351.6364,-158.3172 357.9978,-161.2383"/>
<text text-anchor="middle" x="243.18" y="-373.8" font-family="Times,serif" font-size="14.00" fill="#000000">*correlated</text>
</g>
<!-- contra61 -->
<g id="node12" class="node">
<title>contra61</title>
<ellipse fill="none" stroke="#000000" cx="593.84" cy="-744" rx="78.5" ry="69.5"/>
<text text-anchor="middle" x="593.84" y="-777.8" font-family="Times,serif" font-size="14.00" fill="#000000">For instance , a</text>
<text text-anchor="middle" x="593.84" y="-762.8" font-family="Times,serif" font-size="14.00" fill="#000000">certain point of</text>
<text text-anchor="middle" x="593.84" y="-747.8" font-family="Times,serif" font-size="14.00" fill="#000000">grammatical</text>
<text text-anchor="middle" x="593.84" y="-732.8" font-family="Times,serif" font-size="14.00" fill="#000000">knowledge is not</text>
<text text-anchor="middle" x="593.84" y="-717.8" font-family="Times,serif" font-size="14.00" fill="#000000">predicable of any</text>
<text text-anchor="middle" x="593.84" y="-702.8" font-family="Times,serif" font-size="14.00" fill="#000000">subject</text>
</g>
<!-- contra0&#45;&gt;contra61 -->
<g id="edge8" class="edge">
<title>contra0&#45;&gt;contra61</title>
<path fill="none" stroke="#000000" d="M193.56,-717.96C263.98,-722.51 349.01,-728 349.01,-728 349.01,-728 435.08,-733.62 505.16,-738.2"/>
<polygon fill="#000000" stroke="#000000" points="505.1622,-741.7076 515.37,-738.87 505.6207,-734.7226 505.1622,-741.7076"/>
<text text-anchor="middle" x="385.01" y="-731.8" font-family="Times,serif" font-size="14.00" fill="#000000">contradicting</text>
</g>
<!-- contra61&#45;&gt;poss_new89 -->
<g id="edge11" class="edge">
<title>contra61&#45;&gt;poss_new89</title>
<path fill="none" stroke="#000000" d="M662.75,-710.36C713.94,-685.37 782.16,-652.07 825.67,-630.82"/>
<polygon fill="#000000" stroke="#000000" points="827.3847,-633.8779 834.84,-626.35 824.3175,-627.5857 827.3847,-633.8779"/>
<text text-anchor="middle" x="720.83" y="-713.8" font-family="Times,serif" font-size="14.00" fill="#000000">*correlated</text>
</g>
<!-- contra61&#45;&gt;poss_new115 -->
<g id="edge12" class="edge">
<title>contra61&#45;&gt;poss_new115</title>
<path fill="none" stroke="#000000" d="M620.41,-678.47C672.71,-549.46 788.53,-263.82 841.24,-133.79"/>
<polygon fill="#000000" stroke="#000000" points="844.5618,-134.9122 845.08,-124.33 838.0758,-132.2793 844.5618,-134.9122"/>
<text text-anchor="middle" x="720.83" y="-600.8" font-family="Times,serif" font-size="14.00" fill="#000000">*correlated</text>
</g>
</g>
</svg>
