<?xml version="1.0" encoding="UTF-8" standalone="no"?>
<!DOCTYPE svg PUBLIC "-//W3C//DTD SVG 1.1//EN"
 "http://www.w3.org/Graphics/SVG/1.1/DTD/svg11.dtd">
<!-- Generated by graphviz version 2.40.1 (20161225.0304)
 -->
<!-- Pages: 1 -->
<svg width="564pt" height="515pt"
 viewBox="0.00 0.00 564.45 515.00" xmlns="http://www.w3.org/2000/svg" xmlns:xlink="http://www.w3.org/1999/xlink">
<g id="graph0" class="graph" transform="scale(1 1) rotate(0) translate(4 511)">
<polygon fill="#ffffff" stroke="transparent" points="-4,4 -4,-511 560.45,-511 560.45,4 -4,4"/>
<g id="clust1" class="cluster">
<title>cluster2</title>
<polygon fill="#d3d3d3" stroke="#d3d3d3" points="0,0 0,-364 556.45,-364 556.45,0 0,0"/>
<text text-anchor="middle" x="278.23" y="-348.8" font-family="Times,serif" font-size="14.00" fill="#000000">Possible New Correlations</text>
</g>
<g id="clust2" class="cluster">
<title>cluster1</title>
<polygon fill="#d3d3d3" stroke="#d3d3d3" points="0,-372 0,-507 556.45,-507 556.45,-372 0,-372"/>
<text text-anchor="middle" x="278.23" y="-491.8" font-family="Times,serif" font-size="14.00" fill="#000000">Found Contradictions</text>
</g>
<!-- poss_new0 -->
<g id="node1" class="node">
<title>poss_new0</title>
<ellipse fill="none" stroke="#000000" cx="101.34" cy="-285" rx="93.5" ry="37.5"/>
<text text-anchor="middle" x="101.34" y="-296.3" font-family="Times,serif" font-size="14.00" fill="#000000">Of things themselves</text>
<text text-anchor="middle" x="101.34" y="-281.3" font-family="Times,serif" font-size="14.00" fill="#000000">some are predicable</text>
<text text-anchor="middle" x="101.34" y="-266.3" font-family="Times,serif" font-size="14.00" fill="#000000">of a subject</text>
</g>
<!-- poss_new48 -->
<g id="node2" class="node">
<title>poss_new48</title>
<ellipse fill="none" stroke="#000000" cx="460.06" cy="-285" rx="88.5" ry="48.1667"/>
<text text-anchor="middle" x="460.06" y="-303.8" font-family="Times,serif" font-size="14.00" fill="#000000">Some things , again</text>
<text text-anchor="middle" x="460.06" y="-288.8" font-family="Times,serif" font-size="14.00" fill="#000000">, are never</text>
<text text-anchor="middle" x="460.06" y="-273.8" font-family="Times,serif" font-size="14.00" fill="#000000">predicable of a</text>
<text text-anchor="middle" x="460.06" y="-258.8" font-family="Times,serif" font-size="14.00" fill="#000000">subject</text>
</g>
<!-- poss_new0&#45;&gt;poss_new48 -->
<g id="edge1" class="edge">
<title>poss_new0&#45;&gt;poss_new48</title>
<path fill="none" stroke="#000000" d="M195.02,-285C215.75,-285 231.68,-285 231.68,-285 231.68,-285 299.48,-285 361.2,-285"/>
<polygon fill="#000000" stroke="#000000" points="361.44,-288.5001 371.44,-285 361.44,-281.5001 361.44,-288.5001"/>
<text text-anchor="middle" x="283.18" y="-288.8" font-family="Times,serif" font-size="14.00" fill="#000000">possibly correlated</text>
</g>
<!-- poss_new4 -->
<g id="node3" class="node">
<title>poss_new4</title>
<ellipse fill="none" stroke="#000000" cx="101.34" cy="-181" rx="93.5" ry="37.5"/>
<text text-anchor="middle" x="101.34" y="-192.3" font-family="Times,serif" font-size="14.00" fill="#000000">Of things themselves</text>
<text text-anchor="middle" x="101.34" y="-177.3" font-family="Times,serif" font-size="14.00" fill="#000000">some are never</text>
<text text-anchor="middle" x="101.34" y="-162.3" font-family="Times,serif" font-size="14.00" fill="#000000">present in a subject</text>
</g>
<!-- poss_new45 -->
<g id="node4" class="node">
<title>poss_new45</title>
<ellipse fill="none" stroke="#000000" cx="460.06" cy="-181" rx="83.5" ry="37.5"/>
<text text-anchor="middle" x="460.06" y="-192.3" font-family="Times,serif" font-size="14.00" fill="#000000">Some things again</text>
<text text-anchor="middle" x="460.06" y="-177.3" font-family="Times,serif" font-size="14.00" fill="#000000">are present in a</text>
<text text-anchor="middle" x="460.06" y="-162.3" font-family="Times,serif" font-size="14.00" fill="#000000">subject</text>
</g>
<!-- poss_new4&#45;&gt;poss_new45 -->
<g id="edge2" class="edge">
<title>poss_new4&#45;&gt;poss_new45</title>
<path fill="none" stroke="#000000" d="M195.02,-181C215.75,-181 231.68,-181 231.68,-181 231.68,-181 303.27,-181 366.29,-181"/>
<polygon fill="#000000" stroke="#000000" points="366.32,-184.5001 376.32,-181 366.32,-177.5001 366.32,-184.5001"/>
<text text-anchor="middle" x="283.18" y="-184.8" font-family="Times,serif" font-size="14.00" fill="#000000">possibly correlated</text>
</g>
<!-- poss_new15 -->
<g id="node5" class="node">
<title>poss_new15</title>
<ellipse fill="none" stroke="#000000" cx="101.34" cy="-67" rx="93.5" ry="58.8803"/>
<text text-anchor="middle" x="101.34" y="-93.3" font-family="Times,serif" font-size="14.00" fill="#000000">Of things themselves</text>
<text text-anchor="middle" x="101.34" y="-78.3" font-family="Times,serif" font-size="14.00" fill="#000000">some are predicable</text>
<text text-anchor="middle" x="101.34" y="-63.3" font-family="Times,serif" font-size="14.00" fill="#000000">of a subject , and</text>
<text text-anchor="middle" x="101.34" y="-48.3" font-family="Times,serif" font-size="14.00" fill="#000000">are never present in</text>
<text text-anchor="middle" x="101.34" y="-33.3" font-family="Times,serif" font-size="14.00" fill="#000000">a subject .</text>
</g>
<!-- poss_new55 -->
<g id="node6" class="node">
<title>poss_new55</title>
<ellipse fill="none" stroke="#000000" cx="460.06" cy="-67" rx="88.5" ry="58.8803"/>
<text text-anchor="middle" x="460.06" y="-93.3" font-family="Times,serif" font-size="14.00" fill="#000000">Some things , again</text>
<text text-anchor="middle" x="460.06" y="-78.3" font-family="Times,serif" font-size="14.00" fill="#000000">, are present in a</text>
<text text-anchor="middle" x="460.06" y="-63.3" font-family="Times,serif" font-size="14.00" fill="#000000">subject , but are</text>
<text text-anchor="middle" x="460.06" y="-48.3" font-family="Times,serif" font-size="14.00" fill="#000000">never predicable of</text>
<text text-anchor="middle" x="460.06" y="-33.3" font-family="Times,serif" font-size="14.00" fill="#000000">a subject .</text>
</g>
<!-- poss_new15&#45;&gt;poss_new55 -->
<g id="edge3" class="edge">
<title>poss_new15&#45;&gt;poss_new55</title>
<path fill="none" stroke="#000000" d="M195.02,-67C215.75,-67 231.68,-67 231.68,-67 231.68,-67 299.48,-67 361.2,-67"/>
<polygon fill="#000000" stroke="#000000" points="361.44,-70.5001 371.44,-67 361.44,-63.5001 361.44,-70.5001"/>
<text text-anchor="middle" x="283.18" y="-70.8" font-family="Times,serif" font-size="14.00" fill="#000000">possibly correlated</text>
</g>
<!-- contra0 -->
<g id="node7" class="node">
<title>contra0</title>
<ellipse fill="none" stroke="#000000" cx="101.34" cy="-428" rx="93.5" ry="37.5"/>
<text text-anchor="middle" x="101.34" y="-439.3" font-family="Times,serif" font-size="14.00" fill="#000000">Of things themselves</text>
<text text-anchor="middle" x="101.34" y="-424.3" font-family="Times,serif" font-size="14.00" fill="#000000">some are predicable</text>
<text text-anchor="middle" x="101.34" y="-409.3" font-family="Times,serif" font-size="14.00" fill="#000000">of a subject</text>
</g>
<!-- contra48 -->
<g id="node8" class="node">
<title>contra48</title>
<ellipse fill="none" stroke="#000000" cx="460.06" cy="-428" rx="88.5" ry="48.1667"/>
<text text-anchor="middle" x="460.06" y="-446.8" font-family="Times,serif" font-size="14.00" fill="#000000">Some things , again</text>
<text text-anchor="middle" x="460.06" y="-431.8" font-family="Times,serif" font-size="14.00" fill="#000000">, are never</text>
<text text-anchor="middle" x="460.06" y="-416.8" font-family="Times,serif" font-size="14.00" fill="#000000">predicable of a</text>
<text text-anchor="middle" x="460.06" y="-401.8" font-family="Times,serif" font-size="14.00" fill="#000000">subject</text>
</g>
<!-- contra0&#45;&gt;contra48 -->
<g id="edge4" class="edge">
<title>contra0&#45;&gt;contra48</title>
<path fill="none" stroke="#000000" d="M194.94,-428C223.34,-428 247.18,-428 247.18,-428 247.18,-428 305.64,-428 361.29,-428"/>
<polygon fill="#000000" stroke="#000000" points="361.63,-431.5001 371.63,-428 361.63,-424.5001 361.63,-431.5001"/>
<text text-anchor="middle" x="283.18" y="-431.8" font-family="Times,serif" font-size="14.00" fill="#000000">contradicting</text>
</g>
</g>
</svg>
