<?xml version="1.0" encoding="UTF-8" standalone="no"?>
<!DOCTYPE svg PUBLIC "-//W3C//DTD SVG 1.1//EN"
 "http://www.w3.org/Graphics/SVG/1.1/DTD/svg11.dtd">
<!-- Generated by graphviz version 2.40.1 (20161225.0304)
 -->
<!-- Pages: 1 -->
<svg width="555pt" height="515pt"
 viewBox="0.00 0.00 554.55 515.00" xmlns="http://www.w3.org/2000/svg" xmlns:xlink="http://www.w3.org/1999/xlink">
<g id="graph0" class="graph" transform="scale(1 1) rotate(0) translate(4 511)">
<polygon fill="#ffffff" stroke="transparent" points="-4,4 -4,-511 550.55,-511 550.55,4 -4,4"/>
<g id="clust1" class="cluster">
<title>cluster2</title>
<polygon fill="#d3d3d3" stroke="#d3d3d3" points="0,-143 0,-507 546.55,-507 546.55,-143 0,-143"/>
<text text-anchor="middle" x="273.28" y="-491.8" font-family="Times,serif" font-size="14.00" fill="#000000">Possible New Correlations</text>
</g>
<g id="clust2" class="cluster">
<title>cluster1</title>
<polygon fill="#d3d3d3" stroke="#d3d3d3" points="0,0 0,-135 543.72,-135 543.72,0 0,0"/>
<text text-anchor="middle" x="271.86" y="-119.8" font-family="Times,serif" font-size="14.00" fill="#000000">Found Contradictions</text>
</g>
<!-- poss_new45 -->
<g id="node1" class="node">
<title>poss_new45</title>
<ellipse fill="none" stroke="#000000" cx="96.39" cy="-439" rx="83.5" ry="37.5"/>
<text text-anchor="middle" x="96.39" y="-450.3" font-family="Times,serif" font-size="14.00" fill="#000000">Some things again</text>
<text text-anchor="middle" x="96.39" y="-435.3" font-family="Times,serif" font-size="14.00" fill="#000000">are present in a</text>
<text text-anchor="middle" x="96.39" y="-420.3" font-family="Times,serif" font-size="14.00" fill="#000000">subject</text>
</g>
<!-- poss_new99 -->
<g id="node2" class="node">
<title>poss_new99</title>
<ellipse fill="none" stroke="#000000" cx="450.17" cy="-439" rx="54.6905" ry="18"/>
<text text-anchor="middle" x="450.17" y="-435.3" font-family="Times,serif" font-size="14.00" fill="#000000">Other things</text>
</g>
<!-- poss_new45&#45;&gt;poss_new99 -->
<g id="edge1" class="edge">
<title>poss_new45&#45;&gt;poss_new99</title>
<path fill="none" stroke="#000000" d="M180.02,-439C203.02,-439 221.78,-439 221.78,-439 221.78,-439 317.78,-439 385.3,-439"/>
<polygon fill="#000000" stroke="#000000" points="385.46,-442.5001 395.46,-439 385.46,-435.5001 385.46,-442.5001"/>
<text text-anchor="middle" x="273.28" y="-442.8" font-family="Times,serif" font-size="14.00" fill="#000000">possibly correlated</text>
</g>
<!-- poss_new48 -->
<g id="node3" class="node">
<title>poss_new48</title>
<ellipse fill="none" stroke="#000000" cx="96.39" cy="-335" rx="88.5" ry="48.1667"/>
<text text-anchor="middle" x="96.39" y="-353.8" font-family="Times,serif" font-size="14.00" fill="#000000">Some things , again</text>
<text text-anchor="middle" x="96.39" y="-338.8" font-family="Times,serif" font-size="14.00" fill="#000000">, are never</text>
<text text-anchor="middle" x="96.39" y="-323.8" font-family="Times,serif" font-size="14.00" fill="#000000">predicable of a</text>
<text text-anchor="middle" x="96.39" y="-308.8" font-family="Times,serif" font-size="14.00" fill="#000000">subject</text>
</g>
<!-- poss_new92 -->
<g id="node4" class="node">
<title>poss_new92</title>
<ellipse fill="none" stroke="#000000" cx="450.17" cy="-335" rx="85.5135" ry="37.5"/>
<text text-anchor="middle" x="450.17" y="-346.3" font-family="Times,serif" font-size="14.00" fill="#000000">Other things again</text>
<text text-anchor="middle" x="450.17" y="-331.3" font-family="Times,serif" font-size="14.00" fill="#000000">are both predicable</text>
<text text-anchor="middle" x="450.17" y="-316.3" font-family="Times,serif" font-size="14.00" fill="#000000">of a subject</text>
</g>
<!-- poss_new48&#45;&gt;poss_new92 -->
<g id="edge2" class="edge">
<title>poss_new48&#45;&gt;poss_new92</title>
<path fill="none" stroke="#000000" d="M184.83,-335C205.58,-335 221.78,-335 221.78,-335 221.78,-335 291.67,-335 354.12,-335"/>
<polygon fill="#000000" stroke="#000000" points="354.47,-338.5001 364.47,-335 354.47,-331.5001 354.47,-338.5001"/>
<text text-anchor="middle" x="273.28" y="-338.8" font-family="Times,serif" font-size="14.00" fill="#000000">possibly correlated</text>
</g>
<!-- poss_new55 -->
<g id="node5" class="node">
<title>poss_new55</title>
<ellipse fill="none" stroke="#000000" cx="96.39" cy="-210" rx="88.5" ry="58.8803"/>
<text text-anchor="middle" x="96.39" y="-236.3" font-family="Times,serif" font-size="14.00" fill="#000000">Some things , again</text>
<text text-anchor="middle" x="96.39" y="-221.3" font-family="Times,serif" font-size="14.00" fill="#000000">, are present in a</text>
<text text-anchor="middle" x="96.39" y="-206.3" font-family="Times,serif" font-size="14.00" fill="#000000">subject , but are</text>
<text text-anchor="middle" x="96.39" y="-191.3" font-family="Times,serif" font-size="14.00" fill="#000000">never predicable of</text>
<text text-anchor="middle" x="96.39" y="-176.3" font-family="Times,serif" font-size="14.00" fill="#000000">a subject .</text>
</g>
<!-- poss_new101 -->
<g id="node6" class="node">
<title>poss_new101</title>
<ellipse fill="none" stroke="#000000" cx="450.17" cy="-210" rx="88.5" ry="58.8803"/>
<text text-anchor="middle" x="450.17" y="-236.3" font-family="Times,serif" font-size="14.00" fill="#000000">Other things , again</text>
<text text-anchor="middle" x="450.17" y="-221.3" font-family="Times,serif" font-size="14.00" fill="#000000">, are both</text>
<text text-anchor="middle" x="450.17" y="-206.3" font-family="Times,serif" font-size="14.00" fill="#000000">predicable of a</text>
<text text-anchor="middle" x="450.17" y="-191.3" font-family="Times,serif" font-size="14.00" fill="#000000">subject and present</text>
<text text-anchor="middle" x="450.17" y="-176.3" font-family="Times,serif" font-size="14.00" fill="#000000">in a subject .</text>
</g>
<!-- poss_new55&#45;&gt;poss_new101 -->
<g id="edge3" class="edge">
<title>poss_new55&#45;&gt;poss_new101</title>
<path fill="none" stroke="#000000" d="M184.83,-210C205.58,-210 221.78,-210 221.78,-210 221.78,-210 289.58,-210 351.3,-210"/>
<polygon fill="#000000" stroke="#000000" points="351.54,-213.5001 361.54,-210 351.54,-206.5001 351.54,-213.5001"/>
<text text-anchor="middle" x="273.28" y="-213.8" font-family="Times,serif" font-size="14.00" fill="#000000">possibly correlated</text>
</g>
<!-- contra48 -->
<g id="node7" class="node">
<title>contra48</title>
<ellipse fill="none" stroke="#000000" cx="96.39" cy="-56" rx="88.5" ry="48.1667"/>
<text text-anchor="middle" x="96.39" y="-74.8" font-family="Times,serif" font-size="14.00" fill="#000000">Some things , again</text>
<text text-anchor="middle" x="96.39" y="-59.8" font-family="Times,serif" font-size="14.00" fill="#000000">, are never</text>
<text text-anchor="middle" x="96.39" y="-44.8" font-family="Times,serif" font-size="14.00" fill="#000000">predicable of a</text>
<text text-anchor="middle" x="96.39" y="-29.8" font-family="Times,serif" font-size="14.00" fill="#000000">subject</text>
</g>
<!-- contra92 -->
<g id="node8" class="node">
<title>contra92</title>
<ellipse fill="none" stroke="#000000" cx="450.17" cy="-56" rx="85.5135" ry="37.5"/>
<text text-anchor="middle" x="450.17" y="-67.3" font-family="Times,serif" font-size="14.00" fill="#000000">Other things again</text>
<text text-anchor="middle" x="450.17" y="-52.3" font-family="Times,serif" font-size="14.00" fill="#000000">are both predicable</text>
<text text-anchor="middle" x="450.17" y="-37.3" font-family="Times,serif" font-size="14.00" fill="#000000">of a subject</text>
</g>
<!-- contra48&#45;&gt;contra92 -->
<g id="edge4" class="edge">
<title>contra48&#45;&gt;contra92</title>
<path fill="none" stroke="#000000" d="M184.82,-56C213.12,-56 237.28,-56 237.28,-56 237.28,-56 297.85,-56 354.37,-56"/>
<polygon fill="#000000" stroke="#000000" points="354.5,-59.5001 364.5,-56 354.5,-52.5001 354.5,-59.5001"/>
<text text-anchor="middle" x="273.28" y="-59.8" font-family="Times,serif" font-size="14.00" fill="#000000">contradicting</text>
</g>
</g>
</svg>
