<?xml version="1.0" encoding="UTF-8" standalone="no"?>
<!DOCTYPE svg PUBLIC "-//W3C//DTD SVG 1.1//EN"
 "http://www.w3.org/Graphics/SVG/1.1/DTD/svg11.dtd">
<!-- Generated by graphviz version 2.40.1 (20161225.0304)
 -->
<!-- Pages: 1 -->
<svg width="990pt" height="713pt"
 viewBox="0.00 0.00 990.39 713.00" xmlns="http://www.w3.org/2000/svg" xmlns:xlink="http://www.w3.org/1999/xlink">
<g id="graph0" class="graph" transform="scale(1 1) rotate(0) translate(4 709)">
<polygon fill="#ffffff" stroke="transparent" points="-4,4 -4,-709 986.39,-709 986.39,4 -4,4"/>
<g id="clust1" class="cluster">
<title>cluster1</title>
<polygon fill="#d3d3d3" stroke="#d3d3d3" points="0,-528 0,-705 704.37,-705 704.37,-528 0,-528"/>
<text text-anchor="middle" x="352.19" y="-689.8" font-family="Times,serif" font-size="14.00" fill="#000000">Found Contradictions</text>
</g>
<g id="clust2" class="cluster">
<title>cluster2</title>
<polygon fill="#d3d3d3" stroke="#d3d3d3" points="283.68,0 283.68,-520 982.39,-520 982.39,0 283.68,0"/>
<text text-anchor="middle" x="633.03" y="-504.8" font-family="Times,serif" font-size="14.00" fill="#000000">Possible New Correlations</text>
</g>
<!-- contra0 -->
<g id="node1" class="node">
<title>contra0</title>
<ellipse fill="none" stroke="#000000" cx="101.34" cy="-589" rx="93.5" ry="37.5"/>
<text text-anchor="middle" x="101.34" y="-600.3" font-family="Times,serif" font-size="14.00" fill="#000000">Of things themselves</text>
<text text-anchor="middle" x="101.34" y="-585.3" font-family="Times,serif" font-size="14.00" fill="#000000">some are predicable</text>
<text text-anchor="middle" x="101.34" y="-570.3" font-family="Times,serif" font-size="14.00" fill="#000000">of a subject</text>
</g>
<!-- contra32 -->
<g id="node2" class="node">
<title>contra32</title>
<ellipse fill="none" stroke="#000000" cx="605.86" cy="-605" rx="90.5" ry="69.5"/>
<text text-anchor="middle" x="605.86" y="-638.8" font-family="Times,serif" font-size="14.00" fill="#000000">By being</text>
<text text-anchor="middle" x="605.86" y="-623.8" font-family="Times,serif" font-size="14.00" fill="#000000">Presentinasubject I</text>
<text text-anchor="middle" x="605.86" y="-608.8" font-family="Times,serif" font-size="14.00" fill="#000000">do not being</text>
<text text-anchor="middle" x="605.86" y="-593.8" font-family="Times,serif" font-size="14.00" fill="#000000">incapable of</text>
<text text-anchor="middle" x="605.86" y="-578.8" font-family="Times,serif" font-size="14.00" fill="#000000">existence apart from</text>
<text text-anchor="middle" x="605.86" y="-563.8" font-family="Times,serif" font-size="14.00" fill="#000000">the said subject</text>
</g>
<!-- contra0&#45;&gt;contra32 -->
<g id="edge1" class="edge">
<title>contra0&#45;&gt;contra32</title>
<path fill="none" stroke="#000000" d="M194.62,-592.01C264.83,-594.28 349.01,-597 349.01,-597 349.01,-597 433.25,-599.62 505.24,-601.87"/>
<polygon fill="#000000" stroke="#000000" points="505.207,-605.3705 515.31,-602.18 505.4225,-598.3739 505.207,-605.3705"/>
<text text-anchor="middle" x="385.01" y="-600.8" font-family="Times,serif" font-size="14.00" fill="#000000">contradicting</text>
</g>
<!-- poss_new13 -->
<g id="node3" class="node">
<title>poss_new13</title>
<ellipse fill="none" stroke="#000000" cx="385.01" cy="-471" rx="71.5" ry="18"/>
<text text-anchor="middle" x="385.01" y="-467.3" font-family="Times,serif" font-size="14.00" fill="#000000">themselves some</text>
</g>
<!-- contra0&#45;&gt;poss_new13 -->
<g id="edge7" class="edge">
<title>contra0&#45;&gt;poss_new13</title>
<path fill="none" stroke="#000000" d="M166.42,-561.93C218.91,-540.09 291.47,-509.91 338.32,-490.42"/>
<polygon fill="#000000" stroke="#000000" points="339.7395,-493.6204 347.63,-486.55 337.0525,-487.1566 339.7395,-493.6204"/>
<text text-anchor="middle" x="243.18" y="-543.8" font-family="Times,serif" font-size="14.00" fill="#000000">*correlated</text>
</g>
<!-- poss_new26 -->
<g id="node4" class="node">
<title>poss_new26</title>
<ellipse fill="none" stroke="#000000" cx="883.88" cy="-462" rx="78.5" ry="27"/>
<text text-anchor="middle" x="883.88" y="-465.8" font-family="Times,serif" font-size="14.00" fill="#000000">being</text>
<text text-anchor="middle" x="883.88" y="-450.8" font-family="Times,serif" font-size="14.00" fill="#000000">Presentinasubject</text>
</g>
<!-- contra32&#45;&gt;poss_new26 -->
<g id="edge8" class="edge">
<title>contra32&#45;&gt;poss_new26</title>
<path fill="none" stroke="#000000" d="M681.1,-566.3C728.59,-541.87 788.76,-510.92 831.19,-489.1"/>
<polygon fill="#000000" stroke="#000000" points="832.9384,-492.1366 840.23,-484.45 829.7365,-485.9118 832.9384,-492.1366"/>
<text text-anchor="middle" x="744.87" y="-549.8" font-family="Times,serif" font-size="14.00" fill="#000000">*correlated</text>
</g>
<!-- poss_new13&#45;&gt;poss_new26 -->
<g id="edge2" class="edge">
<title>poss_new13&#45;&gt;poss_new26</title>
<path fill="none" stroke="#000000" d="M447.62,-462.12C520.75,-451.75 631.86,-436 631.86,-436 631.86,-436 725.35,-445.64 798.44,-453.19"/>
<polygon fill="#000000" stroke="#000000" points="798.3058,-456.6944 808.61,-454.23 799.018,-449.7308 798.3058,-456.6944"/>
<text text-anchor="middle" x="605.86" y="-424.8" font-family="Times,serif" font-size="14.00" fill="#000000">*opposed</text>
</g>
<!-- poss_new26&#45;&gt;poss_new13 -->
<g id="edge3" class="edge">
<title>poss_new26&#45;&gt;poss_new13</title>
<path fill="none" stroke="#000000" d="M805.59,-464.58C715.51,-467.54 579.86,-472 579.86,-472 579.86,-472 520.23,-471.69 466.94,-471.42"/>
<polygon fill="#000000" stroke="#000000" points="466.7571,-467.9192 456.74,-471.37 466.7227,-474.9191 466.7571,-467.9192"/>
<text text-anchor="middle" x="605.86" y="-475.8" font-family="Times,serif" font-size="14.00" fill="#000000">*opposed</text>
</g>
<!-- poss_new0 -->
<g id="node5" class="node">
<title>poss_new0</title>
<ellipse fill="none" stroke="#000000" cx="385.01" cy="-348" rx="93.5" ry="37.5"/>
<text text-anchor="middle" x="385.01" y="-359.3" font-family="Times,serif" font-size="14.00" fill="#000000">Of things themselves</text>
<text text-anchor="middle" x="385.01" y="-344.3" font-family="Times,serif" font-size="14.00" fill="#000000">some are predicable</text>
<text text-anchor="middle" x="385.01" y="-329.3" font-family="Times,serif" font-size="14.00" fill="#000000">of a subject</text>
</g>
<!-- poss_new32 -->
<g id="node6" class="node">
<title>poss_new32</title>
<ellipse fill="none" stroke="#000000" cx="883.88" cy="-348" rx="90.5" ry="69.5"/>
<text text-anchor="middle" x="883.88" y="-381.8" font-family="Times,serif" font-size="14.00" fill="#000000">By being</text>
<text text-anchor="middle" x="883.88" y="-366.8" font-family="Times,serif" font-size="14.00" fill="#000000">Presentinasubject I</text>
<text text-anchor="middle" x="883.88" y="-351.8" font-family="Times,serif" font-size="14.00" fill="#000000">do not being</text>
<text text-anchor="middle" x="883.88" y="-336.8" font-family="Times,serif" font-size="14.00" fill="#000000">incapable of</text>
<text text-anchor="middle" x="883.88" y="-321.8" font-family="Times,serif" font-size="14.00" fill="#000000">existence apart from</text>
<text text-anchor="middle" x="883.88" y="-306.8" font-family="Times,serif" font-size="14.00" fill="#000000">the said subject</text>
</g>
<!-- poss_new0&#45;&gt;poss_new32 -->
<g id="edge4" class="edge">
<title>poss_new0&#45;&gt;poss_new32</title>
<path fill="none" stroke="#000000" d="M478.6,-348C517.77,-348 554.36,-348 554.36,-348 554.36,-348 685.95,-348 782.82,-348"/>
<polygon fill="#000000" stroke="#000000" points="782.97,-351.5001 792.97,-348 782.97,-344.5001 782.97,-351.5001"/>
<text text-anchor="middle" x="605.86" y="-351.8" font-family="Times,serif" font-size="14.00" fill="#000000">possibly correlated</text>
</g>
<!-- poss_new4 -->
<g id="node7" class="node">
<title>poss_new4</title>
<ellipse fill="none" stroke="#000000" cx="385.01" cy="-234" rx="93.5" ry="37.5"/>
<text text-anchor="middle" x="385.01" y="-245.3" font-family="Times,serif" font-size="14.00" fill="#000000">Of things themselves</text>
<text text-anchor="middle" x="385.01" y="-230.3" font-family="Times,serif" font-size="14.00" fill="#000000">some are never</text>
<text text-anchor="middle" x="385.01" y="-215.3" font-family="Times,serif" font-size="14.00" fill="#000000">present in a subject</text>
</g>
<!-- poss_new29 -->
<g id="node8" class="node">
<title>poss_new29</title>
<ellipse fill="none" stroke="#000000" cx="883.88" cy="-234" rx="85.5" ry="27"/>
<text text-anchor="middle" x="883.88" y="-237.8" font-family="Times,serif" font-size="14.00" fill="#000000">as parts are present</text>
<text text-anchor="middle" x="883.88" y="-222.8" font-family="Times,serif" font-size="14.00" fill="#000000">in a whole</text>
</g>
<!-- poss_new4&#45;&gt;poss_new29 -->
<g id="edge5" class="edge">
<title>poss_new4&#45;&gt;poss_new29</title>
<path fill="none" stroke="#000000" d="M478.6,-234C517.77,-234 554.36,-234 554.36,-234 554.36,-234 690.71,-234 787.99,-234"/>
<polygon fill="#000000" stroke="#000000" points="788.16,-237.5001 798.16,-234 788.16,-230.5001 788.16,-237.5001"/>
<text text-anchor="middle" x="605.86" y="-237.8" font-family="Times,serif" font-size="14.00" fill="#000000">possibly correlated</text>
</g>
<!-- poss_new15 -->
<g id="node9" class="node">
<title>poss_new15</title>
<ellipse fill="none" stroke="#000000" cx="385.01" cy="-99" rx="93.5" ry="58.8803"/>
<text text-anchor="middle" x="385.01" y="-125.3" font-family="Times,serif" font-size="14.00" fill="#000000">Of things themselves</text>
<text text-anchor="middle" x="385.01" y="-110.3" font-family="Times,serif" font-size="14.00" fill="#000000">some are predicable</text>
<text text-anchor="middle" x="385.01" y="-95.3" font-family="Times,serif" font-size="14.00" fill="#000000">of a subject , and</text>
<text text-anchor="middle" x="385.01" y="-80.3" font-family="Times,serif" font-size="14.00" fill="#000000">are never present in</text>
<text text-anchor="middle" x="385.01" y="-65.3" font-family="Times,serif" font-size="14.00" fill="#000000">a subject .</text>
</g>
<!-- poss_new44 -->
<g id="node10" class="node">
<title>poss_new44</title>
<ellipse fill="none" stroke="#000000" cx="883.88" cy="-99" rx="90.5193" ry="90.5193"/>
<text text-anchor="middle" x="883.88" y="-147.8" font-family="Times,serif" font-size="14.00" fill="#000000">By being</text>
<text text-anchor="middle" x="883.88" y="-132.8" font-family="Times,serif" font-size="14.00" fill="#000000">Presentinasubject I</text>
<text text-anchor="middle" x="883.88" y="-117.8" font-family="Times,serif" font-size="14.00" fill="#000000">do not mean present</text>
<text text-anchor="middle" x="883.88" y="-102.8" font-family="Times,serif" font-size="14.00" fill="#000000">as parts are present</text>
<text text-anchor="middle" x="883.88" y="-87.8" font-family="Times,serif" font-size="14.00" fill="#000000">in a whole , but</text>
<text text-anchor="middle" x="883.88" y="-72.8" font-family="Times,serif" font-size="14.00" fill="#000000">being incapable of</text>
<text text-anchor="middle" x="883.88" y="-57.8" font-family="Times,serif" font-size="14.00" fill="#000000">existence apart from</text>
<text text-anchor="middle" x="883.88" y="-42.8" font-family="Times,serif" font-size="14.00" fill="#000000">the said subject .</text>
</g>
<!-- poss_new15&#45;&gt;poss_new44 -->
<g id="edge6" class="edge">
<title>poss_new15&#45;&gt;poss_new44</title>
<path fill="none" stroke="#000000" d="M478.6,-99C517.77,-99 554.36,-99 554.36,-99 554.36,-99 685.95,-99 782.82,-99"/>
<polygon fill="#000000" stroke="#000000" points="782.97,-102.5001 792.97,-99 782.97,-95.5001 782.97,-102.5001"/>
<text text-anchor="middle" x="605.86" y="-102.8" font-family="Times,serif" font-size="14.00" fill="#000000">possibly correlated</text>
</g>
</g>
</svg>
