<?xml version="1.0" encoding="UTF-8" standalone="no"?>
<!DOCTYPE svg PUBLIC "-//W3C//DTD SVG 1.1//EN"
 "http://www.w3.org/Graphics/SVG/1.1/DTD/svg11.dtd">
<!-- Generated by graphviz version 2.40.1 (20161225.0304)
 -->
<!-- Pages: 1 -->
<svg width="983pt" height="632pt"
 viewBox="0.00 0.00 983.32 632.00" xmlns="http://www.w3.org/2000/svg" xmlns:xlink="http://www.w3.org/1999/xlink">
<g id="graph0" class="graph" transform="scale(1 1) rotate(0) translate(4 628)">
<polygon fill="#ffffff" stroke="transparent" points="-4,4 -4,-628 979.32,-628 979.32,4 -4,4"/>
<g id="clust1" class="cluster">
<title>cluster2</title>
<polygon fill="#d3d3d3" stroke="#d3d3d3" points="282.26,0 282.26,-481 975.32,-481 975.32,0 282.26,0"/>
<text text-anchor="middle" x="628.79" y="-465.8" font-family="Times,serif" font-size="14.00" fill="#000000">Possible New Correlations</text>
</g>
<g id="clust2" class="cluster">
<title>cluster1</title>
<polygon fill="#d3d3d3" stroke="#d3d3d3" points="0,-489 0,-624 705.79,-624 705.79,-489 0,-489"/>
<text text-anchor="middle" x="352.89" y="-608.8" font-family="Times,serif" font-size="14.00" fill="#000000">Found Contradictions</text>
</g>
<!-- poss_new113 -->
<g id="node1" class="node">
<title>poss_new113</title>
<ellipse fill="none" stroke="#000000" cx="389.26" cy="-432" rx="69.5877" ry="18"/>
<text text-anchor="middle" x="389.26" y="-428.3" font-family="Times,serif" font-size="14.00" fill="#000000">the human mind</text>
</g>
<!-- poss_new129 -->
<g id="node2" class="node">
<title>poss_new129</title>
<ellipse fill="none" stroke="#000000" cx="881.05" cy="-432" rx="77.5" ry="18"/>
<text text-anchor="middle" x="881.05" y="-428.3" font-family="Times,serif" font-size="14.00" fill="#000000">the individual man</text>
</g>
<!-- poss_new113&#45;&gt;poss_new129 -->
<g id="edge1" class="edge">
<title>poss_new113&#45;&gt;poss_new129</title>
<path fill="none" stroke="#000000" d="M459.21,-432C506.36,-432 560.02,-432 560.02,-432 560.02,-432 698.08,-432 793.13,-432"/>
<polygon fill="#000000" stroke="#000000" points="793.34,-435.5001 803.34,-432 793.34,-428.5001 793.34,-435.5001"/>
<text text-anchor="middle" x="611.52" y="-435.8" font-family="Times,serif" font-size="14.00" fill="#000000">possibly correlated</text>
</g>
<!-- poss_new105 -->
<g id="node3" class="node">
<title>poss_new105</title>
<ellipse fill="none" stroke="#000000" cx="389.26" cy="-359" rx="62.374" ry="37.5"/>
<text text-anchor="middle" x="389.26" y="-370.3" font-family="Times,serif" font-size="14.00" fill="#000000">Thus it is</text>
<text text-anchor="middle" x="389.26" y="-355.3" font-family="Times,serif" font-size="14.00" fill="#000000">predicable of</text>
<text text-anchor="middle" x="389.26" y="-340.3" font-family="Times,serif" font-size="14.00" fill="#000000">grammar</text>
</g>
<!-- poss_new116 -->
<g id="node4" class="node">
<title>poss_new116</title>
<ellipse fill="none" stroke="#000000" cx="881.05" cy="-369" rx="73.5" ry="27"/>
<text text-anchor="middle" x="881.05" y="-372.8" font-family="Times,serif" font-size="14.00" fill="#000000">There is lastly a</text>
<text text-anchor="middle" x="881.05" y="-357.8" font-family="Times,serif" font-size="14.00" fill="#000000">class of things</text>
</g>
<!-- poss_new105&#45;&gt;poss_new116 -->
<g id="edge2" class="edge">
<title>poss_new105&#45;&gt;poss_new116</title>
<path fill="none" stroke="#000000" d="M450.94,-354.03C524.47,-348.11 637.52,-339 637.52,-339 637.52,-339 729.98,-350.39 800.96,-359.13"/>
<polygon fill="#000000" stroke="#000000" points="800.9171,-362.6511 811.27,-360.4 801.7729,-355.7036 800.9171,-362.6511"/>
<text text-anchor="middle" x="611.52" y="-327.8" font-family="Times,serif" font-size="14.00" fill="#000000">*opposed</text>
</g>
<!-- poss_new116&#45;&gt;poss_new105 -->
<g id="edge3" class="edge">
<title>poss_new116&#45;&gt;poss_new105</title>
<path fill="none" stroke="#000000" d="M807.62,-370.49C720.09,-372.27 585.52,-375 585.52,-375 585.52,-375 517.36,-369.44 461.38,-364.88"/>
<polygon fill="#000000" stroke="#000000" points="461.3416,-361.3653 451.09,-364.04 460.772,-368.3421 461.3416,-361.3653"/>
<text text-anchor="middle" x="611.52" y="-378.8" font-family="Times,serif" font-size="14.00" fill="#000000">*opposed</text>
</g>
<!-- poss_new102 -->
<g id="node5" class="node">
<title>poss_new102</title>
<ellipse fill="none" stroke="#000000" cx="389.26" cy="-266" rx="92.6469" ry="37.5"/>
<text text-anchor="middle" x="389.26" y="-277.3" font-family="Times,serif" font-size="14.00" fill="#000000">while knowledge is</text>
<text text-anchor="middle" x="389.26" y="-262.3" font-family="Times,serif" font-size="14.00" fill="#000000">present in the human</text>
<text text-anchor="middle" x="389.26" y="-247.3" font-family="Times,serif" font-size="14.00" fill="#000000">mind</text>
</g>
<!-- poss_new119 -->
<g id="node6" class="node">
<title>poss_new119</title>
<ellipse fill="none" stroke="#000000" cx="881.05" cy="-276" rx="86.5" ry="48.1667"/>
<text text-anchor="middle" x="881.05" y="-294.8" font-family="Times,serif" font-size="14.00" fill="#000000">which are neither</text>
<text text-anchor="middle" x="881.05" y="-279.8" font-family="Times,serif" font-size="14.00" fill="#000000">present in a subject</text>
<text text-anchor="middle" x="881.05" y="-264.8" font-family="Times,serif" font-size="14.00" fill="#000000">such as the</text>
<text text-anchor="middle" x="881.05" y="-249.8" font-family="Times,serif" font-size="14.00" fill="#000000">individual man</text>
</g>
<!-- poss_new102&#45;&gt;poss_new119 -->
<g id="edge4" class="edge">
<title>poss_new102&#45;&gt;poss_new119</title>
<path fill="none" stroke="#000000" d="M482.13,-267.63C522.18,-268.34 560.02,-269 560.02,-269 560.02,-269 689.88,-271.83 784.41,-273.89"/>
<polygon fill="#000000" stroke="#000000" points="784.5267,-277.3932 794.6,-274.11 784.6779,-270.3949 784.5267,-277.3932"/>
<text text-anchor="middle" x="611.52" y="-272.8" font-family="Times,serif" font-size="14.00" fill="#000000">possibly correlated</text>
</g>
<!-- poss_new115 -->
<g id="node7" class="node">
<title>poss_new115</title>
<ellipse fill="none" stroke="#000000" cx="389.26" cy="-109" rx="99" ry="58.8803"/>
<text text-anchor="middle" x="389.26" y="-135.3" font-family="Times,serif" font-size="14.00" fill="#000000">Thus while knowledge</text>
<text text-anchor="middle" x="389.26" y="-120.3" font-family="Times,serif" font-size="14.00" fill="#000000">is present in the</text>
<text text-anchor="middle" x="389.26" y="-105.3" font-family="Times,serif" font-size="14.00" fill="#000000">human mind , it is</text>
<text text-anchor="middle" x="389.26" y="-90.3" font-family="Times,serif" font-size="14.00" fill="#000000">predicable of</text>
<text text-anchor="middle" x="389.26" y="-75.3" font-family="Times,serif" font-size="14.00" fill="#000000">grammar .</text>
</g>
<!-- poss_new131 -->
<g id="node8" class="node">
<title>poss_new131</title>
<ellipse fill="none" stroke="#000000" cx="881.05" cy="-109" rx="86.5" ry="101.2327"/>
<text text-anchor="middle" x="881.05" y="-165.3" font-family="Times,serif" font-size="14.00" fill="#000000">There is , lastly ,</text>
<text text-anchor="middle" x="881.05" y="-150.3" font-family="Times,serif" font-size="14.00" fill="#000000">a class of things</text>
<text text-anchor="middle" x="881.05" y="-135.3" font-family="Times,serif" font-size="14.00" fill="#000000">which are neither</text>
<text text-anchor="middle" x="881.05" y="-120.3" font-family="Times,serif" font-size="14.00" fill="#000000">present in a subject</text>
<text text-anchor="middle" x="881.05" y="-105.3" font-family="Times,serif" font-size="14.00" fill="#000000">nor predicable of a</text>
<text text-anchor="middle" x="881.05" y="-90.3" font-family="Times,serif" font-size="14.00" fill="#000000">subject , such as</text>
<text text-anchor="middle" x="881.05" y="-75.3" font-family="Times,serif" font-size="14.00" fill="#000000">the individual man</text>
<text text-anchor="middle" x="881.05" y="-60.3" font-family="Times,serif" font-size="14.00" fill="#000000">or the individual</text>
<text text-anchor="middle" x="881.05" y="-45.3" font-family="Times,serif" font-size="14.00" fill="#000000">horse .</text>
</g>
<!-- poss_new115&#45;&gt;poss_new131 -->
<g id="edge5" class="edge">
<title>poss_new115&#45;&gt;poss_new131</title>
<path fill="none" stroke="#000000" d="M488.59,-109C526.16,-109 560.02,-109 560.02,-109 560.02,-109 689.88,-109 784.41,-109"/>
<polygon fill="#000000" stroke="#000000" points="784.6,-112.5001 794.6,-109 784.6,-105.5001 784.6,-112.5001"/>
<text text-anchor="middle" x="611.52" y="-112.8" font-family="Times,serif" font-size="14.00" fill="#000000">possibly correlated</text>
</g>
<!-- contra102 -->
<g id="node9" class="node">
<title>contra102</title>
<ellipse fill="none" stroke="#000000" cx="100.63" cy="-539" rx="92.6469" ry="37.5"/>
<text text-anchor="middle" x="100.63" y="-550.3" font-family="Times,serif" font-size="14.00" fill="#000000">while knowledge is</text>
<text text-anchor="middle" x="100.63" y="-535.3" font-family="Times,serif" font-size="14.00" fill="#000000">present in the human</text>
<text text-anchor="middle" x="100.63" y="-520.3" font-family="Times,serif" font-size="14.00" fill="#000000">mind</text>
</g>
<!-- contra102&#45;&gt;poss_new105 -->
<g id="edge7" class="edge">
<title>contra102&#45;&gt;poss_new105</title>
<path fill="none" stroke="#000000" d="M151.24,-507.44C203.46,-474.87 284.53,-424.31 337.26,-391.43"/>
<polygon fill="#000000" stroke="#000000" points="339.1572,-394.3717 345.79,-386.11 335.4528,-388.4322 339.1572,-394.3717"/>
<text text-anchor="middle" x="241.76" y="-459.8" font-family="Times,serif" font-size="14.00" fill="#000000">*correlated</text>
</g>
<!-- contra119 -->
<g id="node10" class="node">
<title>contra119</title>
<ellipse fill="none" stroke="#000000" cx="611.52" cy="-545" rx="86.5" ry="48.1667"/>
<text text-anchor="middle" x="611.52" y="-563.8" font-family="Times,serif" font-size="14.00" fill="#000000">which are neither</text>
<text text-anchor="middle" x="611.52" y="-548.8" font-family="Times,serif" font-size="14.00" fill="#000000">present in a subject</text>
<text text-anchor="middle" x="611.52" y="-533.8" font-family="Times,serif" font-size="14.00" fill="#000000">such as the</text>
<text text-anchor="middle" x="611.52" y="-518.8" font-family="Times,serif" font-size="14.00" fill="#000000">individual man</text>
</g>
<!-- contra102&#45;&gt;contra119 -->
<g id="edge6" class="edge">
<title>contra102&#45;&gt;contra119</title>
<path fill="none" stroke="#000000" d="M193.27,-540.1C265.36,-540.96 353.26,-542 353.26,-542 353.26,-542 441.58,-543.03 514.92,-543.88"/>
<polygon fill="#000000" stroke="#000000" points="515.1196,-547.3825 525.16,-544 515.2017,-540.383 515.1196,-547.3825"/>
<text text-anchor="middle" x="389.26" y="-545.8" font-family="Times,serif" font-size="14.00" fill="#000000">contradicting</text>
</g>
<!-- contra119&#45;&gt;poss_new116 -->
<g id="edge8" class="edge">
<title>contra119&#45;&gt;poss_new116</title>
<path fill="none" stroke="#000000" d="M667.69,-508.32C717.7,-475.67 789.89,-428.53 836.15,-398.32"/>
<polygon fill="#000000" stroke="#000000" points="838.2936,-401.1003 844.75,-392.7 834.4643,-395.2406 838.2936,-401.1003"/>
<text text-anchor="middle" x="746.29" y="-478.8" font-family="Times,serif" font-size="14.00" fill="#000000">*correlated</text>
</g>
</g>
</svg>
