<?xml version="1.0" encoding="utf-8" standalone="no"?>
<!DOCTYPE svg PUBLIC "-//W3C//DTD SVG 1.1//EN"
  "http://www.w3.org/Graphics/SVG/1.1/DTD/svg11.dtd">
<!-- Created with matplotlib (http://matplotlib.org/) -->
<svg height="720pt" version="1.1" viewBox="0 0 1080 720" width="1080pt" xmlns="http://www.w3.org/2000/svg" xmlns:xlink="http://www.w3.org/1999/xlink">
 <defs>
  <style type="text/css">
*{stroke-linecap:butt;stroke-linejoin:round;}
  </style>
 </defs>
 <g id="figure_1">
  <g id="patch_1">
   <path d="M 0 720 
L 1080 720 
L 1080 0 
L 0 0 
z
" style="fill:#ffffff;"/>
  </g>
  <g id="axes_1">
   <g id="patch_2">
    <path clip-path="url(#p1c623528b3)" d="M 553.5 134.509091 
Q 382.649418 247.674638 214.595156 358.987998 
" style="fill:none;stroke:#000000;stroke-linecap:round;stroke-width:3;"/>
    <path clip-path="url(#p1c623528b3)" d="M 219.92224 358.338249 
L 214.595156 358.987998 
L 217.271607 354.336481 
L 219.92224 358.338249 
z
" style="stroke:#000000;stroke-linecap:round;stroke-width:3;"/>
   </g>
   <g id="patch_3">
    <path clip-path="url(#p1c623528b3)" d="M 553.5 134.509091 
Q 724.350582 247.674638 892.404844 358.987998 
" style="fill:none;stroke:#000000;stroke-linecap:round;stroke-width:3;"/>
    <path clip-path="url(#p1c623528b3)" d="M 889.728393 354.336481 
L 892.404844 358.987998 
L 887.07776 358.338249 
L 889.728393 354.336481 
z
" style="stroke:#000000;stroke-linecap:round;stroke-width:3;"/>
   </g>
   <g id="patch_4">
    <path clip-path="url(#p1c623528b3)" d="M 207.632231 363.6 
Q 207.632231 475.644317 207.632231 584.334532 
" style="fill:none;stroke:#000000;stroke-linecap:round;stroke-width:3;"/>
    <path clip-path="url(#p1c623528b3)" d="M 210.032231 579.534532 
L 207.632231 584.334532 
L 205.232231 579.534532 
L 210.032231 579.534532 
z
" style="stroke:#000000;stroke-linecap:round;stroke-width:3;"/>
   </g>
   <g id="PathCollection_1">
    <defs>
     <path d="M 0 5 
C 1.326016 5 2.597899 4.473168 3.535534 3.535534 
C 4.473168 2.597899 5 1.326016 5 0 
C 5 -1.326016 4.473168 -2.597899 3.535534 -3.535534 
C 2.597899 -4.473168 1.326016 -5 0 -5 
C -1.326016 -5 -2.597899 -4.473168 -3.535534 -3.535534 
C -4.473168 -2.597899 -5 -1.326016 -5 0 
C -5 1.326016 -4.473168 2.597899 -3.535534 3.535534 
C -2.597899 4.473168 -1.326016 5 0 5 
z
" id="m6858d7b064" style="stroke:#0000ff;"/>
    </defs>
    <g clip-path="url(#p1c623528b3)">
     <use style="fill:#0000ff;stroke:#0000ff;" x="553.5" xlink:href="#m6858d7b064" y="134.509091"/>
     <use style="fill:#0000ff;stroke:#0000ff;" x="207.632231" xlink:href="#m6858d7b064" y="363.6"/>
     <use style="fill:#0000ff;stroke:#0000ff;" x="207.632231" xlink:href="#m6858d7b064" y="592.690909"/>
     <use style="fill:#0000ff;stroke:#0000ff;" x="899.367769" xlink:href="#m6858d7b064" y="363.6"/>
    </g>
   </g>
   <g id="text_1">
    <g clip-path="url(#p1c623528b3)">
     <!-- 43  Thus , the grammarian -->
     <defs>
      <path d="M 37.796875 64.3125 
L 12.890625 25.390625 
L 37.796875 25.390625 
z
M 35.203125 72.90625 
L 47.609375 72.90625 
L 47.609375 25.390625 
L 58.015625 25.390625 
L 58.015625 17.1875 
L 47.609375 17.1875 
L 47.609375 0 
L 37.796875 0 
L 37.796875 17.1875 
L 4.890625 17.1875 
L 4.890625 26.703125 
z
" id="DejaVuSans-34"/>
      <path d="M 40.578125 39.3125 
Q 47.65625 37.796875 51.625 33 
Q 55.609375 28.21875 55.609375 21.1875 
Q 55.609375 10.40625 48.1875 4.484375 
Q 40.765625 -1.421875 27.09375 -1.421875 
Q 22.515625 -1.421875 17.65625 -0.515625 
Q 12.796875 0.390625 7.625 2.203125 
L 7.625 11.71875 
Q 11.71875 9.328125 16.59375 8.109375 
Q 21.484375 6.890625 26.8125 6.890625 
Q 36.078125 6.890625 40.9375 10.546875 
Q 45.796875 14.203125 45.796875 21.1875 
Q 45.796875 27.640625 41.28125 31.265625 
Q 36.765625 34.90625 28.71875 34.90625 
L 20.21875 34.90625 
L 20.21875 43.015625 
L 29.109375 43.015625 
Q 36.375 43.015625 40.234375 45.921875 
Q 44.09375 48.828125 44.09375 54.296875 
Q 44.09375 59.90625 40.109375 62.90625 
Q 36.140625 65.921875 28.71875 65.921875 
Q 24.65625 65.921875 20.015625 65.03125 
Q 15.375 64.15625 9.8125 62.3125 
L 9.8125 71.09375 
Q 15.4375 72.65625 20.34375 73.4375 
Q 25.25 74.21875 29.59375 74.21875 
Q 40.828125 74.21875 47.359375 69.109375 
Q 53.90625 64.015625 53.90625 55.328125 
Q 53.90625 49.265625 50.4375 45.09375 
Q 46.96875 40.921875 40.578125 39.3125 
z
" id="DejaVuSans-33"/>
      <path id="DejaVuSans-20"/>
      <path d="M -0.296875 72.90625 
L 61.375 72.90625 
L 61.375 64.59375 
L 35.5 64.59375 
L 35.5 0 
L 25.59375 0 
L 25.59375 64.59375 
L -0.296875 64.59375 
z
" id="DejaVuSans-54"/>
      <path d="M 54.890625 33.015625 
L 54.890625 0 
L 45.90625 0 
L 45.90625 32.71875 
Q 45.90625 40.484375 42.875 44.328125 
Q 39.84375 48.1875 33.796875 48.1875 
Q 26.515625 48.1875 22.3125 43.546875 
Q 18.109375 38.921875 18.109375 30.90625 
L 18.109375 0 
L 9.078125 0 
L 9.078125 75.984375 
L 18.109375 75.984375 
L 18.109375 46.1875 
Q 21.34375 51.125 25.703125 53.5625 
Q 30.078125 56 35.796875 56 
Q 45.21875 56 50.046875 50.171875 
Q 54.890625 44.34375 54.890625 33.015625 
z
" id="DejaVuSans-68"/>
      <path d="M 8.5 21.578125 
L 8.5 54.6875 
L 17.484375 54.6875 
L 17.484375 21.921875 
Q 17.484375 14.15625 20.5 10.265625 
Q 23.53125 6.390625 29.59375 6.390625 
Q 36.859375 6.390625 41.078125 11.03125 
Q 45.3125 15.671875 45.3125 23.6875 
L 45.3125 54.6875 
L 54.296875 54.6875 
L 54.296875 0 
L 45.3125 0 
L 45.3125 8.40625 
Q 42.046875 3.421875 37.71875 1 
Q 33.40625 -1.421875 27.6875 -1.421875 
Q 18.265625 -1.421875 13.375 4.4375 
Q 8.5 10.296875 8.5 21.578125 
z
M 31.109375 56 
z
" id="DejaVuSans-75"/>
      <path d="M 44.28125 53.078125 
L 44.28125 44.578125 
Q 40.484375 46.53125 36.375 47.5 
Q 32.28125 48.484375 27.875 48.484375 
Q 21.1875 48.484375 17.84375 46.4375 
Q 14.5 44.390625 14.5 40.28125 
Q 14.5 37.15625 16.890625 35.375 
Q 19.28125 33.59375 26.515625 31.984375 
L 29.59375 31.296875 
Q 39.15625 29.25 43.1875 25.515625 
Q 47.21875 21.78125 47.21875 15.09375 
Q 47.21875 7.46875 41.1875 3.015625 
Q 35.15625 -1.421875 24.609375 -1.421875 
Q 20.21875 -1.421875 15.453125 -0.5625 
Q 10.6875 0.296875 5.421875 2 
L 5.421875 11.28125 
Q 10.40625 8.6875 15.234375 7.390625 
Q 20.0625 6.109375 24.8125 6.109375 
Q 31.15625 6.109375 34.5625 8.28125 
Q 37.984375 10.453125 37.984375 14.40625 
Q 37.984375 18.0625 35.515625 20.015625 
Q 33.0625 21.96875 24.703125 23.78125 
L 21.578125 24.515625 
Q 13.234375 26.265625 9.515625 29.90625 
Q 5.8125 33.546875 5.8125 39.890625 
Q 5.8125 47.609375 11.28125 51.796875 
Q 16.75 56 26.8125 56 
Q 31.78125 56 36.171875 55.265625 
Q 40.578125 54.546875 44.28125 53.078125 
z
" id="DejaVuSans-73"/>
      <path d="M 11.71875 12.40625 
L 22.015625 12.40625 
L 22.015625 4 
L 14.015625 -11.625 
L 7.71875 -11.625 
L 11.71875 4 
z
" id="DejaVuSans-2c"/>
      <path d="M 18.3125 70.21875 
L 18.3125 54.6875 
L 36.8125 54.6875 
L 36.8125 47.703125 
L 18.3125 47.703125 
L 18.3125 18.015625 
Q 18.3125 11.328125 20.140625 9.421875 
Q 21.96875 7.515625 27.59375 7.515625 
L 36.8125 7.515625 
L 36.8125 0 
L 27.59375 0 
Q 17.1875 0 13.234375 3.875 
Q 9.28125 7.765625 9.28125 18.015625 
L 9.28125 47.703125 
L 2.6875 47.703125 
L 2.6875 54.6875 
L 9.28125 54.6875 
L 9.28125 70.21875 
z
" id="DejaVuSans-74"/>
      <path d="M 56.203125 29.59375 
L 56.203125 25.203125 
L 14.890625 25.203125 
Q 15.484375 15.921875 20.484375 11.0625 
Q 25.484375 6.203125 34.421875 6.203125 
Q 39.59375 6.203125 44.453125 7.46875 
Q 49.3125 8.734375 54.109375 11.28125 
L 54.109375 2.78125 
Q 49.265625 0.734375 44.1875 -0.34375 
Q 39.109375 -1.421875 33.890625 -1.421875 
Q 20.796875 -1.421875 13.15625 6.1875 
Q 5.515625 13.8125 5.515625 26.8125 
Q 5.515625 40.234375 12.765625 48.109375 
Q 20.015625 56 32.328125 56 
Q 43.359375 56 49.78125 48.890625 
Q 56.203125 41.796875 56.203125 29.59375 
z
M 47.21875 32.234375 
Q 47.125 39.59375 43.09375 43.984375 
Q 39.0625 48.390625 32.421875 48.390625 
Q 24.90625 48.390625 20.390625 44.140625 
Q 15.875 39.890625 15.1875 32.171875 
z
" id="DejaVuSans-65"/>
      <path d="M 45.40625 27.984375 
Q 45.40625 37.75 41.375 43.109375 
Q 37.359375 48.484375 30.078125 48.484375 
Q 22.859375 48.484375 18.828125 43.109375 
Q 14.796875 37.75 14.796875 27.984375 
Q 14.796875 18.265625 18.828125 12.890625 
Q 22.859375 7.515625 30.078125 7.515625 
Q 37.359375 7.515625 41.375 12.890625 
Q 45.40625 18.265625 45.40625 27.984375 
z
M 54.390625 6.78125 
Q 54.390625 -7.171875 48.1875 -13.984375 
Q 42 -20.796875 29.203125 -20.796875 
Q 24.46875 -20.796875 20.265625 -20.09375 
Q 16.0625 -19.390625 12.109375 -17.921875 
L 12.109375 -9.1875 
Q 16.0625 -11.328125 19.921875 -12.34375 
Q 23.78125 -13.375 27.78125 -13.375 
Q 36.625 -13.375 41.015625 -8.765625 
Q 45.40625 -4.15625 45.40625 5.171875 
L 45.40625 9.625 
Q 42.625 4.78125 38.28125 2.390625 
Q 33.9375 0 27.875 0 
Q 17.828125 0 11.671875 7.65625 
Q 5.515625 15.328125 5.515625 27.984375 
Q 5.515625 40.671875 11.671875 48.328125 
Q 17.828125 56 27.875 56 
Q 33.9375 56 38.28125 53.609375 
Q 42.625 51.21875 45.40625 46.390625 
L 45.40625 54.6875 
L 54.390625 54.6875 
z
" id="DejaVuSans-67"/>
      <path d="M 41.109375 46.296875 
Q 39.59375 47.171875 37.8125 47.578125 
Q 36.03125 48 33.890625 48 
Q 26.265625 48 22.1875 43.046875 
Q 18.109375 38.09375 18.109375 28.8125 
L 18.109375 0 
L 9.078125 0 
L 9.078125 54.6875 
L 18.109375 54.6875 
L 18.109375 46.1875 
Q 20.953125 51.171875 25.484375 53.578125 
Q 30.03125 56 36.53125 56 
Q 37.453125 56 38.578125 55.875 
Q 39.703125 55.765625 41.0625 55.515625 
z
" id="DejaVuSans-72"/>
      <path d="M 34.28125 27.484375 
Q 23.390625 27.484375 19.1875 25 
Q 14.984375 22.515625 14.984375 16.5 
Q 14.984375 11.71875 18.140625 8.90625 
Q 21.296875 6.109375 26.703125 6.109375 
Q 34.1875 6.109375 38.703125 11.40625 
Q 43.21875 16.703125 43.21875 25.484375 
L 43.21875 27.484375 
z
M 52.203125 31.203125 
L 52.203125 0 
L 43.21875 0 
L 43.21875 8.296875 
Q 40.140625 3.328125 35.546875 0.953125 
Q 30.953125 -1.421875 24.3125 -1.421875 
Q 15.921875 -1.421875 10.953125 3.296875 
Q 6 8.015625 6 15.921875 
Q 6 25.140625 12.171875 29.828125 
Q 18.359375 34.515625 30.609375 34.515625 
L 43.21875 34.515625 
L 43.21875 35.40625 
Q 43.21875 41.609375 39.140625 45 
Q 35.0625 48.390625 27.6875 48.390625 
Q 23 48.390625 18.546875 47.265625 
Q 14.109375 46.140625 10.015625 43.890625 
L 10.015625 52.203125 
Q 14.9375 54.109375 19.578125 55.046875 
Q 24.21875 56 28.609375 56 
Q 40.484375 56 46.34375 49.84375 
Q 52.203125 43.703125 52.203125 31.203125 
z
" id="DejaVuSans-61"/>
      <path d="M 52 44.1875 
Q 55.375 50.25 60.0625 53.125 
Q 64.75 56 71.09375 56 
Q 79.640625 56 84.28125 50.015625 
Q 88.921875 44.046875 88.921875 33.015625 
L 88.921875 0 
L 79.890625 0 
L 79.890625 32.71875 
Q 79.890625 40.578125 77.09375 44.375 
Q 74.3125 48.1875 68.609375 48.1875 
Q 61.625 48.1875 57.5625 43.546875 
Q 53.515625 38.921875 53.515625 30.90625 
L 53.515625 0 
L 44.484375 0 
L 44.484375 32.71875 
Q 44.484375 40.625 41.703125 44.40625 
Q 38.921875 48.1875 33.109375 48.1875 
Q 26.21875 48.1875 22.15625 43.53125 
Q 18.109375 38.875 18.109375 30.90625 
L 18.109375 0 
L 9.078125 0 
L 9.078125 54.6875 
L 18.109375 54.6875 
L 18.109375 46.1875 
Q 21.1875 51.21875 25.484375 53.609375 
Q 29.78125 56 35.6875 56 
Q 41.65625 56 45.828125 52.96875 
Q 50 49.953125 52 44.1875 
z
" id="DejaVuSans-6d"/>
      <path d="M 9.421875 54.6875 
L 18.40625 54.6875 
L 18.40625 0 
L 9.421875 0 
z
M 9.421875 75.984375 
L 18.40625 75.984375 
L 18.40625 64.59375 
L 9.421875 64.59375 
z
" id="DejaVuSans-69"/>
      <path d="M 54.890625 33.015625 
L 54.890625 0 
L 45.90625 0 
L 45.90625 32.71875 
Q 45.90625 40.484375 42.875 44.328125 
Q 39.84375 48.1875 33.796875 48.1875 
Q 26.515625 48.1875 22.3125 43.546875 
Q 18.109375 38.921875 18.109375 30.90625 
L 18.109375 0 
L 9.078125 0 
L 9.078125 54.6875 
L 18.109375 54.6875 
L 18.109375 46.1875 
Q 21.34375 51.125 25.703125 53.5625 
Q 30.078125 56 35.796875 56 
Q 45.21875 56 50.046875 50.171875 
Q 54.890625 44.34375 54.890625 33.015625 
z
" id="DejaVuSans-6e"/>
     </defs>
     <g transform="translate(486.625781 120.471747)scale(0.1 -0.1)">
      <use xlink:href="#DejaVuSans-34"/>
      <use x="63.623047" xlink:href="#DejaVuSans-33"/>
      <use x="127.246094" xlink:href="#DejaVuSans-20"/>
      <use x="159.033203" xlink:href="#DejaVuSans-20"/>
      <use x="190.820312" xlink:href="#DejaVuSans-54"/>
      <use x="251.904297" xlink:href="#DejaVuSans-68"/>
      <use x="315.283203" xlink:href="#DejaVuSans-75"/>
      <use x="378.662109" xlink:href="#DejaVuSans-73"/>
      <use x="430.761719" xlink:href="#DejaVuSans-20"/>
      <use x="462.548828" xlink:href="#DejaVuSans-2c"/>
      <use x="494.335938" xlink:href="#DejaVuSans-20"/>
      <use x="526.123047" xlink:href="#DejaVuSans-74"/>
      <use x="565.332031" xlink:href="#DejaVuSans-68"/>
      <use x="628.710938" xlink:href="#DejaVuSans-65"/>
      <use x="690.234375" xlink:href="#DejaVuSans-20"/>
      <use x="722.021484" xlink:href="#DejaVuSans-67"/>
      <use x="785.498047" xlink:href="#DejaVuSans-72"/>
      <use x="826.611328" xlink:href="#DejaVuSans-61"/>
      <use x="887.890625" xlink:href="#DejaVuSans-6d"/>
      <use x="985.302734" xlink:href="#DejaVuSans-6d"/>
      <use x="1082.714844" xlink:href="#DejaVuSans-61"/>
      <use x="1143.994141" xlink:href="#DejaVuSans-72"/>
      <use x="1185.107422" xlink:href="#DejaVuSans-69"/>
      <use x="1212.890625" xlink:href="#DejaVuSans-61"/>
      <use x="1274.169922" xlink:href="#DejaVuSans-6e"/>
     </g>
    </g>
    <g clip-path="url(#p1c623528b3)">
     <!-- derives his name from the word -->
     <defs>
      <path d="M 45.40625 46.390625 
L 45.40625 75.984375 
L 54.390625 75.984375 
L 54.390625 0 
L 45.40625 0 
L 45.40625 8.203125 
Q 42.578125 3.328125 38.25 0.953125 
Q 33.9375 -1.421875 27.875 -1.421875 
Q 17.96875 -1.421875 11.734375 6.484375 
Q 5.515625 14.40625 5.515625 27.296875 
Q 5.515625 40.1875 11.734375 48.09375 
Q 17.96875 56 27.875 56 
Q 33.9375 56 38.25 53.625 
Q 42.578125 51.265625 45.40625 46.390625 
z
M 14.796875 27.296875 
Q 14.796875 17.390625 18.875 11.75 
Q 22.953125 6.109375 30.078125 6.109375 
Q 37.203125 6.109375 41.296875 11.75 
Q 45.40625 17.390625 45.40625 27.296875 
Q 45.40625 37.203125 41.296875 42.84375 
Q 37.203125 48.484375 30.078125 48.484375 
Q 22.953125 48.484375 18.875 42.84375 
Q 14.796875 37.203125 14.796875 27.296875 
z
" id="DejaVuSans-64"/>
      <path d="M 2.984375 54.6875 
L 12.5 54.6875 
L 29.59375 8.796875 
L 46.6875 54.6875 
L 56.203125 54.6875 
L 35.6875 0 
L 23.484375 0 
z
" id="DejaVuSans-76"/>
      <path d="M 37.109375 75.984375 
L 37.109375 68.5 
L 28.515625 68.5 
Q 23.6875 68.5 21.796875 66.546875 
Q 19.921875 64.59375 19.921875 59.515625 
L 19.921875 54.6875 
L 34.71875 54.6875 
L 34.71875 47.703125 
L 19.921875 47.703125 
L 19.921875 0 
L 10.890625 0 
L 10.890625 47.703125 
L 2.296875 47.703125 
L 2.296875 54.6875 
L 10.890625 54.6875 
L 10.890625 58.5 
Q 10.890625 67.625 15.140625 71.796875 
Q 19.390625 75.984375 28.609375 75.984375 
z
" id="DejaVuSans-66"/>
      <path d="M 30.609375 48.390625 
Q 23.390625 48.390625 19.1875 42.75 
Q 14.984375 37.109375 14.984375 27.296875 
Q 14.984375 17.484375 19.15625 11.84375 
Q 23.34375 6.203125 30.609375 6.203125 
Q 37.796875 6.203125 41.984375 11.859375 
Q 46.1875 17.53125 46.1875 27.296875 
Q 46.1875 37.015625 41.984375 42.703125 
Q 37.796875 48.390625 30.609375 48.390625 
z
M 30.609375 56 
Q 42.328125 56 49.015625 48.375 
Q 55.71875 40.765625 55.71875 27.296875 
Q 55.71875 13.875 49.015625 6.21875 
Q 42.328125 -1.421875 30.609375 -1.421875 
Q 18.84375 -1.421875 12.171875 6.21875 
Q 5.515625 13.875 5.515625 27.296875 
Q 5.515625 40.765625 12.171875 48.375 
Q 18.84375 56 30.609375 56 
z
" id="DejaVuSans-6f"/>
      <path d="M 4.203125 54.6875 
L 13.1875 54.6875 
L 24.421875 12.015625 
L 35.59375 54.6875 
L 46.1875 54.6875 
L 57.421875 12.015625 
L 68.609375 54.6875 
L 77.59375 54.6875 
L 63.28125 0 
L 52.6875 0 
L 40.921875 44.828125 
L 29.109375 0 
L 18.5 0 
z
" id="DejaVuSans-77"/>
     </defs>
     <g transform="translate(473.55 131.66956)scale(0.1 -0.1)">
      <use xlink:href="#DejaVuSans-64"/>
      <use x="63.476562" xlink:href="#DejaVuSans-65"/>
      <use x="125" xlink:href="#DejaVuSans-72"/>
      <use x="166.113281" xlink:href="#DejaVuSans-69"/>
      <use x="193.896484" xlink:href="#DejaVuSans-76"/>
      <use x="253.076172" xlink:href="#DejaVuSans-65"/>
      <use x="314.599609" xlink:href="#DejaVuSans-73"/>
      <use x="366.699219" xlink:href="#DejaVuSans-20"/>
      <use x="398.486328" xlink:href="#DejaVuSans-68"/>
      <use x="461.865234" xlink:href="#DejaVuSans-69"/>
      <use x="489.648438" xlink:href="#DejaVuSans-73"/>
      <use x="541.748047" xlink:href="#DejaVuSans-20"/>
      <use x="573.535156" xlink:href="#DejaVuSans-6e"/>
      <use x="636.914062" xlink:href="#DejaVuSans-61"/>
      <use x="698.193359" xlink:href="#DejaVuSans-6d"/>
      <use x="795.605469" xlink:href="#DejaVuSans-65"/>
      <use x="857.128906" xlink:href="#DejaVuSans-20"/>
      <use x="888.916016" xlink:href="#DejaVuSans-66"/>
      <use x="924.121094" xlink:href="#DejaVuSans-72"/>
      <use x="965.203125" xlink:href="#DejaVuSans-6f"/>
      <use x="1026.384766" xlink:href="#DejaVuSans-6d"/>
      <use x="1123.796875" xlink:href="#DejaVuSans-20"/>
      <use x="1155.583984" xlink:href="#DejaVuSans-74"/>
      <use x="1194.792969" xlink:href="#DejaVuSans-68"/>
      <use x="1258.171875" xlink:href="#DejaVuSans-65"/>
      <use x="1319.695312" xlink:href="#DejaVuSans-20"/>
      <use x="1351.482422" xlink:href="#DejaVuSans-77"/>
      <use x="1433.269531" xlink:href="#DejaVuSans-6f"/>
      <use x="1494.451172" xlink:href="#DejaVuSans-72"/>
      <use x="1535.548828" xlink:href="#DejaVuSans-64"/>
     </g>
    </g>
    <g clip-path="url(#p1c623528b3)">
     <!-- Grammar , and the courageous -->
     <defs>
      <path d="M 59.515625 10.40625 
L 59.515625 29.984375 
L 43.40625 29.984375 
L 43.40625 38.09375 
L 69.28125 38.09375 
L 69.28125 6.78125 
Q 63.578125 2.734375 56.6875 0.65625 
Q 49.8125 -1.421875 42 -1.421875 
Q 24.90625 -1.421875 15.25 8.5625 
Q 5.609375 18.5625 5.609375 36.375 
Q 5.609375 54.25 15.25 64.234375 
Q 24.90625 74.21875 42 74.21875 
Q 49.125 74.21875 55.546875 72.453125 
Q 61.96875 70.703125 67.390625 67.28125 
L 67.390625 56.78125 
Q 61.921875 61.421875 55.765625 63.765625 
Q 49.609375 66.109375 42.828125 66.109375 
Q 29.4375 66.109375 22.71875 58.640625 
Q 16.015625 51.171875 16.015625 36.375 
Q 16.015625 21.625 22.71875 14.15625 
Q 29.4375 6.6875 42.828125 6.6875 
Q 48.046875 6.6875 52.140625 7.59375 
Q 56.25 8.5 59.515625 10.40625 
z
" id="DejaVuSans-47"/>
      <path d="M 48.78125 52.59375 
L 48.78125 44.1875 
Q 44.96875 46.296875 41.140625 47.34375 
Q 37.3125 48.390625 33.40625 48.390625 
Q 24.65625 48.390625 19.8125 42.84375 
Q 14.984375 37.3125 14.984375 27.296875 
Q 14.984375 17.28125 19.8125 11.734375 
Q 24.65625 6.203125 33.40625 6.203125 
Q 37.3125 6.203125 41.140625 7.25 
Q 44.96875 8.296875 48.78125 10.40625 
L 48.78125 2.09375 
Q 45.015625 0.34375 40.984375 -0.53125 
Q 36.96875 -1.421875 32.421875 -1.421875 
Q 20.0625 -1.421875 12.78125 6.34375 
Q 5.515625 14.109375 5.515625 27.296875 
Q 5.515625 40.671875 12.859375 48.328125 
Q 20.21875 56 33.015625 56 
Q 37.15625 56 41.109375 55.140625 
Q 45.0625 54.296875 48.78125 52.59375 
z
" id="DejaVuSans-63"/>
     </defs>
     <g transform="translate(474.907813 142.867372)scale(0.1 -0.1)">
      <use xlink:href="#DejaVuSans-47"/>
      <use x="77.490234" xlink:href="#DejaVuSans-72"/>
      <use x="118.603516" xlink:href="#DejaVuSans-61"/>
      <use x="179.882812" xlink:href="#DejaVuSans-6d"/>
      <use x="277.294922" xlink:href="#DejaVuSans-6d"/>
      <use x="374.707031" xlink:href="#DejaVuSans-61"/>
      <use x="435.986328" xlink:href="#DejaVuSans-72"/>
      <use x="477.099609" xlink:href="#DejaVuSans-20"/>
      <use x="508.886719" xlink:href="#DejaVuSans-2c"/>
      <use x="540.673828" xlink:href="#DejaVuSans-20"/>
      <use x="572.460938" xlink:href="#DejaVuSans-61"/>
      <use x="633.740234" xlink:href="#DejaVuSans-6e"/>
      <use x="697.119141" xlink:href="#DejaVuSans-64"/>
      <use x="760.595703" xlink:href="#DejaVuSans-20"/>
      <use x="792.382812" xlink:href="#DejaVuSans-74"/>
      <use x="831.591797" xlink:href="#DejaVuSans-68"/>
      <use x="894.970703" xlink:href="#DejaVuSans-65"/>
      <use x="956.494141" xlink:href="#DejaVuSans-20"/>
      <use x="988.28125" xlink:href="#DejaVuSans-63"/>
      <use x="1043.261719" xlink:href="#DejaVuSans-6f"/>
      <use x="1104.443359" xlink:href="#DejaVuSans-75"/>
      <use x="1167.822266" xlink:href="#DejaVuSans-72"/>
      <use x="1208.935547" xlink:href="#DejaVuSans-61"/>
      <use x="1270.214844" xlink:href="#DejaVuSans-67"/>
      <use x="1333.691406" xlink:href="#DejaVuSans-65"/>
      <use x="1395.214844" xlink:href="#DejaVuSans-6f"/>
      <use x="1456.396484" xlink:href="#DejaVuSans-75"/>
      <use x="1519.775391" xlink:href="#DejaVuSans-73"/>
     </g>
    </g>
    <g clip-path="url(#p1c623528b3)">
     <!-- man from the word Courage . -->
     <defs>
      <path d="M 64.40625 67.28125 
L 64.40625 56.890625 
Q 59.421875 61.53125 53.78125 63.8125 
Q 48.140625 66.109375 41.796875 66.109375 
Q 29.296875 66.109375 22.65625 58.46875 
Q 16.015625 50.828125 16.015625 36.375 
Q 16.015625 21.96875 22.65625 14.328125 
Q 29.296875 6.6875 41.796875 6.6875 
Q 48.140625 6.6875 53.78125 8.984375 
Q 59.421875 11.28125 64.40625 15.921875 
L 64.40625 5.609375 
Q 59.234375 2.09375 53.4375 0.328125 
Q 47.65625 -1.421875 41.21875 -1.421875 
Q 24.65625 -1.421875 15.125 8.703125 
Q 5.609375 18.84375 5.609375 36.375 
Q 5.609375 53.953125 15.125 64.078125 
Q 24.65625 74.21875 41.21875 74.21875 
Q 47.75 74.21875 53.53125 72.484375 
Q 59.328125 70.75 64.40625 67.28125 
z
" id="DejaVuSans-43"/>
      <path d="M 10.6875 12.40625 
L 21 12.40625 
L 21 0 
L 10.6875 0 
z
" id="DejaVuSans-2e"/>
     </defs>
     <g transform="translate(479.446094 154.065185)scale(0.1 -0.1)">
      <use xlink:href="#DejaVuSans-6d"/>
      <use x="97.412109" xlink:href="#DejaVuSans-61"/>
      <use x="158.691406" xlink:href="#DejaVuSans-6e"/>
      <use x="222.070312" xlink:href="#DejaVuSans-20"/>
      <use x="253.857422" xlink:href="#DejaVuSans-66"/>
      <use x="289.0625" xlink:href="#DejaVuSans-72"/>
      <use x="330.144531" xlink:href="#DejaVuSans-6f"/>
      <use x="391.326172" xlink:href="#DejaVuSans-6d"/>
      <use x="488.738281" xlink:href="#DejaVuSans-20"/>
      <use x="520.525391" xlink:href="#DejaVuSans-74"/>
      <use x="559.734375" xlink:href="#DejaVuSans-68"/>
      <use x="623.113281" xlink:href="#DejaVuSans-65"/>
      <use x="684.636719" xlink:href="#DejaVuSans-20"/>
      <use x="716.423828" xlink:href="#DejaVuSans-77"/>
      <use x="798.210938" xlink:href="#DejaVuSans-6f"/>
      <use x="859.392578" xlink:href="#DejaVuSans-72"/>
      <use x="900.490234" xlink:href="#DejaVuSans-64"/>
      <use x="963.966797" xlink:href="#DejaVuSans-20"/>
      <use x="995.753906" xlink:href="#DejaVuSans-43"/>
      <use x="1065.578125" xlink:href="#DejaVuSans-6f"/>
      <use x="1126.759766" xlink:href="#DejaVuSans-75"/>
      <use x="1190.138672" xlink:href="#DejaVuSans-72"/>
      <use x="1231.251953" xlink:href="#DejaVuSans-61"/>
      <use x="1292.53125" xlink:href="#DejaVuSans-67"/>
      <use x="1356.007812" xlink:href="#DejaVuSans-65"/>
      <use x="1417.53125" xlink:href="#DejaVuSans-20"/>
      <use x="1449.318359" xlink:href="#DejaVuSans-2e"/>
     </g>
    </g>
   </g>
   <g id="text_2">
    <g clip-path="url(#p1c623528b3)">
     <!-- 42  Thus the grammarian -->
     <defs>
      <path d="M 19.1875 8.296875 
L 53.609375 8.296875 
L 53.609375 0 
L 7.328125 0 
L 7.328125 8.296875 
Q 12.9375 14.109375 22.625 23.890625 
Q 32.328125 33.6875 34.8125 36.53125 
Q 39.546875 41.84375 41.421875 45.53125 
Q 43.3125 49.21875 43.3125 52.78125 
Q 43.3125 58.59375 39.234375 62.25 
Q 35.15625 65.921875 28.609375 65.921875 
Q 23.96875 65.921875 18.8125 64.3125 
Q 13.671875 62.703125 7.8125 59.421875 
L 7.8125 69.390625 
Q 13.765625 71.78125 18.9375 73 
Q 24.125 74.21875 28.421875 74.21875 
Q 39.75 74.21875 46.484375 68.546875 
Q 53.21875 62.890625 53.21875 53.421875 
Q 53.21875 48.921875 51.53125 44.890625 
Q 49.859375 40.875 45.40625 35.40625 
Q 44.1875 33.984375 37.640625 27.21875 
Q 31.109375 20.453125 19.1875 8.296875 
z
" id="DejaVuSans-32"/>
     </defs>
     <g transform="translate(143.936138 355.161562)scale(0.1 -0.1)">
      <use xlink:href="#DejaVuSans-34"/>
      <use x="63.623047" xlink:href="#DejaVuSans-32"/>
      <use x="127.246094" xlink:href="#DejaVuSans-20"/>
      <use x="159.033203" xlink:href="#DejaVuSans-20"/>
      <use x="190.820312" xlink:href="#DejaVuSans-54"/>
      <use x="251.904297" xlink:href="#DejaVuSans-68"/>
      <use x="315.283203" xlink:href="#DejaVuSans-75"/>
      <use x="378.662109" xlink:href="#DejaVuSans-73"/>
      <use x="430.761719" xlink:href="#DejaVuSans-20"/>
      <use x="462.548828" xlink:href="#DejaVuSans-74"/>
      <use x="501.757812" xlink:href="#DejaVuSans-68"/>
      <use x="565.136719" xlink:href="#DejaVuSans-65"/>
      <use x="626.660156" xlink:href="#DejaVuSans-20"/>
      <use x="658.447266" xlink:href="#DejaVuSans-67"/>
      <use x="721.923828" xlink:href="#DejaVuSans-72"/>
      <use x="763.037109" xlink:href="#DejaVuSans-61"/>
      <use x="824.316406" xlink:href="#DejaVuSans-6d"/>
      <use x="921.728516" xlink:href="#DejaVuSans-6d"/>
      <use x="1019.140625" xlink:href="#DejaVuSans-61"/>
      <use x="1080.419922" xlink:href="#DejaVuSans-72"/>
      <use x="1121.533203" xlink:href="#DejaVuSans-69"/>
      <use x="1149.316406" xlink:href="#DejaVuSans-61"/>
      <use x="1210.595703" xlink:href="#DejaVuSans-6e"/>
     </g>
    </g>
    <g clip-path="url(#p1c623528b3)">
     <!-- derives his name from the word -->
     <g transform="translate(127.682231 366.359375)scale(0.1 -0.1)">
      <use xlink:href="#DejaVuSans-64"/>
      <use x="63.476562" xlink:href="#DejaVuSans-65"/>
      <use x="125" xlink:href="#DejaVuSans-72"/>
      <use x="166.113281" xlink:href="#DejaVuSans-69"/>
      <use x="193.896484" xlink:href="#DejaVuSans-76"/>
      <use x="253.076172" xlink:href="#DejaVuSans-65"/>
      <use x="314.599609" xlink:href="#DejaVuSans-73"/>
      <use x="366.699219" xlink:href="#DejaVuSans-20"/>
      <use x="398.486328" xlink:href="#DejaVuSans-68"/>
      <use x="461.865234" xlink:href="#DejaVuSans-69"/>
      <use x="489.648438" xlink:href="#DejaVuSans-73"/>
      <use x="541.748047" xlink:href="#DejaVuSans-20"/>
      <use x="573.535156" xlink:href="#DejaVuSans-6e"/>
      <use x="636.914062" xlink:href="#DejaVuSans-61"/>
      <use x="698.193359" xlink:href="#DejaVuSans-6d"/>
      <use x="795.605469" xlink:href="#DejaVuSans-65"/>
      <use x="857.128906" xlink:href="#DejaVuSans-20"/>
      <use x="888.916016" xlink:href="#DejaVuSans-66"/>
      <use x="924.121094" xlink:href="#DejaVuSans-72"/>
      <use x="965.203125" xlink:href="#DejaVuSans-6f"/>
      <use x="1026.384766" xlink:href="#DejaVuSans-6d"/>
      <use x="1123.796875" xlink:href="#DejaVuSans-20"/>
      <use x="1155.583984" xlink:href="#DejaVuSans-74"/>
      <use x="1194.792969" xlink:href="#DejaVuSans-68"/>
      <use x="1258.171875" xlink:href="#DejaVuSans-65"/>
      <use x="1319.695312" xlink:href="#DejaVuSans-20"/>
      <use x="1351.482422" xlink:href="#DejaVuSans-77"/>
      <use x="1433.269531" xlink:href="#DejaVuSans-6f"/>
      <use x="1494.451172" xlink:href="#DejaVuSans-72"/>
      <use x="1535.548828" xlink:href="#DejaVuSans-64"/>
     </g>
    </g>
    <g clip-path="url(#p1c623528b3)">
     <!-- Grammar -->
     <g transform="translate(183.778325 377.557187)scale(0.1 -0.1)">
      <use xlink:href="#DejaVuSans-47"/>
      <use x="77.490234" xlink:href="#DejaVuSans-72"/>
      <use x="118.603516" xlink:href="#DejaVuSans-61"/>
      <use x="179.882812" xlink:href="#DejaVuSans-6d"/>
      <use x="277.294922" xlink:href="#DejaVuSans-6d"/>
      <use x="374.707031" xlink:href="#DejaVuSans-61"/>
      <use x="435.986328" xlink:href="#DejaVuSans-72"/>
     </g>
    </g>
   </g>
   <g id="text_3">
    <g clip-path="url(#p1c623528b3)">
     <!-- 40  the word Grammar -->
     <defs>
      <path d="M 31.78125 66.40625 
Q 24.171875 66.40625 20.328125 58.90625 
Q 16.5 51.421875 16.5 36.375 
Q 16.5 21.390625 20.328125 13.890625 
Q 24.171875 6.390625 31.78125 6.390625 
Q 39.453125 6.390625 43.28125 13.890625 
Q 47.125 21.390625 47.125 36.375 
Q 47.125 51.421875 43.28125 58.90625 
Q 39.453125 66.40625 31.78125 66.40625 
z
M 31.78125 74.21875 
Q 44.046875 74.21875 50.515625 64.515625 
Q 56.984375 54.828125 56.984375 36.375 
Q 56.984375 17.96875 50.515625 8.265625 
Q 44.046875 -1.421875 31.78125 -1.421875 
Q 19.53125 -1.421875 13.0625 8.265625 
Q 6.59375 17.96875 6.59375 36.375 
Q 6.59375 54.828125 13.0625 64.515625 
Q 19.53125 74.21875 31.78125 74.21875 
z
" id="DejaVuSans-30"/>
     </defs>
     <g transform="translate(150.476763 595.450284)scale(0.1 -0.1)">
      <use xlink:href="#DejaVuSans-34"/>
      <use x="63.623047" xlink:href="#DejaVuSans-30"/>
      <use x="127.246094" xlink:href="#DejaVuSans-20"/>
      <use x="159.033203" xlink:href="#DejaVuSans-20"/>
      <use x="190.820312" xlink:href="#DejaVuSans-74"/>
      <use x="230.029297" xlink:href="#DejaVuSans-68"/>
      <use x="293.408203" xlink:href="#DejaVuSans-65"/>
      <use x="354.931641" xlink:href="#DejaVuSans-20"/>
      <use x="386.71875" xlink:href="#DejaVuSans-77"/>
      <use x="468.505859" xlink:href="#DejaVuSans-6f"/>
      <use x="529.6875" xlink:href="#DejaVuSans-72"/>
      <use x="570.785156" xlink:href="#DejaVuSans-64"/>
      <use x="634.261719" xlink:href="#DejaVuSans-20"/>
      <use x="666.048828" xlink:href="#DejaVuSans-47"/>
      <use x="743.539062" xlink:href="#DejaVuSans-72"/>
      <use x="784.652344" xlink:href="#DejaVuSans-61"/>
      <use x="845.931641" xlink:href="#DejaVuSans-6d"/>
      <use x="943.34375" xlink:href="#DejaVuSans-6d"/>
      <use x="1040.755859" xlink:href="#DejaVuSans-61"/>
      <use x="1102.035156" xlink:href="#DejaVuSans-72"/>
     </g>
    </g>
   </g>
   <g id="text_4">
    <g clip-path="url(#p1c623528b3)">
     <!-- 41  the word Courage -->
     <defs>
      <path d="M 12.40625 8.296875 
L 28.515625 8.296875 
L 28.515625 63.921875 
L 10.984375 60.40625 
L 10.984375 69.390625 
L 28.421875 72.90625 
L 38.28125 72.90625 
L 38.28125 8.296875 
L 54.390625 8.296875 
L 54.390625 0 
L 12.40625 0 
z
" id="DejaVuSans-31"/>
     </defs>
     <g transform="translate(844.976362 366.359375)scale(0.1 -0.1)">
      <use xlink:href="#DejaVuSans-34"/>
      <use x="63.623047" xlink:href="#DejaVuSans-31"/>
      <use x="127.246094" xlink:href="#DejaVuSans-20"/>
      <use x="159.033203" xlink:href="#DejaVuSans-20"/>
      <use x="190.820312" xlink:href="#DejaVuSans-74"/>
      <use x="230.029297" xlink:href="#DejaVuSans-68"/>
      <use x="293.408203" xlink:href="#DejaVuSans-65"/>
      <use x="354.931641" xlink:href="#DejaVuSans-20"/>
      <use x="386.71875" xlink:href="#DejaVuSans-77"/>
      <use x="468.505859" xlink:href="#DejaVuSans-6f"/>
      <use x="529.6875" xlink:href="#DejaVuSans-72"/>
      <use x="570.785156" xlink:href="#DejaVuSans-64"/>
      <use x="634.261719" xlink:href="#DejaVuSans-20"/>
      <use x="666.048828" xlink:href="#DejaVuSans-43"/>
      <use x="735.873047" xlink:href="#DejaVuSans-6f"/>
      <use x="797.054688" xlink:href="#DejaVuSans-75"/>
      <use x="860.433594" xlink:href="#DejaVuSans-72"/>
      <use x="901.546875" xlink:href="#DejaVuSans-61"/>
      <use x="962.826172" xlink:href="#DejaVuSans-67"/>
      <use x="1026.302734" xlink:href="#DejaVuSans-65"/>
     </g>
    </g>
   </g>
   <g id="text_5">
    <!-- Thus , the grammarian derives his name from the word Grammar , and the courageous man from -->
    <g transform="translate(259.405313 12.6505)scale(0.12 -0.12)">
     <use xlink:href="#DejaVuSans-54"/>
     <use x="61.083984" xlink:href="#DejaVuSans-68"/>
     <use x="124.462891" xlink:href="#DejaVuSans-75"/>
     <use x="187.841797" xlink:href="#DejaVuSans-73"/>
     <use x="239.941406" xlink:href="#DejaVuSans-20"/>
     <use x="271.728516" xlink:href="#DejaVuSans-2c"/>
     <use x="303.515625" xlink:href="#DejaVuSans-20"/>
     <use x="335.302734" xlink:href="#DejaVuSans-74"/>
     <use x="374.511719" xlink:href="#DejaVuSans-68"/>
     <use x="437.890625" xlink:href="#DejaVuSans-65"/>
     <use x="499.414062" xlink:href="#DejaVuSans-20"/>
     <use x="531.201172" xlink:href="#DejaVuSans-67"/>
     <use x="594.677734" xlink:href="#DejaVuSans-72"/>
     <use x="635.791016" xlink:href="#DejaVuSans-61"/>
     <use x="697.070312" xlink:href="#DejaVuSans-6d"/>
     <use x="794.482422" xlink:href="#DejaVuSans-6d"/>
     <use x="891.894531" xlink:href="#DejaVuSans-61"/>
     <use x="953.173828" xlink:href="#DejaVuSans-72"/>
     <use x="994.287109" xlink:href="#DejaVuSans-69"/>
     <use x="1022.070312" xlink:href="#DejaVuSans-61"/>
     <use x="1083.349609" xlink:href="#DejaVuSans-6e"/>
     <use x="1146.728516" xlink:href="#DejaVuSans-20"/>
     <use x="1178.515625" xlink:href="#DejaVuSans-64"/>
     <use x="1241.992188" xlink:href="#DejaVuSans-65"/>
     <use x="1303.515625" xlink:href="#DejaVuSans-72"/>
     <use x="1344.628906" xlink:href="#DejaVuSans-69"/>
     <use x="1372.412109" xlink:href="#DejaVuSans-76"/>
     <use x="1431.591797" xlink:href="#DejaVuSans-65"/>
     <use x="1493.115234" xlink:href="#DejaVuSans-73"/>
     <use x="1545.214844" xlink:href="#DejaVuSans-20"/>
     <use x="1577.001953" xlink:href="#DejaVuSans-68"/>
     <use x="1640.380859" xlink:href="#DejaVuSans-69"/>
     <use x="1668.164062" xlink:href="#DejaVuSans-73"/>
     <use x="1720.263672" xlink:href="#DejaVuSans-20"/>
     <use x="1752.050781" xlink:href="#DejaVuSans-6e"/>
     <use x="1815.429688" xlink:href="#DejaVuSans-61"/>
     <use x="1876.708984" xlink:href="#DejaVuSans-6d"/>
     <use x="1974.121094" xlink:href="#DejaVuSans-65"/>
     <use x="2035.644531" xlink:href="#DejaVuSans-20"/>
     <use x="2067.431641" xlink:href="#DejaVuSans-66"/>
     <use x="2102.636719" xlink:href="#DejaVuSans-72"/>
     <use x="2143.71875" xlink:href="#DejaVuSans-6f"/>
     <use x="2204.900391" xlink:href="#DejaVuSans-6d"/>
     <use x="2302.3125" xlink:href="#DejaVuSans-20"/>
     <use x="2334.099609" xlink:href="#DejaVuSans-74"/>
     <use x="2373.308594" xlink:href="#DejaVuSans-68"/>
     <use x="2436.6875" xlink:href="#DejaVuSans-65"/>
     <use x="2498.210938" xlink:href="#DejaVuSans-20"/>
     <use x="2529.998047" xlink:href="#DejaVuSans-77"/>
     <use x="2611.785156" xlink:href="#DejaVuSans-6f"/>
     <use x="2672.966797" xlink:href="#DejaVuSans-72"/>
     <use x="2714.064453" xlink:href="#DejaVuSans-64"/>
     <use x="2777.541016" xlink:href="#DejaVuSans-20"/>
     <use x="2809.328125" xlink:href="#DejaVuSans-47"/>
     <use x="2886.818359" xlink:href="#DejaVuSans-72"/>
     <use x="2927.931641" xlink:href="#DejaVuSans-61"/>
     <use x="2989.210938" xlink:href="#DejaVuSans-6d"/>
     <use x="3086.623047" xlink:href="#DejaVuSans-6d"/>
     <use x="3184.035156" xlink:href="#DejaVuSans-61"/>
     <use x="3245.314453" xlink:href="#DejaVuSans-72"/>
     <use x="3286.427734" xlink:href="#DejaVuSans-20"/>
     <use x="3318.214844" xlink:href="#DejaVuSans-2c"/>
     <use x="3350.001953" xlink:href="#DejaVuSans-20"/>
     <use x="3381.789062" xlink:href="#DejaVuSans-61"/>
     <use x="3443.068359" xlink:href="#DejaVuSans-6e"/>
     <use x="3506.447266" xlink:href="#DejaVuSans-64"/>
     <use x="3569.923828" xlink:href="#DejaVuSans-20"/>
     <use x="3601.710938" xlink:href="#DejaVuSans-74"/>
     <use x="3640.919922" xlink:href="#DejaVuSans-68"/>
     <use x="3704.298828" xlink:href="#DejaVuSans-65"/>
     <use x="3765.822266" xlink:href="#DejaVuSans-20"/>
     <use x="3797.609375" xlink:href="#DejaVuSans-63"/>
     <use x="3852.589844" xlink:href="#DejaVuSans-6f"/>
     <use x="3913.771484" xlink:href="#DejaVuSans-75"/>
     <use x="3977.150391" xlink:href="#DejaVuSans-72"/>
     <use x="4018.263672" xlink:href="#DejaVuSans-61"/>
     <use x="4079.542969" xlink:href="#DejaVuSans-67"/>
     <use x="4143.019531" xlink:href="#DejaVuSans-65"/>
     <use x="4204.542969" xlink:href="#DejaVuSans-6f"/>
     <use x="4265.724609" xlink:href="#DejaVuSans-75"/>
     <use x="4329.103516" xlink:href="#DejaVuSans-73"/>
     <use x="4381.203125" xlink:href="#DejaVuSans-20"/>
     <use x="4412.990234" xlink:href="#DejaVuSans-6d"/>
     <use x="4510.402344" xlink:href="#DejaVuSans-61"/>
     <use x="4571.681641" xlink:href="#DejaVuSans-6e"/>
     <use x="4635.060547" xlink:href="#DejaVuSans-20"/>
     <use x="4666.847656" xlink:href="#DejaVuSans-66"/>
     <use x="4702.052734" xlink:href="#DejaVuSans-72"/>
     <use x="4743.134766" xlink:href="#DejaVuSans-6f"/>
     <use x="4804.316406" xlink:href="#DejaVuSans-6d"/>
    </g>
    <!-- the word Courage . -->
    <g transform="translate(495.865313 26.087875)scale(0.12 -0.12)">
     <use xlink:href="#DejaVuSans-74"/>
     <use x="39.208984" xlink:href="#DejaVuSans-68"/>
     <use x="102.587891" xlink:href="#DejaVuSans-65"/>
     <use x="164.111328" xlink:href="#DejaVuSans-20"/>
     <use x="195.898438" xlink:href="#DejaVuSans-77"/>
     <use x="277.685547" xlink:href="#DejaVuSans-6f"/>
     <use x="338.867188" xlink:href="#DejaVuSans-72"/>
     <use x="379.964844" xlink:href="#DejaVuSans-64"/>
     <use x="443.441406" xlink:href="#DejaVuSans-20"/>
     <use x="475.228516" xlink:href="#DejaVuSans-43"/>
     <use x="545.052734" xlink:href="#DejaVuSans-6f"/>
     <use x="606.234375" xlink:href="#DejaVuSans-75"/>
     <use x="669.613281" xlink:href="#DejaVuSans-72"/>
     <use x="710.726562" xlink:href="#DejaVuSans-61"/>
     <use x="772.005859" xlink:href="#DejaVuSans-67"/>
     <use x="835.482422" xlink:href="#DejaVuSans-65"/>
     <use x="897.005859" xlink:href="#DejaVuSans-20"/>
     <use x="928.792969" xlink:href="#DejaVuSans-2e"/>
    </g>
    <!-- 40 ∧ 41 ∧ 42 ∧ 43 -->
    <defs>
     <path d="M 12.890625 0 
L 30.515625 57.90625 
L 42.71875 57.90625 
L 60.296875 0 
L 50.78125 0 
L 36.625 45.90625 
L 22.40625 0 
z
" id="DejaVuSans-2227"/>
    </defs>
    <g transform="translate(498.345 39.52525)scale(0.12 -0.12)">
     <use xlink:href="#DejaVuSans-34"/>
     <use x="63.623047" xlink:href="#DejaVuSans-30"/>
     <use x="127.246094" xlink:href="#DejaVuSans-20"/>
     <use x="159.033203" xlink:href="#DejaVuSans-2227"/>
     <use x="232.226562" xlink:href="#DejaVuSans-20"/>
     <use x="264.013672" xlink:href="#DejaVuSans-34"/>
     <use x="327.636719" xlink:href="#DejaVuSans-31"/>
     <use x="391.259766" xlink:href="#DejaVuSans-20"/>
     <use x="423.046875" xlink:href="#DejaVuSans-2227"/>
     <use x="496.240234" xlink:href="#DejaVuSans-20"/>
     <use x="528.027344" xlink:href="#DejaVuSans-34"/>
     <use x="591.650391" xlink:href="#DejaVuSans-32"/>
     <use x="655.273438" xlink:href="#DejaVuSans-20"/>
     <use x="687.060547" xlink:href="#DejaVuSans-2227"/>
     <use x="760.253906" xlink:href="#DejaVuSans-20"/>
     <use x="792.041016" xlink:href="#DejaVuSans-34"/>
     <use x="855.664062" xlink:href="#DejaVuSans-33"/>
    </g>
    <!--  pyprover.logic.Prop('40')&amp; pyprover.logic.Prop('41')&amp; pyprover.logic.Prop('42')&amp; -->
    <defs>
     <path d="M 18.109375 8.203125 
L 18.109375 -20.796875 
L 9.078125 -20.796875 
L 9.078125 54.6875 
L 18.109375 54.6875 
L 18.109375 46.390625 
Q 20.953125 51.265625 25.265625 53.625 
Q 29.59375 56 35.59375 56 
Q 45.5625 56 51.78125 48.09375 
Q 58.015625 40.1875 58.015625 27.296875 
Q 58.015625 14.40625 51.78125 6.484375 
Q 45.5625 -1.421875 35.59375 -1.421875 
Q 29.59375 -1.421875 25.265625 0.953125 
Q 20.953125 3.328125 18.109375 8.203125 
z
M 48.6875 27.296875 
Q 48.6875 37.203125 44.609375 42.84375 
Q 40.53125 48.484375 33.40625 48.484375 
Q 26.265625 48.484375 22.1875 42.84375 
Q 18.109375 37.203125 18.109375 27.296875 
Q 18.109375 17.390625 22.1875 11.75 
Q 26.265625 6.109375 33.40625 6.109375 
Q 40.53125 6.109375 44.609375 11.75 
Q 48.6875 17.390625 48.6875 27.296875 
z
" id="DejaVuSans-70"/>
     <path d="M 32.171875 -5.078125 
Q 28.375 -14.84375 24.75 -17.8125 
Q 21.140625 -20.796875 15.09375 -20.796875 
L 7.90625 -20.796875 
L 7.90625 -13.28125 
L 13.1875 -13.28125 
Q 16.890625 -13.28125 18.9375 -11.515625 
Q 21 -9.765625 23.484375 -3.21875 
L 25.09375 0.875 
L 2.984375 54.6875 
L 12.5 54.6875 
L 29.59375 11.921875 
L 46.6875 54.6875 
L 56.203125 54.6875 
z
" id="DejaVuSans-79"/>
     <path d="M 9.421875 75.984375 
L 18.40625 75.984375 
L 18.40625 0 
L 9.421875 0 
z
" id="DejaVuSans-6c"/>
     <path d="M 19.671875 64.796875 
L 19.671875 37.40625 
L 32.078125 37.40625 
Q 38.96875 37.40625 42.71875 40.96875 
Q 46.484375 44.53125 46.484375 51.125 
Q 46.484375 57.671875 42.71875 61.234375 
Q 38.96875 64.796875 32.078125 64.796875 
z
M 9.8125 72.90625 
L 32.078125 72.90625 
Q 44.34375 72.90625 50.609375 67.359375 
Q 56.890625 61.8125 56.890625 51.125 
Q 56.890625 40.328125 50.609375 34.8125 
Q 44.34375 29.296875 32.078125 29.296875 
L 19.671875 29.296875 
L 19.671875 0 
L 9.8125 0 
z
" id="DejaVuSans-50"/>
     <path d="M 31 75.875 
Q 24.46875 64.65625 21.28125 53.65625 
Q 18.109375 42.671875 18.109375 31.390625 
Q 18.109375 20.125 21.3125 9.0625 
Q 24.515625 -2 31 -13.1875 
L 23.1875 -13.1875 
Q 15.875 -1.703125 12.234375 9.375 
Q 8.59375 20.453125 8.59375 31.390625 
Q 8.59375 42.28125 12.203125 53.3125 
Q 15.828125 64.359375 23.1875 75.875 
z
" id="DejaVuSans-28"/>
     <path d="M 17.921875 72.90625 
L 17.921875 45.796875 
L 9.625 45.796875 
L 9.625 72.90625 
z
" id="DejaVuSans-27"/>
     <path d="M 8.015625 75.875 
L 15.828125 75.875 
Q 23.140625 64.359375 26.78125 53.3125 
Q 30.421875 42.28125 30.421875 31.390625 
Q 30.421875 20.453125 26.78125 9.375 
Q 23.140625 -1.703125 15.828125 -13.1875 
L 8.015625 -13.1875 
Q 14.5 -2 17.703125 9.0625 
Q 20.90625 20.125 20.90625 31.390625 
Q 20.90625 42.671875 17.703125 53.65625 
Q 14.5 64.65625 8.015625 75.875 
z
" id="DejaVuSans-29"/>
     <path d="M 24.3125 39.203125 
Q 19.875 35.25 17.796875 31.3125 
Q 15.71875 27.390625 15.71875 23.09375 
Q 15.71875 15.96875 20.890625 11.234375 
Q 26.078125 6.5 33.890625 6.5 
Q 38.53125 6.5 42.578125 8.03125 
Q 46.625 9.578125 50.203125 12.703125 
z
M 31.203125 44.671875 
L 56 19.28125 
Q 58.890625 23.640625 60.5 28.59375 
Q 62.109375 33.546875 62.40625 39.109375 
L 71.484375 39.109375 
Q 70.90625 32.671875 68.359375 26.359375 
Q 65.828125 20.0625 61.28125 13.921875 
L 74.90625 0 
L 62.59375 0 
L 55.609375 7.171875 
Q 50.53125 2.828125 44.96875 0.703125 
Q 39.40625 -1.421875 33.015625 -1.421875 
Q 21.234375 -1.421875 13.765625 5.296875 
Q 6.296875 12.015625 6.296875 22.515625 
Q 6.296875 28.765625 9.5625 34.25 
Q 12.84375 39.75 19.390625 44.578125 
Q 17.046875 47.65625 15.8125 50.703125 
Q 14.59375 53.765625 14.59375 56.6875 
Q 14.59375 64.59375 20.015625 69.40625 
Q 25.4375 74.21875 34.421875 74.21875 
Q 38.484375 74.21875 42.5 73.34375 
Q 46.53125 72.46875 50.6875 70.703125 
L 50.6875 61.8125 
Q 46.4375 64.109375 42.578125 65.296875 
Q 38.71875 66.5 35.40625 66.5 
Q 30.28125 66.5 27.078125 63.78125 
Q 23.875 61.078125 23.875 56.78125 
Q 23.875 54.296875 25.3125 51.78125 
Q 26.765625 49.265625 31.203125 44.671875 
z
" id="DejaVuSans-26"/>
    </defs>
    <g transform="translate(311.41125 52.962625)scale(0.12 -0.12)">
     <use xlink:href="#DejaVuSans-20"/>
     <use x="31.787109" xlink:href="#DejaVuSans-70"/>
     <use x="95.263672" xlink:href="#DejaVuSans-79"/>
     <use x="154.443359" xlink:href="#DejaVuSans-70"/>
     <use x="217.919922" xlink:href="#DejaVuSans-72"/>
     <use x="259.001953" xlink:href="#DejaVuSans-6f"/>
     <use x="320.183594" xlink:href="#DejaVuSans-76"/>
     <use x="379.363281" xlink:href="#DejaVuSans-65"/>
     <use x="440.886719" xlink:href="#DejaVuSans-72"/>
     <use x="481.859375" xlink:href="#DejaVuSans-2e"/>
     <use x="513.646484" xlink:href="#DejaVuSans-6c"/>
     <use x="541.429688" xlink:href="#DejaVuSans-6f"/>
     <use x="602.611328" xlink:href="#DejaVuSans-67"/>
     <use x="666.087891" xlink:href="#DejaVuSans-69"/>
     <use x="693.871094" xlink:href="#DejaVuSans-63"/>
     <use x="748.851562" xlink:href="#DejaVuSans-2e"/>
     <use x="780.638672" xlink:href="#DejaVuSans-50"/>
     <use x="840.925781" xlink:href="#DejaVuSans-72"/>
     <use x="882.007812" xlink:href="#DejaVuSans-6f"/>
     <use x="943.189453" xlink:href="#DejaVuSans-70"/>
     <use x="1006.666016" xlink:href="#DejaVuSans-28"/>
     <use x="1045.679688" xlink:href="#DejaVuSans-27"/>
     <use x="1073.169922" xlink:href="#DejaVuSans-34"/>
     <use x="1136.792969" xlink:href="#DejaVuSans-30"/>
     <use x="1200.416016" xlink:href="#DejaVuSans-27"/>
     <use x="1227.90625" xlink:href="#DejaVuSans-29"/>
     <use x="1266.919922" xlink:href="#DejaVuSans-26"/>
     <use x="1344.898438" xlink:href="#DejaVuSans-20"/>
     <use x="1376.685547" xlink:href="#DejaVuSans-70"/>
     <use x="1440.162109" xlink:href="#DejaVuSans-79"/>
     <use x="1499.341797" xlink:href="#DejaVuSans-70"/>
     <use x="1562.818359" xlink:href="#DejaVuSans-72"/>
     <use x="1603.900391" xlink:href="#DejaVuSans-6f"/>
     <use x="1665.082031" xlink:href="#DejaVuSans-76"/>
     <use x="1724.261719" xlink:href="#DejaVuSans-65"/>
     <use x="1785.785156" xlink:href="#DejaVuSans-72"/>
     <use x="1826.757812" xlink:href="#DejaVuSans-2e"/>
     <use x="1858.544922" xlink:href="#DejaVuSans-6c"/>
     <use x="1886.328125" xlink:href="#DejaVuSans-6f"/>
     <use x="1947.509766" xlink:href="#DejaVuSans-67"/>
     <use x="2010.986328" xlink:href="#DejaVuSans-69"/>
     <use x="2038.769531" xlink:href="#DejaVuSans-63"/>
     <use x="2093.75" xlink:href="#DejaVuSans-2e"/>
     <use x="2125.537109" xlink:href="#DejaVuSans-50"/>
     <use x="2185.824219" xlink:href="#DejaVuSans-72"/>
     <use x="2226.90625" xlink:href="#DejaVuSans-6f"/>
     <use x="2288.087891" xlink:href="#DejaVuSans-70"/>
     <use x="2351.564453" xlink:href="#DejaVuSans-28"/>
     <use x="2390.578125" xlink:href="#DejaVuSans-27"/>
     <use x="2418.068359" xlink:href="#DejaVuSans-34"/>
     <use x="2481.691406" xlink:href="#DejaVuSans-31"/>
     <use x="2545.314453" xlink:href="#DejaVuSans-27"/>
     <use x="2572.804688" xlink:href="#DejaVuSans-29"/>
     <use x="2611.818359" xlink:href="#DejaVuSans-26"/>
     <use x="2689.796875" xlink:href="#DejaVuSans-20"/>
     <use x="2721.583984" xlink:href="#DejaVuSans-70"/>
     <use x="2785.060547" xlink:href="#DejaVuSans-79"/>
     <use x="2844.240234" xlink:href="#DejaVuSans-70"/>
     <use x="2907.716797" xlink:href="#DejaVuSans-72"/>
     <use x="2948.798828" xlink:href="#DejaVuSans-6f"/>
     <use x="3009.980469" xlink:href="#DejaVuSans-76"/>
     <use x="3069.160156" xlink:href="#DejaVuSans-65"/>
     <use x="3130.683594" xlink:href="#DejaVuSans-72"/>
     <use x="3171.65625" xlink:href="#DejaVuSans-2e"/>
     <use x="3203.443359" xlink:href="#DejaVuSans-6c"/>
     <use x="3231.226562" xlink:href="#DejaVuSans-6f"/>
     <use x="3292.408203" xlink:href="#DejaVuSans-67"/>
     <use x="3355.884766" xlink:href="#DejaVuSans-69"/>
     <use x="3383.667969" xlink:href="#DejaVuSans-63"/>
     <use x="3438.648438" xlink:href="#DejaVuSans-2e"/>
     <use x="3470.435547" xlink:href="#DejaVuSans-50"/>
     <use x="3530.722656" xlink:href="#DejaVuSans-72"/>
     <use x="3571.804688" xlink:href="#DejaVuSans-6f"/>
     <use x="3632.986328" xlink:href="#DejaVuSans-70"/>
     <use x="3696.462891" xlink:href="#DejaVuSans-28"/>
     <use x="3735.476562" xlink:href="#DejaVuSans-27"/>
     <use x="3762.966797" xlink:href="#DejaVuSans-34"/>
     <use x="3826.589844" xlink:href="#DejaVuSans-32"/>
     <use x="3890.212891" xlink:href="#DejaVuSans-27"/>
     <use x="3917.703125" xlink:href="#DejaVuSans-29"/>
     <use x="3956.716797" xlink:href="#DejaVuSans-26"/>
    </g>
    <!-- pyprover.logic.Prop('43') -->
    <g transform="translate(479.389688 66.4)scale(0.12 -0.12)">
     <use xlink:href="#DejaVuSans-70"/>
     <use x="63.476562" xlink:href="#DejaVuSans-79"/>
     <use x="122.65625" xlink:href="#DejaVuSans-70"/>
     <use x="186.132812" xlink:href="#DejaVuSans-72"/>
     <use x="227.214844" xlink:href="#DejaVuSans-6f"/>
     <use x="288.396484" xlink:href="#DejaVuSans-76"/>
     <use x="347.576172" xlink:href="#DejaVuSans-65"/>
     <use x="409.099609" xlink:href="#DejaVuSans-72"/>
     <use x="450.072266" xlink:href="#DejaVuSans-2e"/>
     <use x="481.859375" xlink:href="#DejaVuSans-6c"/>
     <use x="509.642578" xlink:href="#DejaVuSans-6f"/>
     <use x="570.824219" xlink:href="#DejaVuSans-67"/>
     <use x="634.300781" xlink:href="#DejaVuSans-69"/>
     <use x="662.083984" xlink:href="#DejaVuSans-63"/>
     <use x="717.064453" xlink:href="#DejaVuSans-2e"/>
     <use x="748.851562" xlink:href="#DejaVuSans-50"/>
     <use x="809.138672" xlink:href="#DejaVuSans-72"/>
     <use x="850.220703" xlink:href="#DejaVuSans-6f"/>
     <use x="911.402344" xlink:href="#DejaVuSans-70"/>
     <use x="974.878906" xlink:href="#DejaVuSans-28"/>
     <use x="1013.892578" xlink:href="#DejaVuSans-27"/>
     <use x="1041.382812" xlink:href="#DejaVuSans-34"/>
     <use x="1105.005859" xlink:href="#DejaVuSans-33"/>
     <use x="1168.628906" xlink:href="#DejaVuSans-27"/>
     <use x="1196.119141" xlink:href="#DejaVuSans-29"/>
    </g>
   </g>
  </g>
 </g>
 <defs>
  <clipPath id="p1c623528b3">
   <rect height="554.4" width="837" x="135" y="86.4"/>
  </clipPath>
 </defs>
</svg>
