<?xml version="1.0" encoding="utf-8" standalone="no"?>
<!DOCTYPE svg PUBLIC "-//W3C//DTD SVG 1.1//EN"
  "http://www.w3.org/Graphics/SVG/1.1/DTD/svg11.dtd">
<!-- Created with matplotlib (http://matplotlib.org/) -->
<svg height="720pt" version="1.1" viewBox="0 0 1080 720" width="1080pt" xmlns="http://www.w3.org/2000/svg" xmlns:xlink="http://www.w3.org/1999/xlink">
 <defs>
  <style type="text/css">
*{stroke-linecap:butt;stroke-linejoin:round;}
  </style>
 </defs>
 <g id="figure_1">
  <g id="patch_1">
   <path d="M 0 720 
L 1080 720 
L 1080 0 
L 0 0 
z
" style="fill:#ffffff;"/>
  </g>
  <g id="axes_1">
   <g id="patch_2">
    <path clip-path="url(#p9f483c3a90)" d="M 552.88348 134.509091 
Q 382.629825 190.99486 215.559636 246.424437 
" style="fill:none;stroke:#000000;stroke-linecap:round;stroke-width:3;"/>
    <path clip-path="url(#p9f483c3a90)" d="M 220.871192 247.190841 
L 215.559636 246.424437 
L 219.359693 242.635035 
L 220.871192 247.190841 
z
" style="stroke:#000000;stroke-linecap:round;stroke-width:3;"/>
   </g>
   <g id="patch_3">
    <path clip-path="url(#p9f483c3a90)" d="M 552.88348 134.509091 
Q 723.753114 190.997482 891.43816 246.433068 
" style="fill:none;stroke:#000000;stroke-linecap:round;stroke-width:3;"/>
    <path clip-path="url(#p9f483c3a90)" d="M 887.634073 242.647712 
L 891.43816 246.433068 
L 886.127423 247.205124 
L 887.634073 242.647712 
z
" style="stroke:#000000;stroke-linecap:round;stroke-width:3;"/>
   </g>
   <g id="patch_4">
    <path clip-path="url(#p9f483c3a90)" d="M 207.632231 249.054545 
Q 207.632231 303.826135 207.632231 355.243623 
" style="fill:none;stroke:#000000;stroke-linecap:round;stroke-width:3;"/>
    <path clip-path="url(#p9f483c3a90)" d="M 210.032231 350.443623 
L 207.632231 355.243623 
L 205.232231 350.443623 
L 210.032231 350.443623 
z
" style="stroke:#000000;stroke-linecap:round;stroke-width:3;"/>
   </g>
   <g id="patch_5">
    <path clip-path="url(#p9f483c3a90)" d="M 207.632231 363.6 
Q 207.632231 418.37159 207.632231 469.789078 
" style="fill:none;stroke:#000000;stroke-linecap:round;stroke-width:3;"/>
    <path clip-path="url(#p9f483c3a90)" d="M 210.032231 464.989078 
L 207.632231 469.789078 
L 205.232231 464.989078 
L 210.032231 464.989078 
z
" style="stroke:#000000;stroke-linecap:round;stroke-width:3;"/>
   </g>
   <g id="patch_6">
    <path clip-path="url(#p9f483c3a90)" d="M 207.632231 478.145455 
Q 207.632231 532.917044 207.632231 584.334532 
" style="fill:none;stroke:#000000;stroke-linecap:round;stroke-width:3;"/>
    <path clip-path="url(#p9f483c3a90)" d="M 210.032231 579.534532 
L 207.632231 584.334532 
L 205.232231 579.534532 
L 210.032231 579.534532 
z
" style="stroke:#000000;stroke-linecap:round;stroke-width:3;"/>
   </g>
   <g id="patch_7">
    <path clip-path="url(#p9f483c3a90)" d="M 899.367769 249.054545 
Q 899.367769 303.826135 899.367769 355.243623 
" style="fill:none;stroke:#000000;stroke-linecap:round;stroke-width:3;"/>
    <path clip-path="url(#p9f483c3a90)" d="M 901.767769 350.443623 
L 899.367769 355.243623 
L 896.967769 350.443623 
L 901.767769 350.443623 
z
" style="stroke:#000000;stroke-linecap:round;stroke-width:3;"/>
   </g>
   <g id="PathCollection_1">
    <defs>
     <path d="M 0 5 
C 1.326016 5 2.597899 4.473168 3.535534 3.535534 
C 4.473168 2.597899 5 1.326016 5 0 
C 5 -1.326016 4.473168 -2.597899 3.535534 -3.535534 
C 2.597899 -4.473168 1.326016 -5 0 -5 
C -1.326016 -5 -2.597899 -4.473168 -3.535534 -3.535534 
C -4.473168 -2.597899 -5 -1.326016 -5 0 
C -5 1.326016 -4.473168 2.597899 -3.535534 3.535534 
C -2.597899 4.473168 -1.326016 5 0 5 
z
" id="m254ef7586a" style="stroke:#0000ff;"/>
    </defs>
    <g clip-path="url(#p9f483c3a90)">
     <use style="fill:#0000ff;stroke:#0000ff;" x="552.88348" xlink:href="#m254ef7586a" y="134.509091"/>
     <use style="fill:#0000ff;stroke:#0000ff;" x="207.632231" xlink:href="#m254ef7586a" y="249.054545"/>
     <use style="fill:#0000ff;stroke:#0000ff;" x="207.632231" xlink:href="#m254ef7586a" y="363.6"/>
     <use style="fill:#0000ff;stroke:#0000ff;" x="207.632231" xlink:href="#m254ef7586a" y="478.145455"/>
     <use style="fill:#0000ff;stroke:#0000ff;" x="899.367769" xlink:href="#m254ef7586a" y="249.054545"/>
     <use style="fill:#0000ff;stroke:#0000ff;" x="207.632231" xlink:href="#m254ef7586a" y="592.690909"/>
     <use style="fill:#0000ff;stroke:#0000ff;" x="899.367769" xlink:href="#m254ef7586a" y="363.6"/>
    </g>
   </g>
   <g id="text_1">
    <g clip-path="url(#p9f483c3a90)">
     <!-- 6  Things are said to be named -->
     <defs>
      <path d="M 33.015625 40.375 
Q 26.375 40.375 22.484375 35.828125 
Q 18.609375 31.296875 18.609375 23.390625 
Q 18.609375 15.53125 22.484375 10.953125 
Q 26.375 6.390625 33.015625 6.390625 
Q 39.65625 6.390625 43.53125 10.953125 
Q 47.40625 15.53125 47.40625 23.390625 
Q 47.40625 31.296875 43.53125 35.828125 
Q 39.65625 40.375 33.015625 40.375 
z
M 52.59375 71.296875 
L 52.59375 62.3125 
Q 48.875 64.0625 45.09375 64.984375 
Q 41.3125 65.921875 37.59375 65.921875 
Q 27.828125 65.921875 22.671875 59.328125 
Q 17.53125 52.734375 16.796875 39.40625 
Q 19.671875 43.65625 24.015625 45.921875 
Q 28.375 48.1875 33.59375 48.1875 
Q 44.578125 48.1875 50.953125 41.515625 
Q 57.328125 34.859375 57.328125 23.390625 
Q 57.328125 12.15625 50.6875 5.359375 
Q 44.046875 -1.421875 33.015625 -1.421875 
Q 20.359375 -1.421875 13.671875 8.265625 
Q 6.984375 17.96875 6.984375 36.375 
Q 6.984375 53.65625 15.1875 63.9375 
Q 23.390625 74.21875 37.203125 74.21875 
Q 40.921875 74.21875 44.703125 73.484375 
Q 48.484375 72.75 52.59375 71.296875 
z
" id="DejaVuSans-36"/>
      <path id="DejaVuSans-20"/>
      <path d="M -0.296875 72.90625 
L 61.375 72.90625 
L 61.375 64.59375 
L 35.5 64.59375 
L 35.5 0 
L 25.59375 0 
L 25.59375 64.59375 
L -0.296875 64.59375 
z
" id="DejaVuSans-54"/>
      <path d="M 54.890625 33.015625 
L 54.890625 0 
L 45.90625 0 
L 45.90625 32.71875 
Q 45.90625 40.484375 42.875 44.328125 
Q 39.84375 48.1875 33.796875 48.1875 
Q 26.515625 48.1875 22.3125 43.546875 
Q 18.109375 38.921875 18.109375 30.90625 
L 18.109375 0 
L 9.078125 0 
L 9.078125 75.984375 
L 18.109375 75.984375 
L 18.109375 46.1875 
Q 21.34375 51.125 25.703125 53.5625 
Q 30.078125 56 35.796875 56 
Q 45.21875 56 50.046875 50.171875 
Q 54.890625 44.34375 54.890625 33.015625 
z
" id="DejaVuSans-68"/>
      <path d="M 9.421875 54.6875 
L 18.40625 54.6875 
L 18.40625 0 
L 9.421875 0 
z
M 9.421875 75.984375 
L 18.40625 75.984375 
L 18.40625 64.59375 
L 9.421875 64.59375 
z
" id="DejaVuSans-69"/>
      <path d="M 54.890625 33.015625 
L 54.890625 0 
L 45.90625 0 
L 45.90625 32.71875 
Q 45.90625 40.484375 42.875 44.328125 
Q 39.84375 48.1875 33.796875 48.1875 
Q 26.515625 48.1875 22.3125 43.546875 
Q 18.109375 38.921875 18.109375 30.90625 
L 18.109375 0 
L 9.078125 0 
L 9.078125 54.6875 
L 18.109375 54.6875 
L 18.109375 46.1875 
Q 21.34375 51.125 25.703125 53.5625 
Q 30.078125 56 35.796875 56 
Q 45.21875 56 50.046875 50.171875 
Q 54.890625 44.34375 54.890625 33.015625 
z
" id="DejaVuSans-6e"/>
      <path d="M 45.40625 27.984375 
Q 45.40625 37.75 41.375 43.109375 
Q 37.359375 48.484375 30.078125 48.484375 
Q 22.859375 48.484375 18.828125 43.109375 
Q 14.796875 37.75 14.796875 27.984375 
Q 14.796875 18.265625 18.828125 12.890625 
Q 22.859375 7.515625 30.078125 7.515625 
Q 37.359375 7.515625 41.375 12.890625 
Q 45.40625 18.265625 45.40625 27.984375 
z
M 54.390625 6.78125 
Q 54.390625 -7.171875 48.1875 -13.984375 
Q 42 -20.796875 29.203125 -20.796875 
Q 24.46875 -20.796875 20.265625 -20.09375 
Q 16.0625 -19.390625 12.109375 -17.921875 
L 12.109375 -9.1875 
Q 16.0625 -11.328125 19.921875 -12.34375 
Q 23.78125 -13.375 27.78125 -13.375 
Q 36.625 -13.375 41.015625 -8.765625 
Q 45.40625 -4.15625 45.40625 5.171875 
L 45.40625 9.625 
Q 42.625 4.78125 38.28125 2.390625 
Q 33.9375 0 27.875 0 
Q 17.828125 0 11.671875 7.65625 
Q 5.515625 15.328125 5.515625 27.984375 
Q 5.515625 40.671875 11.671875 48.328125 
Q 17.828125 56 27.875 56 
Q 33.9375 56 38.28125 53.609375 
Q 42.625 51.21875 45.40625 46.390625 
L 45.40625 54.6875 
L 54.390625 54.6875 
z
" id="DejaVuSans-67"/>
      <path d="M 44.28125 53.078125 
L 44.28125 44.578125 
Q 40.484375 46.53125 36.375 47.5 
Q 32.28125 48.484375 27.875 48.484375 
Q 21.1875 48.484375 17.84375 46.4375 
Q 14.5 44.390625 14.5 40.28125 
Q 14.5 37.15625 16.890625 35.375 
Q 19.28125 33.59375 26.515625 31.984375 
L 29.59375 31.296875 
Q 39.15625 29.25 43.1875 25.515625 
Q 47.21875 21.78125 47.21875 15.09375 
Q 47.21875 7.46875 41.1875 3.015625 
Q 35.15625 -1.421875 24.609375 -1.421875 
Q 20.21875 -1.421875 15.453125 -0.5625 
Q 10.6875 0.296875 5.421875 2 
L 5.421875 11.28125 
Q 10.40625 8.6875 15.234375 7.390625 
Q 20.0625 6.109375 24.8125 6.109375 
Q 31.15625 6.109375 34.5625 8.28125 
Q 37.984375 10.453125 37.984375 14.40625 
Q 37.984375 18.0625 35.515625 20.015625 
Q 33.0625 21.96875 24.703125 23.78125 
L 21.578125 24.515625 
Q 13.234375 26.265625 9.515625 29.90625 
Q 5.8125 33.546875 5.8125 39.890625 
Q 5.8125 47.609375 11.28125 51.796875 
Q 16.75 56 26.8125 56 
Q 31.78125 56 36.171875 55.265625 
Q 40.578125 54.546875 44.28125 53.078125 
z
" id="DejaVuSans-73"/>
      <path d="M 34.28125 27.484375 
Q 23.390625 27.484375 19.1875 25 
Q 14.984375 22.515625 14.984375 16.5 
Q 14.984375 11.71875 18.140625 8.90625 
Q 21.296875 6.109375 26.703125 6.109375 
Q 34.1875 6.109375 38.703125 11.40625 
Q 43.21875 16.703125 43.21875 25.484375 
L 43.21875 27.484375 
z
M 52.203125 31.203125 
L 52.203125 0 
L 43.21875 0 
L 43.21875 8.296875 
Q 40.140625 3.328125 35.546875 0.953125 
Q 30.953125 -1.421875 24.3125 -1.421875 
Q 15.921875 -1.421875 10.953125 3.296875 
Q 6 8.015625 6 15.921875 
Q 6 25.140625 12.171875 29.828125 
Q 18.359375 34.515625 30.609375 34.515625 
L 43.21875 34.515625 
L 43.21875 35.40625 
Q 43.21875 41.609375 39.140625 45 
Q 35.0625 48.390625 27.6875 48.390625 
Q 23 48.390625 18.546875 47.265625 
Q 14.109375 46.140625 10.015625 43.890625 
L 10.015625 52.203125 
Q 14.9375 54.109375 19.578125 55.046875 
Q 24.21875 56 28.609375 56 
Q 40.484375 56 46.34375 49.84375 
Q 52.203125 43.703125 52.203125 31.203125 
z
" id="DejaVuSans-61"/>
      <path d="M 41.109375 46.296875 
Q 39.59375 47.171875 37.8125 47.578125 
Q 36.03125 48 33.890625 48 
Q 26.265625 48 22.1875 43.046875 
Q 18.109375 38.09375 18.109375 28.8125 
L 18.109375 0 
L 9.078125 0 
L 9.078125 54.6875 
L 18.109375 54.6875 
L 18.109375 46.1875 
Q 20.953125 51.171875 25.484375 53.578125 
Q 30.03125 56 36.53125 56 
Q 37.453125 56 38.578125 55.875 
Q 39.703125 55.765625 41.0625 55.515625 
z
" id="DejaVuSans-72"/>
      <path d="M 56.203125 29.59375 
L 56.203125 25.203125 
L 14.890625 25.203125 
Q 15.484375 15.921875 20.484375 11.0625 
Q 25.484375 6.203125 34.421875 6.203125 
Q 39.59375 6.203125 44.453125 7.46875 
Q 49.3125 8.734375 54.109375 11.28125 
L 54.109375 2.78125 
Q 49.265625 0.734375 44.1875 -0.34375 
Q 39.109375 -1.421875 33.890625 -1.421875 
Q 20.796875 -1.421875 13.15625 6.1875 
Q 5.515625 13.8125 5.515625 26.8125 
Q 5.515625 40.234375 12.765625 48.109375 
Q 20.015625 56 32.328125 56 
Q 43.359375 56 49.78125 48.890625 
Q 56.203125 41.796875 56.203125 29.59375 
z
M 47.21875 32.234375 
Q 47.125 39.59375 43.09375 43.984375 
Q 39.0625 48.390625 32.421875 48.390625 
Q 24.90625 48.390625 20.390625 44.140625 
Q 15.875 39.890625 15.1875 32.171875 
z
" id="DejaVuSans-65"/>
      <path d="M 45.40625 46.390625 
L 45.40625 75.984375 
L 54.390625 75.984375 
L 54.390625 0 
L 45.40625 0 
L 45.40625 8.203125 
Q 42.578125 3.328125 38.25 0.953125 
Q 33.9375 -1.421875 27.875 -1.421875 
Q 17.96875 -1.421875 11.734375 6.484375 
Q 5.515625 14.40625 5.515625 27.296875 
Q 5.515625 40.1875 11.734375 48.09375 
Q 17.96875 56 27.875 56 
Q 33.9375 56 38.25 53.625 
Q 42.578125 51.265625 45.40625 46.390625 
z
M 14.796875 27.296875 
Q 14.796875 17.390625 18.875 11.75 
Q 22.953125 6.109375 30.078125 6.109375 
Q 37.203125 6.109375 41.296875 11.75 
Q 45.40625 17.390625 45.40625 27.296875 
Q 45.40625 37.203125 41.296875 42.84375 
Q 37.203125 48.484375 30.078125 48.484375 
Q 22.953125 48.484375 18.875 42.84375 
Q 14.796875 37.203125 14.796875 27.296875 
z
" id="DejaVuSans-64"/>
      <path d="M 18.3125 70.21875 
L 18.3125 54.6875 
L 36.8125 54.6875 
L 36.8125 47.703125 
L 18.3125 47.703125 
L 18.3125 18.015625 
Q 18.3125 11.328125 20.140625 9.421875 
Q 21.96875 7.515625 27.59375 7.515625 
L 36.8125 7.515625 
L 36.8125 0 
L 27.59375 0 
Q 17.1875 0 13.234375 3.875 
Q 9.28125 7.765625 9.28125 18.015625 
L 9.28125 47.703125 
L 2.6875 47.703125 
L 2.6875 54.6875 
L 9.28125 54.6875 
L 9.28125 70.21875 
z
" id="DejaVuSans-74"/>
      <path d="M 30.609375 48.390625 
Q 23.390625 48.390625 19.1875 42.75 
Q 14.984375 37.109375 14.984375 27.296875 
Q 14.984375 17.484375 19.15625 11.84375 
Q 23.34375 6.203125 30.609375 6.203125 
Q 37.796875 6.203125 41.984375 11.859375 
Q 46.1875 17.53125 46.1875 27.296875 
Q 46.1875 37.015625 41.984375 42.703125 
Q 37.796875 48.390625 30.609375 48.390625 
z
M 30.609375 56 
Q 42.328125 56 49.015625 48.375 
Q 55.71875 40.765625 55.71875 27.296875 
Q 55.71875 13.875 49.015625 6.21875 
Q 42.328125 -1.421875 30.609375 -1.421875 
Q 18.84375 -1.421875 12.171875 6.21875 
Q 5.515625 13.875 5.515625 27.296875 
Q 5.515625 40.765625 12.171875 48.375 
Q 18.84375 56 30.609375 56 
z
" id="DejaVuSans-6f"/>
      <path d="M 48.6875 27.296875 
Q 48.6875 37.203125 44.609375 42.84375 
Q 40.53125 48.484375 33.40625 48.484375 
Q 26.265625 48.484375 22.1875 42.84375 
Q 18.109375 37.203125 18.109375 27.296875 
Q 18.109375 17.390625 22.1875 11.75 
Q 26.265625 6.109375 33.40625 6.109375 
Q 40.53125 6.109375 44.609375 11.75 
Q 48.6875 17.390625 48.6875 27.296875 
z
M 18.109375 46.390625 
Q 20.953125 51.265625 25.265625 53.625 
Q 29.59375 56 35.59375 56 
Q 45.5625 56 51.78125 48.09375 
Q 58.015625 40.1875 58.015625 27.296875 
Q 58.015625 14.40625 51.78125 6.484375 
Q 45.5625 -1.421875 35.59375 -1.421875 
Q 29.59375 -1.421875 25.265625 0.953125 
Q 20.953125 3.328125 18.109375 8.203125 
L 18.109375 0 
L 9.078125 0 
L 9.078125 75.984375 
L 18.109375 75.984375 
z
" id="DejaVuSans-62"/>
      <path d="M 52 44.1875 
Q 55.375 50.25 60.0625 53.125 
Q 64.75 56 71.09375 56 
Q 79.640625 56 84.28125 50.015625 
Q 88.921875 44.046875 88.921875 33.015625 
L 88.921875 0 
L 79.890625 0 
L 79.890625 32.71875 
Q 79.890625 40.578125 77.09375 44.375 
Q 74.3125 48.1875 68.609375 48.1875 
Q 61.625 48.1875 57.5625 43.546875 
Q 53.515625 38.921875 53.515625 30.90625 
L 53.515625 0 
L 44.484375 0 
L 44.484375 32.71875 
Q 44.484375 40.625 41.703125 44.40625 
Q 38.921875 48.1875 33.109375 48.1875 
Q 26.21875 48.1875 22.15625 43.53125 
Q 18.109375 38.875 18.109375 30.90625 
L 18.109375 0 
L 9.078125 0 
L 9.078125 54.6875 
L 18.109375 54.6875 
L 18.109375 46.1875 
Q 21.1875 51.21875 25.484375 53.609375 
Q 29.78125 56 35.6875 56 
Q 41.65625 56 45.828125 52.96875 
Q 50 49.953125 52 44.1875 
z
" id="DejaVuSans-6d"/>
     </defs>
     <g transform="translate(474.968636 114.872841)scale(0.1 -0.1)">
      <use xlink:href="#DejaVuSans-36"/>
      <use x="63.623047" xlink:href="#DejaVuSans-20"/>
      <use x="95.410156" xlink:href="#DejaVuSans-20"/>
      <use x="127.197266" xlink:href="#DejaVuSans-54"/>
      <use x="188.28125" xlink:href="#DejaVuSans-68"/>
      <use x="251.660156" xlink:href="#DejaVuSans-69"/>
      <use x="279.443359" xlink:href="#DejaVuSans-6e"/>
      <use x="342.822266" xlink:href="#DejaVuSans-67"/>
      <use x="406.298828" xlink:href="#DejaVuSans-73"/>
      <use x="458.398438" xlink:href="#DejaVuSans-20"/>
      <use x="490.185547" xlink:href="#DejaVuSans-61"/>
      <use x="551.464844" xlink:href="#DejaVuSans-72"/>
      <use x="592.546875" xlink:href="#DejaVuSans-65"/>
      <use x="654.070312" xlink:href="#DejaVuSans-20"/>
      <use x="685.857422" xlink:href="#DejaVuSans-73"/>
      <use x="737.957031" xlink:href="#DejaVuSans-61"/>
      <use x="799.236328" xlink:href="#DejaVuSans-69"/>
      <use x="827.019531" xlink:href="#DejaVuSans-64"/>
      <use x="890.496094" xlink:href="#DejaVuSans-20"/>
      <use x="922.283203" xlink:href="#DejaVuSans-74"/>
      <use x="961.492188" xlink:href="#DejaVuSans-6f"/>
      <use x="1022.673828" xlink:href="#DejaVuSans-20"/>
      <use x="1054.460938" xlink:href="#DejaVuSans-62"/>
      <use x="1117.9375" xlink:href="#DejaVuSans-65"/>
      <use x="1179.460938" xlink:href="#DejaVuSans-20"/>
      <use x="1211.248047" xlink:href="#DejaVuSans-6e"/>
      <use x="1274.626953" xlink:href="#DejaVuSans-61"/>
      <use x="1335.90625" xlink:href="#DejaVuSans-6d"/>
      <use x="1433.318359" xlink:href="#DejaVuSans-65"/>
      <use x="1494.841797" xlink:href="#DejaVuSans-64"/>
     </g>
    </g>
    <g clip-path="url(#p9f483c3a90)">
     <!-- Equivocally when , though they -->
     <defs>
      <path d="M 9.8125 72.90625 
L 55.90625 72.90625 
L 55.90625 64.59375 
L 19.671875 64.59375 
L 19.671875 43.015625 
L 54.390625 43.015625 
L 54.390625 34.71875 
L 19.671875 34.71875 
L 19.671875 8.296875 
L 56.78125 8.296875 
L 56.78125 0 
L 9.8125 0 
z
" id="DejaVuSans-45"/>
      <path d="M 14.796875 27.296875 
Q 14.796875 17.390625 18.875 11.75 
Q 22.953125 6.109375 30.078125 6.109375 
Q 37.203125 6.109375 41.296875 11.75 
Q 45.40625 17.390625 45.40625 27.296875 
Q 45.40625 37.203125 41.296875 42.84375 
Q 37.203125 48.484375 30.078125 48.484375 
Q 22.953125 48.484375 18.875 42.84375 
Q 14.796875 37.203125 14.796875 27.296875 
z
M 45.40625 8.203125 
Q 42.578125 3.328125 38.25 0.953125 
Q 33.9375 -1.421875 27.875 -1.421875 
Q 17.96875 -1.421875 11.734375 6.484375 
Q 5.515625 14.40625 5.515625 27.296875 
Q 5.515625 40.1875 11.734375 48.09375 
Q 17.96875 56 27.875 56 
Q 33.9375 56 38.25 53.625 
Q 42.578125 51.265625 45.40625 46.390625 
L 45.40625 54.6875 
L 54.390625 54.6875 
L 54.390625 -20.796875 
L 45.40625 -20.796875 
z
" id="DejaVuSans-71"/>
      <path d="M 8.5 21.578125 
L 8.5 54.6875 
L 17.484375 54.6875 
L 17.484375 21.921875 
Q 17.484375 14.15625 20.5 10.265625 
Q 23.53125 6.390625 29.59375 6.390625 
Q 36.859375 6.390625 41.078125 11.03125 
Q 45.3125 15.671875 45.3125 23.6875 
L 45.3125 54.6875 
L 54.296875 54.6875 
L 54.296875 0 
L 45.3125 0 
L 45.3125 8.40625 
Q 42.046875 3.421875 37.71875 1 
Q 33.40625 -1.421875 27.6875 -1.421875 
Q 18.265625 -1.421875 13.375 4.4375 
Q 8.5 10.296875 8.5 21.578125 
z
M 31.109375 56 
z
" id="DejaVuSans-75"/>
      <path d="M 2.984375 54.6875 
L 12.5 54.6875 
L 29.59375 8.796875 
L 46.6875 54.6875 
L 56.203125 54.6875 
L 35.6875 0 
L 23.484375 0 
z
" id="DejaVuSans-76"/>
      <path d="M 48.78125 52.59375 
L 48.78125 44.1875 
Q 44.96875 46.296875 41.140625 47.34375 
Q 37.3125 48.390625 33.40625 48.390625 
Q 24.65625 48.390625 19.8125 42.84375 
Q 14.984375 37.3125 14.984375 27.296875 
Q 14.984375 17.28125 19.8125 11.734375 
Q 24.65625 6.203125 33.40625 6.203125 
Q 37.3125 6.203125 41.140625 7.25 
Q 44.96875 8.296875 48.78125 10.40625 
L 48.78125 2.09375 
Q 45.015625 0.34375 40.984375 -0.53125 
Q 36.96875 -1.421875 32.421875 -1.421875 
Q 20.0625 -1.421875 12.78125 6.34375 
Q 5.515625 14.109375 5.515625 27.296875 
Q 5.515625 40.671875 12.859375 48.328125 
Q 20.21875 56 33.015625 56 
Q 37.15625 56 41.109375 55.140625 
Q 45.0625 54.296875 48.78125 52.59375 
z
" id="DejaVuSans-63"/>
      <path d="M 9.421875 75.984375 
L 18.40625 75.984375 
L 18.40625 0 
L 9.421875 0 
z
" id="DejaVuSans-6c"/>
      <path d="M 32.171875 -5.078125 
Q 28.375 -14.84375 24.75 -17.8125 
Q 21.140625 -20.796875 15.09375 -20.796875 
L 7.90625 -20.796875 
L 7.90625 -13.28125 
L 13.1875 -13.28125 
Q 16.890625 -13.28125 18.9375 -11.515625 
Q 21 -9.765625 23.484375 -3.21875 
L 25.09375 0.875 
L 2.984375 54.6875 
L 12.5 54.6875 
L 29.59375 11.921875 
L 46.6875 54.6875 
L 56.203125 54.6875 
z
" id="DejaVuSans-79"/>
      <path d="M 4.203125 54.6875 
L 13.1875 54.6875 
L 24.421875 12.015625 
L 35.59375 54.6875 
L 46.1875 54.6875 
L 57.421875 12.015625 
L 68.609375 54.6875 
L 77.59375 54.6875 
L 63.28125 0 
L 52.6875 0 
L 40.921875 44.828125 
L 29.109375 0 
L 18.5 0 
z
" id="DejaVuSans-77"/>
      <path d="M 11.71875 12.40625 
L 22.015625 12.40625 
L 22.015625 4 
L 14.015625 -11.625 
L 7.71875 -11.625 
L 11.71875 4 
z
" id="DejaVuSans-2c"/>
     </defs>
     <g transform="translate(474.109261 126.070653)scale(0.1 -0.1)">
      <use xlink:href="#DejaVuSans-45"/>
      <use x="63.183594" xlink:href="#DejaVuSans-71"/>
      <use x="126.660156" xlink:href="#DejaVuSans-75"/>
      <use x="190.039062" xlink:href="#DejaVuSans-69"/>
      <use x="217.822266" xlink:href="#DejaVuSans-76"/>
      <use x="277.001953" xlink:href="#DejaVuSans-6f"/>
      <use x="338.183594" xlink:href="#DejaVuSans-63"/>
      <use x="393.164062" xlink:href="#DejaVuSans-61"/>
      <use x="454.443359" xlink:href="#DejaVuSans-6c"/>
      <use x="482.226562" xlink:href="#DejaVuSans-6c"/>
      <use x="510.009766" xlink:href="#DejaVuSans-79"/>
      <use x="569.189453" xlink:href="#DejaVuSans-20"/>
      <use x="600.976562" xlink:href="#DejaVuSans-77"/>
      <use x="682.763672" xlink:href="#DejaVuSans-68"/>
      <use x="746.142578" xlink:href="#DejaVuSans-65"/>
      <use x="807.666016" xlink:href="#DejaVuSans-6e"/>
      <use x="871.044922" xlink:href="#DejaVuSans-20"/>
      <use x="902.832031" xlink:href="#DejaVuSans-2c"/>
      <use x="934.619141" xlink:href="#DejaVuSans-20"/>
      <use x="966.40625" xlink:href="#DejaVuSans-74"/>
      <use x="1005.615234" xlink:href="#DejaVuSans-68"/>
      <use x="1068.994141" xlink:href="#DejaVuSans-6f"/>
      <use x="1130.175781" xlink:href="#DejaVuSans-75"/>
      <use x="1193.554688" xlink:href="#DejaVuSans-67"/>
      <use x="1257.03125" xlink:href="#DejaVuSans-68"/>
      <use x="1320.410156" xlink:href="#DejaVuSans-20"/>
      <use x="1352.197266" xlink:href="#DejaVuSans-74"/>
      <use x="1391.40625" xlink:href="#DejaVuSans-68"/>
      <use x="1454.785156" xlink:href="#DejaVuSans-65"/>
      <use x="1516.308594" xlink:href="#DejaVuSans-79"/>
     </g>
    </g>
    <g clip-path="url(#p9f483c3a90)">
     <!-- have a common name , the -->
     <g transform="translate(483.853792 137.268466)scale(0.1 -0.1)">
      <use xlink:href="#DejaVuSans-68"/>
      <use x="63.378906" xlink:href="#DejaVuSans-61"/>
      <use x="124.658203" xlink:href="#DejaVuSans-76"/>
      <use x="183.837891" xlink:href="#DejaVuSans-65"/>
      <use x="245.361328" xlink:href="#DejaVuSans-20"/>
      <use x="277.148438" xlink:href="#DejaVuSans-61"/>
      <use x="338.427734" xlink:href="#DejaVuSans-20"/>
      <use x="370.214844" xlink:href="#DejaVuSans-63"/>
      <use x="425.195312" xlink:href="#DejaVuSans-6f"/>
      <use x="486.376953" xlink:href="#DejaVuSans-6d"/>
      <use x="583.789062" xlink:href="#DejaVuSans-6d"/>
      <use x="681.201172" xlink:href="#DejaVuSans-6f"/>
      <use x="742.382812" xlink:href="#DejaVuSans-6e"/>
      <use x="805.761719" xlink:href="#DejaVuSans-20"/>
      <use x="837.548828" xlink:href="#DejaVuSans-6e"/>
      <use x="900.927734" xlink:href="#DejaVuSans-61"/>
      <use x="962.207031" xlink:href="#DejaVuSans-6d"/>
      <use x="1059.619141" xlink:href="#DejaVuSans-65"/>
      <use x="1121.142578" xlink:href="#DejaVuSans-20"/>
      <use x="1152.929688" xlink:href="#DejaVuSans-2c"/>
      <use x="1184.716797" xlink:href="#DejaVuSans-20"/>
      <use x="1216.503906" xlink:href="#DejaVuSans-74"/>
      <use x="1255.712891" xlink:href="#DejaVuSans-68"/>
      <use x="1319.091797" xlink:href="#DejaVuSans-65"/>
     </g>
    </g>
    <g clip-path="url(#p9f483c3a90)">
     <!-- definition corresponding with -->
     <defs>
      <path d="M 37.109375 75.984375 
L 37.109375 68.5 
L 28.515625 68.5 
Q 23.6875 68.5 21.796875 66.546875 
Q 19.921875 64.59375 19.921875 59.515625 
L 19.921875 54.6875 
L 34.71875 54.6875 
L 34.71875 47.703125 
L 19.921875 47.703125 
L 19.921875 0 
L 10.890625 0 
L 10.890625 47.703125 
L 2.296875 47.703125 
L 2.296875 54.6875 
L 10.890625 54.6875 
L 10.890625 58.5 
Q 10.890625 67.625 15.140625 71.796875 
Q 19.390625 75.984375 28.609375 75.984375 
z
" id="DejaVuSans-66"/>
      <path d="M 18.109375 8.203125 
L 18.109375 -20.796875 
L 9.078125 -20.796875 
L 9.078125 54.6875 
L 18.109375 54.6875 
L 18.109375 46.390625 
Q 20.953125 51.265625 25.265625 53.625 
Q 29.59375 56 35.59375 56 
Q 45.5625 56 51.78125 48.09375 
Q 58.015625 40.1875 58.015625 27.296875 
Q 58.015625 14.40625 51.78125 6.484375 
Q 45.5625 -1.421875 35.59375 -1.421875 
Q 29.59375 -1.421875 25.265625 0.953125 
Q 20.953125 3.328125 18.109375 8.203125 
z
M 48.6875 27.296875 
Q 48.6875 37.203125 44.609375 42.84375 
Q 40.53125 48.484375 33.40625 48.484375 
Q 26.265625 48.484375 22.1875 42.84375 
Q 18.109375 37.203125 18.109375 27.296875 
Q 18.109375 17.390625 22.1875 11.75 
Q 26.265625 6.109375 33.40625 6.109375 
Q 40.53125 6.109375 44.609375 11.75 
Q 48.6875 17.390625 48.6875 27.296875 
z
" id="DejaVuSans-70"/>
     </defs>
     <g transform="translate(479.656136 148.466278)scale(0.1 -0.1)">
      <use xlink:href="#DejaVuSans-64"/>
      <use x="63.476562" xlink:href="#DejaVuSans-65"/>
      <use x="125" xlink:href="#DejaVuSans-66"/>
      <use x="160.205078" xlink:href="#DejaVuSans-69"/>
      <use x="187.988281" xlink:href="#DejaVuSans-6e"/>
      <use x="251.367188" xlink:href="#DejaVuSans-69"/>
      <use x="279.150391" xlink:href="#DejaVuSans-74"/>
      <use x="318.359375" xlink:href="#DejaVuSans-69"/>
      <use x="346.142578" xlink:href="#DejaVuSans-6f"/>
      <use x="407.324219" xlink:href="#DejaVuSans-6e"/>
      <use x="470.703125" xlink:href="#DejaVuSans-20"/>
      <use x="502.490234" xlink:href="#DejaVuSans-63"/>
      <use x="557.470703" xlink:href="#DejaVuSans-6f"/>
      <use x="618.652344" xlink:href="#DejaVuSans-72"/>
      <use x="659.75" xlink:href="#DejaVuSans-72"/>
      <use x="700.832031" xlink:href="#DejaVuSans-65"/>
      <use x="762.355469" xlink:href="#DejaVuSans-73"/>
      <use x="814.455078" xlink:href="#DejaVuSans-70"/>
      <use x="877.931641" xlink:href="#DejaVuSans-6f"/>
      <use x="939.113281" xlink:href="#DejaVuSans-6e"/>
      <use x="1002.492188" xlink:href="#DejaVuSans-64"/>
      <use x="1065.96875" xlink:href="#DejaVuSans-69"/>
      <use x="1093.751953" xlink:href="#DejaVuSans-6e"/>
      <use x="1157.130859" xlink:href="#DejaVuSans-67"/>
      <use x="1220.607422" xlink:href="#DejaVuSans-20"/>
      <use x="1252.394531" xlink:href="#DejaVuSans-77"/>
      <use x="1334.181641" xlink:href="#DejaVuSans-69"/>
      <use x="1361.964844" xlink:href="#DejaVuSans-74"/>
      <use x="1401.173828" xlink:href="#DejaVuSans-68"/>
     </g>
    </g>
    <g clip-path="url(#p9f483c3a90)">
     <!-- the name differs for each . -->
     <defs>
      <path d="M 10.6875 12.40625 
L 21 12.40625 
L 21 0 
L 10.6875 0 
z
" id="DejaVuSans-2e"/>
     </defs>
     <g transform="translate(486.210042 159.664091)scale(0.1 -0.1)">
      <use xlink:href="#DejaVuSans-74"/>
      <use x="39.208984" xlink:href="#DejaVuSans-68"/>
      <use x="102.587891" xlink:href="#DejaVuSans-65"/>
      <use x="164.111328" xlink:href="#DejaVuSans-20"/>
      <use x="195.898438" xlink:href="#DejaVuSans-6e"/>
      <use x="259.277344" xlink:href="#DejaVuSans-61"/>
      <use x="320.556641" xlink:href="#DejaVuSans-6d"/>
      <use x="417.96875" xlink:href="#DejaVuSans-65"/>
      <use x="479.492188" xlink:href="#DejaVuSans-20"/>
      <use x="511.279297" xlink:href="#DejaVuSans-64"/>
      <use x="574.755859" xlink:href="#DejaVuSans-69"/>
      <use x="602.539062" xlink:href="#DejaVuSans-66"/>
      <use x="637.744141" xlink:href="#DejaVuSans-66"/>
      <use x="672.949219" xlink:href="#DejaVuSans-65"/>
      <use x="734.472656" xlink:href="#DejaVuSans-72"/>
      <use x="775.585938" xlink:href="#DejaVuSans-73"/>
      <use x="827.685547" xlink:href="#DejaVuSans-20"/>
      <use x="859.472656" xlink:href="#DejaVuSans-66"/>
      <use x="894.677734" xlink:href="#DejaVuSans-6f"/>
      <use x="955.859375" xlink:href="#DejaVuSans-72"/>
      <use x="996.972656" xlink:href="#DejaVuSans-20"/>
      <use x="1028.759766" xlink:href="#DejaVuSans-65"/>
      <use x="1090.283203" xlink:href="#DejaVuSans-61"/>
      <use x="1151.5625" xlink:href="#DejaVuSans-63"/>
      <use x="1206.542969" xlink:href="#DejaVuSans-68"/>
      <use x="1269.921875" xlink:href="#DejaVuSans-20"/>
      <use x="1301.708984" xlink:href="#DejaVuSans-2e"/>
     </g>
    </g>
   </g>
   <g id="text_2">
    <g clip-path="url(#p9f483c3a90)">
     <!-- 2  Things are said to be named -->
     <defs>
      <path d="M 19.1875 8.296875 
L 53.609375 8.296875 
L 53.609375 0 
L 7.328125 0 
L 7.328125 8.296875 
Q 12.9375 14.109375 22.625 23.890625 
Q 32.328125 33.6875 34.8125 36.53125 
Q 39.546875 41.84375 41.421875 45.53125 
Q 43.3125 49.21875 43.3125 52.78125 
Q 43.3125 58.59375 39.234375 62.25 
Q 35.15625 65.921875 28.609375 65.921875 
Q 23.96875 65.921875 18.8125 64.3125 
Q 13.671875 62.703125 7.8125 59.421875 
L 7.8125 69.390625 
Q 13.765625 71.78125 18.9375 73 
Q 24.125 74.21875 28.421875 74.21875 
Q 39.75 74.21875 46.484375 68.546875 
Q 53.21875 62.890625 53.21875 53.421875 
Q 53.21875 48.921875 51.53125 44.890625 
Q 49.859375 40.875 45.40625 35.40625 
Q 44.1875 33.984375 37.640625 27.21875 
Q 31.109375 20.453125 19.1875 8.296875 
z
" id="DejaVuSans-32"/>
     </defs>
     <g transform="translate(129.717388 235.017202)scale(0.1 -0.1)">
      <use xlink:href="#DejaVuSans-32"/>
      <use x="63.623047" xlink:href="#DejaVuSans-20"/>
      <use x="95.410156" xlink:href="#DejaVuSans-20"/>
      <use x="127.197266" xlink:href="#DejaVuSans-54"/>
      <use x="188.28125" xlink:href="#DejaVuSans-68"/>
      <use x="251.660156" xlink:href="#DejaVuSans-69"/>
      <use x="279.443359" xlink:href="#DejaVuSans-6e"/>
      <use x="342.822266" xlink:href="#DejaVuSans-67"/>
      <use x="406.298828" xlink:href="#DejaVuSans-73"/>
      <use x="458.398438" xlink:href="#DejaVuSans-20"/>
      <use x="490.185547" xlink:href="#DejaVuSans-61"/>
      <use x="551.464844" xlink:href="#DejaVuSans-72"/>
      <use x="592.546875" xlink:href="#DejaVuSans-65"/>
      <use x="654.070312" xlink:href="#DejaVuSans-20"/>
      <use x="685.857422" xlink:href="#DejaVuSans-73"/>
      <use x="737.957031" xlink:href="#DejaVuSans-61"/>
      <use x="799.236328" xlink:href="#DejaVuSans-69"/>
      <use x="827.019531" xlink:href="#DejaVuSans-64"/>
      <use x="890.496094" xlink:href="#DejaVuSans-20"/>
      <use x="922.283203" xlink:href="#DejaVuSans-74"/>
      <use x="961.492188" xlink:href="#DejaVuSans-6f"/>
      <use x="1022.673828" xlink:href="#DejaVuSans-20"/>
      <use x="1054.460938" xlink:href="#DejaVuSans-62"/>
      <use x="1117.9375" xlink:href="#DejaVuSans-65"/>
      <use x="1179.460938" xlink:href="#DejaVuSans-20"/>
      <use x="1211.248047" xlink:href="#DejaVuSans-6e"/>
      <use x="1274.626953" xlink:href="#DejaVuSans-61"/>
      <use x="1335.90625" xlink:href="#DejaVuSans-6d"/>
      <use x="1433.318359" xlink:href="#DejaVuSans-65"/>
      <use x="1494.841797" xlink:href="#DejaVuSans-64"/>
     </g>
    </g>
    <g clip-path="url(#p9f483c3a90)">
     <!-- Equivocally when the -->
     <g transform="translate(154.284575 246.215014)scale(0.1 -0.1)">
      <use xlink:href="#DejaVuSans-45"/>
      <use x="63.183594" xlink:href="#DejaVuSans-71"/>
      <use x="126.660156" xlink:href="#DejaVuSans-75"/>
      <use x="190.039062" xlink:href="#DejaVuSans-69"/>
      <use x="217.822266" xlink:href="#DejaVuSans-76"/>
      <use x="277.001953" xlink:href="#DejaVuSans-6f"/>
      <use x="338.183594" xlink:href="#DejaVuSans-63"/>
      <use x="393.164062" xlink:href="#DejaVuSans-61"/>
      <use x="454.443359" xlink:href="#DejaVuSans-6c"/>
      <use x="482.226562" xlink:href="#DejaVuSans-6c"/>
      <use x="510.009766" xlink:href="#DejaVuSans-79"/>
      <use x="569.189453" xlink:href="#DejaVuSans-20"/>
      <use x="600.976562" xlink:href="#DejaVuSans-77"/>
      <use x="682.763672" xlink:href="#DejaVuSans-68"/>
      <use x="746.142578" xlink:href="#DejaVuSans-65"/>
      <use x="807.666016" xlink:href="#DejaVuSans-6e"/>
      <use x="871.044922" xlink:href="#DejaVuSans-20"/>
      <use x="902.832031" xlink:href="#DejaVuSans-74"/>
      <use x="942.041016" xlink:href="#DejaVuSans-68"/>
      <use x="1005.419922" xlink:href="#DejaVuSans-65"/>
     </g>
    </g>
    <g clip-path="url(#p9f483c3a90)">
     <!-- definition corresponding with -->
     <g transform="translate(134.404888 257.412827)scale(0.1 -0.1)">
      <use xlink:href="#DejaVuSans-64"/>
      <use x="63.476562" xlink:href="#DejaVuSans-65"/>
      <use x="125" xlink:href="#DejaVuSans-66"/>
      <use x="160.205078" xlink:href="#DejaVuSans-69"/>
      <use x="187.988281" xlink:href="#DejaVuSans-6e"/>
      <use x="251.367188" xlink:href="#DejaVuSans-69"/>
      <use x="279.150391" xlink:href="#DejaVuSans-74"/>
      <use x="318.359375" xlink:href="#DejaVuSans-69"/>
      <use x="346.142578" xlink:href="#DejaVuSans-6f"/>
      <use x="407.324219" xlink:href="#DejaVuSans-6e"/>
      <use x="470.703125" xlink:href="#DejaVuSans-20"/>
      <use x="502.490234" xlink:href="#DejaVuSans-63"/>
      <use x="557.470703" xlink:href="#DejaVuSans-6f"/>
      <use x="618.652344" xlink:href="#DejaVuSans-72"/>
      <use x="659.75" xlink:href="#DejaVuSans-72"/>
      <use x="700.832031" xlink:href="#DejaVuSans-65"/>
      <use x="762.355469" xlink:href="#DejaVuSans-73"/>
      <use x="814.455078" xlink:href="#DejaVuSans-70"/>
      <use x="877.931641" xlink:href="#DejaVuSans-6f"/>
      <use x="939.113281" xlink:href="#DejaVuSans-6e"/>
      <use x="1002.492188" xlink:href="#DejaVuSans-64"/>
      <use x="1065.96875" xlink:href="#DejaVuSans-69"/>
      <use x="1093.751953" xlink:href="#DejaVuSans-6e"/>
      <use x="1157.130859" xlink:href="#DejaVuSans-67"/>
      <use x="1220.607422" xlink:href="#DejaVuSans-20"/>
      <use x="1252.394531" xlink:href="#DejaVuSans-77"/>
      <use x="1334.181641" xlink:href="#DejaVuSans-69"/>
      <use x="1361.964844" xlink:href="#DejaVuSans-74"/>
      <use x="1401.173828" xlink:href="#DejaVuSans-68"/>
     </g>
    </g>
    <g clip-path="url(#p9f483c3a90)">
     <!-- the name differs for each -->
     <g transform="translate(144.136919 268.610639)scale(0.1 -0.1)">
      <use xlink:href="#DejaVuSans-74"/>
      <use x="39.208984" xlink:href="#DejaVuSans-68"/>
      <use x="102.587891" xlink:href="#DejaVuSans-65"/>
      <use x="164.111328" xlink:href="#DejaVuSans-20"/>
      <use x="195.898438" xlink:href="#DejaVuSans-6e"/>
      <use x="259.277344" xlink:href="#DejaVuSans-61"/>
      <use x="320.556641" xlink:href="#DejaVuSans-6d"/>
      <use x="417.96875" xlink:href="#DejaVuSans-65"/>
      <use x="479.492188" xlink:href="#DejaVuSans-20"/>
      <use x="511.279297" xlink:href="#DejaVuSans-64"/>
      <use x="574.755859" xlink:href="#DejaVuSans-69"/>
      <use x="602.539062" xlink:href="#DejaVuSans-66"/>
      <use x="637.744141" xlink:href="#DejaVuSans-66"/>
      <use x="672.949219" xlink:href="#DejaVuSans-65"/>
      <use x="734.472656" xlink:href="#DejaVuSans-72"/>
      <use x="775.585938" xlink:href="#DejaVuSans-73"/>
      <use x="827.685547" xlink:href="#DejaVuSans-20"/>
      <use x="859.472656" xlink:href="#DejaVuSans-66"/>
      <use x="894.677734" xlink:href="#DejaVuSans-6f"/>
      <use x="955.859375" xlink:href="#DejaVuSans-72"/>
      <use x="996.972656" xlink:href="#DejaVuSans-20"/>
      <use x="1028.759766" xlink:href="#DejaVuSans-65"/>
      <use x="1090.283203" xlink:href="#DejaVuSans-61"/>
      <use x="1151.5625" xlink:href="#DejaVuSans-63"/>
      <use x="1206.542969" xlink:href="#DejaVuSans-68"/>
     </g>
    </g>
   </g>
   <g id="text_3">
    <g clip-path="url(#p9f483c3a90)">
     <!-- 3  to be named Equivocally -->
     <defs>
      <path d="M 40.578125 39.3125 
Q 47.65625 37.796875 51.625 33 
Q 55.609375 28.21875 55.609375 21.1875 
Q 55.609375 10.40625 48.1875 4.484375 
Q 40.765625 -1.421875 27.09375 -1.421875 
Q 22.515625 -1.421875 17.65625 -0.515625 
Q 12.796875 0.390625 7.625 2.203125 
L 7.625 11.71875 
Q 11.71875 9.328125 16.59375 8.109375 
Q 21.484375 6.890625 26.8125 6.890625 
Q 36.078125 6.890625 40.9375 10.546875 
Q 45.796875 14.203125 45.796875 21.1875 
Q 45.796875 27.640625 41.28125 31.265625 
Q 36.765625 34.90625 28.71875 34.90625 
L 20.21875 34.90625 
L 20.21875 43.015625 
L 29.109375 43.015625 
Q 36.375 43.015625 40.234375 45.921875 
Q 44.09375 48.828125 44.09375 54.296875 
Q 44.09375 59.90625 40.109375 62.90625 
Q 36.140625 65.921875 28.71875 65.921875 
Q 24.65625 65.921875 20.015625 65.03125 
Q 15.375 64.15625 9.8125 62.3125 
L 9.8125 71.09375 
Q 15.4375 72.65625 20.34375 73.4375 
Q 25.25 74.21875 29.59375 74.21875 
Q 40.828125 74.21875 47.359375 69.109375 
Q 53.90625 64.015625 53.90625 55.328125 
Q 53.90625 49.265625 50.4375 45.09375 
Q 46.96875 40.921875 40.578125 39.3125 
z
" id="DejaVuSans-33"/>
     </defs>
     <g transform="translate(139.420513 349.562656)scale(0.1 -0.1)">
      <use xlink:href="#DejaVuSans-33"/>
      <use x="63.623047" xlink:href="#DejaVuSans-20"/>
      <use x="95.410156" xlink:href="#DejaVuSans-20"/>
      <use x="127.197266" xlink:href="#DejaVuSans-74"/>
      <use x="166.40625" xlink:href="#DejaVuSans-6f"/>
      <use x="227.587891" xlink:href="#DejaVuSans-20"/>
      <use x="259.375" xlink:href="#DejaVuSans-62"/>
      <use x="322.851562" xlink:href="#DejaVuSans-65"/>
      <use x="384.375" xlink:href="#DejaVuSans-20"/>
      <use x="416.162109" xlink:href="#DejaVuSans-6e"/>
      <use x="479.541016" xlink:href="#DejaVuSans-61"/>
      <use x="540.820312" xlink:href="#DejaVuSans-6d"/>
      <use x="638.232422" xlink:href="#DejaVuSans-65"/>
      <use x="699.755859" xlink:href="#DejaVuSans-64"/>
      <use x="763.232422" xlink:href="#DejaVuSans-20"/>
      <use x="795.019531" xlink:href="#DejaVuSans-45"/>
      <use x="858.203125" xlink:href="#DejaVuSans-71"/>
      <use x="921.679688" xlink:href="#DejaVuSans-75"/>
      <use x="985.058594" xlink:href="#DejaVuSans-69"/>
      <use x="1012.841797" xlink:href="#DejaVuSans-76"/>
      <use x="1072.021484" xlink:href="#DejaVuSans-6f"/>
      <use x="1133.203125" xlink:href="#DejaVuSans-63"/>
      <use x="1188.183594" xlink:href="#DejaVuSans-61"/>
      <use x="1249.462891" xlink:href="#DejaVuSans-6c"/>
      <use x="1277.246094" xlink:href="#DejaVuSans-6c"/>
      <use x="1305.029297" xlink:href="#DejaVuSans-79"/>
     </g>
    </g>
    <g clip-path="url(#p9f483c3a90)">
     <!-- when the definition -->
     <g transform="translate(159.210356 360.760469)scale(0.1 -0.1)">
      <use xlink:href="#DejaVuSans-77"/>
      <use x="81.787109" xlink:href="#DejaVuSans-68"/>
      <use x="145.166016" xlink:href="#DejaVuSans-65"/>
      <use x="206.689453" xlink:href="#DejaVuSans-6e"/>
      <use x="270.068359" xlink:href="#DejaVuSans-20"/>
      <use x="301.855469" xlink:href="#DejaVuSans-74"/>
      <use x="341.064453" xlink:href="#DejaVuSans-68"/>
      <use x="404.443359" xlink:href="#DejaVuSans-65"/>
      <use x="465.966797" xlink:href="#DejaVuSans-20"/>
      <use x="497.753906" xlink:href="#DejaVuSans-64"/>
      <use x="561.230469" xlink:href="#DejaVuSans-65"/>
      <use x="622.753906" xlink:href="#DejaVuSans-66"/>
      <use x="657.958984" xlink:href="#DejaVuSans-69"/>
      <use x="685.742188" xlink:href="#DejaVuSans-6e"/>
      <use x="749.121094" xlink:href="#DejaVuSans-69"/>
      <use x="776.904297" xlink:href="#DejaVuSans-74"/>
      <use x="816.113281" xlink:href="#DejaVuSans-69"/>
      <use x="843.896484" xlink:href="#DejaVuSans-6f"/>
      <use x="905.078125" xlink:href="#DejaVuSans-6e"/>
     </g>
    </g>
    <g clip-path="url(#p9f483c3a90)">
     <!-- corresponding with the name -->
     <g transform="translate(133.965825 371.958281)scale(0.1 -0.1)">
      <use xlink:href="#DejaVuSans-63"/>
      <use x="54.980469" xlink:href="#DejaVuSans-6f"/>
      <use x="116.162109" xlink:href="#DejaVuSans-72"/>
      <use x="157.259766" xlink:href="#DejaVuSans-72"/>
      <use x="198.341797" xlink:href="#DejaVuSans-65"/>
      <use x="259.865234" xlink:href="#DejaVuSans-73"/>
      <use x="311.964844" xlink:href="#DejaVuSans-70"/>
      <use x="375.441406" xlink:href="#DejaVuSans-6f"/>
      <use x="436.623047" xlink:href="#DejaVuSans-6e"/>
      <use x="500.001953" xlink:href="#DejaVuSans-64"/>
      <use x="563.478516" xlink:href="#DejaVuSans-69"/>
      <use x="591.261719" xlink:href="#DejaVuSans-6e"/>
      <use x="654.640625" xlink:href="#DejaVuSans-67"/>
      <use x="718.117188" xlink:href="#DejaVuSans-20"/>
      <use x="749.904297" xlink:href="#DejaVuSans-77"/>
      <use x="831.691406" xlink:href="#DejaVuSans-69"/>
      <use x="859.474609" xlink:href="#DejaVuSans-74"/>
      <use x="898.683594" xlink:href="#DejaVuSans-68"/>
      <use x="962.0625" xlink:href="#DejaVuSans-20"/>
      <use x="993.849609" xlink:href="#DejaVuSans-74"/>
      <use x="1033.058594" xlink:href="#DejaVuSans-68"/>
      <use x="1096.4375" xlink:href="#DejaVuSans-65"/>
      <use x="1157.960938" xlink:href="#DejaVuSans-20"/>
      <use x="1189.748047" xlink:href="#DejaVuSans-6e"/>
      <use x="1253.126953" xlink:href="#DejaVuSans-61"/>
      <use x="1314.40625" xlink:href="#DejaVuSans-6d"/>
      <use x="1411.818359" xlink:href="#DejaVuSans-65"/>
     </g>
    </g>
    <g clip-path="url(#p9f483c3a90)">
     <!-- differs for each -->
     <g transform="translate(169.7002 383.156094)scale(0.1 -0.1)">
      <use xlink:href="#DejaVuSans-64"/>
      <use x="63.476562" xlink:href="#DejaVuSans-69"/>
      <use x="91.259766" xlink:href="#DejaVuSans-66"/>
      <use x="126.464844" xlink:href="#DejaVuSans-66"/>
      <use x="161.669922" xlink:href="#DejaVuSans-65"/>
      <use x="223.193359" xlink:href="#DejaVuSans-72"/>
      <use x="264.306641" xlink:href="#DejaVuSans-73"/>
      <use x="316.40625" xlink:href="#DejaVuSans-20"/>
      <use x="348.193359" xlink:href="#DejaVuSans-66"/>
      <use x="383.398438" xlink:href="#DejaVuSans-6f"/>
      <use x="444.580078" xlink:href="#DejaVuSans-72"/>
      <use x="485.693359" xlink:href="#DejaVuSans-20"/>
      <use x="517.480469" xlink:href="#DejaVuSans-65"/>
      <use x="579.003906" xlink:href="#DejaVuSans-61"/>
      <use x="640.283203" xlink:href="#DejaVuSans-63"/>
      <use x="695.263672" xlink:href="#DejaVuSans-68"/>
     </g>
    </g>
   </g>
   <g id="text_4">
    <g clip-path="url(#p9f483c3a90)">
     <!-- 5  when the definition -->
     <defs>
      <path d="M 10.796875 72.90625 
L 49.515625 72.90625 
L 49.515625 64.59375 
L 19.828125 64.59375 
L 19.828125 46.734375 
Q 21.96875 47.46875 24.109375 47.828125 
Q 26.265625 48.1875 28.421875 48.1875 
Q 40.625 48.1875 47.75 41.5 
Q 54.890625 34.8125 54.890625 23.390625 
Q 54.890625 11.625 47.5625 5.09375 
Q 40.234375 -1.421875 26.90625 -1.421875 
Q 22.3125 -1.421875 17.546875 -0.640625 
Q 12.796875 0.140625 7.71875 1.703125 
L 7.71875 11.625 
Q 12.109375 9.234375 16.796875 8.0625 
Q 21.484375 6.890625 26.703125 6.890625 
Q 35.15625 6.890625 40.078125 11.328125 
Q 45.015625 15.765625 45.015625 23.390625 
Q 45.015625 31 40.078125 35.4375 
Q 35.15625 39.890625 26.703125 39.890625 
Q 22.75 39.890625 18.8125 39.015625 
Q 14.890625 38.140625 10.796875 36.28125 
z
" id="DejaVuSans-35"/>
     </defs>
     <g transform="translate(152.850981 469.707017)scale(0.1 -0.1)">
      <use xlink:href="#DejaVuSans-35"/>
      <use x="63.623047" xlink:href="#DejaVuSans-20"/>
      <use x="95.410156" xlink:href="#DejaVuSans-20"/>
      <use x="127.197266" xlink:href="#DejaVuSans-77"/>
      <use x="208.984375" xlink:href="#DejaVuSans-68"/>
      <use x="272.363281" xlink:href="#DejaVuSans-65"/>
      <use x="333.886719" xlink:href="#DejaVuSans-6e"/>
      <use x="397.265625" xlink:href="#DejaVuSans-20"/>
      <use x="429.052734" xlink:href="#DejaVuSans-74"/>
      <use x="468.261719" xlink:href="#DejaVuSans-68"/>
      <use x="531.640625" xlink:href="#DejaVuSans-65"/>
      <use x="593.164062" xlink:href="#DejaVuSans-20"/>
      <use x="624.951172" xlink:href="#DejaVuSans-64"/>
      <use x="688.427734" xlink:href="#DejaVuSans-65"/>
      <use x="749.951172" xlink:href="#DejaVuSans-66"/>
      <use x="785.15625" xlink:href="#DejaVuSans-69"/>
      <use x="812.939453" xlink:href="#DejaVuSans-6e"/>
      <use x="876.318359" xlink:href="#DejaVuSans-69"/>
      <use x="904.101562" xlink:href="#DejaVuSans-74"/>
      <use x="943.310547" xlink:href="#DejaVuSans-69"/>
      <use x="971.09375" xlink:href="#DejaVuSans-6f"/>
      <use x="1032.275391" xlink:href="#DejaVuSans-6e"/>
     </g>
    </g>
    <g clip-path="url(#p9f483c3a90)">
     <!-- corresponding with the name -->
     <g transform="translate(133.965825 480.90483)scale(0.1 -0.1)">
      <use xlink:href="#DejaVuSans-63"/>
      <use x="54.980469" xlink:href="#DejaVuSans-6f"/>
      <use x="116.162109" xlink:href="#DejaVuSans-72"/>
      <use x="157.259766" xlink:href="#DejaVuSans-72"/>
      <use x="198.341797" xlink:href="#DejaVuSans-65"/>
      <use x="259.865234" xlink:href="#DejaVuSans-73"/>
      <use x="311.964844" xlink:href="#DejaVuSans-70"/>
      <use x="375.441406" xlink:href="#DejaVuSans-6f"/>
      <use x="436.623047" xlink:href="#DejaVuSans-6e"/>
      <use x="500.001953" xlink:href="#DejaVuSans-64"/>
      <use x="563.478516" xlink:href="#DejaVuSans-69"/>
      <use x="591.261719" xlink:href="#DejaVuSans-6e"/>
      <use x="654.640625" xlink:href="#DejaVuSans-67"/>
      <use x="718.117188" xlink:href="#DejaVuSans-20"/>
      <use x="749.904297" xlink:href="#DejaVuSans-77"/>
      <use x="831.691406" xlink:href="#DejaVuSans-69"/>
      <use x="859.474609" xlink:href="#DejaVuSans-74"/>
      <use x="898.683594" xlink:href="#DejaVuSans-68"/>
      <use x="962.0625" xlink:href="#DejaVuSans-20"/>
      <use x="993.849609" xlink:href="#DejaVuSans-74"/>
      <use x="1033.058594" xlink:href="#DejaVuSans-68"/>
      <use x="1096.4375" xlink:href="#DejaVuSans-65"/>
      <use x="1157.960938" xlink:href="#DejaVuSans-20"/>
      <use x="1189.748047" xlink:href="#DejaVuSans-6e"/>
      <use x="1253.126953" xlink:href="#DejaVuSans-61"/>
      <use x="1314.40625" xlink:href="#DejaVuSans-6d"/>
      <use x="1411.818359" xlink:href="#DejaVuSans-65"/>
     </g>
    </g>
    <g clip-path="url(#p9f483c3a90)">
     <!-- differs for each -->
     <g transform="translate(169.7002 492.102642)scale(0.1 -0.1)">
      <use xlink:href="#DejaVuSans-64"/>
      <use x="63.476562" xlink:href="#DejaVuSans-69"/>
      <use x="91.259766" xlink:href="#DejaVuSans-66"/>
      <use x="126.464844" xlink:href="#DejaVuSans-66"/>
      <use x="161.669922" xlink:href="#DejaVuSans-65"/>
      <use x="223.193359" xlink:href="#DejaVuSans-72"/>
      <use x="264.306641" xlink:href="#DejaVuSans-73"/>
      <use x="316.40625" xlink:href="#DejaVuSans-20"/>
      <use x="348.193359" xlink:href="#DejaVuSans-66"/>
      <use x="383.398438" xlink:href="#DejaVuSans-6f"/>
      <use x="444.580078" xlink:href="#DejaVuSans-72"/>
      <use x="485.693359" xlink:href="#DejaVuSans-20"/>
      <use x="517.480469" xlink:href="#DejaVuSans-65"/>
      <use x="579.003906" xlink:href="#DejaVuSans-61"/>
      <use x="640.283203" xlink:href="#DejaVuSans-63"/>
      <use x="695.263672" xlink:href="#DejaVuSans-68"/>
     </g>
    </g>
   </g>
   <g id="text_5">
    <g clip-path="url(#p9f483c3a90)">
     <!-- 4  though they have a common -->
     <defs>
      <path d="M 37.796875 64.3125 
L 12.890625 25.390625 
L 37.796875 25.390625 
z
M 35.203125 72.90625 
L 47.609375 72.90625 
L 47.609375 25.390625 
L 58.015625 25.390625 
L 58.015625 17.1875 
L 47.609375 17.1875 
L 47.609375 0 
L 37.796875 0 
L 37.796875 17.1875 
L 4.890625 17.1875 
L 4.890625 26.703125 
z
" id="DejaVuSans-34"/>
     </defs>
     <g transform="translate(820.677144 246.215014)scale(0.1 -0.1)">
      <use xlink:href="#DejaVuSans-34"/>
      <use x="63.623047" xlink:href="#DejaVuSans-20"/>
      <use x="95.410156" xlink:href="#DejaVuSans-20"/>
      <use x="127.197266" xlink:href="#DejaVuSans-74"/>
      <use x="166.40625" xlink:href="#DejaVuSans-68"/>
      <use x="229.785156" xlink:href="#DejaVuSans-6f"/>
      <use x="290.966797" xlink:href="#DejaVuSans-75"/>
      <use x="354.345703" xlink:href="#DejaVuSans-67"/>
      <use x="417.822266" xlink:href="#DejaVuSans-68"/>
      <use x="481.201172" xlink:href="#DejaVuSans-20"/>
      <use x="512.988281" xlink:href="#DejaVuSans-74"/>
      <use x="552.197266" xlink:href="#DejaVuSans-68"/>
      <use x="615.576172" xlink:href="#DejaVuSans-65"/>
      <use x="677.099609" xlink:href="#DejaVuSans-79"/>
      <use x="736.279297" xlink:href="#DejaVuSans-20"/>
      <use x="768.066406" xlink:href="#DejaVuSans-68"/>
      <use x="831.445312" xlink:href="#DejaVuSans-61"/>
      <use x="892.724609" xlink:href="#DejaVuSans-76"/>
      <use x="951.904297" xlink:href="#DejaVuSans-65"/>
      <use x="1013.427734" xlink:href="#DejaVuSans-20"/>
      <use x="1045.214844" xlink:href="#DejaVuSans-61"/>
      <use x="1106.494141" xlink:href="#DejaVuSans-20"/>
      <use x="1138.28125" xlink:href="#DejaVuSans-63"/>
      <use x="1193.261719" xlink:href="#DejaVuSans-6f"/>
      <use x="1254.443359" xlink:href="#DejaVuSans-6d"/>
      <use x="1351.855469" xlink:href="#DejaVuSans-6d"/>
      <use x="1449.267578" xlink:href="#DejaVuSans-6f"/>
      <use x="1510.449219" xlink:href="#DejaVuSans-6e"/>
     </g>
    </g>
    <g clip-path="url(#p9f483c3a90)">
     <!-- name -->
     <g transform="translate(885.188081 257.412827)scale(0.1 -0.1)">
      <use xlink:href="#DejaVuSans-6e"/>
      <use x="63.378906" xlink:href="#DejaVuSans-61"/>
      <use x="124.658203" xlink:href="#DejaVuSans-6d"/>
      <use x="222.070312" xlink:href="#DejaVuSans-65"/>
     </g>
    </g>
   </g>
   <g id="text_6">
    <g clip-path="url(#p9f483c3a90)">
     <!-- 1  the definition -->
     <defs>
      <path d="M 12.40625 8.296875 
L 28.515625 8.296875 
L 28.515625 63.921875 
L 10.984375 60.40625 
L 10.984375 69.390625 
L 28.421875 72.90625 
L 38.28125 72.90625 
L 38.28125 8.296875 
L 54.390625 8.296875 
L 54.390625 0 
L 12.40625 0 
z
" id="DejaVuSans-31"/>
     </defs>
     <g transform="translate(167.943169 589.851378)scale(0.1 -0.1)">
      <use xlink:href="#DejaVuSans-31"/>
      <use x="63.623047" xlink:href="#DejaVuSans-20"/>
      <use x="95.410156" xlink:href="#DejaVuSans-20"/>
      <use x="127.197266" xlink:href="#DejaVuSans-74"/>
      <use x="166.40625" xlink:href="#DejaVuSans-68"/>
      <use x="229.785156" xlink:href="#DejaVuSans-65"/>
      <use x="291.308594" xlink:href="#DejaVuSans-20"/>
      <use x="323.095703" xlink:href="#DejaVuSans-64"/>
      <use x="386.572266" xlink:href="#DejaVuSans-65"/>
      <use x="448.095703" xlink:href="#DejaVuSans-66"/>
      <use x="483.300781" xlink:href="#DejaVuSans-69"/>
      <use x="511.083984" xlink:href="#DejaVuSans-6e"/>
      <use x="574.462891" xlink:href="#DejaVuSans-69"/>
      <use x="602.246094" xlink:href="#DejaVuSans-74"/>
      <use x="641.455078" xlink:href="#DejaVuSans-69"/>
      <use x="669.238281" xlink:href="#DejaVuSans-6f"/>
      <use x="730.419922" xlink:href="#DejaVuSans-6e"/>
     </g>
    </g>
    <g clip-path="url(#p9f483c3a90)">
     <!-- corresponding with the name -->
     <g transform="translate(133.965825 601.04919)scale(0.1 -0.1)">
      <use xlink:href="#DejaVuSans-63"/>
      <use x="54.980469" xlink:href="#DejaVuSans-6f"/>
      <use x="116.162109" xlink:href="#DejaVuSans-72"/>
      <use x="157.259766" xlink:href="#DejaVuSans-72"/>
      <use x="198.341797" xlink:href="#DejaVuSans-65"/>
      <use x="259.865234" xlink:href="#DejaVuSans-73"/>
      <use x="311.964844" xlink:href="#DejaVuSans-70"/>
      <use x="375.441406" xlink:href="#DejaVuSans-6f"/>
      <use x="436.623047" xlink:href="#DejaVuSans-6e"/>
      <use x="500.001953" xlink:href="#DejaVuSans-64"/>
      <use x="563.478516" xlink:href="#DejaVuSans-69"/>
      <use x="591.261719" xlink:href="#DejaVuSans-6e"/>
      <use x="654.640625" xlink:href="#DejaVuSans-67"/>
      <use x="718.117188" xlink:href="#DejaVuSans-20"/>
      <use x="749.904297" xlink:href="#DejaVuSans-77"/>
      <use x="831.691406" xlink:href="#DejaVuSans-69"/>
      <use x="859.474609" xlink:href="#DejaVuSans-74"/>
      <use x="898.683594" xlink:href="#DejaVuSans-68"/>
      <use x="962.0625" xlink:href="#DejaVuSans-20"/>
      <use x="993.849609" xlink:href="#DejaVuSans-74"/>
      <use x="1033.058594" xlink:href="#DejaVuSans-68"/>
      <use x="1096.4375" xlink:href="#DejaVuSans-65"/>
      <use x="1157.960938" xlink:href="#DejaVuSans-20"/>
      <use x="1189.748047" xlink:href="#DejaVuSans-6e"/>
      <use x="1253.126953" xlink:href="#DejaVuSans-61"/>
      <use x="1314.40625" xlink:href="#DejaVuSans-6d"/>
      <use x="1411.818359" xlink:href="#DejaVuSans-65"/>
     </g>
    </g>
   </g>
   <g id="text_7">
    <g clip-path="url(#p9f483c3a90)">
     <!-- 0  a common name -->
     <defs>
      <path d="M 31.78125 66.40625 
Q 24.171875 66.40625 20.328125 58.90625 
Q 16.5 51.421875 16.5 36.375 
Q 16.5 21.390625 20.328125 13.890625 
Q 24.171875 6.390625 31.78125 6.390625 
Q 39.453125 6.390625 43.28125 13.890625 
Q 47.125 21.390625 47.125 36.375 
Q 47.125 51.421875 43.28125 58.90625 
Q 39.453125 66.40625 31.78125 66.40625 
z
M 31.78125 74.21875 
Q 44.046875 74.21875 50.515625 64.515625 
Q 56.984375 54.828125 56.984375 36.375 
Q 56.984375 17.96875 50.515625 8.265625 
Q 44.046875 -1.421875 31.78125 -1.421875 
Q 19.53125 -1.421875 13.0625 8.265625 
Q 6.59375 17.96875 6.59375 36.375 
Q 6.59375 54.828125 13.0625 64.515625 
Q 19.53125 74.21875 31.78125 74.21875 
z
" id="DejaVuSans-30"/>
     </defs>
     <g transform="translate(850.809175 366.359375)scale(0.1 -0.1)">
      <use xlink:href="#DejaVuSans-30"/>
      <use x="63.623047" xlink:href="#DejaVuSans-20"/>
      <use x="95.410156" xlink:href="#DejaVuSans-20"/>
      <use x="127.197266" xlink:href="#DejaVuSans-61"/>
      <use x="188.476562" xlink:href="#DejaVuSans-20"/>
      <use x="220.263672" xlink:href="#DejaVuSans-63"/>
      <use x="275.244141" xlink:href="#DejaVuSans-6f"/>
      <use x="336.425781" xlink:href="#DejaVuSans-6d"/>
      <use x="433.837891" xlink:href="#DejaVuSans-6d"/>
      <use x="531.25" xlink:href="#DejaVuSans-6f"/>
      <use x="592.431641" xlink:href="#DejaVuSans-6e"/>
      <use x="655.810547" xlink:href="#DejaVuSans-20"/>
      <use x="687.597656" xlink:href="#DejaVuSans-6e"/>
      <use x="750.976562" xlink:href="#DejaVuSans-61"/>
      <use x="812.255859" xlink:href="#DejaVuSans-6d"/>
      <use x="909.667969" xlink:href="#DejaVuSans-65"/>
     </g>
    </g>
   </g>
   <g id="text_8">
    <!-- Things are said to be named Equivocally when , though they have a common name , the -->
    <g transform="translate(286.455 -0.786875)scale(0.12 -0.12)">
     <use xlink:href="#DejaVuSans-54"/>
     <use x="61.083984" xlink:href="#DejaVuSans-68"/>
     <use x="124.462891" xlink:href="#DejaVuSans-69"/>
     <use x="152.246094" xlink:href="#DejaVuSans-6e"/>
     <use x="215.625" xlink:href="#DejaVuSans-67"/>
     <use x="279.101562" xlink:href="#DejaVuSans-73"/>
     <use x="331.201172" xlink:href="#DejaVuSans-20"/>
     <use x="362.988281" xlink:href="#DejaVuSans-61"/>
     <use x="424.267578" xlink:href="#DejaVuSans-72"/>
     <use x="465.349609" xlink:href="#DejaVuSans-65"/>
     <use x="526.873047" xlink:href="#DejaVuSans-20"/>
     <use x="558.660156" xlink:href="#DejaVuSans-73"/>
     <use x="610.759766" xlink:href="#DejaVuSans-61"/>
     <use x="672.039062" xlink:href="#DejaVuSans-69"/>
     <use x="699.822266" xlink:href="#DejaVuSans-64"/>
     <use x="763.298828" xlink:href="#DejaVuSans-20"/>
     <use x="795.085938" xlink:href="#DejaVuSans-74"/>
     <use x="834.294922" xlink:href="#DejaVuSans-6f"/>
     <use x="895.476562" xlink:href="#DejaVuSans-20"/>
     <use x="927.263672" xlink:href="#DejaVuSans-62"/>
     <use x="990.740234" xlink:href="#DejaVuSans-65"/>
     <use x="1052.263672" xlink:href="#DejaVuSans-20"/>
     <use x="1084.050781" xlink:href="#DejaVuSans-6e"/>
     <use x="1147.429688" xlink:href="#DejaVuSans-61"/>
     <use x="1208.708984" xlink:href="#DejaVuSans-6d"/>
     <use x="1306.121094" xlink:href="#DejaVuSans-65"/>
     <use x="1367.644531" xlink:href="#DejaVuSans-64"/>
     <use x="1431.121094" xlink:href="#DejaVuSans-20"/>
     <use x="1462.908203" xlink:href="#DejaVuSans-45"/>
     <use x="1526.091797" xlink:href="#DejaVuSans-71"/>
     <use x="1589.568359" xlink:href="#DejaVuSans-75"/>
     <use x="1652.947266" xlink:href="#DejaVuSans-69"/>
     <use x="1680.730469" xlink:href="#DejaVuSans-76"/>
     <use x="1739.910156" xlink:href="#DejaVuSans-6f"/>
     <use x="1801.091797" xlink:href="#DejaVuSans-63"/>
     <use x="1856.072266" xlink:href="#DejaVuSans-61"/>
     <use x="1917.351562" xlink:href="#DejaVuSans-6c"/>
     <use x="1945.134766" xlink:href="#DejaVuSans-6c"/>
     <use x="1972.917969" xlink:href="#DejaVuSans-79"/>
     <use x="2032.097656" xlink:href="#DejaVuSans-20"/>
     <use x="2063.884766" xlink:href="#DejaVuSans-77"/>
     <use x="2145.671875" xlink:href="#DejaVuSans-68"/>
     <use x="2209.050781" xlink:href="#DejaVuSans-65"/>
     <use x="2270.574219" xlink:href="#DejaVuSans-6e"/>
     <use x="2333.953125" xlink:href="#DejaVuSans-20"/>
     <use x="2365.740234" xlink:href="#DejaVuSans-2c"/>
     <use x="2397.527344" xlink:href="#DejaVuSans-20"/>
     <use x="2429.314453" xlink:href="#DejaVuSans-74"/>
     <use x="2468.523438" xlink:href="#DejaVuSans-68"/>
     <use x="2531.902344" xlink:href="#DejaVuSans-6f"/>
     <use x="2593.083984" xlink:href="#DejaVuSans-75"/>
     <use x="2656.462891" xlink:href="#DejaVuSans-67"/>
     <use x="2719.939453" xlink:href="#DejaVuSans-68"/>
     <use x="2783.318359" xlink:href="#DejaVuSans-20"/>
     <use x="2815.105469" xlink:href="#DejaVuSans-74"/>
     <use x="2854.314453" xlink:href="#DejaVuSans-68"/>
     <use x="2917.693359" xlink:href="#DejaVuSans-65"/>
     <use x="2979.216797" xlink:href="#DejaVuSans-79"/>
     <use x="3038.396484" xlink:href="#DejaVuSans-20"/>
     <use x="3070.183594" xlink:href="#DejaVuSans-68"/>
     <use x="3133.5625" xlink:href="#DejaVuSans-61"/>
     <use x="3194.841797" xlink:href="#DejaVuSans-76"/>
     <use x="3254.021484" xlink:href="#DejaVuSans-65"/>
     <use x="3315.544922" xlink:href="#DejaVuSans-20"/>
     <use x="3347.332031" xlink:href="#DejaVuSans-61"/>
     <use x="3408.611328" xlink:href="#DejaVuSans-20"/>
     <use x="3440.398438" xlink:href="#DejaVuSans-63"/>
     <use x="3495.378906" xlink:href="#DejaVuSans-6f"/>
     <use x="3556.560547" xlink:href="#DejaVuSans-6d"/>
     <use x="3653.972656" xlink:href="#DejaVuSans-6d"/>
     <use x="3751.384766" xlink:href="#DejaVuSans-6f"/>
     <use x="3812.566406" xlink:href="#DejaVuSans-6e"/>
     <use x="3875.945312" xlink:href="#DejaVuSans-20"/>
     <use x="3907.732422" xlink:href="#DejaVuSans-6e"/>
     <use x="3971.111328" xlink:href="#DejaVuSans-61"/>
     <use x="4032.390625" xlink:href="#DejaVuSans-6d"/>
     <use x="4129.802734" xlink:href="#DejaVuSans-65"/>
     <use x="4191.326172" xlink:href="#DejaVuSans-20"/>
     <use x="4223.113281" xlink:href="#DejaVuSans-2c"/>
     <use x="4254.900391" xlink:href="#DejaVuSans-20"/>
     <use x="4286.6875" xlink:href="#DejaVuSans-74"/>
     <use x="4325.896484" xlink:href="#DejaVuSans-68"/>
     <use x="4389.275391" xlink:href="#DejaVuSans-65"/>
    </g>
    <!-- definition corresponding with the name differs for each . -->
    <g transform="translate(383.712188 12.6505)scale(0.12 -0.12)">
     <use xlink:href="#DejaVuSans-64"/>
     <use x="63.476562" xlink:href="#DejaVuSans-65"/>
     <use x="125" xlink:href="#DejaVuSans-66"/>
     <use x="160.205078" xlink:href="#DejaVuSans-69"/>
     <use x="187.988281" xlink:href="#DejaVuSans-6e"/>
     <use x="251.367188" xlink:href="#DejaVuSans-69"/>
     <use x="279.150391" xlink:href="#DejaVuSans-74"/>
     <use x="318.359375" xlink:href="#DejaVuSans-69"/>
     <use x="346.142578" xlink:href="#DejaVuSans-6f"/>
     <use x="407.324219" xlink:href="#DejaVuSans-6e"/>
     <use x="470.703125" xlink:href="#DejaVuSans-20"/>
     <use x="502.490234" xlink:href="#DejaVuSans-63"/>
     <use x="557.470703" xlink:href="#DejaVuSans-6f"/>
     <use x="618.652344" xlink:href="#DejaVuSans-72"/>
     <use x="659.75" xlink:href="#DejaVuSans-72"/>
     <use x="700.832031" xlink:href="#DejaVuSans-65"/>
     <use x="762.355469" xlink:href="#DejaVuSans-73"/>
     <use x="814.455078" xlink:href="#DejaVuSans-70"/>
     <use x="877.931641" xlink:href="#DejaVuSans-6f"/>
     <use x="939.113281" xlink:href="#DejaVuSans-6e"/>
     <use x="1002.492188" xlink:href="#DejaVuSans-64"/>
     <use x="1065.96875" xlink:href="#DejaVuSans-69"/>
     <use x="1093.751953" xlink:href="#DejaVuSans-6e"/>
     <use x="1157.130859" xlink:href="#DejaVuSans-67"/>
     <use x="1220.607422" xlink:href="#DejaVuSans-20"/>
     <use x="1252.394531" xlink:href="#DejaVuSans-77"/>
     <use x="1334.181641" xlink:href="#DejaVuSans-69"/>
     <use x="1361.964844" xlink:href="#DejaVuSans-74"/>
     <use x="1401.173828" xlink:href="#DejaVuSans-68"/>
     <use x="1464.552734" xlink:href="#DejaVuSans-20"/>
     <use x="1496.339844" xlink:href="#DejaVuSans-74"/>
     <use x="1535.548828" xlink:href="#DejaVuSans-68"/>
     <use x="1598.927734" xlink:href="#DejaVuSans-65"/>
     <use x="1660.451172" xlink:href="#DejaVuSans-20"/>
     <use x="1692.238281" xlink:href="#DejaVuSans-6e"/>
     <use x="1755.617188" xlink:href="#DejaVuSans-61"/>
     <use x="1816.896484" xlink:href="#DejaVuSans-6d"/>
     <use x="1914.308594" xlink:href="#DejaVuSans-65"/>
     <use x="1975.832031" xlink:href="#DejaVuSans-20"/>
     <use x="2007.619141" xlink:href="#DejaVuSans-64"/>
     <use x="2071.095703" xlink:href="#DejaVuSans-69"/>
     <use x="2098.878906" xlink:href="#DejaVuSans-66"/>
     <use x="2134.083984" xlink:href="#DejaVuSans-66"/>
     <use x="2169.289062" xlink:href="#DejaVuSans-65"/>
     <use x="2230.8125" xlink:href="#DejaVuSans-72"/>
     <use x="2271.925781" xlink:href="#DejaVuSans-73"/>
     <use x="2324.025391" xlink:href="#DejaVuSans-20"/>
     <use x="2355.8125" xlink:href="#DejaVuSans-66"/>
     <use x="2391.017578" xlink:href="#DejaVuSans-6f"/>
     <use x="2452.199219" xlink:href="#DejaVuSans-72"/>
     <use x="2493.3125" xlink:href="#DejaVuSans-20"/>
     <use x="2525.099609" xlink:href="#DejaVuSans-65"/>
     <use x="2586.623047" xlink:href="#DejaVuSans-61"/>
     <use x="2647.902344" xlink:href="#DejaVuSans-63"/>
     <use x="2702.882812" xlink:href="#DejaVuSans-68"/>
     <use x="2766.261719" xlink:href="#DejaVuSans-20"/>
     <use x="2798.048828" xlink:href="#DejaVuSans-2e"/>
    </g>
    <!-- 0  4  1  5  3  2  6 -->
    <defs>
     <path d="M 12.890625 0 
L 30.515625 57.90625 
L 42.71875 57.90625 
L 60.296875 0 
L 50.78125 0 
L 36.625 45.90625 
L 22.40625 0 
z
" id="DejaVuSans-2227"/>
    </defs>
    <g transform="translate(477.5475 26.087875)scale(0.12 -0.12)">
     <use xlink:href="#DejaVuSans-30"/>
     <use x="63.623047" xlink:href="#DejaVuSans-20"/>
     <use x="95.410156" xlink:href="#DejaVuSans-2227"/>
     <use x="168.603516" xlink:href="#DejaVuSans-20"/>
     <use x="200.390625" xlink:href="#DejaVuSans-34"/>
     <use x="264.013672" xlink:href="#DejaVuSans-20"/>
     <use x="295.800781" xlink:href="#DejaVuSans-2227"/>
     <use x="368.994141" xlink:href="#DejaVuSans-20"/>
     <use x="400.78125" xlink:href="#DejaVuSans-31"/>
     <use x="464.404297" xlink:href="#DejaVuSans-20"/>
     <use x="496.191406" xlink:href="#DejaVuSans-2227"/>
     <use x="569.384766" xlink:href="#DejaVuSans-20"/>
     <use x="601.171875" xlink:href="#DejaVuSans-35"/>
     <use x="664.794922" xlink:href="#DejaVuSans-20"/>
     <use x="696.582031" xlink:href="#DejaVuSans-2227"/>
     <use x="769.775391" xlink:href="#DejaVuSans-20"/>
     <use x="801.5625" xlink:href="#DejaVuSans-33"/>
     <use x="865.185547" xlink:href="#DejaVuSans-20"/>
     <use x="896.972656" xlink:href="#DejaVuSans-2227"/>
     <use x="970.166016" xlink:href="#DejaVuSans-20"/>
     <use x="1001.953125" xlink:href="#DejaVuSans-32"/>
     <use x="1065.576172" xlink:href="#DejaVuSans-20"/>
     <use x="1097.363281" xlink:href="#DejaVuSans-2227"/>
     <use x="1170.556641" xlink:href="#DejaVuSans-20"/>
     <use x="1202.34375" xlink:href="#DejaVuSans-36"/>
    </g>
    <!--  pyprover.logic.Prop('0')&amp; pyprover.logic.Prop('4')&amp; pyprover.logic.Prop('1')&amp; -->
    <defs>
     <path d="M 19.671875 64.796875 
L 19.671875 37.40625 
L 32.078125 37.40625 
Q 38.96875 37.40625 42.71875 40.96875 
Q 46.484375 44.53125 46.484375 51.125 
Q 46.484375 57.671875 42.71875 61.234375 
Q 38.96875 64.796875 32.078125 64.796875 
z
M 9.8125 72.90625 
L 32.078125 72.90625 
Q 44.34375 72.90625 50.609375 67.359375 
Q 56.890625 61.8125 56.890625 51.125 
Q 56.890625 40.328125 50.609375 34.8125 
Q 44.34375 29.296875 32.078125 29.296875 
L 19.671875 29.296875 
L 19.671875 0 
L 9.8125 0 
z
" id="DejaVuSans-50"/>
     <path d="M 31 75.875 
Q 24.46875 64.65625 21.28125 53.65625 
Q 18.109375 42.671875 18.109375 31.390625 
Q 18.109375 20.125 21.3125 9.0625 
Q 24.515625 -2 31 -13.1875 
L 23.1875 -13.1875 
Q 15.875 -1.703125 12.234375 9.375 
Q 8.59375 20.453125 8.59375 31.390625 
Q 8.59375 42.28125 12.203125 53.3125 
Q 15.828125 64.359375 23.1875 75.875 
z
" id="DejaVuSans-28"/>
     <path d="M 17.921875 72.90625 
L 17.921875 45.796875 
L 9.625 45.796875 
L 9.625 72.90625 
z
" id="DejaVuSans-27"/>
     <path d="M 8.015625 75.875 
L 15.828125 75.875 
Q 23.140625 64.359375 26.78125 53.3125 
Q 30.421875 42.28125 30.421875 31.390625 
Q 30.421875 20.453125 26.78125 9.375 
Q 23.140625 -1.703125 15.828125 -13.1875 
L 8.015625 -13.1875 
Q 14.5 -2 17.703125 9.0625 
Q 20.90625 20.125 20.90625 31.390625 
Q 20.90625 42.671875 17.703125 53.65625 
Q 14.5 64.65625 8.015625 75.875 
z
" id="DejaVuSans-29"/>
     <path d="M 24.3125 39.203125 
Q 19.875 35.25 17.796875 31.3125 
Q 15.71875 27.390625 15.71875 23.09375 
Q 15.71875 15.96875 20.890625 11.234375 
Q 26.078125 6.5 33.890625 6.5 
Q 38.53125 6.5 42.578125 8.03125 
Q 46.625 9.578125 50.203125 12.703125 
z
M 31.203125 44.671875 
L 56 19.28125 
Q 58.890625 23.640625 60.5 28.59375 
Q 62.109375 33.546875 62.40625 39.109375 
L 71.484375 39.109375 
Q 70.90625 32.671875 68.359375 26.359375 
Q 65.828125 20.0625 61.28125 13.921875 
L 74.90625 0 
L 62.59375 0 
L 55.609375 7.171875 
Q 50.53125 2.828125 44.96875 0.703125 
Q 39.40625 -1.421875 33.015625 -1.421875 
Q 21.234375 -1.421875 13.765625 5.296875 
Q 6.296875 12.015625 6.296875 22.515625 
Q 6.296875 28.765625 9.5625 34.25 
Q 12.84375 39.75 19.390625 44.578125 
Q 17.046875 47.65625 15.8125 50.703125 
Q 14.59375 53.765625 14.59375 56.6875 
Q 14.59375 64.59375 20.015625 69.40625 
Q 25.4375 74.21875 34.421875 74.21875 
Q 38.484375 74.21875 42.5 73.34375 
Q 46.53125 72.46875 50.6875 70.703125 
L 50.6875 61.8125 
Q 46.4375 64.109375 42.578125 65.296875 
Q 38.71875 66.5 35.40625 66.5 
Q 30.28125 66.5 27.078125 63.78125 
Q 23.875 61.078125 23.875 56.78125 
Q 23.875 54.296875 25.3125 51.78125 
Q 26.765625 49.265625 31.203125 44.671875 
z
" id="DejaVuSans-26"/>
    </defs>
    <g transform="translate(322.86375 39.52525)scale(0.12 -0.12)">
     <use xlink:href="#DejaVuSans-20"/>
     <use x="31.787109" xlink:href="#DejaVuSans-70"/>
     <use x="95.263672" xlink:href="#DejaVuSans-79"/>
     <use x="154.443359" xlink:href="#DejaVuSans-70"/>
     <use x="217.919922" xlink:href="#DejaVuSans-72"/>
     <use x="259.001953" xlink:href="#DejaVuSans-6f"/>
     <use x="320.183594" xlink:href="#DejaVuSans-76"/>
     <use x="379.363281" xlink:href="#DejaVuSans-65"/>
     <use x="440.886719" xlink:href="#DejaVuSans-72"/>
     <use x="481.859375" xlink:href="#DejaVuSans-2e"/>
     <use x="513.646484" xlink:href="#DejaVuSans-6c"/>
     <use x="541.429688" xlink:href="#DejaVuSans-6f"/>
     <use x="602.611328" xlink:href="#DejaVuSans-67"/>
     <use x="666.087891" xlink:href="#DejaVuSans-69"/>
     <use x="693.871094" xlink:href="#DejaVuSans-63"/>
     <use x="748.851562" xlink:href="#DejaVuSans-2e"/>
     <use x="780.638672" xlink:href="#DejaVuSans-50"/>
     <use x="840.925781" xlink:href="#DejaVuSans-72"/>
     <use x="882.007812" xlink:href="#DejaVuSans-6f"/>
     <use x="943.189453" xlink:href="#DejaVuSans-70"/>
     <use x="1006.666016" xlink:href="#DejaVuSans-28"/>
     <use x="1045.679688" xlink:href="#DejaVuSans-27"/>
     <use x="1073.169922" xlink:href="#DejaVuSans-30"/>
     <use x="1136.792969" xlink:href="#DejaVuSans-27"/>
     <use x="1164.283203" xlink:href="#DejaVuSans-29"/>
     <use x="1203.296875" xlink:href="#DejaVuSans-26"/>
     <use x="1281.275391" xlink:href="#DejaVuSans-20"/>
     <use x="1313.0625" xlink:href="#DejaVuSans-70"/>
     <use x="1376.539062" xlink:href="#DejaVuSans-79"/>
     <use x="1435.71875" xlink:href="#DejaVuSans-70"/>
     <use x="1499.195312" xlink:href="#DejaVuSans-72"/>
     <use x="1540.277344" xlink:href="#DejaVuSans-6f"/>
     <use x="1601.458984" xlink:href="#DejaVuSans-76"/>
     <use x="1660.638672" xlink:href="#DejaVuSans-65"/>
     <use x="1722.162109" xlink:href="#DejaVuSans-72"/>
     <use x="1763.134766" xlink:href="#DejaVuSans-2e"/>
     <use x="1794.921875" xlink:href="#DejaVuSans-6c"/>
     <use x="1822.705078" xlink:href="#DejaVuSans-6f"/>
     <use x="1883.886719" xlink:href="#DejaVuSans-67"/>
     <use x="1947.363281" xlink:href="#DejaVuSans-69"/>
     <use x="1975.146484" xlink:href="#DejaVuSans-63"/>
     <use x="2030.126953" xlink:href="#DejaVuSans-2e"/>
     <use x="2061.914062" xlink:href="#DejaVuSans-50"/>
     <use x="2122.201172" xlink:href="#DejaVuSans-72"/>
     <use x="2163.283203" xlink:href="#DejaVuSans-6f"/>
     <use x="2224.464844" xlink:href="#DejaVuSans-70"/>
     <use x="2287.941406" xlink:href="#DejaVuSans-28"/>
     <use x="2326.955078" xlink:href="#DejaVuSans-27"/>
     <use x="2354.445312" xlink:href="#DejaVuSans-34"/>
     <use x="2418.068359" xlink:href="#DejaVuSans-27"/>
     <use x="2445.558594" xlink:href="#DejaVuSans-29"/>
     <use x="2484.572266" xlink:href="#DejaVuSans-26"/>
     <use x="2562.550781" xlink:href="#DejaVuSans-20"/>
     <use x="2594.337891" xlink:href="#DejaVuSans-70"/>
     <use x="2657.814453" xlink:href="#DejaVuSans-79"/>
     <use x="2716.994141" xlink:href="#DejaVuSans-70"/>
     <use x="2780.470703" xlink:href="#DejaVuSans-72"/>
     <use x="2821.552734" xlink:href="#DejaVuSans-6f"/>
     <use x="2882.734375" xlink:href="#DejaVuSans-76"/>
     <use x="2941.914062" xlink:href="#DejaVuSans-65"/>
     <use x="3003.4375" xlink:href="#DejaVuSans-72"/>
     <use x="3044.410156" xlink:href="#DejaVuSans-2e"/>
     <use x="3076.197266" xlink:href="#DejaVuSans-6c"/>
     <use x="3103.980469" xlink:href="#DejaVuSans-6f"/>
     <use x="3165.162109" xlink:href="#DejaVuSans-67"/>
     <use x="3228.638672" xlink:href="#DejaVuSans-69"/>
     <use x="3256.421875" xlink:href="#DejaVuSans-63"/>
     <use x="3311.402344" xlink:href="#DejaVuSans-2e"/>
     <use x="3343.189453" xlink:href="#DejaVuSans-50"/>
     <use x="3403.476562" xlink:href="#DejaVuSans-72"/>
     <use x="3444.558594" xlink:href="#DejaVuSans-6f"/>
     <use x="3505.740234" xlink:href="#DejaVuSans-70"/>
     <use x="3569.216797" xlink:href="#DejaVuSans-28"/>
     <use x="3608.230469" xlink:href="#DejaVuSans-27"/>
     <use x="3635.720703" xlink:href="#DejaVuSans-31"/>
     <use x="3699.34375" xlink:href="#DejaVuSans-27"/>
     <use x="3726.833984" xlink:href="#DejaVuSans-29"/>
     <use x="3765.847656" xlink:href="#DejaVuSans-26"/>
    </g>
    <!-- pyprover.logic.Prop('5')&amp; pyprover.logic.Prop('3')&amp; pyprover.logic.Prop('2')&amp; -->
    <g transform="translate(324.770625 52.962625)scale(0.12 -0.12)">
     <use xlink:href="#DejaVuSans-70"/>
     <use x="63.476562" xlink:href="#DejaVuSans-79"/>
     <use x="122.65625" xlink:href="#DejaVuSans-70"/>
     <use x="186.132812" xlink:href="#DejaVuSans-72"/>
     <use x="227.214844" xlink:href="#DejaVuSans-6f"/>
     <use x="288.396484" xlink:href="#DejaVuSans-76"/>
     <use x="347.576172" xlink:href="#DejaVuSans-65"/>
     <use x="409.099609" xlink:href="#DejaVuSans-72"/>
     <use x="450.072266" xlink:href="#DejaVuSans-2e"/>
     <use x="481.859375" xlink:href="#DejaVuSans-6c"/>
     <use x="509.642578" xlink:href="#DejaVuSans-6f"/>
     <use x="570.824219" xlink:href="#DejaVuSans-67"/>
     <use x="634.300781" xlink:href="#DejaVuSans-69"/>
     <use x="662.083984" xlink:href="#DejaVuSans-63"/>
     <use x="717.064453" xlink:href="#DejaVuSans-2e"/>
     <use x="748.851562" xlink:href="#DejaVuSans-50"/>
     <use x="809.138672" xlink:href="#DejaVuSans-72"/>
     <use x="850.220703" xlink:href="#DejaVuSans-6f"/>
     <use x="911.402344" xlink:href="#DejaVuSans-70"/>
     <use x="974.878906" xlink:href="#DejaVuSans-28"/>
     <use x="1013.892578" xlink:href="#DejaVuSans-27"/>
     <use x="1041.382812" xlink:href="#DejaVuSans-35"/>
     <use x="1105.005859" xlink:href="#DejaVuSans-27"/>
     <use x="1132.496094" xlink:href="#DejaVuSans-29"/>
     <use x="1171.509766" xlink:href="#DejaVuSans-26"/>
     <use x="1249.488281" xlink:href="#DejaVuSans-20"/>
     <use x="1281.275391" xlink:href="#DejaVuSans-70"/>
     <use x="1344.751953" xlink:href="#DejaVuSans-79"/>
     <use x="1403.931641" xlink:href="#DejaVuSans-70"/>
     <use x="1467.408203" xlink:href="#DejaVuSans-72"/>
     <use x="1508.490234" xlink:href="#DejaVuSans-6f"/>
     <use x="1569.671875" xlink:href="#DejaVuSans-76"/>
     <use x="1628.851562" xlink:href="#DejaVuSans-65"/>
     <use x="1690.375" xlink:href="#DejaVuSans-72"/>
     <use x="1731.347656" xlink:href="#DejaVuSans-2e"/>
     <use x="1763.134766" xlink:href="#DejaVuSans-6c"/>
     <use x="1790.917969" xlink:href="#DejaVuSans-6f"/>
     <use x="1852.099609" xlink:href="#DejaVuSans-67"/>
     <use x="1915.576172" xlink:href="#DejaVuSans-69"/>
     <use x="1943.359375" xlink:href="#DejaVuSans-63"/>
     <use x="1998.339844" xlink:href="#DejaVuSans-2e"/>
     <use x="2030.126953" xlink:href="#DejaVuSans-50"/>
     <use x="2090.414062" xlink:href="#DejaVuSans-72"/>
     <use x="2131.496094" xlink:href="#DejaVuSans-6f"/>
     <use x="2192.677734" xlink:href="#DejaVuSans-70"/>
     <use x="2256.154297" xlink:href="#DejaVuSans-28"/>
     <use x="2295.167969" xlink:href="#DejaVuSans-27"/>
     <use x="2322.658203" xlink:href="#DejaVuSans-33"/>
     <use x="2386.28125" xlink:href="#DejaVuSans-27"/>
     <use x="2413.771484" xlink:href="#DejaVuSans-29"/>
     <use x="2452.785156" xlink:href="#DejaVuSans-26"/>
     <use x="2530.763672" xlink:href="#DejaVuSans-20"/>
     <use x="2562.550781" xlink:href="#DejaVuSans-70"/>
     <use x="2626.027344" xlink:href="#DejaVuSans-79"/>
     <use x="2685.207031" xlink:href="#DejaVuSans-70"/>
     <use x="2748.683594" xlink:href="#DejaVuSans-72"/>
     <use x="2789.765625" xlink:href="#DejaVuSans-6f"/>
     <use x="2850.947266" xlink:href="#DejaVuSans-76"/>
     <use x="2910.126953" xlink:href="#DejaVuSans-65"/>
     <use x="2971.650391" xlink:href="#DejaVuSans-72"/>
     <use x="3012.623047" xlink:href="#DejaVuSans-2e"/>
     <use x="3044.410156" xlink:href="#DejaVuSans-6c"/>
     <use x="3072.193359" xlink:href="#DejaVuSans-6f"/>
     <use x="3133.375" xlink:href="#DejaVuSans-67"/>
     <use x="3196.851562" xlink:href="#DejaVuSans-69"/>
     <use x="3224.634766" xlink:href="#DejaVuSans-63"/>
     <use x="3279.615234" xlink:href="#DejaVuSans-2e"/>
     <use x="3311.402344" xlink:href="#DejaVuSans-50"/>
     <use x="3371.689453" xlink:href="#DejaVuSans-72"/>
     <use x="3412.771484" xlink:href="#DejaVuSans-6f"/>
     <use x="3473.953125" xlink:href="#DejaVuSans-70"/>
     <use x="3537.429688" xlink:href="#DejaVuSans-28"/>
     <use x="3576.443359" xlink:href="#DejaVuSans-27"/>
     <use x="3603.933594" xlink:href="#DejaVuSans-32"/>
     <use x="3667.556641" xlink:href="#DejaVuSans-27"/>
     <use x="3695.046875" xlink:href="#DejaVuSans-29"/>
     <use x="3734.060547" xlink:href="#DejaVuSans-26"/>
    </g>
    <!-- pyprover.logic.Prop('6') -->
    <g transform="translate(483.207188 66.4)scale(0.12 -0.12)">
     <use xlink:href="#DejaVuSans-70"/>
     <use x="63.476562" xlink:href="#DejaVuSans-79"/>
     <use x="122.65625" xlink:href="#DejaVuSans-70"/>
     <use x="186.132812" xlink:href="#DejaVuSans-72"/>
     <use x="227.214844" xlink:href="#DejaVuSans-6f"/>
     <use x="288.396484" xlink:href="#DejaVuSans-76"/>
     <use x="347.576172" xlink:href="#DejaVuSans-65"/>
     <use x="409.099609" xlink:href="#DejaVuSans-72"/>
     <use x="450.072266" xlink:href="#DejaVuSans-2e"/>
     <use x="481.859375" xlink:href="#DejaVuSans-6c"/>
     <use x="509.642578" xlink:href="#DejaVuSans-6f"/>
     <use x="570.824219" xlink:href="#DejaVuSans-67"/>
     <use x="634.300781" xlink:href="#DejaVuSans-69"/>
     <use x="662.083984" xlink:href="#DejaVuSans-63"/>
     <use x="717.064453" xlink:href="#DejaVuSans-2e"/>
     <use x="748.851562" xlink:href="#DejaVuSans-50"/>
     <use x="809.138672" xlink:href="#DejaVuSans-72"/>
     <use x="850.220703" xlink:href="#DejaVuSans-6f"/>
     <use x="911.402344" xlink:href="#DejaVuSans-70"/>
     <use x="974.878906" xlink:href="#DejaVuSans-28"/>
     <use x="1013.892578" xlink:href="#DejaVuSans-27"/>
     <use x="1041.382812" xlink:href="#DejaVuSans-36"/>
     <use x="1105.005859" xlink:href="#DejaVuSans-27"/>
     <use x="1132.496094" xlink:href="#DejaVuSans-29"/>
    </g>
   </g>
  </g>
 </g>
 <defs>
  <clipPath id="p9f483c3a90">
   <rect height="554.4" width="837" x="135" y="86.4"/>
  </clipPath>
 </defs>
</svg>
