<?xml version="1.0" encoding="utf-8" standalone="no"?>
<!DOCTYPE svg PUBLIC "-//W3C//DTD SVG 1.1//EN"
  "http://www.w3.org/Graphics/SVG/1.1/DTD/svg11.dtd">
<!-- Created with matplotlib (http://matplotlib.org/) -->
<svg height="720pt" version="1.1" viewBox="0 0 1080 720" width="1080pt" xmlns="http://www.w3.org/2000/svg" xmlns:xlink="http://www.w3.org/1999/xlink">
 <defs>
  <style type="text/css">
*{stroke-linecap:butt;stroke-linejoin:round;}
  </style>
 </defs>
 <g id="figure_1">
  <g id="patch_1">
   <path d="M 0 720 
L 1080 720 
L 1080 0 
L 0 0 
z
" style="fill:#ffffff;"/>
  </g>
  <g id="axes_1">
   <g id="patch_2">
    <path clip-path="url(#p4ec8a8b9ae)" d="M 553.5 134.509091 
Q 553.5 246.553408 553.5 355.243623 
" style="fill:none;stroke:#000000;stroke-linecap:round;stroke-width:3;"/>
    <path clip-path="url(#p4ec8a8b9ae)" d="M 555.9 350.443623 
L 553.5 355.243623 
L 551.1 350.443623 
L 555.9 350.443623 
z
" style="stroke:#000000;stroke-linecap:round;stroke-width:3;"/>
   </g>
   <g id="patch_3">
    <path clip-path="url(#p4ec8a8b9ae)" d="M 553.5 363.6 
Q 553.5 475.644317 553.5 584.334532 
" style="fill:none;stroke:#000000;stroke-linecap:round;stroke-width:3;"/>
    <path clip-path="url(#p4ec8a8b9ae)" d="M 555.9 579.534532 
L 553.5 584.334532 
L 551.1 579.534532 
L 555.9 579.534532 
z
" style="stroke:#000000;stroke-linecap:round;stroke-width:3;"/>
   </g>
   <g id="PathCollection_1">
    <defs>
     <path d="M 0 5 
C 1.326016 5 2.597899 4.473168 3.535534 3.535534 
C 4.473168 2.597899 5 1.326016 5 0 
C 5 -1.326016 4.473168 -2.597899 3.535534 -3.535534 
C 2.597899 -4.473168 1.326016 -5 0 -5 
C -1.326016 -5 -2.597899 -4.473168 -3.535534 -3.535534 
C -4.473168 -2.597899 -5 -1.326016 -5 0 
C -5 1.326016 -4.473168 2.597899 -3.535534 3.535534 
C -2.597899 4.473168 -1.326016 5 0 5 
z
" id="m3fdacbf1ef" style="stroke:#0000ff;"/>
    </defs>
    <g clip-path="url(#p4ec8a8b9ae)">
     <use style="fill:#0000ff;stroke:#0000ff;" x="553.5" xlink:href="#m3fdacbf1ef" y="134.509091"/>
     <use style="fill:#0000ff;stroke:#0000ff;" x="553.5" xlink:href="#m3fdacbf1ef" y="363.6"/>
     <use style="fill:#0000ff;stroke:#0000ff;" x="553.5" xlink:href="#m3fdacbf1ef" y="592.690909"/>
    </g>
   </g>
   <g id="text_1">
    <g clip-path="url(#p4ec8a8b9ae)">
     <!-- 156  Lying , Sitting , are -->
     <defs>
      <path d="M 12.40625 8.296875 
L 28.515625 8.296875 
L 28.515625 63.921875 
L 10.984375 60.40625 
L 10.984375 69.390625 
L 28.421875 72.90625 
L 38.28125 72.90625 
L 38.28125 8.296875 
L 54.390625 8.296875 
L 54.390625 0 
L 12.40625 0 
z
" id="DejaVuSans-31"/>
      <path d="M 10.796875 72.90625 
L 49.515625 72.90625 
L 49.515625 64.59375 
L 19.828125 64.59375 
L 19.828125 46.734375 
Q 21.96875 47.46875 24.109375 47.828125 
Q 26.265625 48.1875 28.421875 48.1875 
Q 40.625 48.1875 47.75 41.5 
Q 54.890625 34.8125 54.890625 23.390625 
Q 54.890625 11.625 47.5625 5.09375 
Q 40.234375 -1.421875 26.90625 -1.421875 
Q 22.3125 -1.421875 17.546875 -0.640625 
Q 12.796875 0.140625 7.71875 1.703125 
L 7.71875 11.625 
Q 12.109375 9.234375 16.796875 8.0625 
Q 21.484375 6.890625 26.703125 6.890625 
Q 35.15625 6.890625 40.078125 11.328125 
Q 45.015625 15.765625 45.015625 23.390625 
Q 45.015625 31 40.078125 35.4375 
Q 35.15625 39.890625 26.703125 39.890625 
Q 22.75 39.890625 18.8125 39.015625 
Q 14.890625 38.140625 10.796875 36.28125 
z
" id="DejaVuSans-35"/>
      <path d="M 33.015625 40.375 
Q 26.375 40.375 22.484375 35.828125 
Q 18.609375 31.296875 18.609375 23.390625 
Q 18.609375 15.53125 22.484375 10.953125 
Q 26.375 6.390625 33.015625 6.390625 
Q 39.65625 6.390625 43.53125 10.953125 
Q 47.40625 15.53125 47.40625 23.390625 
Q 47.40625 31.296875 43.53125 35.828125 
Q 39.65625 40.375 33.015625 40.375 
z
M 52.59375 71.296875 
L 52.59375 62.3125 
Q 48.875 64.0625 45.09375 64.984375 
Q 41.3125 65.921875 37.59375 65.921875 
Q 27.828125 65.921875 22.671875 59.328125 
Q 17.53125 52.734375 16.796875 39.40625 
Q 19.671875 43.65625 24.015625 45.921875 
Q 28.375 48.1875 33.59375 48.1875 
Q 44.578125 48.1875 50.953125 41.515625 
Q 57.328125 34.859375 57.328125 23.390625 
Q 57.328125 12.15625 50.6875 5.359375 
Q 44.046875 -1.421875 33.015625 -1.421875 
Q 20.359375 -1.421875 13.671875 8.265625 
Q 6.984375 17.96875 6.984375 36.375 
Q 6.984375 53.65625 15.1875 63.9375 
Q 23.390625 74.21875 37.203125 74.21875 
Q 40.921875 74.21875 44.703125 73.484375 
Q 48.484375 72.75 52.59375 71.296875 
z
" id="DejaVuSans-36"/>
      <path id="DejaVuSans-20"/>
      <path d="M 9.8125 72.90625 
L 19.671875 72.90625 
L 19.671875 8.296875 
L 55.171875 8.296875 
L 55.171875 0 
L 9.8125 0 
z
" id="DejaVuSans-4c"/>
      <path d="M 32.171875 -5.078125 
Q 28.375 -14.84375 24.75 -17.8125 
Q 21.140625 -20.796875 15.09375 -20.796875 
L 7.90625 -20.796875 
L 7.90625 -13.28125 
L 13.1875 -13.28125 
Q 16.890625 -13.28125 18.9375 -11.515625 
Q 21 -9.765625 23.484375 -3.21875 
L 25.09375 0.875 
L 2.984375 54.6875 
L 12.5 54.6875 
L 29.59375 11.921875 
L 46.6875 54.6875 
L 56.203125 54.6875 
z
" id="DejaVuSans-79"/>
      <path d="M 9.421875 54.6875 
L 18.40625 54.6875 
L 18.40625 0 
L 9.421875 0 
z
M 9.421875 75.984375 
L 18.40625 75.984375 
L 18.40625 64.59375 
L 9.421875 64.59375 
z
" id="DejaVuSans-69"/>
      <path d="M 54.890625 33.015625 
L 54.890625 0 
L 45.90625 0 
L 45.90625 32.71875 
Q 45.90625 40.484375 42.875 44.328125 
Q 39.84375 48.1875 33.796875 48.1875 
Q 26.515625 48.1875 22.3125 43.546875 
Q 18.109375 38.921875 18.109375 30.90625 
L 18.109375 0 
L 9.078125 0 
L 9.078125 54.6875 
L 18.109375 54.6875 
L 18.109375 46.1875 
Q 21.34375 51.125 25.703125 53.5625 
Q 30.078125 56 35.796875 56 
Q 45.21875 56 50.046875 50.171875 
Q 54.890625 44.34375 54.890625 33.015625 
z
" id="DejaVuSans-6e"/>
      <path d="M 45.40625 27.984375 
Q 45.40625 37.75 41.375 43.109375 
Q 37.359375 48.484375 30.078125 48.484375 
Q 22.859375 48.484375 18.828125 43.109375 
Q 14.796875 37.75 14.796875 27.984375 
Q 14.796875 18.265625 18.828125 12.890625 
Q 22.859375 7.515625 30.078125 7.515625 
Q 37.359375 7.515625 41.375 12.890625 
Q 45.40625 18.265625 45.40625 27.984375 
z
M 54.390625 6.78125 
Q 54.390625 -7.171875 48.1875 -13.984375 
Q 42 -20.796875 29.203125 -20.796875 
Q 24.46875 -20.796875 20.265625 -20.09375 
Q 16.0625 -19.390625 12.109375 -17.921875 
L 12.109375 -9.1875 
Q 16.0625 -11.328125 19.921875 -12.34375 
Q 23.78125 -13.375 27.78125 -13.375 
Q 36.625 -13.375 41.015625 -8.765625 
Q 45.40625 -4.15625 45.40625 5.171875 
L 45.40625 9.625 
Q 42.625 4.78125 38.28125 2.390625 
Q 33.9375 0 27.875 0 
Q 17.828125 0 11.671875 7.65625 
Q 5.515625 15.328125 5.515625 27.984375 
Q 5.515625 40.671875 11.671875 48.328125 
Q 17.828125 56 27.875 56 
Q 33.9375 56 38.28125 53.609375 
Q 42.625 51.21875 45.40625 46.390625 
L 45.40625 54.6875 
L 54.390625 54.6875 
z
" id="DejaVuSans-67"/>
      <path d="M 11.71875 12.40625 
L 22.015625 12.40625 
L 22.015625 4 
L 14.015625 -11.625 
L 7.71875 -11.625 
L 11.71875 4 
z
" id="DejaVuSans-2c"/>
      <path d="M 53.515625 70.515625 
L 53.515625 60.890625 
Q 47.90625 63.578125 42.921875 64.890625 
Q 37.9375 66.21875 33.296875 66.21875 
Q 25.25 66.21875 20.875 63.09375 
Q 16.5 59.96875 16.5 54.203125 
Q 16.5 49.359375 19.40625 46.890625 
Q 22.3125 44.4375 30.421875 42.921875 
L 36.375 41.703125 
Q 47.40625 39.59375 52.65625 34.296875 
Q 57.90625 29 57.90625 20.125 
Q 57.90625 9.515625 50.796875 4.046875 
Q 43.703125 -1.421875 29.984375 -1.421875 
Q 24.8125 -1.421875 18.96875 -0.25 
Q 13.140625 0.921875 6.890625 3.21875 
L 6.890625 13.375 
Q 12.890625 10.015625 18.65625 8.296875 
Q 24.421875 6.59375 29.984375 6.59375 
Q 38.421875 6.59375 43.015625 9.90625 
Q 47.609375 13.234375 47.609375 19.390625 
Q 47.609375 24.75 44.3125 27.78125 
Q 41.015625 30.8125 33.5 32.328125 
L 27.484375 33.5 
Q 16.453125 35.6875 11.515625 40.375 
Q 6.59375 45.0625 6.59375 53.421875 
Q 6.59375 63.09375 13.40625 68.65625 
Q 20.21875 74.21875 32.171875 74.21875 
Q 37.3125 74.21875 42.625 73.28125 
Q 47.953125 72.359375 53.515625 70.515625 
z
" id="DejaVuSans-53"/>
      <path d="M 18.3125 70.21875 
L 18.3125 54.6875 
L 36.8125 54.6875 
L 36.8125 47.703125 
L 18.3125 47.703125 
L 18.3125 18.015625 
Q 18.3125 11.328125 20.140625 9.421875 
Q 21.96875 7.515625 27.59375 7.515625 
L 36.8125 7.515625 
L 36.8125 0 
L 27.59375 0 
Q 17.1875 0 13.234375 3.875 
Q 9.28125 7.765625 9.28125 18.015625 
L 9.28125 47.703125 
L 2.6875 47.703125 
L 2.6875 54.6875 
L 9.28125 54.6875 
L 9.28125 70.21875 
z
" id="DejaVuSans-74"/>
      <path d="M 34.28125 27.484375 
Q 23.390625 27.484375 19.1875 25 
Q 14.984375 22.515625 14.984375 16.5 
Q 14.984375 11.71875 18.140625 8.90625 
Q 21.296875 6.109375 26.703125 6.109375 
Q 34.1875 6.109375 38.703125 11.40625 
Q 43.21875 16.703125 43.21875 25.484375 
L 43.21875 27.484375 
z
M 52.203125 31.203125 
L 52.203125 0 
L 43.21875 0 
L 43.21875 8.296875 
Q 40.140625 3.328125 35.546875 0.953125 
Q 30.953125 -1.421875 24.3125 -1.421875 
Q 15.921875 -1.421875 10.953125 3.296875 
Q 6 8.015625 6 15.921875 
Q 6 25.140625 12.171875 29.828125 
Q 18.359375 34.515625 30.609375 34.515625 
L 43.21875 34.515625 
L 43.21875 35.40625 
Q 43.21875 41.609375 39.140625 45 
Q 35.0625 48.390625 27.6875 48.390625 
Q 23 48.390625 18.546875 47.265625 
Q 14.109375 46.140625 10.015625 43.890625 
L 10.015625 52.203125 
Q 14.9375 54.109375 19.578125 55.046875 
Q 24.21875 56 28.609375 56 
Q 40.484375 56 46.34375 49.84375 
Q 52.203125 43.703125 52.203125 31.203125 
z
" id="DejaVuSans-61"/>
      <path d="M 41.109375 46.296875 
Q 39.59375 47.171875 37.8125 47.578125 
Q 36.03125 48 33.890625 48 
Q 26.265625 48 22.1875 43.046875 
Q 18.109375 38.09375 18.109375 28.8125 
L 18.109375 0 
L 9.078125 0 
L 9.078125 54.6875 
L 18.109375 54.6875 
L 18.109375 46.1875 
Q 20.953125 51.171875 25.484375 53.578125 
Q 30.03125 56 36.53125 56 
Q 37.453125 56 38.578125 55.875 
Q 39.703125 55.765625 41.0625 55.515625 
z
" id="DejaVuSans-72"/>
      <path d="M 56.203125 29.59375 
L 56.203125 25.203125 
L 14.890625 25.203125 
Q 15.484375 15.921875 20.484375 11.0625 
Q 25.484375 6.203125 34.421875 6.203125 
Q 39.59375 6.203125 44.453125 7.46875 
Q 49.3125 8.734375 54.109375 11.28125 
L 54.109375 2.78125 
Q 49.265625 0.734375 44.1875 -0.34375 
Q 39.109375 -1.421875 33.890625 -1.421875 
Q 20.796875 -1.421875 13.15625 6.1875 
Q 5.515625 13.8125 5.515625 26.8125 
Q 5.515625 40.234375 12.765625 48.109375 
Q 20.015625 56 32.328125 56 
Q 43.359375 56 49.78125 48.890625 
Q 56.203125 41.796875 56.203125 29.59375 
z
M 47.21875 32.234375 
Q 47.125 39.59375 43.09375 43.984375 
Q 39.0625 48.390625 32.421875 48.390625 
Q 24.90625 48.390625 20.390625 44.140625 
Q 15.875 39.890625 15.1875 32.171875 
z
" id="DejaVuSans-65"/>
     </defs>
     <g transform="translate(493.363281 109.273935)scale(0.1 -0.1)">
      <use xlink:href="#DejaVuSans-31"/>
      <use x="63.623047" xlink:href="#DejaVuSans-35"/>
      <use x="127.246094" xlink:href="#DejaVuSans-36"/>
      <use x="190.869141" xlink:href="#DejaVuSans-20"/>
      <use x="222.65625" xlink:href="#DejaVuSans-20"/>
      <use x="254.443359" xlink:href="#DejaVuSans-4c"/>
      <use x="310.015625" xlink:href="#DejaVuSans-79"/>
      <use x="369.195312" xlink:href="#DejaVuSans-69"/>
      <use x="396.978516" xlink:href="#DejaVuSans-6e"/>
      <use x="460.357422" xlink:href="#DejaVuSans-67"/>
      <use x="523.833984" xlink:href="#DejaVuSans-20"/>
      <use x="555.621094" xlink:href="#DejaVuSans-2c"/>
      <use x="587.408203" xlink:href="#DejaVuSans-20"/>
      <use x="619.195312" xlink:href="#DejaVuSans-53"/>
      <use x="682.671875" xlink:href="#DejaVuSans-69"/>
      <use x="710.455078" xlink:href="#DejaVuSans-74"/>
      <use x="749.664062" xlink:href="#DejaVuSans-74"/>
      <use x="788.873047" xlink:href="#DejaVuSans-69"/>
      <use x="816.65625" xlink:href="#DejaVuSans-6e"/>
      <use x="880.035156" xlink:href="#DejaVuSans-67"/>
      <use x="943.511719" xlink:href="#DejaVuSans-20"/>
      <use x="975.298828" xlink:href="#DejaVuSans-2c"/>
      <use x="1007.085938" xlink:href="#DejaVuSans-20"/>
      <use x="1038.873047" xlink:href="#DejaVuSans-61"/>
      <use x="1100.152344" xlink:href="#DejaVuSans-72"/>
      <use x="1141.234375" xlink:href="#DejaVuSans-65"/>
     </g>
    </g>
    <g clip-path="url(#p4ec8a8b9ae)">
     <!-- terms indicating position , -->
     <defs>
      <path d="M 52 44.1875 
Q 55.375 50.25 60.0625 53.125 
Q 64.75 56 71.09375 56 
Q 79.640625 56 84.28125 50.015625 
Q 88.921875 44.046875 88.921875 33.015625 
L 88.921875 0 
L 79.890625 0 
L 79.890625 32.71875 
Q 79.890625 40.578125 77.09375 44.375 
Q 74.3125 48.1875 68.609375 48.1875 
Q 61.625 48.1875 57.5625 43.546875 
Q 53.515625 38.921875 53.515625 30.90625 
L 53.515625 0 
L 44.484375 0 
L 44.484375 32.71875 
Q 44.484375 40.625 41.703125 44.40625 
Q 38.921875 48.1875 33.109375 48.1875 
Q 26.21875 48.1875 22.15625 43.53125 
Q 18.109375 38.875 18.109375 30.90625 
L 18.109375 0 
L 9.078125 0 
L 9.078125 54.6875 
L 18.109375 54.6875 
L 18.109375 46.1875 
Q 21.1875 51.21875 25.484375 53.609375 
Q 29.78125 56 35.6875 56 
Q 41.65625 56 45.828125 52.96875 
Q 50 49.953125 52 44.1875 
z
" id="DejaVuSans-6d"/>
      <path d="M 44.28125 53.078125 
L 44.28125 44.578125 
Q 40.484375 46.53125 36.375 47.5 
Q 32.28125 48.484375 27.875 48.484375 
Q 21.1875 48.484375 17.84375 46.4375 
Q 14.5 44.390625 14.5 40.28125 
Q 14.5 37.15625 16.890625 35.375 
Q 19.28125 33.59375 26.515625 31.984375 
L 29.59375 31.296875 
Q 39.15625 29.25 43.1875 25.515625 
Q 47.21875 21.78125 47.21875 15.09375 
Q 47.21875 7.46875 41.1875 3.015625 
Q 35.15625 -1.421875 24.609375 -1.421875 
Q 20.21875 -1.421875 15.453125 -0.5625 
Q 10.6875 0.296875 5.421875 2 
L 5.421875 11.28125 
Q 10.40625 8.6875 15.234375 7.390625 
Q 20.0625 6.109375 24.8125 6.109375 
Q 31.15625 6.109375 34.5625 8.28125 
Q 37.984375 10.453125 37.984375 14.40625 
Q 37.984375 18.0625 35.515625 20.015625 
Q 33.0625 21.96875 24.703125 23.78125 
L 21.578125 24.515625 
Q 13.234375 26.265625 9.515625 29.90625 
Q 5.8125 33.546875 5.8125 39.890625 
Q 5.8125 47.609375 11.28125 51.796875 
Q 16.75 56 26.8125 56 
Q 31.78125 56 36.171875 55.265625 
Q 40.578125 54.546875 44.28125 53.078125 
z
" id="DejaVuSans-73"/>
      <path d="M 45.40625 46.390625 
L 45.40625 75.984375 
L 54.390625 75.984375 
L 54.390625 0 
L 45.40625 0 
L 45.40625 8.203125 
Q 42.578125 3.328125 38.25 0.953125 
Q 33.9375 -1.421875 27.875 -1.421875 
Q 17.96875 -1.421875 11.734375 6.484375 
Q 5.515625 14.40625 5.515625 27.296875 
Q 5.515625 40.1875 11.734375 48.09375 
Q 17.96875 56 27.875 56 
Q 33.9375 56 38.25 53.625 
Q 42.578125 51.265625 45.40625 46.390625 
z
M 14.796875 27.296875 
Q 14.796875 17.390625 18.875 11.75 
Q 22.953125 6.109375 30.078125 6.109375 
Q 37.203125 6.109375 41.296875 11.75 
Q 45.40625 17.390625 45.40625 27.296875 
Q 45.40625 37.203125 41.296875 42.84375 
Q 37.203125 48.484375 30.078125 48.484375 
Q 22.953125 48.484375 18.875 42.84375 
Q 14.796875 37.203125 14.796875 27.296875 
z
" id="DejaVuSans-64"/>
      <path d="M 48.78125 52.59375 
L 48.78125 44.1875 
Q 44.96875 46.296875 41.140625 47.34375 
Q 37.3125 48.390625 33.40625 48.390625 
Q 24.65625 48.390625 19.8125 42.84375 
Q 14.984375 37.3125 14.984375 27.296875 
Q 14.984375 17.28125 19.8125 11.734375 
Q 24.65625 6.203125 33.40625 6.203125 
Q 37.3125 6.203125 41.140625 7.25 
Q 44.96875 8.296875 48.78125 10.40625 
L 48.78125 2.09375 
Q 45.015625 0.34375 40.984375 -0.53125 
Q 36.96875 -1.421875 32.421875 -1.421875 
Q 20.0625 -1.421875 12.78125 6.34375 
Q 5.515625 14.109375 5.515625 27.296875 
Q 5.515625 40.671875 12.859375 48.328125 
Q 20.21875 56 33.015625 56 
Q 37.15625 56 41.109375 55.140625 
Q 45.0625 54.296875 48.78125 52.59375 
z
" id="DejaVuSans-63"/>
      <path d="M 18.109375 8.203125 
L 18.109375 -20.796875 
L 9.078125 -20.796875 
L 9.078125 54.6875 
L 18.109375 54.6875 
L 18.109375 46.390625 
Q 20.953125 51.265625 25.265625 53.625 
Q 29.59375 56 35.59375 56 
Q 45.5625 56 51.78125 48.09375 
Q 58.015625 40.1875 58.015625 27.296875 
Q 58.015625 14.40625 51.78125 6.484375 
Q 45.5625 -1.421875 35.59375 -1.421875 
Q 29.59375 -1.421875 25.265625 0.953125 
Q 20.953125 3.328125 18.109375 8.203125 
z
M 48.6875 27.296875 
Q 48.6875 37.203125 44.609375 42.84375 
Q 40.53125 48.484375 33.40625 48.484375 
Q 26.265625 48.484375 22.1875 42.84375 
Q 18.109375 37.203125 18.109375 27.296875 
Q 18.109375 17.390625 22.1875 11.75 
Q 26.265625 6.109375 33.40625 6.109375 
Q 40.53125 6.109375 44.609375 11.75 
Q 48.6875 17.390625 48.6875 27.296875 
z
" id="DejaVuSans-70"/>
      <path d="M 30.609375 48.390625 
Q 23.390625 48.390625 19.1875 42.75 
Q 14.984375 37.109375 14.984375 27.296875 
Q 14.984375 17.484375 19.15625 11.84375 
Q 23.34375 6.203125 30.609375 6.203125 
Q 37.796875 6.203125 41.984375 11.859375 
Q 46.1875 17.53125 46.1875 27.296875 
Q 46.1875 37.015625 41.984375 42.703125 
Q 37.796875 48.390625 30.609375 48.390625 
z
M 30.609375 56 
Q 42.328125 56 49.015625 48.375 
Q 55.71875 40.765625 55.71875 27.296875 
Q 55.71875 13.875 49.015625 6.21875 
Q 42.328125 -1.421875 30.609375 -1.421875 
Q 18.84375 -1.421875 12.171875 6.21875 
Q 5.515625 13.875 5.515625 27.296875 
Q 5.515625 40.765625 12.171875 48.375 
Q 18.84375 56 30.609375 56 
z
" id="DejaVuSans-6f"/>
     </defs>
     <g transform="translate(488.146094 120.471747)scale(0.1 -0.1)">
      <use xlink:href="#DejaVuSans-74"/>
      <use x="39.208984" xlink:href="#DejaVuSans-65"/>
      <use x="100.732422" xlink:href="#DejaVuSans-72"/>
      <use x="141.830078" xlink:href="#DejaVuSans-6d"/>
      <use x="239.242188" xlink:href="#DejaVuSans-73"/>
      <use x="291.341797" xlink:href="#DejaVuSans-20"/>
      <use x="323.128906" xlink:href="#DejaVuSans-69"/>
      <use x="350.912109" xlink:href="#DejaVuSans-6e"/>
      <use x="414.291016" xlink:href="#DejaVuSans-64"/>
      <use x="477.767578" xlink:href="#DejaVuSans-69"/>
      <use x="505.550781" xlink:href="#DejaVuSans-63"/>
      <use x="560.53125" xlink:href="#DejaVuSans-61"/>
      <use x="621.810547" xlink:href="#DejaVuSans-74"/>
      <use x="661.019531" xlink:href="#DejaVuSans-69"/>
      <use x="688.802734" xlink:href="#DejaVuSans-6e"/>
      <use x="752.181641" xlink:href="#DejaVuSans-67"/>
      <use x="815.658203" xlink:href="#DejaVuSans-20"/>
      <use x="847.445312" xlink:href="#DejaVuSans-70"/>
      <use x="910.921875" xlink:href="#DejaVuSans-6f"/>
      <use x="972.103516" xlink:href="#DejaVuSans-73"/>
      <use x="1024.203125" xlink:href="#DejaVuSans-69"/>
      <use x="1051.986328" xlink:href="#DejaVuSans-74"/>
      <use x="1091.195312" xlink:href="#DejaVuSans-69"/>
      <use x="1118.978516" xlink:href="#DejaVuSans-6f"/>
      <use x="1180.160156" xlink:href="#DejaVuSans-6e"/>
      <use x="1243.539062" xlink:href="#DejaVuSans-20"/>
      <use x="1275.326172" xlink:href="#DejaVuSans-2c"/>
     </g>
    </g>
    <g clip-path="url(#p4ec8a8b9ae)">
     <!-- Shod , Armed , state , Tolance -->
     <defs>
      <path d="M 54.890625 33.015625 
L 54.890625 0 
L 45.90625 0 
L 45.90625 32.71875 
Q 45.90625 40.484375 42.875 44.328125 
Q 39.84375 48.1875 33.796875 48.1875 
Q 26.515625 48.1875 22.3125 43.546875 
Q 18.109375 38.921875 18.109375 30.90625 
L 18.109375 0 
L 9.078125 0 
L 9.078125 75.984375 
L 18.109375 75.984375 
L 18.109375 46.1875 
Q 21.34375 51.125 25.703125 53.5625 
Q 30.078125 56 35.796875 56 
Q 45.21875 56 50.046875 50.171875 
Q 54.890625 44.34375 54.890625 33.015625 
z
" id="DejaVuSans-68"/>
      <path d="M 34.1875 63.1875 
L 20.796875 26.90625 
L 47.609375 26.90625 
z
M 28.609375 72.90625 
L 39.796875 72.90625 
L 67.578125 0 
L 57.328125 0 
L 50.6875 18.703125 
L 17.828125 18.703125 
L 11.1875 0 
L 0.78125 0 
z
" id="DejaVuSans-41"/>
      <path d="M -0.296875 72.90625 
L 61.375 72.90625 
L 61.375 64.59375 
L 35.5 64.59375 
L 35.5 0 
L 25.59375 0 
L 25.59375 64.59375 
L -0.296875 64.59375 
z
" id="DejaVuSans-54"/>
      <path d="M 9.421875 75.984375 
L 18.40625 75.984375 
L 18.40625 0 
L 9.421875 0 
z
" id="DejaVuSans-6c"/>
     </defs>
     <g transform="translate(477.8125 131.66956)scale(0.1 -0.1)">
      <use xlink:href="#DejaVuSans-53"/>
      <use x="63.476562" xlink:href="#DejaVuSans-68"/>
      <use x="126.855469" xlink:href="#DejaVuSans-6f"/>
      <use x="188.037109" xlink:href="#DejaVuSans-64"/>
      <use x="251.513672" xlink:href="#DejaVuSans-20"/>
      <use x="283.300781" xlink:href="#DejaVuSans-2c"/>
      <use x="315.087891" xlink:href="#DejaVuSans-20"/>
      <use x="346.875" xlink:href="#DejaVuSans-41"/>
      <use x="415.283203" xlink:href="#DejaVuSans-72"/>
      <use x="456.380859" xlink:href="#DejaVuSans-6d"/>
      <use x="553.792969" xlink:href="#DejaVuSans-65"/>
      <use x="615.316406" xlink:href="#DejaVuSans-64"/>
      <use x="678.792969" xlink:href="#DejaVuSans-20"/>
      <use x="710.580078" xlink:href="#DejaVuSans-2c"/>
      <use x="742.367188" xlink:href="#DejaVuSans-20"/>
      <use x="774.154297" xlink:href="#DejaVuSans-73"/>
      <use x="826.253906" xlink:href="#DejaVuSans-74"/>
      <use x="865.462891" xlink:href="#DejaVuSans-61"/>
      <use x="926.742188" xlink:href="#DejaVuSans-74"/>
      <use x="965.951172" xlink:href="#DejaVuSans-65"/>
      <use x="1027.474609" xlink:href="#DejaVuSans-20"/>
      <use x="1059.261719" xlink:href="#DejaVuSans-2c"/>
      <use x="1091.048828" xlink:href="#DejaVuSans-20"/>
      <use x="1122.835938" xlink:href="#DejaVuSans-54"/>
      <use x="1183.654297" xlink:href="#DejaVuSans-6f"/>
      <use x="1244.835938" xlink:href="#DejaVuSans-6c"/>
      <use x="1272.619141" xlink:href="#DejaVuSans-61"/>
      <use x="1333.898438" xlink:href="#DejaVuSans-6e"/>
      <use x="1397.277344" xlink:href="#DejaVuSans-63"/>
      <use x="1452.257812" xlink:href="#DejaVuSans-65"/>
     </g>
    </g>
    <g clip-path="url(#p4ec8a8b9ae)">
     <!-- , Tocauterize , action , -->
     <defs>
      <path d="M 8.5 21.578125 
L 8.5 54.6875 
L 17.484375 54.6875 
L 17.484375 21.921875 
Q 17.484375 14.15625 20.5 10.265625 
Q 23.53125 6.390625 29.59375 6.390625 
Q 36.859375 6.390625 41.078125 11.03125 
Q 45.3125 15.671875 45.3125 23.6875 
L 45.3125 54.6875 
L 54.296875 54.6875 
L 54.296875 0 
L 45.3125 0 
L 45.3125 8.40625 
Q 42.046875 3.421875 37.71875 1 
Q 33.40625 -1.421875 27.6875 -1.421875 
Q 18.265625 -1.421875 13.375 4.4375 
Q 8.5 10.296875 8.5 21.578125 
z
M 31.109375 56 
z
" id="DejaVuSans-75"/>
      <path d="M 5.515625 54.6875 
L 48.1875 54.6875 
L 48.1875 46.484375 
L 14.40625 7.171875 
L 48.1875 7.171875 
L 48.1875 0 
L 4.296875 0 
L 4.296875 8.203125 
L 38.09375 47.515625 
L 5.515625 47.515625 
z
" id="DejaVuSans-7a"/>
     </defs>
     <g transform="translate(497.721875 142.867372)scale(0.1 -0.1)">
      <use xlink:href="#DejaVuSans-2c"/>
      <use x="31.787109" xlink:href="#DejaVuSans-20"/>
      <use x="63.574219" xlink:href="#DejaVuSans-54"/>
      <use x="124.392578" xlink:href="#DejaVuSans-6f"/>
      <use x="185.574219" xlink:href="#DejaVuSans-63"/>
      <use x="240.554688" xlink:href="#DejaVuSans-61"/>
      <use x="301.833984" xlink:href="#DejaVuSans-75"/>
      <use x="365.212891" xlink:href="#DejaVuSans-74"/>
      <use x="404.421875" xlink:href="#DejaVuSans-65"/>
      <use x="465.945312" xlink:href="#DejaVuSans-72"/>
      <use x="507.058594" xlink:href="#DejaVuSans-69"/>
      <use x="534.841797" xlink:href="#DejaVuSans-7a"/>
      <use x="587.332031" xlink:href="#DejaVuSans-65"/>
      <use x="648.855469" xlink:href="#DejaVuSans-20"/>
      <use x="680.642578" xlink:href="#DejaVuSans-2c"/>
      <use x="712.429688" xlink:href="#DejaVuSans-20"/>
      <use x="744.216797" xlink:href="#DejaVuSans-61"/>
      <use x="805.496094" xlink:href="#DejaVuSans-63"/>
      <use x="860.476562" xlink:href="#DejaVuSans-74"/>
      <use x="899.685547" xlink:href="#DejaVuSans-69"/>
      <use x="927.46875" xlink:href="#DejaVuSans-6f"/>
      <use x="988.650391" xlink:href="#DejaVuSans-6e"/>
      <use x="1052.029297" xlink:href="#DejaVuSans-20"/>
      <use x="1083.816406" xlink:href="#DejaVuSans-2c"/>
     </g>
    </g>
    <g clip-path="url(#p4ec8a8b9ae)">
     <!-- Tobelanced , Tobecauterized , -->
     <defs>
      <path d="M 48.6875 27.296875 
Q 48.6875 37.203125 44.609375 42.84375 
Q 40.53125 48.484375 33.40625 48.484375 
Q 26.265625 48.484375 22.1875 42.84375 
Q 18.109375 37.203125 18.109375 27.296875 
Q 18.109375 17.390625 22.1875 11.75 
Q 26.265625 6.109375 33.40625 6.109375 
Q 40.53125 6.109375 44.609375 11.75 
Q 48.6875 17.390625 48.6875 27.296875 
z
M 18.109375 46.390625 
Q 20.953125 51.265625 25.265625 53.625 
Q 29.59375 56 35.59375 56 
Q 45.5625 56 51.78125 48.09375 
Q 58.015625 40.1875 58.015625 27.296875 
Q 58.015625 14.40625 51.78125 6.484375 
Q 45.5625 -1.421875 35.59375 -1.421875 
Q 29.59375 -1.421875 25.265625 0.953125 
Q 20.953125 3.328125 18.109375 8.203125 
L 18.109375 0 
L 9.078125 0 
L 9.078125 75.984375 
L 18.109375 75.984375 
z
" id="DejaVuSans-62"/>
     </defs>
     <g transform="translate(477.892969 154.065185)scale(0.1 -0.1)">
      <use xlink:href="#DejaVuSans-54"/>
      <use x="60.818359" xlink:href="#DejaVuSans-6f"/>
      <use x="122" xlink:href="#DejaVuSans-62"/>
      <use x="185.476562" xlink:href="#DejaVuSans-65"/>
      <use x="247" xlink:href="#DejaVuSans-6c"/>
      <use x="274.783203" xlink:href="#DejaVuSans-61"/>
      <use x="336.0625" xlink:href="#DejaVuSans-6e"/>
      <use x="399.441406" xlink:href="#DejaVuSans-63"/>
      <use x="454.421875" xlink:href="#DejaVuSans-65"/>
      <use x="515.945312" xlink:href="#DejaVuSans-64"/>
      <use x="579.421875" xlink:href="#DejaVuSans-20"/>
      <use x="611.208984" xlink:href="#DejaVuSans-2c"/>
      <use x="642.996094" xlink:href="#DejaVuSans-20"/>
      <use x="674.783203" xlink:href="#DejaVuSans-54"/>
      <use x="735.601562" xlink:href="#DejaVuSans-6f"/>
      <use x="796.783203" xlink:href="#DejaVuSans-62"/>
      <use x="860.259766" xlink:href="#DejaVuSans-65"/>
      <use x="921.783203" xlink:href="#DejaVuSans-63"/>
      <use x="976.763672" xlink:href="#DejaVuSans-61"/>
      <use x="1038.042969" xlink:href="#DejaVuSans-75"/>
      <use x="1101.421875" xlink:href="#DejaVuSans-74"/>
      <use x="1140.630859" xlink:href="#DejaVuSans-65"/>
      <use x="1202.154297" xlink:href="#DejaVuSans-72"/>
      <use x="1243.267578" xlink:href="#DejaVuSans-69"/>
      <use x="1271.050781" xlink:href="#DejaVuSans-7a"/>
      <use x="1323.541016" xlink:href="#DejaVuSans-65"/>
      <use x="1385.064453" xlink:href="#DejaVuSans-64"/>
      <use x="1448.541016" xlink:href="#DejaVuSans-20"/>
      <use x="1480.328125" xlink:href="#DejaVuSans-2c"/>
     </g>
    </g>
    <g clip-path="url(#p4ec8a8b9ae)">
     <!-- affection . -->
     <defs>
      <path d="M 37.109375 75.984375 
L 37.109375 68.5 
L 28.515625 68.5 
Q 23.6875 68.5 21.796875 66.546875 
Q 19.921875 64.59375 19.921875 59.515625 
L 19.921875 54.6875 
L 34.71875 54.6875 
L 34.71875 47.703125 
L 19.921875 47.703125 
L 19.921875 0 
L 10.890625 0 
L 10.890625 47.703125 
L 2.296875 47.703125 
L 2.296875 54.6875 
L 10.890625 54.6875 
L 10.890625 58.5 
Q 10.890625 67.625 15.140625 71.796875 
Q 19.390625 75.984375 28.609375 75.984375 
z
" id="DejaVuSans-66"/>
      <path d="M 10.6875 12.40625 
L 21 12.40625 
L 21 0 
L 10.6875 0 
z
" id="DejaVuSans-2e"/>
     </defs>
     <g transform="translate(528.334375 165.262997)scale(0.1 -0.1)">
      <use xlink:href="#DejaVuSans-61"/>
      <use x="61.279297" xlink:href="#DejaVuSans-66"/>
      <use x="96.484375" xlink:href="#DejaVuSans-66"/>
      <use x="131.689453" xlink:href="#DejaVuSans-65"/>
      <use x="193.212891" xlink:href="#DejaVuSans-63"/>
      <use x="248.193359" xlink:href="#DejaVuSans-74"/>
      <use x="287.402344" xlink:href="#DejaVuSans-69"/>
      <use x="315.185547" xlink:href="#DejaVuSans-6f"/>
      <use x="376.367188" xlink:href="#DejaVuSans-6e"/>
      <use x="439.746094" xlink:href="#DejaVuSans-20"/>
      <use x="471.533203" xlink:href="#DejaVuSans-2e"/>
     </g>
    </g>
   </g>
   <g id="text_2">
    <g clip-path="url(#p4ec8a8b9ae)">
     <!-- 155  Lying are terms -->
     <g transform="translate(501.36875 360.760469)scale(0.1 -0.1)">
      <use xlink:href="#DejaVuSans-31"/>
      <use x="63.623047" xlink:href="#DejaVuSans-35"/>
      <use x="127.246094" xlink:href="#DejaVuSans-35"/>
      <use x="190.869141" xlink:href="#DejaVuSans-20"/>
      <use x="222.65625" xlink:href="#DejaVuSans-20"/>
      <use x="254.443359" xlink:href="#DejaVuSans-4c"/>
      <use x="310.015625" xlink:href="#DejaVuSans-79"/>
      <use x="369.195312" xlink:href="#DejaVuSans-69"/>
      <use x="396.978516" xlink:href="#DejaVuSans-6e"/>
      <use x="460.357422" xlink:href="#DejaVuSans-67"/>
      <use x="523.833984" xlink:href="#DejaVuSans-20"/>
      <use x="555.621094" xlink:href="#DejaVuSans-61"/>
      <use x="616.900391" xlink:href="#DejaVuSans-72"/>
      <use x="657.982422" xlink:href="#DejaVuSans-65"/>
      <use x="719.505859" xlink:href="#DejaVuSans-20"/>
      <use x="751.292969" xlink:href="#DejaVuSans-74"/>
      <use x="790.501953" xlink:href="#DejaVuSans-65"/>
      <use x="852.025391" xlink:href="#DejaVuSans-72"/>
      <use x="893.123047" xlink:href="#DejaVuSans-6d"/>
      <use x="990.535156" xlink:href="#DejaVuSans-73"/>
     </g>
    </g>
    <g clip-path="url(#p4ec8a8b9ae)">
     <!-- indicating position affection -->
     <g transform="translate(483.903125 371.958281)scale(0.1 -0.1)">
      <use xlink:href="#DejaVuSans-69"/>
      <use x="27.783203" xlink:href="#DejaVuSans-6e"/>
      <use x="91.162109" xlink:href="#DejaVuSans-64"/>
      <use x="154.638672" xlink:href="#DejaVuSans-69"/>
      <use x="182.421875" xlink:href="#DejaVuSans-63"/>
      <use x="237.402344" xlink:href="#DejaVuSans-61"/>
      <use x="298.681641" xlink:href="#DejaVuSans-74"/>
      <use x="337.890625" xlink:href="#DejaVuSans-69"/>
      <use x="365.673828" xlink:href="#DejaVuSans-6e"/>
      <use x="429.052734" xlink:href="#DejaVuSans-67"/>
      <use x="492.529297" xlink:href="#DejaVuSans-20"/>
      <use x="524.316406" xlink:href="#DejaVuSans-70"/>
      <use x="587.792969" xlink:href="#DejaVuSans-6f"/>
      <use x="648.974609" xlink:href="#DejaVuSans-73"/>
      <use x="701.074219" xlink:href="#DejaVuSans-69"/>
      <use x="728.857422" xlink:href="#DejaVuSans-74"/>
      <use x="768.066406" xlink:href="#DejaVuSans-69"/>
      <use x="795.849609" xlink:href="#DejaVuSans-6f"/>
      <use x="857.03125" xlink:href="#DejaVuSans-6e"/>
      <use x="920.410156" xlink:href="#DejaVuSans-20"/>
      <use x="952.197266" xlink:href="#DejaVuSans-61"/>
      <use x="1013.476562" xlink:href="#DejaVuSans-66"/>
      <use x="1048.681641" xlink:href="#DejaVuSans-66"/>
      <use x="1083.886719" xlink:href="#DejaVuSans-65"/>
      <use x="1145.410156" xlink:href="#DejaVuSans-63"/>
      <use x="1200.390625" xlink:href="#DejaVuSans-74"/>
      <use x="1239.599609" xlink:href="#DejaVuSans-69"/>
      <use x="1267.382812" xlink:href="#DejaVuSans-6f"/>
      <use x="1328.564453" xlink:href="#DejaVuSans-6e"/>
     </g>
    </g>
   </g>
   <g id="text_3">
    <g clip-path="url(#p4ec8a8b9ae)">
     <!-- 154  position affection -->
     <defs>
      <path d="M 37.796875 64.3125 
L 12.890625 25.390625 
L 37.796875 25.390625 
z
M 35.203125 72.90625 
L 47.609375 72.90625 
L 47.609375 25.390625 
L 58.015625 25.390625 
L 58.015625 17.1875 
L 47.609375 17.1875 
L 47.609375 0 
L 37.796875 0 
L 37.796875 17.1875 
L 4.890625 17.1875 
L 4.890625 26.703125 
z
" id="DejaVuSans-34"/>
     </defs>
     <g transform="translate(497.396875 595.450284)scale(0.1 -0.1)">
      <use xlink:href="#DejaVuSans-31"/>
      <use x="63.623047" xlink:href="#DejaVuSans-35"/>
      <use x="127.246094" xlink:href="#DejaVuSans-34"/>
      <use x="190.869141" xlink:href="#DejaVuSans-20"/>
      <use x="222.65625" xlink:href="#DejaVuSans-20"/>
      <use x="254.443359" xlink:href="#DejaVuSans-70"/>
      <use x="317.919922" xlink:href="#DejaVuSans-6f"/>
      <use x="379.101562" xlink:href="#DejaVuSans-73"/>
      <use x="431.201172" xlink:href="#DejaVuSans-69"/>
      <use x="458.984375" xlink:href="#DejaVuSans-74"/>
      <use x="498.193359" xlink:href="#DejaVuSans-69"/>
      <use x="525.976562" xlink:href="#DejaVuSans-6f"/>
      <use x="587.158203" xlink:href="#DejaVuSans-6e"/>
      <use x="650.537109" xlink:href="#DejaVuSans-20"/>
      <use x="682.324219" xlink:href="#DejaVuSans-61"/>
      <use x="743.603516" xlink:href="#DejaVuSans-66"/>
      <use x="778.808594" xlink:href="#DejaVuSans-66"/>
      <use x="814.013672" xlink:href="#DejaVuSans-65"/>
      <use x="875.537109" xlink:href="#DejaVuSans-63"/>
      <use x="930.517578" xlink:href="#DejaVuSans-74"/>
      <use x="969.726562" xlink:href="#DejaVuSans-69"/>
      <use x="997.509766" xlink:href="#DejaVuSans-6f"/>
      <use x="1058.691406" xlink:href="#DejaVuSans-6e"/>
     </g>
    </g>
   </g>
   <g id="text_4">
    <!-- Lying , Sitting , are terms indicating position , Shod , Armed , state , Tolance , -->
    <g transform="translate(319.725 26.087875)scale(0.12 -0.12)">
     <use xlink:href="#DejaVuSans-4c"/>
     <use x="55.572266" xlink:href="#DejaVuSans-79"/>
     <use x="114.751953" xlink:href="#DejaVuSans-69"/>
     <use x="142.535156" xlink:href="#DejaVuSans-6e"/>
     <use x="205.914062" xlink:href="#DejaVuSans-67"/>
     <use x="269.390625" xlink:href="#DejaVuSans-20"/>
     <use x="301.177734" xlink:href="#DejaVuSans-2c"/>
     <use x="332.964844" xlink:href="#DejaVuSans-20"/>
     <use x="364.751953" xlink:href="#DejaVuSans-53"/>
     <use x="428.228516" xlink:href="#DejaVuSans-69"/>
     <use x="456.011719" xlink:href="#DejaVuSans-74"/>
     <use x="495.220703" xlink:href="#DejaVuSans-74"/>
     <use x="534.429688" xlink:href="#DejaVuSans-69"/>
     <use x="562.212891" xlink:href="#DejaVuSans-6e"/>
     <use x="625.591797" xlink:href="#DejaVuSans-67"/>
     <use x="689.068359" xlink:href="#DejaVuSans-20"/>
     <use x="720.855469" xlink:href="#DejaVuSans-2c"/>
     <use x="752.642578" xlink:href="#DejaVuSans-20"/>
     <use x="784.429688" xlink:href="#DejaVuSans-61"/>
     <use x="845.708984" xlink:href="#DejaVuSans-72"/>
     <use x="886.791016" xlink:href="#DejaVuSans-65"/>
     <use x="948.314453" xlink:href="#DejaVuSans-20"/>
     <use x="980.101562" xlink:href="#DejaVuSans-74"/>
     <use x="1019.310547" xlink:href="#DejaVuSans-65"/>
     <use x="1080.833984" xlink:href="#DejaVuSans-72"/>
     <use x="1121.931641" xlink:href="#DejaVuSans-6d"/>
     <use x="1219.34375" xlink:href="#DejaVuSans-73"/>
     <use x="1271.443359" xlink:href="#DejaVuSans-20"/>
     <use x="1303.230469" xlink:href="#DejaVuSans-69"/>
     <use x="1331.013672" xlink:href="#DejaVuSans-6e"/>
     <use x="1394.392578" xlink:href="#DejaVuSans-64"/>
     <use x="1457.869141" xlink:href="#DejaVuSans-69"/>
     <use x="1485.652344" xlink:href="#DejaVuSans-63"/>
     <use x="1540.632812" xlink:href="#DejaVuSans-61"/>
     <use x="1601.912109" xlink:href="#DejaVuSans-74"/>
     <use x="1641.121094" xlink:href="#DejaVuSans-69"/>
     <use x="1668.904297" xlink:href="#DejaVuSans-6e"/>
     <use x="1732.283203" xlink:href="#DejaVuSans-67"/>
     <use x="1795.759766" xlink:href="#DejaVuSans-20"/>
     <use x="1827.546875" xlink:href="#DejaVuSans-70"/>
     <use x="1891.023438" xlink:href="#DejaVuSans-6f"/>
     <use x="1952.205078" xlink:href="#DejaVuSans-73"/>
     <use x="2004.304688" xlink:href="#DejaVuSans-69"/>
     <use x="2032.087891" xlink:href="#DejaVuSans-74"/>
     <use x="2071.296875" xlink:href="#DejaVuSans-69"/>
     <use x="2099.080078" xlink:href="#DejaVuSans-6f"/>
     <use x="2160.261719" xlink:href="#DejaVuSans-6e"/>
     <use x="2223.640625" xlink:href="#DejaVuSans-20"/>
     <use x="2255.427734" xlink:href="#DejaVuSans-2c"/>
     <use x="2287.214844" xlink:href="#DejaVuSans-20"/>
     <use x="2319.001953" xlink:href="#DejaVuSans-53"/>
     <use x="2382.478516" xlink:href="#DejaVuSans-68"/>
     <use x="2445.857422" xlink:href="#DejaVuSans-6f"/>
     <use x="2507.039062" xlink:href="#DejaVuSans-64"/>
     <use x="2570.515625" xlink:href="#DejaVuSans-20"/>
     <use x="2602.302734" xlink:href="#DejaVuSans-2c"/>
     <use x="2634.089844" xlink:href="#DejaVuSans-20"/>
     <use x="2665.876953" xlink:href="#DejaVuSans-41"/>
     <use x="2734.285156" xlink:href="#DejaVuSans-72"/>
     <use x="2775.382812" xlink:href="#DejaVuSans-6d"/>
     <use x="2872.794922" xlink:href="#DejaVuSans-65"/>
     <use x="2934.318359" xlink:href="#DejaVuSans-64"/>
     <use x="2997.794922" xlink:href="#DejaVuSans-20"/>
     <use x="3029.582031" xlink:href="#DejaVuSans-2c"/>
     <use x="3061.369141" xlink:href="#DejaVuSans-20"/>
     <use x="3093.15625" xlink:href="#DejaVuSans-73"/>
     <use x="3145.255859" xlink:href="#DejaVuSans-74"/>
     <use x="3184.464844" xlink:href="#DejaVuSans-61"/>
     <use x="3245.744141" xlink:href="#DejaVuSans-74"/>
     <use x="3284.953125" xlink:href="#DejaVuSans-65"/>
     <use x="3346.476562" xlink:href="#DejaVuSans-20"/>
     <use x="3378.263672" xlink:href="#DejaVuSans-2c"/>
     <use x="3410.050781" xlink:href="#DejaVuSans-20"/>
     <use x="3441.837891" xlink:href="#DejaVuSans-54"/>
     <use x="3502.65625" xlink:href="#DejaVuSans-6f"/>
     <use x="3563.837891" xlink:href="#DejaVuSans-6c"/>
     <use x="3591.621094" xlink:href="#DejaVuSans-61"/>
     <use x="3652.900391" xlink:href="#DejaVuSans-6e"/>
     <use x="3716.279297" xlink:href="#DejaVuSans-63"/>
     <use x="3771.259766" xlink:href="#DejaVuSans-65"/>
     <use x="3832.783203" xlink:href="#DejaVuSans-20"/>
     <use x="3864.570312" xlink:href="#DejaVuSans-2c"/>
    </g>
    <!-- Tocauterize , action , Tobelanced , Tobecauterized , affection . -->
    <g transform="translate(365.639063 39.52525)scale(0.12 -0.12)">
     <use xlink:href="#DejaVuSans-54"/>
     <use x="60.818359" xlink:href="#DejaVuSans-6f"/>
     <use x="122" xlink:href="#DejaVuSans-63"/>
     <use x="176.980469" xlink:href="#DejaVuSans-61"/>
     <use x="238.259766" xlink:href="#DejaVuSans-75"/>
     <use x="301.638672" xlink:href="#DejaVuSans-74"/>
     <use x="340.847656" xlink:href="#DejaVuSans-65"/>
     <use x="402.371094" xlink:href="#DejaVuSans-72"/>
     <use x="443.484375" xlink:href="#DejaVuSans-69"/>
     <use x="471.267578" xlink:href="#DejaVuSans-7a"/>
     <use x="523.757812" xlink:href="#DejaVuSans-65"/>
     <use x="585.28125" xlink:href="#DejaVuSans-20"/>
     <use x="617.068359" xlink:href="#DejaVuSans-2c"/>
     <use x="648.855469" xlink:href="#DejaVuSans-20"/>
     <use x="680.642578" xlink:href="#DejaVuSans-61"/>
     <use x="741.921875" xlink:href="#DejaVuSans-63"/>
     <use x="796.902344" xlink:href="#DejaVuSans-74"/>
     <use x="836.111328" xlink:href="#DejaVuSans-69"/>
     <use x="863.894531" xlink:href="#DejaVuSans-6f"/>
     <use x="925.076172" xlink:href="#DejaVuSans-6e"/>
     <use x="988.455078" xlink:href="#DejaVuSans-20"/>
     <use x="1020.242188" xlink:href="#DejaVuSans-2c"/>
     <use x="1052.029297" xlink:href="#DejaVuSans-20"/>
     <use x="1083.816406" xlink:href="#DejaVuSans-54"/>
     <use x="1144.634766" xlink:href="#DejaVuSans-6f"/>
     <use x="1205.816406" xlink:href="#DejaVuSans-62"/>
     <use x="1269.292969" xlink:href="#DejaVuSans-65"/>
     <use x="1330.816406" xlink:href="#DejaVuSans-6c"/>
     <use x="1358.599609" xlink:href="#DejaVuSans-61"/>
     <use x="1419.878906" xlink:href="#DejaVuSans-6e"/>
     <use x="1483.257812" xlink:href="#DejaVuSans-63"/>
     <use x="1538.238281" xlink:href="#DejaVuSans-65"/>
     <use x="1599.761719" xlink:href="#DejaVuSans-64"/>
     <use x="1663.238281" xlink:href="#DejaVuSans-20"/>
     <use x="1695.025391" xlink:href="#DejaVuSans-2c"/>
     <use x="1726.8125" xlink:href="#DejaVuSans-20"/>
     <use x="1758.599609" xlink:href="#DejaVuSans-54"/>
     <use x="1819.417969" xlink:href="#DejaVuSans-6f"/>
     <use x="1880.599609" xlink:href="#DejaVuSans-62"/>
     <use x="1944.076172" xlink:href="#DejaVuSans-65"/>
     <use x="2005.599609" xlink:href="#DejaVuSans-63"/>
     <use x="2060.580078" xlink:href="#DejaVuSans-61"/>
     <use x="2121.859375" xlink:href="#DejaVuSans-75"/>
     <use x="2185.238281" xlink:href="#DejaVuSans-74"/>
     <use x="2224.447266" xlink:href="#DejaVuSans-65"/>
     <use x="2285.970703" xlink:href="#DejaVuSans-72"/>
     <use x="2327.083984" xlink:href="#DejaVuSans-69"/>
     <use x="2354.867188" xlink:href="#DejaVuSans-7a"/>
     <use x="2407.357422" xlink:href="#DejaVuSans-65"/>
     <use x="2468.880859" xlink:href="#DejaVuSans-64"/>
     <use x="2532.357422" xlink:href="#DejaVuSans-20"/>
     <use x="2564.144531" xlink:href="#DejaVuSans-2c"/>
     <use x="2595.931641" xlink:href="#DejaVuSans-20"/>
     <use x="2627.71875" xlink:href="#DejaVuSans-61"/>
     <use x="2688.998047" xlink:href="#DejaVuSans-66"/>
     <use x="2724.203125" xlink:href="#DejaVuSans-66"/>
     <use x="2759.408203" xlink:href="#DejaVuSans-65"/>
     <use x="2820.931641" xlink:href="#DejaVuSans-63"/>
     <use x="2875.912109" xlink:href="#DejaVuSans-74"/>
     <use x="2915.121094" xlink:href="#DejaVuSans-69"/>
     <use x="2942.904297" xlink:href="#DejaVuSans-6f"/>
     <use x="3004.085938" xlink:href="#DejaVuSans-6e"/>
     <use x="3067.464844" xlink:href="#DejaVuSans-20"/>
     <use x="3099.251953" xlink:href="#DejaVuSans-2e"/>
    </g>
    <!-- 154 ∧ 155 ∧ 156 -->
    <defs>
     <path d="M 12.890625 0 
L 30.515625 57.90625 
L 42.71875 57.90625 
L 60.296875 0 
L 50.78125 0 
L 36.625 45.90625 
L 22.40625 0 
z
" id="DejaVuSans-2227"/>
    </defs>
    <g transform="translate(502.7325 52.962625)scale(0.12 -0.12)">
     <use xlink:href="#DejaVuSans-31"/>
     <use x="63.623047" xlink:href="#DejaVuSans-35"/>
     <use x="127.246094" xlink:href="#DejaVuSans-34"/>
     <use x="190.869141" xlink:href="#DejaVuSans-20"/>
     <use x="222.65625" xlink:href="#DejaVuSans-2227"/>
     <use x="295.849609" xlink:href="#DejaVuSans-20"/>
     <use x="327.636719" xlink:href="#DejaVuSans-31"/>
     <use x="391.259766" xlink:href="#DejaVuSans-35"/>
     <use x="454.882812" xlink:href="#DejaVuSans-35"/>
     <use x="518.505859" xlink:href="#DejaVuSans-20"/>
     <use x="550.292969" xlink:href="#DejaVuSans-2227"/>
     <use x="623.486328" xlink:href="#DejaVuSans-20"/>
     <use x="655.273438" xlink:href="#DejaVuSans-31"/>
     <use x="718.896484" xlink:href="#DejaVuSans-35"/>
     <use x="782.519531" xlink:href="#DejaVuSans-36"/>
    </g>
    <!--  pyprover.logic.Prop('154')&amp; pyprover.logic.Prop('155')&amp; pyprover.logic.Prop('156') -->
    <defs>
     <path d="M 2.984375 54.6875 
L 12.5 54.6875 
L 29.59375 8.796875 
L 46.6875 54.6875 
L 56.203125 54.6875 
L 35.6875 0 
L 23.484375 0 
z
" id="DejaVuSans-76"/>
     <path d="M 19.671875 64.796875 
L 19.671875 37.40625 
L 32.078125 37.40625 
Q 38.96875 37.40625 42.71875 40.96875 
Q 46.484375 44.53125 46.484375 51.125 
Q 46.484375 57.671875 42.71875 61.234375 
Q 38.96875 64.796875 32.078125 64.796875 
z
M 9.8125 72.90625 
L 32.078125 72.90625 
Q 44.34375 72.90625 50.609375 67.359375 
Q 56.890625 61.8125 56.890625 51.125 
Q 56.890625 40.328125 50.609375 34.8125 
Q 44.34375 29.296875 32.078125 29.296875 
L 19.671875 29.296875 
L 19.671875 0 
L 9.8125 0 
z
" id="DejaVuSans-50"/>
     <path d="M 31 75.875 
Q 24.46875 64.65625 21.28125 53.65625 
Q 18.109375 42.671875 18.109375 31.390625 
Q 18.109375 20.125 21.3125 9.0625 
Q 24.515625 -2 31 -13.1875 
L 23.1875 -13.1875 
Q 15.875 -1.703125 12.234375 9.375 
Q 8.59375 20.453125 8.59375 31.390625 
Q 8.59375 42.28125 12.203125 53.3125 
Q 15.828125 64.359375 23.1875 75.875 
z
" id="DejaVuSans-28"/>
     <path d="M 17.921875 72.90625 
L 17.921875 45.796875 
L 9.625 45.796875 
L 9.625 72.90625 
z
" id="DejaVuSans-27"/>
     <path d="M 8.015625 75.875 
L 15.828125 75.875 
Q 23.140625 64.359375 26.78125 53.3125 
Q 30.421875 42.28125 30.421875 31.390625 
Q 30.421875 20.453125 26.78125 9.375 
Q 23.140625 -1.703125 15.828125 -13.1875 
L 8.015625 -13.1875 
Q 14.5 -2 17.703125 9.0625 
Q 20.90625 20.125 20.90625 31.390625 
Q 20.90625 42.671875 17.703125 53.65625 
Q 14.5 64.65625 8.015625 75.875 
z
" id="DejaVuSans-29"/>
     <path d="M 24.3125 39.203125 
Q 19.875 35.25 17.796875 31.3125 
Q 15.71875 27.390625 15.71875 23.09375 
Q 15.71875 15.96875 20.890625 11.234375 
Q 26.078125 6.5 33.890625 6.5 
Q 38.53125 6.5 42.578125 8.03125 
Q 46.625 9.578125 50.203125 12.703125 
z
M 31.203125 44.671875 
L 56 19.28125 
Q 58.890625 23.640625 60.5 28.59375 
Q 62.109375 33.546875 62.40625 39.109375 
L 71.484375 39.109375 
Q 70.90625 32.671875 68.359375 26.359375 
Q 65.828125 20.0625 61.28125 13.921875 
L 74.90625 0 
L 62.59375 0 
L 55.609375 7.171875 
Q 50.53125 2.828125 44.96875 0.703125 
Q 39.40625 -1.421875 33.015625 -1.421875 
Q 21.234375 -1.421875 13.765625 5.296875 
Q 6.296875 12.015625 6.296875 22.515625 
Q 6.296875 28.765625 9.5625 34.25 
Q 12.84375 39.75 19.390625 44.578125 
Q 17.046875 47.65625 15.8125 50.703125 
Q 14.59375 53.765625 14.59375 56.6875 
Q 14.59375 64.59375 20.015625 69.40625 
Q 25.4375 74.21875 34.421875 74.21875 
Q 38.484375 74.21875 42.5 73.34375 
Q 46.53125 72.46875 50.6875 70.703125 
L 50.6875 61.8125 
Q 46.4375 64.109375 42.578125 65.296875 
Q 38.71875 66.5 35.40625 66.5 
Q 30.28125 66.5 27.078125 63.78125 
Q 23.875 61.078125 23.875 56.78125 
Q 23.875 54.296875 25.3125 51.78125 
Q 26.765625 49.265625 31.203125 44.671875 
z
" id="DejaVuSans-26"/>
    </defs>
    <g transform="translate(304.637812 66.4)scale(0.12 -0.12)">
     <use xlink:href="#DejaVuSans-20"/>
     <use x="31.787109" xlink:href="#DejaVuSans-70"/>
     <use x="95.263672" xlink:href="#DejaVuSans-79"/>
     <use x="154.443359" xlink:href="#DejaVuSans-70"/>
     <use x="217.919922" xlink:href="#DejaVuSans-72"/>
     <use x="259.001953" xlink:href="#DejaVuSans-6f"/>
     <use x="320.183594" xlink:href="#DejaVuSans-76"/>
     <use x="379.363281" xlink:href="#DejaVuSans-65"/>
     <use x="440.886719" xlink:href="#DejaVuSans-72"/>
     <use x="481.859375" xlink:href="#DejaVuSans-2e"/>
     <use x="513.646484" xlink:href="#DejaVuSans-6c"/>
     <use x="541.429688" xlink:href="#DejaVuSans-6f"/>
     <use x="602.611328" xlink:href="#DejaVuSans-67"/>
     <use x="666.087891" xlink:href="#DejaVuSans-69"/>
     <use x="693.871094" xlink:href="#DejaVuSans-63"/>
     <use x="748.851562" xlink:href="#DejaVuSans-2e"/>
     <use x="780.638672" xlink:href="#DejaVuSans-50"/>
     <use x="840.925781" xlink:href="#DejaVuSans-72"/>
     <use x="882.007812" xlink:href="#DejaVuSans-6f"/>
     <use x="943.189453" xlink:href="#DejaVuSans-70"/>
     <use x="1006.666016" xlink:href="#DejaVuSans-28"/>
     <use x="1045.679688" xlink:href="#DejaVuSans-27"/>
     <use x="1073.169922" xlink:href="#DejaVuSans-31"/>
     <use x="1136.792969" xlink:href="#DejaVuSans-35"/>
     <use x="1200.416016" xlink:href="#DejaVuSans-34"/>
     <use x="1264.039062" xlink:href="#DejaVuSans-27"/>
     <use x="1291.529297" xlink:href="#DejaVuSans-29"/>
     <use x="1330.542969" xlink:href="#DejaVuSans-26"/>
     <use x="1408.521484" xlink:href="#DejaVuSans-20"/>
     <use x="1440.308594" xlink:href="#DejaVuSans-70"/>
     <use x="1503.785156" xlink:href="#DejaVuSans-79"/>
     <use x="1562.964844" xlink:href="#DejaVuSans-70"/>
     <use x="1626.441406" xlink:href="#DejaVuSans-72"/>
     <use x="1667.523438" xlink:href="#DejaVuSans-6f"/>
     <use x="1728.705078" xlink:href="#DejaVuSans-76"/>
     <use x="1787.884766" xlink:href="#DejaVuSans-65"/>
     <use x="1849.408203" xlink:href="#DejaVuSans-72"/>
     <use x="1890.380859" xlink:href="#DejaVuSans-2e"/>
     <use x="1922.167969" xlink:href="#DejaVuSans-6c"/>
     <use x="1949.951172" xlink:href="#DejaVuSans-6f"/>
     <use x="2011.132812" xlink:href="#DejaVuSans-67"/>
     <use x="2074.609375" xlink:href="#DejaVuSans-69"/>
     <use x="2102.392578" xlink:href="#DejaVuSans-63"/>
     <use x="2157.373047" xlink:href="#DejaVuSans-2e"/>
     <use x="2189.160156" xlink:href="#DejaVuSans-50"/>
     <use x="2249.447266" xlink:href="#DejaVuSans-72"/>
     <use x="2290.529297" xlink:href="#DejaVuSans-6f"/>
     <use x="2351.710938" xlink:href="#DejaVuSans-70"/>
     <use x="2415.1875" xlink:href="#DejaVuSans-28"/>
     <use x="2454.201172" xlink:href="#DejaVuSans-27"/>
     <use x="2481.691406" xlink:href="#DejaVuSans-31"/>
     <use x="2545.314453" xlink:href="#DejaVuSans-35"/>
     <use x="2608.9375" xlink:href="#DejaVuSans-35"/>
     <use x="2672.560547" xlink:href="#DejaVuSans-27"/>
     <use x="2700.050781" xlink:href="#DejaVuSans-29"/>
     <use x="2739.064453" xlink:href="#DejaVuSans-26"/>
     <use x="2817.042969" xlink:href="#DejaVuSans-20"/>
     <use x="2848.830078" xlink:href="#DejaVuSans-70"/>
     <use x="2912.306641" xlink:href="#DejaVuSans-79"/>
     <use x="2971.486328" xlink:href="#DejaVuSans-70"/>
     <use x="3034.962891" xlink:href="#DejaVuSans-72"/>
     <use x="3076.044922" xlink:href="#DejaVuSans-6f"/>
     <use x="3137.226562" xlink:href="#DejaVuSans-76"/>
     <use x="3196.40625" xlink:href="#DejaVuSans-65"/>
     <use x="3257.929688" xlink:href="#DejaVuSans-72"/>
     <use x="3298.902344" xlink:href="#DejaVuSans-2e"/>
     <use x="3330.689453" xlink:href="#DejaVuSans-6c"/>
     <use x="3358.472656" xlink:href="#DejaVuSans-6f"/>
     <use x="3419.654297" xlink:href="#DejaVuSans-67"/>
     <use x="3483.130859" xlink:href="#DejaVuSans-69"/>
     <use x="3510.914062" xlink:href="#DejaVuSans-63"/>
     <use x="3565.894531" xlink:href="#DejaVuSans-2e"/>
     <use x="3597.681641" xlink:href="#DejaVuSans-50"/>
     <use x="3657.96875" xlink:href="#DejaVuSans-72"/>
     <use x="3699.050781" xlink:href="#DejaVuSans-6f"/>
     <use x="3760.232422" xlink:href="#DejaVuSans-70"/>
     <use x="3823.708984" xlink:href="#DejaVuSans-28"/>
     <use x="3862.722656" xlink:href="#DejaVuSans-27"/>
     <use x="3890.212891" xlink:href="#DejaVuSans-31"/>
     <use x="3953.835938" xlink:href="#DejaVuSans-35"/>
     <use x="4017.458984" xlink:href="#DejaVuSans-36"/>
     <use x="4081.082031" xlink:href="#DejaVuSans-27"/>
     <use x="4108.572266" xlink:href="#DejaVuSans-29"/>
    </g>
   </g>
  </g>
 </g>
 <defs>
  <clipPath id="p4ec8a8b9ae">
   <rect height="554.4" width="837" x="135" y="86.4"/>
  </clipPath>
 </defs>
</svg>
