<?xml version="1.0" encoding="utf-8" standalone="no"?>
<!DOCTYPE svg PUBLIC "-//W3C//DTD SVG 1.1//EN"
  "http://www.w3.org/Graphics/SVG/1.1/DTD/svg11.dtd">
<!-- Created with matplotlib (http://matplotlib.org/) -->
<svg height="720pt" version="1.1" viewBox="0 0 1080 720" width="1080pt" xmlns="http://www.w3.org/2000/svg" xmlns:xlink="http://www.w3.org/1999/xlink">
 <defs>
  <style type="text/css">
*{stroke-linecap:butt;stroke-linejoin:round;}
  </style>
 </defs>
 <g id="figure_1">
  <g id="patch_1">
   <path d="M 0 720 
L 1080 720 
L 1080 0 
L 0 0 
z
" style="fill:#ffffff;"/>
  </g>
  <g id="axes_1">
   <g id="patch_2">
    <path clip-path="url(#pc14818c7d5)" d="M 606.544004 134.509091 
Q 409.256579 247.80922 214.87774 359.438979 
" style="fill:none;stroke:#000000;stroke-linecap:round;stroke-width:3;"/>
    <path clip-path="url(#pc14818c7d5)" d="M 220.235387 359.129754 
L 214.87774 359.438979 
L 217.844948 354.967327 
L 220.235387 359.129754 
z
" style="stroke:#000000;stroke-linecap:round;stroke-width:3;"/>
   </g>
   <g id="patch_3">
    <path clip-path="url(#pc14818c7d5)" d="M 606.544004 134.509091 
Q 545.500385 246.85753 486.058085 356.258803 
" style="fill:none;stroke:#000000;stroke-linecap:round;stroke-width:3;"/>
    <path clip-path="url(#pc14818c7d5)" d="M 490.458525 353.186975 
L 486.058085 356.258803 
L 486.240886 350.895355 
L 490.458525 353.186975 
z
" style="stroke:#000000;stroke-linecap:round;stroke-width:3;"/>
   </g>
   <g id="patch_4">
    <path clip-path="url(#pc14818c7d5)" d="M 606.544004 134.509091 
Q 667.593436 246.85753 727.041432 356.258867 
" style="fill:none;stroke:#000000;stroke-linecap:round;stroke-width:3;"/>
    <path clip-path="url(#pc14818c7d5)" d="M 726.858417 350.895426 
L 727.041432 356.258867 
L 722.64087 353.187214 
L 726.858417 350.895426 
z
" style="stroke:#000000;stroke-linecap:round;stroke-width:3;"/>
   </g>
   <g id="patch_5">
    <path clip-path="url(#pc14818c7d5)" d="M 606.544004 134.509091 
Q 750.986555 247.513838 892.787404 358.451846 
" style="fill:none;stroke:#000000;stroke-linecap:round;stroke-width:3;"/>
    <path clip-path="url(#pc14818c7d5)" d="M 890.485744 353.603923 
L 892.787404 358.451846 
L 887.528069 357.38442 
L 890.485744 353.603923 
z
" style="stroke:#000000;stroke-linecap:round;stroke-width:3;"/>
   </g>
   <g id="patch_6">
    <path clip-path="url(#pc14818c7d5)" d="M 482.069305 363.6 
Q 482.069305 475.644317 482.069305 584.334532 
" style="fill:none;stroke:#000000;stroke-linecap:round;stroke-width:3;"/>
    <path clip-path="url(#pc14818c7d5)" d="M 484.469305 579.534532 
L 482.069305 584.334532 
L 479.669305 579.534532 
L 484.469305 579.534532 
z
" style="stroke:#000000;stroke-linecap:round;stroke-width:3;"/>
   </g>
   <g id="text_1">
    <g id="patch_7">
     <path clip-path="url(#pc14818c7d5)" d="M 345.827961 257.03267 
L 468.348274 257.03267 
Q 471.348274 257.03267 471.348274 254.03267 
L 471.348274 244.07642 
Q 471.348274 241.07642 468.348274 241.07642 
L 345.827961 241.07642 
Q 342.827961 241.07642 342.827961 244.07642 
L 342.827961 254.03267 
Q 342.827961 257.03267 345.827961 257.03267 
z
" style="fill:#ffffff;stroke:#ffffff;stroke-linejoin:miter;"/>
    </g>
    <g clip-path="url(#pc14818c7d5)">
     <!-- shared_negations: (not,) -->
     <defs>
      <path d="M 44.28125 53.078125 
L 44.28125 44.578125 
Q 40.484375 46.53125 36.375 47.5 
Q 32.28125 48.484375 27.875 48.484375 
Q 21.1875 48.484375 17.84375 46.4375 
Q 14.5 44.390625 14.5 40.28125 
Q 14.5 37.15625 16.890625 35.375 
Q 19.28125 33.59375 26.515625 31.984375 
L 29.59375 31.296875 
Q 39.15625 29.25 43.1875 25.515625 
Q 47.21875 21.78125 47.21875 15.09375 
Q 47.21875 7.46875 41.1875 3.015625 
Q 35.15625 -1.421875 24.609375 -1.421875 
Q 20.21875 -1.421875 15.453125 -0.5625 
Q 10.6875 0.296875 5.421875 2 
L 5.421875 11.28125 
Q 10.40625 8.6875 15.234375 7.390625 
Q 20.0625 6.109375 24.8125 6.109375 
Q 31.15625 6.109375 34.5625 8.28125 
Q 37.984375 10.453125 37.984375 14.40625 
Q 37.984375 18.0625 35.515625 20.015625 
Q 33.0625 21.96875 24.703125 23.78125 
L 21.578125 24.515625 
Q 13.234375 26.265625 9.515625 29.90625 
Q 5.8125 33.546875 5.8125 39.890625 
Q 5.8125 47.609375 11.28125 51.796875 
Q 16.75 56 26.8125 56 
Q 31.78125 56 36.171875 55.265625 
Q 40.578125 54.546875 44.28125 53.078125 
z
" id="DejaVuSans-73"/>
      <path d="M 54.890625 33.015625 
L 54.890625 0 
L 45.90625 0 
L 45.90625 32.71875 
Q 45.90625 40.484375 42.875 44.328125 
Q 39.84375 48.1875 33.796875 48.1875 
Q 26.515625 48.1875 22.3125 43.546875 
Q 18.109375 38.921875 18.109375 30.90625 
L 18.109375 0 
L 9.078125 0 
L 9.078125 75.984375 
L 18.109375 75.984375 
L 18.109375 46.1875 
Q 21.34375 51.125 25.703125 53.5625 
Q 30.078125 56 35.796875 56 
Q 45.21875 56 50.046875 50.171875 
Q 54.890625 44.34375 54.890625 33.015625 
z
" id="DejaVuSans-68"/>
      <path d="M 34.28125 27.484375 
Q 23.390625 27.484375 19.1875 25 
Q 14.984375 22.515625 14.984375 16.5 
Q 14.984375 11.71875 18.140625 8.90625 
Q 21.296875 6.109375 26.703125 6.109375 
Q 34.1875 6.109375 38.703125 11.40625 
Q 43.21875 16.703125 43.21875 25.484375 
L 43.21875 27.484375 
z
M 52.203125 31.203125 
L 52.203125 0 
L 43.21875 0 
L 43.21875 8.296875 
Q 40.140625 3.328125 35.546875 0.953125 
Q 30.953125 -1.421875 24.3125 -1.421875 
Q 15.921875 -1.421875 10.953125 3.296875 
Q 6 8.015625 6 15.921875 
Q 6 25.140625 12.171875 29.828125 
Q 18.359375 34.515625 30.609375 34.515625 
L 43.21875 34.515625 
L 43.21875 35.40625 
Q 43.21875 41.609375 39.140625 45 
Q 35.0625 48.390625 27.6875 48.390625 
Q 23 48.390625 18.546875 47.265625 
Q 14.109375 46.140625 10.015625 43.890625 
L 10.015625 52.203125 
Q 14.9375 54.109375 19.578125 55.046875 
Q 24.21875 56 28.609375 56 
Q 40.484375 56 46.34375 49.84375 
Q 52.203125 43.703125 52.203125 31.203125 
z
" id="DejaVuSans-61"/>
      <path d="M 41.109375 46.296875 
Q 39.59375 47.171875 37.8125 47.578125 
Q 36.03125 48 33.890625 48 
Q 26.265625 48 22.1875 43.046875 
Q 18.109375 38.09375 18.109375 28.8125 
L 18.109375 0 
L 9.078125 0 
L 9.078125 54.6875 
L 18.109375 54.6875 
L 18.109375 46.1875 
Q 20.953125 51.171875 25.484375 53.578125 
Q 30.03125 56 36.53125 56 
Q 37.453125 56 38.578125 55.875 
Q 39.703125 55.765625 41.0625 55.515625 
z
" id="DejaVuSans-72"/>
      <path d="M 56.203125 29.59375 
L 56.203125 25.203125 
L 14.890625 25.203125 
Q 15.484375 15.921875 20.484375 11.0625 
Q 25.484375 6.203125 34.421875 6.203125 
Q 39.59375 6.203125 44.453125 7.46875 
Q 49.3125 8.734375 54.109375 11.28125 
L 54.109375 2.78125 
Q 49.265625 0.734375 44.1875 -0.34375 
Q 39.109375 -1.421875 33.890625 -1.421875 
Q 20.796875 -1.421875 13.15625 6.1875 
Q 5.515625 13.8125 5.515625 26.8125 
Q 5.515625 40.234375 12.765625 48.109375 
Q 20.015625 56 32.328125 56 
Q 43.359375 56 49.78125 48.890625 
Q 56.203125 41.796875 56.203125 29.59375 
z
M 47.21875 32.234375 
Q 47.125 39.59375 43.09375 43.984375 
Q 39.0625 48.390625 32.421875 48.390625 
Q 24.90625 48.390625 20.390625 44.140625 
Q 15.875 39.890625 15.1875 32.171875 
z
" id="DejaVuSans-65"/>
      <path d="M 45.40625 46.390625 
L 45.40625 75.984375 
L 54.390625 75.984375 
L 54.390625 0 
L 45.40625 0 
L 45.40625 8.203125 
Q 42.578125 3.328125 38.25 0.953125 
Q 33.9375 -1.421875 27.875 -1.421875 
Q 17.96875 -1.421875 11.734375 6.484375 
Q 5.515625 14.40625 5.515625 27.296875 
Q 5.515625 40.1875 11.734375 48.09375 
Q 17.96875 56 27.875 56 
Q 33.9375 56 38.25 53.625 
Q 42.578125 51.265625 45.40625 46.390625 
z
M 14.796875 27.296875 
Q 14.796875 17.390625 18.875 11.75 
Q 22.953125 6.109375 30.078125 6.109375 
Q 37.203125 6.109375 41.296875 11.75 
Q 45.40625 17.390625 45.40625 27.296875 
Q 45.40625 37.203125 41.296875 42.84375 
Q 37.203125 48.484375 30.078125 48.484375 
Q 22.953125 48.484375 18.875 42.84375 
Q 14.796875 37.203125 14.796875 27.296875 
z
" id="DejaVuSans-64"/>
      <path d="M 50.984375 -16.609375 
L 50.984375 -23.578125 
L -0.984375 -23.578125 
L -0.984375 -16.609375 
z
" id="DejaVuSans-5f"/>
      <path d="M 54.890625 33.015625 
L 54.890625 0 
L 45.90625 0 
L 45.90625 32.71875 
Q 45.90625 40.484375 42.875 44.328125 
Q 39.84375 48.1875 33.796875 48.1875 
Q 26.515625 48.1875 22.3125 43.546875 
Q 18.109375 38.921875 18.109375 30.90625 
L 18.109375 0 
L 9.078125 0 
L 9.078125 54.6875 
L 18.109375 54.6875 
L 18.109375 46.1875 
Q 21.34375 51.125 25.703125 53.5625 
Q 30.078125 56 35.796875 56 
Q 45.21875 56 50.046875 50.171875 
Q 54.890625 44.34375 54.890625 33.015625 
z
" id="DejaVuSans-6e"/>
      <path d="M 45.40625 27.984375 
Q 45.40625 37.75 41.375 43.109375 
Q 37.359375 48.484375 30.078125 48.484375 
Q 22.859375 48.484375 18.828125 43.109375 
Q 14.796875 37.75 14.796875 27.984375 
Q 14.796875 18.265625 18.828125 12.890625 
Q 22.859375 7.515625 30.078125 7.515625 
Q 37.359375 7.515625 41.375 12.890625 
Q 45.40625 18.265625 45.40625 27.984375 
z
M 54.390625 6.78125 
Q 54.390625 -7.171875 48.1875 -13.984375 
Q 42 -20.796875 29.203125 -20.796875 
Q 24.46875 -20.796875 20.265625 -20.09375 
Q 16.0625 -19.390625 12.109375 -17.921875 
L 12.109375 -9.1875 
Q 16.0625 -11.328125 19.921875 -12.34375 
Q 23.78125 -13.375 27.78125 -13.375 
Q 36.625 -13.375 41.015625 -8.765625 
Q 45.40625 -4.15625 45.40625 5.171875 
L 45.40625 9.625 
Q 42.625 4.78125 38.28125 2.390625 
Q 33.9375 0 27.875 0 
Q 17.828125 0 11.671875 7.65625 
Q 5.515625 15.328125 5.515625 27.984375 
Q 5.515625 40.671875 11.671875 48.328125 
Q 17.828125 56 27.875 56 
Q 33.9375 56 38.28125 53.609375 
Q 42.625 51.21875 45.40625 46.390625 
L 45.40625 54.6875 
L 54.390625 54.6875 
z
" id="DejaVuSans-67"/>
      <path d="M 18.3125 70.21875 
L 18.3125 54.6875 
L 36.8125 54.6875 
L 36.8125 47.703125 
L 18.3125 47.703125 
L 18.3125 18.015625 
Q 18.3125 11.328125 20.140625 9.421875 
Q 21.96875 7.515625 27.59375 7.515625 
L 36.8125 7.515625 
L 36.8125 0 
L 27.59375 0 
Q 17.1875 0 13.234375 3.875 
Q 9.28125 7.765625 9.28125 18.015625 
L 9.28125 47.703125 
L 2.6875 47.703125 
L 2.6875 54.6875 
L 9.28125 54.6875 
L 9.28125 70.21875 
z
" id="DejaVuSans-74"/>
      <path d="M 9.421875 54.6875 
L 18.40625 54.6875 
L 18.40625 0 
L 9.421875 0 
z
M 9.421875 75.984375 
L 18.40625 75.984375 
L 18.40625 64.59375 
L 9.421875 64.59375 
z
" id="DejaVuSans-69"/>
      <path d="M 30.609375 48.390625 
Q 23.390625 48.390625 19.1875 42.75 
Q 14.984375 37.109375 14.984375 27.296875 
Q 14.984375 17.484375 19.15625 11.84375 
Q 23.34375 6.203125 30.609375 6.203125 
Q 37.796875 6.203125 41.984375 11.859375 
Q 46.1875 17.53125 46.1875 27.296875 
Q 46.1875 37.015625 41.984375 42.703125 
Q 37.796875 48.390625 30.609375 48.390625 
z
M 30.609375 56 
Q 42.328125 56 49.015625 48.375 
Q 55.71875 40.765625 55.71875 27.296875 
Q 55.71875 13.875 49.015625 6.21875 
Q 42.328125 -1.421875 30.609375 -1.421875 
Q 18.84375 -1.421875 12.171875 6.21875 
Q 5.515625 13.875 5.515625 27.296875 
Q 5.515625 40.765625 12.171875 48.375 
Q 18.84375 56 30.609375 56 
z
" id="DejaVuSans-6f"/>
      <path d="M 11.71875 12.40625 
L 22.015625 12.40625 
L 22.015625 0 
L 11.71875 0 
z
M 11.71875 51.703125 
L 22.015625 51.703125 
L 22.015625 39.3125 
L 11.71875 39.3125 
z
" id="DejaVuSans-3a"/>
      <path id="DejaVuSans-20"/>
      <path d="M 31 75.875 
Q 24.46875 64.65625 21.28125 53.65625 
Q 18.109375 42.671875 18.109375 31.390625 
Q 18.109375 20.125 21.3125 9.0625 
Q 24.515625 -2 31 -13.1875 
L 23.1875 -13.1875 
Q 15.875 -1.703125 12.234375 9.375 
Q 8.59375 20.453125 8.59375 31.390625 
Q 8.59375 42.28125 12.203125 53.3125 
Q 15.828125 64.359375 23.1875 75.875 
z
" id="DejaVuSans-28"/>
      <path d="M 11.71875 12.40625 
L 22.015625 12.40625 
L 22.015625 4 
L 14.015625 -11.625 
L 7.71875 -11.625 
L 11.71875 4 
z
" id="DejaVuSans-2c"/>
      <path d="M 8.015625 75.875 
L 15.828125 75.875 
Q 23.140625 64.359375 26.78125 53.3125 
Q 30.421875 42.28125 30.421875 31.390625 
Q 30.421875 20.453125 26.78125 9.375 
Q 23.140625 -1.703125 15.828125 -13.1875 
L 8.015625 -13.1875 
Q 14.5 -2 17.703125 9.0625 
Q 20.90625 20.125 20.90625 31.390625 
Q 20.90625 42.671875 17.703125 53.65625 
Q 14.5 64.65625 8.015625 75.875 
z
" id="DejaVuSans-29"/>
     </defs>
     <g transform="translate(345.827961 251.674858)scale(0.1 -0.1)">
      <use xlink:href="#DejaVuSans-73"/>
      <use x="52.099609" xlink:href="#DejaVuSans-68"/>
      <use x="115.478516" xlink:href="#DejaVuSans-61"/>
      <use x="176.757812" xlink:href="#DejaVuSans-72"/>
      <use x="217.839844" xlink:href="#DejaVuSans-65"/>
      <use x="279.363281" xlink:href="#DejaVuSans-64"/>
      <use x="342.839844" xlink:href="#DejaVuSans-5f"/>
      <use x="392.839844" xlink:href="#DejaVuSans-6e"/>
      <use x="456.21875" xlink:href="#DejaVuSans-65"/>
      <use x="517.742188" xlink:href="#DejaVuSans-67"/>
      <use x="581.21875" xlink:href="#DejaVuSans-61"/>
      <use x="642.498047" xlink:href="#DejaVuSans-74"/>
      <use x="681.707031" xlink:href="#DejaVuSans-69"/>
      <use x="709.490234" xlink:href="#DejaVuSans-6f"/>
      <use x="770.671875" xlink:href="#DejaVuSans-6e"/>
      <use x="834.050781" xlink:href="#DejaVuSans-73"/>
      <use x="886.150391" xlink:href="#DejaVuSans-3a"/>
      <use x="919.841797" xlink:href="#DejaVuSans-20"/>
      <use x="951.628906" xlink:href="#DejaVuSans-28"/>
      <use x="990.642578" xlink:href="#DejaVuSans-6e"/>
      <use x="1054.021484" xlink:href="#DejaVuSans-6f"/>
      <use x="1115.203125" xlink:href="#DejaVuSans-74"/>
      <use x="1154.412109" xlink:href="#DejaVuSans-2c"/>
      <use x="1186.199219" xlink:href="#DejaVuSans-29"/>
     </g>
    </g>
   </g>
   <g id="text_2">
    <g id="patch_8">
     <path clip-path="url(#pc14818c7d5)" d="M 609.48728 257.03267 
L 728.08728 257.03267 
Q 731.08728 257.03267 731.08728 254.03267 
L 731.08728 244.07642 
Q 731.08728 241.07642 728.08728 241.07642 
L 609.48728 241.07642 
Q 606.48728 241.07642 606.48728 244.07642 
L 606.48728 254.03267 
Q 606.48728 257.03267 609.48728 257.03267 
z
" style="fill:#ffffff;stroke:#ffffff;stroke-linejoin:miter;"/>
    </g>
    <g clip-path="url(#pc14818c7d5)">
     <!-- shared_negations: (no,) -->
     <g transform="translate(609.48728 251.674858)scale(0.1 -0.1)">
      <use xlink:href="#DejaVuSans-73"/>
      <use x="52.099609" xlink:href="#DejaVuSans-68"/>
      <use x="115.478516" xlink:href="#DejaVuSans-61"/>
      <use x="176.757812" xlink:href="#DejaVuSans-72"/>
      <use x="217.839844" xlink:href="#DejaVuSans-65"/>
      <use x="279.363281" xlink:href="#DejaVuSans-64"/>
      <use x="342.839844" xlink:href="#DejaVuSans-5f"/>
      <use x="392.839844" xlink:href="#DejaVuSans-6e"/>
      <use x="456.21875" xlink:href="#DejaVuSans-65"/>
      <use x="517.742188" xlink:href="#DejaVuSans-67"/>
      <use x="581.21875" xlink:href="#DejaVuSans-61"/>
      <use x="642.498047" xlink:href="#DejaVuSans-74"/>
      <use x="681.707031" xlink:href="#DejaVuSans-69"/>
      <use x="709.490234" xlink:href="#DejaVuSans-6f"/>
      <use x="770.671875" xlink:href="#DejaVuSans-6e"/>
      <use x="834.050781" xlink:href="#DejaVuSans-73"/>
      <use x="886.150391" xlink:href="#DejaVuSans-3a"/>
      <use x="919.841797" xlink:href="#DejaVuSans-20"/>
      <use x="951.628906" xlink:href="#DejaVuSans-28"/>
      <use x="990.642578" xlink:href="#DejaVuSans-6e"/>
      <use x="1054.021484" xlink:href="#DejaVuSans-6f"/>
      <use x="1115.203125" xlink:href="#DejaVuSans-2c"/>
      <use x="1146.990234" xlink:href="#DejaVuSans-29"/>
     </g>
    </g>
   </g>
   <g id="PathCollection_1">
    <defs>
     <path d="M 0 5 
C 1.326016 5 2.597899 4.473168 3.535534 3.535534 
C 4.473168 2.597899 5 1.326016 5 0 
C 5 -1.326016 4.473168 -2.597899 3.535534 -3.535534 
C 2.597899 -4.473168 1.326016 -5 0 -5 
C -1.326016 -5 -2.597899 -4.473168 -3.535534 -3.535534 
C -4.473168 -2.597899 -5 -1.326016 -5 0 
C -5 1.326016 -4.473168 2.597899 -3.535534 3.535534 
C -2.597899 4.473168 -1.326016 5 0 5 
z
" id="med4d9a7228" style="stroke:#0000ff;"/>
    </defs>
    <g clip-path="url(#pc14818c7d5)">
     <use style="fill:#0000ff;stroke:#0000ff;" x="606.544004" xlink:href="#med4d9a7228" y="134.509091"/>
     <use style="fill:#0000ff;stroke:#0000ff;" x="207.632231" xlink:href="#med4d9a7228" y="363.6"/>
     <use style="fill:#0000ff;stroke:#0000ff;" x="482.069305" xlink:href="#med4d9a7228" y="363.6"/>
     <use style="fill:#0000ff;stroke:#0000ff;" x="731.030557" xlink:href="#med4d9a7228" y="363.6"/>
     <use style="fill:#0000ff;stroke:#0000ff;" x="899.367769" xlink:href="#med4d9a7228" y="363.6"/>
     <use style="fill:#0000ff;stroke:#0000ff;" x="482.069305" xlink:href="#med4d9a7228" y="592.690909"/>
    </g>
   </g>
   <g id="text_3">
    <g clip-path="url(#pc14818c7d5)">
     <!-- 258  Again , colour is present -->
     <defs>
      <path d="M 19.1875 8.296875 
L 53.609375 8.296875 
L 53.609375 0 
L 7.328125 0 
L 7.328125 8.296875 
Q 12.9375 14.109375 22.625 23.890625 
Q 32.328125 33.6875 34.8125 36.53125 
Q 39.546875 41.84375 41.421875 45.53125 
Q 43.3125 49.21875 43.3125 52.78125 
Q 43.3125 58.59375 39.234375 62.25 
Q 35.15625 65.921875 28.609375 65.921875 
Q 23.96875 65.921875 18.8125 64.3125 
Q 13.671875 62.703125 7.8125 59.421875 
L 7.8125 69.390625 
Q 13.765625 71.78125 18.9375 73 
Q 24.125 74.21875 28.421875 74.21875 
Q 39.75 74.21875 46.484375 68.546875 
Q 53.21875 62.890625 53.21875 53.421875 
Q 53.21875 48.921875 51.53125 44.890625 
Q 49.859375 40.875 45.40625 35.40625 
Q 44.1875 33.984375 37.640625 27.21875 
Q 31.109375 20.453125 19.1875 8.296875 
z
" id="DejaVuSans-32"/>
      <path d="M 10.796875 72.90625 
L 49.515625 72.90625 
L 49.515625 64.59375 
L 19.828125 64.59375 
L 19.828125 46.734375 
Q 21.96875 47.46875 24.109375 47.828125 
Q 26.265625 48.1875 28.421875 48.1875 
Q 40.625 48.1875 47.75 41.5 
Q 54.890625 34.8125 54.890625 23.390625 
Q 54.890625 11.625 47.5625 5.09375 
Q 40.234375 -1.421875 26.90625 -1.421875 
Q 22.3125 -1.421875 17.546875 -0.640625 
Q 12.796875 0.140625 7.71875 1.703125 
L 7.71875 11.625 
Q 12.109375 9.234375 16.796875 8.0625 
Q 21.484375 6.890625 26.703125 6.890625 
Q 35.15625 6.890625 40.078125 11.328125 
Q 45.015625 15.765625 45.015625 23.390625 
Q 45.015625 31 40.078125 35.4375 
Q 35.15625 39.890625 26.703125 39.890625 
Q 22.75 39.890625 18.8125 39.015625 
Q 14.890625 38.140625 10.796875 36.28125 
z
" id="DejaVuSans-35"/>
      <path d="M 31.78125 34.625 
Q 24.75 34.625 20.71875 30.859375 
Q 16.703125 27.09375 16.703125 20.515625 
Q 16.703125 13.921875 20.71875 10.15625 
Q 24.75 6.390625 31.78125 6.390625 
Q 38.8125 6.390625 42.859375 10.171875 
Q 46.921875 13.96875 46.921875 20.515625 
Q 46.921875 27.09375 42.890625 30.859375 
Q 38.875 34.625 31.78125 34.625 
z
M 21.921875 38.8125 
Q 15.578125 40.375 12.03125 44.71875 
Q 8.5 49.078125 8.5 55.328125 
Q 8.5 64.0625 14.71875 69.140625 
Q 20.953125 74.21875 31.78125 74.21875 
Q 42.671875 74.21875 48.875 69.140625 
Q 55.078125 64.0625 55.078125 55.328125 
Q 55.078125 49.078125 51.53125 44.71875 
Q 48 40.375 41.703125 38.8125 
Q 48.828125 37.15625 52.796875 32.3125 
Q 56.78125 27.484375 56.78125 20.515625 
Q 56.78125 9.90625 50.3125 4.234375 
Q 43.84375 -1.421875 31.78125 -1.421875 
Q 19.734375 -1.421875 13.25 4.234375 
Q 6.78125 9.90625 6.78125 20.515625 
Q 6.78125 27.484375 10.78125 32.3125 
Q 14.796875 37.15625 21.921875 38.8125 
z
M 18.3125 54.390625 
Q 18.3125 48.734375 21.84375 45.5625 
Q 25.390625 42.390625 31.78125 42.390625 
Q 38.140625 42.390625 41.71875 45.5625 
Q 45.3125 48.734375 45.3125 54.390625 
Q 45.3125 60.0625 41.71875 63.234375 
Q 38.140625 66.40625 31.78125 66.40625 
Q 25.390625 66.40625 21.84375 63.234375 
Q 18.3125 60.0625 18.3125 54.390625 
z
" id="DejaVuSans-38"/>
      <path d="M 34.1875 63.1875 
L 20.796875 26.90625 
L 47.609375 26.90625 
z
M 28.609375 72.90625 
L 39.796875 72.90625 
L 67.578125 0 
L 57.328125 0 
L 50.6875 18.703125 
L 17.828125 18.703125 
L 11.1875 0 
L 0.78125 0 
z
" id="DejaVuSans-41"/>
      <path d="M 48.78125 52.59375 
L 48.78125 44.1875 
Q 44.96875 46.296875 41.140625 47.34375 
Q 37.3125 48.390625 33.40625 48.390625 
Q 24.65625 48.390625 19.8125 42.84375 
Q 14.984375 37.3125 14.984375 27.296875 
Q 14.984375 17.28125 19.8125 11.734375 
Q 24.65625 6.203125 33.40625 6.203125 
Q 37.3125 6.203125 41.140625 7.25 
Q 44.96875 8.296875 48.78125 10.40625 
L 48.78125 2.09375 
Q 45.015625 0.34375 40.984375 -0.53125 
Q 36.96875 -1.421875 32.421875 -1.421875 
Q 20.0625 -1.421875 12.78125 6.34375 
Q 5.515625 14.109375 5.515625 27.296875 
Q 5.515625 40.671875 12.859375 48.328125 
Q 20.21875 56 33.015625 56 
Q 37.15625 56 41.109375 55.140625 
Q 45.0625 54.296875 48.78125 52.59375 
z
" id="DejaVuSans-63"/>
      <path d="M 9.421875 75.984375 
L 18.40625 75.984375 
L 18.40625 0 
L 9.421875 0 
z
" id="DejaVuSans-6c"/>
      <path d="M 8.5 21.578125 
L 8.5 54.6875 
L 17.484375 54.6875 
L 17.484375 21.921875 
Q 17.484375 14.15625 20.5 10.265625 
Q 23.53125 6.390625 29.59375 6.390625 
Q 36.859375 6.390625 41.078125 11.03125 
Q 45.3125 15.671875 45.3125 23.6875 
L 45.3125 54.6875 
L 54.296875 54.6875 
L 54.296875 0 
L 45.3125 0 
L 45.3125 8.40625 
Q 42.046875 3.421875 37.71875 1 
Q 33.40625 -1.421875 27.6875 -1.421875 
Q 18.265625 -1.421875 13.375 4.4375 
Q 8.5 10.296875 8.5 21.578125 
z
M 31.109375 56 
z
" id="DejaVuSans-75"/>
      <path d="M 18.109375 8.203125 
L 18.109375 -20.796875 
L 9.078125 -20.796875 
L 9.078125 54.6875 
L 18.109375 54.6875 
L 18.109375 46.390625 
Q 20.953125 51.265625 25.265625 53.625 
Q 29.59375 56 35.59375 56 
Q 45.5625 56 51.78125 48.09375 
Q 58.015625 40.1875 58.015625 27.296875 
Q 58.015625 14.40625 51.78125 6.484375 
Q 45.5625 -1.421875 35.59375 -1.421875 
Q 29.59375 -1.421875 25.265625 0.953125 
Q 20.953125 3.328125 18.109375 8.203125 
z
M 48.6875 27.296875 
Q 48.6875 37.203125 44.609375 42.84375 
Q 40.53125 48.484375 33.40625 48.484375 
Q 26.265625 48.484375 22.1875 42.84375 
Q 18.109375 37.203125 18.109375 27.296875 
Q 18.109375 17.390625 22.1875 11.75 
Q 26.265625 6.109375 33.40625 6.109375 
Q 40.53125 6.109375 44.609375 11.75 
Q 48.6875 17.390625 48.6875 27.296875 
z
" id="DejaVuSans-70"/>
     </defs>
     <g transform="translate(533.070566 103.675028)scale(0.1 -0.1)">
      <use xlink:href="#DejaVuSans-32"/>
      <use x="63.623047" xlink:href="#DejaVuSans-35"/>
      <use x="127.246094" xlink:href="#DejaVuSans-38"/>
      <use x="190.869141" xlink:href="#DejaVuSans-20"/>
      <use x="222.65625" xlink:href="#DejaVuSans-20"/>
      <use x="254.443359" xlink:href="#DejaVuSans-41"/>
      <use x="322.851562" xlink:href="#DejaVuSans-67"/>
      <use x="386.328125" xlink:href="#DejaVuSans-61"/>
      <use x="447.607422" xlink:href="#DejaVuSans-69"/>
      <use x="475.390625" xlink:href="#DejaVuSans-6e"/>
      <use x="538.769531" xlink:href="#DejaVuSans-20"/>
      <use x="570.556641" xlink:href="#DejaVuSans-2c"/>
      <use x="602.34375" xlink:href="#DejaVuSans-20"/>
      <use x="634.130859" xlink:href="#DejaVuSans-63"/>
      <use x="689.111328" xlink:href="#DejaVuSans-6f"/>
      <use x="750.292969" xlink:href="#DejaVuSans-6c"/>
      <use x="778.076172" xlink:href="#DejaVuSans-6f"/>
      <use x="839.257812" xlink:href="#DejaVuSans-75"/>
      <use x="902.636719" xlink:href="#DejaVuSans-72"/>
      <use x="943.75" xlink:href="#DejaVuSans-20"/>
      <use x="975.537109" xlink:href="#DejaVuSans-69"/>
      <use x="1003.320312" xlink:href="#DejaVuSans-73"/>
      <use x="1055.419922" xlink:href="#DejaVuSans-20"/>
      <use x="1087.207031" xlink:href="#DejaVuSans-70"/>
      <use x="1150.683594" xlink:href="#DejaVuSans-72"/>
      <use x="1191.765625" xlink:href="#DejaVuSans-65"/>
      <use x="1253.289062" xlink:href="#DejaVuSans-73"/>
      <use x="1305.388672" xlink:href="#DejaVuSans-65"/>
      <use x="1366.912109" xlink:href="#DejaVuSans-6e"/>
      <use x="1430.291016" xlink:href="#DejaVuSans-74"/>
     </g>
    </g>
    <g clip-path="url(#pc14818c7d5)">
     <!-- in body , therefore in -->
     <defs>
      <path d="M 48.6875 27.296875 
Q 48.6875 37.203125 44.609375 42.84375 
Q 40.53125 48.484375 33.40625 48.484375 
Q 26.265625 48.484375 22.1875 42.84375 
Q 18.109375 37.203125 18.109375 27.296875 
Q 18.109375 17.390625 22.1875 11.75 
Q 26.265625 6.109375 33.40625 6.109375 
Q 40.53125 6.109375 44.609375 11.75 
Q 48.6875 17.390625 48.6875 27.296875 
z
M 18.109375 46.390625 
Q 20.953125 51.265625 25.265625 53.625 
Q 29.59375 56 35.59375 56 
Q 45.5625 56 51.78125 48.09375 
Q 58.015625 40.1875 58.015625 27.296875 
Q 58.015625 14.40625 51.78125 6.484375 
Q 45.5625 -1.421875 35.59375 -1.421875 
Q 29.59375 -1.421875 25.265625 0.953125 
Q 20.953125 3.328125 18.109375 8.203125 
L 18.109375 0 
L 9.078125 0 
L 9.078125 75.984375 
L 18.109375 75.984375 
z
" id="DejaVuSans-62"/>
      <path d="M 32.171875 -5.078125 
Q 28.375 -14.84375 24.75 -17.8125 
Q 21.140625 -20.796875 15.09375 -20.796875 
L 7.90625 -20.796875 
L 7.90625 -13.28125 
L 13.1875 -13.28125 
Q 16.890625 -13.28125 18.9375 -11.515625 
Q 21 -9.765625 23.484375 -3.21875 
L 25.09375 0.875 
L 2.984375 54.6875 
L 12.5 54.6875 
L 29.59375 11.921875 
L 46.6875 54.6875 
L 56.203125 54.6875 
z
" id="DejaVuSans-79"/>
      <path d="M 37.109375 75.984375 
L 37.109375 68.5 
L 28.515625 68.5 
Q 23.6875 68.5 21.796875 66.546875 
Q 19.921875 64.59375 19.921875 59.515625 
L 19.921875 54.6875 
L 34.71875 54.6875 
L 34.71875 47.703125 
L 19.921875 47.703125 
L 19.921875 0 
L 10.890625 0 
L 10.890625 47.703125 
L 2.296875 47.703125 
L 2.296875 54.6875 
L 10.890625 54.6875 
L 10.890625 58.5 
Q 10.890625 67.625 15.140625 71.796875 
Q 19.390625 75.984375 28.609375 75.984375 
z
" id="DejaVuSans-66"/>
     </defs>
     <g transform="translate(553.829941 114.872841)scale(0.1 -0.1)">
      <use xlink:href="#DejaVuSans-69"/>
      <use x="27.783203" xlink:href="#DejaVuSans-6e"/>
      <use x="91.162109" xlink:href="#DejaVuSans-20"/>
      <use x="122.949219" xlink:href="#DejaVuSans-62"/>
      <use x="186.425781" xlink:href="#DejaVuSans-6f"/>
      <use x="247.607422" xlink:href="#DejaVuSans-64"/>
      <use x="311.083984" xlink:href="#DejaVuSans-79"/>
      <use x="370.263672" xlink:href="#DejaVuSans-20"/>
      <use x="402.050781" xlink:href="#DejaVuSans-2c"/>
      <use x="433.837891" xlink:href="#DejaVuSans-20"/>
      <use x="465.625" xlink:href="#DejaVuSans-74"/>
      <use x="504.833984" xlink:href="#DejaVuSans-68"/>
      <use x="568.212891" xlink:href="#DejaVuSans-65"/>
      <use x="629.736328" xlink:href="#DejaVuSans-72"/>
      <use x="670.818359" xlink:href="#DejaVuSans-65"/>
      <use x="732.341797" xlink:href="#DejaVuSans-66"/>
      <use x="767.546875" xlink:href="#DejaVuSans-6f"/>
      <use x="828.728516" xlink:href="#DejaVuSans-72"/>
      <use x="869.810547" xlink:href="#DejaVuSans-65"/>
      <use x="931.333984" xlink:href="#DejaVuSans-20"/>
      <use x="963.121094" xlink:href="#DejaVuSans-69"/>
      <use x="990.904297" xlink:href="#DejaVuSans-6e"/>
     </g>
    </g>
    <g clip-path="url(#pc14818c7d5)">
     <!-- individual bodies , for if -->
     <defs>
      <path d="M 2.984375 54.6875 
L 12.5 54.6875 
L 29.59375 8.796875 
L 46.6875 54.6875 
L 56.203125 54.6875 
L 35.6875 0 
L 23.484375 0 
z
" id="DejaVuSans-76"/>
     </defs>
     <g transform="translate(547.830722 126.070653)scale(0.1 -0.1)">
      <use xlink:href="#DejaVuSans-69"/>
      <use x="27.783203" xlink:href="#DejaVuSans-6e"/>
      <use x="91.162109" xlink:href="#DejaVuSans-64"/>
      <use x="154.638672" xlink:href="#DejaVuSans-69"/>
      <use x="182.421875" xlink:href="#DejaVuSans-76"/>
      <use x="241.601562" xlink:href="#DejaVuSans-69"/>
      <use x="269.384766" xlink:href="#DejaVuSans-64"/>
      <use x="332.861328" xlink:href="#DejaVuSans-75"/>
      <use x="396.240234" xlink:href="#DejaVuSans-61"/>
      <use x="457.519531" xlink:href="#DejaVuSans-6c"/>
      <use x="485.302734" xlink:href="#DejaVuSans-20"/>
      <use x="517.089844" xlink:href="#DejaVuSans-62"/>
      <use x="580.566406" xlink:href="#DejaVuSans-6f"/>
      <use x="641.748047" xlink:href="#DejaVuSans-64"/>
      <use x="705.224609" xlink:href="#DejaVuSans-69"/>
      <use x="733.007812" xlink:href="#DejaVuSans-65"/>
      <use x="794.53125" xlink:href="#DejaVuSans-73"/>
      <use x="846.630859" xlink:href="#DejaVuSans-20"/>
      <use x="878.417969" xlink:href="#DejaVuSans-2c"/>
      <use x="910.205078" xlink:href="#DejaVuSans-20"/>
      <use x="941.992188" xlink:href="#DejaVuSans-66"/>
      <use x="977.197266" xlink:href="#DejaVuSans-6f"/>
      <use x="1038.378906" xlink:href="#DejaVuSans-72"/>
      <use x="1079.492188" xlink:href="#DejaVuSans-20"/>
      <use x="1111.279297" xlink:href="#DejaVuSans-69"/>
      <use x="1139.0625" xlink:href="#DejaVuSans-66"/>
     </g>
    </g>
    <g clip-path="url(#pc14818c7d5)">
     <!-- there were no individual body -->
     <defs>
      <path d="M 4.203125 54.6875 
L 13.1875 54.6875 
L 24.421875 12.015625 
L 35.59375 54.6875 
L 46.1875 54.6875 
L 57.421875 12.015625 
L 68.609375 54.6875 
L 77.59375 54.6875 
L 63.28125 0 
L 52.6875 0 
L 40.921875 44.828125 
L 29.109375 0 
L 18.5 0 
z
" id="DejaVuSans-77"/>
     </defs>
     <g transform="translate(531.694785 137.268466)scale(0.1 -0.1)">
      <use xlink:href="#DejaVuSans-74"/>
      <use x="39.208984" xlink:href="#DejaVuSans-68"/>
      <use x="102.587891" xlink:href="#DejaVuSans-65"/>
      <use x="164.111328" xlink:href="#DejaVuSans-72"/>
      <use x="205.193359" xlink:href="#DejaVuSans-65"/>
      <use x="266.716797" xlink:href="#DejaVuSans-20"/>
      <use x="298.503906" xlink:href="#DejaVuSans-77"/>
      <use x="380.291016" xlink:href="#DejaVuSans-65"/>
      <use x="441.814453" xlink:href="#DejaVuSans-72"/>
      <use x="482.896484" xlink:href="#DejaVuSans-65"/>
      <use x="544.419922" xlink:href="#DejaVuSans-20"/>
      <use x="576.207031" xlink:href="#DejaVuSans-6e"/>
      <use x="639.585938" xlink:href="#DejaVuSans-6f"/>
      <use x="700.767578" xlink:href="#DejaVuSans-20"/>
      <use x="732.554688" xlink:href="#DejaVuSans-69"/>
      <use x="760.337891" xlink:href="#DejaVuSans-6e"/>
      <use x="823.716797" xlink:href="#DejaVuSans-64"/>
      <use x="887.193359" xlink:href="#DejaVuSans-69"/>
      <use x="914.976562" xlink:href="#DejaVuSans-76"/>
      <use x="974.15625" xlink:href="#DejaVuSans-69"/>
      <use x="1001.939453" xlink:href="#DejaVuSans-64"/>
      <use x="1065.416016" xlink:href="#DejaVuSans-75"/>
      <use x="1128.794922" xlink:href="#DejaVuSans-61"/>
      <use x="1190.074219" xlink:href="#DejaVuSans-6c"/>
      <use x="1217.857422" xlink:href="#DejaVuSans-20"/>
      <use x="1249.644531" xlink:href="#DejaVuSans-62"/>
      <use x="1313.121094" xlink:href="#DejaVuSans-6f"/>
      <use x="1374.302734" xlink:href="#DejaVuSans-64"/>
      <use x="1437.779297" xlink:href="#DejaVuSans-79"/>
     </g>
    </g>
    <g clip-path="url(#pc14818c7d5)">
     <!-- in which it was present , it -->
     <g transform="translate(540.726816 148.466278)scale(0.1 -0.1)">
      <use xlink:href="#DejaVuSans-69"/>
      <use x="27.783203" xlink:href="#DejaVuSans-6e"/>
      <use x="91.162109" xlink:href="#DejaVuSans-20"/>
      <use x="122.949219" xlink:href="#DejaVuSans-77"/>
      <use x="204.736328" xlink:href="#DejaVuSans-68"/>
      <use x="268.115234" xlink:href="#DejaVuSans-69"/>
      <use x="295.898438" xlink:href="#DejaVuSans-63"/>
      <use x="350.878906" xlink:href="#DejaVuSans-68"/>
      <use x="414.257812" xlink:href="#DejaVuSans-20"/>
      <use x="446.044922" xlink:href="#DejaVuSans-69"/>
      <use x="473.828125" xlink:href="#DejaVuSans-74"/>
      <use x="513.037109" xlink:href="#DejaVuSans-20"/>
      <use x="544.824219" xlink:href="#DejaVuSans-77"/>
      <use x="626.611328" xlink:href="#DejaVuSans-61"/>
      <use x="687.890625" xlink:href="#DejaVuSans-73"/>
      <use x="739.990234" xlink:href="#DejaVuSans-20"/>
      <use x="771.777344" xlink:href="#DejaVuSans-70"/>
      <use x="835.253906" xlink:href="#DejaVuSans-72"/>
      <use x="876.335938" xlink:href="#DejaVuSans-65"/>
      <use x="937.859375" xlink:href="#DejaVuSans-73"/>
      <use x="989.958984" xlink:href="#DejaVuSans-65"/>
      <use x="1051.482422" xlink:href="#DejaVuSans-6e"/>
      <use x="1114.861328" xlink:href="#DejaVuSans-74"/>
      <use x="1154.070312" xlink:href="#DejaVuSans-20"/>
      <use x="1185.857422" xlink:href="#DejaVuSans-2c"/>
      <use x="1217.644531" xlink:href="#DejaVuSans-20"/>
      <use x="1249.431641" xlink:href="#DejaVuSans-69"/>
      <use x="1277.214844" xlink:href="#DejaVuSans-74"/>
     </g>
    </g>
    <g clip-path="url(#pc14818c7d5)">
     <!-- could not be present in body -->
     <g transform="translate(534.57916 159.664091)scale(0.1 -0.1)">
      <use xlink:href="#DejaVuSans-63"/>
      <use x="54.980469" xlink:href="#DejaVuSans-6f"/>
      <use x="116.162109" xlink:href="#DejaVuSans-75"/>
      <use x="179.541016" xlink:href="#DejaVuSans-6c"/>
      <use x="207.324219" xlink:href="#DejaVuSans-64"/>
      <use x="270.800781" xlink:href="#DejaVuSans-20"/>
      <use x="302.587891" xlink:href="#DejaVuSans-6e"/>
      <use x="365.966797" xlink:href="#DejaVuSans-6f"/>
      <use x="427.148438" xlink:href="#DejaVuSans-74"/>
      <use x="466.357422" xlink:href="#DejaVuSans-20"/>
      <use x="498.144531" xlink:href="#DejaVuSans-62"/>
      <use x="561.621094" xlink:href="#DejaVuSans-65"/>
      <use x="623.144531" xlink:href="#DejaVuSans-20"/>
      <use x="654.931641" xlink:href="#DejaVuSans-70"/>
      <use x="718.408203" xlink:href="#DejaVuSans-72"/>
      <use x="759.490234" xlink:href="#DejaVuSans-65"/>
      <use x="821.013672" xlink:href="#DejaVuSans-73"/>
      <use x="873.113281" xlink:href="#DejaVuSans-65"/>
      <use x="934.636719" xlink:href="#DejaVuSans-6e"/>
      <use x="998.015625" xlink:href="#DejaVuSans-74"/>
      <use x="1037.224609" xlink:href="#DejaVuSans-20"/>
      <use x="1069.011719" xlink:href="#DejaVuSans-69"/>
      <use x="1096.794922" xlink:href="#DejaVuSans-6e"/>
      <use x="1160.173828" xlink:href="#DejaVuSans-20"/>
      <use x="1191.960938" xlink:href="#DejaVuSans-62"/>
      <use x="1255.4375" xlink:href="#DejaVuSans-6f"/>
      <use x="1316.619141" xlink:href="#DejaVuSans-64"/>
      <use x="1380.095703" xlink:href="#DejaVuSans-79"/>
     </g>
    </g>
    <g clip-path="url(#pc14818c7d5)">
     <!-- at all . -->
     <defs>
      <path d="M 10.6875 12.40625 
L 21 12.40625 
L 21 0 
L 10.6875 0 
z
" id="DejaVuSans-2e"/>
     </defs>
     <g transform="translate(590.91041 170.861903)scale(0.1 -0.1)">
      <use xlink:href="#DejaVuSans-61"/>
      <use x="61.279297" xlink:href="#DejaVuSans-74"/>
      <use x="100.488281" xlink:href="#DejaVuSans-20"/>
      <use x="132.275391" xlink:href="#DejaVuSans-61"/>
      <use x="193.554688" xlink:href="#DejaVuSans-6c"/>
      <use x="221.337891" xlink:href="#DejaVuSans-6c"/>
      <use x="249.121094" xlink:href="#DejaVuSans-20"/>
      <use x="280.908203" xlink:href="#DejaVuSans-2e"/>
     </g>
    </g>
   </g>
   <g id="text_4">
    <g clip-path="url(#pc14818c7d5)">
     <!-- 257  for if there it could not -->
     <defs>
      <path d="M 8.203125 72.90625 
L 55.078125 72.90625 
L 55.078125 68.703125 
L 28.609375 0 
L 18.3125 0 
L 43.21875 64.59375 
L 8.203125 64.59375 
z
" id="DejaVuSans-37"/>
     </defs>
     <g transform="translate(138.526763 360.760469)scale(0.1 -0.1)">
      <use xlink:href="#DejaVuSans-32"/>
      <use x="63.623047" xlink:href="#DejaVuSans-35"/>
      <use x="127.246094" xlink:href="#DejaVuSans-37"/>
      <use x="190.869141" xlink:href="#DejaVuSans-20"/>
      <use x="222.65625" xlink:href="#DejaVuSans-20"/>
      <use x="254.443359" xlink:href="#DejaVuSans-66"/>
      <use x="289.648438" xlink:href="#DejaVuSans-6f"/>
      <use x="350.830078" xlink:href="#DejaVuSans-72"/>
      <use x="391.943359" xlink:href="#DejaVuSans-20"/>
      <use x="423.730469" xlink:href="#DejaVuSans-69"/>
      <use x="451.513672" xlink:href="#DejaVuSans-66"/>
      <use x="486.71875" xlink:href="#DejaVuSans-20"/>
      <use x="518.505859" xlink:href="#DejaVuSans-74"/>
      <use x="557.714844" xlink:href="#DejaVuSans-68"/>
      <use x="621.09375" xlink:href="#DejaVuSans-65"/>
      <use x="682.617188" xlink:href="#DejaVuSans-72"/>
      <use x="723.699219" xlink:href="#DejaVuSans-65"/>
      <use x="785.222656" xlink:href="#DejaVuSans-20"/>
      <use x="817.009766" xlink:href="#DejaVuSans-69"/>
      <use x="844.792969" xlink:href="#DejaVuSans-74"/>
      <use x="884.001953" xlink:href="#DejaVuSans-20"/>
      <use x="915.789062" xlink:href="#DejaVuSans-63"/>
      <use x="970.769531" xlink:href="#DejaVuSans-6f"/>
      <use x="1031.951172" xlink:href="#DejaVuSans-75"/>
      <use x="1095.330078" xlink:href="#DejaVuSans-6c"/>
      <use x="1123.113281" xlink:href="#DejaVuSans-64"/>
      <use x="1186.589844" xlink:href="#DejaVuSans-20"/>
      <use x="1218.376953" xlink:href="#DejaVuSans-6e"/>
      <use x="1281.755859" xlink:href="#DejaVuSans-6f"/>
      <use x="1342.9375" xlink:href="#DejaVuSans-74"/>
     </g>
    </g>
    <g clip-path="url(#pc14818c7d5)">
     <!-- be present in body at all -->
     <g transform="translate(146.529888 371.958281)scale(0.1 -0.1)">
      <use xlink:href="#DejaVuSans-62"/>
      <use x="63.476562" xlink:href="#DejaVuSans-65"/>
      <use x="125" xlink:href="#DejaVuSans-20"/>
      <use x="156.787109" xlink:href="#DejaVuSans-70"/>
      <use x="220.263672" xlink:href="#DejaVuSans-72"/>
      <use x="261.345703" xlink:href="#DejaVuSans-65"/>
      <use x="322.869141" xlink:href="#DejaVuSans-73"/>
      <use x="374.96875" xlink:href="#DejaVuSans-65"/>
      <use x="436.492188" xlink:href="#DejaVuSans-6e"/>
      <use x="499.871094" xlink:href="#DejaVuSans-74"/>
      <use x="539.080078" xlink:href="#DejaVuSans-20"/>
      <use x="570.867188" xlink:href="#DejaVuSans-69"/>
      <use x="598.650391" xlink:href="#DejaVuSans-6e"/>
      <use x="662.029297" xlink:href="#DejaVuSans-20"/>
      <use x="693.816406" xlink:href="#DejaVuSans-62"/>
      <use x="757.292969" xlink:href="#DejaVuSans-6f"/>
      <use x="818.474609" xlink:href="#DejaVuSans-64"/>
      <use x="881.951172" xlink:href="#DejaVuSans-79"/>
      <use x="941.130859" xlink:href="#DejaVuSans-20"/>
      <use x="972.917969" xlink:href="#DejaVuSans-61"/>
      <use x="1034.197266" xlink:href="#DejaVuSans-74"/>
      <use x="1073.40625" xlink:href="#DejaVuSans-20"/>
      <use x="1105.193359" xlink:href="#DejaVuSans-61"/>
      <use x="1166.472656" xlink:href="#DejaVuSans-6c"/>
      <use x="1194.255859" xlink:href="#DejaVuSans-6c"/>
     </g>
    </g>
   </g>
   <g id="text_5">
    <g clip-path="url(#pc14818c7d5)">
     <!-- 254  Again colour is present -->
     <defs>
      <path d="M 37.796875 64.3125 
L 12.890625 25.390625 
L 37.796875 25.390625 
z
M 35.203125 72.90625 
L 47.609375 72.90625 
L 47.609375 25.390625 
L 58.015625 25.390625 
L 58.015625 17.1875 
L 47.609375 17.1875 
L 47.609375 0 
L 37.796875 0 
L 37.796875 17.1875 
L 4.890625 17.1875 
L 4.890625 26.703125 
z
" id="DejaVuSans-34"/>
     </defs>
     <g transform="translate(411.773993 355.161562)scale(0.1 -0.1)">
      <use xlink:href="#DejaVuSans-32"/>
      <use x="63.623047" xlink:href="#DejaVuSans-35"/>
      <use x="127.246094" xlink:href="#DejaVuSans-34"/>
      <use x="190.869141" xlink:href="#DejaVuSans-20"/>
      <use x="222.65625" xlink:href="#DejaVuSans-20"/>
      <use x="254.443359" xlink:href="#DejaVuSans-41"/>
      <use x="322.851562" xlink:href="#DejaVuSans-67"/>
      <use x="386.328125" xlink:href="#DejaVuSans-61"/>
      <use x="447.607422" xlink:href="#DejaVuSans-69"/>
      <use x="475.390625" xlink:href="#DejaVuSans-6e"/>
      <use x="538.769531" xlink:href="#DejaVuSans-20"/>
      <use x="570.556641" xlink:href="#DejaVuSans-63"/>
      <use x="625.537109" xlink:href="#DejaVuSans-6f"/>
      <use x="686.71875" xlink:href="#DejaVuSans-6c"/>
      <use x="714.501953" xlink:href="#DejaVuSans-6f"/>
      <use x="775.683594" xlink:href="#DejaVuSans-75"/>
      <use x="839.0625" xlink:href="#DejaVuSans-72"/>
      <use x="880.175781" xlink:href="#DejaVuSans-20"/>
      <use x="911.962891" xlink:href="#DejaVuSans-69"/>
      <use x="939.746094" xlink:href="#DejaVuSans-73"/>
      <use x="991.845703" xlink:href="#DejaVuSans-20"/>
      <use x="1023.632812" xlink:href="#DejaVuSans-70"/>
      <use x="1087.109375" xlink:href="#DejaVuSans-72"/>
      <use x="1128.191406" xlink:href="#DejaVuSans-65"/>
      <use x="1189.714844" xlink:href="#DejaVuSans-73"/>
      <use x="1241.814453" xlink:href="#DejaVuSans-65"/>
      <use x="1303.337891" xlink:href="#DejaVuSans-6e"/>
      <use x="1366.716797" xlink:href="#DejaVuSans-74"/>
     </g>
    </g>
    <g clip-path="url(#pc14818c7d5)">
     <!-- in body therefore in -->
     <g transform="translate(432.533368 366.359375)scale(0.1 -0.1)">
      <use xlink:href="#DejaVuSans-69"/>
      <use x="27.783203" xlink:href="#DejaVuSans-6e"/>
      <use x="91.162109" xlink:href="#DejaVuSans-20"/>
      <use x="122.949219" xlink:href="#DejaVuSans-62"/>
      <use x="186.425781" xlink:href="#DejaVuSans-6f"/>
      <use x="247.607422" xlink:href="#DejaVuSans-64"/>
      <use x="311.083984" xlink:href="#DejaVuSans-79"/>
      <use x="370.263672" xlink:href="#DejaVuSans-20"/>
      <use x="402.050781" xlink:href="#DejaVuSans-74"/>
      <use x="441.259766" xlink:href="#DejaVuSans-68"/>
      <use x="504.638672" xlink:href="#DejaVuSans-65"/>
      <use x="566.162109" xlink:href="#DejaVuSans-72"/>
      <use x="607.244141" xlink:href="#DejaVuSans-65"/>
      <use x="668.767578" xlink:href="#DejaVuSans-66"/>
      <use x="703.972656" xlink:href="#DejaVuSans-6f"/>
      <use x="765.154297" xlink:href="#DejaVuSans-72"/>
      <use x="806.236328" xlink:href="#DejaVuSans-65"/>
      <use x="867.759766" xlink:href="#DejaVuSans-20"/>
      <use x="899.546875" xlink:href="#DejaVuSans-69"/>
      <use x="927.330078" xlink:href="#DejaVuSans-6e"/>
     </g>
    </g>
    <g clip-path="url(#pc14818c7d5)">
     <!-- individual bodies -->
     <g transform="translate(439.736493 377.557187)scale(0.1 -0.1)">
      <use xlink:href="#DejaVuSans-69"/>
      <use x="27.783203" xlink:href="#DejaVuSans-6e"/>
      <use x="91.162109" xlink:href="#DejaVuSans-64"/>
      <use x="154.638672" xlink:href="#DejaVuSans-69"/>
      <use x="182.421875" xlink:href="#DejaVuSans-76"/>
      <use x="241.601562" xlink:href="#DejaVuSans-69"/>
      <use x="269.384766" xlink:href="#DejaVuSans-64"/>
      <use x="332.861328" xlink:href="#DejaVuSans-75"/>
      <use x="396.240234" xlink:href="#DejaVuSans-61"/>
      <use x="457.519531" xlink:href="#DejaVuSans-6c"/>
      <use x="485.302734" xlink:href="#DejaVuSans-20"/>
      <use x="517.089844" xlink:href="#DejaVuSans-62"/>
      <use x="580.566406" xlink:href="#DejaVuSans-6f"/>
      <use x="641.748047" xlink:href="#DejaVuSans-64"/>
      <use x="705.224609" xlink:href="#DejaVuSans-69"/>
      <use x="733.007812" xlink:href="#DejaVuSans-65"/>
      <use x="794.53125" xlink:href="#DejaVuSans-73"/>
     </g>
    </g>
   </g>
   <g id="text_6">
    <g clip-path="url(#pc14818c7d5)">
     <!-- 255  for if there were no -->
     <g transform="translate(670.068057 360.760469)scale(0.1 -0.1)">
      <use xlink:href="#DejaVuSans-32"/>
      <use x="63.623047" xlink:href="#DejaVuSans-35"/>
      <use x="127.246094" xlink:href="#DejaVuSans-35"/>
      <use x="190.869141" xlink:href="#DejaVuSans-20"/>
      <use x="222.65625" xlink:href="#DejaVuSans-20"/>
      <use x="254.443359" xlink:href="#DejaVuSans-66"/>
      <use x="289.648438" xlink:href="#DejaVuSans-6f"/>
      <use x="350.830078" xlink:href="#DejaVuSans-72"/>
      <use x="391.943359" xlink:href="#DejaVuSans-20"/>
      <use x="423.730469" xlink:href="#DejaVuSans-69"/>
      <use x="451.513672" xlink:href="#DejaVuSans-66"/>
      <use x="486.71875" xlink:href="#DejaVuSans-20"/>
      <use x="518.505859" xlink:href="#DejaVuSans-74"/>
      <use x="557.714844" xlink:href="#DejaVuSans-68"/>
      <use x="621.09375" xlink:href="#DejaVuSans-65"/>
      <use x="682.617188" xlink:href="#DejaVuSans-72"/>
      <use x="723.699219" xlink:href="#DejaVuSans-65"/>
      <use x="785.222656" xlink:href="#DejaVuSans-20"/>
      <use x="817.009766" xlink:href="#DejaVuSans-77"/>
      <use x="898.796875" xlink:href="#DejaVuSans-65"/>
      <use x="960.320312" xlink:href="#DejaVuSans-72"/>
      <use x="1001.402344" xlink:href="#DejaVuSans-65"/>
      <use x="1062.925781" xlink:href="#DejaVuSans-20"/>
      <use x="1094.712891" xlink:href="#DejaVuSans-6e"/>
      <use x="1158.091797" xlink:href="#DejaVuSans-6f"/>
     </g>
    </g>
    <g clip-path="url(#pc14818c7d5)">
     <!-- individual body -->
     <g transform="translate(692.808682 371.958281)scale(0.1 -0.1)">
      <use xlink:href="#DejaVuSans-69"/>
      <use x="27.783203" xlink:href="#DejaVuSans-6e"/>
      <use x="91.162109" xlink:href="#DejaVuSans-64"/>
      <use x="154.638672" xlink:href="#DejaVuSans-69"/>
      <use x="182.421875" xlink:href="#DejaVuSans-76"/>
      <use x="241.601562" xlink:href="#DejaVuSans-69"/>
      <use x="269.384766" xlink:href="#DejaVuSans-64"/>
      <use x="332.861328" xlink:href="#DejaVuSans-75"/>
      <use x="396.240234" xlink:href="#DejaVuSans-61"/>
      <use x="457.519531" xlink:href="#DejaVuSans-6c"/>
      <use x="485.302734" xlink:href="#DejaVuSans-20"/>
      <use x="517.089844" xlink:href="#DejaVuSans-62"/>
      <use x="580.566406" xlink:href="#DejaVuSans-6f"/>
      <use x="641.748047" xlink:href="#DejaVuSans-64"/>
      <use x="705.224609" xlink:href="#DejaVuSans-79"/>
     </g>
    </g>
   </g>
   <g id="text_7">
    <g clip-path="url(#pc14818c7d5)">
     <!-- 256  in which it was present -->
     <defs>
      <path d="M 33.015625 40.375 
Q 26.375 40.375 22.484375 35.828125 
Q 18.609375 31.296875 18.609375 23.390625 
Q 18.609375 15.53125 22.484375 10.953125 
Q 26.375 6.390625 33.015625 6.390625 
Q 39.65625 6.390625 43.53125 10.953125 
Q 47.40625 15.53125 47.40625 23.390625 
Q 47.40625 31.296875 43.53125 35.828125 
Q 39.65625 40.375 33.015625 40.375 
z
M 52.59375 71.296875 
L 52.59375 62.3125 
Q 48.875 64.0625 45.09375 64.984375 
Q 41.3125 65.921875 37.59375 65.921875 
Q 27.828125 65.921875 22.671875 59.328125 
Q 17.53125 52.734375 16.796875 39.40625 
Q 19.671875 43.65625 24.015625 45.921875 
Q 28.375 48.1875 33.59375 48.1875 
Q 44.578125 48.1875 50.953125 41.515625 
Q 57.328125 34.859375 57.328125 23.390625 
Q 57.328125 12.15625 50.6875 5.359375 
Q 44.046875 -1.421875 33.015625 -1.421875 
Q 20.359375 -1.421875 13.671875 8.265625 
Q 6.984375 17.96875 6.984375 36.375 
Q 6.984375 53.65625 15.1875 63.9375 
Q 23.390625 74.21875 37.203125 74.21875 
Q 40.921875 74.21875 44.703125 73.484375 
Q 48.484375 72.75 52.59375 71.296875 
z
" id="DejaVuSans-36"/>
     </defs>
     <g transform="translate(828.945112 366.359375)scale(0.1 -0.1)">
      <use xlink:href="#DejaVuSans-32"/>
      <use x="63.623047" xlink:href="#DejaVuSans-35"/>
      <use x="127.246094" xlink:href="#DejaVuSans-36"/>
      <use x="190.869141" xlink:href="#DejaVuSans-20"/>
      <use x="222.65625" xlink:href="#DejaVuSans-20"/>
      <use x="254.443359" xlink:href="#DejaVuSans-69"/>
      <use x="282.226562" xlink:href="#DejaVuSans-6e"/>
      <use x="345.605469" xlink:href="#DejaVuSans-20"/>
      <use x="377.392578" xlink:href="#DejaVuSans-77"/>
      <use x="459.179688" xlink:href="#DejaVuSans-68"/>
      <use x="522.558594" xlink:href="#DejaVuSans-69"/>
      <use x="550.341797" xlink:href="#DejaVuSans-63"/>
      <use x="605.322266" xlink:href="#DejaVuSans-68"/>
      <use x="668.701172" xlink:href="#DejaVuSans-20"/>
      <use x="700.488281" xlink:href="#DejaVuSans-69"/>
      <use x="728.271484" xlink:href="#DejaVuSans-74"/>
      <use x="767.480469" xlink:href="#DejaVuSans-20"/>
      <use x="799.267578" xlink:href="#DejaVuSans-77"/>
      <use x="881.054688" xlink:href="#DejaVuSans-61"/>
      <use x="942.333984" xlink:href="#DejaVuSans-73"/>
      <use x="994.433594" xlink:href="#DejaVuSans-20"/>
      <use x="1026.220703" xlink:href="#DejaVuSans-70"/>
      <use x="1089.697266" xlink:href="#DejaVuSans-72"/>
      <use x="1130.779297" xlink:href="#DejaVuSans-65"/>
      <use x="1192.302734" xlink:href="#DejaVuSans-73"/>
      <use x="1244.402344" xlink:href="#DejaVuSans-65"/>
      <use x="1305.925781" xlink:href="#DejaVuSans-6e"/>
      <use x="1369.304688" xlink:href="#DejaVuSans-74"/>
     </g>
    </g>
   </g>
   <g id="text_8">
    <g clip-path="url(#pc14818c7d5)">
     <!-- 253  individual bodies -->
     <defs>
      <path d="M 40.578125 39.3125 
Q 47.65625 37.796875 51.625 33 
Q 55.609375 28.21875 55.609375 21.1875 
Q 55.609375 10.40625 48.1875 4.484375 
Q 40.765625 -1.421875 27.09375 -1.421875 
Q 22.515625 -1.421875 17.65625 -0.515625 
Q 12.796875 0.390625 7.625 2.203125 
L 7.625 11.71875 
Q 11.71875 9.328125 16.59375 8.109375 
Q 21.484375 6.890625 26.8125 6.890625 
Q 36.078125 6.890625 40.9375 10.546875 
Q 45.796875 14.203125 45.796875 21.1875 
Q 45.796875 27.640625 41.28125 31.265625 
Q 36.765625 34.90625 28.71875 34.90625 
L 20.21875 34.90625 
L 20.21875 43.015625 
L 29.109375 43.015625 
Q 36.375 43.015625 40.234375 45.921875 
Q 44.09375 48.828125 44.09375 54.296875 
Q 44.09375 59.90625 40.109375 62.90625 
Q 36.140625 65.921875 28.71875 65.921875 
Q 24.65625 65.921875 20.015625 65.03125 
Q 15.375 64.15625 9.8125 62.3125 
L 9.8125 71.09375 
Q 15.4375 72.65625 20.34375 73.4375 
Q 25.25 74.21875 29.59375 74.21875 
Q 40.828125 74.21875 47.359375 69.109375 
Q 53.90625 64.015625 53.90625 55.328125 
Q 53.90625 49.265625 50.4375 45.09375 
Q 46.96875 40.921875 40.578125 39.3125 
z
" id="DejaVuSans-33"/>
     </defs>
     <g transform="translate(427.014618 595.450284)scale(0.1 -0.1)">
      <use xlink:href="#DejaVuSans-32"/>
      <use x="63.623047" xlink:href="#DejaVuSans-35"/>
      <use x="127.246094" xlink:href="#DejaVuSans-33"/>
      <use x="190.869141" xlink:href="#DejaVuSans-20"/>
      <use x="222.65625" xlink:href="#DejaVuSans-20"/>
      <use x="254.443359" xlink:href="#DejaVuSans-69"/>
      <use x="282.226562" xlink:href="#DejaVuSans-6e"/>
      <use x="345.605469" xlink:href="#DejaVuSans-64"/>
      <use x="409.082031" xlink:href="#DejaVuSans-69"/>
      <use x="436.865234" xlink:href="#DejaVuSans-76"/>
      <use x="496.044922" xlink:href="#DejaVuSans-69"/>
      <use x="523.828125" xlink:href="#DejaVuSans-64"/>
      <use x="587.304688" xlink:href="#DejaVuSans-75"/>
      <use x="650.683594" xlink:href="#DejaVuSans-61"/>
      <use x="711.962891" xlink:href="#DejaVuSans-6c"/>
      <use x="739.746094" xlink:href="#DejaVuSans-20"/>
      <use x="771.533203" xlink:href="#DejaVuSans-62"/>
      <use x="835.009766" xlink:href="#DejaVuSans-6f"/>
      <use x="896.191406" xlink:href="#DejaVuSans-64"/>
      <use x="959.667969" xlink:href="#DejaVuSans-69"/>
      <use x="987.451172" xlink:href="#DejaVuSans-65"/>
      <use x="1048.974609" xlink:href="#DejaVuSans-73"/>
     </g>
    </g>
   </g>
   <g id="text_9">
    <!-- Again , colour is present in body , therefore in individual bodies , for if there were no -->
    <g transform="translate(299.11875 12.6505)scale(0.12 -0.12)">
     <use xlink:href="#DejaVuSans-41"/>
     <use x="68.408203" xlink:href="#DejaVuSans-67"/>
     <use x="131.884766" xlink:href="#DejaVuSans-61"/>
     <use x="193.164062" xlink:href="#DejaVuSans-69"/>
     <use x="220.947266" xlink:href="#DejaVuSans-6e"/>
     <use x="284.326172" xlink:href="#DejaVuSans-20"/>
     <use x="316.113281" xlink:href="#DejaVuSans-2c"/>
     <use x="347.900391" xlink:href="#DejaVuSans-20"/>
     <use x="379.6875" xlink:href="#DejaVuSans-63"/>
     <use x="434.667969" xlink:href="#DejaVuSans-6f"/>
     <use x="495.849609" xlink:href="#DejaVuSans-6c"/>
     <use x="523.632812" xlink:href="#DejaVuSans-6f"/>
     <use x="584.814453" xlink:href="#DejaVuSans-75"/>
     <use x="648.193359" xlink:href="#DejaVuSans-72"/>
     <use x="689.306641" xlink:href="#DejaVuSans-20"/>
     <use x="721.09375" xlink:href="#DejaVuSans-69"/>
     <use x="748.876953" xlink:href="#DejaVuSans-73"/>
     <use x="800.976562" xlink:href="#DejaVuSans-20"/>
     <use x="832.763672" xlink:href="#DejaVuSans-70"/>
     <use x="896.240234" xlink:href="#DejaVuSans-72"/>
     <use x="937.322266" xlink:href="#DejaVuSans-65"/>
     <use x="998.845703" xlink:href="#DejaVuSans-73"/>
     <use x="1050.945312" xlink:href="#DejaVuSans-65"/>
     <use x="1112.46875" xlink:href="#DejaVuSans-6e"/>
     <use x="1175.847656" xlink:href="#DejaVuSans-74"/>
     <use x="1215.056641" xlink:href="#DejaVuSans-20"/>
     <use x="1246.84375" xlink:href="#DejaVuSans-69"/>
     <use x="1274.626953" xlink:href="#DejaVuSans-6e"/>
     <use x="1338.005859" xlink:href="#DejaVuSans-20"/>
     <use x="1369.792969" xlink:href="#DejaVuSans-62"/>
     <use x="1433.269531" xlink:href="#DejaVuSans-6f"/>
     <use x="1494.451172" xlink:href="#DejaVuSans-64"/>
     <use x="1557.927734" xlink:href="#DejaVuSans-79"/>
     <use x="1617.107422" xlink:href="#DejaVuSans-20"/>
     <use x="1648.894531" xlink:href="#DejaVuSans-2c"/>
     <use x="1680.681641" xlink:href="#DejaVuSans-20"/>
     <use x="1712.46875" xlink:href="#DejaVuSans-74"/>
     <use x="1751.677734" xlink:href="#DejaVuSans-68"/>
     <use x="1815.056641" xlink:href="#DejaVuSans-65"/>
     <use x="1876.580078" xlink:href="#DejaVuSans-72"/>
     <use x="1917.662109" xlink:href="#DejaVuSans-65"/>
     <use x="1979.185547" xlink:href="#DejaVuSans-66"/>
     <use x="2014.390625" xlink:href="#DejaVuSans-6f"/>
     <use x="2075.572266" xlink:href="#DejaVuSans-72"/>
     <use x="2116.654297" xlink:href="#DejaVuSans-65"/>
     <use x="2178.177734" xlink:href="#DejaVuSans-20"/>
     <use x="2209.964844" xlink:href="#DejaVuSans-69"/>
     <use x="2237.748047" xlink:href="#DejaVuSans-6e"/>
     <use x="2301.126953" xlink:href="#DejaVuSans-20"/>
     <use x="2332.914062" xlink:href="#DejaVuSans-69"/>
     <use x="2360.697266" xlink:href="#DejaVuSans-6e"/>
     <use x="2424.076172" xlink:href="#DejaVuSans-64"/>
     <use x="2487.552734" xlink:href="#DejaVuSans-69"/>
     <use x="2515.335938" xlink:href="#DejaVuSans-76"/>
     <use x="2574.515625" xlink:href="#DejaVuSans-69"/>
     <use x="2602.298828" xlink:href="#DejaVuSans-64"/>
     <use x="2665.775391" xlink:href="#DejaVuSans-75"/>
     <use x="2729.154297" xlink:href="#DejaVuSans-61"/>
     <use x="2790.433594" xlink:href="#DejaVuSans-6c"/>
     <use x="2818.216797" xlink:href="#DejaVuSans-20"/>
     <use x="2850.003906" xlink:href="#DejaVuSans-62"/>
     <use x="2913.480469" xlink:href="#DejaVuSans-6f"/>
     <use x="2974.662109" xlink:href="#DejaVuSans-64"/>
     <use x="3038.138672" xlink:href="#DejaVuSans-69"/>
     <use x="3065.921875" xlink:href="#DejaVuSans-65"/>
     <use x="3127.445312" xlink:href="#DejaVuSans-73"/>
     <use x="3179.544922" xlink:href="#DejaVuSans-20"/>
     <use x="3211.332031" xlink:href="#DejaVuSans-2c"/>
     <use x="3243.119141" xlink:href="#DejaVuSans-20"/>
     <use x="3274.90625" xlink:href="#DejaVuSans-66"/>
     <use x="3310.111328" xlink:href="#DejaVuSans-6f"/>
     <use x="3371.292969" xlink:href="#DejaVuSans-72"/>
     <use x="3412.40625" xlink:href="#DejaVuSans-20"/>
     <use x="3444.193359" xlink:href="#DejaVuSans-69"/>
     <use x="3471.976562" xlink:href="#DejaVuSans-66"/>
     <use x="3507.181641" xlink:href="#DejaVuSans-20"/>
     <use x="3538.96875" xlink:href="#DejaVuSans-74"/>
     <use x="3578.177734" xlink:href="#DejaVuSans-68"/>
     <use x="3641.556641" xlink:href="#DejaVuSans-65"/>
     <use x="3703.080078" xlink:href="#DejaVuSans-72"/>
     <use x="3744.162109" xlink:href="#DejaVuSans-65"/>
     <use x="3805.685547" xlink:href="#DejaVuSans-20"/>
     <use x="3837.472656" xlink:href="#DejaVuSans-77"/>
     <use x="3919.259766" xlink:href="#DejaVuSans-65"/>
     <use x="3980.783203" xlink:href="#DejaVuSans-72"/>
     <use x="4021.865234" xlink:href="#DejaVuSans-65"/>
     <use x="4083.388672" xlink:href="#DejaVuSans-20"/>
     <use x="4115.175781" xlink:href="#DejaVuSans-6e"/>
     <use x="4178.554688" xlink:href="#DejaVuSans-6f"/>
    </g>
    <!-- individual body in which it was present , it could not be present in body at all . -->
    <g transform="translate(317.814375 26.087875)scale(0.12 -0.12)">
     <use xlink:href="#DejaVuSans-69"/>
     <use x="27.783203" xlink:href="#DejaVuSans-6e"/>
     <use x="91.162109" xlink:href="#DejaVuSans-64"/>
     <use x="154.638672" xlink:href="#DejaVuSans-69"/>
     <use x="182.421875" xlink:href="#DejaVuSans-76"/>
     <use x="241.601562" xlink:href="#DejaVuSans-69"/>
     <use x="269.384766" xlink:href="#DejaVuSans-64"/>
     <use x="332.861328" xlink:href="#DejaVuSans-75"/>
     <use x="396.240234" xlink:href="#DejaVuSans-61"/>
     <use x="457.519531" xlink:href="#DejaVuSans-6c"/>
     <use x="485.302734" xlink:href="#DejaVuSans-20"/>
     <use x="517.089844" xlink:href="#DejaVuSans-62"/>
     <use x="580.566406" xlink:href="#DejaVuSans-6f"/>
     <use x="641.748047" xlink:href="#DejaVuSans-64"/>
     <use x="705.224609" xlink:href="#DejaVuSans-79"/>
     <use x="764.404297" xlink:href="#DejaVuSans-20"/>
     <use x="796.191406" xlink:href="#DejaVuSans-69"/>
     <use x="823.974609" xlink:href="#DejaVuSans-6e"/>
     <use x="887.353516" xlink:href="#DejaVuSans-20"/>
     <use x="919.140625" xlink:href="#DejaVuSans-77"/>
     <use x="1000.927734" xlink:href="#DejaVuSans-68"/>
     <use x="1064.306641" xlink:href="#DejaVuSans-69"/>
     <use x="1092.089844" xlink:href="#DejaVuSans-63"/>
     <use x="1147.070312" xlink:href="#DejaVuSans-68"/>
     <use x="1210.449219" xlink:href="#DejaVuSans-20"/>
     <use x="1242.236328" xlink:href="#DejaVuSans-69"/>
     <use x="1270.019531" xlink:href="#DejaVuSans-74"/>
     <use x="1309.228516" xlink:href="#DejaVuSans-20"/>
     <use x="1341.015625" xlink:href="#DejaVuSans-77"/>
     <use x="1422.802734" xlink:href="#DejaVuSans-61"/>
     <use x="1484.082031" xlink:href="#DejaVuSans-73"/>
     <use x="1536.181641" xlink:href="#DejaVuSans-20"/>
     <use x="1567.96875" xlink:href="#DejaVuSans-70"/>
     <use x="1631.445312" xlink:href="#DejaVuSans-72"/>
     <use x="1672.527344" xlink:href="#DejaVuSans-65"/>
     <use x="1734.050781" xlink:href="#DejaVuSans-73"/>
     <use x="1786.150391" xlink:href="#DejaVuSans-65"/>
     <use x="1847.673828" xlink:href="#DejaVuSans-6e"/>
     <use x="1911.052734" xlink:href="#DejaVuSans-74"/>
     <use x="1950.261719" xlink:href="#DejaVuSans-20"/>
     <use x="1982.048828" xlink:href="#DejaVuSans-2c"/>
     <use x="2013.835938" xlink:href="#DejaVuSans-20"/>
     <use x="2045.623047" xlink:href="#DejaVuSans-69"/>
     <use x="2073.40625" xlink:href="#DejaVuSans-74"/>
     <use x="2112.615234" xlink:href="#DejaVuSans-20"/>
     <use x="2144.402344" xlink:href="#DejaVuSans-63"/>
     <use x="2199.382812" xlink:href="#DejaVuSans-6f"/>
     <use x="2260.564453" xlink:href="#DejaVuSans-75"/>
     <use x="2323.943359" xlink:href="#DejaVuSans-6c"/>
     <use x="2351.726562" xlink:href="#DejaVuSans-64"/>
     <use x="2415.203125" xlink:href="#DejaVuSans-20"/>
     <use x="2446.990234" xlink:href="#DejaVuSans-6e"/>
     <use x="2510.369141" xlink:href="#DejaVuSans-6f"/>
     <use x="2571.550781" xlink:href="#DejaVuSans-74"/>
     <use x="2610.759766" xlink:href="#DejaVuSans-20"/>
     <use x="2642.546875" xlink:href="#DejaVuSans-62"/>
     <use x="2706.023438" xlink:href="#DejaVuSans-65"/>
     <use x="2767.546875" xlink:href="#DejaVuSans-20"/>
     <use x="2799.333984" xlink:href="#DejaVuSans-70"/>
     <use x="2862.810547" xlink:href="#DejaVuSans-72"/>
     <use x="2903.892578" xlink:href="#DejaVuSans-65"/>
     <use x="2965.416016" xlink:href="#DejaVuSans-73"/>
     <use x="3017.515625" xlink:href="#DejaVuSans-65"/>
     <use x="3079.039062" xlink:href="#DejaVuSans-6e"/>
     <use x="3142.417969" xlink:href="#DejaVuSans-74"/>
     <use x="3181.626953" xlink:href="#DejaVuSans-20"/>
     <use x="3213.414062" xlink:href="#DejaVuSans-69"/>
     <use x="3241.197266" xlink:href="#DejaVuSans-6e"/>
     <use x="3304.576172" xlink:href="#DejaVuSans-20"/>
     <use x="3336.363281" xlink:href="#DejaVuSans-62"/>
     <use x="3399.839844" xlink:href="#DejaVuSans-6f"/>
     <use x="3461.021484" xlink:href="#DejaVuSans-64"/>
     <use x="3524.498047" xlink:href="#DejaVuSans-79"/>
     <use x="3583.677734" xlink:href="#DejaVuSans-20"/>
     <use x="3615.464844" xlink:href="#DejaVuSans-61"/>
     <use x="3676.744141" xlink:href="#DejaVuSans-74"/>
     <use x="3715.953125" xlink:href="#DejaVuSans-20"/>
     <use x="3747.740234" xlink:href="#DejaVuSans-61"/>
     <use x="3809.019531" xlink:href="#DejaVuSans-6c"/>
     <use x="3836.802734" xlink:href="#DejaVuSans-6c"/>
     <use x="3864.585938" xlink:href="#DejaVuSans-20"/>
     <use x="3896.373047" xlink:href="#DejaVuSans-2e"/>
    </g>
    <!-- 253  256  255  254  257  258 -->
    <defs>
     <path d="M 12.890625 0 
L 30.515625 57.90625 
L 42.71875 57.90625 
L 60.296875 0 
L 50.78125 0 
L 36.625 45.90625 
L 22.40625 0 
z
" id="DejaVuSans-2227"/>
     <path d="M 10.59375 42.09375 
L 73.1875 42.09375 
L 73.1875 14.015625 
L 64.984375 14.015625 
L 64.984375 33.796875 
L 10.59375 33.796875 
z
" id="DejaVuSans-ac"/>
    </defs>
    <g transform="translate(433.704375 39.52525)scale(0.12 -0.12)">
     <use xlink:href="#DejaVuSans-32"/>
     <use x="63.623047" xlink:href="#DejaVuSans-35"/>
     <use x="127.246094" xlink:href="#DejaVuSans-33"/>
     <use x="190.869141" xlink:href="#DejaVuSans-20"/>
     <use x="222.65625" xlink:href="#DejaVuSans-2227"/>
     <use x="295.849609" xlink:href="#DejaVuSans-20"/>
     <use x="327.636719" xlink:href="#DejaVuSans-32"/>
     <use x="391.259766" xlink:href="#DejaVuSans-35"/>
     <use x="454.882812" xlink:href="#DejaVuSans-36"/>
     <use x="518.505859" xlink:href="#DejaVuSans-20"/>
     <use x="550.292969" xlink:href="#DejaVuSans-2227"/>
     <use x="623.486328" xlink:href="#DejaVuSans-20"/>
     <use x="655.273438" xlink:href="#DejaVuSans-ac"/>
     <use x="739.0625" xlink:href="#DejaVuSans-32"/>
     <use x="802.685547" xlink:href="#DejaVuSans-35"/>
     <use x="866.308594" xlink:href="#DejaVuSans-35"/>
     <use x="929.931641" xlink:href="#DejaVuSans-20"/>
     <use x="961.71875" xlink:href="#DejaVuSans-2227"/>
     <use x="1034.912109" xlink:href="#DejaVuSans-20"/>
     <use x="1066.699219" xlink:href="#DejaVuSans-32"/>
     <use x="1130.322266" xlink:href="#DejaVuSans-35"/>
     <use x="1193.945312" xlink:href="#DejaVuSans-34"/>
     <use x="1257.568359" xlink:href="#DejaVuSans-20"/>
     <use x="1289.355469" xlink:href="#DejaVuSans-2227"/>
     <use x="1362.548828" xlink:href="#DejaVuSans-20"/>
     <use x="1394.335938" xlink:href="#DejaVuSans-ac"/>
     <use x="1478.125" xlink:href="#DejaVuSans-32"/>
     <use x="1541.748047" xlink:href="#DejaVuSans-35"/>
     <use x="1605.371094" xlink:href="#DejaVuSans-37"/>
     <use x="1668.994141" xlink:href="#DejaVuSans-20"/>
     <use x="1700.78125" xlink:href="#DejaVuSans-2227"/>
     <use x="1773.974609" xlink:href="#DejaVuSans-20"/>
     <use x="1805.761719" xlink:href="#DejaVuSans-32"/>
     <use x="1869.384766" xlink:href="#DejaVuSans-35"/>
     <use x="1933.007812" xlink:href="#DejaVuSans-38"/>
    </g>
    <!--  pyprover.logic.Prop('253')&amp; pyprover.logic.Prop('256')&amp;~ pyprover.logic.Prop('255')&amp; -->
    <defs>
     <path d="M 19.671875 64.796875 
L 19.671875 37.40625 
L 32.078125 37.40625 
Q 38.96875 37.40625 42.71875 40.96875 
Q 46.484375 44.53125 46.484375 51.125 
Q 46.484375 57.671875 42.71875 61.234375 
Q 38.96875 64.796875 32.078125 64.796875 
z
M 9.8125 72.90625 
L 32.078125 72.90625 
Q 44.34375 72.90625 50.609375 67.359375 
Q 56.890625 61.8125 56.890625 51.125 
Q 56.890625 40.328125 50.609375 34.8125 
Q 44.34375 29.296875 32.078125 29.296875 
L 19.671875 29.296875 
L 19.671875 0 
L 9.8125 0 
z
" id="DejaVuSans-50"/>
     <path d="M 17.921875 72.90625 
L 17.921875 45.796875 
L 9.625 45.796875 
L 9.625 72.90625 
z
" id="DejaVuSans-27"/>
     <path d="M 24.3125 39.203125 
Q 19.875 35.25 17.796875 31.3125 
Q 15.71875 27.390625 15.71875 23.09375 
Q 15.71875 15.96875 20.890625 11.234375 
Q 26.078125 6.5 33.890625 6.5 
Q 38.53125 6.5 42.578125 8.03125 
Q 46.625 9.578125 50.203125 12.703125 
z
M 31.203125 44.671875 
L 56 19.28125 
Q 58.890625 23.640625 60.5 28.59375 
Q 62.109375 33.546875 62.40625 39.109375 
L 71.484375 39.109375 
Q 70.90625 32.671875 68.359375 26.359375 
Q 65.828125 20.0625 61.28125 13.921875 
L 74.90625 0 
L 62.59375 0 
L 55.609375 7.171875 
Q 50.53125 2.828125 44.96875 0.703125 
Q 39.40625 -1.421875 33.015625 -1.421875 
Q 21.234375 -1.421875 13.765625 5.296875 
Q 6.296875 12.015625 6.296875 22.515625 
Q 6.296875 28.765625 9.5625 34.25 
Q 12.84375 39.75 19.390625 44.578125 
Q 17.046875 47.65625 15.8125 50.703125 
Q 14.59375 53.765625 14.59375 56.6875 
Q 14.59375 64.59375 20.015625 69.40625 
Q 25.4375 74.21875 34.421875 74.21875 
Q 38.484375 74.21875 42.5 73.34375 
Q 46.53125 72.46875 50.6875 70.703125 
L 50.6875 61.8125 
Q 46.4375 64.109375 42.578125 65.296875 
Q 38.71875 66.5 35.40625 66.5 
Q 30.28125 66.5 27.078125 63.78125 
Q 23.875 61.078125 23.875 56.78125 
Q 23.875 54.296875 25.3125 51.78125 
Q 26.765625 49.265625 31.203125 44.671875 
z
" id="DejaVuSans-26"/>
     <path d="M 73.1875 39.890625 
L 73.1875 31.203125 
Q 68.0625 27.34375 63.6875 25.6875 
Q 59.328125 24.03125 54.59375 24.03125 
Q 49.21875 24.03125 42.09375 26.90625 
Q 41.546875 27.09375 41.3125 27.203125 
Q 40.96875 27.34375 40.234375 27.59375 
Q 32.671875 30.609375 28.078125 30.609375 
Q 23.78125 30.609375 19.578125 28.734375 
Q 15.375 26.859375 10.59375 22.796875 
L 10.59375 31.5 
Q 15.71875 35.359375 20.09375 37.03125 
Q 24.46875 38.71875 29.203125 38.71875 
Q 34.578125 38.71875 41.75 35.796875 
Q 42.234375 35.59375 42.484375 35.5 
Q 42.875 35.359375 43.5625 35.109375 
Q 51.125 32.078125 55.71875 32.078125 
Q 59.90625 32.078125 64.03125 33.9375 
Q 68.171875 35.796875 73.1875 39.890625 
z
" id="DejaVuSans-7e"/>
    </defs>
    <g transform="translate(294.930938 52.962625)scale(0.12 -0.12)">
     <use xlink:href="#DejaVuSans-20"/>
     <use x="31.787109" xlink:href="#DejaVuSans-70"/>
     <use x="95.263672" xlink:href="#DejaVuSans-79"/>
     <use x="154.443359" xlink:href="#DejaVuSans-70"/>
     <use x="217.919922" xlink:href="#DejaVuSans-72"/>
     <use x="259.001953" xlink:href="#DejaVuSans-6f"/>
     <use x="320.183594" xlink:href="#DejaVuSans-76"/>
     <use x="379.363281" xlink:href="#DejaVuSans-65"/>
     <use x="440.886719" xlink:href="#DejaVuSans-72"/>
     <use x="481.859375" xlink:href="#DejaVuSans-2e"/>
     <use x="513.646484" xlink:href="#DejaVuSans-6c"/>
     <use x="541.429688" xlink:href="#DejaVuSans-6f"/>
     <use x="602.611328" xlink:href="#DejaVuSans-67"/>
     <use x="666.087891" xlink:href="#DejaVuSans-69"/>
     <use x="693.871094" xlink:href="#DejaVuSans-63"/>
     <use x="748.851562" xlink:href="#DejaVuSans-2e"/>
     <use x="780.638672" xlink:href="#DejaVuSans-50"/>
     <use x="840.925781" xlink:href="#DejaVuSans-72"/>
     <use x="882.007812" xlink:href="#DejaVuSans-6f"/>
     <use x="943.189453" xlink:href="#DejaVuSans-70"/>
     <use x="1006.666016" xlink:href="#DejaVuSans-28"/>
     <use x="1045.679688" xlink:href="#DejaVuSans-27"/>
     <use x="1073.169922" xlink:href="#DejaVuSans-32"/>
     <use x="1136.792969" xlink:href="#DejaVuSans-35"/>
     <use x="1200.416016" xlink:href="#DejaVuSans-33"/>
     <use x="1264.039062" xlink:href="#DejaVuSans-27"/>
     <use x="1291.529297" xlink:href="#DejaVuSans-29"/>
     <use x="1330.542969" xlink:href="#DejaVuSans-26"/>
     <use x="1408.521484" xlink:href="#DejaVuSans-20"/>
     <use x="1440.308594" xlink:href="#DejaVuSans-70"/>
     <use x="1503.785156" xlink:href="#DejaVuSans-79"/>
     <use x="1562.964844" xlink:href="#DejaVuSans-70"/>
     <use x="1626.441406" xlink:href="#DejaVuSans-72"/>
     <use x="1667.523438" xlink:href="#DejaVuSans-6f"/>
     <use x="1728.705078" xlink:href="#DejaVuSans-76"/>
     <use x="1787.884766" xlink:href="#DejaVuSans-65"/>
     <use x="1849.408203" xlink:href="#DejaVuSans-72"/>
     <use x="1890.380859" xlink:href="#DejaVuSans-2e"/>
     <use x="1922.167969" xlink:href="#DejaVuSans-6c"/>
     <use x="1949.951172" xlink:href="#DejaVuSans-6f"/>
     <use x="2011.132812" xlink:href="#DejaVuSans-67"/>
     <use x="2074.609375" xlink:href="#DejaVuSans-69"/>
     <use x="2102.392578" xlink:href="#DejaVuSans-63"/>
     <use x="2157.373047" xlink:href="#DejaVuSans-2e"/>
     <use x="2189.160156" xlink:href="#DejaVuSans-50"/>
     <use x="2249.447266" xlink:href="#DejaVuSans-72"/>
     <use x="2290.529297" xlink:href="#DejaVuSans-6f"/>
     <use x="2351.710938" xlink:href="#DejaVuSans-70"/>
     <use x="2415.1875" xlink:href="#DejaVuSans-28"/>
     <use x="2454.201172" xlink:href="#DejaVuSans-27"/>
     <use x="2481.691406" xlink:href="#DejaVuSans-32"/>
     <use x="2545.314453" xlink:href="#DejaVuSans-35"/>
     <use x="2608.9375" xlink:href="#DejaVuSans-36"/>
     <use x="2672.560547" xlink:href="#DejaVuSans-27"/>
     <use x="2700.050781" xlink:href="#DejaVuSans-29"/>
     <use x="2739.064453" xlink:href="#DejaVuSans-26"/>
     <use x="2817.042969" xlink:href="#DejaVuSans-7e"/>
     <use x="2900.832031" xlink:href="#DejaVuSans-20"/>
     <use x="2932.619141" xlink:href="#DejaVuSans-70"/>
     <use x="2996.095703" xlink:href="#DejaVuSans-79"/>
     <use x="3055.275391" xlink:href="#DejaVuSans-70"/>
     <use x="3118.751953" xlink:href="#DejaVuSans-72"/>
     <use x="3159.833984" xlink:href="#DejaVuSans-6f"/>
     <use x="3221.015625" xlink:href="#DejaVuSans-76"/>
     <use x="3280.195312" xlink:href="#DejaVuSans-65"/>
     <use x="3341.71875" xlink:href="#DejaVuSans-72"/>
     <use x="3382.691406" xlink:href="#DejaVuSans-2e"/>
     <use x="3414.478516" xlink:href="#DejaVuSans-6c"/>
     <use x="3442.261719" xlink:href="#DejaVuSans-6f"/>
     <use x="3503.443359" xlink:href="#DejaVuSans-67"/>
     <use x="3566.919922" xlink:href="#DejaVuSans-69"/>
     <use x="3594.703125" xlink:href="#DejaVuSans-63"/>
     <use x="3649.683594" xlink:href="#DejaVuSans-2e"/>
     <use x="3681.470703" xlink:href="#DejaVuSans-50"/>
     <use x="3741.757812" xlink:href="#DejaVuSans-72"/>
     <use x="3782.839844" xlink:href="#DejaVuSans-6f"/>
     <use x="3844.021484" xlink:href="#DejaVuSans-70"/>
     <use x="3907.498047" xlink:href="#DejaVuSans-28"/>
     <use x="3946.511719" xlink:href="#DejaVuSans-27"/>
     <use x="3974.001953" xlink:href="#DejaVuSans-32"/>
     <use x="4037.625" xlink:href="#DejaVuSans-35"/>
     <use x="4101.248047" xlink:href="#DejaVuSans-35"/>
     <use x="4164.871094" xlink:href="#DejaVuSans-27"/>
     <use x="4192.361328" xlink:href="#DejaVuSans-29"/>
     <use x="4231.375" xlink:href="#DejaVuSans-26"/>
    </g>
    <!-- pyprover.logic.Prop('254')&amp;~ pyprover.logic.Prop('257')&amp; pyprover.logic.Prop('258') -->
    <g transform="translate(301.516875 66.4)scale(0.12 -0.12)">
     <use xlink:href="#DejaVuSans-70"/>
     <use x="63.476562" xlink:href="#DejaVuSans-79"/>
     <use x="122.65625" xlink:href="#DejaVuSans-70"/>
     <use x="186.132812" xlink:href="#DejaVuSans-72"/>
     <use x="227.214844" xlink:href="#DejaVuSans-6f"/>
     <use x="288.396484" xlink:href="#DejaVuSans-76"/>
     <use x="347.576172" xlink:href="#DejaVuSans-65"/>
     <use x="409.099609" xlink:href="#DejaVuSans-72"/>
     <use x="450.072266" xlink:href="#DejaVuSans-2e"/>
     <use x="481.859375" xlink:href="#DejaVuSans-6c"/>
     <use x="509.642578" xlink:href="#DejaVuSans-6f"/>
     <use x="570.824219" xlink:href="#DejaVuSans-67"/>
     <use x="634.300781" xlink:href="#DejaVuSans-69"/>
     <use x="662.083984" xlink:href="#DejaVuSans-63"/>
     <use x="717.064453" xlink:href="#DejaVuSans-2e"/>
     <use x="748.851562" xlink:href="#DejaVuSans-50"/>
     <use x="809.138672" xlink:href="#DejaVuSans-72"/>
     <use x="850.220703" xlink:href="#DejaVuSans-6f"/>
     <use x="911.402344" xlink:href="#DejaVuSans-70"/>
     <use x="974.878906" xlink:href="#DejaVuSans-28"/>
     <use x="1013.892578" xlink:href="#DejaVuSans-27"/>
     <use x="1041.382812" xlink:href="#DejaVuSans-32"/>
     <use x="1105.005859" xlink:href="#DejaVuSans-35"/>
     <use x="1168.628906" xlink:href="#DejaVuSans-34"/>
     <use x="1232.251953" xlink:href="#DejaVuSans-27"/>
     <use x="1259.742188" xlink:href="#DejaVuSans-29"/>
     <use x="1298.755859" xlink:href="#DejaVuSans-26"/>
     <use x="1376.734375" xlink:href="#DejaVuSans-7e"/>
     <use x="1460.523438" xlink:href="#DejaVuSans-20"/>
     <use x="1492.310547" xlink:href="#DejaVuSans-70"/>
     <use x="1555.787109" xlink:href="#DejaVuSans-79"/>
     <use x="1614.966797" xlink:href="#DejaVuSans-70"/>
     <use x="1678.443359" xlink:href="#DejaVuSans-72"/>
     <use x="1719.525391" xlink:href="#DejaVuSans-6f"/>
     <use x="1780.707031" xlink:href="#DejaVuSans-76"/>
     <use x="1839.886719" xlink:href="#DejaVuSans-65"/>
     <use x="1901.410156" xlink:href="#DejaVuSans-72"/>
     <use x="1942.382812" xlink:href="#DejaVuSans-2e"/>
     <use x="1974.169922" xlink:href="#DejaVuSans-6c"/>
     <use x="2001.953125" xlink:href="#DejaVuSans-6f"/>
     <use x="2063.134766" xlink:href="#DejaVuSans-67"/>
     <use x="2126.611328" xlink:href="#DejaVuSans-69"/>
     <use x="2154.394531" xlink:href="#DejaVuSans-63"/>
     <use x="2209.375" xlink:href="#DejaVuSans-2e"/>
     <use x="2241.162109" xlink:href="#DejaVuSans-50"/>
     <use x="2301.449219" xlink:href="#DejaVuSans-72"/>
     <use x="2342.53125" xlink:href="#DejaVuSans-6f"/>
     <use x="2403.712891" xlink:href="#DejaVuSans-70"/>
     <use x="2467.189453" xlink:href="#DejaVuSans-28"/>
     <use x="2506.203125" xlink:href="#DejaVuSans-27"/>
     <use x="2533.693359" xlink:href="#DejaVuSans-32"/>
     <use x="2597.316406" xlink:href="#DejaVuSans-35"/>
     <use x="2660.939453" xlink:href="#DejaVuSans-37"/>
     <use x="2724.5625" xlink:href="#DejaVuSans-27"/>
     <use x="2752.052734" xlink:href="#DejaVuSans-29"/>
     <use x="2791.066406" xlink:href="#DejaVuSans-26"/>
     <use x="2869.044922" xlink:href="#DejaVuSans-20"/>
     <use x="2900.832031" xlink:href="#DejaVuSans-70"/>
     <use x="2964.308594" xlink:href="#DejaVuSans-79"/>
     <use x="3023.488281" xlink:href="#DejaVuSans-70"/>
     <use x="3086.964844" xlink:href="#DejaVuSans-72"/>
     <use x="3128.046875" xlink:href="#DejaVuSans-6f"/>
     <use x="3189.228516" xlink:href="#DejaVuSans-76"/>
     <use x="3248.408203" xlink:href="#DejaVuSans-65"/>
     <use x="3309.931641" xlink:href="#DejaVuSans-72"/>
     <use x="3350.904297" xlink:href="#DejaVuSans-2e"/>
     <use x="3382.691406" xlink:href="#DejaVuSans-6c"/>
     <use x="3410.474609" xlink:href="#DejaVuSans-6f"/>
     <use x="3471.65625" xlink:href="#DejaVuSans-67"/>
     <use x="3535.132812" xlink:href="#DejaVuSans-69"/>
     <use x="3562.916016" xlink:href="#DejaVuSans-63"/>
     <use x="3617.896484" xlink:href="#DejaVuSans-2e"/>
     <use x="3649.683594" xlink:href="#DejaVuSans-50"/>
     <use x="3709.970703" xlink:href="#DejaVuSans-72"/>
     <use x="3751.052734" xlink:href="#DejaVuSans-6f"/>
     <use x="3812.234375" xlink:href="#DejaVuSans-70"/>
     <use x="3875.710938" xlink:href="#DejaVuSans-28"/>
     <use x="3914.724609" xlink:href="#DejaVuSans-27"/>
     <use x="3942.214844" xlink:href="#DejaVuSans-32"/>
     <use x="4005.837891" xlink:href="#DejaVuSans-35"/>
     <use x="4069.460938" xlink:href="#DejaVuSans-38"/>
     <use x="4133.083984" xlink:href="#DejaVuSans-27"/>
     <use x="4160.574219" xlink:href="#DejaVuSans-29"/>
    </g>
   </g>
  </g>
 </g>
 <defs>
  <clipPath id="pc14818c7d5">
   <rect height="554.4" width="837" x="135" y="86.4"/>
  </clipPath>
 </defs>
</svg>
