<?xml version="1.0" encoding="utf-8" standalone="no"?>
<!DOCTYPE svg PUBLIC "-//W3C//DTD SVG 1.1//EN"
  "http://www.w3.org/Graphics/SVG/1.1/DTD/svg11.dtd">
<!-- Created with matplotlib (http://matplotlib.org/) -->
<svg height="720pt" version="1.1" viewBox="0 0 1080 720" width="1080pt" xmlns="http://www.w3.org/2000/svg" xmlns:xlink="http://www.w3.org/1999/xlink">
 <defs>
  <style type="text/css">
*{stroke-linecap:butt;stroke-linejoin:round;}
  </style>
 </defs>
 <g id="figure_1">
  <g id="patch_1">
   <path d="M 0 720 
L 1080 720 
L 1080 0 
L 0 0 
z
" style="fill:#ffffff;"/>
  </g>
  <g id="axes_1">
   <g id="patch_2">
    <path clip-path="url(#pb21c7f1e83)" d="M 552.749745 134.509091 
Q 382.275037 247.671142 214.594796 358.978211 
" style="fill:none;stroke:#000000;stroke-linecap:round;stroke-width:3;"/>
    <path clip-path="url(#pb21c7f1e83)" d="M 219.921228 358.323134 
L 214.594796 358.978211 
L 217.266594 354.32402 
L 219.921228 358.323134 
z
" style="stroke:#000000;stroke-linecap:round;stroke-width:3;"/>
   </g>
   <g id="patch_3">
    <path clip-path="url(#pb21c7f1e83)" d="M 552.749745 134.509091 
Q 723.97358 247.676385 892.399249 358.994283 
" style="fill:none;stroke:#000000;stroke-linecap:round;stroke-width:3;"/>
    <path clip-path="url(#pb21c7f1e83)" d="M 889.718161 354.345437 
L 892.399249 358.994283 
L 887.07152 358.349846 
L 889.718161 354.345437 
z
" style="stroke:#000000;stroke-linecap:round;stroke-width:3;"/>
   </g>
   <g id="patch_4">
    <path clip-path="url(#pb21c7f1e83)" d="M 207.632231 363.6 
Q 378.106939 476.762051 545.78718 588.06912 
" style="fill:none;stroke:#000000;stroke-linecap:round;stroke-width:3;"/>
    <path clip-path="url(#pb21c7f1e83)" d="M 543.115382 583.414929 
L 545.78718 588.06912 
L 540.460748 587.414043 
L 543.115382 583.414929 
z
" style="stroke:#000000;stroke-linecap:round;stroke-width:3;"/>
   </g>
   <g id="patch_5">
    <path clip-path="url(#pb21c7f1e83)" d="M 899.367769 363.6 
Q 728.143934 476.767295 559.718264 588.085192 
" style="fill:none;stroke:#000000;stroke-linecap:round;stroke-width:3;"/>
    <path clip-path="url(#pb21c7f1e83)" d="M 565.045993 587.440755 
L 559.718264 588.085192 
L 562.399352 583.436346 
L 565.045993 587.440755 
z
" style="stroke:#000000;stroke-linecap:round;stroke-width:3;"/>
   </g>
   <g id="text_1">
    <g id="patch_6">
     <path clip-path="url(#pb21c7f1e83)" d="M 312.782394 257.03267 
L 447.599582 257.03267 
Q 450.599582 257.03267 450.599582 254.03267 
L 450.599582 244.07642 
Q 450.599582 241.07642 447.599582 241.07642 
L 312.782394 241.07642 
Q 309.782394 241.07642 309.782394 244.07642 
L 309.782394 254.03267 
Q 309.782394 257.03267 312.782394 257.03267 
z
" style="fill:#ffffff;stroke:#ffffff;stroke-linejoin:miter;"/>
    </g>
    <g clip-path="url(#pb21c7f1e83)">
     <!-- shared_negations: (never,) -->
     <defs>
      <path d="M 44.28125 53.078125 
L 44.28125 44.578125 
Q 40.484375 46.53125 36.375 47.5 
Q 32.28125 48.484375 27.875 48.484375 
Q 21.1875 48.484375 17.84375 46.4375 
Q 14.5 44.390625 14.5 40.28125 
Q 14.5 37.15625 16.890625 35.375 
Q 19.28125 33.59375 26.515625 31.984375 
L 29.59375 31.296875 
Q 39.15625 29.25 43.1875 25.515625 
Q 47.21875 21.78125 47.21875 15.09375 
Q 47.21875 7.46875 41.1875 3.015625 
Q 35.15625 -1.421875 24.609375 -1.421875 
Q 20.21875 -1.421875 15.453125 -0.5625 
Q 10.6875 0.296875 5.421875 2 
L 5.421875 11.28125 
Q 10.40625 8.6875 15.234375 7.390625 
Q 20.0625 6.109375 24.8125 6.109375 
Q 31.15625 6.109375 34.5625 8.28125 
Q 37.984375 10.453125 37.984375 14.40625 
Q 37.984375 18.0625 35.515625 20.015625 
Q 33.0625 21.96875 24.703125 23.78125 
L 21.578125 24.515625 
Q 13.234375 26.265625 9.515625 29.90625 
Q 5.8125 33.546875 5.8125 39.890625 
Q 5.8125 47.609375 11.28125 51.796875 
Q 16.75 56 26.8125 56 
Q 31.78125 56 36.171875 55.265625 
Q 40.578125 54.546875 44.28125 53.078125 
z
" id="DejaVuSans-73"/>
      <path d="M 54.890625 33.015625 
L 54.890625 0 
L 45.90625 0 
L 45.90625 32.71875 
Q 45.90625 40.484375 42.875 44.328125 
Q 39.84375 48.1875 33.796875 48.1875 
Q 26.515625 48.1875 22.3125 43.546875 
Q 18.109375 38.921875 18.109375 30.90625 
L 18.109375 0 
L 9.078125 0 
L 9.078125 75.984375 
L 18.109375 75.984375 
L 18.109375 46.1875 
Q 21.34375 51.125 25.703125 53.5625 
Q 30.078125 56 35.796875 56 
Q 45.21875 56 50.046875 50.171875 
Q 54.890625 44.34375 54.890625 33.015625 
z
" id="DejaVuSans-68"/>
      <path d="M 34.28125 27.484375 
Q 23.390625 27.484375 19.1875 25 
Q 14.984375 22.515625 14.984375 16.5 
Q 14.984375 11.71875 18.140625 8.90625 
Q 21.296875 6.109375 26.703125 6.109375 
Q 34.1875 6.109375 38.703125 11.40625 
Q 43.21875 16.703125 43.21875 25.484375 
L 43.21875 27.484375 
z
M 52.203125 31.203125 
L 52.203125 0 
L 43.21875 0 
L 43.21875 8.296875 
Q 40.140625 3.328125 35.546875 0.953125 
Q 30.953125 -1.421875 24.3125 -1.421875 
Q 15.921875 -1.421875 10.953125 3.296875 
Q 6 8.015625 6 15.921875 
Q 6 25.140625 12.171875 29.828125 
Q 18.359375 34.515625 30.609375 34.515625 
L 43.21875 34.515625 
L 43.21875 35.40625 
Q 43.21875 41.609375 39.140625 45 
Q 35.0625 48.390625 27.6875 48.390625 
Q 23 48.390625 18.546875 47.265625 
Q 14.109375 46.140625 10.015625 43.890625 
L 10.015625 52.203125 
Q 14.9375 54.109375 19.578125 55.046875 
Q 24.21875 56 28.609375 56 
Q 40.484375 56 46.34375 49.84375 
Q 52.203125 43.703125 52.203125 31.203125 
z
" id="DejaVuSans-61"/>
      <path d="M 41.109375 46.296875 
Q 39.59375 47.171875 37.8125 47.578125 
Q 36.03125 48 33.890625 48 
Q 26.265625 48 22.1875 43.046875 
Q 18.109375 38.09375 18.109375 28.8125 
L 18.109375 0 
L 9.078125 0 
L 9.078125 54.6875 
L 18.109375 54.6875 
L 18.109375 46.1875 
Q 20.953125 51.171875 25.484375 53.578125 
Q 30.03125 56 36.53125 56 
Q 37.453125 56 38.578125 55.875 
Q 39.703125 55.765625 41.0625 55.515625 
z
" id="DejaVuSans-72"/>
      <path d="M 56.203125 29.59375 
L 56.203125 25.203125 
L 14.890625 25.203125 
Q 15.484375 15.921875 20.484375 11.0625 
Q 25.484375 6.203125 34.421875 6.203125 
Q 39.59375 6.203125 44.453125 7.46875 
Q 49.3125 8.734375 54.109375 11.28125 
L 54.109375 2.78125 
Q 49.265625 0.734375 44.1875 -0.34375 
Q 39.109375 -1.421875 33.890625 -1.421875 
Q 20.796875 -1.421875 13.15625 6.1875 
Q 5.515625 13.8125 5.515625 26.8125 
Q 5.515625 40.234375 12.765625 48.109375 
Q 20.015625 56 32.328125 56 
Q 43.359375 56 49.78125 48.890625 
Q 56.203125 41.796875 56.203125 29.59375 
z
M 47.21875 32.234375 
Q 47.125 39.59375 43.09375 43.984375 
Q 39.0625 48.390625 32.421875 48.390625 
Q 24.90625 48.390625 20.390625 44.140625 
Q 15.875 39.890625 15.1875 32.171875 
z
" id="DejaVuSans-65"/>
      <path d="M 45.40625 46.390625 
L 45.40625 75.984375 
L 54.390625 75.984375 
L 54.390625 0 
L 45.40625 0 
L 45.40625 8.203125 
Q 42.578125 3.328125 38.25 0.953125 
Q 33.9375 -1.421875 27.875 -1.421875 
Q 17.96875 -1.421875 11.734375 6.484375 
Q 5.515625 14.40625 5.515625 27.296875 
Q 5.515625 40.1875 11.734375 48.09375 
Q 17.96875 56 27.875 56 
Q 33.9375 56 38.25 53.625 
Q 42.578125 51.265625 45.40625 46.390625 
z
M 14.796875 27.296875 
Q 14.796875 17.390625 18.875 11.75 
Q 22.953125 6.109375 30.078125 6.109375 
Q 37.203125 6.109375 41.296875 11.75 
Q 45.40625 17.390625 45.40625 27.296875 
Q 45.40625 37.203125 41.296875 42.84375 
Q 37.203125 48.484375 30.078125 48.484375 
Q 22.953125 48.484375 18.875 42.84375 
Q 14.796875 37.203125 14.796875 27.296875 
z
" id="DejaVuSans-64"/>
      <path d="M 50.984375 -16.609375 
L 50.984375 -23.578125 
L -0.984375 -23.578125 
L -0.984375 -16.609375 
z
" id="DejaVuSans-5f"/>
      <path d="M 54.890625 33.015625 
L 54.890625 0 
L 45.90625 0 
L 45.90625 32.71875 
Q 45.90625 40.484375 42.875 44.328125 
Q 39.84375 48.1875 33.796875 48.1875 
Q 26.515625 48.1875 22.3125 43.546875 
Q 18.109375 38.921875 18.109375 30.90625 
L 18.109375 0 
L 9.078125 0 
L 9.078125 54.6875 
L 18.109375 54.6875 
L 18.109375 46.1875 
Q 21.34375 51.125 25.703125 53.5625 
Q 30.078125 56 35.796875 56 
Q 45.21875 56 50.046875 50.171875 
Q 54.890625 44.34375 54.890625 33.015625 
z
" id="DejaVuSans-6e"/>
      <path d="M 45.40625 27.984375 
Q 45.40625 37.75 41.375 43.109375 
Q 37.359375 48.484375 30.078125 48.484375 
Q 22.859375 48.484375 18.828125 43.109375 
Q 14.796875 37.75 14.796875 27.984375 
Q 14.796875 18.265625 18.828125 12.890625 
Q 22.859375 7.515625 30.078125 7.515625 
Q 37.359375 7.515625 41.375 12.890625 
Q 45.40625 18.265625 45.40625 27.984375 
z
M 54.390625 6.78125 
Q 54.390625 -7.171875 48.1875 -13.984375 
Q 42 -20.796875 29.203125 -20.796875 
Q 24.46875 -20.796875 20.265625 -20.09375 
Q 16.0625 -19.390625 12.109375 -17.921875 
L 12.109375 -9.1875 
Q 16.0625 -11.328125 19.921875 -12.34375 
Q 23.78125 -13.375 27.78125 -13.375 
Q 36.625 -13.375 41.015625 -8.765625 
Q 45.40625 -4.15625 45.40625 5.171875 
L 45.40625 9.625 
Q 42.625 4.78125 38.28125 2.390625 
Q 33.9375 0 27.875 0 
Q 17.828125 0 11.671875 7.65625 
Q 5.515625 15.328125 5.515625 27.984375 
Q 5.515625 40.671875 11.671875 48.328125 
Q 17.828125 56 27.875 56 
Q 33.9375 56 38.28125 53.609375 
Q 42.625 51.21875 45.40625 46.390625 
L 45.40625 54.6875 
L 54.390625 54.6875 
z
" id="DejaVuSans-67"/>
      <path d="M 18.3125 70.21875 
L 18.3125 54.6875 
L 36.8125 54.6875 
L 36.8125 47.703125 
L 18.3125 47.703125 
L 18.3125 18.015625 
Q 18.3125 11.328125 20.140625 9.421875 
Q 21.96875 7.515625 27.59375 7.515625 
L 36.8125 7.515625 
L 36.8125 0 
L 27.59375 0 
Q 17.1875 0 13.234375 3.875 
Q 9.28125 7.765625 9.28125 18.015625 
L 9.28125 47.703125 
L 2.6875 47.703125 
L 2.6875 54.6875 
L 9.28125 54.6875 
L 9.28125 70.21875 
z
" id="DejaVuSans-74"/>
      <path d="M 9.421875 54.6875 
L 18.40625 54.6875 
L 18.40625 0 
L 9.421875 0 
z
M 9.421875 75.984375 
L 18.40625 75.984375 
L 18.40625 64.59375 
L 9.421875 64.59375 
z
" id="DejaVuSans-69"/>
      <path d="M 30.609375 48.390625 
Q 23.390625 48.390625 19.1875 42.75 
Q 14.984375 37.109375 14.984375 27.296875 
Q 14.984375 17.484375 19.15625 11.84375 
Q 23.34375 6.203125 30.609375 6.203125 
Q 37.796875 6.203125 41.984375 11.859375 
Q 46.1875 17.53125 46.1875 27.296875 
Q 46.1875 37.015625 41.984375 42.703125 
Q 37.796875 48.390625 30.609375 48.390625 
z
M 30.609375 56 
Q 42.328125 56 49.015625 48.375 
Q 55.71875 40.765625 55.71875 27.296875 
Q 55.71875 13.875 49.015625 6.21875 
Q 42.328125 -1.421875 30.609375 -1.421875 
Q 18.84375 -1.421875 12.171875 6.21875 
Q 5.515625 13.875 5.515625 27.296875 
Q 5.515625 40.765625 12.171875 48.375 
Q 18.84375 56 30.609375 56 
z
" id="DejaVuSans-6f"/>
      <path d="M 11.71875 12.40625 
L 22.015625 12.40625 
L 22.015625 0 
L 11.71875 0 
z
M 11.71875 51.703125 
L 22.015625 51.703125 
L 22.015625 39.3125 
L 11.71875 39.3125 
z
" id="DejaVuSans-3a"/>
      <path id="DejaVuSans-20"/>
      <path d="M 31 75.875 
Q 24.46875 64.65625 21.28125 53.65625 
Q 18.109375 42.671875 18.109375 31.390625 
Q 18.109375 20.125 21.3125 9.0625 
Q 24.515625 -2 31 -13.1875 
L 23.1875 -13.1875 
Q 15.875 -1.703125 12.234375 9.375 
Q 8.59375 20.453125 8.59375 31.390625 
Q 8.59375 42.28125 12.203125 53.3125 
Q 15.828125 64.359375 23.1875 75.875 
z
" id="DejaVuSans-28"/>
      <path d="M 2.984375 54.6875 
L 12.5 54.6875 
L 29.59375 8.796875 
L 46.6875 54.6875 
L 56.203125 54.6875 
L 35.6875 0 
L 23.484375 0 
z
" id="DejaVuSans-76"/>
      <path d="M 11.71875 12.40625 
L 22.015625 12.40625 
L 22.015625 4 
L 14.015625 -11.625 
L 7.71875 -11.625 
L 11.71875 4 
z
" id="DejaVuSans-2c"/>
      <path d="M 8.015625 75.875 
L 15.828125 75.875 
Q 23.140625 64.359375 26.78125 53.3125 
Q 30.421875 42.28125 30.421875 31.390625 
Q 30.421875 20.453125 26.78125 9.375 
Q 23.140625 -1.703125 15.828125 -13.1875 
L 8.015625 -13.1875 
Q 14.5 -2 17.703125 9.0625 
Q 20.90625 20.125 20.90625 31.390625 
Q 20.90625 42.671875 17.703125 53.65625 
Q 14.5 64.65625 8.015625 75.875 
z
" id="DejaVuSans-29"/>
     </defs>
     <g transform="translate(312.782394 251.674858)scale(0.1 -0.1)">
      <use xlink:href="#DejaVuSans-73"/>
      <use x="52.099609" xlink:href="#DejaVuSans-68"/>
      <use x="115.478516" xlink:href="#DejaVuSans-61"/>
      <use x="176.757812" xlink:href="#DejaVuSans-72"/>
      <use x="217.839844" xlink:href="#DejaVuSans-65"/>
      <use x="279.363281" xlink:href="#DejaVuSans-64"/>
      <use x="342.839844" xlink:href="#DejaVuSans-5f"/>
      <use x="392.839844" xlink:href="#DejaVuSans-6e"/>
      <use x="456.21875" xlink:href="#DejaVuSans-65"/>
      <use x="517.742188" xlink:href="#DejaVuSans-67"/>
      <use x="581.21875" xlink:href="#DejaVuSans-61"/>
      <use x="642.498047" xlink:href="#DejaVuSans-74"/>
      <use x="681.707031" xlink:href="#DejaVuSans-69"/>
      <use x="709.490234" xlink:href="#DejaVuSans-6f"/>
      <use x="770.671875" xlink:href="#DejaVuSans-6e"/>
      <use x="834.050781" xlink:href="#DejaVuSans-73"/>
      <use x="886.150391" xlink:href="#DejaVuSans-3a"/>
      <use x="919.841797" xlink:href="#DejaVuSans-20"/>
      <use x="951.628906" xlink:href="#DejaVuSans-28"/>
      <use x="990.642578" xlink:href="#DejaVuSans-6e"/>
      <use x="1054.021484" xlink:href="#DejaVuSans-65"/>
      <use x="1115.544922" xlink:href="#DejaVuSans-76"/>
      <use x="1174.724609" xlink:href="#DejaVuSans-65"/>
      <use x="1236.248047" xlink:href="#DejaVuSans-72"/>
      <use x="1277.361328" xlink:href="#DejaVuSans-2c"/>
      <use x="1309.148438" xlink:href="#DejaVuSans-29"/>
     </g>
    </g>
   </g>
   <g id="PathCollection_1">
    <defs>
     <path d="M 0 5 
C 1.326016 5 2.597899 4.473168 3.535534 3.535534 
C 4.473168 2.597899 5 1.326016 5 0 
C 5 -1.326016 4.473168 -2.597899 3.535534 -3.535534 
C 2.597899 -4.473168 1.326016 -5 0 -5 
C -1.326016 -5 -2.597899 -4.473168 -3.535534 -3.535534 
C -4.473168 -2.597899 -5 -1.326016 -5 0 
C -5 1.326016 -4.473168 2.597899 -3.535534 3.535534 
C -2.597899 4.473168 -1.326016 5 0 5 
z
" id="m4ed99f6e62" style="stroke:#0000ff;"/>
    </defs>
    <g clip-path="url(#pb21c7f1e83)">
     <use style="fill:#0000ff;stroke:#0000ff;" x="552.749745" xlink:href="#m4ed99f6e62" y="134.509091"/>
     <use style="fill:#0000ff;stroke:#0000ff;" x="207.632231" xlink:href="#m4ed99f6e62" y="363.6"/>
     <use style="fill:#0000ff;stroke:#0000ff;" x="899.367769" xlink:href="#m4ed99f6e62" y="363.6"/>
     <use style="fill:#0000ff;stroke:#0000ff;" x="552.749745" xlink:href="#m4ed99f6e62" y="592.690909"/>
    </g>
   </g>
   <g id="text_2">
    <g clip-path="url(#pb21c7f1e83)">
     <!-- 57  Of things themselves some -->
     <defs>
      <path d="M 10.796875 72.90625 
L 49.515625 72.90625 
L 49.515625 64.59375 
L 19.828125 64.59375 
L 19.828125 46.734375 
Q 21.96875 47.46875 24.109375 47.828125 
Q 26.265625 48.1875 28.421875 48.1875 
Q 40.625 48.1875 47.75 41.5 
Q 54.890625 34.8125 54.890625 23.390625 
Q 54.890625 11.625 47.5625 5.09375 
Q 40.234375 -1.421875 26.90625 -1.421875 
Q 22.3125 -1.421875 17.546875 -0.640625 
Q 12.796875 0.140625 7.71875 1.703125 
L 7.71875 11.625 
Q 12.109375 9.234375 16.796875 8.0625 
Q 21.484375 6.890625 26.703125 6.890625 
Q 35.15625 6.890625 40.078125 11.328125 
Q 45.015625 15.765625 45.015625 23.390625 
Q 45.015625 31 40.078125 35.4375 
Q 35.15625 39.890625 26.703125 39.890625 
Q 22.75 39.890625 18.8125 39.015625 
Q 14.890625 38.140625 10.796875 36.28125 
z
" id="DejaVuSans-35"/>
      <path d="M 8.203125 72.90625 
L 55.078125 72.90625 
L 55.078125 68.703125 
L 28.609375 0 
L 18.3125 0 
L 43.21875 64.59375 
L 8.203125 64.59375 
z
" id="DejaVuSans-37"/>
      <path d="M 39.40625 66.21875 
Q 28.65625 66.21875 22.328125 58.203125 
Q 16.015625 50.203125 16.015625 36.375 
Q 16.015625 22.609375 22.328125 14.59375 
Q 28.65625 6.59375 39.40625 6.59375 
Q 50.140625 6.59375 56.421875 14.59375 
Q 62.703125 22.609375 62.703125 36.375 
Q 62.703125 50.203125 56.421875 58.203125 
Q 50.140625 66.21875 39.40625 66.21875 
z
M 39.40625 74.21875 
Q 54.734375 74.21875 63.90625 63.9375 
Q 73.09375 53.65625 73.09375 36.375 
Q 73.09375 19.140625 63.90625 8.859375 
Q 54.734375 -1.421875 39.40625 -1.421875 
Q 24.03125 -1.421875 14.8125 8.828125 
Q 5.609375 19.09375 5.609375 36.375 
Q 5.609375 53.65625 14.8125 63.9375 
Q 24.03125 74.21875 39.40625 74.21875 
z
" id="DejaVuSans-4f"/>
      <path d="M 37.109375 75.984375 
L 37.109375 68.5 
L 28.515625 68.5 
Q 23.6875 68.5 21.796875 66.546875 
Q 19.921875 64.59375 19.921875 59.515625 
L 19.921875 54.6875 
L 34.71875 54.6875 
L 34.71875 47.703125 
L 19.921875 47.703125 
L 19.921875 0 
L 10.890625 0 
L 10.890625 47.703125 
L 2.296875 47.703125 
L 2.296875 54.6875 
L 10.890625 54.6875 
L 10.890625 58.5 
Q 10.890625 67.625 15.140625 71.796875 
Q 19.390625 75.984375 28.609375 75.984375 
z
" id="DejaVuSans-66"/>
      <path d="M 52 44.1875 
Q 55.375 50.25 60.0625 53.125 
Q 64.75 56 71.09375 56 
Q 79.640625 56 84.28125 50.015625 
Q 88.921875 44.046875 88.921875 33.015625 
L 88.921875 0 
L 79.890625 0 
L 79.890625 32.71875 
Q 79.890625 40.578125 77.09375 44.375 
Q 74.3125 48.1875 68.609375 48.1875 
Q 61.625 48.1875 57.5625 43.546875 
Q 53.515625 38.921875 53.515625 30.90625 
L 53.515625 0 
L 44.484375 0 
L 44.484375 32.71875 
Q 44.484375 40.625 41.703125 44.40625 
Q 38.921875 48.1875 33.109375 48.1875 
Q 26.21875 48.1875 22.15625 43.53125 
Q 18.109375 38.875 18.109375 30.90625 
L 18.109375 0 
L 9.078125 0 
L 9.078125 54.6875 
L 18.109375 54.6875 
L 18.109375 46.1875 
Q 21.1875 51.21875 25.484375 53.609375 
Q 29.78125 56 35.6875 56 
Q 41.65625 56 45.828125 52.96875 
Q 50 49.953125 52 44.1875 
z
" id="DejaVuSans-6d"/>
      <path d="M 9.421875 75.984375 
L 18.40625 75.984375 
L 18.40625 0 
L 9.421875 0 
z
" id="DejaVuSans-6c"/>
     </defs>
     <g transform="translate(474.882557 120.471747)scale(0.1 -0.1)">
      <use xlink:href="#DejaVuSans-35"/>
      <use x="63.623047" xlink:href="#DejaVuSans-37"/>
      <use x="127.246094" xlink:href="#DejaVuSans-20"/>
      <use x="159.033203" xlink:href="#DejaVuSans-20"/>
      <use x="190.820312" xlink:href="#DejaVuSans-4f"/>
      <use x="269.53125" xlink:href="#DejaVuSans-66"/>
      <use x="304.736328" xlink:href="#DejaVuSans-20"/>
      <use x="336.523438" xlink:href="#DejaVuSans-74"/>
      <use x="375.732422" xlink:href="#DejaVuSans-68"/>
      <use x="439.111328" xlink:href="#DejaVuSans-69"/>
      <use x="466.894531" xlink:href="#DejaVuSans-6e"/>
      <use x="530.273438" xlink:href="#DejaVuSans-67"/>
      <use x="593.75" xlink:href="#DejaVuSans-73"/>
      <use x="645.849609" xlink:href="#DejaVuSans-20"/>
      <use x="677.636719" xlink:href="#DejaVuSans-74"/>
      <use x="716.845703" xlink:href="#DejaVuSans-68"/>
      <use x="780.224609" xlink:href="#DejaVuSans-65"/>
      <use x="841.748047" xlink:href="#DejaVuSans-6d"/>
      <use x="939.160156" xlink:href="#DejaVuSans-73"/>
      <use x="991.259766" xlink:href="#DejaVuSans-65"/>
      <use x="1052.783203" xlink:href="#DejaVuSans-6c"/>
      <use x="1080.566406" xlink:href="#DejaVuSans-76"/>
      <use x="1139.746094" xlink:href="#DejaVuSans-65"/>
      <use x="1201.269531" xlink:href="#DejaVuSans-73"/>
      <use x="1253.369141" xlink:href="#DejaVuSans-20"/>
      <use x="1285.15625" xlink:href="#DejaVuSans-73"/>
      <use x="1337.255859" xlink:href="#DejaVuSans-6f"/>
      <use x="1398.4375" xlink:href="#DejaVuSans-6d"/>
      <use x="1495.849609" xlink:href="#DejaVuSans-65"/>
     </g>
    </g>
    <g clip-path="url(#pb21c7f1e83)">
     <!-- are predicable of a subject , -->
     <defs>
      <path d="M 18.109375 8.203125 
L 18.109375 -20.796875 
L 9.078125 -20.796875 
L 9.078125 54.6875 
L 18.109375 54.6875 
L 18.109375 46.390625 
Q 20.953125 51.265625 25.265625 53.625 
Q 29.59375 56 35.59375 56 
Q 45.5625 56 51.78125 48.09375 
Q 58.015625 40.1875 58.015625 27.296875 
Q 58.015625 14.40625 51.78125 6.484375 
Q 45.5625 -1.421875 35.59375 -1.421875 
Q 29.59375 -1.421875 25.265625 0.953125 
Q 20.953125 3.328125 18.109375 8.203125 
z
M 48.6875 27.296875 
Q 48.6875 37.203125 44.609375 42.84375 
Q 40.53125 48.484375 33.40625 48.484375 
Q 26.265625 48.484375 22.1875 42.84375 
Q 18.109375 37.203125 18.109375 27.296875 
Q 18.109375 17.390625 22.1875 11.75 
Q 26.265625 6.109375 33.40625 6.109375 
Q 40.53125 6.109375 44.609375 11.75 
Q 48.6875 17.390625 48.6875 27.296875 
z
" id="DejaVuSans-70"/>
      <path d="M 48.78125 52.59375 
L 48.78125 44.1875 
Q 44.96875 46.296875 41.140625 47.34375 
Q 37.3125 48.390625 33.40625 48.390625 
Q 24.65625 48.390625 19.8125 42.84375 
Q 14.984375 37.3125 14.984375 27.296875 
Q 14.984375 17.28125 19.8125 11.734375 
Q 24.65625 6.203125 33.40625 6.203125 
Q 37.3125 6.203125 41.140625 7.25 
Q 44.96875 8.296875 48.78125 10.40625 
L 48.78125 2.09375 
Q 45.015625 0.34375 40.984375 -0.53125 
Q 36.96875 -1.421875 32.421875 -1.421875 
Q 20.0625 -1.421875 12.78125 6.34375 
Q 5.515625 14.109375 5.515625 27.296875 
Q 5.515625 40.671875 12.859375 48.328125 
Q 20.21875 56 33.015625 56 
Q 37.15625 56 41.109375 55.140625 
Q 45.0625 54.296875 48.78125 52.59375 
z
" id="DejaVuSans-63"/>
      <path d="M 48.6875 27.296875 
Q 48.6875 37.203125 44.609375 42.84375 
Q 40.53125 48.484375 33.40625 48.484375 
Q 26.265625 48.484375 22.1875 42.84375 
Q 18.109375 37.203125 18.109375 27.296875 
Q 18.109375 17.390625 22.1875 11.75 
Q 26.265625 6.109375 33.40625 6.109375 
Q 40.53125 6.109375 44.609375 11.75 
Q 48.6875 17.390625 48.6875 27.296875 
z
M 18.109375 46.390625 
Q 20.953125 51.265625 25.265625 53.625 
Q 29.59375 56 35.59375 56 
Q 45.5625 56 51.78125 48.09375 
Q 58.015625 40.1875 58.015625 27.296875 
Q 58.015625 14.40625 51.78125 6.484375 
Q 45.5625 -1.421875 35.59375 -1.421875 
Q 29.59375 -1.421875 25.265625 0.953125 
Q 20.953125 3.328125 18.109375 8.203125 
L 18.109375 0 
L 9.078125 0 
L 9.078125 75.984375 
L 18.109375 75.984375 
z
" id="DejaVuSans-62"/>
      <path d="M 8.5 21.578125 
L 8.5 54.6875 
L 17.484375 54.6875 
L 17.484375 21.921875 
Q 17.484375 14.15625 20.5 10.265625 
Q 23.53125 6.390625 29.59375 6.390625 
Q 36.859375 6.390625 41.078125 11.03125 
Q 45.3125 15.671875 45.3125 23.6875 
L 45.3125 54.6875 
L 54.296875 54.6875 
L 54.296875 0 
L 45.3125 0 
L 45.3125 8.40625 
Q 42.046875 3.421875 37.71875 1 
Q 33.40625 -1.421875 27.6875 -1.421875 
Q 18.265625 -1.421875 13.375 4.4375 
Q 8.5 10.296875 8.5 21.578125 
z
M 31.109375 56 
z
" id="DejaVuSans-75"/>
      <path d="M 9.421875 54.6875 
L 18.40625 54.6875 
L 18.40625 -0.984375 
Q 18.40625 -11.421875 14.421875 -16.109375 
Q 10.453125 -20.796875 1.609375 -20.796875 
L -1.8125 -20.796875 
L -1.8125 -13.1875 
L 0.59375 -13.1875 
Q 5.71875 -13.1875 7.5625 -10.8125 
Q 9.421875 -8.453125 9.421875 -0.984375 
z
M 9.421875 75.984375 
L 18.40625 75.984375 
L 18.40625 64.59375 
L 9.421875 64.59375 
z
" id="DejaVuSans-6a"/>
     </defs>
     <g transform="translate(482.693495 131.66956)scale(0.1 -0.1)">
      <use xlink:href="#DejaVuSans-61"/>
      <use x="61.279297" xlink:href="#DejaVuSans-72"/>
      <use x="102.361328" xlink:href="#DejaVuSans-65"/>
      <use x="163.884766" xlink:href="#DejaVuSans-20"/>
      <use x="195.671875" xlink:href="#DejaVuSans-70"/>
      <use x="259.148438" xlink:href="#DejaVuSans-72"/>
      <use x="300.230469" xlink:href="#DejaVuSans-65"/>
      <use x="361.753906" xlink:href="#DejaVuSans-64"/>
      <use x="425.230469" xlink:href="#DejaVuSans-69"/>
      <use x="453.013672" xlink:href="#DejaVuSans-63"/>
      <use x="507.994141" xlink:href="#DejaVuSans-61"/>
      <use x="569.273438" xlink:href="#DejaVuSans-62"/>
      <use x="632.75" xlink:href="#DejaVuSans-6c"/>
      <use x="660.533203" xlink:href="#DejaVuSans-65"/>
      <use x="722.056641" xlink:href="#DejaVuSans-20"/>
      <use x="753.84375" xlink:href="#DejaVuSans-6f"/>
      <use x="815.025391" xlink:href="#DejaVuSans-66"/>
      <use x="850.230469" xlink:href="#DejaVuSans-20"/>
      <use x="882.017578" xlink:href="#DejaVuSans-61"/>
      <use x="943.296875" xlink:href="#DejaVuSans-20"/>
      <use x="975.083984" xlink:href="#DejaVuSans-73"/>
      <use x="1027.183594" xlink:href="#DejaVuSans-75"/>
      <use x="1090.5625" xlink:href="#DejaVuSans-62"/>
      <use x="1154.039062" xlink:href="#DejaVuSans-6a"/>
      <use x="1181.822266" xlink:href="#DejaVuSans-65"/>
      <use x="1243.345703" xlink:href="#DejaVuSans-63"/>
      <use x="1298.326172" xlink:href="#DejaVuSans-74"/>
      <use x="1337.535156" xlink:href="#DejaVuSans-20"/>
      <use x="1369.322266" xlink:href="#DejaVuSans-2c"/>
     </g>
    </g>
    <g clip-path="url(#pb21c7f1e83)">
     <!-- and are never present in a -->
     <g transform="translate(486.129432 142.867372)scale(0.1 -0.1)">
      <use xlink:href="#DejaVuSans-61"/>
      <use x="61.279297" xlink:href="#DejaVuSans-6e"/>
      <use x="124.658203" xlink:href="#DejaVuSans-64"/>
      <use x="188.134766" xlink:href="#DejaVuSans-20"/>
      <use x="219.921875" xlink:href="#DejaVuSans-61"/>
      <use x="281.201172" xlink:href="#DejaVuSans-72"/>
      <use x="322.283203" xlink:href="#DejaVuSans-65"/>
      <use x="383.806641" xlink:href="#DejaVuSans-20"/>
      <use x="415.59375" xlink:href="#DejaVuSans-6e"/>
      <use x="478.972656" xlink:href="#DejaVuSans-65"/>
      <use x="540.496094" xlink:href="#DejaVuSans-76"/>
      <use x="599.675781" xlink:href="#DejaVuSans-65"/>
      <use x="661.199219" xlink:href="#DejaVuSans-72"/>
      <use x="702.3125" xlink:href="#DejaVuSans-20"/>
      <use x="734.099609" xlink:href="#DejaVuSans-70"/>
      <use x="797.576172" xlink:href="#DejaVuSans-72"/>
      <use x="838.658203" xlink:href="#DejaVuSans-65"/>
      <use x="900.181641" xlink:href="#DejaVuSans-73"/>
      <use x="952.28125" xlink:href="#DejaVuSans-65"/>
      <use x="1013.804688" xlink:href="#DejaVuSans-6e"/>
      <use x="1077.183594" xlink:href="#DejaVuSans-74"/>
      <use x="1116.392578" xlink:href="#DejaVuSans-20"/>
      <use x="1148.179688" xlink:href="#DejaVuSans-69"/>
      <use x="1175.962891" xlink:href="#DejaVuSans-6e"/>
      <use x="1239.341797" xlink:href="#DejaVuSans-20"/>
      <use x="1271.128906" xlink:href="#DejaVuSans-61"/>
     </g>
    </g>
    <g clip-path="url(#pb21c7f1e83)">
     <!-- subject . -->
     <defs>
      <path d="M 10.6875 12.40625 
L 21 12.40625 
L 21 0 
L 10.6875 0 
z
" id="DejaVuSans-2e"/>
     </defs>
     <g transform="translate(531.448963 154.065185)scale(0.1 -0.1)">
      <use xlink:href="#DejaVuSans-73"/>
      <use x="52.099609" xlink:href="#DejaVuSans-75"/>
      <use x="115.478516" xlink:href="#DejaVuSans-62"/>
      <use x="178.955078" xlink:href="#DejaVuSans-6a"/>
      <use x="206.738281" xlink:href="#DejaVuSans-65"/>
      <use x="268.261719" xlink:href="#DejaVuSans-63"/>
      <use x="323.242188" xlink:href="#DejaVuSans-74"/>
      <use x="362.451172" xlink:href="#DejaVuSans-20"/>
      <use x="394.238281" xlink:href="#DejaVuSans-2e"/>
     </g>
    </g>
   </g>
   <g id="text_3">
    <g clip-path="url(#pb21c7f1e83)">
     <!-- 56  Of things themselves some -->
     <defs>
      <path d="M 33.015625 40.375 
Q 26.375 40.375 22.484375 35.828125 
Q 18.609375 31.296875 18.609375 23.390625 
Q 18.609375 15.53125 22.484375 10.953125 
Q 26.375 6.390625 33.015625 6.390625 
Q 39.65625 6.390625 43.53125 10.953125 
Q 47.40625 15.53125 47.40625 23.390625 
Q 47.40625 31.296875 43.53125 35.828125 
Q 39.65625 40.375 33.015625 40.375 
z
M 52.59375 71.296875 
L 52.59375 62.3125 
Q 48.875 64.0625 45.09375 64.984375 
Q 41.3125 65.921875 37.59375 65.921875 
Q 27.828125 65.921875 22.671875 59.328125 
Q 17.53125 52.734375 16.796875 39.40625 
Q 19.671875 43.65625 24.015625 45.921875 
Q 28.375 48.1875 33.59375 48.1875 
Q 44.578125 48.1875 50.953125 41.515625 
Q 57.328125 34.859375 57.328125 23.390625 
Q 57.328125 12.15625 50.6875 5.359375 
Q 44.046875 -1.421875 33.015625 -1.421875 
Q 20.359375 -1.421875 13.671875 8.265625 
Q 6.984375 17.96875 6.984375 36.375 
Q 6.984375 53.65625 15.1875 63.9375 
Q 23.390625 74.21875 37.203125 74.21875 
Q 40.921875 74.21875 44.703125 73.484375 
Q 48.484375 72.75 52.59375 71.296875 
z
" id="DejaVuSans-36"/>
     </defs>
     <g transform="translate(129.765044 360.760469)scale(0.1 -0.1)">
      <use xlink:href="#DejaVuSans-35"/>
      <use x="63.623047" xlink:href="#DejaVuSans-36"/>
      <use x="127.246094" xlink:href="#DejaVuSans-20"/>
      <use x="159.033203" xlink:href="#DejaVuSans-20"/>
      <use x="190.820312" xlink:href="#DejaVuSans-4f"/>
      <use x="269.53125" xlink:href="#DejaVuSans-66"/>
      <use x="304.736328" xlink:href="#DejaVuSans-20"/>
      <use x="336.523438" xlink:href="#DejaVuSans-74"/>
      <use x="375.732422" xlink:href="#DejaVuSans-68"/>
      <use x="439.111328" xlink:href="#DejaVuSans-69"/>
      <use x="466.894531" xlink:href="#DejaVuSans-6e"/>
      <use x="530.273438" xlink:href="#DejaVuSans-67"/>
      <use x="593.75" xlink:href="#DejaVuSans-73"/>
      <use x="645.849609" xlink:href="#DejaVuSans-20"/>
      <use x="677.636719" xlink:href="#DejaVuSans-74"/>
      <use x="716.845703" xlink:href="#DejaVuSans-68"/>
      <use x="780.224609" xlink:href="#DejaVuSans-65"/>
      <use x="841.748047" xlink:href="#DejaVuSans-6d"/>
      <use x="939.160156" xlink:href="#DejaVuSans-73"/>
      <use x="991.259766" xlink:href="#DejaVuSans-65"/>
      <use x="1052.783203" xlink:href="#DejaVuSans-6c"/>
      <use x="1080.566406" xlink:href="#DejaVuSans-76"/>
      <use x="1139.746094" xlink:href="#DejaVuSans-65"/>
      <use x="1201.269531" xlink:href="#DejaVuSans-73"/>
      <use x="1253.369141" xlink:href="#DejaVuSans-20"/>
      <use x="1285.15625" xlink:href="#DejaVuSans-73"/>
      <use x="1337.255859" xlink:href="#DejaVuSans-6f"/>
      <use x="1398.4375" xlink:href="#DejaVuSans-6d"/>
      <use x="1495.849609" xlink:href="#DejaVuSans-65"/>
     </g>
    </g>
    <g clip-path="url(#pb21c7f1e83)">
     <!-- are never present in a subject -->
     <g transform="translate(132.296294 371.958281)scale(0.1 -0.1)">
      <use xlink:href="#DejaVuSans-61"/>
      <use x="61.279297" xlink:href="#DejaVuSans-72"/>
      <use x="102.361328" xlink:href="#DejaVuSans-65"/>
      <use x="163.884766" xlink:href="#DejaVuSans-20"/>
      <use x="195.671875" xlink:href="#DejaVuSans-6e"/>
      <use x="259.050781" xlink:href="#DejaVuSans-65"/>
      <use x="320.574219" xlink:href="#DejaVuSans-76"/>
      <use x="379.753906" xlink:href="#DejaVuSans-65"/>
      <use x="441.277344" xlink:href="#DejaVuSans-72"/>
      <use x="482.390625" xlink:href="#DejaVuSans-20"/>
      <use x="514.177734" xlink:href="#DejaVuSans-70"/>
      <use x="577.654297" xlink:href="#DejaVuSans-72"/>
      <use x="618.736328" xlink:href="#DejaVuSans-65"/>
      <use x="680.259766" xlink:href="#DejaVuSans-73"/>
      <use x="732.359375" xlink:href="#DejaVuSans-65"/>
      <use x="793.882812" xlink:href="#DejaVuSans-6e"/>
      <use x="857.261719" xlink:href="#DejaVuSans-74"/>
      <use x="896.470703" xlink:href="#DejaVuSans-20"/>
      <use x="928.257812" xlink:href="#DejaVuSans-69"/>
      <use x="956.041016" xlink:href="#DejaVuSans-6e"/>
      <use x="1019.419922" xlink:href="#DejaVuSans-20"/>
      <use x="1051.207031" xlink:href="#DejaVuSans-61"/>
      <use x="1112.486328" xlink:href="#DejaVuSans-20"/>
      <use x="1144.273438" xlink:href="#DejaVuSans-73"/>
      <use x="1196.373047" xlink:href="#DejaVuSans-75"/>
      <use x="1259.751953" xlink:href="#DejaVuSans-62"/>
      <use x="1323.228516" xlink:href="#DejaVuSans-6a"/>
      <use x="1351.011719" xlink:href="#DejaVuSans-65"/>
      <use x="1412.535156" xlink:href="#DejaVuSans-63"/>
      <use x="1467.515625" xlink:href="#DejaVuSans-74"/>
     </g>
    </g>
   </g>
   <g id="text_4">
    <g clip-path="url(#pb21c7f1e83)">
     <!-- 55  Of things themselves some -->
     <g transform="translate(821.500581 360.760469)scale(0.1 -0.1)">
      <use xlink:href="#DejaVuSans-35"/>
      <use x="63.623047" xlink:href="#DejaVuSans-35"/>
      <use x="127.246094" xlink:href="#DejaVuSans-20"/>
      <use x="159.033203" xlink:href="#DejaVuSans-20"/>
      <use x="190.820312" xlink:href="#DejaVuSans-4f"/>
      <use x="269.53125" xlink:href="#DejaVuSans-66"/>
      <use x="304.736328" xlink:href="#DejaVuSans-20"/>
      <use x="336.523438" xlink:href="#DejaVuSans-74"/>
      <use x="375.732422" xlink:href="#DejaVuSans-68"/>
      <use x="439.111328" xlink:href="#DejaVuSans-69"/>
      <use x="466.894531" xlink:href="#DejaVuSans-6e"/>
      <use x="530.273438" xlink:href="#DejaVuSans-67"/>
      <use x="593.75" xlink:href="#DejaVuSans-73"/>
      <use x="645.849609" xlink:href="#DejaVuSans-20"/>
      <use x="677.636719" xlink:href="#DejaVuSans-74"/>
      <use x="716.845703" xlink:href="#DejaVuSans-68"/>
      <use x="780.224609" xlink:href="#DejaVuSans-65"/>
      <use x="841.748047" xlink:href="#DejaVuSans-6d"/>
      <use x="939.160156" xlink:href="#DejaVuSans-73"/>
      <use x="991.259766" xlink:href="#DejaVuSans-65"/>
      <use x="1052.783203" xlink:href="#DejaVuSans-6c"/>
      <use x="1080.566406" xlink:href="#DejaVuSans-76"/>
      <use x="1139.746094" xlink:href="#DejaVuSans-65"/>
      <use x="1201.269531" xlink:href="#DejaVuSans-73"/>
      <use x="1253.369141" xlink:href="#DejaVuSans-20"/>
      <use x="1285.15625" xlink:href="#DejaVuSans-73"/>
      <use x="1337.255859" xlink:href="#DejaVuSans-6f"/>
      <use x="1398.4375" xlink:href="#DejaVuSans-6d"/>
      <use x="1495.849609" xlink:href="#DejaVuSans-65"/>
     </g>
    </g>
    <g clip-path="url(#pb21c7f1e83)">
     <!-- are predicable of a subject -->
     <g transform="translate(832.489644 371.958281)scale(0.1 -0.1)">
      <use xlink:href="#DejaVuSans-61"/>
      <use x="61.279297" xlink:href="#DejaVuSans-72"/>
      <use x="102.361328" xlink:href="#DejaVuSans-65"/>
      <use x="163.884766" xlink:href="#DejaVuSans-20"/>
      <use x="195.671875" xlink:href="#DejaVuSans-70"/>
      <use x="259.148438" xlink:href="#DejaVuSans-72"/>
      <use x="300.230469" xlink:href="#DejaVuSans-65"/>
      <use x="361.753906" xlink:href="#DejaVuSans-64"/>
      <use x="425.230469" xlink:href="#DejaVuSans-69"/>
      <use x="453.013672" xlink:href="#DejaVuSans-63"/>
      <use x="507.994141" xlink:href="#DejaVuSans-61"/>
      <use x="569.273438" xlink:href="#DejaVuSans-62"/>
      <use x="632.75" xlink:href="#DejaVuSans-6c"/>
      <use x="660.533203" xlink:href="#DejaVuSans-65"/>
      <use x="722.056641" xlink:href="#DejaVuSans-20"/>
      <use x="753.84375" xlink:href="#DejaVuSans-6f"/>
      <use x="815.025391" xlink:href="#DejaVuSans-66"/>
      <use x="850.230469" xlink:href="#DejaVuSans-20"/>
      <use x="882.017578" xlink:href="#DejaVuSans-61"/>
      <use x="943.296875" xlink:href="#DejaVuSans-20"/>
      <use x="975.083984" xlink:href="#DejaVuSans-73"/>
      <use x="1027.183594" xlink:href="#DejaVuSans-75"/>
      <use x="1090.5625" xlink:href="#DejaVuSans-62"/>
      <use x="1154.039062" xlink:href="#DejaVuSans-6a"/>
      <use x="1181.822266" xlink:href="#DejaVuSans-65"/>
      <use x="1243.345703" xlink:href="#DejaVuSans-63"/>
      <use x="1298.326172" xlink:href="#DejaVuSans-74"/>
     </g>
    </g>
   </g>
   <g id="text_5">
    <g clip-path="url(#pb21c7f1e83)">
     <!-- 54  things themselves -->
     <defs>
      <path d="M 37.796875 64.3125 
L 12.890625 25.390625 
L 37.796875 25.390625 
z
M 35.203125 72.90625 
L 47.609375 72.90625 
L 47.609375 25.390625 
L 58.015625 25.390625 
L 58.015625 17.1875 
L 47.609375 17.1875 
L 47.609375 0 
L 37.796875 0 
L 37.796875 17.1875 
L 4.890625 17.1875 
L 4.890625 26.703125 
z
" id="DejaVuSans-34"/>
     </defs>
     <g transform="translate(497.367713 595.450284)scale(0.1 -0.1)">
      <use xlink:href="#DejaVuSans-35"/>
      <use x="63.623047" xlink:href="#DejaVuSans-34"/>
      <use x="127.246094" xlink:href="#DejaVuSans-20"/>
      <use x="159.033203" xlink:href="#DejaVuSans-20"/>
      <use x="190.820312" xlink:href="#DejaVuSans-74"/>
      <use x="230.029297" xlink:href="#DejaVuSans-68"/>
      <use x="293.408203" xlink:href="#DejaVuSans-69"/>
      <use x="321.191406" xlink:href="#DejaVuSans-6e"/>
      <use x="384.570312" xlink:href="#DejaVuSans-67"/>
      <use x="448.046875" xlink:href="#DejaVuSans-73"/>
      <use x="500.146484" xlink:href="#DejaVuSans-20"/>
      <use x="531.933594" xlink:href="#DejaVuSans-74"/>
      <use x="571.142578" xlink:href="#DejaVuSans-68"/>
      <use x="634.521484" xlink:href="#DejaVuSans-65"/>
      <use x="696.044922" xlink:href="#DejaVuSans-6d"/>
      <use x="793.457031" xlink:href="#DejaVuSans-73"/>
      <use x="845.556641" xlink:href="#DejaVuSans-65"/>
      <use x="907.080078" xlink:href="#DejaVuSans-6c"/>
      <use x="934.863281" xlink:href="#DejaVuSans-76"/>
      <use x="994.042969" xlink:href="#DejaVuSans-65"/>
      <use x="1055.566406" xlink:href="#DejaVuSans-73"/>
     </g>
    </g>
   </g>
   <g id="text_6">
    <!-- Of things themselves some are predicable of a subject , and are never present in a subject -->
    <g transform="translate(280.028437 12.6505)scale(0.12 -0.12)">
     <use xlink:href="#DejaVuSans-4f"/>
     <use x="78.710938" xlink:href="#DejaVuSans-66"/>
     <use x="113.916016" xlink:href="#DejaVuSans-20"/>
     <use x="145.703125" xlink:href="#DejaVuSans-74"/>
     <use x="184.912109" xlink:href="#DejaVuSans-68"/>
     <use x="248.291016" xlink:href="#DejaVuSans-69"/>
     <use x="276.074219" xlink:href="#DejaVuSans-6e"/>
     <use x="339.453125" xlink:href="#DejaVuSans-67"/>
     <use x="402.929688" xlink:href="#DejaVuSans-73"/>
     <use x="455.029297" xlink:href="#DejaVuSans-20"/>
     <use x="486.816406" xlink:href="#DejaVuSans-74"/>
     <use x="526.025391" xlink:href="#DejaVuSans-68"/>
     <use x="589.404297" xlink:href="#DejaVuSans-65"/>
     <use x="650.927734" xlink:href="#DejaVuSans-6d"/>
     <use x="748.339844" xlink:href="#DejaVuSans-73"/>
     <use x="800.439453" xlink:href="#DejaVuSans-65"/>
     <use x="861.962891" xlink:href="#DejaVuSans-6c"/>
     <use x="889.746094" xlink:href="#DejaVuSans-76"/>
     <use x="948.925781" xlink:href="#DejaVuSans-65"/>
     <use x="1010.449219" xlink:href="#DejaVuSans-73"/>
     <use x="1062.548828" xlink:href="#DejaVuSans-20"/>
     <use x="1094.335938" xlink:href="#DejaVuSans-73"/>
     <use x="1146.435547" xlink:href="#DejaVuSans-6f"/>
     <use x="1207.617188" xlink:href="#DejaVuSans-6d"/>
     <use x="1305.029297" xlink:href="#DejaVuSans-65"/>
     <use x="1366.552734" xlink:href="#DejaVuSans-20"/>
     <use x="1398.339844" xlink:href="#DejaVuSans-61"/>
     <use x="1459.619141" xlink:href="#DejaVuSans-72"/>
     <use x="1500.701172" xlink:href="#DejaVuSans-65"/>
     <use x="1562.224609" xlink:href="#DejaVuSans-20"/>
     <use x="1594.011719" xlink:href="#DejaVuSans-70"/>
     <use x="1657.488281" xlink:href="#DejaVuSans-72"/>
     <use x="1698.570312" xlink:href="#DejaVuSans-65"/>
     <use x="1760.09375" xlink:href="#DejaVuSans-64"/>
     <use x="1823.570312" xlink:href="#DejaVuSans-69"/>
     <use x="1851.353516" xlink:href="#DejaVuSans-63"/>
     <use x="1906.333984" xlink:href="#DejaVuSans-61"/>
     <use x="1967.613281" xlink:href="#DejaVuSans-62"/>
     <use x="2031.089844" xlink:href="#DejaVuSans-6c"/>
     <use x="2058.873047" xlink:href="#DejaVuSans-65"/>
     <use x="2120.396484" xlink:href="#DejaVuSans-20"/>
     <use x="2152.183594" xlink:href="#DejaVuSans-6f"/>
     <use x="2213.365234" xlink:href="#DejaVuSans-66"/>
     <use x="2248.570312" xlink:href="#DejaVuSans-20"/>
     <use x="2280.357422" xlink:href="#DejaVuSans-61"/>
     <use x="2341.636719" xlink:href="#DejaVuSans-20"/>
     <use x="2373.423828" xlink:href="#DejaVuSans-73"/>
     <use x="2425.523438" xlink:href="#DejaVuSans-75"/>
     <use x="2488.902344" xlink:href="#DejaVuSans-62"/>
     <use x="2552.378906" xlink:href="#DejaVuSans-6a"/>
     <use x="2580.162109" xlink:href="#DejaVuSans-65"/>
     <use x="2641.685547" xlink:href="#DejaVuSans-63"/>
     <use x="2696.666016" xlink:href="#DejaVuSans-74"/>
     <use x="2735.875" xlink:href="#DejaVuSans-20"/>
     <use x="2767.662109" xlink:href="#DejaVuSans-2c"/>
     <use x="2799.449219" xlink:href="#DejaVuSans-20"/>
     <use x="2831.236328" xlink:href="#DejaVuSans-61"/>
     <use x="2892.515625" xlink:href="#DejaVuSans-6e"/>
     <use x="2955.894531" xlink:href="#DejaVuSans-64"/>
     <use x="3019.371094" xlink:href="#DejaVuSans-20"/>
     <use x="3051.158203" xlink:href="#DejaVuSans-61"/>
     <use x="3112.4375" xlink:href="#DejaVuSans-72"/>
     <use x="3153.519531" xlink:href="#DejaVuSans-65"/>
     <use x="3215.042969" xlink:href="#DejaVuSans-20"/>
     <use x="3246.830078" xlink:href="#DejaVuSans-6e"/>
     <use x="3310.208984" xlink:href="#DejaVuSans-65"/>
     <use x="3371.732422" xlink:href="#DejaVuSans-76"/>
     <use x="3430.912109" xlink:href="#DejaVuSans-65"/>
     <use x="3492.435547" xlink:href="#DejaVuSans-72"/>
     <use x="3533.548828" xlink:href="#DejaVuSans-20"/>
     <use x="3565.335938" xlink:href="#DejaVuSans-70"/>
     <use x="3628.8125" xlink:href="#DejaVuSans-72"/>
     <use x="3669.894531" xlink:href="#DejaVuSans-65"/>
     <use x="3731.417969" xlink:href="#DejaVuSans-73"/>
     <use x="3783.517578" xlink:href="#DejaVuSans-65"/>
     <use x="3845.041016" xlink:href="#DejaVuSans-6e"/>
     <use x="3908.419922" xlink:href="#DejaVuSans-74"/>
     <use x="3947.628906" xlink:href="#DejaVuSans-20"/>
     <use x="3979.416016" xlink:href="#DejaVuSans-69"/>
     <use x="4007.199219" xlink:href="#DejaVuSans-6e"/>
     <use x="4070.578125" xlink:href="#DejaVuSans-20"/>
     <use x="4102.365234" xlink:href="#DejaVuSans-61"/>
     <use x="4163.644531" xlink:href="#DejaVuSans-20"/>
     <use x="4195.431641" xlink:href="#DejaVuSans-73"/>
     <use x="4247.53125" xlink:href="#DejaVuSans-75"/>
     <use x="4310.910156" xlink:href="#DejaVuSans-62"/>
     <use x="4374.386719" xlink:href="#DejaVuSans-6a"/>
     <use x="4402.169922" xlink:href="#DejaVuSans-65"/>
     <use x="4463.693359" xlink:href="#DejaVuSans-63"/>
     <use x="4518.673828" xlink:href="#DejaVuSans-74"/>
    </g>
    <!-- . -->
    <g transform="translate(551.593125 26.087875)scale(0.12 -0.12)">
     <use xlink:href="#DejaVuSans-2e"/>
    </g>
    <!-- 54 ∧ 55 ∧ ¬56 ∧ 57 -->
    <defs>
     <path d="M 12.890625 0 
L 30.515625 57.90625 
L 42.71875 57.90625 
L 60.296875 0 
L 50.78125 0 
L 36.625 45.90625 
L 22.40625 0 
z
" id="DejaVuSans-2227"/>
     <path d="M 10.59375 42.09375 
L 73.1875 42.09375 
L 73.1875 14.015625 
L 64.984375 14.015625 
L 64.984375 33.796875 
L 10.59375 33.796875 
z
" id="DejaVuSans-ac"/>
    </defs>
    <g transform="translate(493.317187 39.52525)scale(0.12 -0.12)">
     <use xlink:href="#DejaVuSans-35"/>
     <use x="63.623047" xlink:href="#DejaVuSans-34"/>
     <use x="127.246094" xlink:href="#DejaVuSans-20"/>
     <use x="159.033203" xlink:href="#DejaVuSans-2227"/>
     <use x="232.226562" xlink:href="#DejaVuSans-20"/>
     <use x="264.013672" xlink:href="#DejaVuSans-35"/>
     <use x="327.636719" xlink:href="#DejaVuSans-35"/>
     <use x="391.259766" xlink:href="#DejaVuSans-20"/>
     <use x="423.046875" xlink:href="#DejaVuSans-2227"/>
     <use x="496.240234" xlink:href="#DejaVuSans-20"/>
     <use x="528.027344" xlink:href="#DejaVuSans-ac"/>
     <use x="611.816406" xlink:href="#DejaVuSans-35"/>
     <use x="675.439453" xlink:href="#DejaVuSans-36"/>
     <use x="739.0625" xlink:href="#DejaVuSans-20"/>
     <use x="770.849609" xlink:href="#DejaVuSans-2227"/>
     <use x="844.042969" xlink:href="#DejaVuSans-20"/>
     <use x="875.830078" xlink:href="#DejaVuSans-35"/>
     <use x="939.453125" xlink:href="#DejaVuSans-37"/>
    </g>
    <!--  pyprover.logic.Prop('54')&amp; pyprover.logic.Prop('55')&amp;~ pyprover.logic.Prop('56')&amp; -->
    <defs>
     <path d="M 32.171875 -5.078125 
Q 28.375 -14.84375 24.75 -17.8125 
Q 21.140625 -20.796875 15.09375 -20.796875 
L 7.90625 -20.796875 
L 7.90625 -13.28125 
L 13.1875 -13.28125 
Q 16.890625 -13.28125 18.9375 -11.515625 
Q 21 -9.765625 23.484375 -3.21875 
L 25.09375 0.875 
L 2.984375 54.6875 
L 12.5 54.6875 
L 29.59375 11.921875 
L 46.6875 54.6875 
L 56.203125 54.6875 
z
" id="DejaVuSans-79"/>
     <path d="M 19.671875 64.796875 
L 19.671875 37.40625 
L 32.078125 37.40625 
Q 38.96875 37.40625 42.71875 40.96875 
Q 46.484375 44.53125 46.484375 51.125 
Q 46.484375 57.671875 42.71875 61.234375 
Q 38.96875 64.796875 32.078125 64.796875 
z
M 9.8125 72.90625 
L 32.078125 72.90625 
Q 44.34375 72.90625 50.609375 67.359375 
Q 56.890625 61.8125 56.890625 51.125 
Q 56.890625 40.328125 50.609375 34.8125 
Q 44.34375 29.296875 32.078125 29.296875 
L 19.671875 29.296875 
L 19.671875 0 
L 9.8125 0 
z
" id="DejaVuSans-50"/>
     <path d="M 17.921875 72.90625 
L 17.921875 45.796875 
L 9.625 45.796875 
L 9.625 72.90625 
z
" id="DejaVuSans-27"/>
     <path d="M 24.3125 39.203125 
Q 19.875 35.25 17.796875 31.3125 
Q 15.71875 27.390625 15.71875 23.09375 
Q 15.71875 15.96875 20.890625 11.234375 
Q 26.078125 6.5 33.890625 6.5 
Q 38.53125 6.5 42.578125 8.03125 
Q 46.625 9.578125 50.203125 12.703125 
z
M 31.203125 44.671875 
L 56 19.28125 
Q 58.890625 23.640625 60.5 28.59375 
Q 62.109375 33.546875 62.40625 39.109375 
L 71.484375 39.109375 
Q 70.90625 32.671875 68.359375 26.359375 
Q 65.828125 20.0625 61.28125 13.921875 
L 74.90625 0 
L 62.59375 0 
L 55.609375 7.171875 
Q 50.53125 2.828125 44.96875 0.703125 
Q 39.40625 -1.421875 33.015625 -1.421875 
Q 21.234375 -1.421875 13.765625 5.296875 
Q 6.296875 12.015625 6.296875 22.515625 
Q 6.296875 28.765625 9.5625 34.25 
Q 12.84375 39.75 19.390625 44.578125 
Q 17.046875 47.65625 15.8125 50.703125 
Q 14.59375 53.765625 14.59375 56.6875 
Q 14.59375 64.59375 20.015625 69.40625 
Q 25.4375 74.21875 34.421875 74.21875 
Q 38.484375 74.21875 42.5 73.34375 
Q 46.53125 72.46875 50.6875 70.703125 
L 50.6875 61.8125 
Q 46.4375 64.109375 42.578125 65.296875 
Q 38.71875 66.5 35.40625 66.5 
Q 30.28125 66.5 27.078125 63.78125 
Q 23.875 61.078125 23.875 56.78125 
Q 23.875 54.296875 25.3125 51.78125 
Q 26.765625 49.265625 31.203125 44.671875 
z
" id="DejaVuSans-26"/>
     <path d="M 73.1875 39.890625 
L 73.1875 31.203125 
Q 68.0625 27.34375 63.6875 25.6875 
Q 59.328125 24.03125 54.59375 24.03125 
Q 49.21875 24.03125 42.09375 26.90625 
Q 41.546875 27.09375 41.3125 27.203125 
Q 40.96875 27.34375 40.234375 27.59375 
Q 32.671875 30.609375 28.078125 30.609375 
Q 23.78125 30.609375 19.578125 28.734375 
Q 15.375 26.859375 10.59375 22.796875 
L 10.59375 31.5 
Q 15.71875 35.359375 20.09375 37.03125 
Q 24.46875 38.71875 29.203125 38.71875 
Q 34.578125 38.71875 41.75 35.796875 
Q 42.234375 35.59375 42.484375 35.5 
Q 42.875 35.359375 43.5625 35.109375 
Q 51.125 32.078125 55.71875 32.078125 
Q 59.90625 32.078125 64.03125 33.9375 
Q 68.171875 35.796875 73.1875 39.890625 
z
" id="DejaVuSans-7e"/>
    </defs>
    <g transform="translate(306.383438 52.962625)scale(0.12 -0.12)">
     <use xlink:href="#DejaVuSans-20"/>
     <use x="31.787109" xlink:href="#DejaVuSans-70"/>
     <use x="95.263672" xlink:href="#DejaVuSans-79"/>
     <use x="154.443359" xlink:href="#DejaVuSans-70"/>
     <use x="217.919922" xlink:href="#DejaVuSans-72"/>
     <use x="259.001953" xlink:href="#DejaVuSans-6f"/>
     <use x="320.183594" xlink:href="#DejaVuSans-76"/>
     <use x="379.363281" xlink:href="#DejaVuSans-65"/>
     <use x="440.886719" xlink:href="#DejaVuSans-72"/>
     <use x="481.859375" xlink:href="#DejaVuSans-2e"/>
     <use x="513.646484" xlink:href="#DejaVuSans-6c"/>
     <use x="541.429688" xlink:href="#DejaVuSans-6f"/>
     <use x="602.611328" xlink:href="#DejaVuSans-67"/>
     <use x="666.087891" xlink:href="#DejaVuSans-69"/>
     <use x="693.871094" xlink:href="#DejaVuSans-63"/>
     <use x="748.851562" xlink:href="#DejaVuSans-2e"/>
     <use x="780.638672" xlink:href="#DejaVuSans-50"/>
     <use x="840.925781" xlink:href="#DejaVuSans-72"/>
     <use x="882.007812" xlink:href="#DejaVuSans-6f"/>
     <use x="943.189453" xlink:href="#DejaVuSans-70"/>
     <use x="1006.666016" xlink:href="#DejaVuSans-28"/>
     <use x="1045.679688" xlink:href="#DejaVuSans-27"/>
     <use x="1073.169922" xlink:href="#DejaVuSans-35"/>
     <use x="1136.792969" xlink:href="#DejaVuSans-34"/>
     <use x="1200.416016" xlink:href="#DejaVuSans-27"/>
     <use x="1227.90625" xlink:href="#DejaVuSans-29"/>
     <use x="1266.919922" xlink:href="#DejaVuSans-26"/>
     <use x="1344.898438" xlink:href="#DejaVuSans-20"/>
     <use x="1376.685547" xlink:href="#DejaVuSans-70"/>
     <use x="1440.162109" xlink:href="#DejaVuSans-79"/>
     <use x="1499.341797" xlink:href="#DejaVuSans-70"/>
     <use x="1562.818359" xlink:href="#DejaVuSans-72"/>
     <use x="1603.900391" xlink:href="#DejaVuSans-6f"/>
     <use x="1665.082031" xlink:href="#DejaVuSans-76"/>
     <use x="1724.261719" xlink:href="#DejaVuSans-65"/>
     <use x="1785.785156" xlink:href="#DejaVuSans-72"/>
     <use x="1826.757812" xlink:href="#DejaVuSans-2e"/>
     <use x="1858.544922" xlink:href="#DejaVuSans-6c"/>
     <use x="1886.328125" xlink:href="#DejaVuSans-6f"/>
     <use x="1947.509766" xlink:href="#DejaVuSans-67"/>
     <use x="2010.986328" xlink:href="#DejaVuSans-69"/>
     <use x="2038.769531" xlink:href="#DejaVuSans-63"/>
     <use x="2093.75" xlink:href="#DejaVuSans-2e"/>
     <use x="2125.537109" xlink:href="#DejaVuSans-50"/>
     <use x="2185.824219" xlink:href="#DejaVuSans-72"/>
     <use x="2226.90625" xlink:href="#DejaVuSans-6f"/>
     <use x="2288.087891" xlink:href="#DejaVuSans-70"/>
     <use x="2351.564453" xlink:href="#DejaVuSans-28"/>
     <use x="2390.578125" xlink:href="#DejaVuSans-27"/>
     <use x="2418.068359" xlink:href="#DejaVuSans-35"/>
     <use x="2481.691406" xlink:href="#DejaVuSans-35"/>
     <use x="2545.314453" xlink:href="#DejaVuSans-27"/>
     <use x="2572.804688" xlink:href="#DejaVuSans-29"/>
     <use x="2611.818359" xlink:href="#DejaVuSans-26"/>
     <use x="2689.796875" xlink:href="#DejaVuSans-7e"/>
     <use x="2773.585938" xlink:href="#DejaVuSans-20"/>
     <use x="2805.373047" xlink:href="#DejaVuSans-70"/>
     <use x="2868.849609" xlink:href="#DejaVuSans-79"/>
     <use x="2928.029297" xlink:href="#DejaVuSans-70"/>
     <use x="2991.505859" xlink:href="#DejaVuSans-72"/>
     <use x="3032.587891" xlink:href="#DejaVuSans-6f"/>
     <use x="3093.769531" xlink:href="#DejaVuSans-76"/>
     <use x="3152.949219" xlink:href="#DejaVuSans-65"/>
     <use x="3214.472656" xlink:href="#DejaVuSans-72"/>
     <use x="3255.445312" xlink:href="#DejaVuSans-2e"/>
     <use x="3287.232422" xlink:href="#DejaVuSans-6c"/>
     <use x="3315.015625" xlink:href="#DejaVuSans-6f"/>
     <use x="3376.197266" xlink:href="#DejaVuSans-67"/>
     <use x="3439.673828" xlink:href="#DejaVuSans-69"/>
     <use x="3467.457031" xlink:href="#DejaVuSans-63"/>
     <use x="3522.4375" xlink:href="#DejaVuSans-2e"/>
     <use x="3554.224609" xlink:href="#DejaVuSans-50"/>
     <use x="3614.511719" xlink:href="#DejaVuSans-72"/>
     <use x="3655.59375" xlink:href="#DejaVuSans-6f"/>
     <use x="3716.775391" xlink:href="#DejaVuSans-70"/>
     <use x="3780.251953" xlink:href="#DejaVuSans-28"/>
     <use x="3819.265625" xlink:href="#DejaVuSans-27"/>
     <use x="3846.755859" xlink:href="#DejaVuSans-35"/>
     <use x="3910.378906" xlink:href="#DejaVuSans-36"/>
     <use x="3974.001953" xlink:href="#DejaVuSans-27"/>
     <use x="4001.492188" xlink:href="#DejaVuSans-29"/>
     <use x="4040.505859" xlink:href="#DejaVuSans-26"/>
    </g>
    <!-- pyprover.logic.Prop('57') -->
    <g transform="translate(479.389688 66.4)scale(0.12 -0.12)">
     <use xlink:href="#DejaVuSans-70"/>
     <use x="63.476562" xlink:href="#DejaVuSans-79"/>
     <use x="122.65625" xlink:href="#DejaVuSans-70"/>
     <use x="186.132812" xlink:href="#DejaVuSans-72"/>
     <use x="227.214844" xlink:href="#DejaVuSans-6f"/>
     <use x="288.396484" xlink:href="#DejaVuSans-76"/>
     <use x="347.576172" xlink:href="#DejaVuSans-65"/>
     <use x="409.099609" xlink:href="#DejaVuSans-72"/>
     <use x="450.072266" xlink:href="#DejaVuSans-2e"/>
     <use x="481.859375" xlink:href="#DejaVuSans-6c"/>
     <use x="509.642578" xlink:href="#DejaVuSans-6f"/>
     <use x="570.824219" xlink:href="#DejaVuSans-67"/>
     <use x="634.300781" xlink:href="#DejaVuSans-69"/>
     <use x="662.083984" xlink:href="#DejaVuSans-63"/>
     <use x="717.064453" xlink:href="#DejaVuSans-2e"/>
     <use x="748.851562" xlink:href="#DejaVuSans-50"/>
     <use x="809.138672" xlink:href="#DejaVuSans-72"/>
     <use x="850.220703" xlink:href="#DejaVuSans-6f"/>
     <use x="911.402344" xlink:href="#DejaVuSans-70"/>
     <use x="974.878906" xlink:href="#DejaVuSans-28"/>
     <use x="1013.892578" xlink:href="#DejaVuSans-27"/>
     <use x="1041.382812" xlink:href="#DejaVuSans-35"/>
     <use x="1105.005859" xlink:href="#DejaVuSans-37"/>
     <use x="1168.628906" xlink:href="#DejaVuSans-27"/>
     <use x="1196.119141" xlink:href="#DejaVuSans-29"/>
    </g>
   </g>
  </g>
 </g>
 <defs>
  <clipPath id="pb21c7f1e83">
   <rect height="554.4" width="837" x="135" y="86.4"/>
  </clipPath>
 </defs>
</svg>
