<?xml version="1.0" encoding="utf-8" standalone="no"?>
<!DOCTYPE svg PUBLIC "-//W3C//DTD SVG 1.1//EN"
  "http://www.w3.org/Graphics/SVG/1.1/DTD/svg11.dtd">
<!-- Created with matplotlib (http://matplotlib.org/) -->
<svg height="720pt" version="1.1" viewBox="0 0 1080 720" width="1080pt" xmlns="http://www.w3.org/2000/svg" xmlns:xlink="http://www.w3.org/1999/xlink">
 <defs>
  <style type="text/css">
*{stroke-linecap:butt;stroke-linejoin:round;}
  </style>
 </defs>
 <g id="figure_1">
  <g id="patch_1">
   <path d="M 0 720 
L 1080 720 
L 1080 0 
L 0 0 
z
" style="fill:#ffffff;"/>
  </g>
  <g id="axes_1">
   <g id="patch_2">
    <path clip-path="url(#p866ada9f7d)" d="M 635.930476 134.509091 
Q 423.985388 247.875638 214.997892 359.660208 
" style="fill:none;stroke:#000000;stroke-linecap:round;stroke-width:3;"/>
    <path clip-path="url(#p866ada9f7d)" d="M 220.362423 359.512549 
L 214.997892 359.660208 
L 218.098484 355.279988 
L 220.362423 359.512549 
z
" style="stroke:#000000;stroke-linecap:round;stroke-width:3;"/>
   </g>
   <g id="patch_3">
    <path clip-path="url(#p866ada9f7d)" d="M 635.930476 134.509091 
Q 635.930476 246.553408 635.930476 355.243623 
" style="fill:none;stroke:#000000;stroke-linecap:round;stroke-width:3;"/>
    <path clip-path="url(#p866ada9f7d)" d="M 638.330476 350.443623 
L 635.930476 355.243623 
L 633.530476 350.443623 
L 638.330476 350.443623 
z
" style="stroke:#000000;stroke-linecap:round;stroke-width:3;"/>
   </g>
   <g id="patch_4">
    <path clip-path="url(#p866ada9f7d)" d="M 635.930476 134.509091 
Q 765.762862 247.414212 893.064296 358.11836 
" style="fill:none;stroke:#000000;stroke-linecap:round;stroke-width:3;"/>
    <path clip-path="url(#p866ada9f7d)" d="M 891.017179 353.157583 
L 893.064296 358.11836 
L 887.867404 356.779587 
L 891.017179 353.157583 
z
" style="stroke:#000000;stroke-linecap:round;stroke-width:3;"/>
   </g>
   <g id="patch_5">
    <path clip-path="url(#p866ada9f7d)" d="M 207.632231 363.6 
Q 207.632231 475.644317 207.632231 584.334532 
" style="fill:none;stroke:#000000;stroke-linecap:round;stroke-width:3;"/>
    <path clip-path="url(#p866ada9f7d)" d="M 210.032231 579.534532 
L 207.632231 584.334532 
L 205.232231 579.534532 
L 210.032231 579.534532 
z
" style="stroke:#000000;stroke-linecap:round;stroke-width:3;"/>
   </g>
   <g id="patch_6">
    <path clip-path="url(#p866ada9f7d)" d="M 207.632231 363.6 
Q 349.446211 476.587269 488.636897 587.484483 
" style="fill:none;stroke:#000000;stroke-linecap:round;stroke-width:3;"/>
    <path clip-path="url(#p866ada9f7d)" d="M 486.378264 582.616365 
L 488.636897 587.484483 
L 483.387222 586.370518 
L 486.378264 582.616365 
z
" style="stroke:#000000;stroke-linecap:round;stroke-width:3;"/>
   </g>
   <g id="patch_7">
    <path clip-path="url(#p866ada9f7d)" d="M 635.930476 363.6 
Q 566.860153 476.014856 499.545713 585.571938 
" style="fill:none;stroke:#000000;stroke-linecap:round;stroke-width:3;"/>
    <path clip-path="url(#p866ada9f7d)" d="M 504.103386 582.738632 
L 499.545713 585.571938 
L 500.013672 580.225816 
L 504.103386 582.738632 
z
" style="stroke:#000000;stroke-linecap:round;stroke-width:3;"/>
   </g>
   <g id="text_1">
    <g id="patch_8">
     <path clip-path="url(#p866ada9f7d)" d="M 360.521197 257.03267 
L 483.04151 257.03267 
Q 486.04151 257.03267 486.04151 254.03267 
L 486.04151 244.07642 
Q 486.04151 241.07642 483.04151 241.07642 
L 360.521197 241.07642 
Q 357.521197 241.07642 357.521197 244.07642 
L 357.521197 254.03267 
Q 357.521197 257.03267 360.521197 257.03267 
z
" style="fill:#ffffff;stroke:#ffffff;stroke-linejoin:miter;"/>
    </g>
    <g clip-path="url(#p866ada9f7d)">
     <!-- shared_negations: (not,) -->
     <defs>
      <path d="M 44.28125 53.078125 
L 44.28125 44.578125 
Q 40.484375 46.53125 36.375 47.5 
Q 32.28125 48.484375 27.875 48.484375 
Q 21.1875 48.484375 17.84375 46.4375 
Q 14.5 44.390625 14.5 40.28125 
Q 14.5 37.15625 16.890625 35.375 
Q 19.28125 33.59375 26.515625 31.984375 
L 29.59375 31.296875 
Q 39.15625 29.25 43.1875 25.515625 
Q 47.21875 21.78125 47.21875 15.09375 
Q 47.21875 7.46875 41.1875 3.015625 
Q 35.15625 -1.421875 24.609375 -1.421875 
Q 20.21875 -1.421875 15.453125 -0.5625 
Q 10.6875 0.296875 5.421875 2 
L 5.421875 11.28125 
Q 10.40625 8.6875 15.234375 7.390625 
Q 20.0625 6.109375 24.8125 6.109375 
Q 31.15625 6.109375 34.5625 8.28125 
Q 37.984375 10.453125 37.984375 14.40625 
Q 37.984375 18.0625 35.515625 20.015625 
Q 33.0625 21.96875 24.703125 23.78125 
L 21.578125 24.515625 
Q 13.234375 26.265625 9.515625 29.90625 
Q 5.8125 33.546875 5.8125 39.890625 
Q 5.8125 47.609375 11.28125 51.796875 
Q 16.75 56 26.8125 56 
Q 31.78125 56 36.171875 55.265625 
Q 40.578125 54.546875 44.28125 53.078125 
z
" id="DejaVuSans-73"/>
      <path d="M 54.890625 33.015625 
L 54.890625 0 
L 45.90625 0 
L 45.90625 32.71875 
Q 45.90625 40.484375 42.875 44.328125 
Q 39.84375 48.1875 33.796875 48.1875 
Q 26.515625 48.1875 22.3125 43.546875 
Q 18.109375 38.921875 18.109375 30.90625 
L 18.109375 0 
L 9.078125 0 
L 9.078125 75.984375 
L 18.109375 75.984375 
L 18.109375 46.1875 
Q 21.34375 51.125 25.703125 53.5625 
Q 30.078125 56 35.796875 56 
Q 45.21875 56 50.046875 50.171875 
Q 54.890625 44.34375 54.890625 33.015625 
z
" id="DejaVuSans-68"/>
      <path d="M 34.28125 27.484375 
Q 23.390625 27.484375 19.1875 25 
Q 14.984375 22.515625 14.984375 16.5 
Q 14.984375 11.71875 18.140625 8.90625 
Q 21.296875 6.109375 26.703125 6.109375 
Q 34.1875 6.109375 38.703125 11.40625 
Q 43.21875 16.703125 43.21875 25.484375 
L 43.21875 27.484375 
z
M 52.203125 31.203125 
L 52.203125 0 
L 43.21875 0 
L 43.21875 8.296875 
Q 40.140625 3.328125 35.546875 0.953125 
Q 30.953125 -1.421875 24.3125 -1.421875 
Q 15.921875 -1.421875 10.953125 3.296875 
Q 6 8.015625 6 15.921875 
Q 6 25.140625 12.171875 29.828125 
Q 18.359375 34.515625 30.609375 34.515625 
L 43.21875 34.515625 
L 43.21875 35.40625 
Q 43.21875 41.609375 39.140625 45 
Q 35.0625 48.390625 27.6875 48.390625 
Q 23 48.390625 18.546875 47.265625 
Q 14.109375 46.140625 10.015625 43.890625 
L 10.015625 52.203125 
Q 14.9375 54.109375 19.578125 55.046875 
Q 24.21875 56 28.609375 56 
Q 40.484375 56 46.34375 49.84375 
Q 52.203125 43.703125 52.203125 31.203125 
z
" id="DejaVuSans-61"/>
      <path d="M 41.109375 46.296875 
Q 39.59375 47.171875 37.8125 47.578125 
Q 36.03125 48 33.890625 48 
Q 26.265625 48 22.1875 43.046875 
Q 18.109375 38.09375 18.109375 28.8125 
L 18.109375 0 
L 9.078125 0 
L 9.078125 54.6875 
L 18.109375 54.6875 
L 18.109375 46.1875 
Q 20.953125 51.171875 25.484375 53.578125 
Q 30.03125 56 36.53125 56 
Q 37.453125 56 38.578125 55.875 
Q 39.703125 55.765625 41.0625 55.515625 
z
" id="DejaVuSans-72"/>
      <path d="M 56.203125 29.59375 
L 56.203125 25.203125 
L 14.890625 25.203125 
Q 15.484375 15.921875 20.484375 11.0625 
Q 25.484375 6.203125 34.421875 6.203125 
Q 39.59375 6.203125 44.453125 7.46875 
Q 49.3125 8.734375 54.109375 11.28125 
L 54.109375 2.78125 
Q 49.265625 0.734375 44.1875 -0.34375 
Q 39.109375 -1.421875 33.890625 -1.421875 
Q 20.796875 -1.421875 13.15625 6.1875 
Q 5.515625 13.8125 5.515625 26.8125 
Q 5.515625 40.234375 12.765625 48.109375 
Q 20.015625 56 32.328125 56 
Q 43.359375 56 49.78125 48.890625 
Q 56.203125 41.796875 56.203125 29.59375 
z
M 47.21875 32.234375 
Q 47.125 39.59375 43.09375 43.984375 
Q 39.0625 48.390625 32.421875 48.390625 
Q 24.90625 48.390625 20.390625 44.140625 
Q 15.875 39.890625 15.1875 32.171875 
z
" id="DejaVuSans-65"/>
      <path d="M 45.40625 46.390625 
L 45.40625 75.984375 
L 54.390625 75.984375 
L 54.390625 0 
L 45.40625 0 
L 45.40625 8.203125 
Q 42.578125 3.328125 38.25 0.953125 
Q 33.9375 -1.421875 27.875 -1.421875 
Q 17.96875 -1.421875 11.734375 6.484375 
Q 5.515625 14.40625 5.515625 27.296875 
Q 5.515625 40.1875 11.734375 48.09375 
Q 17.96875 56 27.875 56 
Q 33.9375 56 38.25 53.625 
Q 42.578125 51.265625 45.40625 46.390625 
z
M 14.796875 27.296875 
Q 14.796875 17.390625 18.875 11.75 
Q 22.953125 6.109375 30.078125 6.109375 
Q 37.203125 6.109375 41.296875 11.75 
Q 45.40625 17.390625 45.40625 27.296875 
Q 45.40625 37.203125 41.296875 42.84375 
Q 37.203125 48.484375 30.078125 48.484375 
Q 22.953125 48.484375 18.875 42.84375 
Q 14.796875 37.203125 14.796875 27.296875 
z
" id="DejaVuSans-64"/>
      <path d="M 50.984375 -16.609375 
L 50.984375 -23.578125 
L -0.984375 -23.578125 
L -0.984375 -16.609375 
z
" id="DejaVuSans-5f"/>
      <path d="M 54.890625 33.015625 
L 54.890625 0 
L 45.90625 0 
L 45.90625 32.71875 
Q 45.90625 40.484375 42.875 44.328125 
Q 39.84375 48.1875 33.796875 48.1875 
Q 26.515625 48.1875 22.3125 43.546875 
Q 18.109375 38.921875 18.109375 30.90625 
L 18.109375 0 
L 9.078125 0 
L 9.078125 54.6875 
L 18.109375 54.6875 
L 18.109375 46.1875 
Q 21.34375 51.125 25.703125 53.5625 
Q 30.078125 56 35.796875 56 
Q 45.21875 56 50.046875 50.171875 
Q 54.890625 44.34375 54.890625 33.015625 
z
" id="DejaVuSans-6e"/>
      <path d="M 45.40625 27.984375 
Q 45.40625 37.75 41.375 43.109375 
Q 37.359375 48.484375 30.078125 48.484375 
Q 22.859375 48.484375 18.828125 43.109375 
Q 14.796875 37.75 14.796875 27.984375 
Q 14.796875 18.265625 18.828125 12.890625 
Q 22.859375 7.515625 30.078125 7.515625 
Q 37.359375 7.515625 41.375 12.890625 
Q 45.40625 18.265625 45.40625 27.984375 
z
M 54.390625 6.78125 
Q 54.390625 -7.171875 48.1875 -13.984375 
Q 42 -20.796875 29.203125 -20.796875 
Q 24.46875 -20.796875 20.265625 -20.09375 
Q 16.0625 -19.390625 12.109375 -17.921875 
L 12.109375 -9.1875 
Q 16.0625 -11.328125 19.921875 -12.34375 
Q 23.78125 -13.375 27.78125 -13.375 
Q 36.625 -13.375 41.015625 -8.765625 
Q 45.40625 -4.15625 45.40625 5.171875 
L 45.40625 9.625 
Q 42.625 4.78125 38.28125 2.390625 
Q 33.9375 0 27.875 0 
Q 17.828125 0 11.671875 7.65625 
Q 5.515625 15.328125 5.515625 27.984375 
Q 5.515625 40.671875 11.671875 48.328125 
Q 17.828125 56 27.875 56 
Q 33.9375 56 38.28125 53.609375 
Q 42.625 51.21875 45.40625 46.390625 
L 45.40625 54.6875 
L 54.390625 54.6875 
z
" id="DejaVuSans-67"/>
      <path d="M 18.3125 70.21875 
L 18.3125 54.6875 
L 36.8125 54.6875 
L 36.8125 47.703125 
L 18.3125 47.703125 
L 18.3125 18.015625 
Q 18.3125 11.328125 20.140625 9.421875 
Q 21.96875 7.515625 27.59375 7.515625 
L 36.8125 7.515625 
L 36.8125 0 
L 27.59375 0 
Q 17.1875 0 13.234375 3.875 
Q 9.28125 7.765625 9.28125 18.015625 
L 9.28125 47.703125 
L 2.6875 47.703125 
L 2.6875 54.6875 
L 9.28125 54.6875 
L 9.28125 70.21875 
z
" id="DejaVuSans-74"/>
      <path d="M 9.421875 54.6875 
L 18.40625 54.6875 
L 18.40625 0 
L 9.421875 0 
z
M 9.421875 75.984375 
L 18.40625 75.984375 
L 18.40625 64.59375 
L 9.421875 64.59375 
z
" id="DejaVuSans-69"/>
      <path d="M 30.609375 48.390625 
Q 23.390625 48.390625 19.1875 42.75 
Q 14.984375 37.109375 14.984375 27.296875 
Q 14.984375 17.484375 19.15625 11.84375 
Q 23.34375 6.203125 30.609375 6.203125 
Q 37.796875 6.203125 41.984375 11.859375 
Q 46.1875 17.53125 46.1875 27.296875 
Q 46.1875 37.015625 41.984375 42.703125 
Q 37.796875 48.390625 30.609375 48.390625 
z
M 30.609375 56 
Q 42.328125 56 49.015625 48.375 
Q 55.71875 40.765625 55.71875 27.296875 
Q 55.71875 13.875 49.015625 6.21875 
Q 42.328125 -1.421875 30.609375 -1.421875 
Q 18.84375 -1.421875 12.171875 6.21875 
Q 5.515625 13.875 5.515625 27.296875 
Q 5.515625 40.765625 12.171875 48.375 
Q 18.84375 56 30.609375 56 
z
" id="DejaVuSans-6f"/>
      <path d="M 11.71875 12.40625 
L 22.015625 12.40625 
L 22.015625 0 
L 11.71875 0 
z
M 11.71875 51.703125 
L 22.015625 51.703125 
L 22.015625 39.3125 
L 11.71875 39.3125 
z
" id="DejaVuSans-3a"/>
      <path id="DejaVuSans-20"/>
      <path d="M 31 75.875 
Q 24.46875 64.65625 21.28125 53.65625 
Q 18.109375 42.671875 18.109375 31.390625 
Q 18.109375 20.125 21.3125 9.0625 
Q 24.515625 -2 31 -13.1875 
L 23.1875 -13.1875 
Q 15.875 -1.703125 12.234375 9.375 
Q 8.59375 20.453125 8.59375 31.390625 
Q 8.59375 42.28125 12.203125 53.3125 
Q 15.828125 64.359375 23.1875 75.875 
z
" id="DejaVuSans-28"/>
      <path d="M 11.71875 12.40625 
L 22.015625 12.40625 
L 22.015625 4 
L 14.015625 -11.625 
L 7.71875 -11.625 
L 11.71875 4 
z
" id="DejaVuSans-2c"/>
      <path d="M 8.015625 75.875 
L 15.828125 75.875 
Q 23.140625 64.359375 26.78125 53.3125 
Q 30.421875 42.28125 30.421875 31.390625 
Q 30.421875 20.453125 26.78125 9.375 
Q 23.140625 -1.703125 15.828125 -13.1875 
L 8.015625 -13.1875 
Q 14.5 -2 17.703125 9.0625 
Q 20.90625 20.125 20.90625 31.390625 
Q 20.90625 42.671875 17.703125 53.65625 
Q 14.5 64.65625 8.015625 75.875 
z
" id="DejaVuSans-29"/>
     </defs>
     <g transform="translate(360.521197 251.674858)scale(0.1 -0.1)">
      <use xlink:href="#DejaVuSans-73"/>
      <use x="52.099609" xlink:href="#DejaVuSans-68"/>
      <use x="115.478516" xlink:href="#DejaVuSans-61"/>
      <use x="176.757812" xlink:href="#DejaVuSans-72"/>
      <use x="217.839844" xlink:href="#DejaVuSans-65"/>
      <use x="279.363281" xlink:href="#DejaVuSans-64"/>
      <use x="342.839844" xlink:href="#DejaVuSans-5f"/>
      <use x="392.839844" xlink:href="#DejaVuSans-6e"/>
      <use x="456.21875" xlink:href="#DejaVuSans-65"/>
      <use x="517.742188" xlink:href="#DejaVuSans-67"/>
      <use x="581.21875" xlink:href="#DejaVuSans-61"/>
      <use x="642.498047" xlink:href="#DejaVuSans-74"/>
      <use x="681.707031" xlink:href="#DejaVuSans-69"/>
      <use x="709.490234" xlink:href="#DejaVuSans-6f"/>
      <use x="770.671875" xlink:href="#DejaVuSans-6e"/>
      <use x="834.050781" xlink:href="#DejaVuSans-73"/>
      <use x="886.150391" xlink:href="#DejaVuSans-3a"/>
      <use x="919.841797" xlink:href="#DejaVuSans-20"/>
      <use x="951.628906" xlink:href="#DejaVuSans-28"/>
      <use x="990.642578" xlink:href="#DejaVuSans-6e"/>
      <use x="1054.021484" xlink:href="#DejaVuSans-6f"/>
      <use x="1115.203125" xlink:href="#DejaVuSans-74"/>
      <use x="1154.412109" xlink:href="#DejaVuSans-2c"/>
      <use x="1186.199219" xlink:href="#DejaVuSans-29"/>
     </g>
    </g>
   </g>
   <g id="text_2">
    <g id="patch_9">
     <path clip-path="url(#p866ada9f7d)" d="M 574.67032 257.03267 
L 697.190632 257.03267 
Q 700.190632 257.03267 700.190632 254.03267 
L 700.190632 244.07642 
Q 700.190632 241.07642 697.190632 241.07642 
L 574.67032 241.07642 
Q 571.67032 241.07642 571.67032 244.07642 
L 571.67032 254.03267 
Q 571.67032 257.03267 574.67032 257.03267 
z
" style="fill:#ffffff;stroke:#ffffff;stroke-linejoin:miter;"/>
    </g>
    <g clip-path="url(#p866ada9f7d)">
     <!-- shared_negations: (not,) -->
     <g transform="translate(574.67032 251.674858)scale(0.1 -0.1)">
      <use xlink:href="#DejaVuSans-73"/>
      <use x="52.099609" xlink:href="#DejaVuSans-68"/>
      <use x="115.478516" xlink:href="#DejaVuSans-61"/>
      <use x="176.757812" xlink:href="#DejaVuSans-72"/>
      <use x="217.839844" xlink:href="#DejaVuSans-65"/>
      <use x="279.363281" xlink:href="#DejaVuSans-64"/>
      <use x="342.839844" xlink:href="#DejaVuSans-5f"/>
      <use x="392.839844" xlink:href="#DejaVuSans-6e"/>
      <use x="456.21875" xlink:href="#DejaVuSans-65"/>
      <use x="517.742188" xlink:href="#DejaVuSans-67"/>
      <use x="581.21875" xlink:href="#DejaVuSans-61"/>
      <use x="642.498047" xlink:href="#DejaVuSans-74"/>
      <use x="681.707031" xlink:href="#DejaVuSans-69"/>
      <use x="709.490234" xlink:href="#DejaVuSans-6f"/>
      <use x="770.671875" xlink:href="#DejaVuSans-6e"/>
      <use x="834.050781" xlink:href="#DejaVuSans-73"/>
      <use x="886.150391" xlink:href="#DejaVuSans-3a"/>
      <use x="919.841797" xlink:href="#DejaVuSans-20"/>
      <use x="951.628906" xlink:href="#DejaVuSans-28"/>
      <use x="990.642578" xlink:href="#DejaVuSans-6e"/>
      <use x="1054.021484" xlink:href="#DejaVuSans-6f"/>
      <use x="1115.203125" xlink:href="#DejaVuSans-74"/>
      <use x="1154.412109" xlink:href="#DejaVuSans-2c"/>
      <use x="1186.199219" xlink:href="#DejaVuSans-29"/>
     </g>
    </g>
   </g>
   <g id="PathCollection_1">
    <defs>
     <path d="M 0 5 
C 1.326016 5 2.597899 4.473168 3.535534 3.535534 
C 4.473168 2.597899 5 1.326016 5 0 
C 5 -1.326016 4.473168 -2.597899 3.535534 -3.535534 
C 2.597899 -4.473168 1.326016 -5 0 -5 
C -1.326016 -5 -2.597899 -4.473168 -3.535534 -3.535534 
C -4.473168 -2.597899 -5 -1.326016 -5 0 
C -5 1.326016 -4.473168 2.597899 -3.535534 3.535534 
C -2.597899 4.473168 -1.326016 5 0 5 
z
" id="m81af56058d" style="stroke:#0000ff;"/>
    </defs>
    <g clip-path="url(#p866ada9f7d)">
     <use style="fill:#0000ff;stroke:#0000ff;" x="635.930476" xlink:href="#m81af56058d" y="134.509091"/>
     <use style="fill:#0000ff;stroke:#0000ff;" x="207.632231" xlink:href="#m81af56058d" y="363.6"/>
     <use style="fill:#0000ff;stroke:#0000ff;" x="635.930476" xlink:href="#m81af56058d" y="363.6"/>
     <use style="fill:#0000ff;stroke:#0000ff;" x="899.367769" xlink:href="#m81af56058d" y="363.6"/>
     <use style="fill:#0000ff;stroke:#0000ff;" x="207.632231" xlink:href="#m81af56058d" y="592.690909"/>
     <use style="fill:#0000ff;stroke:#0000ff;" x="495.17165" xlink:href="#m81af56058d" y="592.690909"/>
    </g>
   </g>
   <g id="text_3">
    <g clip-path="url(#p866ada9f7d)">
     <!-- 13  By being Presentinasubject -->
     <defs>
      <path d="M 12.40625 8.296875 
L 28.515625 8.296875 
L 28.515625 63.921875 
L 10.984375 60.40625 
L 10.984375 69.390625 
L 28.421875 72.90625 
L 38.28125 72.90625 
L 38.28125 8.296875 
L 54.390625 8.296875 
L 54.390625 0 
L 12.40625 0 
z
" id="DejaVuSans-31"/>
      <path d="M 40.578125 39.3125 
Q 47.65625 37.796875 51.625 33 
Q 55.609375 28.21875 55.609375 21.1875 
Q 55.609375 10.40625 48.1875 4.484375 
Q 40.765625 -1.421875 27.09375 -1.421875 
Q 22.515625 -1.421875 17.65625 -0.515625 
Q 12.796875 0.390625 7.625 2.203125 
L 7.625 11.71875 
Q 11.71875 9.328125 16.59375 8.109375 
Q 21.484375 6.890625 26.8125 6.890625 
Q 36.078125 6.890625 40.9375 10.546875 
Q 45.796875 14.203125 45.796875 21.1875 
Q 45.796875 27.640625 41.28125 31.265625 
Q 36.765625 34.90625 28.71875 34.90625 
L 20.21875 34.90625 
L 20.21875 43.015625 
L 29.109375 43.015625 
Q 36.375 43.015625 40.234375 45.921875 
Q 44.09375 48.828125 44.09375 54.296875 
Q 44.09375 59.90625 40.109375 62.90625 
Q 36.140625 65.921875 28.71875 65.921875 
Q 24.65625 65.921875 20.015625 65.03125 
Q 15.375 64.15625 9.8125 62.3125 
L 9.8125 71.09375 
Q 15.4375 72.65625 20.34375 73.4375 
Q 25.25 74.21875 29.59375 74.21875 
Q 40.828125 74.21875 47.359375 69.109375 
Q 53.90625 64.015625 53.90625 55.328125 
Q 53.90625 49.265625 50.4375 45.09375 
Q 46.96875 40.921875 40.578125 39.3125 
z
" id="DejaVuSans-33"/>
      <path d="M 19.671875 34.8125 
L 19.671875 8.109375 
L 35.5 8.109375 
Q 43.453125 8.109375 47.28125 11.40625 
Q 51.125 14.703125 51.125 21.484375 
Q 51.125 28.328125 47.28125 31.5625 
Q 43.453125 34.8125 35.5 34.8125 
z
M 19.671875 64.796875 
L 19.671875 42.828125 
L 34.28125 42.828125 
Q 41.5 42.828125 45.03125 45.53125 
Q 48.578125 48.25 48.578125 53.8125 
Q 48.578125 59.328125 45.03125 62.0625 
Q 41.5 64.796875 34.28125 64.796875 
z
M 9.8125 72.90625 
L 35.015625 72.90625 
Q 46.296875 72.90625 52.390625 68.21875 
Q 58.5 63.53125 58.5 54.890625 
Q 58.5 48.1875 55.375 44.234375 
Q 52.25 40.28125 46.1875 39.3125 
Q 53.46875 37.75 57.5 32.78125 
Q 61.53125 27.828125 61.53125 20.40625 
Q 61.53125 10.640625 54.890625 5.3125 
Q 48.25 0 35.984375 0 
L 9.8125 0 
z
" id="DejaVuSans-42"/>
      <path d="M 32.171875 -5.078125 
Q 28.375 -14.84375 24.75 -17.8125 
Q 21.140625 -20.796875 15.09375 -20.796875 
L 7.90625 -20.796875 
L 7.90625 -13.28125 
L 13.1875 -13.28125 
Q 16.890625 -13.28125 18.9375 -11.515625 
Q 21 -9.765625 23.484375 -3.21875 
L 25.09375 0.875 
L 2.984375 54.6875 
L 12.5 54.6875 
L 29.59375 11.921875 
L 46.6875 54.6875 
L 56.203125 54.6875 
z
" id="DejaVuSans-79"/>
      <path d="M 48.6875 27.296875 
Q 48.6875 37.203125 44.609375 42.84375 
Q 40.53125 48.484375 33.40625 48.484375 
Q 26.265625 48.484375 22.1875 42.84375 
Q 18.109375 37.203125 18.109375 27.296875 
Q 18.109375 17.390625 22.1875 11.75 
Q 26.265625 6.109375 33.40625 6.109375 
Q 40.53125 6.109375 44.609375 11.75 
Q 48.6875 17.390625 48.6875 27.296875 
z
M 18.109375 46.390625 
Q 20.953125 51.265625 25.265625 53.625 
Q 29.59375 56 35.59375 56 
Q 45.5625 56 51.78125 48.09375 
Q 58.015625 40.1875 58.015625 27.296875 
Q 58.015625 14.40625 51.78125 6.484375 
Q 45.5625 -1.421875 35.59375 -1.421875 
Q 29.59375 -1.421875 25.265625 0.953125 
Q 20.953125 3.328125 18.109375 8.203125 
L 18.109375 0 
L 9.078125 0 
L 9.078125 75.984375 
L 18.109375 75.984375 
z
" id="DejaVuSans-62"/>
      <path d="M 19.671875 64.796875 
L 19.671875 37.40625 
L 32.078125 37.40625 
Q 38.96875 37.40625 42.71875 40.96875 
Q 46.484375 44.53125 46.484375 51.125 
Q 46.484375 57.671875 42.71875 61.234375 
Q 38.96875 64.796875 32.078125 64.796875 
z
M 9.8125 72.90625 
L 32.078125 72.90625 
Q 44.34375 72.90625 50.609375 67.359375 
Q 56.890625 61.8125 56.890625 51.125 
Q 56.890625 40.328125 50.609375 34.8125 
Q 44.34375 29.296875 32.078125 29.296875 
L 19.671875 29.296875 
L 19.671875 0 
L 9.8125 0 
z
" id="DejaVuSans-50"/>
      <path d="M 8.5 21.578125 
L 8.5 54.6875 
L 17.484375 54.6875 
L 17.484375 21.921875 
Q 17.484375 14.15625 20.5 10.265625 
Q 23.53125 6.390625 29.59375 6.390625 
Q 36.859375 6.390625 41.078125 11.03125 
Q 45.3125 15.671875 45.3125 23.6875 
L 45.3125 54.6875 
L 54.296875 54.6875 
L 54.296875 0 
L 45.3125 0 
L 45.3125 8.40625 
Q 42.046875 3.421875 37.71875 1 
Q 33.40625 -1.421875 27.6875 -1.421875 
Q 18.265625 -1.421875 13.375 4.4375 
Q 8.5 10.296875 8.5 21.578125 
z
M 31.109375 56 
z
" id="DejaVuSans-75"/>
      <path d="M 9.421875 54.6875 
L 18.40625 54.6875 
L 18.40625 -0.984375 
Q 18.40625 -11.421875 14.421875 -16.109375 
Q 10.453125 -20.796875 1.609375 -20.796875 
L -1.8125 -20.796875 
L -1.8125 -13.1875 
L 0.59375 -13.1875 
Q 5.71875 -13.1875 7.5625 -10.8125 
Q 9.421875 -8.453125 9.421875 -0.984375 
z
M 9.421875 75.984375 
L 18.40625 75.984375 
L 18.40625 64.59375 
L 9.421875 64.59375 
z
" id="DejaVuSans-6a"/>
      <path d="M 48.78125 52.59375 
L 48.78125 44.1875 
Q 44.96875 46.296875 41.140625 47.34375 
Q 37.3125 48.390625 33.40625 48.390625 
Q 24.65625 48.390625 19.8125 42.84375 
Q 14.984375 37.3125 14.984375 27.296875 
Q 14.984375 17.28125 19.8125 11.734375 
Q 24.65625 6.203125 33.40625 6.203125 
Q 37.3125 6.203125 41.140625 7.25 
Q 44.96875 8.296875 48.78125 10.40625 
L 48.78125 2.09375 
Q 45.015625 0.34375 40.984375 -0.53125 
Q 36.96875 -1.421875 32.421875 -1.421875 
Q 20.0625 -1.421875 12.78125 6.34375 
Q 5.515625 14.109375 5.515625 27.296875 
Q 5.515625 40.671875 12.859375 48.328125 
Q 20.21875 56 33.015625 56 
Q 37.15625 56 41.109375 55.140625 
Q 45.0625 54.296875 48.78125 52.59375 
z
" id="DejaVuSans-63"/>
     </defs>
     <g transform="translate(558.139851 114.872841)scale(0.1 -0.1)">
      <use xlink:href="#DejaVuSans-31"/>
      <use x="63.623047" xlink:href="#DejaVuSans-33"/>
      <use x="127.246094" xlink:href="#DejaVuSans-20"/>
      <use x="159.033203" xlink:href="#DejaVuSans-20"/>
      <use x="190.820312" xlink:href="#DejaVuSans-42"/>
      <use x="259.423828" xlink:href="#DejaVuSans-79"/>
      <use x="318.603516" xlink:href="#DejaVuSans-20"/>
      <use x="350.390625" xlink:href="#DejaVuSans-62"/>
      <use x="413.867188" xlink:href="#DejaVuSans-65"/>
      <use x="475.390625" xlink:href="#DejaVuSans-69"/>
      <use x="503.173828" xlink:href="#DejaVuSans-6e"/>
      <use x="566.552734" xlink:href="#DejaVuSans-67"/>
      <use x="630.029297" xlink:href="#DejaVuSans-20"/>
      <use x="661.816406" xlink:href="#DejaVuSans-50"/>
      <use x="722.103516" xlink:href="#DejaVuSans-72"/>
      <use x="763.185547" xlink:href="#DejaVuSans-65"/>
      <use x="824.708984" xlink:href="#DejaVuSans-73"/>
      <use x="876.808594" xlink:href="#DejaVuSans-65"/>
      <use x="938.332031" xlink:href="#DejaVuSans-6e"/>
      <use x="1001.710938" xlink:href="#DejaVuSans-74"/>
      <use x="1040.919922" xlink:href="#DejaVuSans-69"/>
      <use x="1068.703125" xlink:href="#DejaVuSans-6e"/>
      <use x="1132.082031" xlink:href="#DejaVuSans-61"/>
      <use x="1193.361328" xlink:href="#DejaVuSans-73"/>
      <use x="1245.460938" xlink:href="#DejaVuSans-75"/>
      <use x="1308.839844" xlink:href="#DejaVuSans-62"/>
      <use x="1372.316406" xlink:href="#DejaVuSans-6a"/>
      <use x="1400.099609" xlink:href="#DejaVuSans-65"/>
      <use x="1461.623047" xlink:href="#DejaVuSans-63"/>
      <use x="1516.603516" xlink:href="#DejaVuSans-74"/>
     </g>
    </g>
    <g clip-path="url(#p866ada9f7d)">
     <!-- I do not mean present as parts -->
     <defs>
      <path d="M 9.8125 72.90625 
L 19.671875 72.90625 
L 19.671875 0 
L 9.8125 0 
z
" id="DejaVuSans-49"/>
      <path d="M 52 44.1875 
Q 55.375 50.25 60.0625 53.125 
Q 64.75 56 71.09375 56 
Q 79.640625 56 84.28125 50.015625 
Q 88.921875 44.046875 88.921875 33.015625 
L 88.921875 0 
L 79.890625 0 
L 79.890625 32.71875 
Q 79.890625 40.578125 77.09375 44.375 
Q 74.3125 48.1875 68.609375 48.1875 
Q 61.625 48.1875 57.5625 43.546875 
Q 53.515625 38.921875 53.515625 30.90625 
L 53.515625 0 
L 44.484375 0 
L 44.484375 32.71875 
Q 44.484375 40.625 41.703125 44.40625 
Q 38.921875 48.1875 33.109375 48.1875 
Q 26.21875 48.1875 22.15625 43.53125 
Q 18.109375 38.875 18.109375 30.90625 
L 18.109375 0 
L 9.078125 0 
L 9.078125 54.6875 
L 18.109375 54.6875 
L 18.109375 46.1875 
Q 21.1875 51.21875 25.484375 53.609375 
Q 29.78125 56 35.6875 56 
Q 41.65625 56 45.828125 52.96875 
Q 50 49.953125 52 44.1875 
z
" id="DejaVuSans-6d"/>
      <path d="M 18.109375 8.203125 
L 18.109375 -20.796875 
L 9.078125 -20.796875 
L 9.078125 54.6875 
L 18.109375 54.6875 
L 18.109375 46.390625 
Q 20.953125 51.265625 25.265625 53.625 
Q 29.59375 56 35.59375 56 
Q 45.5625 56 51.78125 48.09375 
Q 58.015625 40.1875 58.015625 27.296875 
Q 58.015625 14.40625 51.78125 6.484375 
Q 45.5625 -1.421875 35.59375 -1.421875 
Q 29.59375 -1.421875 25.265625 0.953125 
Q 20.953125 3.328125 18.109375 8.203125 
z
M 48.6875 27.296875 
Q 48.6875 37.203125 44.609375 42.84375 
Q 40.53125 48.484375 33.40625 48.484375 
Q 26.265625 48.484375 22.1875 42.84375 
Q 18.109375 37.203125 18.109375 27.296875 
Q 18.109375 17.390625 22.1875 11.75 
Q 26.265625 6.109375 33.40625 6.109375 
Q 40.53125 6.109375 44.609375 11.75 
Q 48.6875 17.390625 48.6875 27.296875 
z
" id="DejaVuSans-70"/>
     </defs>
     <g transform="translate(558.677351 126.070653)scale(0.1 -0.1)">
      <use xlink:href="#DejaVuSans-49"/>
      <use x="29.492188" xlink:href="#DejaVuSans-20"/>
      <use x="61.279297" xlink:href="#DejaVuSans-64"/>
      <use x="124.755859" xlink:href="#DejaVuSans-6f"/>
      <use x="185.9375" xlink:href="#DejaVuSans-20"/>
      <use x="217.724609" xlink:href="#DejaVuSans-6e"/>
      <use x="281.103516" xlink:href="#DejaVuSans-6f"/>
      <use x="342.285156" xlink:href="#DejaVuSans-74"/>
      <use x="381.494141" xlink:href="#DejaVuSans-20"/>
      <use x="413.28125" xlink:href="#DejaVuSans-6d"/>
      <use x="510.693359" xlink:href="#DejaVuSans-65"/>
      <use x="572.216797" xlink:href="#DejaVuSans-61"/>
      <use x="633.496094" xlink:href="#DejaVuSans-6e"/>
      <use x="696.875" xlink:href="#DejaVuSans-20"/>
      <use x="728.662109" xlink:href="#DejaVuSans-70"/>
      <use x="792.138672" xlink:href="#DejaVuSans-72"/>
      <use x="833.220703" xlink:href="#DejaVuSans-65"/>
      <use x="894.744141" xlink:href="#DejaVuSans-73"/>
      <use x="946.84375" xlink:href="#DejaVuSans-65"/>
      <use x="1008.367188" xlink:href="#DejaVuSans-6e"/>
      <use x="1071.746094" xlink:href="#DejaVuSans-74"/>
      <use x="1110.955078" xlink:href="#DejaVuSans-20"/>
      <use x="1142.742188" xlink:href="#DejaVuSans-61"/>
      <use x="1204.021484" xlink:href="#DejaVuSans-73"/>
      <use x="1256.121094" xlink:href="#DejaVuSans-20"/>
      <use x="1287.908203" xlink:href="#DejaVuSans-70"/>
      <use x="1351.384766" xlink:href="#DejaVuSans-61"/>
      <use x="1412.664062" xlink:href="#DejaVuSans-72"/>
      <use x="1453.777344" xlink:href="#DejaVuSans-74"/>
      <use x="1492.986328" xlink:href="#DejaVuSans-73"/>
     </g>
    </g>
    <g clip-path="url(#p866ada9f7d)">
     <!-- are present in a whole , but -->
     <defs>
      <path d="M 4.203125 54.6875 
L 13.1875 54.6875 
L 24.421875 12.015625 
L 35.59375 54.6875 
L 46.1875 54.6875 
L 57.421875 12.015625 
L 68.609375 54.6875 
L 77.59375 54.6875 
L 63.28125 0 
L 52.6875 0 
L 40.921875 44.828125 
L 29.109375 0 
L 18.5 0 
z
" id="DejaVuSans-77"/>
      <path d="M 9.421875 75.984375 
L 18.40625 75.984375 
L 18.40625 0 
L 9.421875 0 
z
" id="DejaVuSans-6c"/>
     </defs>
     <g transform="translate(566.789851 137.268466)scale(0.1 -0.1)">
      <use xlink:href="#DejaVuSans-61"/>
      <use x="61.279297" xlink:href="#DejaVuSans-72"/>
      <use x="102.361328" xlink:href="#DejaVuSans-65"/>
      <use x="163.884766" xlink:href="#DejaVuSans-20"/>
      <use x="195.671875" xlink:href="#DejaVuSans-70"/>
      <use x="259.148438" xlink:href="#DejaVuSans-72"/>
      <use x="300.230469" xlink:href="#DejaVuSans-65"/>
      <use x="361.753906" xlink:href="#DejaVuSans-73"/>
      <use x="413.853516" xlink:href="#DejaVuSans-65"/>
      <use x="475.376953" xlink:href="#DejaVuSans-6e"/>
      <use x="538.755859" xlink:href="#DejaVuSans-74"/>
      <use x="577.964844" xlink:href="#DejaVuSans-20"/>
      <use x="609.751953" xlink:href="#DejaVuSans-69"/>
      <use x="637.535156" xlink:href="#DejaVuSans-6e"/>
      <use x="700.914062" xlink:href="#DejaVuSans-20"/>
      <use x="732.701172" xlink:href="#DejaVuSans-61"/>
      <use x="793.980469" xlink:href="#DejaVuSans-20"/>
      <use x="825.767578" xlink:href="#DejaVuSans-77"/>
      <use x="907.554688" xlink:href="#DejaVuSans-68"/>
      <use x="970.933594" xlink:href="#DejaVuSans-6f"/>
      <use x="1032.115234" xlink:href="#DejaVuSans-6c"/>
      <use x="1059.898438" xlink:href="#DejaVuSans-65"/>
      <use x="1121.421875" xlink:href="#DejaVuSans-20"/>
      <use x="1153.208984" xlink:href="#DejaVuSans-2c"/>
      <use x="1184.996094" xlink:href="#DejaVuSans-20"/>
      <use x="1216.783203" xlink:href="#DejaVuSans-62"/>
      <use x="1280.259766" xlink:href="#DejaVuSans-75"/>
      <use x="1343.638672" xlink:href="#DejaVuSans-74"/>
     </g>
    </g>
    <g clip-path="url(#p866ada9f7d)">
     <!-- being incapable of existence -->
     <defs>
      <path d="M 37.109375 75.984375 
L 37.109375 68.5 
L 28.515625 68.5 
Q 23.6875 68.5 21.796875 66.546875 
Q 19.921875 64.59375 19.921875 59.515625 
L 19.921875 54.6875 
L 34.71875 54.6875 
L 34.71875 47.703125 
L 19.921875 47.703125 
L 19.921875 0 
L 10.890625 0 
L 10.890625 47.703125 
L 2.296875 47.703125 
L 2.296875 54.6875 
L 10.890625 54.6875 
L 10.890625 58.5 
Q 10.890625 67.625 15.140625 71.796875 
Q 19.390625 75.984375 28.609375 75.984375 
z
" id="DejaVuSans-66"/>
      <path d="M 54.890625 54.6875 
L 35.109375 28.078125 
L 55.90625 0 
L 45.3125 0 
L 29.390625 21.484375 
L 13.484375 0 
L 2.875 0 
L 24.125 28.609375 
L 4.6875 54.6875 
L 15.28125 54.6875 
L 29.78125 35.203125 
L 44.28125 54.6875 
z
" id="DejaVuSans-78"/>
     </defs>
     <g transform="translate(564.05157 148.466278)scale(0.1 -0.1)">
      <use xlink:href="#DejaVuSans-62"/>
      <use x="63.476562" xlink:href="#DejaVuSans-65"/>
      <use x="125" xlink:href="#DejaVuSans-69"/>
      <use x="152.783203" xlink:href="#DejaVuSans-6e"/>
      <use x="216.162109" xlink:href="#DejaVuSans-67"/>
      <use x="279.638672" xlink:href="#DejaVuSans-20"/>
      <use x="311.425781" xlink:href="#DejaVuSans-69"/>
      <use x="339.208984" xlink:href="#DejaVuSans-6e"/>
      <use x="402.587891" xlink:href="#DejaVuSans-63"/>
      <use x="457.568359" xlink:href="#DejaVuSans-61"/>
      <use x="518.847656" xlink:href="#DejaVuSans-70"/>
      <use x="582.324219" xlink:href="#DejaVuSans-61"/>
      <use x="643.603516" xlink:href="#DejaVuSans-62"/>
      <use x="707.080078" xlink:href="#DejaVuSans-6c"/>
      <use x="734.863281" xlink:href="#DejaVuSans-65"/>
      <use x="796.386719" xlink:href="#DejaVuSans-20"/>
      <use x="828.173828" xlink:href="#DejaVuSans-6f"/>
      <use x="889.355469" xlink:href="#DejaVuSans-66"/>
      <use x="924.560547" xlink:href="#DejaVuSans-20"/>
      <use x="956.347656" xlink:href="#DejaVuSans-65"/>
      <use x="1017.855469" xlink:href="#DejaVuSans-78"/>
      <use x="1077.035156" xlink:href="#DejaVuSans-69"/>
      <use x="1104.818359" xlink:href="#DejaVuSans-73"/>
      <use x="1156.917969" xlink:href="#DejaVuSans-74"/>
      <use x="1196.126953" xlink:href="#DejaVuSans-65"/>
      <use x="1257.650391" xlink:href="#DejaVuSans-6e"/>
      <use x="1321.029297" xlink:href="#DejaVuSans-63"/>
      <use x="1376.009766" xlink:href="#DejaVuSans-65"/>
     </g>
    </g>
    <g clip-path="url(#p866ada9f7d)">
     <!-- apart from the said subject . -->
     <defs>
      <path d="M 10.6875 12.40625 
L 21 12.40625 
L 21 0 
L 10.6875 0 
z
" id="DejaVuSans-2e"/>
     </defs>
     <g transform="translate(564.774226 159.664091)scale(0.1 -0.1)">
      <use xlink:href="#DejaVuSans-61"/>
      <use x="61.279297" xlink:href="#DejaVuSans-70"/>
      <use x="124.755859" xlink:href="#DejaVuSans-61"/>
      <use x="186.035156" xlink:href="#DejaVuSans-72"/>
      <use x="227.148438" xlink:href="#DejaVuSans-74"/>
      <use x="266.357422" xlink:href="#DejaVuSans-20"/>
      <use x="298.144531" xlink:href="#DejaVuSans-66"/>
      <use x="333.349609" xlink:href="#DejaVuSans-72"/>
      <use x="374.431641" xlink:href="#DejaVuSans-6f"/>
      <use x="435.613281" xlink:href="#DejaVuSans-6d"/>
      <use x="533.025391" xlink:href="#DejaVuSans-20"/>
      <use x="564.8125" xlink:href="#DejaVuSans-74"/>
      <use x="604.021484" xlink:href="#DejaVuSans-68"/>
      <use x="667.400391" xlink:href="#DejaVuSans-65"/>
      <use x="728.923828" xlink:href="#DejaVuSans-20"/>
      <use x="760.710938" xlink:href="#DejaVuSans-73"/>
      <use x="812.810547" xlink:href="#DejaVuSans-61"/>
      <use x="874.089844" xlink:href="#DejaVuSans-69"/>
      <use x="901.873047" xlink:href="#DejaVuSans-64"/>
      <use x="965.349609" xlink:href="#DejaVuSans-20"/>
      <use x="997.136719" xlink:href="#DejaVuSans-73"/>
      <use x="1049.236328" xlink:href="#DejaVuSans-75"/>
      <use x="1112.615234" xlink:href="#DejaVuSans-62"/>
      <use x="1176.091797" xlink:href="#DejaVuSans-6a"/>
      <use x="1203.875" xlink:href="#DejaVuSans-65"/>
      <use x="1265.398438" xlink:href="#DejaVuSans-63"/>
      <use x="1320.378906" xlink:href="#DejaVuSans-74"/>
      <use x="1359.587891" xlink:href="#DejaVuSans-20"/>
      <use x="1391.375" xlink:href="#DejaVuSans-2e"/>
     </g>
    </g>
   </g>
   <g id="text_4">
    <g clip-path="url(#p866ada9f7d)">
     <!-- 12  By being Presentinasubject -->
     <defs>
      <path d="M 19.1875 8.296875 
L 53.609375 8.296875 
L 53.609375 0 
L 7.328125 0 
L 7.328125 8.296875 
Q 12.9375 14.109375 22.625 23.890625 
Q 32.328125 33.6875 34.8125 36.53125 
Q 39.546875 41.84375 41.421875 45.53125 
Q 43.3125 49.21875 43.3125 52.78125 
Q 43.3125 58.59375 39.234375 62.25 
Q 35.15625 65.921875 28.609375 65.921875 
Q 23.96875 65.921875 18.8125 64.3125 
Q 13.671875 62.703125 7.8125 59.421875 
L 7.8125 69.390625 
Q 13.765625 71.78125 18.9375 73 
Q 24.125 74.21875 28.421875 74.21875 
Q 39.75 74.21875 46.484375 68.546875 
Q 53.21875 62.890625 53.21875 53.421875 
Q 53.21875 48.921875 51.53125 44.890625 
Q 49.859375 40.875 45.40625 35.40625 
Q 44.1875 33.984375 37.640625 27.21875 
Q 31.109375 20.453125 19.1875 8.296875 
z
" id="DejaVuSans-32"/>
     </defs>
     <g transform="translate(129.841606 349.562656)scale(0.1 -0.1)">
      <use xlink:href="#DejaVuSans-31"/>
      <use x="63.623047" xlink:href="#DejaVuSans-32"/>
      <use x="127.246094" xlink:href="#DejaVuSans-20"/>
      <use x="159.033203" xlink:href="#DejaVuSans-20"/>
      <use x="190.820312" xlink:href="#DejaVuSans-42"/>
      <use x="259.423828" xlink:href="#DejaVuSans-79"/>
      <use x="318.603516" xlink:href="#DejaVuSans-20"/>
      <use x="350.390625" xlink:href="#DejaVuSans-62"/>
      <use x="413.867188" xlink:href="#DejaVuSans-65"/>
      <use x="475.390625" xlink:href="#DejaVuSans-69"/>
      <use x="503.173828" xlink:href="#DejaVuSans-6e"/>
      <use x="566.552734" xlink:href="#DejaVuSans-67"/>
      <use x="630.029297" xlink:href="#DejaVuSans-20"/>
      <use x="661.816406" xlink:href="#DejaVuSans-50"/>
      <use x="722.103516" xlink:href="#DejaVuSans-72"/>
      <use x="763.185547" xlink:href="#DejaVuSans-65"/>
      <use x="824.708984" xlink:href="#DejaVuSans-73"/>
      <use x="876.808594" xlink:href="#DejaVuSans-65"/>
      <use x="938.332031" xlink:href="#DejaVuSans-6e"/>
      <use x="1001.710938" xlink:href="#DejaVuSans-74"/>
      <use x="1040.919922" xlink:href="#DejaVuSans-69"/>
      <use x="1068.703125" xlink:href="#DejaVuSans-6e"/>
      <use x="1132.082031" xlink:href="#DejaVuSans-61"/>
      <use x="1193.361328" xlink:href="#DejaVuSans-73"/>
      <use x="1245.460938" xlink:href="#DejaVuSans-75"/>
      <use x="1308.839844" xlink:href="#DejaVuSans-62"/>
      <use x="1372.316406" xlink:href="#DejaVuSans-6a"/>
      <use x="1400.099609" xlink:href="#DejaVuSans-65"/>
      <use x="1461.623047" xlink:href="#DejaVuSans-63"/>
      <use x="1516.603516" xlink:href="#DejaVuSans-74"/>
     </g>
    </g>
    <g clip-path="url(#p866ada9f7d)">
     <!-- I do not being incapable of -->
     <g transform="translate(140.738481 360.760469)scale(0.1 -0.1)">
      <use xlink:href="#DejaVuSans-49"/>
      <use x="29.492188" xlink:href="#DejaVuSans-20"/>
      <use x="61.279297" xlink:href="#DejaVuSans-64"/>
      <use x="124.755859" xlink:href="#DejaVuSans-6f"/>
      <use x="185.9375" xlink:href="#DejaVuSans-20"/>
      <use x="217.724609" xlink:href="#DejaVuSans-6e"/>
      <use x="281.103516" xlink:href="#DejaVuSans-6f"/>
      <use x="342.285156" xlink:href="#DejaVuSans-74"/>
      <use x="381.494141" xlink:href="#DejaVuSans-20"/>
      <use x="413.28125" xlink:href="#DejaVuSans-62"/>
      <use x="476.757812" xlink:href="#DejaVuSans-65"/>
      <use x="538.28125" xlink:href="#DejaVuSans-69"/>
      <use x="566.064453" xlink:href="#DejaVuSans-6e"/>
      <use x="629.443359" xlink:href="#DejaVuSans-67"/>
      <use x="692.919922" xlink:href="#DejaVuSans-20"/>
      <use x="724.707031" xlink:href="#DejaVuSans-69"/>
      <use x="752.490234" xlink:href="#DejaVuSans-6e"/>
      <use x="815.869141" xlink:href="#DejaVuSans-63"/>
      <use x="870.849609" xlink:href="#DejaVuSans-61"/>
      <use x="932.128906" xlink:href="#DejaVuSans-70"/>
      <use x="995.605469" xlink:href="#DejaVuSans-61"/>
      <use x="1056.884766" xlink:href="#DejaVuSans-62"/>
      <use x="1120.361328" xlink:href="#DejaVuSans-6c"/>
      <use x="1148.144531" xlink:href="#DejaVuSans-65"/>
      <use x="1209.667969" xlink:href="#DejaVuSans-20"/>
      <use x="1241.455078" xlink:href="#DejaVuSans-6f"/>
      <use x="1302.636719" xlink:href="#DejaVuSans-66"/>
     </g>
    </g>
    <g clip-path="url(#p866ada9f7d)">
     <!-- existence apart from the said -->
     <g transform="translate(133.716606 371.958281)scale(0.1 -0.1)">
      <use xlink:href="#DejaVuSans-65"/>
      <use x="61.507812" xlink:href="#DejaVuSans-78"/>
      <use x="120.6875" xlink:href="#DejaVuSans-69"/>
      <use x="148.470703" xlink:href="#DejaVuSans-73"/>
      <use x="200.570312" xlink:href="#DejaVuSans-74"/>
      <use x="239.779297" xlink:href="#DejaVuSans-65"/>
      <use x="301.302734" xlink:href="#DejaVuSans-6e"/>
      <use x="364.681641" xlink:href="#DejaVuSans-63"/>
      <use x="419.662109" xlink:href="#DejaVuSans-65"/>
      <use x="481.185547" xlink:href="#DejaVuSans-20"/>
      <use x="512.972656" xlink:href="#DejaVuSans-61"/>
      <use x="574.251953" xlink:href="#DejaVuSans-70"/>
      <use x="637.728516" xlink:href="#DejaVuSans-61"/>
      <use x="699.007812" xlink:href="#DejaVuSans-72"/>
      <use x="740.121094" xlink:href="#DejaVuSans-74"/>
      <use x="779.330078" xlink:href="#DejaVuSans-20"/>
      <use x="811.117188" xlink:href="#DejaVuSans-66"/>
      <use x="846.322266" xlink:href="#DejaVuSans-72"/>
      <use x="887.404297" xlink:href="#DejaVuSans-6f"/>
      <use x="948.585938" xlink:href="#DejaVuSans-6d"/>
      <use x="1045.998047" xlink:href="#DejaVuSans-20"/>
      <use x="1077.785156" xlink:href="#DejaVuSans-74"/>
      <use x="1116.994141" xlink:href="#DejaVuSans-68"/>
      <use x="1180.373047" xlink:href="#DejaVuSans-65"/>
      <use x="1241.896484" xlink:href="#DejaVuSans-20"/>
      <use x="1273.683594" xlink:href="#DejaVuSans-73"/>
      <use x="1325.783203" xlink:href="#DejaVuSans-61"/>
      <use x="1387.0625" xlink:href="#DejaVuSans-69"/>
      <use x="1414.845703" xlink:href="#DejaVuSans-64"/>
     </g>
    </g>
    <g clip-path="url(#p866ada9f7d)">
     <!-- subject -->
     <g transform="translate(189.509575 383.156094)scale(0.1 -0.1)">
      <use xlink:href="#DejaVuSans-73"/>
      <use x="52.099609" xlink:href="#DejaVuSans-75"/>
      <use x="115.478516" xlink:href="#DejaVuSans-62"/>
      <use x="178.955078" xlink:href="#DejaVuSans-6a"/>
      <use x="206.738281" xlink:href="#DejaVuSans-65"/>
      <use x="268.261719" xlink:href="#DejaVuSans-63"/>
      <use x="323.242188" xlink:href="#DejaVuSans-74"/>
     </g>
    </g>
   </g>
   <g id="text_5">
    <g clip-path="url(#p866ada9f7d)">
     <!-- 10  By being Presentinasubject -->
     <defs>
      <path d="M 31.78125 66.40625 
Q 24.171875 66.40625 20.328125 58.90625 
Q 16.5 51.421875 16.5 36.375 
Q 16.5 21.390625 20.328125 13.890625 
Q 24.171875 6.390625 31.78125 6.390625 
Q 39.453125 6.390625 43.28125 13.890625 
Q 47.125 21.390625 47.125 36.375 
Q 47.125 51.421875 43.28125 58.90625 
Q 39.453125 66.40625 31.78125 66.40625 
z
M 31.78125 74.21875 
Q 44.046875 74.21875 50.515625 64.515625 
Q 56.984375 54.828125 56.984375 36.375 
Q 56.984375 17.96875 50.515625 8.265625 
Q 44.046875 -1.421875 31.78125 -1.421875 
Q 19.53125 -1.421875 13.0625 8.265625 
Q 6.59375 17.96875 6.59375 36.375 
Q 6.59375 54.828125 13.0625 64.515625 
Q 19.53125 74.21875 31.78125 74.21875 
z
" id="DejaVuSans-30"/>
     </defs>
     <g transform="translate(558.139851 360.760469)scale(0.1 -0.1)">
      <use xlink:href="#DejaVuSans-31"/>
      <use x="63.623047" xlink:href="#DejaVuSans-30"/>
      <use x="127.246094" xlink:href="#DejaVuSans-20"/>
      <use x="159.033203" xlink:href="#DejaVuSans-20"/>
      <use x="190.820312" xlink:href="#DejaVuSans-42"/>
      <use x="259.423828" xlink:href="#DejaVuSans-79"/>
      <use x="318.603516" xlink:href="#DejaVuSans-20"/>
      <use x="350.390625" xlink:href="#DejaVuSans-62"/>
      <use x="413.867188" xlink:href="#DejaVuSans-65"/>
      <use x="475.390625" xlink:href="#DejaVuSans-69"/>
      <use x="503.173828" xlink:href="#DejaVuSans-6e"/>
      <use x="566.552734" xlink:href="#DejaVuSans-67"/>
      <use x="630.029297" xlink:href="#DejaVuSans-20"/>
      <use x="661.816406" xlink:href="#DejaVuSans-50"/>
      <use x="722.103516" xlink:href="#DejaVuSans-72"/>
      <use x="763.185547" xlink:href="#DejaVuSans-65"/>
      <use x="824.708984" xlink:href="#DejaVuSans-73"/>
      <use x="876.808594" xlink:href="#DejaVuSans-65"/>
      <use x="938.332031" xlink:href="#DejaVuSans-6e"/>
      <use x="1001.710938" xlink:href="#DejaVuSans-74"/>
      <use x="1040.919922" xlink:href="#DejaVuSans-69"/>
      <use x="1068.703125" xlink:href="#DejaVuSans-6e"/>
      <use x="1132.082031" xlink:href="#DejaVuSans-61"/>
      <use x="1193.361328" xlink:href="#DejaVuSans-73"/>
      <use x="1245.460938" xlink:href="#DejaVuSans-75"/>
      <use x="1308.839844" xlink:href="#DejaVuSans-62"/>
      <use x="1372.316406" xlink:href="#DejaVuSans-6a"/>
      <use x="1400.099609" xlink:href="#DejaVuSans-65"/>
      <use x="1461.623047" xlink:href="#DejaVuSans-63"/>
      <use x="1516.603516" xlink:href="#DejaVuSans-74"/>
     </g>
    </g>
    <g clip-path="url(#p866ada9f7d)">
     <!-- I do not mean present -->
     <g transform="translate(580.38282 371.958281)scale(0.1 -0.1)">
      <use xlink:href="#DejaVuSans-49"/>
      <use x="29.492188" xlink:href="#DejaVuSans-20"/>
      <use x="61.279297" xlink:href="#DejaVuSans-64"/>
      <use x="124.755859" xlink:href="#DejaVuSans-6f"/>
      <use x="185.9375" xlink:href="#DejaVuSans-20"/>
      <use x="217.724609" xlink:href="#DejaVuSans-6e"/>
      <use x="281.103516" xlink:href="#DejaVuSans-6f"/>
      <use x="342.285156" xlink:href="#DejaVuSans-74"/>
      <use x="381.494141" xlink:href="#DejaVuSans-20"/>
      <use x="413.28125" xlink:href="#DejaVuSans-6d"/>
      <use x="510.693359" xlink:href="#DejaVuSans-65"/>
      <use x="572.216797" xlink:href="#DejaVuSans-61"/>
      <use x="633.496094" xlink:href="#DejaVuSans-6e"/>
      <use x="696.875" xlink:href="#DejaVuSans-20"/>
      <use x="728.662109" xlink:href="#DejaVuSans-70"/>
      <use x="792.138672" xlink:href="#DejaVuSans-72"/>
      <use x="833.220703" xlink:href="#DejaVuSans-65"/>
      <use x="894.744141" xlink:href="#DejaVuSans-73"/>
      <use x="946.84375" xlink:href="#DejaVuSans-65"/>
      <use x="1008.367188" xlink:href="#DejaVuSans-6e"/>
      <use x="1071.746094" xlink:href="#DejaVuSans-74"/>
     </g>
    </g>
   </g>
   <g id="text_6">
    <g clip-path="url(#p866ada9f7d)">
     <!-- 11  as parts are present in a -->
     <g transform="translate(828.423237 360.760469)scale(0.1 -0.1)">
      <use xlink:href="#DejaVuSans-31"/>
      <use x="63.623047" xlink:href="#DejaVuSans-31"/>
      <use x="127.246094" xlink:href="#DejaVuSans-20"/>
      <use x="159.033203" xlink:href="#DejaVuSans-20"/>
      <use x="190.820312" xlink:href="#DejaVuSans-61"/>
      <use x="252.099609" xlink:href="#DejaVuSans-73"/>
      <use x="304.199219" xlink:href="#DejaVuSans-20"/>
      <use x="335.986328" xlink:href="#DejaVuSans-70"/>
      <use x="399.462891" xlink:href="#DejaVuSans-61"/>
      <use x="460.742188" xlink:href="#DejaVuSans-72"/>
      <use x="501.855469" xlink:href="#DejaVuSans-74"/>
      <use x="541.064453" xlink:href="#DejaVuSans-73"/>
      <use x="593.164062" xlink:href="#DejaVuSans-20"/>
      <use x="624.951172" xlink:href="#DejaVuSans-61"/>
      <use x="686.230469" xlink:href="#DejaVuSans-72"/>
      <use x="727.3125" xlink:href="#DejaVuSans-65"/>
      <use x="788.835938" xlink:href="#DejaVuSans-20"/>
      <use x="820.623047" xlink:href="#DejaVuSans-70"/>
      <use x="884.099609" xlink:href="#DejaVuSans-72"/>
      <use x="925.181641" xlink:href="#DejaVuSans-65"/>
      <use x="986.705078" xlink:href="#DejaVuSans-73"/>
      <use x="1038.804688" xlink:href="#DejaVuSans-65"/>
      <use x="1100.328125" xlink:href="#DejaVuSans-6e"/>
      <use x="1163.707031" xlink:href="#DejaVuSans-74"/>
      <use x="1202.916016" xlink:href="#DejaVuSans-20"/>
      <use x="1234.703125" xlink:href="#DejaVuSans-69"/>
      <use x="1262.486328" xlink:href="#DejaVuSans-6e"/>
      <use x="1325.865234" xlink:href="#DejaVuSans-20"/>
      <use x="1357.652344" xlink:href="#DejaVuSans-61"/>
     </g>
    </g>
    <g clip-path="url(#p866ada9f7d)">
     <!-- whole -->
     <g transform="translate(884.584956 371.958281)scale(0.1 -0.1)">
      <use xlink:href="#DejaVuSans-77"/>
      <use x="81.787109" xlink:href="#DejaVuSans-68"/>
      <use x="145.166016" xlink:href="#DejaVuSans-6f"/>
      <use x="206.347656" xlink:href="#DejaVuSans-6c"/>
      <use x="234.130859" xlink:href="#DejaVuSans-65"/>
     </g>
    </g>
   </g>
   <g id="text_7">
    <g clip-path="url(#p866ada9f7d)">
     <!-- 8  the said subject -->
     <defs>
      <path d="M 31.78125 34.625 
Q 24.75 34.625 20.71875 30.859375 
Q 16.703125 27.09375 16.703125 20.515625 
Q 16.703125 13.921875 20.71875 10.15625 
Q 24.75 6.390625 31.78125 6.390625 
Q 38.8125 6.390625 42.859375 10.171875 
Q 46.921875 13.96875 46.921875 20.515625 
Q 46.921875 27.09375 42.890625 30.859375 
Q 38.875 34.625 31.78125 34.625 
z
M 21.921875 38.8125 
Q 15.578125 40.375 12.03125 44.71875 
Q 8.5 49.078125 8.5 55.328125 
Q 8.5 64.0625 14.71875 69.140625 
Q 20.953125 74.21875 31.78125 74.21875 
Q 42.671875 74.21875 48.875 69.140625 
Q 55.078125 64.0625 55.078125 55.328125 
Q 55.078125 49.078125 51.53125 44.71875 
Q 48 40.375 41.703125 38.8125 
Q 48.828125 37.15625 52.796875 32.3125 
Q 56.78125 27.484375 56.78125 20.515625 
Q 56.78125 9.90625 50.3125 4.234375 
Q 43.84375 -1.421875 31.78125 -1.421875 
Q 19.734375 -1.421875 13.25 4.234375 
Q 6.78125 9.90625 6.78125 20.515625 
Q 6.78125 27.484375 10.78125 32.3125 
Q 14.796875 37.15625 21.921875 38.8125 
z
M 18.3125 54.390625 
Q 18.3125 48.734375 21.84375 45.5625 
Q 25.390625 42.390625 31.78125 42.390625 
Q 38.140625 42.390625 41.71875 45.5625 
Q 45.3125 48.734375 45.3125 54.390625 
Q 45.3125 60.0625 41.71875 63.234375 
Q 38.140625 66.40625 31.78125 66.40625 
Q 25.390625 66.40625 21.84375 63.234375 
Q 18.3125 60.0625 18.3125 54.390625 
z
" id="DejaVuSans-38"/>
     </defs>
     <g transform="translate(161.534575 595.450284)scale(0.1 -0.1)">
      <use xlink:href="#DejaVuSans-38"/>
      <use x="63.623047" xlink:href="#DejaVuSans-20"/>
      <use x="95.410156" xlink:href="#DejaVuSans-20"/>
      <use x="127.197266" xlink:href="#DejaVuSans-74"/>
      <use x="166.40625" xlink:href="#DejaVuSans-68"/>
      <use x="229.785156" xlink:href="#DejaVuSans-65"/>
      <use x="291.308594" xlink:href="#DejaVuSans-20"/>
      <use x="323.095703" xlink:href="#DejaVuSans-73"/>
      <use x="375.195312" xlink:href="#DejaVuSans-61"/>
      <use x="436.474609" xlink:href="#DejaVuSans-69"/>
      <use x="464.257812" xlink:href="#DejaVuSans-64"/>
      <use x="527.734375" xlink:href="#DejaVuSans-20"/>
      <use x="559.521484" xlink:href="#DejaVuSans-73"/>
      <use x="611.621094" xlink:href="#DejaVuSans-75"/>
      <use x="675" xlink:href="#DejaVuSans-62"/>
      <use x="738.476562" xlink:href="#DejaVuSans-6a"/>
      <use x="766.259766" xlink:href="#DejaVuSans-65"/>
      <use x="827.783203" xlink:href="#DejaVuSans-63"/>
      <use x="882.763672" xlink:href="#DejaVuSans-74"/>
     </g>
    </g>
   </g>
   <g id="text_8">
    <g clip-path="url(#p866ada9f7d)">
     <!-- 9  being Presentinasubject -->
     <defs>
      <path d="M 10.984375 1.515625 
L 10.984375 10.5 
Q 14.703125 8.734375 18.5 7.8125 
Q 22.3125 6.890625 25.984375 6.890625 
Q 35.75 6.890625 40.890625 13.453125 
Q 46.046875 20.015625 46.78125 33.40625 
Q 43.953125 29.203125 39.59375 26.953125 
Q 35.25 24.703125 29.984375 24.703125 
Q 19.046875 24.703125 12.671875 31.3125 
Q 6.296875 37.9375 6.296875 49.421875 
Q 6.296875 60.640625 12.9375 67.421875 
Q 19.578125 74.21875 30.609375 74.21875 
Q 43.265625 74.21875 49.921875 64.515625 
Q 56.59375 54.828125 56.59375 36.375 
Q 56.59375 19.140625 48.40625 8.859375 
Q 40.234375 -1.421875 26.421875 -1.421875 
Q 22.703125 -1.421875 18.890625 -0.6875 
Q 15.09375 0.046875 10.984375 1.515625 
z
M 30.609375 32.421875 
Q 37.25 32.421875 41.125 36.953125 
Q 45.015625 41.5 45.015625 49.421875 
Q 45.015625 57.28125 41.125 61.84375 
Q 37.25 66.40625 30.609375 66.40625 
Q 23.96875 66.40625 20.09375 61.84375 
Q 16.21875 57.28125 16.21875 49.421875 
Q 16.21875 41.5 20.09375 36.953125 
Q 23.96875 32.421875 30.609375 32.421875 
z
" id="DejaVuSans-39"/>
     </defs>
     <g transform="translate(428.541182 595.450284)scale(0.1 -0.1)">
      <use xlink:href="#DejaVuSans-39"/>
      <use x="63.623047" xlink:href="#DejaVuSans-20"/>
      <use x="95.410156" xlink:href="#DejaVuSans-20"/>
      <use x="127.197266" xlink:href="#DejaVuSans-62"/>
      <use x="190.673828" xlink:href="#DejaVuSans-65"/>
      <use x="252.197266" xlink:href="#DejaVuSans-69"/>
      <use x="279.980469" xlink:href="#DejaVuSans-6e"/>
      <use x="343.359375" xlink:href="#DejaVuSans-67"/>
      <use x="406.835938" xlink:href="#DejaVuSans-20"/>
      <use x="438.623047" xlink:href="#DejaVuSans-50"/>
      <use x="498.910156" xlink:href="#DejaVuSans-72"/>
      <use x="539.992188" xlink:href="#DejaVuSans-65"/>
      <use x="601.515625" xlink:href="#DejaVuSans-73"/>
      <use x="653.615234" xlink:href="#DejaVuSans-65"/>
      <use x="715.138672" xlink:href="#DejaVuSans-6e"/>
      <use x="778.517578" xlink:href="#DejaVuSans-74"/>
      <use x="817.726562" xlink:href="#DejaVuSans-69"/>
      <use x="845.509766" xlink:href="#DejaVuSans-6e"/>
      <use x="908.888672" xlink:href="#DejaVuSans-61"/>
      <use x="970.167969" xlink:href="#DejaVuSans-73"/>
      <use x="1022.267578" xlink:href="#DejaVuSans-75"/>
      <use x="1085.646484" xlink:href="#DejaVuSans-62"/>
      <use x="1149.123047" xlink:href="#DejaVuSans-6a"/>
      <use x="1176.90625" xlink:href="#DejaVuSans-65"/>
      <use x="1238.429688" xlink:href="#DejaVuSans-63"/>
      <use x="1293.410156" xlink:href="#DejaVuSans-74"/>
     </g>
    </g>
   </g>
   <g id="text_9">
    <!-- By being Presentinasubject I do not mean present as parts are present in a whole , but -->
    <g transform="translate(292.11375 12.6505)scale(0.12 -0.12)">
     <use xlink:href="#DejaVuSans-42"/>
     <use x="68.603516" xlink:href="#DejaVuSans-79"/>
     <use x="127.783203" xlink:href="#DejaVuSans-20"/>
     <use x="159.570312" xlink:href="#DejaVuSans-62"/>
     <use x="223.046875" xlink:href="#DejaVuSans-65"/>
     <use x="284.570312" xlink:href="#DejaVuSans-69"/>
     <use x="312.353516" xlink:href="#DejaVuSans-6e"/>
     <use x="375.732422" xlink:href="#DejaVuSans-67"/>
     <use x="439.208984" xlink:href="#DejaVuSans-20"/>
     <use x="470.996094" xlink:href="#DejaVuSans-50"/>
     <use x="531.283203" xlink:href="#DejaVuSans-72"/>
     <use x="572.365234" xlink:href="#DejaVuSans-65"/>
     <use x="633.888672" xlink:href="#DejaVuSans-73"/>
     <use x="685.988281" xlink:href="#DejaVuSans-65"/>
     <use x="747.511719" xlink:href="#DejaVuSans-6e"/>
     <use x="810.890625" xlink:href="#DejaVuSans-74"/>
     <use x="850.099609" xlink:href="#DejaVuSans-69"/>
     <use x="877.882812" xlink:href="#DejaVuSans-6e"/>
     <use x="941.261719" xlink:href="#DejaVuSans-61"/>
     <use x="1002.541016" xlink:href="#DejaVuSans-73"/>
     <use x="1054.640625" xlink:href="#DejaVuSans-75"/>
     <use x="1118.019531" xlink:href="#DejaVuSans-62"/>
     <use x="1181.496094" xlink:href="#DejaVuSans-6a"/>
     <use x="1209.279297" xlink:href="#DejaVuSans-65"/>
     <use x="1270.802734" xlink:href="#DejaVuSans-63"/>
     <use x="1325.783203" xlink:href="#DejaVuSans-74"/>
     <use x="1364.992188" xlink:href="#DejaVuSans-20"/>
     <use x="1396.779297" xlink:href="#DejaVuSans-49"/>
     <use x="1426.271484" xlink:href="#DejaVuSans-20"/>
     <use x="1458.058594" xlink:href="#DejaVuSans-64"/>
     <use x="1521.535156" xlink:href="#DejaVuSans-6f"/>
     <use x="1582.716797" xlink:href="#DejaVuSans-20"/>
     <use x="1614.503906" xlink:href="#DejaVuSans-6e"/>
     <use x="1677.882812" xlink:href="#DejaVuSans-6f"/>
     <use x="1739.064453" xlink:href="#DejaVuSans-74"/>
     <use x="1778.273438" xlink:href="#DejaVuSans-20"/>
     <use x="1810.060547" xlink:href="#DejaVuSans-6d"/>
     <use x="1907.472656" xlink:href="#DejaVuSans-65"/>
     <use x="1968.996094" xlink:href="#DejaVuSans-61"/>
     <use x="2030.275391" xlink:href="#DejaVuSans-6e"/>
     <use x="2093.654297" xlink:href="#DejaVuSans-20"/>
     <use x="2125.441406" xlink:href="#DejaVuSans-70"/>
     <use x="2188.917969" xlink:href="#DejaVuSans-72"/>
     <use x="2230" xlink:href="#DejaVuSans-65"/>
     <use x="2291.523438" xlink:href="#DejaVuSans-73"/>
     <use x="2343.623047" xlink:href="#DejaVuSans-65"/>
     <use x="2405.146484" xlink:href="#DejaVuSans-6e"/>
     <use x="2468.525391" xlink:href="#DejaVuSans-74"/>
     <use x="2507.734375" xlink:href="#DejaVuSans-20"/>
     <use x="2539.521484" xlink:href="#DejaVuSans-61"/>
     <use x="2600.800781" xlink:href="#DejaVuSans-73"/>
     <use x="2652.900391" xlink:href="#DejaVuSans-20"/>
     <use x="2684.6875" xlink:href="#DejaVuSans-70"/>
     <use x="2748.164062" xlink:href="#DejaVuSans-61"/>
     <use x="2809.443359" xlink:href="#DejaVuSans-72"/>
     <use x="2850.556641" xlink:href="#DejaVuSans-74"/>
     <use x="2889.765625" xlink:href="#DejaVuSans-73"/>
     <use x="2941.865234" xlink:href="#DejaVuSans-20"/>
     <use x="2973.652344" xlink:href="#DejaVuSans-61"/>
     <use x="3034.931641" xlink:href="#DejaVuSans-72"/>
     <use x="3076.013672" xlink:href="#DejaVuSans-65"/>
     <use x="3137.537109" xlink:href="#DejaVuSans-20"/>
     <use x="3169.324219" xlink:href="#DejaVuSans-70"/>
     <use x="3232.800781" xlink:href="#DejaVuSans-72"/>
     <use x="3273.882812" xlink:href="#DejaVuSans-65"/>
     <use x="3335.40625" xlink:href="#DejaVuSans-73"/>
     <use x="3387.505859" xlink:href="#DejaVuSans-65"/>
     <use x="3449.029297" xlink:href="#DejaVuSans-6e"/>
     <use x="3512.408203" xlink:href="#DejaVuSans-74"/>
     <use x="3551.617188" xlink:href="#DejaVuSans-20"/>
     <use x="3583.404297" xlink:href="#DejaVuSans-69"/>
     <use x="3611.1875" xlink:href="#DejaVuSans-6e"/>
     <use x="3674.566406" xlink:href="#DejaVuSans-20"/>
     <use x="3706.353516" xlink:href="#DejaVuSans-61"/>
     <use x="3767.632812" xlink:href="#DejaVuSans-20"/>
     <use x="3799.419922" xlink:href="#DejaVuSans-77"/>
     <use x="3881.207031" xlink:href="#DejaVuSans-68"/>
     <use x="3944.585938" xlink:href="#DejaVuSans-6f"/>
     <use x="4005.767578" xlink:href="#DejaVuSans-6c"/>
     <use x="4033.550781" xlink:href="#DejaVuSans-65"/>
     <use x="4095.074219" xlink:href="#DejaVuSans-20"/>
     <use x="4126.861328" xlink:href="#DejaVuSans-2c"/>
     <use x="4158.648438" xlink:href="#DejaVuSans-20"/>
     <use x="4190.435547" xlink:href="#DejaVuSans-62"/>
     <use x="4253.912109" xlink:href="#DejaVuSans-75"/>
     <use x="4317.291016" xlink:href="#DejaVuSans-74"/>
    </g>
    <!-- being incapable of existence apart from the said subject . -->
    <g transform="translate(379.950938 26.087875)scale(0.12 -0.12)">
     <use xlink:href="#DejaVuSans-62"/>
     <use x="63.476562" xlink:href="#DejaVuSans-65"/>
     <use x="125" xlink:href="#DejaVuSans-69"/>
     <use x="152.783203" xlink:href="#DejaVuSans-6e"/>
     <use x="216.162109" xlink:href="#DejaVuSans-67"/>
     <use x="279.638672" xlink:href="#DejaVuSans-20"/>
     <use x="311.425781" xlink:href="#DejaVuSans-69"/>
     <use x="339.208984" xlink:href="#DejaVuSans-6e"/>
     <use x="402.587891" xlink:href="#DejaVuSans-63"/>
     <use x="457.568359" xlink:href="#DejaVuSans-61"/>
     <use x="518.847656" xlink:href="#DejaVuSans-70"/>
     <use x="582.324219" xlink:href="#DejaVuSans-61"/>
     <use x="643.603516" xlink:href="#DejaVuSans-62"/>
     <use x="707.080078" xlink:href="#DejaVuSans-6c"/>
     <use x="734.863281" xlink:href="#DejaVuSans-65"/>
     <use x="796.386719" xlink:href="#DejaVuSans-20"/>
     <use x="828.173828" xlink:href="#DejaVuSans-6f"/>
     <use x="889.355469" xlink:href="#DejaVuSans-66"/>
     <use x="924.560547" xlink:href="#DejaVuSans-20"/>
     <use x="956.347656" xlink:href="#DejaVuSans-65"/>
     <use x="1017.855469" xlink:href="#DejaVuSans-78"/>
     <use x="1077.035156" xlink:href="#DejaVuSans-69"/>
     <use x="1104.818359" xlink:href="#DejaVuSans-73"/>
     <use x="1156.917969" xlink:href="#DejaVuSans-74"/>
     <use x="1196.126953" xlink:href="#DejaVuSans-65"/>
     <use x="1257.650391" xlink:href="#DejaVuSans-6e"/>
     <use x="1321.029297" xlink:href="#DejaVuSans-63"/>
     <use x="1376.009766" xlink:href="#DejaVuSans-65"/>
     <use x="1437.533203" xlink:href="#DejaVuSans-20"/>
     <use x="1469.320312" xlink:href="#DejaVuSans-61"/>
     <use x="1530.599609" xlink:href="#DejaVuSans-70"/>
     <use x="1594.076172" xlink:href="#DejaVuSans-61"/>
     <use x="1655.355469" xlink:href="#DejaVuSans-72"/>
     <use x="1696.46875" xlink:href="#DejaVuSans-74"/>
     <use x="1735.677734" xlink:href="#DejaVuSans-20"/>
     <use x="1767.464844" xlink:href="#DejaVuSans-66"/>
     <use x="1802.669922" xlink:href="#DejaVuSans-72"/>
     <use x="1843.751953" xlink:href="#DejaVuSans-6f"/>
     <use x="1904.933594" xlink:href="#DejaVuSans-6d"/>
     <use x="2002.345703" xlink:href="#DejaVuSans-20"/>
     <use x="2034.132812" xlink:href="#DejaVuSans-74"/>
     <use x="2073.341797" xlink:href="#DejaVuSans-68"/>
     <use x="2136.720703" xlink:href="#DejaVuSans-65"/>
     <use x="2198.244141" xlink:href="#DejaVuSans-20"/>
     <use x="2230.03125" xlink:href="#DejaVuSans-73"/>
     <use x="2282.130859" xlink:href="#DejaVuSans-61"/>
     <use x="2343.410156" xlink:href="#DejaVuSans-69"/>
     <use x="2371.193359" xlink:href="#DejaVuSans-64"/>
     <use x="2434.669922" xlink:href="#DejaVuSans-20"/>
     <use x="2466.457031" xlink:href="#DejaVuSans-73"/>
     <use x="2518.556641" xlink:href="#DejaVuSans-75"/>
     <use x="2581.935547" xlink:href="#DejaVuSans-62"/>
     <use x="2645.412109" xlink:href="#DejaVuSans-6a"/>
     <use x="2673.195312" xlink:href="#DejaVuSans-65"/>
     <use x="2734.71875" xlink:href="#DejaVuSans-63"/>
     <use x="2789.699219" xlink:href="#DejaVuSans-74"/>
     <use x="2828.908203" xlink:href="#DejaVuSans-20"/>
     <use x="2860.695312" xlink:href="#DejaVuSans-2e"/>
    </g>
    <!-- 9  8  11  10  12  13 -->
    <defs>
     <path d="M 12.890625 0 
L 30.515625 57.90625 
L 42.71875 57.90625 
L 60.296875 0 
L 50.78125 0 
L 36.625 45.90625 
L 22.40625 0 
z
" id="DejaVuSans-2227"/>
     <path d="M 10.59375 42.09375 
L 73.1875 42.09375 
L 73.1875 14.015625 
L 64.984375 14.015625 
L 64.984375 33.796875 
L 10.59375 33.796875 
z
" id="DejaVuSans-ac"/>
    </defs>
    <g transform="translate(464.244375 39.52525)scale(0.12 -0.12)">
     <use xlink:href="#DejaVuSans-39"/>
     <use x="63.623047" xlink:href="#DejaVuSans-20"/>
     <use x="95.410156" xlink:href="#DejaVuSans-2227"/>
     <use x="168.603516" xlink:href="#DejaVuSans-20"/>
     <use x="200.390625" xlink:href="#DejaVuSans-38"/>
     <use x="264.013672" xlink:href="#DejaVuSans-20"/>
     <use x="295.800781" xlink:href="#DejaVuSans-2227"/>
     <use x="368.994141" xlink:href="#DejaVuSans-20"/>
     <use x="400.78125" xlink:href="#DejaVuSans-31"/>
     <use x="464.404297" xlink:href="#DejaVuSans-31"/>
     <use x="528.027344" xlink:href="#DejaVuSans-20"/>
     <use x="559.814453" xlink:href="#DejaVuSans-2227"/>
     <use x="633.007812" xlink:href="#DejaVuSans-20"/>
     <use x="664.794922" xlink:href="#DejaVuSans-ac"/>
     <use x="748.583984" xlink:href="#DejaVuSans-31"/>
     <use x="812.207031" xlink:href="#DejaVuSans-30"/>
     <use x="875.830078" xlink:href="#DejaVuSans-20"/>
     <use x="907.617188" xlink:href="#DejaVuSans-2227"/>
     <use x="980.810547" xlink:href="#DejaVuSans-20"/>
     <use x="1012.597656" xlink:href="#DejaVuSans-ac"/>
     <use x="1096.386719" xlink:href="#DejaVuSans-31"/>
     <use x="1160.009766" xlink:href="#DejaVuSans-32"/>
     <use x="1223.632812" xlink:href="#DejaVuSans-20"/>
     <use x="1255.419922" xlink:href="#DejaVuSans-2227"/>
     <use x="1328.613281" xlink:href="#DejaVuSans-20"/>
     <use x="1360.400391" xlink:href="#DejaVuSans-31"/>
     <use x="1424.023438" xlink:href="#DejaVuSans-33"/>
    </g>
    <!--  pyprover.logic.Prop('9')&amp; pyprover.logic.Prop('8')&amp; pyprover.logic.Prop('11')&amp;~ -->
    <defs>
     <path d="M 2.984375 54.6875 
L 12.5 54.6875 
L 29.59375 8.796875 
L 46.6875 54.6875 
L 56.203125 54.6875 
L 35.6875 0 
L 23.484375 0 
z
" id="DejaVuSans-76"/>
     <path d="M 17.921875 72.90625 
L 17.921875 45.796875 
L 9.625 45.796875 
L 9.625 72.90625 
z
" id="DejaVuSans-27"/>
     <path d="M 24.3125 39.203125 
Q 19.875 35.25 17.796875 31.3125 
Q 15.71875 27.390625 15.71875 23.09375 
Q 15.71875 15.96875 20.890625 11.234375 
Q 26.078125 6.5 33.890625 6.5 
Q 38.53125 6.5 42.578125 8.03125 
Q 46.625 9.578125 50.203125 12.703125 
z
M 31.203125 44.671875 
L 56 19.28125 
Q 58.890625 23.640625 60.5 28.59375 
Q 62.109375 33.546875 62.40625 39.109375 
L 71.484375 39.109375 
Q 70.90625 32.671875 68.359375 26.359375 
Q 65.828125 20.0625 61.28125 13.921875 
L 74.90625 0 
L 62.59375 0 
L 55.609375 7.171875 
Q 50.53125 2.828125 44.96875 0.703125 
Q 39.40625 -1.421875 33.015625 -1.421875 
Q 21.234375 -1.421875 13.765625 5.296875 
Q 6.296875 12.015625 6.296875 22.515625 
Q 6.296875 28.765625 9.5625 34.25 
Q 12.84375 39.75 19.390625 44.578125 
Q 17.046875 47.65625 15.8125 50.703125 
Q 14.59375 53.765625 14.59375 56.6875 
Q 14.59375 64.59375 20.015625 69.40625 
Q 25.4375 74.21875 34.421875 74.21875 
Q 38.484375 74.21875 42.5 73.34375 
Q 46.53125 72.46875 50.6875 70.703125 
L 50.6875 61.8125 
Q 46.4375 64.109375 42.578125 65.296875 
Q 38.71875 66.5 35.40625 66.5 
Q 30.28125 66.5 27.078125 63.78125 
Q 23.875 61.078125 23.875 56.78125 
Q 23.875 54.296875 25.3125 51.78125 
Q 26.765625 49.265625 31.203125 44.671875 
z
" id="DejaVuSans-26"/>
     <path d="M 73.1875 39.890625 
L 73.1875 31.203125 
Q 68.0625 27.34375 63.6875 25.6875 
Q 59.328125 24.03125 54.59375 24.03125 
Q 49.21875 24.03125 42.09375 26.90625 
Q 41.546875 27.09375 41.3125 27.203125 
Q 40.96875 27.34375 40.234375 27.59375 
Q 32.671875 30.609375 28.078125 30.609375 
Q 23.78125 30.609375 19.578125 28.734375 
Q 15.375 26.859375 10.59375 22.796875 
L 10.59375 31.5 
Q 15.71875 35.359375 20.09375 37.03125 
Q 24.46875 38.71875 29.203125 38.71875 
Q 34.578125 38.71875 41.75 35.796875 
Q 42.234375 35.59375 42.484375 35.5 
Q 42.875 35.359375 43.5625 35.109375 
Q 51.125 32.078125 55.71875 32.078125 
Q 59.90625 32.078125 64.03125 33.9375 
Q 68.171875 35.796875 73.1875 39.890625 
z
" id="DejaVuSans-7e"/>
    </defs>
    <g transform="translate(314.018438 52.962625)scale(0.12 -0.12)">
     <use xlink:href="#DejaVuSans-20"/>
     <use x="31.787109" xlink:href="#DejaVuSans-70"/>
     <use x="95.263672" xlink:href="#DejaVuSans-79"/>
     <use x="154.443359" xlink:href="#DejaVuSans-70"/>
     <use x="217.919922" xlink:href="#DejaVuSans-72"/>
     <use x="259.001953" xlink:href="#DejaVuSans-6f"/>
     <use x="320.183594" xlink:href="#DejaVuSans-76"/>
     <use x="379.363281" xlink:href="#DejaVuSans-65"/>
     <use x="440.886719" xlink:href="#DejaVuSans-72"/>
     <use x="481.859375" xlink:href="#DejaVuSans-2e"/>
     <use x="513.646484" xlink:href="#DejaVuSans-6c"/>
     <use x="541.429688" xlink:href="#DejaVuSans-6f"/>
     <use x="602.611328" xlink:href="#DejaVuSans-67"/>
     <use x="666.087891" xlink:href="#DejaVuSans-69"/>
     <use x="693.871094" xlink:href="#DejaVuSans-63"/>
     <use x="748.851562" xlink:href="#DejaVuSans-2e"/>
     <use x="780.638672" xlink:href="#DejaVuSans-50"/>
     <use x="840.925781" xlink:href="#DejaVuSans-72"/>
     <use x="882.007812" xlink:href="#DejaVuSans-6f"/>
     <use x="943.189453" xlink:href="#DejaVuSans-70"/>
     <use x="1006.666016" xlink:href="#DejaVuSans-28"/>
     <use x="1045.679688" xlink:href="#DejaVuSans-27"/>
     <use x="1073.169922" xlink:href="#DejaVuSans-39"/>
     <use x="1136.792969" xlink:href="#DejaVuSans-27"/>
     <use x="1164.283203" xlink:href="#DejaVuSans-29"/>
     <use x="1203.296875" xlink:href="#DejaVuSans-26"/>
     <use x="1281.275391" xlink:href="#DejaVuSans-20"/>
     <use x="1313.0625" xlink:href="#DejaVuSans-70"/>
     <use x="1376.539062" xlink:href="#DejaVuSans-79"/>
     <use x="1435.71875" xlink:href="#DejaVuSans-70"/>
     <use x="1499.195312" xlink:href="#DejaVuSans-72"/>
     <use x="1540.277344" xlink:href="#DejaVuSans-6f"/>
     <use x="1601.458984" xlink:href="#DejaVuSans-76"/>
     <use x="1660.638672" xlink:href="#DejaVuSans-65"/>
     <use x="1722.162109" xlink:href="#DejaVuSans-72"/>
     <use x="1763.134766" xlink:href="#DejaVuSans-2e"/>
     <use x="1794.921875" xlink:href="#DejaVuSans-6c"/>
     <use x="1822.705078" xlink:href="#DejaVuSans-6f"/>
     <use x="1883.886719" xlink:href="#DejaVuSans-67"/>
     <use x="1947.363281" xlink:href="#DejaVuSans-69"/>
     <use x="1975.146484" xlink:href="#DejaVuSans-63"/>
     <use x="2030.126953" xlink:href="#DejaVuSans-2e"/>
     <use x="2061.914062" xlink:href="#DejaVuSans-50"/>
     <use x="2122.201172" xlink:href="#DejaVuSans-72"/>
     <use x="2163.283203" xlink:href="#DejaVuSans-6f"/>
     <use x="2224.464844" xlink:href="#DejaVuSans-70"/>
     <use x="2287.941406" xlink:href="#DejaVuSans-28"/>
     <use x="2326.955078" xlink:href="#DejaVuSans-27"/>
     <use x="2354.445312" xlink:href="#DejaVuSans-38"/>
     <use x="2418.068359" xlink:href="#DejaVuSans-27"/>
     <use x="2445.558594" xlink:href="#DejaVuSans-29"/>
     <use x="2484.572266" xlink:href="#DejaVuSans-26"/>
     <use x="2562.550781" xlink:href="#DejaVuSans-20"/>
     <use x="2594.337891" xlink:href="#DejaVuSans-70"/>
     <use x="2657.814453" xlink:href="#DejaVuSans-79"/>
     <use x="2716.994141" xlink:href="#DejaVuSans-70"/>
     <use x="2780.470703" xlink:href="#DejaVuSans-72"/>
     <use x="2821.552734" xlink:href="#DejaVuSans-6f"/>
     <use x="2882.734375" xlink:href="#DejaVuSans-76"/>
     <use x="2941.914062" xlink:href="#DejaVuSans-65"/>
     <use x="3003.4375" xlink:href="#DejaVuSans-72"/>
     <use x="3044.410156" xlink:href="#DejaVuSans-2e"/>
     <use x="3076.197266" xlink:href="#DejaVuSans-6c"/>
     <use x="3103.980469" xlink:href="#DejaVuSans-6f"/>
     <use x="3165.162109" xlink:href="#DejaVuSans-67"/>
     <use x="3228.638672" xlink:href="#DejaVuSans-69"/>
     <use x="3256.421875" xlink:href="#DejaVuSans-63"/>
     <use x="3311.402344" xlink:href="#DejaVuSans-2e"/>
     <use x="3343.189453" xlink:href="#DejaVuSans-50"/>
     <use x="3403.476562" xlink:href="#DejaVuSans-72"/>
     <use x="3444.558594" xlink:href="#DejaVuSans-6f"/>
     <use x="3505.740234" xlink:href="#DejaVuSans-70"/>
     <use x="3569.216797" xlink:href="#DejaVuSans-28"/>
     <use x="3608.230469" xlink:href="#DejaVuSans-27"/>
     <use x="3635.720703" xlink:href="#DejaVuSans-31"/>
     <use x="3699.34375" xlink:href="#DejaVuSans-31"/>
     <use x="3762.966797" xlink:href="#DejaVuSans-27"/>
     <use x="3790.457031" xlink:href="#DejaVuSans-29"/>
     <use x="3829.470703" xlink:href="#DejaVuSans-26"/>
     <use x="3907.449219" xlink:href="#DejaVuSans-7e"/>
    </g>
    <!-- pyprover.logic.Prop('10')&amp;~ pyprover.logic.Prop('12')&amp; pyprover.logic.Prop('13') -->
    <g transform="translate(312.969375 66.4)scale(0.12 -0.12)">
     <use xlink:href="#DejaVuSans-70"/>
     <use x="63.476562" xlink:href="#DejaVuSans-79"/>
     <use x="122.65625" xlink:href="#DejaVuSans-70"/>
     <use x="186.132812" xlink:href="#DejaVuSans-72"/>
     <use x="227.214844" xlink:href="#DejaVuSans-6f"/>
     <use x="288.396484" xlink:href="#DejaVuSans-76"/>
     <use x="347.576172" xlink:href="#DejaVuSans-65"/>
     <use x="409.099609" xlink:href="#DejaVuSans-72"/>
     <use x="450.072266" xlink:href="#DejaVuSans-2e"/>
     <use x="481.859375" xlink:href="#DejaVuSans-6c"/>
     <use x="509.642578" xlink:href="#DejaVuSans-6f"/>
     <use x="570.824219" xlink:href="#DejaVuSans-67"/>
     <use x="634.300781" xlink:href="#DejaVuSans-69"/>
     <use x="662.083984" xlink:href="#DejaVuSans-63"/>
     <use x="717.064453" xlink:href="#DejaVuSans-2e"/>
     <use x="748.851562" xlink:href="#DejaVuSans-50"/>
     <use x="809.138672" xlink:href="#DejaVuSans-72"/>
     <use x="850.220703" xlink:href="#DejaVuSans-6f"/>
     <use x="911.402344" xlink:href="#DejaVuSans-70"/>
     <use x="974.878906" xlink:href="#DejaVuSans-28"/>
     <use x="1013.892578" xlink:href="#DejaVuSans-27"/>
     <use x="1041.382812" xlink:href="#DejaVuSans-31"/>
     <use x="1105.005859" xlink:href="#DejaVuSans-30"/>
     <use x="1168.628906" xlink:href="#DejaVuSans-27"/>
     <use x="1196.119141" xlink:href="#DejaVuSans-29"/>
     <use x="1235.132812" xlink:href="#DejaVuSans-26"/>
     <use x="1313.111328" xlink:href="#DejaVuSans-7e"/>
     <use x="1396.900391" xlink:href="#DejaVuSans-20"/>
     <use x="1428.6875" xlink:href="#DejaVuSans-70"/>
     <use x="1492.164062" xlink:href="#DejaVuSans-79"/>
     <use x="1551.34375" xlink:href="#DejaVuSans-70"/>
     <use x="1614.820312" xlink:href="#DejaVuSans-72"/>
     <use x="1655.902344" xlink:href="#DejaVuSans-6f"/>
     <use x="1717.083984" xlink:href="#DejaVuSans-76"/>
     <use x="1776.263672" xlink:href="#DejaVuSans-65"/>
     <use x="1837.787109" xlink:href="#DejaVuSans-72"/>
     <use x="1878.759766" xlink:href="#DejaVuSans-2e"/>
     <use x="1910.546875" xlink:href="#DejaVuSans-6c"/>
     <use x="1938.330078" xlink:href="#DejaVuSans-6f"/>
     <use x="1999.511719" xlink:href="#DejaVuSans-67"/>
     <use x="2062.988281" xlink:href="#DejaVuSans-69"/>
     <use x="2090.771484" xlink:href="#DejaVuSans-63"/>
     <use x="2145.751953" xlink:href="#DejaVuSans-2e"/>
     <use x="2177.539062" xlink:href="#DejaVuSans-50"/>
     <use x="2237.826172" xlink:href="#DejaVuSans-72"/>
     <use x="2278.908203" xlink:href="#DejaVuSans-6f"/>
     <use x="2340.089844" xlink:href="#DejaVuSans-70"/>
     <use x="2403.566406" xlink:href="#DejaVuSans-28"/>
     <use x="2442.580078" xlink:href="#DejaVuSans-27"/>
     <use x="2470.070312" xlink:href="#DejaVuSans-31"/>
     <use x="2533.693359" xlink:href="#DejaVuSans-32"/>
     <use x="2597.316406" xlink:href="#DejaVuSans-27"/>
     <use x="2624.806641" xlink:href="#DejaVuSans-29"/>
     <use x="2663.820312" xlink:href="#DejaVuSans-26"/>
     <use x="2741.798828" xlink:href="#DejaVuSans-20"/>
     <use x="2773.585938" xlink:href="#DejaVuSans-70"/>
     <use x="2837.0625" xlink:href="#DejaVuSans-79"/>
     <use x="2896.242188" xlink:href="#DejaVuSans-70"/>
     <use x="2959.71875" xlink:href="#DejaVuSans-72"/>
     <use x="3000.800781" xlink:href="#DejaVuSans-6f"/>
     <use x="3061.982422" xlink:href="#DejaVuSans-76"/>
     <use x="3121.162109" xlink:href="#DejaVuSans-65"/>
     <use x="3182.685547" xlink:href="#DejaVuSans-72"/>
     <use x="3223.658203" xlink:href="#DejaVuSans-2e"/>
     <use x="3255.445312" xlink:href="#DejaVuSans-6c"/>
     <use x="3283.228516" xlink:href="#DejaVuSans-6f"/>
     <use x="3344.410156" xlink:href="#DejaVuSans-67"/>
     <use x="3407.886719" xlink:href="#DejaVuSans-69"/>
     <use x="3435.669922" xlink:href="#DejaVuSans-63"/>
     <use x="3490.650391" xlink:href="#DejaVuSans-2e"/>
     <use x="3522.4375" xlink:href="#DejaVuSans-50"/>
     <use x="3582.724609" xlink:href="#DejaVuSans-72"/>
     <use x="3623.806641" xlink:href="#DejaVuSans-6f"/>
     <use x="3684.988281" xlink:href="#DejaVuSans-70"/>
     <use x="3748.464844" xlink:href="#DejaVuSans-28"/>
     <use x="3787.478516" xlink:href="#DejaVuSans-27"/>
     <use x="3814.96875" xlink:href="#DejaVuSans-31"/>
     <use x="3878.591797" xlink:href="#DejaVuSans-33"/>
     <use x="3942.214844" xlink:href="#DejaVuSans-27"/>
     <use x="3969.705078" xlink:href="#DejaVuSans-29"/>
    </g>
   </g>
  </g>
 </g>
 <defs>
  <clipPath id="p866ada9f7d">
   <rect height="554.4" width="837" x="135" y="86.4"/>
  </clipPath>
 </defs>
</svg>
