<?xml version="1.0" encoding="utf-8" standalone="no"?>
<!DOCTYPE svg PUBLIC "-//W3C//DTD SVG 1.1//EN"
  "http://www.w3.org/Graphics/SVG/1.1/DTD/svg11.dtd">
<!-- Created with matplotlib (http://matplotlib.org/) -->
<svg height="720pt" version="1.1" viewBox="0 0 1080 720" width="1080pt" xmlns="http://www.w3.org/2000/svg" xmlns:xlink="http://www.w3.org/1999/xlink">
 <defs>
  <style type="text/css">
*{stroke-linecap:butt;stroke-linejoin:round;}
  </style>
 </defs>
 <g id="figure_1">
  <g id="patch_1">
   <path d="M 0 720 
L 1080 720 
L 1080 0 
L 0 0 
z
" style="fill:#ffffff;"/>
  </g>
  <g id="axes_1">
   <g id="patch_2">
    <path clip-path="url(#p2f4346a3ed)" d="M 553.493932 134.509091 
Q 382.646348 247.674638 214.595068 358.987976 
" style="fill:none;stroke:#000000;stroke-linecap:round;stroke-width:3;"/>
    <path clip-path="url(#p2f4346a3ed)" d="M 219.922147 358.338183 
L 214.595068 358.987976 
L 217.271482 354.336437 
L 219.922147 358.338183 
z
" style="stroke:#000000;stroke-linecap:round;stroke-width:3;"/>
   </g>
   <g id="patch_3">
    <path clip-path="url(#p2f4346a3ed)" d="M 553.493932 134.509091 
Q 724.347512 247.674638 892.404756 358.988021 
" style="fill:none;stroke:#000000;stroke-linecap:round;stroke-width:3;"/>
    <path clip-path="url(#p2f4346a3ed)" d="M 889.728267 354.336525 
L 892.404756 358.988021 
L 887.077666 358.338314 
L 889.728267 354.336525 
z
" style="stroke:#000000;stroke-linecap:round;stroke-width:3;"/>
   </g>
   <g id="patch_4">
    <path clip-path="url(#p2f4346a3ed)" d="M 207.632231 363.6 
Q 207.632231 475.644317 207.632231 584.334532 
" style="fill:none;stroke:#000000;stroke-linecap:round;stroke-width:3;"/>
    <path clip-path="url(#p2f4346a3ed)" d="M 210.032231 579.534532 
L 207.632231 584.334532 
L 205.232231 579.534532 
L 210.032231 579.534532 
z
" style="stroke:#000000;stroke-linecap:round;stroke-width:3;"/>
   </g>
   <g id="PathCollection_1">
    <defs>
     <path d="M 0 5 
C 1.326016 5 2.597899 4.473168 3.535534 3.535534 
C 4.473168 2.597899 5 1.326016 5 0 
C 5 -1.326016 4.473168 -2.597899 3.535534 -3.535534 
C 2.597899 -4.473168 1.326016 -5 0 -5 
C -1.326016 -5 -2.597899 -4.473168 -3.535534 -3.535534 
C -4.473168 -2.597899 -5 -1.326016 -5 0 
C -5 1.326016 -4.473168 2.597899 -3.535534 3.535534 
C -2.597899 4.473168 -1.326016 5 0 5 
z
" id="ma7f1d54fa0" style="stroke:#0000ff;"/>
    </defs>
    <g clip-path="url(#p2f4346a3ed)">
     <use style="fill:#0000ff;stroke:#0000ff;" x="553.493932" xlink:href="#ma7f1d54fa0" y="134.509091"/>
     <use style="fill:#0000ff;stroke:#0000ff;" x="207.632231" xlink:href="#ma7f1d54fa0" y="363.6"/>
     <use style="fill:#0000ff;stroke:#0000ff;" x="899.367769" xlink:href="#ma7f1d54fa0" y="363.6"/>
     <use style="fill:#0000ff;stroke:#0000ff;" x="207.632231" xlink:href="#ma7f1d54fa0" y="592.690909"/>
    </g>
   </g>
   <g id="text_1">
    <g clip-path="url(#p2f4346a3ed)">
     <!-- 147  To sketch my meaning -->
     <defs>
      <path d="M 12.40625 8.296875 
L 28.515625 8.296875 
L 28.515625 63.921875 
L 10.984375 60.40625 
L 10.984375 69.390625 
L 28.421875 72.90625 
L 38.28125 72.90625 
L 38.28125 8.296875 
L 54.390625 8.296875 
L 54.390625 0 
L 12.40625 0 
z
" id="DejaVuSans-31"/>
      <path d="M 37.796875 64.3125 
L 12.890625 25.390625 
L 37.796875 25.390625 
z
M 35.203125 72.90625 
L 47.609375 72.90625 
L 47.609375 25.390625 
L 58.015625 25.390625 
L 58.015625 17.1875 
L 47.609375 17.1875 
L 47.609375 0 
L 37.796875 0 
L 37.796875 17.1875 
L 4.890625 17.1875 
L 4.890625 26.703125 
z
" id="DejaVuSans-34"/>
      <path d="M 8.203125 72.90625 
L 55.078125 72.90625 
L 55.078125 68.703125 
L 28.609375 0 
L 18.3125 0 
L 43.21875 64.59375 
L 8.203125 64.59375 
z
" id="DejaVuSans-37"/>
      <path id="DejaVuSans-20"/>
      <path d="M -0.296875 72.90625 
L 61.375 72.90625 
L 61.375 64.59375 
L 35.5 64.59375 
L 35.5 0 
L 25.59375 0 
L 25.59375 64.59375 
L -0.296875 64.59375 
z
" id="DejaVuSans-54"/>
      <path d="M 30.609375 48.390625 
Q 23.390625 48.390625 19.1875 42.75 
Q 14.984375 37.109375 14.984375 27.296875 
Q 14.984375 17.484375 19.15625 11.84375 
Q 23.34375 6.203125 30.609375 6.203125 
Q 37.796875 6.203125 41.984375 11.859375 
Q 46.1875 17.53125 46.1875 27.296875 
Q 46.1875 37.015625 41.984375 42.703125 
Q 37.796875 48.390625 30.609375 48.390625 
z
M 30.609375 56 
Q 42.328125 56 49.015625 48.375 
Q 55.71875 40.765625 55.71875 27.296875 
Q 55.71875 13.875 49.015625 6.21875 
Q 42.328125 -1.421875 30.609375 -1.421875 
Q 18.84375 -1.421875 12.171875 6.21875 
Q 5.515625 13.875 5.515625 27.296875 
Q 5.515625 40.765625 12.171875 48.375 
Q 18.84375 56 30.609375 56 
z
" id="DejaVuSans-6f"/>
      <path d="M 44.28125 53.078125 
L 44.28125 44.578125 
Q 40.484375 46.53125 36.375 47.5 
Q 32.28125 48.484375 27.875 48.484375 
Q 21.1875 48.484375 17.84375 46.4375 
Q 14.5 44.390625 14.5 40.28125 
Q 14.5 37.15625 16.890625 35.375 
Q 19.28125 33.59375 26.515625 31.984375 
L 29.59375 31.296875 
Q 39.15625 29.25 43.1875 25.515625 
Q 47.21875 21.78125 47.21875 15.09375 
Q 47.21875 7.46875 41.1875 3.015625 
Q 35.15625 -1.421875 24.609375 -1.421875 
Q 20.21875 -1.421875 15.453125 -0.5625 
Q 10.6875 0.296875 5.421875 2 
L 5.421875 11.28125 
Q 10.40625 8.6875 15.234375 7.390625 
Q 20.0625 6.109375 24.8125 6.109375 
Q 31.15625 6.109375 34.5625 8.28125 
Q 37.984375 10.453125 37.984375 14.40625 
Q 37.984375 18.0625 35.515625 20.015625 
Q 33.0625 21.96875 24.703125 23.78125 
L 21.578125 24.515625 
Q 13.234375 26.265625 9.515625 29.90625 
Q 5.8125 33.546875 5.8125 39.890625 
Q 5.8125 47.609375 11.28125 51.796875 
Q 16.75 56 26.8125 56 
Q 31.78125 56 36.171875 55.265625 
Q 40.578125 54.546875 44.28125 53.078125 
z
" id="DejaVuSans-73"/>
      <path d="M 9.078125 75.984375 
L 18.109375 75.984375 
L 18.109375 31.109375 
L 44.921875 54.6875 
L 56.390625 54.6875 
L 27.390625 29.109375 
L 57.625 0 
L 45.90625 0 
L 18.109375 26.703125 
L 18.109375 0 
L 9.078125 0 
z
" id="DejaVuSans-6b"/>
      <path d="M 56.203125 29.59375 
L 56.203125 25.203125 
L 14.890625 25.203125 
Q 15.484375 15.921875 20.484375 11.0625 
Q 25.484375 6.203125 34.421875 6.203125 
Q 39.59375 6.203125 44.453125 7.46875 
Q 49.3125 8.734375 54.109375 11.28125 
L 54.109375 2.78125 
Q 49.265625 0.734375 44.1875 -0.34375 
Q 39.109375 -1.421875 33.890625 -1.421875 
Q 20.796875 -1.421875 13.15625 6.1875 
Q 5.515625 13.8125 5.515625 26.8125 
Q 5.515625 40.234375 12.765625 48.109375 
Q 20.015625 56 32.328125 56 
Q 43.359375 56 49.78125 48.890625 
Q 56.203125 41.796875 56.203125 29.59375 
z
M 47.21875 32.234375 
Q 47.125 39.59375 43.09375 43.984375 
Q 39.0625 48.390625 32.421875 48.390625 
Q 24.90625 48.390625 20.390625 44.140625 
Q 15.875 39.890625 15.1875 32.171875 
z
" id="DejaVuSans-65"/>
      <path d="M 18.3125 70.21875 
L 18.3125 54.6875 
L 36.8125 54.6875 
L 36.8125 47.703125 
L 18.3125 47.703125 
L 18.3125 18.015625 
Q 18.3125 11.328125 20.140625 9.421875 
Q 21.96875 7.515625 27.59375 7.515625 
L 36.8125 7.515625 
L 36.8125 0 
L 27.59375 0 
Q 17.1875 0 13.234375 3.875 
Q 9.28125 7.765625 9.28125 18.015625 
L 9.28125 47.703125 
L 2.6875 47.703125 
L 2.6875 54.6875 
L 9.28125 54.6875 
L 9.28125 70.21875 
z
" id="DejaVuSans-74"/>
      <path d="M 48.78125 52.59375 
L 48.78125 44.1875 
Q 44.96875 46.296875 41.140625 47.34375 
Q 37.3125 48.390625 33.40625 48.390625 
Q 24.65625 48.390625 19.8125 42.84375 
Q 14.984375 37.3125 14.984375 27.296875 
Q 14.984375 17.28125 19.8125 11.734375 
Q 24.65625 6.203125 33.40625 6.203125 
Q 37.3125 6.203125 41.140625 7.25 
Q 44.96875 8.296875 48.78125 10.40625 
L 48.78125 2.09375 
Q 45.015625 0.34375 40.984375 -0.53125 
Q 36.96875 -1.421875 32.421875 -1.421875 
Q 20.0625 -1.421875 12.78125 6.34375 
Q 5.515625 14.109375 5.515625 27.296875 
Q 5.515625 40.671875 12.859375 48.328125 
Q 20.21875 56 33.015625 56 
Q 37.15625 56 41.109375 55.140625 
Q 45.0625 54.296875 48.78125 52.59375 
z
" id="DejaVuSans-63"/>
      <path d="M 54.890625 33.015625 
L 54.890625 0 
L 45.90625 0 
L 45.90625 32.71875 
Q 45.90625 40.484375 42.875 44.328125 
Q 39.84375 48.1875 33.796875 48.1875 
Q 26.515625 48.1875 22.3125 43.546875 
Q 18.109375 38.921875 18.109375 30.90625 
L 18.109375 0 
L 9.078125 0 
L 9.078125 75.984375 
L 18.109375 75.984375 
L 18.109375 46.1875 
Q 21.34375 51.125 25.703125 53.5625 
Q 30.078125 56 35.796875 56 
Q 45.21875 56 50.046875 50.171875 
Q 54.890625 44.34375 54.890625 33.015625 
z
" id="DejaVuSans-68"/>
      <path d="M 52 44.1875 
Q 55.375 50.25 60.0625 53.125 
Q 64.75 56 71.09375 56 
Q 79.640625 56 84.28125 50.015625 
Q 88.921875 44.046875 88.921875 33.015625 
L 88.921875 0 
L 79.890625 0 
L 79.890625 32.71875 
Q 79.890625 40.578125 77.09375 44.375 
Q 74.3125 48.1875 68.609375 48.1875 
Q 61.625 48.1875 57.5625 43.546875 
Q 53.515625 38.921875 53.515625 30.90625 
L 53.515625 0 
L 44.484375 0 
L 44.484375 32.71875 
Q 44.484375 40.625 41.703125 44.40625 
Q 38.921875 48.1875 33.109375 48.1875 
Q 26.21875 48.1875 22.15625 43.53125 
Q 18.109375 38.875 18.109375 30.90625 
L 18.109375 0 
L 9.078125 0 
L 9.078125 54.6875 
L 18.109375 54.6875 
L 18.109375 46.1875 
Q 21.1875 51.21875 25.484375 53.609375 
Q 29.78125 56 35.6875 56 
Q 41.65625 56 45.828125 52.96875 
Q 50 49.953125 52 44.1875 
z
" id="DejaVuSans-6d"/>
      <path d="M 32.171875 -5.078125 
Q 28.375 -14.84375 24.75 -17.8125 
Q 21.140625 -20.796875 15.09375 -20.796875 
L 7.90625 -20.796875 
L 7.90625 -13.28125 
L 13.1875 -13.28125 
Q 16.890625 -13.28125 18.9375 -11.515625 
Q 21 -9.765625 23.484375 -3.21875 
L 25.09375 0.875 
L 2.984375 54.6875 
L 12.5 54.6875 
L 29.59375 11.921875 
L 46.6875 54.6875 
L 56.203125 54.6875 
z
" id="DejaVuSans-79"/>
      <path d="M 34.28125 27.484375 
Q 23.390625 27.484375 19.1875 25 
Q 14.984375 22.515625 14.984375 16.5 
Q 14.984375 11.71875 18.140625 8.90625 
Q 21.296875 6.109375 26.703125 6.109375 
Q 34.1875 6.109375 38.703125 11.40625 
Q 43.21875 16.703125 43.21875 25.484375 
L 43.21875 27.484375 
z
M 52.203125 31.203125 
L 52.203125 0 
L 43.21875 0 
L 43.21875 8.296875 
Q 40.140625 3.328125 35.546875 0.953125 
Q 30.953125 -1.421875 24.3125 -1.421875 
Q 15.921875 -1.421875 10.953125 3.296875 
Q 6 8.015625 6 15.921875 
Q 6 25.140625 12.171875 29.828125 
Q 18.359375 34.515625 30.609375 34.515625 
L 43.21875 34.515625 
L 43.21875 35.40625 
Q 43.21875 41.609375 39.140625 45 
Q 35.0625 48.390625 27.6875 48.390625 
Q 23 48.390625 18.546875 47.265625 
Q 14.109375 46.140625 10.015625 43.890625 
L 10.015625 52.203125 
Q 14.9375 54.109375 19.578125 55.046875 
Q 24.21875 56 28.609375 56 
Q 40.484375 56 46.34375 49.84375 
Q 52.203125 43.703125 52.203125 31.203125 
z
" id="DejaVuSans-61"/>
      <path d="M 54.890625 33.015625 
L 54.890625 0 
L 45.90625 0 
L 45.90625 32.71875 
Q 45.90625 40.484375 42.875 44.328125 
Q 39.84375 48.1875 33.796875 48.1875 
Q 26.515625 48.1875 22.3125 43.546875 
Q 18.109375 38.921875 18.109375 30.90625 
L 18.109375 0 
L 9.078125 0 
L 9.078125 54.6875 
L 18.109375 54.6875 
L 18.109375 46.1875 
Q 21.34375 51.125 25.703125 53.5625 
Q 30.078125 56 35.796875 56 
Q 45.21875 56 50.046875 50.171875 
Q 54.890625 44.34375 54.890625 33.015625 
z
" id="DejaVuSans-6e"/>
      <path d="M 9.421875 54.6875 
L 18.40625 54.6875 
L 18.40625 0 
L 9.421875 0 
z
M 9.421875 75.984375 
L 18.40625 75.984375 
L 18.40625 64.59375 
L 9.421875 64.59375 
z
" id="DejaVuSans-69"/>
      <path d="M 45.40625 27.984375 
Q 45.40625 37.75 41.375 43.109375 
Q 37.359375 48.484375 30.078125 48.484375 
Q 22.859375 48.484375 18.828125 43.109375 
Q 14.796875 37.75 14.796875 27.984375 
Q 14.796875 18.265625 18.828125 12.890625 
Q 22.859375 7.515625 30.078125 7.515625 
Q 37.359375 7.515625 41.375 12.890625 
Q 45.40625 18.265625 45.40625 27.984375 
z
M 54.390625 6.78125 
Q 54.390625 -7.171875 48.1875 -13.984375 
Q 42 -20.796875 29.203125 -20.796875 
Q 24.46875 -20.796875 20.265625 -20.09375 
Q 16.0625 -19.390625 12.109375 -17.921875 
L 12.109375 -9.1875 
Q 16.0625 -11.328125 19.921875 -12.34375 
Q 23.78125 -13.375 27.78125 -13.375 
Q 36.625 -13.375 41.015625 -8.765625 
Q 45.40625 -4.15625 45.40625 5.171875 
L 45.40625 9.625 
Q 42.625 4.78125 38.28125 2.390625 
Q 33.9375 0 27.875 0 
Q 17.828125 0 11.671875 7.65625 
Q 5.515625 15.328125 5.515625 27.984375 
Q 5.515625 40.671875 11.671875 48.328125 
Q 17.828125 56 27.875 56 
Q 33.9375 56 38.28125 53.609375 
Q 42.625 51.21875 45.40625 46.390625 
L 45.40625 54.6875 
L 54.390625 54.6875 
z
" id="DejaVuSans-67"/>
     </defs>
     <g transform="translate(483.71112 98.076122)scale(0.1 -0.1)">
      <use xlink:href="#DejaVuSans-31"/>
      <use x="63.623047" xlink:href="#DejaVuSans-34"/>
      <use x="127.246094" xlink:href="#DejaVuSans-37"/>
      <use x="190.869141" xlink:href="#DejaVuSans-20"/>
      <use x="222.65625" xlink:href="#DejaVuSans-20"/>
      <use x="254.443359" xlink:href="#DejaVuSans-54"/>
      <use x="315.261719" xlink:href="#DejaVuSans-6f"/>
      <use x="376.443359" xlink:href="#DejaVuSans-20"/>
      <use x="408.230469" xlink:href="#DejaVuSans-73"/>
      <use x="460.330078" xlink:href="#DejaVuSans-6b"/>
      <use x="518.193359" xlink:href="#DejaVuSans-65"/>
      <use x="579.716797" xlink:href="#DejaVuSans-74"/>
      <use x="618.925781" xlink:href="#DejaVuSans-63"/>
      <use x="673.90625" xlink:href="#DejaVuSans-68"/>
      <use x="737.285156" xlink:href="#DejaVuSans-20"/>
      <use x="769.072266" xlink:href="#DejaVuSans-6d"/>
      <use x="866.484375" xlink:href="#DejaVuSans-79"/>
      <use x="925.664062" xlink:href="#DejaVuSans-20"/>
      <use x="957.451172" xlink:href="#DejaVuSans-6d"/>
      <use x="1054.863281" xlink:href="#DejaVuSans-65"/>
      <use x="1116.386719" xlink:href="#DejaVuSans-61"/>
      <use x="1177.666016" xlink:href="#DejaVuSans-6e"/>
      <use x="1241.044922" xlink:href="#DejaVuSans-69"/>
      <use x="1268.828125" xlink:href="#DejaVuSans-6e"/>
      <use x="1332.207031" xlink:href="#DejaVuSans-67"/>
     </g>
    </g>
    <g clip-path="url(#p2f4346a3ed)">
     <!-- roughly , examples of -->
     <defs>
      <path d="M 41.109375 46.296875 
Q 39.59375 47.171875 37.8125 47.578125 
Q 36.03125 48 33.890625 48 
Q 26.265625 48 22.1875 43.046875 
Q 18.109375 38.09375 18.109375 28.8125 
L 18.109375 0 
L 9.078125 0 
L 9.078125 54.6875 
L 18.109375 54.6875 
L 18.109375 46.1875 
Q 20.953125 51.171875 25.484375 53.578125 
Q 30.03125 56 36.53125 56 
Q 37.453125 56 38.578125 55.875 
Q 39.703125 55.765625 41.0625 55.515625 
z
" id="DejaVuSans-72"/>
      <path d="M 8.5 21.578125 
L 8.5 54.6875 
L 17.484375 54.6875 
L 17.484375 21.921875 
Q 17.484375 14.15625 20.5 10.265625 
Q 23.53125 6.390625 29.59375 6.390625 
Q 36.859375 6.390625 41.078125 11.03125 
Q 45.3125 15.671875 45.3125 23.6875 
L 45.3125 54.6875 
L 54.296875 54.6875 
L 54.296875 0 
L 45.3125 0 
L 45.3125 8.40625 
Q 42.046875 3.421875 37.71875 1 
Q 33.40625 -1.421875 27.6875 -1.421875 
Q 18.265625 -1.421875 13.375 4.4375 
Q 8.5 10.296875 8.5 21.578125 
z
M 31.109375 56 
z
" id="DejaVuSans-75"/>
      <path d="M 9.421875 75.984375 
L 18.40625 75.984375 
L 18.40625 0 
L 9.421875 0 
z
" id="DejaVuSans-6c"/>
      <path d="M 11.71875 12.40625 
L 22.015625 12.40625 
L 22.015625 4 
L 14.015625 -11.625 
L 7.71875 -11.625 
L 11.71875 4 
z
" id="DejaVuSans-2c"/>
      <path d="M 54.890625 54.6875 
L 35.109375 28.078125 
L 55.90625 0 
L 45.3125 0 
L 29.390625 21.484375 
L 13.484375 0 
L 2.875 0 
L 24.125 28.609375 
L 4.6875 54.6875 
L 15.28125 54.6875 
L 29.78125 35.203125 
L 44.28125 54.6875 
z
" id="DejaVuSans-78"/>
      <path d="M 18.109375 8.203125 
L 18.109375 -20.796875 
L 9.078125 -20.796875 
L 9.078125 54.6875 
L 18.109375 54.6875 
L 18.109375 46.390625 
Q 20.953125 51.265625 25.265625 53.625 
Q 29.59375 56 35.59375 56 
Q 45.5625 56 51.78125 48.09375 
Q 58.015625 40.1875 58.015625 27.296875 
Q 58.015625 14.40625 51.78125 6.484375 
Q 45.5625 -1.421875 35.59375 -1.421875 
Q 29.59375 -1.421875 25.265625 0.953125 
Q 20.953125 3.328125 18.109375 8.203125 
z
M 48.6875 27.296875 
Q 48.6875 37.203125 44.609375 42.84375 
Q 40.53125 48.484375 33.40625 48.484375 
Q 26.265625 48.484375 22.1875 42.84375 
Q 18.109375 37.203125 18.109375 27.296875 
Q 18.109375 17.390625 22.1875 11.75 
Q 26.265625 6.109375 33.40625 6.109375 
Q 40.53125 6.109375 44.609375 11.75 
Q 48.6875 17.390625 48.6875 27.296875 
z
" id="DejaVuSans-70"/>
      <path d="M 37.109375 75.984375 
L 37.109375 68.5 
L 28.515625 68.5 
Q 23.6875 68.5 21.796875 66.546875 
Q 19.921875 64.59375 19.921875 59.515625 
L 19.921875 54.6875 
L 34.71875 54.6875 
L 34.71875 47.703125 
L 19.921875 47.703125 
L 19.921875 0 
L 10.890625 0 
L 10.890625 47.703125 
L 2.296875 47.703125 
L 2.296875 54.6875 
L 10.890625 54.6875 
L 10.890625 58.5 
Q 10.890625 67.625 15.140625 71.796875 
Q 19.390625 75.984375 28.609375 75.984375 
z
" id="DejaVuSans-66"/>
     </defs>
     <g transform="translate(499.130651 109.273935)scale(0.1 -0.1)">
      <use xlink:href="#DejaVuSans-72"/>
      <use x="41.082031" xlink:href="#DejaVuSans-6f"/>
      <use x="102.263672" xlink:href="#DejaVuSans-75"/>
      <use x="165.642578" xlink:href="#DejaVuSans-67"/>
      <use x="229.119141" xlink:href="#DejaVuSans-68"/>
      <use x="292.498047" xlink:href="#DejaVuSans-6c"/>
      <use x="320.28125" xlink:href="#DejaVuSans-79"/>
      <use x="379.460938" xlink:href="#DejaVuSans-20"/>
      <use x="411.248047" xlink:href="#DejaVuSans-2c"/>
      <use x="443.035156" xlink:href="#DejaVuSans-20"/>
      <use x="474.822266" xlink:href="#DejaVuSans-65"/>
      <use x="536.330078" xlink:href="#DejaVuSans-78"/>
      <use x="595.509766" xlink:href="#DejaVuSans-61"/>
      <use x="656.789062" xlink:href="#DejaVuSans-6d"/>
      <use x="754.201172" xlink:href="#DejaVuSans-70"/>
      <use x="817.677734" xlink:href="#DejaVuSans-6c"/>
      <use x="845.460938" xlink:href="#DejaVuSans-65"/>
      <use x="906.984375" xlink:href="#DejaVuSans-73"/>
      <use x="959.083984" xlink:href="#DejaVuSans-20"/>
      <use x="990.871094" xlink:href="#DejaVuSans-6f"/>
      <use x="1052.052734" xlink:href="#DejaVuSans-66"/>
     </g>
    </g>
    <g clip-path="url(#p2f4346a3ed)">
     <!-- substance are Man or Thehorse -->
     <defs>
      <path d="M 48.6875 27.296875 
Q 48.6875 37.203125 44.609375 42.84375 
Q 40.53125 48.484375 33.40625 48.484375 
Q 26.265625 48.484375 22.1875 42.84375 
Q 18.109375 37.203125 18.109375 27.296875 
Q 18.109375 17.390625 22.1875 11.75 
Q 26.265625 6.109375 33.40625 6.109375 
Q 40.53125 6.109375 44.609375 11.75 
Q 48.6875 17.390625 48.6875 27.296875 
z
M 18.109375 46.390625 
Q 20.953125 51.265625 25.265625 53.625 
Q 29.59375 56 35.59375 56 
Q 45.5625 56 51.78125 48.09375 
Q 58.015625 40.1875 58.015625 27.296875 
Q 58.015625 14.40625 51.78125 6.484375 
Q 45.5625 -1.421875 35.59375 -1.421875 
Q 29.59375 -1.421875 25.265625 0.953125 
Q 20.953125 3.328125 18.109375 8.203125 
L 18.109375 0 
L 9.078125 0 
L 9.078125 75.984375 
L 18.109375 75.984375 
z
" id="DejaVuSans-62"/>
      <path d="M 9.8125 72.90625 
L 24.515625 72.90625 
L 43.109375 23.296875 
L 61.8125 72.90625 
L 76.515625 72.90625 
L 76.515625 0 
L 66.890625 0 
L 66.890625 64.015625 
L 48.09375 14.015625 
L 38.1875 14.015625 
L 19.390625 64.015625 
L 19.390625 0 
L 9.8125 0 
z
" id="DejaVuSans-4d"/>
     </defs>
     <g transform="translate(474.446276 120.471747)scale(0.1 -0.1)">
      <use xlink:href="#DejaVuSans-73"/>
      <use x="52.099609" xlink:href="#DejaVuSans-75"/>
      <use x="115.478516" xlink:href="#DejaVuSans-62"/>
      <use x="178.955078" xlink:href="#DejaVuSans-73"/>
      <use x="231.054688" xlink:href="#DejaVuSans-74"/>
      <use x="270.263672" xlink:href="#DejaVuSans-61"/>
      <use x="331.542969" xlink:href="#DejaVuSans-6e"/>
      <use x="394.921875" xlink:href="#DejaVuSans-63"/>
      <use x="449.902344" xlink:href="#DejaVuSans-65"/>
      <use x="511.425781" xlink:href="#DejaVuSans-20"/>
      <use x="543.212891" xlink:href="#DejaVuSans-61"/>
      <use x="604.492188" xlink:href="#DejaVuSans-72"/>
      <use x="645.574219" xlink:href="#DejaVuSans-65"/>
      <use x="707.097656" xlink:href="#DejaVuSans-20"/>
      <use x="738.884766" xlink:href="#DejaVuSans-4d"/>
      <use x="825.164062" xlink:href="#DejaVuSans-61"/>
      <use x="886.443359" xlink:href="#DejaVuSans-6e"/>
      <use x="949.822266" xlink:href="#DejaVuSans-20"/>
      <use x="981.609375" xlink:href="#DejaVuSans-6f"/>
      <use x="1042.791016" xlink:href="#DejaVuSans-72"/>
      <use x="1083.904297" xlink:href="#DejaVuSans-20"/>
      <use x="1115.691406" xlink:href="#DejaVuSans-54"/>
      <use x="1176.775391" xlink:href="#DejaVuSans-68"/>
      <use x="1240.154297" xlink:href="#DejaVuSans-65"/>
      <use x="1301.677734" xlink:href="#DejaVuSans-68"/>
      <use x="1365.056641" xlink:href="#DejaVuSans-6f"/>
      <use x="1426.238281" xlink:href="#DejaVuSans-72"/>
      <use x="1467.351562" xlink:href="#DejaVuSans-73"/>
      <use x="1519.451172" xlink:href="#DejaVuSans-65"/>
     </g>
    </g>
    <g clip-path="url(#p2f4346a3ed)">
     <!-- , of quantity , such terms as -->
     <defs>
      <path d="M 14.796875 27.296875 
Q 14.796875 17.390625 18.875 11.75 
Q 22.953125 6.109375 30.078125 6.109375 
Q 37.203125 6.109375 41.296875 11.75 
Q 45.40625 17.390625 45.40625 27.296875 
Q 45.40625 37.203125 41.296875 42.84375 
Q 37.203125 48.484375 30.078125 48.484375 
Q 22.953125 48.484375 18.875 42.84375 
Q 14.796875 37.203125 14.796875 27.296875 
z
M 45.40625 8.203125 
Q 42.578125 3.328125 38.25 0.953125 
Q 33.9375 -1.421875 27.875 -1.421875 
Q 17.96875 -1.421875 11.734375 6.484375 
Q 5.515625 14.40625 5.515625 27.296875 
Q 5.515625 40.1875 11.734375 48.09375 
Q 17.96875 56 27.875 56 
Q 33.9375 56 38.25 53.625 
Q 42.578125 51.265625 45.40625 46.390625 
L 45.40625 54.6875 
L 54.390625 54.6875 
L 54.390625 -20.796875 
L 45.40625 -20.796875 
z
" id="DejaVuSans-71"/>
     </defs>
     <g transform="translate(483.190807 131.66956)scale(0.1 -0.1)">
      <use xlink:href="#DejaVuSans-2c"/>
      <use x="31.787109" xlink:href="#DejaVuSans-20"/>
      <use x="63.574219" xlink:href="#DejaVuSans-6f"/>
      <use x="124.755859" xlink:href="#DejaVuSans-66"/>
      <use x="159.960938" xlink:href="#DejaVuSans-20"/>
      <use x="191.748047" xlink:href="#DejaVuSans-71"/>
      <use x="255.224609" xlink:href="#DejaVuSans-75"/>
      <use x="318.603516" xlink:href="#DejaVuSans-61"/>
      <use x="379.882812" xlink:href="#DejaVuSans-6e"/>
      <use x="443.261719" xlink:href="#DejaVuSans-74"/>
      <use x="482.470703" xlink:href="#DejaVuSans-69"/>
      <use x="510.253906" xlink:href="#DejaVuSans-74"/>
      <use x="549.462891" xlink:href="#DejaVuSans-79"/>
      <use x="608.642578" xlink:href="#DejaVuSans-20"/>
      <use x="640.429688" xlink:href="#DejaVuSans-2c"/>
      <use x="672.216797" xlink:href="#DejaVuSans-20"/>
      <use x="704.003906" xlink:href="#DejaVuSans-73"/>
      <use x="756.103516" xlink:href="#DejaVuSans-75"/>
      <use x="819.482422" xlink:href="#DejaVuSans-63"/>
      <use x="874.462891" xlink:href="#DejaVuSans-68"/>
      <use x="937.841797" xlink:href="#DejaVuSans-20"/>
      <use x="969.628906" xlink:href="#DejaVuSans-74"/>
      <use x="1008.837891" xlink:href="#DejaVuSans-65"/>
      <use x="1070.361328" xlink:href="#DejaVuSans-72"/>
      <use x="1111.458984" xlink:href="#DejaVuSans-6d"/>
      <use x="1208.871094" xlink:href="#DejaVuSans-73"/>
      <use x="1260.970703" xlink:href="#DejaVuSans-20"/>
      <use x="1292.757812" xlink:href="#DejaVuSans-61"/>
      <use x="1354.037109" xlink:href="#DejaVuSans-73"/>
     </g>
    </g>
    <g clip-path="url(#p2f4346a3ed)">
     <!-- Twocubitslong or -->
     <defs>
      <path d="M 4.203125 54.6875 
L 13.1875 54.6875 
L 24.421875 12.015625 
L 35.59375 54.6875 
L 46.1875 54.6875 
L 57.421875 12.015625 
L 68.609375 54.6875 
L 77.59375 54.6875 
L 63.28125 0 
L 52.6875 0 
L 40.921875 44.828125 
L 29.109375 0 
L 18.5 0 
z
" id="DejaVuSans-77"/>
     </defs>
     <g transform="translate(510.762682 142.867372)scale(0.1 -0.1)">
      <use xlink:href="#DejaVuSans-54"/>
      <use x="60.833984" xlink:href="#DejaVuSans-77"/>
      <use x="142.621094" xlink:href="#DejaVuSans-6f"/>
      <use x="203.802734" xlink:href="#DejaVuSans-63"/>
      <use x="258.783203" xlink:href="#DejaVuSans-75"/>
      <use x="322.162109" xlink:href="#DejaVuSans-62"/>
      <use x="385.638672" xlink:href="#DejaVuSans-69"/>
      <use x="413.421875" xlink:href="#DejaVuSans-74"/>
      <use x="452.630859" xlink:href="#DejaVuSans-73"/>
      <use x="504.730469" xlink:href="#DejaVuSans-6c"/>
      <use x="532.513672" xlink:href="#DejaVuSans-6f"/>
      <use x="593.695312" xlink:href="#DejaVuSans-6e"/>
      <use x="657.074219" xlink:href="#DejaVuSans-67"/>
      <use x="720.550781" xlink:href="#DejaVuSans-20"/>
      <use x="752.337891" xlink:href="#DejaVuSans-6f"/>
      <use x="813.519531" xlink:href="#DejaVuSans-72"/>
     </g>
    </g>
    <g clip-path="url(#p2f4346a3ed)">
     <!-- Threecubitslong , of quality , -->
     <g transform="translate(481.768151 154.065185)scale(0.1 -0.1)">
      <use xlink:href="#DejaVuSans-54"/>
      <use x="61.083984" xlink:href="#DejaVuSans-68"/>
      <use x="124.462891" xlink:href="#DejaVuSans-72"/>
      <use x="165.544922" xlink:href="#DejaVuSans-65"/>
      <use x="227.068359" xlink:href="#DejaVuSans-65"/>
      <use x="288.591797" xlink:href="#DejaVuSans-63"/>
      <use x="343.572266" xlink:href="#DejaVuSans-75"/>
      <use x="406.951172" xlink:href="#DejaVuSans-62"/>
      <use x="470.427734" xlink:href="#DejaVuSans-69"/>
      <use x="498.210938" xlink:href="#DejaVuSans-74"/>
      <use x="537.419922" xlink:href="#DejaVuSans-73"/>
      <use x="589.519531" xlink:href="#DejaVuSans-6c"/>
      <use x="617.302734" xlink:href="#DejaVuSans-6f"/>
      <use x="678.484375" xlink:href="#DejaVuSans-6e"/>
      <use x="741.863281" xlink:href="#DejaVuSans-67"/>
      <use x="805.339844" xlink:href="#DejaVuSans-20"/>
      <use x="837.126953" xlink:href="#DejaVuSans-2c"/>
      <use x="868.914062" xlink:href="#DejaVuSans-20"/>
      <use x="900.701172" xlink:href="#DejaVuSans-6f"/>
      <use x="961.882812" xlink:href="#DejaVuSans-66"/>
      <use x="997.087891" xlink:href="#DejaVuSans-20"/>
      <use x="1028.875" xlink:href="#DejaVuSans-71"/>
      <use x="1092.351562" xlink:href="#DejaVuSans-75"/>
      <use x="1155.730469" xlink:href="#DejaVuSans-61"/>
      <use x="1217.009766" xlink:href="#DejaVuSans-6c"/>
      <use x="1244.792969" xlink:href="#DejaVuSans-69"/>
      <use x="1272.576172" xlink:href="#DejaVuSans-74"/>
      <use x="1311.785156" xlink:href="#DejaVuSans-79"/>
      <use x="1370.964844" xlink:href="#DejaVuSans-20"/>
      <use x="1402.751953" xlink:href="#DejaVuSans-2c"/>
     </g>
    </g>
    <g clip-path="url(#p2f4346a3ed)">
     <!-- such attributes as White , -->
     <defs>
      <path d="M 3.328125 72.90625 
L 13.28125 72.90625 
L 28.609375 11.28125 
L 43.890625 72.90625 
L 54.984375 72.90625 
L 70.3125 11.28125 
L 85.59375 72.90625 
L 95.609375 72.90625 
L 77.296875 0 
L 64.890625 0 
L 49.515625 63.28125 
L 33.984375 0 
L 21.578125 0 
z
" id="DejaVuSans-57"/>
     </defs>
     <g transform="translate(489.236901 165.262997)scale(0.1 -0.1)">
      <use xlink:href="#DejaVuSans-73"/>
      <use x="52.099609" xlink:href="#DejaVuSans-75"/>
      <use x="115.478516" xlink:href="#DejaVuSans-63"/>
      <use x="170.458984" xlink:href="#DejaVuSans-68"/>
      <use x="233.837891" xlink:href="#DejaVuSans-20"/>
      <use x="265.625" xlink:href="#DejaVuSans-61"/>
      <use x="326.904297" xlink:href="#DejaVuSans-74"/>
      <use x="366.113281" xlink:href="#DejaVuSans-74"/>
      <use x="405.322266" xlink:href="#DejaVuSans-72"/>
      <use x="446.435547" xlink:href="#DejaVuSans-69"/>
      <use x="474.21875" xlink:href="#DejaVuSans-62"/>
      <use x="537.695312" xlink:href="#DejaVuSans-75"/>
      <use x="601.074219" xlink:href="#DejaVuSans-74"/>
      <use x="640.283203" xlink:href="#DejaVuSans-65"/>
      <use x="701.806641" xlink:href="#DejaVuSans-73"/>
      <use x="753.90625" xlink:href="#DejaVuSans-20"/>
      <use x="785.693359" xlink:href="#DejaVuSans-61"/>
      <use x="846.972656" xlink:href="#DejaVuSans-73"/>
      <use x="899.072266" xlink:href="#DejaVuSans-20"/>
      <use x="930.859375" xlink:href="#DejaVuSans-57"/>
      <use x="1029.736328" xlink:href="#DejaVuSans-68"/>
      <use x="1093.115234" xlink:href="#DejaVuSans-69"/>
      <use x="1120.898438" xlink:href="#DejaVuSans-74"/>
      <use x="1160.107422" xlink:href="#DejaVuSans-65"/>
      <use x="1221.630859" xlink:href="#DejaVuSans-20"/>
      <use x="1253.417969" xlink:href="#DejaVuSans-2c"/>
     </g>
    </g>
    <g clip-path="url(#p2f4346a3ed)">
     <!-- Grammatical . -->
     <defs>
      <path d="M 59.515625 10.40625 
L 59.515625 29.984375 
L 43.40625 29.984375 
L 43.40625 38.09375 
L 69.28125 38.09375 
L 69.28125 6.78125 
Q 63.578125 2.734375 56.6875 0.65625 
Q 49.8125 -1.421875 42 -1.421875 
Q 24.90625 -1.421875 15.25 8.5625 
Q 5.609375 18.5625 5.609375 36.375 
Q 5.609375 54.25 15.25 64.234375 
Q 24.90625 74.21875 42 74.21875 
Q 49.125 74.21875 55.546875 72.453125 
Q 61.96875 70.703125 67.390625 67.28125 
L 67.390625 56.78125 
Q 61.921875 61.421875 55.765625 63.765625 
Q 49.609375 66.109375 42.828125 66.109375 
Q 29.4375 66.109375 22.71875 58.640625 
Q 16.015625 51.171875 16.015625 36.375 
Q 16.015625 21.625 22.71875 14.15625 
Q 29.4375 6.6875 42.828125 6.6875 
Q 48.046875 6.6875 52.140625 7.59375 
Q 56.25 8.5 59.515625 10.40625 
z
" id="DejaVuSans-47"/>
      <path d="M 10.6875 12.40625 
L 21 12.40625 
L 21 0 
L 10.6875 0 
z
" id="DejaVuSans-2e"/>
     </defs>
     <g transform="translate(517.965807 176.46081)scale(0.1 -0.1)">
      <use xlink:href="#DejaVuSans-47"/>
      <use x="77.490234" xlink:href="#DejaVuSans-72"/>
      <use x="118.603516" xlink:href="#DejaVuSans-61"/>
      <use x="179.882812" xlink:href="#DejaVuSans-6d"/>
      <use x="277.294922" xlink:href="#DejaVuSans-6d"/>
      <use x="374.707031" xlink:href="#DejaVuSans-61"/>
      <use x="435.986328" xlink:href="#DejaVuSans-74"/>
      <use x="475.195312" xlink:href="#DejaVuSans-69"/>
      <use x="502.978516" xlink:href="#DejaVuSans-63"/>
      <use x="557.958984" xlink:href="#DejaVuSans-61"/>
      <use x="619.238281" xlink:href="#DejaVuSans-6c"/>
      <use x="647.021484" xlink:href="#DejaVuSans-20"/>
      <use x="678.808594" xlink:href="#DejaVuSans-2e"/>
     </g>
    </g>
   </g>
   <g id="text_2">
    <g clip-path="url(#p2f4346a3ed)">
     <!-- 146  examples of substance are -->
     <defs>
      <path d="M 33.015625 40.375 
Q 26.375 40.375 22.484375 35.828125 
Q 18.609375 31.296875 18.609375 23.390625 
Q 18.609375 15.53125 22.484375 10.953125 
Q 26.375 6.390625 33.015625 6.390625 
Q 39.65625 6.390625 43.53125 10.953125 
Q 47.40625 15.53125 47.40625 23.390625 
Q 47.40625 31.296875 43.53125 35.828125 
Q 39.65625 40.375 33.015625 40.375 
z
M 52.59375 71.296875 
L 52.59375 62.3125 
Q 48.875 64.0625 45.09375 64.984375 
Q 41.3125 65.921875 37.59375 65.921875 
Q 27.828125 65.921875 22.671875 59.328125 
Q 17.53125 52.734375 16.796875 39.40625 
Q 19.671875 43.65625 24.015625 45.921875 
Q 28.375 48.1875 33.59375 48.1875 
Q 44.578125 48.1875 50.953125 41.515625 
Q 57.328125 34.859375 57.328125 23.390625 
Q 57.328125 12.15625 50.6875 5.359375 
Q 44.046875 -1.421875 33.015625 -1.421875 
Q 20.359375 -1.421875 13.671875 8.265625 
Q 6.984375 17.96875 6.984375 36.375 
Q 6.984375 53.65625 15.1875 63.9375 
Q 23.390625 74.21875 37.203125 74.21875 
Q 40.921875 74.21875 44.703125 73.484375 
Q 48.484375 72.75 52.59375 71.296875 
z
" id="DejaVuSans-36"/>
     </defs>
     <g transform="translate(127.34395 349.562656)scale(0.1 -0.1)">
      <use xlink:href="#DejaVuSans-31"/>
      <use x="63.623047" xlink:href="#DejaVuSans-34"/>
      <use x="127.246094" xlink:href="#DejaVuSans-36"/>
      <use x="190.869141" xlink:href="#DejaVuSans-20"/>
      <use x="222.65625" xlink:href="#DejaVuSans-20"/>
      <use x="254.443359" xlink:href="#DejaVuSans-65"/>
      <use x="315.951172" xlink:href="#DejaVuSans-78"/>
      <use x="375.130859" xlink:href="#DejaVuSans-61"/>
      <use x="436.410156" xlink:href="#DejaVuSans-6d"/>
      <use x="533.822266" xlink:href="#DejaVuSans-70"/>
      <use x="597.298828" xlink:href="#DejaVuSans-6c"/>
      <use x="625.082031" xlink:href="#DejaVuSans-65"/>
      <use x="686.605469" xlink:href="#DejaVuSans-73"/>
      <use x="738.705078" xlink:href="#DejaVuSans-20"/>
      <use x="770.492188" xlink:href="#DejaVuSans-6f"/>
      <use x="831.673828" xlink:href="#DejaVuSans-66"/>
      <use x="866.878906" xlink:href="#DejaVuSans-20"/>
      <use x="898.666016" xlink:href="#DejaVuSans-73"/>
      <use x="950.765625" xlink:href="#DejaVuSans-75"/>
      <use x="1014.144531" xlink:href="#DejaVuSans-62"/>
      <use x="1077.621094" xlink:href="#DejaVuSans-73"/>
      <use x="1129.720703" xlink:href="#DejaVuSans-74"/>
      <use x="1168.929688" xlink:href="#DejaVuSans-61"/>
      <use x="1230.208984" xlink:href="#DejaVuSans-6e"/>
      <use x="1293.587891" xlink:href="#DejaVuSans-63"/>
      <use x="1348.568359" xlink:href="#DejaVuSans-65"/>
      <use x="1410.091797" xlink:href="#DejaVuSans-20"/>
      <use x="1441.878906" xlink:href="#DejaVuSans-61"/>
      <use x="1503.158203" xlink:href="#DejaVuSans-72"/>
      <use x="1544.240234" xlink:href="#DejaVuSans-65"/>
     </g>
    </g>
    <g clip-path="url(#p2f4346a3ed)">
     <!-- Man of quantity such terms as -->
     <g transform="translate(131.549419 360.760469)scale(0.1 -0.1)">
      <use xlink:href="#DejaVuSans-4d"/>
      <use x="86.279297" xlink:href="#DejaVuSans-61"/>
      <use x="147.558594" xlink:href="#DejaVuSans-6e"/>
      <use x="210.9375" xlink:href="#DejaVuSans-20"/>
      <use x="242.724609" xlink:href="#DejaVuSans-6f"/>
      <use x="303.90625" xlink:href="#DejaVuSans-66"/>
      <use x="339.111328" xlink:href="#DejaVuSans-20"/>
      <use x="370.898438" xlink:href="#DejaVuSans-71"/>
      <use x="434.375" xlink:href="#DejaVuSans-75"/>
      <use x="497.753906" xlink:href="#DejaVuSans-61"/>
      <use x="559.033203" xlink:href="#DejaVuSans-6e"/>
      <use x="622.412109" xlink:href="#DejaVuSans-74"/>
      <use x="661.621094" xlink:href="#DejaVuSans-69"/>
      <use x="689.404297" xlink:href="#DejaVuSans-74"/>
      <use x="728.613281" xlink:href="#DejaVuSans-79"/>
      <use x="787.792969" xlink:href="#DejaVuSans-20"/>
      <use x="819.580078" xlink:href="#DejaVuSans-73"/>
      <use x="871.679688" xlink:href="#DejaVuSans-75"/>
      <use x="935.058594" xlink:href="#DejaVuSans-63"/>
      <use x="990.039062" xlink:href="#DejaVuSans-68"/>
      <use x="1053.417969" xlink:href="#DejaVuSans-20"/>
      <use x="1085.205078" xlink:href="#DejaVuSans-74"/>
      <use x="1124.414062" xlink:href="#DejaVuSans-65"/>
      <use x="1185.9375" xlink:href="#DejaVuSans-72"/>
      <use x="1227.035156" xlink:href="#DejaVuSans-6d"/>
      <use x="1324.447266" xlink:href="#DejaVuSans-73"/>
      <use x="1376.546875" xlink:href="#DejaVuSans-20"/>
      <use x="1408.333984" xlink:href="#DejaVuSans-61"/>
      <use x="1469.613281" xlink:href="#DejaVuSans-73"/>
     </g>
    </g>
    <g clip-path="url(#p2f4346a3ed)">
     <!-- Twocubitslong of quality such -->
     <g transform="translate(133.222075 371.958281)scale(0.1 -0.1)">
      <use xlink:href="#DejaVuSans-54"/>
      <use x="60.833984" xlink:href="#DejaVuSans-77"/>
      <use x="142.621094" xlink:href="#DejaVuSans-6f"/>
      <use x="203.802734" xlink:href="#DejaVuSans-63"/>
      <use x="258.783203" xlink:href="#DejaVuSans-75"/>
      <use x="322.162109" xlink:href="#DejaVuSans-62"/>
      <use x="385.638672" xlink:href="#DejaVuSans-69"/>
      <use x="413.421875" xlink:href="#DejaVuSans-74"/>
      <use x="452.630859" xlink:href="#DejaVuSans-73"/>
      <use x="504.730469" xlink:href="#DejaVuSans-6c"/>
      <use x="532.513672" xlink:href="#DejaVuSans-6f"/>
      <use x="593.695312" xlink:href="#DejaVuSans-6e"/>
      <use x="657.074219" xlink:href="#DejaVuSans-67"/>
      <use x="720.550781" xlink:href="#DejaVuSans-20"/>
      <use x="752.337891" xlink:href="#DejaVuSans-6f"/>
      <use x="813.519531" xlink:href="#DejaVuSans-66"/>
      <use x="848.724609" xlink:href="#DejaVuSans-20"/>
      <use x="880.511719" xlink:href="#DejaVuSans-71"/>
      <use x="943.988281" xlink:href="#DejaVuSans-75"/>
      <use x="1007.367188" xlink:href="#DejaVuSans-61"/>
      <use x="1068.646484" xlink:href="#DejaVuSans-6c"/>
      <use x="1096.429688" xlink:href="#DejaVuSans-69"/>
      <use x="1124.212891" xlink:href="#DejaVuSans-74"/>
      <use x="1163.421875" xlink:href="#DejaVuSans-79"/>
      <use x="1222.601562" xlink:href="#DejaVuSans-20"/>
      <use x="1254.388672" xlink:href="#DejaVuSans-73"/>
      <use x="1306.488281" xlink:href="#DejaVuSans-75"/>
      <use x="1369.867188" xlink:href="#DejaVuSans-63"/>
      <use x="1424.847656" xlink:href="#DejaVuSans-68"/>
     </g>
    </g>
    <g clip-path="url(#p2f4346a3ed)">
     <!-- attributes as White -->
     <g transform="translate(159.833794 383.156094)scale(0.1 -0.1)">
      <use xlink:href="#DejaVuSans-61"/>
      <use x="61.279297" xlink:href="#DejaVuSans-74"/>
      <use x="100.488281" xlink:href="#DejaVuSans-74"/>
      <use x="139.697266" xlink:href="#DejaVuSans-72"/>
      <use x="180.810547" xlink:href="#DejaVuSans-69"/>
      <use x="208.59375" xlink:href="#DejaVuSans-62"/>
      <use x="272.070312" xlink:href="#DejaVuSans-75"/>
      <use x="335.449219" xlink:href="#DejaVuSans-74"/>
      <use x="374.658203" xlink:href="#DejaVuSans-65"/>
      <use x="436.181641" xlink:href="#DejaVuSans-73"/>
      <use x="488.28125" xlink:href="#DejaVuSans-20"/>
      <use x="520.068359" xlink:href="#DejaVuSans-61"/>
      <use x="581.347656" xlink:href="#DejaVuSans-73"/>
      <use x="633.447266" xlink:href="#DejaVuSans-20"/>
      <use x="665.234375" xlink:href="#DejaVuSans-57"/>
      <use x="764.111328" xlink:href="#DejaVuSans-68"/>
      <use x="827.490234" xlink:href="#DejaVuSans-69"/>
      <use x="855.273438" xlink:href="#DejaVuSans-74"/>
      <use x="894.482422" xlink:href="#DejaVuSans-65"/>
     </g>
    </g>
   </g>
   <g id="text_3">
    <g clip-path="url(#p2f4346a3ed)">
     <!-- 145  To sketch my meaning -->
     <defs>
      <path d="M 10.796875 72.90625 
L 49.515625 72.90625 
L 49.515625 64.59375 
L 19.828125 64.59375 
L 19.828125 46.734375 
Q 21.96875 47.46875 24.109375 47.828125 
Q 26.265625 48.1875 28.421875 48.1875 
Q 40.625 48.1875 47.75 41.5 
Q 54.890625 34.8125 54.890625 23.390625 
Q 54.890625 11.625 47.5625 5.09375 
Q 40.234375 -1.421875 26.90625 -1.421875 
Q 22.3125 -1.421875 17.546875 -0.640625 
Q 12.796875 0.140625 7.71875 1.703125 
L 7.71875 11.625 
Q 12.109375 9.234375 16.796875 8.0625 
Q 21.484375 6.890625 26.703125 6.890625 
Q 35.15625 6.890625 40.078125 11.328125 
Q 45.015625 15.765625 45.015625 23.390625 
Q 45.015625 31 40.078125 35.4375 
Q 35.15625 39.890625 26.703125 39.890625 
Q 22.75 39.890625 18.8125 39.015625 
Q 14.890625 38.140625 10.796875 36.28125 
z
" id="DejaVuSans-35"/>
     </defs>
     <g transform="translate(829.584956 360.760469)scale(0.1 -0.1)">
      <use xlink:href="#DejaVuSans-31"/>
      <use x="63.623047" xlink:href="#DejaVuSans-34"/>
      <use x="127.246094" xlink:href="#DejaVuSans-35"/>
      <use x="190.869141" xlink:href="#DejaVuSans-20"/>
      <use x="222.65625" xlink:href="#DejaVuSans-20"/>
      <use x="254.443359" xlink:href="#DejaVuSans-54"/>
      <use x="315.261719" xlink:href="#DejaVuSans-6f"/>
      <use x="376.443359" xlink:href="#DejaVuSans-20"/>
      <use x="408.230469" xlink:href="#DejaVuSans-73"/>
      <use x="460.330078" xlink:href="#DejaVuSans-6b"/>
      <use x="518.193359" xlink:href="#DejaVuSans-65"/>
      <use x="579.716797" xlink:href="#DejaVuSans-74"/>
      <use x="618.925781" xlink:href="#DejaVuSans-63"/>
      <use x="673.90625" xlink:href="#DejaVuSans-68"/>
      <use x="737.285156" xlink:href="#DejaVuSans-20"/>
      <use x="769.072266" xlink:href="#DejaVuSans-6d"/>
      <use x="866.484375" xlink:href="#DejaVuSans-79"/>
      <use x="925.664062" xlink:href="#DejaVuSans-20"/>
      <use x="957.451172" xlink:href="#DejaVuSans-6d"/>
      <use x="1054.863281" xlink:href="#DejaVuSans-65"/>
      <use x="1116.386719" xlink:href="#DejaVuSans-61"/>
      <use x="1177.666016" xlink:href="#DejaVuSans-6e"/>
      <use x="1241.044922" xlink:href="#DejaVuSans-69"/>
      <use x="1268.828125" xlink:href="#DejaVuSans-6e"/>
      <use x="1332.207031" xlink:href="#DejaVuSans-67"/>
     </g>
    </g>
    <g clip-path="url(#p2f4346a3ed)">
     <!-- roughly -->
     <g transform="translate(880.394331 371.958281)scale(0.1 -0.1)">
      <use xlink:href="#DejaVuSans-72"/>
      <use x="41.082031" xlink:href="#DejaVuSans-6f"/>
      <use x="102.263672" xlink:href="#DejaVuSans-75"/>
      <use x="165.642578" xlink:href="#DejaVuSans-67"/>
      <use x="229.119141" xlink:href="#DejaVuSans-68"/>
      <use x="292.498047" xlink:href="#DejaVuSans-6c"/>
      <use x="320.28125" xlink:href="#DejaVuSans-79"/>
     </g>
    </g>
   </g>
   <g id="text_4">
    <g clip-path="url(#p2f4346a3ed)">
     <!-- 144  examples of substance -->
     <g transform="translate(137.127544 595.450284)scale(0.1 -0.1)">
      <use xlink:href="#DejaVuSans-31"/>
      <use x="63.623047" xlink:href="#DejaVuSans-34"/>
      <use x="127.246094" xlink:href="#DejaVuSans-34"/>
      <use x="190.869141" xlink:href="#DejaVuSans-20"/>
      <use x="222.65625" xlink:href="#DejaVuSans-20"/>
      <use x="254.443359" xlink:href="#DejaVuSans-65"/>
      <use x="315.951172" xlink:href="#DejaVuSans-78"/>
      <use x="375.130859" xlink:href="#DejaVuSans-61"/>
      <use x="436.410156" xlink:href="#DejaVuSans-6d"/>
      <use x="533.822266" xlink:href="#DejaVuSans-70"/>
      <use x="597.298828" xlink:href="#DejaVuSans-6c"/>
      <use x="625.082031" xlink:href="#DejaVuSans-65"/>
      <use x="686.605469" xlink:href="#DejaVuSans-73"/>
      <use x="738.705078" xlink:href="#DejaVuSans-20"/>
      <use x="770.492188" xlink:href="#DejaVuSans-6f"/>
      <use x="831.673828" xlink:href="#DejaVuSans-66"/>
      <use x="866.878906" xlink:href="#DejaVuSans-20"/>
      <use x="898.666016" xlink:href="#DejaVuSans-73"/>
      <use x="950.765625" xlink:href="#DejaVuSans-75"/>
      <use x="1014.144531" xlink:href="#DejaVuSans-62"/>
      <use x="1077.621094" xlink:href="#DejaVuSans-73"/>
      <use x="1129.720703" xlink:href="#DejaVuSans-74"/>
      <use x="1168.929688" xlink:href="#DejaVuSans-61"/>
      <use x="1230.208984" xlink:href="#DejaVuSans-6e"/>
      <use x="1293.587891" xlink:href="#DejaVuSans-63"/>
      <use x="1348.568359" xlink:href="#DejaVuSans-65"/>
     </g>
    </g>
   </g>
   <g id="text_5">
    <!-- To sketch my meaning roughly , examples of substance are Man or Thehorse , of quantity , -->
    <g transform="translate(278.881875 -0.786875)scale(0.12 -0.12)">
     <use xlink:href="#DejaVuSans-54"/>
     <use x="60.818359" xlink:href="#DejaVuSans-6f"/>
     <use x="122" xlink:href="#DejaVuSans-20"/>
     <use x="153.787109" xlink:href="#DejaVuSans-73"/>
     <use x="205.886719" xlink:href="#DejaVuSans-6b"/>
     <use x="263.75" xlink:href="#DejaVuSans-65"/>
     <use x="325.273438" xlink:href="#DejaVuSans-74"/>
     <use x="364.482422" xlink:href="#DejaVuSans-63"/>
     <use x="419.462891" xlink:href="#DejaVuSans-68"/>
     <use x="482.841797" xlink:href="#DejaVuSans-20"/>
     <use x="514.628906" xlink:href="#DejaVuSans-6d"/>
     <use x="612.041016" xlink:href="#DejaVuSans-79"/>
     <use x="671.220703" xlink:href="#DejaVuSans-20"/>
     <use x="703.007812" xlink:href="#DejaVuSans-6d"/>
     <use x="800.419922" xlink:href="#DejaVuSans-65"/>
     <use x="861.943359" xlink:href="#DejaVuSans-61"/>
     <use x="923.222656" xlink:href="#DejaVuSans-6e"/>
     <use x="986.601562" xlink:href="#DejaVuSans-69"/>
     <use x="1014.384766" xlink:href="#DejaVuSans-6e"/>
     <use x="1077.763672" xlink:href="#DejaVuSans-67"/>
     <use x="1141.240234" xlink:href="#DejaVuSans-20"/>
     <use x="1173.027344" xlink:href="#DejaVuSans-72"/>
     <use x="1214.109375" xlink:href="#DejaVuSans-6f"/>
     <use x="1275.291016" xlink:href="#DejaVuSans-75"/>
     <use x="1338.669922" xlink:href="#DejaVuSans-67"/>
     <use x="1402.146484" xlink:href="#DejaVuSans-68"/>
     <use x="1465.525391" xlink:href="#DejaVuSans-6c"/>
     <use x="1493.308594" xlink:href="#DejaVuSans-79"/>
     <use x="1552.488281" xlink:href="#DejaVuSans-20"/>
     <use x="1584.275391" xlink:href="#DejaVuSans-2c"/>
     <use x="1616.0625" xlink:href="#DejaVuSans-20"/>
     <use x="1647.849609" xlink:href="#DejaVuSans-65"/>
     <use x="1709.357422" xlink:href="#DejaVuSans-78"/>
     <use x="1768.537109" xlink:href="#DejaVuSans-61"/>
     <use x="1829.816406" xlink:href="#DejaVuSans-6d"/>
     <use x="1927.228516" xlink:href="#DejaVuSans-70"/>
     <use x="1990.705078" xlink:href="#DejaVuSans-6c"/>
     <use x="2018.488281" xlink:href="#DejaVuSans-65"/>
     <use x="2080.011719" xlink:href="#DejaVuSans-73"/>
     <use x="2132.111328" xlink:href="#DejaVuSans-20"/>
     <use x="2163.898438" xlink:href="#DejaVuSans-6f"/>
     <use x="2225.080078" xlink:href="#DejaVuSans-66"/>
     <use x="2260.285156" xlink:href="#DejaVuSans-20"/>
     <use x="2292.072266" xlink:href="#DejaVuSans-73"/>
     <use x="2344.171875" xlink:href="#DejaVuSans-75"/>
     <use x="2407.550781" xlink:href="#DejaVuSans-62"/>
     <use x="2471.027344" xlink:href="#DejaVuSans-73"/>
     <use x="2523.126953" xlink:href="#DejaVuSans-74"/>
     <use x="2562.335938" xlink:href="#DejaVuSans-61"/>
     <use x="2623.615234" xlink:href="#DejaVuSans-6e"/>
     <use x="2686.994141" xlink:href="#DejaVuSans-63"/>
     <use x="2741.974609" xlink:href="#DejaVuSans-65"/>
     <use x="2803.498047" xlink:href="#DejaVuSans-20"/>
     <use x="2835.285156" xlink:href="#DejaVuSans-61"/>
     <use x="2896.564453" xlink:href="#DejaVuSans-72"/>
     <use x="2937.646484" xlink:href="#DejaVuSans-65"/>
     <use x="2999.169922" xlink:href="#DejaVuSans-20"/>
     <use x="3030.957031" xlink:href="#DejaVuSans-4d"/>
     <use x="3117.236328" xlink:href="#DejaVuSans-61"/>
     <use x="3178.515625" xlink:href="#DejaVuSans-6e"/>
     <use x="3241.894531" xlink:href="#DejaVuSans-20"/>
     <use x="3273.681641" xlink:href="#DejaVuSans-6f"/>
     <use x="3334.863281" xlink:href="#DejaVuSans-72"/>
     <use x="3375.976562" xlink:href="#DejaVuSans-20"/>
     <use x="3407.763672" xlink:href="#DejaVuSans-54"/>
     <use x="3468.847656" xlink:href="#DejaVuSans-68"/>
     <use x="3532.226562" xlink:href="#DejaVuSans-65"/>
     <use x="3593.75" xlink:href="#DejaVuSans-68"/>
     <use x="3657.128906" xlink:href="#DejaVuSans-6f"/>
     <use x="3718.310547" xlink:href="#DejaVuSans-72"/>
     <use x="3759.423828" xlink:href="#DejaVuSans-73"/>
     <use x="3811.523438" xlink:href="#DejaVuSans-65"/>
     <use x="3873.046875" xlink:href="#DejaVuSans-20"/>
     <use x="3904.833984" xlink:href="#DejaVuSans-2c"/>
     <use x="3936.621094" xlink:href="#DejaVuSans-20"/>
     <use x="3968.408203" xlink:href="#DejaVuSans-6f"/>
     <use x="4029.589844" xlink:href="#DejaVuSans-66"/>
     <use x="4064.794922" xlink:href="#DejaVuSans-20"/>
     <use x="4096.582031" xlink:href="#DejaVuSans-71"/>
     <use x="4160.058594" xlink:href="#DejaVuSans-75"/>
     <use x="4223.4375" xlink:href="#DejaVuSans-61"/>
     <use x="4284.716797" xlink:href="#DejaVuSans-6e"/>
     <use x="4348.095703" xlink:href="#DejaVuSans-74"/>
     <use x="4387.304688" xlink:href="#DejaVuSans-69"/>
     <use x="4415.087891" xlink:href="#DejaVuSans-74"/>
     <use x="4454.296875" xlink:href="#DejaVuSans-79"/>
     <use x="4513.476562" xlink:href="#DejaVuSans-20"/>
     <use x="4545.263672" xlink:href="#DejaVuSans-2c"/>
    </g>
    <!-- such terms as Twocubitslong or Threecubitslong , of quality , such attributes as White , -->
    <g transform="translate(291.196875 12.6505)scale(0.12 -0.12)">
     <use xlink:href="#DejaVuSans-73"/>
     <use x="52.099609" xlink:href="#DejaVuSans-75"/>
     <use x="115.478516" xlink:href="#DejaVuSans-63"/>
     <use x="170.458984" xlink:href="#DejaVuSans-68"/>
     <use x="233.837891" xlink:href="#DejaVuSans-20"/>
     <use x="265.625" xlink:href="#DejaVuSans-74"/>
     <use x="304.833984" xlink:href="#DejaVuSans-65"/>
     <use x="366.357422" xlink:href="#DejaVuSans-72"/>
     <use x="407.455078" xlink:href="#DejaVuSans-6d"/>
     <use x="504.867188" xlink:href="#DejaVuSans-73"/>
     <use x="556.966797" xlink:href="#DejaVuSans-20"/>
     <use x="588.753906" xlink:href="#DejaVuSans-61"/>
     <use x="650.033203" xlink:href="#DejaVuSans-73"/>
     <use x="702.132812" xlink:href="#DejaVuSans-20"/>
     <use x="733.919922" xlink:href="#DejaVuSans-54"/>
     <use x="794.753906" xlink:href="#DejaVuSans-77"/>
     <use x="876.541016" xlink:href="#DejaVuSans-6f"/>
     <use x="937.722656" xlink:href="#DejaVuSans-63"/>
     <use x="992.703125" xlink:href="#DejaVuSans-75"/>
     <use x="1056.082031" xlink:href="#DejaVuSans-62"/>
     <use x="1119.558594" xlink:href="#DejaVuSans-69"/>
     <use x="1147.341797" xlink:href="#DejaVuSans-74"/>
     <use x="1186.550781" xlink:href="#DejaVuSans-73"/>
     <use x="1238.650391" xlink:href="#DejaVuSans-6c"/>
     <use x="1266.433594" xlink:href="#DejaVuSans-6f"/>
     <use x="1327.615234" xlink:href="#DejaVuSans-6e"/>
     <use x="1390.994141" xlink:href="#DejaVuSans-67"/>
     <use x="1454.470703" xlink:href="#DejaVuSans-20"/>
     <use x="1486.257812" xlink:href="#DejaVuSans-6f"/>
     <use x="1547.439453" xlink:href="#DejaVuSans-72"/>
     <use x="1588.552734" xlink:href="#DejaVuSans-20"/>
     <use x="1620.339844" xlink:href="#DejaVuSans-54"/>
     <use x="1681.423828" xlink:href="#DejaVuSans-68"/>
     <use x="1744.802734" xlink:href="#DejaVuSans-72"/>
     <use x="1785.884766" xlink:href="#DejaVuSans-65"/>
     <use x="1847.408203" xlink:href="#DejaVuSans-65"/>
     <use x="1908.931641" xlink:href="#DejaVuSans-63"/>
     <use x="1963.912109" xlink:href="#DejaVuSans-75"/>
     <use x="2027.291016" xlink:href="#DejaVuSans-62"/>
     <use x="2090.767578" xlink:href="#DejaVuSans-69"/>
     <use x="2118.550781" xlink:href="#DejaVuSans-74"/>
     <use x="2157.759766" xlink:href="#DejaVuSans-73"/>
     <use x="2209.859375" xlink:href="#DejaVuSans-6c"/>
     <use x="2237.642578" xlink:href="#DejaVuSans-6f"/>
     <use x="2298.824219" xlink:href="#DejaVuSans-6e"/>
     <use x="2362.203125" xlink:href="#DejaVuSans-67"/>
     <use x="2425.679688" xlink:href="#DejaVuSans-20"/>
     <use x="2457.466797" xlink:href="#DejaVuSans-2c"/>
     <use x="2489.253906" xlink:href="#DejaVuSans-20"/>
     <use x="2521.041016" xlink:href="#DejaVuSans-6f"/>
     <use x="2582.222656" xlink:href="#DejaVuSans-66"/>
     <use x="2617.427734" xlink:href="#DejaVuSans-20"/>
     <use x="2649.214844" xlink:href="#DejaVuSans-71"/>
     <use x="2712.691406" xlink:href="#DejaVuSans-75"/>
     <use x="2776.070312" xlink:href="#DejaVuSans-61"/>
     <use x="2837.349609" xlink:href="#DejaVuSans-6c"/>
     <use x="2865.132812" xlink:href="#DejaVuSans-69"/>
     <use x="2892.916016" xlink:href="#DejaVuSans-74"/>
     <use x="2932.125" xlink:href="#DejaVuSans-79"/>
     <use x="2991.304688" xlink:href="#DejaVuSans-20"/>
     <use x="3023.091797" xlink:href="#DejaVuSans-2c"/>
     <use x="3054.878906" xlink:href="#DejaVuSans-20"/>
     <use x="3086.666016" xlink:href="#DejaVuSans-73"/>
     <use x="3138.765625" xlink:href="#DejaVuSans-75"/>
     <use x="3202.144531" xlink:href="#DejaVuSans-63"/>
     <use x="3257.125" xlink:href="#DejaVuSans-68"/>
     <use x="3320.503906" xlink:href="#DejaVuSans-20"/>
     <use x="3352.291016" xlink:href="#DejaVuSans-61"/>
     <use x="3413.570312" xlink:href="#DejaVuSans-74"/>
     <use x="3452.779297" xlink:href="#DejaVuSans-74"/>
     <use x="3491.988281" xlink:href="#DejaVuSans-72"/>
     <use x="3533.101562" xlink:href="#DejaVuSans-69"/>
     <use x="3560.884766" xlink:href="#DejaVuSans-62"/>
     <use x="3624.361328" xlink:href="#DejaVuSans-75"/>
     <use x="3687.740234" xlink:href="#DejaVuSans-74"/>
     <use x="3726.949219" xlink:href="#DejaVuSans-65"/>
     <use x="3788.472656" xlink:href="#DejaVuSans-73"/>
     <use x="3840.572266" xlink:href="#DejaVuSans-20"/>
     <use x="3872.359375" xlink:href="#DejaVuSans-61"/>
     <use x="3933.638672" xlink:href="#DejaVuSans-73"/>
     <use x="3985.738281" xlink:href="#DejaVuSans-20"/>
     <use x="4017.525391" xlink:href="#DejaVuSans-57"/>
     <use x="4116.402344" xlink:href="#DejaVuSans-68"/>
     <use x="4179.78125" xlink:href="#DejaVuSans-69"/>
     <use x="4207.564453" xlink:href="#DejaVuSans-74"/>
     <use x="4246.773438" xlink:href="#DejaVuSans-65"/>
     <use x="4308.296875" xlink:href="#DejaVuSans-20"/>
     <use x="4340.083984" xlink:href="#DejaVuSans-2c"/>
    </g>
    <!-- Grammatical . -->
    <g transform="translate(510.86625 26.087875)scale(0.12 -0.12)">
     <use xlink:href="#DejaVuSans-47"/>
     <use x="77.490234" xlink:href="#DejaVuSans-72"/>
     <use x="118.603516" xlink:href="#DejaVuSans-61"/>
     <use x="179.882812" xlink:href="#DejaVuSans-6d"/>
     <use x="277.294922" xlink:href="#DejaVuSans-6d"/>
     <use x="374.707031" xlink:href="#DejaVuSans-61"/>
     <use x="435.986328" xlink:href="#DejaVuSans-74"/>
     <use x="475.195312" xlink:href="#DejaVuSans-69"/>
     <use x="502.978516" xlink:href="#DejaVuSans-63"/>
     <use x="557.958984" xlink:href="#DejaVuSans-61"/>
     <use x="619.238281" xlink:href="#DejaVuSans-6c"/>
     <use x="647.021484" xlink:href="#DejaVuSans-20"/>
     <use x="678.808594" xlink:href="#DejaVuSans-2e"/>
    </g>
    <!-- 144  145  146  147 -->
    <defs>
     <path d="M 12.890625 0 
L 30.515625 57.90625 
L 42.71875 57.90625 
L 60.296875 0 
L 50.78125 0 
L 36.625 45.90625 
L 22.40625 0 
z
" id="DejaVuSans-2227"/>
    </defs>
    <g transform="translate(483.075 39.52525)scale(0.12 -0.12)">
     <use xlink:href="#DejaVuSans-31"/>
     <use x="63.623047" xlink:href="#DejaVuSans-34"/>
     <use x="127.246094" xlink:href="#DejaVuSans-34"/>
     <use x="190.869141" xlink:href="#DejaVuSans-20"/>
     <use x="222.65625" xlink:href="#DejaVuSans-2227"/>
     <use x="295.849609" xlink:href="#DejaVuSans-20"/>
     <use x="327.636719" xlink:href="#DejaVuSans-31"/>
     <use x="391.259766" xlink:href="#DejaVuSans-34"/>
     <use x="454.882812" xlink:href="#DejaVuSans-35"/>
     <use x="518.505859" xlink:href="#DejaVuSans-20"/>
     <use x="550.292969" xlink:href="#DejaVuSans-2227"/>
     <use x="623.486328" xlink:href="#DejaVuSans-20"/>
     <use x="655.273438" xlink:href="#DejaVuSans-31"/>
     <use x="718.896484" xlink:href="#DejaVuSans-34"/>
     <use x="782.519531" xlink:href="#DejaVuSans-36"/>
     <use x="846.142578" xlink:href="#DejaVuSans-20"/>
     <use x="877.929688" xlink:href="#DejaVuSans-2227"/>
     <use x="951.123047" xlink:href="#DejaVuSans-20"/>
     <use x="982.910156" xlink:href="#DejaVuSans-31"/>
     <use x="1046.533203" xlink:href="#DejaVuSans-34"/>
     <use x="1110.15625" xlink:href="#DejaVuSans-37"/>
    </g>
    <!--  pyprover.logic.Prop('144')&amp; pyprover.logic.Prop('145')&amp; pyprover.logic.Prop('146')&amp; -->
    <defs>
     <path d="M 2.984375 54.6875 
L 12.5 54.6875 
L 29.59375 8.796875 
L 46.6875 54.6875 
L 56.203125 54.6875 
L 35.6875 0 
L 23.484375 0 
z
" id="DejaVuSans-76"/>
     <path d="M 19.671875 64.796875 
L 19.671875 37.40625 
L 32.078125 37.40625 
Q 38.96875 37.40625 42.71875 40.96875 
Q 46.484375 44.53125 46.484375 51.125 
Q 46.484375 57.671875 42.71875 61.234375 
Q 38.96875 64.796875 32.078125 64.796875 
z
M 9.8125 72.90625 
L 32.078125 72.90625 
Q 44.34375 72.90625 50.609375 67.359375 
Q 56.890625 61.8125 56.890625 51.125 
Q 56.890625 40.328125 50.609375 34.8125 
Q 44.34375 29.296875 32.078125 29.296875 
L 19.671875 29.296875 
L 19.671875 0 
L 9.8125 0 
z
" id="DejaVuSans-50"/>
     <path d="M 31 75.875 
Q 24.46875 64.65625 21.28125 53.65625 
Q 18.109375 42.671875 18.109375 31.390625 
Q 18.109375 20.125 21.3125 9.0625 
Q 24.515625 -2 31 -13.1875 
L 23.1875 -13.1875 
Q 15.875 -1.703125 12.234375 9.375 
Q 8.59375 20.453125 8.59375 31.390625 
Q 8.59375 42.28125 12.203125 53.3125 
Q 15.828125 64.359375 23.1875 75.875 
z
" id="DejaVuSans-28"/>
     <path d="M 17.921875 72.90625 
L 17.921875 45.796875 
L 9.625 45.796875 
L 9.625 72.90625 
z
" id="DejaVuSans-27"/>
     <path d="M 8.015625 75.875 
L 15.828125 75.875 
Q 23.140625 64.359375 26.78125 53.3125 
Q 30.421875 42.28125 30.421875 31.390625 
Q 30.421875 20.453125 26.78125 9.375 
Q 23.140625 -1.703125 15.828125 -13.1875 
L 8.015625 -13.1875 
Q 14.5 -2 17.703125 9.0625 
Q 20.90625 20.125 20.90625 31.390625 
Q 20.90625 42.671875 17.703125 53.65625 
Q 14.5 64.65625 8.015625 75.875 
z
" id="DejaVuSans-29"/>
     <path d="M 24.3125 39.203125 
Q 19.875 35.25 17.796875 31.3125 
Q 15.71875 27.390625 15.71875 23.09375 
Q 15.71875 15.96875 20.890625 11.234375 
Q 26.078125 6.5 33.890625 6.5 
Q 38.53125 6.5 42.578125 8.03125 
Q 46.625 9.578125 50.203125 12.703125 
z
M 31.203125 44.671875 
L 56 19.28125 
Q 58.890625 23.640625 60.5 28.59375 
Q 62.109375 33.546875 62.40625 39.109375 
L 71.484375 39.109375 
Q 70.90625 32.671875 68.359375 26.359375 
Q 65.828125 20.0625 61.28125 13.921875 
L 74.90625 0 
L 62.59375 0 
L 55.609375 7.171875 
Q 50.53125 2.828125 44.96875 0.703125 
Q 39.40625 -1.421875 33.015625 -1.421875 
Q 21.234375 -1.421875 13.765625 5.296875 
Q 6.296875 12.015625 6.296875 22.515625 
Q 6.296875 28.765625 9.5625 34.25 
Q 12.84375 39.75 19.390625 44.578125 
Q 17.046875 47.65625 15.8125 50.703125 
Q 14.59375 53.765625 14.59375 56.6875 
Q 14.59375 64.59375 20.015625 69.40625 
Q 25.4375 74.21875 34.421875 74.21875 
Q 38.484375 74.21875 42.5 73.34375 
Q 46.53125 72.46875 50.6875 70.703125 
L 50.6875 61.8125 
Q 46.4375 64.109375 42.578125 65.296875 
Q 38.71875 66.5 35.40625 66.5 
Q 30.28125 66.5 27.078125 63.78125 
Q 23.875 61.078125 23.875 56.78125 
Q 23.875 54.296875 25.3125 51.78125 
Q 26.765625 49.265625 31.203125 44.671875 
z
" id="DejaVuSans-26"/>
    </defs>
    <g transform="translate(299.95875 52.962625)scale(0.12 -0.12)">
     <use xlink:href="#DejaVuSans-20"/>
     <use x="31.787109" xlink:href="#DejaVuSans-70"/>
     <use x="95.263672" xlink:href="#DejaVuSans-79"/>
     <use x="154.443359" xlink:href="#DejaVuSans-70"/>
     <use x="217.919922" xlink:href="#DejaVuSans-72"/>
     <use x="259.001953" xlink:href="#DejaVuSans-6f"/>
     <use x="320.183594" xlink:href="#DejaVuSans-76"/>
     <use x="379.363281" xlink:href="#DejaVuSans-65"/>
     <use x="440.886719" xlink:href="#DejaVuSans-72"/>
     <use x="481.859375" xlink:href="#DejaVuSans-2e"/>
     <use x="513.646484" xlink:href="#DejaVuSans-6c"/>
     <use x="541.429688" xlink:href="#DejaVuSans-6f"/>
     <use x="602.611328" xlink:href="#DejaVuSans-67"/>
     <use x="666.087891" xlink:href="#DejaVuSans-69"/>
     <use x="693.871094" xlink:href="#DejaVuSans-63"/>
     <use x="748.851562" xlink:href="#DejaVuSans-2e"/>
     <use x="780.638672" xlink:href="#DejaVuSans-50"/>
     <use x="840.925781" xlink:href="#DejaVuSans-72"/>
     <use x="882.007812" xlink:href="#DejaVuSans-6f"/>
     <use x="943.189453" xlink:href="#DejaVuSans-70"/>
     <use x="1006.666016" xlink:href="#DejaVuSans-28"/>
     <use x="1045.679688" xlink:href="#DejaVuSans-27"/>
     <use x="1073.169922" xlink:href="#DejaVuSans-31"/>
     <use x="1136.792969" xlink:href="#DejaVuSans-34"/>
     <use x="1200.416016" xlink:href="#DejaVuSans-34"/>
     <use x="1264.039062" xlink:href="#DejaVuSans-27"/>
     <use x="1291.529297" xlink:href="#DejaVuSans-29"/>
     <use x="1330.542969" xlink:href="#DejaVuSans-26"/>
     <use x="1408.521484" xlink:href="#DejaVuSans-20"/>
     <use x="1440.308594" xlink:href="#DejaVuSans-70"/>
     <use x="1503.785156" xlink:href="#DejaVuSans-79"/>
     <use x="1562.964844" xlink:href="#DejaVuSans-70"/>
     <use x="1626.441406" xlink:href="#DejaVuSans-72"/>
     <use x="1667.523438" xlink:href="#DejaVuSans-6f"/>
     <use x="1728.705078" xlink:href="#DejaVuSans-76"/>
     <use x="1787.884766" xlink:href="#DejaVuSans-65"/>
     <use x="1849.408203" xlink:href="#DejaVuSans-72"/>
     <use x="1890.380859" xlink:href="#DejaVuSans-2e"/>
     <use x="1922.167969" xlink:href="#DejaVuSans-6c"/>
     <use x="1949.951172" xlink:href="#DejaVuSans-6f"/>
     <use x="2011.132812" xlink:href="#DejaVuSans-67"/>
     <use x="2074.609375" xlink:href="#DejaVuSans-69"/>
     <use x="2102.392578" xlink:href="#DejaVuSans-63"/>
     <use x="2157.373047" xlink:href="#DejaVuSans-2e"/>
     <use x="2189.160156" xlink:href="#DejaVuSans-50"/>
     <use x="2249.447266" xlink:href="#DejaVuSans-72"/>
     <use x="2290.529297" xlink:href="#DejaVuSans-6f"/>
     <use x="2351.710938" xlink:href="#DejaVuSans-70"/>
     <use x="2415.1875" xlink:href="#DejaVuSans-28"/>
     <use x="2454.201172" xlink:href="#DejaVuSans-27"/>
     <use x="2481.691406" xlink:href="#DejaVuSans-31"/>
     <use x="2545.314453" xlink:href="#DejaVuSans-34"/>
     <use x="2608.9375" xlink:href="#DejaVuSans-35"/>
     <use x="2672.560547" xlink:href="#DejaVuSans-27"/>
     <use x="2700.050781" xlink:href="#DejaVuSans-29"/>
     <use x="2739.064453" xlink:href="#DejaVuSans-26"/>
     <use x="2817.042969" xlink:href="#DejaVuSans-20"/>
     <use x="2848.830078" xlink:href="#DejaVuSans-70"/>
     <use x="2912.306641" xlink:href="#DejaVuSans-79"/>
     <use x="2971.486328" xlink:href="#DejaVuSans-70"/>
     <use x="3034.962891" xlink:href="#DejaVuSans-72"/>
     <use x="3076.044922" xlink:href="#DejaVuSans-6f"/>
     <use x="3137.226562" xlink:href="#DejaVuSans-76"/>
     <use x="3196.40625" xlink:href="#DejaVuSans-65"/>
     <use x="3257.929688" xlink:href="#DejaVuSans-72"/>
     <use x="3298.902344" xlink:href="#DejaVuSans-2e"/>
     <use x="3330.689453" xlink:href="#DejaVuSans-6c"/>
     <use x="3358.472656" xlink:href="#DejaVuSans-6f"/>
     <use x="3419.654297" xlink:href="#DejaVuSans-67"/>
     <use x="3483.130859" xlink:href="#DejaVuSans-69"/>
     <use x="3510.914062" xlink:href="#DejaVuSans-63"/>
     <use x="3565.894531" xlink:href="#DejaVuSans-2e"/>
     <use x="3597.681641" xlink:href="#DejaVuSans-50"/>
     <use x="3657.96875" xlink:href="#DejaVuSans-72"/>
     <use x="3699.050781" xlink:href="#DejaVuSans-6f"/>
     <use x="3760.232422" xlink:href="#DejaVuSans-70"/>
     <use x="3823.708984" xlink:href="#DejaVuSans-28"/>
     <use x="3862.722656" xlink:href="#DejaVuSans-27"/>
     <use x="3890.212891" xlink:href="#DejaVuSans-31"/>
     <use x="3953.835938" xlink:href="#DejaVuSans-34"/>
     <use x="4017.458984" xlink:href="#DejaVuSans-36"/>
     <use x="4081.082031" xlink:href="#DejaVuSans-27"/>
     <use x="4108.572266" xlink:href="#DejaVuSans-29"/>
     <use x="4147.585938" xlink:href="#DejaVuSans-26"/>
    </g>
    <!-- pyprover.logic.Prop('147') -->
    <g transform="translate(475.572187 66.4)scale(0.12 -0.12)">
     <use xlink:href="#DejaVuSans-70"/>
     <use x="63.476562" xlink:href="#DejaVuSans-79"/>
     <use x="122.65625" xlink:href="#DejaVuSans-70"/>
     <use x="186.132812" xlink:href="#DejaVuSans-72"/>
     <use x="227.214844" xlink:href="#DejaVuSans-6f"/>
     <use x="288.396484" xlink:href="#DejaVuSans-76"/>
     <use x="347.576172" xlink:href="#DejaVuSans-65"/>
     <use x="409.099609" xlink:href="#DejaVuSans-72"/>
     <use x="450.072266" xlink:href="#DejaVuSans-2e"/>
     <use x="481.859375" xlink:href="#DejaVuSans-6c"/>
     <use x="509.642578" xlink:href="#DejaVuSans-6f"/>
     <use x="570.824219" xlink:href="#DejaVuSans-67"/>
     <use x="634.300781" xlink:href="#DejaVuSans-69"/>
     <use x="662.083984" xlink:href="#DejaVuSans-63"/>
     <use x="717.064453" xlink:href="#DejaVuSans-2e"/>
     <use x="748.851562" xlink:href="#DejaVuSans-50"/>
     <use x="809.138672" xlink:href="#DejaVuSans-72"/>
     <use x="850.220703" xlink:href="#DejaVuSans-6f"/>
     <use x="911.402344" xlink:href="#DejaVuSans-70"/>
     <use x="974.878906" xlink:href="#DejaVuSans-28"/>
     <use x="1013.892578" xlink:href="#DejaVuSans-27"/>
     <use x="1041.382812" xlink:href="#DejaVuSans-31"/>
     <use x="1105.005859" xlink:href="#DejaVuSans-34"/>
     <use x="1168.628906" xlink:href="#DejaVuSans-37"/>
     <use x="1232.251953" xlink:href="#DejaVuSans-27"/>
     <use x="1259.742188" xlink:href="#DejaVuSans-29"/>
    </g>
   </g>
  </g>
 </g>
 <defs>
  <clipPath id="p2f4346a3ed">
   <rect height="554.4" width="837" x="135" y="86.4"/>
  </clipPath>
 </defs>
</svg>
