<?xml version="1.0" encoding="utf-8" standalone="no"?>
<!DOCTYPE svg PUBLIC "-//W3C//DTD SVG 1.1//EN"
  "http://www.w3.org/Graphics/SVG/1.1/DTD/svg11.dtd">
<!-- Created with matplotlib (http://matplotlib.org/) -->
<svg height="720pt" version="1.1" viewBox="0 0 1080 720" width="1080pt" xmlns="http://www.w3.org/2000/svg" xmlns:xlink="http://www.w3.org/1999/xlink">
 <defs>
  <style type="text/css">
*{stroke-linecap:butt;stroke-linejoin:round;}
  </style>
 </defs>
 <g id="figure_1">
  <g id="patch_1">
   <path d="M 0 720 
L 1080 720 
L 1080 0 
L 0 0 
z
" style="fill:#ffffff;"/>
  </g>
  <g id="axes_1">
   <g id="patch_2">
    <path clip-path="url(#p056dbe1bbb)" d="M 588.920193 134.509091 
Q 400.418688 247.767272 214.792243 359.298019 
" style="fill:none;stroke:#000000;stroke-linecap:round;stroke-width:3;"/>
    <path clip-path="url(#p056dbe1bbb)" d="M 220.142745 358.883141 
L 214.792243 359.298019 
L 217.670642 354.76869 
L 220.142745 358.883141 
z
" style="stroke:#000000;stroke-linecap:round;stroke-width:3;"/>
   </g>
   <g id="patch_3">
    <path clip-path="url(#p056dbe1bbb)" d="M 588.920193 134.509091 
Q 588.920193 246.553408 588.920193 355.243623 
" style="fill:none;stroke:#000000;stroke-linecap:round;stroke-width:3;"/>
    <path clip-path="url(#p056dbe1bbb)" d="M 591.320193 350.443623 
L 588.920193 355.243623 
L 586.520193 350.443623 
L 591.320193 350.443623 
z
" style="stroke:#000000;stroke-linecap:round;stroke-width:3;"/>
   </g>
   <g id="patch_4">
    <path clip-path="url(#p056dbe1bbb)" d="M 588.920193 134.509091 
Q 742.131917 247.569768 892.644814 358.63888 
" style="fill:none;stroke:#000000;stroke-linecap:round;stroke-width:3;"/>
    <path clip-path="url(#p056dbe1bbb)" d="M 890.207616 353.85766 
L 892.644814 358.63888 
L 887.357519 357.719907 
L 890.207616 353.85766 
z
" style="stroke:#000000;stroke-linecap:round;stroke-width:3;"/>
   </g>
   <g id="patch_5">
    <path clip-path="url(#p056dbe1bbb)" d="M 588.920193 363.6 
Q 588.920193 475.644317 588.920193 584.334532 
" style="fill:none;stroke:#000000;stroke-linecap:round;stroke-width:3;"/>
    <path clip-path="url(#p056dbe1bbb)" d="M 591.320193 579.534532 
L 588.920193 584.334532 
L 586.520193 579.534532 
L 591.320193 579.534532 
z
" style="stroke:#000000;stroke-linecap:round;stroke-width:3;"/>
   </g>
   <g id="patch_6">
    <path clip-path="url(#p056dbe1bbb)" d="M 899.367769 363.6 
Q 899.367769 475.644317 899.367769 584.334532 
" style="fill:none;stroke:#000000;stroke-linecap:round;stroke-width:3;"/>
    <path clip-path="url(#p056dbe1bbb)" d="M 901.767769 579.534532 
L 899.367769 584.334532 
L 896.967769 579.534532 
L 901.767769 579.534532 
z
" style="stroke:#000000;stroke-linecap:round;stroke-width:3;"/>
   </g>
   <g id="text_1">
    <g id="patch_7">
     <path clip-path="url(#p056dbe1bbb)" d="M 330.867619 257.03267 
L 465.684806 257.03267 
Q 468.684806 257.03267 468.684806 254.03267 
L 468.684806 244.07642 
Q 468.684806 241.07642 465.684806 241.07642 
L 330.867619 241.07642 
Q 327.867619 241.07642 327.867619 244.07642 
L 327.867619 254.03267 
Q 327.867619 257.03267 330.867619 257.03267 
z
" style="fill:#ffffff;stroke:#ffffff;stroke-linejoin:miter;"/>
    </g>
    <g clip-path="url(#p056dbe1bbb)">
     <!-- shared_negations: (never,) -->
     <defs>
      <path d="M 44.28125 53.078125 
L 44.28125 44.578125 
Q 40.484375 46.53125 36.375 47.5 
Q 32.28125 48.484375 27.875 48.484375 
Q 21.1875 48.484375 17.84375 46.4375 
Q 14.5 44.390625 14.5 40.28125 
Q 14.5 37.15625 16.890625 35.375 
Q 19.28125 33.59375 26.515625 31.984375 
L 29.59375 31.296875 
Q 39.15625 29.25 43.1875 25.515625 
Q 47.21875 21.78125 47.21875 15.09375 
Q 47.21875 7.46875 41.1875 3.015625 
Q 35.15625 -1.421875 24.609375 -1.421875 
Q 20.21875 -1.421875 15.453125 -0.5625 
Q 10.6875 0.296875 5.421875 2 
L 5.421875 11.28125 
Q 10.40625 8.6875 15.234375 7.390625 
Q 20.0625 6.109375 24.8125 6.109375 
Q 31.15625 6.109375 34.5625 8.28125 
Q 37.984375 10.453125 37.984375 14.40625 
Q 37.984375 18.0625 35.515625 20.015625 
Q 33.0625 21.96875 24.703125 23.78125 
L 21.578125 24.515625 
Q 13.234375 26.265625 9.515625 29.90625 
Q 5.8125 33.546875 5.8125 39.890625 
Q 5.8125 47.609375 11.28125 51.796875 
Q 16.75 56 26.8125 56 
Q 31.78125 56 36.171875 55.265625 
Q 40.578125 54.546875 44.28125 53.078125 
z
" id="DejaVuSans-73"/>
      <path d="M 54.890625 33.015625 
L 54.890625 0 
L 45.90625 0 
L 45.90625 32.71875 
Q 45.90625 40.484375 42.875 44.328125 
Q 39.84375 48.1875 33.796875 48.1875 
Q 26.515625 48.1875 22.3125 43.546875 
Q 18.109375 38.921875 18.109375 30.90625 
L 18.109375 0 
L 9.078125 0 
L 9.078125 75.984375 
L 18.109375 75.984375 
L 18.109375 46.1875 
Q 21.34375 51.125 25.703125 53.5625 
Q 30.078125 56 35.796875 56 
Q 45.21875 56 50.046875 50.171875 
Q 54.890625 44.34375 54.890625 33.015625 
z
" id="DejaVuSans-68"/>
      <path d="M 34.28125 27.484375 
Q 23.390625 27.484375 19.1875 25 
Q 14.984375 22.515625 14.984375 16.5 
Q 14.984375 11.71875 18.140625 8.90625 
Q 21.296875 6.109375 26.703125 6.109375 
Q 34.1875 6.109375 38.703125 11.40625 
Q 43.21875 16.703125 43.21875 25.484375 
L 43.21875 27.484375 
z
M 52.203125 31.203125 
L 52.203125 0 
L 43.21875 0 
L 43.21875 8.296875 
Q 40.140625 3.328125 35.546875 0.953125 
Q 30.953125 -1.421875 24.3125 -1.421875 
Q 15.921875 -1.421875 10.953125 3.296875 
Q 6 8.015625 6 15.921875 
Q 6 25.140625 12.171875 29.828125 
Q 18.359375 34.515625 30.609375 34.515625 
L 43.21875 34.515625 
L 43.21875 35.40625 
Q 43.21875 41.609375 39.140625 45 
Q 35.0625 48.390625 27.6875 48.390625 
Q 23 48.390625 18.546875 47.265625 
Q 14.109375 46.140625 10.015625 43.890625 
L 10.015625 52.203125 
Q 14.9375 54.109375 19.578125 55.046875 
Q 24.21875 56 28.609375 56 
Q 40.484375 56 46.34375 49.84375 
Q 52.203125 43.703125 52.203125 31.203125 
z
" id="DejaVuSans-61"/>
      <path d="M 41.109375 46.296875 
Q 39.59375 47.171875 37.8125 47.578125 
Q 36.03125 48 33.890625 48 
Q 26.265625 48 22.1875 43.046875 
Q 18.109375 38.09375 18.109375 28.8125 
L 18.109375 0 
L 9.078125 0 
L 9.078125 54.6875 
L 18.109375 54.6875 
L 18.109375 46.1875 
Q 20.953125 51.171875 25.484375 53.578125 
Q 30.03125 56 36.53125 56 
Q 37.453125 56 38.578125 55.875 
Q 39.703125 55.765625 41.0625 55.515625 
z
" id="DejaVuSans-72"/>
      <path d="M 56.203125 29.59375 
L 56.203125 25.203125 
L 14.890625 25.203125 
Q 15.484375 15.921875 20.484375 11.0625 
Q 25.484375 6.203125 34.421875 6.203125 
Q 39.59375 6.203125 44.453125 7.46875 
Q 49.3125 8.734375 54.109375 11.28125 
L 54.109375 2.78125 
Q 49.265625 0.734375 44.1875 -0.34375 
Q 39.109375 -1.421875 33.890625 -1.421875 
Q 20.796875 -1.421875 13.15625 6.1875 
Q 5.515625 13.8125 5.515625 26.8125 
Q 5.515625 40.234375 12.765625 48.109375 
Q 20.015625 56 32.328125 56 
Q 43.359375 56 49.78125 48.890625 
Q 56.203125 41.796875 56.203125 29.59375 
z
M 47.21875 32.234375 
Q 47.125 39.59375 43.09375 43.984375 
Q 39.0625 48.390625 32.421875 48.390625 
Q 24.90625 48.390625 20.390625 44.140625 
Q 15.875 39.890625 15.1875 32.171875 
z
" id="DejaVuSans-65"/>
      <path d="M 45.40625 46.390625 
L 45.40625 75.984375 
L 54.390625 75.984375 
L 54.390625 0 
L 45.40625 0 
L 45.40625 8.203125 
Q 42.578125 3.328125 38.25 0.953125 
Q 33.9375 -1.421875 27.875 -1.421875 
Q 17.96875 -1.421875 11.734375 6.484375 
Q 5.515625 14.40625 5.515625 27.296875 
Q 5.515625 40.1875 11.734375 48.09375 
Q 17.96875 56 27.875 56 
Q 33.9375 56 38.25 53.625 
Q 42.578125 51.265625 45.40625 46.390625 
z
M 14.796875 27.296875 
Q 14.796875 17.390625 18.875 11.75 
Q 22.953125 6.109375 30.078125 6.109375 
Q 37.203125 6.109375 41.296875 11.75 
Q 45.40625 17.390625 45.40625 27.296875 
Q 45.40625 37.203125 41.296875 42.84375 
Q 37.203125 48.484375 30.078125 48.484375 
Q 22.953125 48.484375 18.875 42.84375 
Q 14.796875 37.203125 14.796875 27.296875 
z
" id="DejaVuSans-64"/>
      <path d="M 50.984375 -16.609375 
L 50.984375 -23.578125 
L -0.984375 -23.578125 
L -0.984375 -16.609375 
z
" id="DejaVuSans-5f"/>
      <path d="M 54.890625 33.015625 
L 54.890625 0 
L 45.90625 0 
L 45.90625 32.71875 
Q 45.90625 40.484375 42.875 44.328125 
Q 39.84375 48.1875 33.796875 48.1875 
Q 26.515625 48.1875 22.3125 43.546875 
Q 18.109375 38.921875 18.109375 30.90625 
L 18.109375 0 
L 9.078125 0 
L 9.078125 54.6875 
L 18.109375 54.6875 
L 18.109375 46.1875 
Q 21.34375 51.125 25.703125 53.5625 
Q 30.078125 56 35.796875 56 
Q 45.21875 56 50.046875 50.171875 
Q 54.890625 44.34375 54.890625 33.015625 
z
" id="DejaVuSans-6e"/>
      <path d="M 45.40625 27.984375 
Q 45.40625 37.75 41.375 43.109375 
Q 37.359375 48.484375 30.078125 48.484375 
Q 22.859375 48.484375 18.828125 43.109375 
Q 14.796875 37.75 14.796875 27.984375 
Q 14.796875 18.265625 18.828125 12.890625 
Q 22.859375 7.515625 30.078125 7.515625 
Q 37.359375 7.515625 41.375 12.890625 
Q 45.40625 18.265625 45.40625 27.984375 
z
M 54.390625 6.78125 
Q 54.390625 -7.171875 48.1875 -13.984375 
Q 42 -20.796875 29.203125 -20.796875 
Q 24.46875 -20.796875 20.265625 -20.09375 
Q 16.0625 -19.390625 12.109375 -17.921875 
L 12.109375 -9.1875 
Q 16.0625 -11.328125 19.921875 -12.34375 
Q 23.78125 -13.375 27.78125 -13.375 
Q 36.625 -13.375 41.015625 -8.765625 
Q 45.40625 -4.15625 45.40625 5.171875 
L 45.40625 9.625 
Q 42.625 4.78125 38.28125 2.390625 
Q 33.9375 0 27.875 0 
Q 17.828125 0 11.671875 7.65625 
Q 5.515625 15.328125 5.515625 27.984375 
Q 5.515625 40.671875 11.671875 48.328125 
Q 17.828125 56 27.875 56 
Q 33.9375 56 38.28125 53.609375 
Q 42.625 51.21875 45.40625 46.390625 
L 45.40625 54.6875 
L 54.390625 54.6875 
z
" id="DejaVuSans-67"/>
      <path d="M 18.3125 70.21875 
L 18.3125 54.6875 
L 36.8125 54.6875 
L 36.8125 47.703125 
L 18.3125 47.703125 
L 18.3125 18.015625 
Q 18.3125 11.328125 20.140625 9.421875 
Q 21.96875 7.515625 27.59375 7.515625 
L 36.8125 7.515625 
L 36.8125 0 
L 27.59375 0 
Q 17.1875 0 13.234375 3.875 
Q 9.28125 7.765625 9.28125 18.015625 
L 9.28125 47.703125 
L 2.6875 47.703125 
L 2.6875 54.6875 
L 9.28125 54.6875 
L 9.28125 70.21875 
z
" id="DejaVuSans-74"/>
      <path d="M 9.421875 54.6875 
L 18.40625 54.6875 
L 18.40625 0 
L 9.421875 0 
z
M 9.421875 75.984375 
L 18.40625 75.984375 
L 18.40625 64.59375 
L 9.421875 64.59375 
z
" id="DejaVuSans-69"/>
      <path d="M 30.609375 48.390625 
Q 23.390625 48.390625 19.1875 42.75 
Q 14.984375 37.109375 14.984375 27.296875 
Q 14.984375 17.484375 19.15625 11.84375 
Q 23.34375 6.203125 30.609375 6.203125 
Q 37.796875 6.203125 41.984375 11.859375 
Q 46.1875 17.53125 46.1875 27.296875 
Q 46.1875 37.015625 41.984375 42.703125 
Q 37.796875 48.390625 30.609375 48.390625 
z
M 30.609375 56 
Q 42.328125 56 49.015625 48.375 
Q 55.71875 40.765625 55.71875 27.296875 
Q 55.71875 13.875 49.015625 6.21875 
Q 42.328125 -1.421875 30.609375 -1.421875 
Q 18.84375 -1.421875 12.171875 6.21875 
Q 5.515625 13.875 5.515625 27.296875 
Q 5.515625 40.765625 12.171875 48.375 
Q 18.84375 56 30.609375 56 
z
" id="DejaVuSans-6f"/>
      <path d="M 11.71875 12.40625 
L 22.015625 12.40625 
L 22.015625 0 
L 11.71875 0 
z
M 11.71875 51.703125 
L 22.015625 51.703125 
L 22.015625 39.3125 
L 11.71875 39.3125 
z
" id="DejaVuSans-3a"/>
      <path id="DejaVuSans-20"/>
      <path d="M 31 75.875 
Q 24.46875 64.65625 21.28125 53.65625 
Q 18.109375 42.671875 18.109375 31.390625 
Q 18.109375 20.125 21.3125 9.0625 
Q 24.515625 -2 31 -13.1875 
L 23.1875 -13.1875 
Q 15.875 -1.703125 12.234375 9.375 
Q 8.59375 20.453125 8.59375 31.390625 
Q 8.59375 42.28125 12.203125 53.3125 
Q 15.828125 64.359375 23.1875 75.875 
z
" id="DejaVuSans-28"/>
      <path d="M 2.984375 54.6875 
L 12.5 54.6875 
L 29.59375 8.796875 
L 46.6875 54.6875 
L 56.203125 54.6875 
L 35.6875 0 
L 23.484375 0 
z
" id="DejaVuSans-76"/>
      <path d="M 11.71875 12.40625 
L 22.015625 12.40625 
L 22.015625 4 
L 14.015625 -11.625 
L 7.71875 -11.625 
L 11.71875 4 
z
" id="DejaVuSans-2c"/>
      <path d="M 8.015625 75.875 
L 15.828125 75.875 
Q 23.140625 64.359375 26.78125 53.3125 
Q 30.421875 42.28125 30.421875 31.390625 
Q 30.421875 20.453125 26.78125 9.375 
Q 23.140625 -1.703125 15.828125 -13.1875 
L 8.015625 -13.1875 
Q 14.5 -2 17.703125 9.0625 
Q 20.90625 20.125 20.90625 31.390625 
Q 20.90625 42.671875 17.703125 53.65625 
Q 14.5 64.65625 8.015625 75.875 
z
" id="DejaVuSans-29"/>
     </defs>
     <g transform="translate(330.867619 251.674858)scale(0.1 -0.1)">
      <use xlink:href="#DejaVuSans-73"/>
      <use x="52.099609" xlink:href="#DejaVuSans-68"/>
      <use x="115.478516" xlink:href="#DejaVuSans-61"/>
      <use x="176.757812" xlink:href="#DejaVuSans-72"/>
      <use x="217.839844" xlink:href="#DejaVuSans-65"/>
      <use x="279.363281" xlink:href="#DejaVuSans-64"/>
      <use x="342.839844" xlink:href="#DejaVuSans-5f"/>
      <use x="392.839844" xlink:href="#DejaVuSans-6e"/>
      <use x="456.21875" xlink:href="#DejaVuSans-65"/>
      <use x="517.742188" xlink:href="#DejaVuSans-67"/>
      <use x="581.21875" xlink:href="#DejaVuSans-61"/>
      <use x="642.498047" xlink:href="#DejaVuSans-74"/>
      <use x="681.707031" xlink:href="#DejaVuSans-69"/>
      <use x="709.490234" xlink:href="#DejaVuSans-6f"/>
      <use x="770.671875" xlink:href="#DejaVuSans-6e"/>
      <use x="834.050781" xlink:href="#DejaVuSans-73"/>
      <use x="886.150391" xlink:href="#DejaVuSans-3a"/>
      <use x="919.841797" xlink:href="#DejaVuSans-20"/>
      <use x="951.628906" xlink:href="#DejaVuSans-28"/>
      <use x="990.642578" xlink:href="#DejaVuSans-6e"/>
      <use x="1054.021484" xlink:href="#DejaVuSans-65"/>
      <use x="1115.544922" xlink:href="#DejaVuSans-76"/>
      <use x="1174.724609" xlink:href="#DejaVuSans-65"/>
      <use x="1236.248047" xlink:href="#DejaVuSans-72"/>
      <use x="1277.361328" xlink:href="#DejaVuSans-2c"/>
      <use x="1309.148438" xlink:href="#DejaVuSans-29"/>
     </g>
    </g>
   </g>
   <g id="text_2">
    <g id="patch_8">
     <path clip-path="url(#p056dbe1bbb)" d="M 516.759256 257.03267 
L 661.081131 257.03267 
Q 664.081131 257.03267 664.081131 254.03267 
L 664.081131 244.07642 
Q 664.081131 241.07642 661.081131 241.07642 
L 516.759256 241.07642 
Q 513.759256 241.07642 513.759256 244.07642 
L 513.759256 254.03267 
Q 513.759256 257.03267 516.759256 257.03267 
z
" style="fill:#ffffff;stroke:#ffffff;stroke-linejoin:miter;"/>
    </g>
    <g clip-path="url(#p056dbe1bbb)">
     <!-- shared_negations: (nothing,) -->
     <g transform="translate(516.759256 251.674858)scale(0.1 -0.1)">
      <use xlink:href="#DejaVuSans-73"/>
      <use x="52.099609" xlink:href="#DejaVuSans-68"/>
      <use x="115.478516" xlink:href="#DejaVuSans-61"/>
      <use x="176.757812" xlink:href="#DejaVuSans-72"/>
      <use x="217.839844" xlink:href="#DejaVuSans-65"/>
      <use x="279.363281" xlink:href="#DejaVuSans-64"/>
      <use x="342.839844" xlink:href="#DejaVuSans-5f"/>
      <use x="392.839844" xlink:href="#DejaVuSans-6e"/>
      <use x="456.21875" xlink:href="#DejaVuSans-65"/>
      <use x="517.742188" xlink:href="#DejaVuSans-67"/>
      <use x="581.21875" xlink:href="#DejaVuSans-61"/>
      <use x="642.498047" xlink:href="#DejaVuSans-74"/>
      <use x="681.707031" xlink:href="#DejaVuSans-69"/>
      <use x="709.490234" xlink:href="#DejaVuSans-6f"/>
      <use x="770.671875" xlink:href="#DejaVuSans-6e"/>
      <use x="834.050781" xlink:href="#DejaVuSans-73"/>
      <use x="886.150391" xlink:href="#DejaVuSans-3a"/>
      <use x="919.841797" xlink:href="#DejaVuSans-20"/>
      <use x="951.628906" xlink:href="#DejaVuSans-28"/>
      <use x="990.642578" xlink:href="#DejaVuSans-6e"/>
      <use x="1054.021484" xlink:href="#DejaVuSans-6f"/>
      <use x="1115.203125" xlink:href="#DejaVuSans-74"/>
      <use x="1154.412109" xlink:href="#DejaVuSans-68"/>
      <use x="1217.791016" xlink:href="#DejaVuSans-69"/>
      <use x="1245.574219" xlink:href="#DejaVuSans-6e"/>
      <use x="1308.953125" xlink:href="#DejaVuSans-67"/>
      <use x="1372.429688" xlink:href="#DejaVuSans-2c"/>
      <use x="1404.216797" xlink:href="#DejaVuSans-29"/>
     </g>
    </g>
   </g>
   <g id="text_3">
    <g id="patch_9">
     <path clip-path="url(#p056dbe1bbb)" d="M 671.602575 257.03267 
L 816.685387 257.03267 
Q 819.685387 257.03267 819.685387 254.03267 
L 819.685387 244.07642 
Q 819.685387 241.07642 816.685387 241.07642 
L 671.602575 241.07642 
Q 668.602575 241.07642 668.602575 244.07642 
L 668.602575 254.03267 
Q 668.602575 257.03267 671.602575 257.03267 
z
" style="fill:#ffffff;stroke:#ffffff;stroke-linejoin:miter;"/>
    </g>
    <g clip-path="url(#p056dbe1bbb)">
     <!-- shared_negations: (prevent,) -->
     <defs>
      <path d="M 18.109375 8.203125 
L 18.109375 -20.796875 
L 9.078125 -20.796875 
L 9.078125 54.6875 
L 18.109375 54.6875 
L 18.109375 46.390625 
Q 20.953125 51.265625 25.265625 53.625 
Q 29.59375 56 35.59375 56 
Q 45.5625 56 51.78125 48.09375 
Q 58.015625 40.1875 58.015625 27.296875 
Q 58.015625 14.40625 51.78125 6.484375 
Q 45.5625 -1.421875 35.59375 -1.421875 
Q 29.59375 -1.421875 25.265625 0.953125 
Q 20.953125 3.328125 18.109375 8.203125 
z
M 48.6875 27.296875 
Q 48.6875 37.203125 44.609375 42.84375 
Q 40.53125 48.484375 33.40625 48.484375 
Q 26.265625 48.484375 22.1875 42.84375 
Q 18.109375 37.203125 18.109375 27.296875 
Q 18.109375 17.390625 22.1875 11.75 
Q 26.265625 6.109375 33.40625 6.109375 
Q 40.53125 6.109375 44.609375 11.75 
Q 48.6875 17.390625 48.6875 27.296875 
z
" id="DejaVuSans-70"/>
     </defs>
     <g transform="translate(671.602575 251.674858)scale(0.1 -0.1)">
      <use xlink:href="#DejaVuSans-73"/>
      <use x="52.099609" xlink:href="#DejaVuSans-68"/>
      <use x="115.478516" xlink:href="#DejaVuSans-61"/>
      <use x="176.757812" xlink:href="#DejaVuSans-72"/>
      <use x="217.839844" xlink:href="#DejaVuSans-65"/>
      <use x="279.363281" xlink:href="#DejaVuSans-64"/>
      <use x="342.839844" xlink:href="#DejaVuSans-5f"/>
      <use x="392.839844" xlink:href="#DejaVuSans-6e"/>
      <use x="456.21875" xlink:href="#DejaVuSans-65"/>
      <use x="517.742188" xlink:href="#DejaVuSans-67"/>
      <use x="581.21875" xlink:href="#DejaVuSans-61"/>
      <use x="642.498047" xlink:href="#DejaVuSans-74"/>
      <use x="681.707031" xlink:href="#DejaVuSans-69"/>
      <use x="709.490234" xlink:href="#DejaVuSans-6f"/>
      <use x="770.671875" xlink:href="#DejaVuSans-6e"/>
      <use x="834.050781" xlink:href="#DejaVuSans-73"/>
      <use x="886.150391" xlink:href="#DejaVuSans-3a"/>
      <use x="919.841797" xlink:href="#DejaVuSans-20"/>
      <use x="951.628906" xlink:href="#DejaVuSans-28"/>
      <use x="990.642578" xlink:href="#DejaVuSans-70"/>
      <use x="1054.119141" xlink:href="#DejaVuSans-72"/>
      <use x="1095.201172" xlink:href="#DejaVuSans-65"/>
      <use x="1156.724609" xlink:href="#DejaVuSans-76"/>
      <use x="1215.904297" xlink:href="#DejaVuSans-65"/>
      <use x="1277.427734" xlink:href="#DejaVuSans-6e"/>
      <use x="1340.806641" xlink:href="#DejaVuSans-74"/>
      <use x="1380.015625" xlink:href="#DejaVuSans-2c"/>
      <use x="1411.802734" xlink:href="#DejaVuSans-29"/>
     </g>
    </g>
   </g>
   <g id="PathCollection_1">
    <defs>
     <path d="M 0 5 
C 1.326016 5 2.597899 4.473168 3.535534 3.535534 
C 4.473168 2.597899 5 1.326016 5 0 
C 5 -1.326016 4.473168 -2.597899 3.535534 -3.535534 
C 2.597899 -4.473168 1.326016 -5 0 -5 
C -1.326016 -5 -2.597899 -4.473168 -3.535534 -3.535534 
C -4.473168 -2.597899 -5 -1.326016 -5 0 
C -5 1.326016 -4.473168 2.597899 -3.535534 3.535534 
C -2.597899 4.473168 -1.326016 5 0 5 
z
" id="m78ab85b9c6" style="stroke:#0000ff;"/>
    </defs>
    <g clip-path="url(#p056dbe1bbb)">
     <use style="fill:#0000ff;stroke:#0000ff;" x="588.920193" xlink:href="#m78ab85b9c6" y="134.509091"/>
     <use style="fill:#0000ff;stroke:#0000ff;" x="207.632231" xlink:href="#m78ab85b9c6" y="363.6"/>
     <use style="fill:#0000ff;stroke:#0000ff;" x="588.920193" xlink:href="#m78ab85b9c6" y="363.6"/>
     <use style="fill:#0000ff;stroke:#0000ff;" x="899.367769" xlink:href="#m78ab85b9c6" y="363.6"/>
     <use style="fill:#0000ff;stroke:#0000ff;" x="899.367769" xlink:href="#m78ab85b9c6" y="592.690909"/>
     <use style="fill:#0000ff;stroke:#0000ff;" x="588.920193" xlink:href="#m78ab85b9c6" y="592.690909"/>
    </g>
   </g>
   <g id="text_4">
    <g clip-path="url(#p056dbe1bbb)">
     <!-- 224  Though , however , the -->
     <defs>
      <path d="M 19.1875 8.296875 
L 53.609375 8.296875 
L 53.609375 0 
L 7.328125 0 
L 7.328125 8.296875 
Q 12.9375 14.109375 22.625 23.890625 
Q 32.328125 33.6875 34.8125 36.53125 
Q 39.546875 41.84375 41.421875 45.53125 
Q 43.3125 49.21875 43.3125 52.78125 
Q 43.3125 58.59375 39.234375 62.25 
Q 35.15625 65.921875 28.609375 65.921875 
Q 23.96875 65.921875 18.8125 64.3125 
Q 13.671875 62.703125 7.8125 59.421875 
L 7.8125 69.390625 
Q 13.765625 71.78125 18.9375 73 
Q 24.125 74.21875 28.421875 74.21875 
Q 39.75 74.21875 46.484375 68.546875 
Q 53.21875 62.890625 53.21875 53.421875 
Q 53.21875 48.921875 51.53125 44.890625 
Q 49.859375 40.875 45.40625 35.40625 
Q 44.1875 33.984375 37.640625 27.21875 
Q 31.109375 20.453125 19.1875 8.296875 
z
" id="DejaVuSans-32"/>
      <path d="M 37.796875 64.3125 
L 12.890625 25.390625 
L 37.796875 25.390625 
z
M 35.203125 72.90625 
L 47.609375 72.90625 
L 47.609375 25.390625 
L 58.015625 25.390625 
L 58.015625 17.1875 
L 47.609375 17.1875 
L 47.609375 0 
L 37.796875 0 
L 37.796875 17.1875 
L 4.890625 17.1875 
L 4.890625 26.703125 
z
" id="DejaVuSans-34"/>
      <path d="M -0.296875 72.90625 
L 61.375 72.90625 
L 61.375 64.59375 
L 35.5 64.59375 
L 35.5 0 
L 25.59375 0 
L 25.59375 64.59375 
L -0.296875 64.59375 
z
" id="DejaVuSans-54"/>
      <path d="M 8.5 21.578125 
L 8.5 54.6875 
L 17.484375 54.6875 
L 17.484375 21.921875 
Q 17.484375 14.15625 20.5 10.265625 
Q 23.53125 6.390625 29.59375 6.390625 
Q 36.859375 6.390625 41.078125 11.03125 
Q 45.3125 15.671875 45.3125 23.6875 
L 45.3125 54.6875 
L 54.296875 54.6875 
L 54.296875 0 
L 45.3125 0 
L 45.3125 8.40625 
Q 42.046875 3.421875 37.71875 1 
Q 33.40625 -1.421875 27.6875 -1.421875 
Q 18.265625 -1.421875 13.375 4.4375 
Q 8.5 10.296875 8.5 21.578125 
z
M 31.109375 56 
z
" id="DejaVuSans-75"/>
      <path d="M 4.203125 54.6875 
L 13.1875 54.6875 
L 24.421875 12.015625 
L 35.59375 54.6875 
L 46.1875 54.6875 
L 57.421875 12.015625 
L 68.609375 54.6875 
L 77.59375 54.6875 
L 63.28125 0 
L 52.6875 0 
L 40.921875 44.828125 
L 29.109375 0 
L 18.5 0 
z
" id="DejaVuSans-77"/>
     </defs>
     <g transform="translate(518.179568 114.872841)scale(0.1 -0.1)">
      <use xlink:href="#DejaVuSans-32"/>
      <use x="63.623047" xlink:href="#DejaVuSans-32"/>
      <use x="127.246094" xlink:href="#DejaVuSans-34"/>
      <use x="190.869141" xlink:href="#DejaVuSans-20"/>
      <use x="222.65625" xlink:href="#DejaVuSans-20"/>
      <use x="254.443359" xlink:href="#DejaVuSans-54"/>
      <use x="315.527344" xlink:href="#DejaVuSans-68"/>
      <use x="378.90625" xlink:href="#DejaVuSans-6f"/>
      <use x="440.087891" xlink:href="#DejaVuSans-75"/>
      <use x="503.466797" xlink:href="#DejaVuSans-67"/>
      <use x="566.943359" xlink:href="#DejaVuSans-68"/>
      <use x="630.322266" xlink:href="#DejaVuSans-20"/>
      <use x="662.109375" xlink:href="#DejaVuSans-2c"/>
      <use x="693.896484" xlink:href="#DejaVuSans-20"/>
      <use x="725.683594" xlink:href="#DejaVuSans-68"/>
      <use x="789.0625" xlink:href="#DejaVuSans-6f"/>
      <use x="850.244141" xlink:href="#DejaVuSans-77"/>
      <use x="932.03125" xlink:href="#DejaVuSans-65"/>
      <use x="993.554688" xlink:href="#DejaVuSans-76"/>
      <use x="1052.734375" xlink:href="#DejaVuSans-65"/>
      <use x="1114.257812" xlink:href="#DejaVuSans-72"/>
      <use x="1155.371094" xlink:href="#DejaVuSans-20"/>
      <use x="1187.158203" xlink:href="#DejaVuSans-2c"/>
      <use x="1218.945312" xlink:href="#DejaVuSans-20"/>
      <use x="1250.732422" xlink:href="#DejaVuSans-74"/>
      <use x="1289.941406" xlink:href="#DejaVuSans-68"/>
      <use x="1353.320312" xlink:href="#DejaVuSans-65"/>
     </g>
    </g>
    <g clip-path="url(#p056dbe1bbb)">
     <!-- definition is never predicable -->
     <defs>
      <path d="M 37.109375 75.984375 
L 37.109375 68.5 
L 28.515625 68.5 
Q 23.6875 68.5 21.796875 66.546875 
Q 19.921875 64.59375 19.921875 59.515625 
L 19.921875 54.6875 
L 34.71875 54.6875 
L 34.71875 47.703125 
L 19.921875 47.703125 
L 19.921875 0 
L 10.890625 0 
L 10.890625 47.703125 
L 2.296875 47.703125 
L 2.296875 54.6875 
L 10.890625 54.6875 
L 10.890625 58.5 
Q 10.890625 67.625 15.140625 71.796875 
Q 19.390625 75.984375 28.609375 75.984375 
z
" id="DejaVuSans-66"/>
      <path d="M 48.78125 52.59375 
L 48.78125 44.1875 
Q 44.96875 46.296875 41.140625 47.34375 
Q 37.3125 48.390625 33.40625 48.390625 
Q 24.65625 48.390625 19.8125 42.84375 
Q 14.984375 37.3125 14.984375 27.296875 
Q 14.984375 17.28125 19.8125 11.734375 
Q 24.65625 6.203125 33.40625 6.203125 
Q 37.3125 6.203125 41.140625 7.25 
Q 44.96875 8.296875 48.78125 10.40625 
L 48.78125 2.09375 
Q 45.015625 0.34375 40.984375 -0.53125 
Q 36.96875 -1.421875 32.421875 -1.421875 
Q 20.0625 -1.421875 12.78125 6.34375 
Q 5.515625 14.109375 5.515625 27.296875 
Q 5.515625 40.671875 12.859375 48.328125 
Q 20.21875 56 33.015625 56 
Q 37.15625 56 41.109375 55.140625 
Q 45.0625 54.296875 48.78125 52.59375 
z
" id="DejaVuSans-63"/>
      <path d="M 48.6875 27.296875 
Q 48.6875 37.203125 44.609375 42.84375 
Q 40.53125 48.484375 33.40625 48.484375 
Q 26.265625 48.484375 22.1875 42.84375 
Q 18.109375 37.203125 18.109375 27.296875 
Q 18.109375 17.390625 22.1875 11.75 
Q 26.265625 6.109375 33.40625 6.109375 
Q 40.53125 6.109375 44.609375 11.75 
Q 48.6875 17.390625 48.6875 27.296875 
z
M 18.109375 46.390625 
Q 20.953125 51.265625 25.265625 53.625 
Q 29.59375 56 35.59375 56 
Q 45.5625 56 51.78125 48.09375 
Q 58.015625 40.1875 58.015625 27.296875 
Q 58.015625 14.40625 51.78125 6.484375 
Q 45.5625 -1.421875 35.59375 -1.421875 
Q 29.59375 -1.421875 25.265625 0.953125 
Q 20.953125 3.328125 18.109375 8.203125 
L 18.109375 0 
L 9.078125 0 
L 9.078125 75.984375 
L 18.109375 75.984375 
z
" id="DejaVuSans-62"/>
      <path d="M 9.421875 75.984375 
L 18.40625 75.984375 
L 18.40625 0 
L 9.421875 0 
z
" id="DejaVuSans-6c"/>
     </defs>
     <g transform="translate(515.966287 126.070653)scale(0.1 -0.1)">
      <use xlink:href="#DejaVuSans-64"/>
      <use x="63.476562" xlink:href="#DejaVuSans-65"/>
      <use x="125" xlink:href="#DejaVuSans-66"/>
      <use x="160.205078" xlink:href="#DejaVuSans-69"/>
      <use x="187.988281" xlink:href="#DejaVuSans-6e"/>
      <use x="251.367188" xlink:href="#DejaVuSans-69"/>
      <use x="279.150391" xlink:href="#DejaVuSans-74"/>
      <use x="318.359375" xlink:href="#DejaVuSans-69"/>
      <use x="346.142578" xlink:href="#DejaVuSans-6f"/>
      <use x="407.324219" xlink:href="#DejaVuSans-6e"/>
      <use x="470.703125" xlink:href="#DejaVuSans-20"/>
      <use x="502.490234" xlink:href="#DejaVuSans-69"/>
      <use x="530.273438" xlink:href="#DejaVuSans-73"/>
      <use x="582.373047" xlink:href="#DejaVuSans-20"/>
      <use x="614.160156" xlink:href="#DejaVuSans-6e"/>
      <use x="677.539062" xlink:href="#DejaVuSans-65"/>
      <use x="739.0625" xlink:href="#DejaVuSans-76"/>
      <use x="798.242188" xlink:href="#DejaVuSans-65"/>
      <use x="859.765625" xlink:href="#DejaVuSans-72"/>
      <use x="900.878906" xlink:href="#DejaVuSans-20"/>
      <use x="932.666016" xlink:href="#DejaVuSans-70"/>
      <use x="996.142578" xlink:href="#DejaVuSans-72"/>
      <use x="1037.224609" xlink:href="#DejaVuSans-65"/>
      <use x="1098.748047" xlink:href="#DejaVuSans-64"/>
      <use x="1162.224609" xlink:href="#DejaVuSans-69"/>
      <use x="1190.007812" xlink:href="#DejaVuSans-63"/>
      <use x="1244.988281" xlink:href="#DejaVuSans-61"/>
      <use x="1306.267578" xlink:href="#DejaVuSans-62"/>
      <use x="1369.744141" xlink:href="#DejaVuSans-6c"/>
      <use x="1397.527344" xlink:href="#DejaVuSans-65"/>
     </g>
    </g>
    <g clip-path="url(#p056dbe1bbb)">
     <!-- , there is nothing in certain -->
     <g transform="translate(520.945974 137.268466)scale(0.1 -0.1)">
      <use xlink:href="#DejaVuSans-2c"/>
      <use x="31.787109" xlink:href="#DejaVuSans-20"/>
      <use x="63.574219" xlink:href="#DejaVuSans-74"/>
      <use x="102.783203" xlink:href="#DejaVuSans-68"/>
      <use x="166.162109" xlink:href="#DejaVuSans-65"/>
      <use x="227.685547" xlink:href="#DejaVuSans-72"/>
      <use x="268.767578" xlink:href="#DejaVuSans-65"/>
      <use x="330.291016" xlink:href="#DejaVuSans-20"/>
      <use x="362.078125" xlink:href="#DejaVuSans-69"/>
      <use x="389.861328" xlink:href="#DejaVuSans-73"/>
      <use x="441.960938" xlink:href="#DejaVuSans-20"/>
      <use x="473.748047" xlink:href="#DejaVuSans-6e"/>
      <use x="537.126953" xlink:href="#DejaVuSans-6f"/>
      <use x="598.308594" xlink:href="#DejaVuSans-74"/>
      <use x="637.517578" xlink:href="#DejaVuSans-68"/>
      <use x="700.896484" xlink:href="#DejaVuSans-69"/>
      <use x="728.679688" xlink:href="#DejaVuSans-6e"/>
      <use x="792.058594" xlink:href="#DejaVuSans-67"/>
      <use x="855.535156" xlink:href="#DejaVuSans-20"/>
      <use x="887.322266" xlink:href="#DejaVuSans-69"/>
      <use x="915.105469" xlink:href="#DejaVuSans-6e"/>
      <use x="978.484375" xlink:href="#DejaVuSans-20"/>
      <use x="1010.271484" xlink:href="#DejaVuSans-63"/>
      <use x="1065.251953" xlink:href="#DejaVuSans-65"/>
      <use x="1126.775391" xlink:href="#DejaVuSans-72"/>
      <use x="1167.888672" xlink:href="#DejaVuSans-74"/>
      <use x="1207.097656" xlink:href="#DejaVuSans-61"/>
      <use x="1268.376953" xlink:href="#DejaVuSans-69"/>
      <use x="1296.160156" xlink:href="#DejaVuSans-6e"/>
     </g>
    </g>
    <g clip-path="url(#p056dbe1bbb)">
     <!-- cases to prevent the name -->
     <defs>
      <path d="M 52 44.1875 
Q 55.375 50.25 60.0625 53.125 
Q 64.75 56 71.09375 56 
Q 79.640625 56 84.28125 50.015625 
Q 88.921875 44.046875 88.921875 33.015625 
L 88.921875 0 
L 79.890625 0 
L 79.890625 32.71875 
Q 79.890625 40.578125 77.09375 44.375 
Q 74.3125 48.1875 68.609375 48.1875 
Q 61.625 48.1875 57.5625 43.546875 
Q 53.515625 38.921875 53.515625 30.90625 
L 53.515625 0 
L 44.484375 0 
L 44.484375 32.71875 
Q 44.484375 40.625 41.703125 44.40625 
Q 38.921875 48.1875 33.109375 48.1875 
Q 26.21875 48.1875 22.15625 43.53125 
Q 18.109375 38.875 18.109375 30.90625 
L 18.109375 0 
L 9.078125 0 
L 9.078125 54.6875 
L 18.109375 54.6875 
L 18.109375 46.1875 
Q 21.1875 51.21875 25.484375 53.609375 
Q 29.78125 56 35.6875 56 
Q 41.65625 56 45.828125 52.96875 
Q 50 49.953125 52 44.1875 
z
" id="DejaVuSans-6d"/>
     </defs>
     <g transform="translate(521.590506 148.466278)scale(0.1 -0.1)">
      <use xlink:href="#DejaVuSans-63"/>
      <use x="54.980469" xlink:href="#DejaVuSans-61"/>
      <use x="116.259766" xlink:href="#DejaVuSans-73"/>
      <use x="168.359375" xlink:href="#DejaVuSans-65"/>
      <use x="229.882812" xlink:href="#DejaVuSans-73"/>
      <use x="281.982422" xlink:href="#DejaVuSans-20"/>
      <use x="313.769531" xlink:href="#DejaVuSans-74"/>
      <use x="352.978516" xlink:href="#DejaVuSans-6f"/>
      <use x="414.160156" xlink:href="#DejaVuSans-20"/>
      <use x="445.947266" xlink:href="#DejaVuSans-70"/>
      <use x="509.423828" xlink:href="#DejaVuSans-72"/>
      <use x="550.505859" xlink:href="#DejaVuSans-65"/>
      <use x="612.029297" xlink:href="#DejaVuSans-76"/>
      <use x="671.208984" xlink:href="#DejaVuSans-65"/>
      <use x="732.732422" xlink:href="#DejaVuSans-6e"/>
      <use x="796.111328" xlink:href="#DejaVuSans-74"/>
      <use x="835.320312" xlink:href="#DejaVuSans-20"/>
      <use x="867.107422" xlink:href="#DejaVuSans-74"/>
      <use x="906.316406" xlink:href="#DejaVuSans-68"/>
      <use x="969.695312" xlink:href="#DejaVuSans-65"/>
      <use x="1031.21875" xlink:href="#DejaVuSans-20"/>
      <use x="1063.005859" xlink:href="#DejaVuSans-6e"/>
      <use x="1126.384766" xlink:href="#DejaVuSans-61"/>
      <use x="1187.664062" xlink:href="#DejaVuSans-6d"/>
      <use x="1285.076172" xlink:href="#DejaVuSans-65"/>
     </g>
    </g>
    <g clip-path="url(#p056dbe1bbb)">
     <!-- being used . -->
     <defs>
      <path d="M 10.6875 12.40625 
L 21 12.40625 
L 21 0 
L 10.6875 0 
z
" id="DejaVuSans-2e"/>
     </defs>
     <g transform="translate(558.145974 159.664091)scale(0.1 -0.1)">
      <use xlink:href="#DejaVuSans-62"/>
      <use x="63.476562" xlink:href="#DejaVuSans-65"/>
      <use x="125" xlink:href="#DejaVuSans-69"/>
      <use x="152.783203" xlink:href="#DejaVuSans-6e"/>
      <use x="216.162109" xlink:href="#DejaVuSans-67"/>
      <use x="279.638672" xlink:href="#DejaVuSans-20"/>
      <use x="311.425781" xlink:href="#DejaVuSans-75"/>
      <use x="374.804688" xlink:href="#DejaVuSans-73"/>
      <use x="426.904297" xlink:href="#DejaVuSans-65"/>
      <use x="488.427734" xlink:href="#DejaVuSans-64"/>
      <use x="551.904297" xlink:href="#DejaVuSans-20"/>
      <use x="583.691406" xlink:href="#DejaVuSans-2e"/>
     </g>
    </g>
   </g>
   <g id="text_5">
    <g clip-path="url(#p056dbe1bbb)">
     <!-- 220  Though however the -->
     <defs>
      <path d="M 31.78125 66.40625 
Q 24.171875 66.40625 20.328125 58.90625 
Q 16.5 51.421875 16.5 36.375 
Q 16.5 21.390625 20.328125 13.890625 
Q 24.171875 6.390625 31.78125 6.390625 
Q 39.453125 6.390625 43.28125 13.890625 
Q 47.125 21.390625 47.125 36.375 
Q 47.125 51.421875 43.28125 58.90625 
Q 39.453125 66.40625 31.78125 66.40625 
z
M 31.78125 74.21875 
Q 44.046875 74.21875 50.515625 64.515625 
Q 56.984375 54.828125 56.984375 36.375 
Q 56.984375 17.96875 50.515625 8.265625 
Q 44.046875 -1.421875 31.78125 -1.421875 
Q 19.53125 -1.421875 13.0625 8.265625 
Q 6.59375 17.96875 6.59375 36.375 
Q 6.59375 54.828125 13.0625 64.515625 
Q 19.53125 74.21875 31.78125 74.21875 
z
" id="DejaVuSans-30"/>
     </defs>
     <g transform="translate(143.247856 360.760469)scale(0.1 -0.1)">
      <use xlink:href="#DejaVuSans-32"/>
      <use x="63.623047" xlink:href="#DejaVuSans-32"/>
      <use x="127.246094" xlink:href="#DejaVuSans-30"/>
      <use x="190.869141" xlink:href="#DejaVuSans-20"/>
      <use x="222.65625" xlink:href="#DejaVuSans-20"/>
      <use x="254.443359" xlink:href="#DejaVuSans-54"/>
      <use x="315.527344" xlink:href="#DejaVuSans-68"/>
      <use x="378.90625" xlink:href="#DejaVuSans-6f"/>
      <use x="440.087891" xlink:href="#DejaVuSans-75"/>
      <use x="503.466797" xlink:href="#DejaVuSans-67"/>
      <use x="566.943359" xlink:href="#DejaVuSans-68"/>
      <use x="630.322266" xlink:href="#DejaVuSans-20"/>
      <use x="662.109375" xlink:href="#DejaVuSans-68"/>
      <use x="725.488281" xlink:href="#DejaVuSans-6f"/>
      <use x="786.669922" xlink:href="#DejaVuSans-77"/>
      <use x="868.457031" xlink:href="#DejaVuSans-65"/>
      <use x="929.980469" xlink:href="#DejaVuSans-76"/>
      <use x="989.160156" xlink:href="#DejaVuSans-65"/>
      <use x="1050.683594" xlink:href="#DejaVuSans-72"/>
      <use x="1091.796875" xlink:href="#DejaVuSans-20"/>
      <use x="1123.583984" xlink:href="#DejaVuSans-74"/>
      <use x="1162.792969" xlink:href="#DejaVuSans-68"/>
      <use x="1226.171875" xlink:href="#DejaVuSans-65"/>
     </g>
    </g>
    <g clip-path="url(#p056dbe1bbb)">
     <!-- definition is never predicable -->
     <g transform="translate(134.678325 371.958281)scale(0.1 -0.1)">
      <use xlink:href="#DejaVuSans-64"/>
      <use x="63.476562" xlink:href="#DejaVuSans-65"/>
      <use x="125" xlink:href="#DejaVuSans-66"/>
      <use x="160.205078" xlink:href="#DejaVuSans-69"/>
      <use x="187.988281" xlink:href="#DejaVuSans-6e"/>
      <use x="251.367188" xlink:href="#DejaVuSans-69"/>
      <use x="279.150391" xlink:href="#DejaVuSans-74"/>
      <use x="318.359375" xlink:href="#DejaVuSans-69"/>
      <use x="346.142578" xlink:href="#DejaVuSans-6f"/>
      <use x="407.324219" xlink:href="#DejaVuSans-6e"/>
      <use x="470.703125" xlink:href="#DejaVuSans-20"/>
      <use x="502.490234" xlink:href="#DejaVuSans-69"/>
      <use x="530.273438" xlink:href="#DejaVuSans-73"/>
      <use x="582.373047" xlink:href="#DejaVuSans-20"/>
      <use x="614.160156" xlink:href="#DejaVuSans-6e"/>
      <use x="677.539062" xlink:href="#DejaVuSans-65"/>
      <use x="739.0625" xlink:href="#DejaVuSans-76"/>
      <use x="798.242188" xlink:href="#DejaVuSans-65"/>
      <use x="859.765625" xlink:href="#DejaVuSans-72"/>
      <use x="900.878906" xlink:href="#DejaVuSans-20"/>
      <use x="932.666016" xlink:href="#DejaVuSans-70"/>
      <use x="996.142578" xlink:href="#DejaVuSans-72"/>
      <use x="1037.224609" xlink:href="#DejaVuSans-65"/>
      <use x="1098.748047" xlink:href="#DejaVuSans-64"/>
      <use x="1162.224609" xlink:href="#DejaVuSans-69"/>
      <use x="1190.007812" xlink:href="#DejaVuSans-63"/>
      <use x="1244.988281" xlink:href="#DejaVuSans-61"/>
      <use x="1306.267578" xlink:href="#DejaVuSans-62"/>
      <use x="1369.744141" xlink:href="#DejaVuSans-6c"/>
      <use x="1397.527344" xlink:href="#DejaVuSans-65"/>
     </g>
    </g>
   </g>
   <g id="text_6">
    <g clip-path="url(#p056dbe1bbb)">
     <!-- 221  there is nothing in -->
     <defs>
      <path d="M 12.40625 8.296875 
L 28.515625 8.296875 
L 28.515625 63.921875 
L 10.984375 60.40625 
L 10.984375 69.390625 
L 28.421875 72.90625 
L 38.28125 72.90625 
L 38.28125 8.296875 
L 54.390625 8.296875 
L 54.390625 0 
L 12.40625 0 
z
" id="DejaVuSans-31"/>
     </defs>
     <g transform="translate(530.454568 360.760469)scale(0.1 -0.1)">
      <use xlink:href="#DejaVuSans-32"/>
      <use x="63.623047" xlink:href="#DejaVuSans-32"/>
      <use x="127.246094" xlink:href="#DejaVuSans-31"/>
      <use x="190.869141" xlink:href="#DejaVuSans-20"/>
      <use x="222.65625" xlink:href="#DejaVuSans-20"/>
      <use x="254.443359" xlink:href="#DejaVuSans-74"/>
      <use x="293.652344" xlink:href="#DejaVuSans-68"/>
      <use x="357.03125" xlink:href="#DejaVuSans-65"/>
      <use x="418.554688" xlink:href="#DejaVuSans-72"/>
      <use x="459.636719" xlink:href="#DejaVuSans-65"/>
      <use x="521.160156" xlink:href="#DejaVuSans-20"/>
      <use x="552.947266" xlink:href="#DejaVuSans-69"/>
      <use x="580.730469" xlink:href="#DejaVuSans-73"/>
      <use x="632.830078" xlink:href="#DejaVuSans-20"/>
      <use x="664.617188" xlink:href="#DejaVuSans-6e"/>
      <use x="727.996094" xlink:href="#DejaVuSans-6f"/>
      <use x="789.177734" xlink:href="#DejaVuSans-74"/>
      <use x="828.386719" xlink:href="#DejaVuSans-68"/>
      <use x="891.765625" xlink:href="#DejaVuSans-69"/>
      <use x="919.548828" xlink:href="#DejaVuSans-6e"/>
      <use x="982.927734" xlink:href="#DejaVuSans-67"/>
      <use x="1046.404297" xlink:href="#DejaVuSans-20"/>
      <use x="1078.191406" xlink:href="#DejaVuSans-69"/>
      <use x="1105.974609" xlink:href="#DejaVuSans-6e"/>
     </g>
    </g>
    <g clip-path="url(#p056dbe1bbb)">
     <!-- certain cases -->
     <g transform="translate(555.768631 371.958281)scale(0.1 -0.1)">
      <use xlink:href="#DejaVuSans-63"/>
      <use x="54.980469" xlink:href="#DejaVuSans-65"/>
      <use x="116.503906" xlink:href="#DejaVuSans-72"/>
      <use x="157.617188" xlink:href="#DejaVuSans-74"/>
      <use x="196.826172" xlink:href="#DejaVuSans-61"/>
      <use x="258.105469" xlink:href="#DejaVuSans-69"/>
      <use x="285.888672" xlink:href="#DejaVuSans-6e"/>
      <use x="349.267578" xlink:href="#DejaVuSans-20"/>
      <use x="381.054688" xlink:href="#DejaVuSans-63"/>
      <use x="436.035156" xlink:href="#DejaVuSans-61"/>
      <use x="497.314453" xlink:href="#DejaVuSans-73"/>
      <use x="549.414062" xlink:href="#DejaVuSans-65"/>
      <use x="610.9375" xlink:href="#DejaVuSans-73"/>
     </g>
    </g>
   </g>
   <g id="text_7">
    <g clip-path="url(#p056dbe1bbb)">
     <!-- 222  to prevent the name being -->
     <g transform="translate(819.432612 360.760469)scale(0.1 -0.1)">
      <use xlink:href="#DejaVuSans-32"/>
      <use x="63.623047" xlink:href="#DejaVuSans-32"/>
      <use x="127.246094" xlink:href="#DejaVuSans-32"/>
      <use x="190.869141" xlink:href="#DejaVuSans-20"/>
      <use x="222.65625" xlink:href="#DejaVuSans-20"/>
      <use x="254.443359" xlink:href="#DejaVuSans-74"/>
      <use x="293.652344" xlink:href="#DejaVuSans-6f"/>
      <use x="354.833984" xlink:href="#DejaVuSans-20"/>
      <use x="386.621094" xlink:href="#DejaVuSans-70"/>
      <use x="450.097656" xlink:href="#DejaVuSans-72"/>
      <use x="491.179688" xlink:href="#DejaVuSans-65"/>
      <use x="552.703125" xlink:href="#DejaVuSans-76"/>
      <use x="611.882812" xlink:href="#DejaVuSans-65"/>
      <use x="673.40625" xlink:href="#DejaVuSans-6e"/>
      <use x="736.785156" xlink:href="#DejaVuSans-74"/>
      <use x="775.994141" xlink:href="#DejaVuSans-20"/>
      <use x="807.78125" xlink:href="#DejaVuSans-74"/>
      <use x="846.990234" xlink:href="#DejaVuSans-68"/>
      <use x="910.369141" xlink:href="#DejaVuSans-65"/>
      <use x="971.892578" xlink:href="#DejaVuSans-20"/>
      <use x="1003.679688" xlink:href="#DejaVuSans-6e"/>
      <use x="1067.058594" xlink:href="#DejaVuSans-61"/>
      <use x="1128.337891" xlink:href="#DejaVuSans-6d"/>
      <use x="1225.75" xlink:href="#DejaVuSans-65"/>
      <use x="1287.273438" xlink:href="#DejaVuSans-20"/>
      <use x="1319.060547" xlink:href="#DejaVuSans-62"/>
      <use x="1382.537109" xlink:href="#DejaVuSans-65"/>
      <use x="1444.060547" xlink:href="#DejaVuSans-69"/>
      <use x="1471.84375" xlink:href="#DejaVuSans-6e"/>
      <use x="1535.222656" xlink:href="#DejaVuSans-67"/>
     </g>
    </g>
    <g clip-path="url(#p056dbe1bbb)">
     <!-- used -->
     <g transform="translate(887.34355 371.958281)scale(0.1 -0.1)">
      <use xlink:href="#DejaVuSans-75"/>
      <use x="63.378906" xlink:href="#DejaVuSans-73"/>
      <use x="115.478516" xlink:href="#DejaVuSans-65"/>
      <use x="177.001953" xlink:href="#DejaVuSans-64"/>
     </g>
    </g>
   </g>
   <g id="text_8">
    <g clip-path="url(#p056dbe1bbb)">
     <!-- 223  the name being used -->
     <defs>
      <path d="M 40.578125 39.3125 
Q 47.65625 37.796875 51.625 33 
Q 55.609375 28.21875 55.609375 21.1875 
Q 55.609375 10.40625 48.1875 4.484375 
Q 40.765625 -1.421875 27.09375 -1.421875 
Q 22.515625 -1.421875 17.65625 -0.515625 
Q 12.796875 0.390625 7.625 2.203125 
L 7.625 11.71875 
Q 11.71875 9.328125 16.59375 8.109375 
Q 21.484375 6.890625 26.8125 6.890625 
Q 36.078125 6.890625 40.9375 10.546875 
Q 45.796875 14.203125 45.796875 21.1875 
Q 45.796875 27.640625 41.28125 31.265625 
Q 36.765625 34.90625 28.71875 34.90625 
L 20.21875 34.90625 
L 20.21875 43.015625 
L 29.109375 43.015625 
Q 36.375 43.015625 40.234375 45.921875 
Q 44.09375 48.828125 44.09375 54.296875 
Q 44.09375 59.90625 40.109375 62.90625 
Q 36.140625 65.921875 28.71875 65.921875 
Q 24.65625 65.921875 20.015625 65.03125 
Q 15.375 64.15625 9.8125 62.3125 
L 9.8125 71.09375 
Q 15.4375 72.65625 20.34375 73.4375 
Q 25.25 74.21875 29.59375 74.21875 
Q 40.828125 74.21875 47.359375 69.109375 
Q 53.90625 64.015625 53.90625 55.328125 
Q 53.90625 49.265625 50.4375 45.09375 
Q 46.96875 40.921875 40.578125 39.3125 
z
" id="DejaVuSans-33"/>
     </defs>
     <g transform="translate(833.486519 595.450284)scale(0.1 -0.1)">
      <use xlink:href="#DejaVuSans-32"/>
      <use x="63.623047" xlink:href="#DejaVuSans-32"/>
      <use x="127.246094" xlink:href="#DejaVuSans-33"/>
      <use x="190.869141" xlink:href="#DejaVuSans-20"/>
      <use x="222.65625" xlink:href="#DejaVuSans-20"/>
      <use x="254.443359" xlink:href="#DejaVuSans-74"/>
      <use x="293.652344" xlink:href="#DejaVuSans-68"/>
      <use x="357.03125" xlink:href="#DejaVuSans-65"/>
      <use x="418.554688" xlink:href="#DejaVuSans-20"/>
      <use x="450.341797" xlink:href="#DejaVuSans-6e"/>
      <use x="513.720703" xlink:href="#DejaVuSans-61"/>
      <use x="575" xlink:href="#DejaVuSans-6d"/>
      <use x="672.412109" xlink:href="#DejaVuSans-65"/>
      <use x="733.935547" xlink:href="#DejaVuSans-20"/>
      <use x="765.722656" xlink:href="#DejaVuSans-62"/>
      <use x="829.199219" xlink:href="#DejaVuSans-65"/>
      <use x="890.722656" xlink:href="#DejaVuSans-69"/>
      <use x="918.505859" xlink:href="#DejaVuSans-6e"/>
      <use x="981.884766" xlink:href="#DejaVuSans-67"/>
      <use x="1045.361328" xlink:href="#DejaVuSans-20"/>
      <use x="1077.148438" xlink:href="#DejaVuSans-75"/>
      <use x="1140.527344" xlink:href="#DejaVuSans-73"/>
      <use x="1192.626953" xlink:href="#DejaVuSans-65"/>
      <use x="1254.150391" xlink:href="#DejaVuSans-64"/>
     </g>
    </g>
   </g>
   <g id="text_9">
    <g clip-path="url(#p056dbe1bbb)">
     <!-- 219  certain cases -->
     <defs>
      <path d="M 10.984375 1.515625 
L 10.984375 10.5 
Q 14.703125 8.734375 18.5 7.8125 
Q 22.3125 6.890625 25.984375 6.890625 
Q 35.75 6.890625 40.890625 13.453125 
Q 46.046875 20.015625 46.78125 33.40625 
Q 43.953125 29.203125 39.59375 26.953125 
Q 35.25 24.703125 29.984375 24.703125 
Q 19.046875 24.703125 12.671875 31.3125 
Q 6.296875 37.9375 6.296875 49.421875 
Q 6.296875 60.640625 12.9375 67.421875 
Q 19.578125 74.21875 30.609375 74.21875 
Q 43.265625 74.21875 49.921875 64.515625 
Q 56.59375 54.828125 56.59375 36.375 
Q 56.59375 19.140625 48.40625 8.859375 
Q 40.234375 -1.421875 26.421875 -1.421875 
Q 22.703125 -1.421875 18.890625 -0.6875 
Q 15.09375 0.046875 10.984375 1.515625 
z
M 30.609375 32.421875 
Q 37.25 32.421875 41.125 36.953125 
Q 45.015625 41.5 45.015625 49.421875 
Q 45.015625 57.28125 41.125 61.84375 
Q 37.25 66.40625 30.609375 66.40625 
Q 23.96875 66.40625 20.09375 61.84375 
Q 16.21875 57.28125 16.21875 49.421875 
Q 16.21875 41.5 20.09375 36.953125 
Q 23.96875 32.421875 30.609375 32.421875 
z
" id="DejaVuSans-39"/>
     </defs>
     <g transform="translate(543.046756 595.450284)scale(0.1 -0.1)">
      <use xlink:href="#DejaVuSans-32"/>
      <use x="63.623047" xlink:href="#DejaVuSans-31"/>
      <use x="127.246094" xlink:href="#DejaVuSans-39"/>
      <use x="190.869141" xlink:href="#DejaVuSans-20"/>
      <use x="222.65625" xlink:href="#DejaVuSans-20"/>
      <use x="254.443359" xlink:href="#DejaVuSans-63"/>
      <use x="309.423828" xlink:href="#DejaVuSans-65"/>
      <use x="370.947266" xlink:href="#DejaVuSans-72"/>
      <use x="412.060547" xlink:href="#DejaVuSans-74"/>
      <use x="451.269531" xlink:href="#DejaVuSans-61"/>
      <use x="512.548828" xlink:href="#DejaVuSans-69"/>
      <use x="540.332031" xlink:href="#DejaVuSans-6e"/>
      <use x="603.710938" xlink:href="#DejaVuSans-20"/>
      <use x="635.498047" xlink:href="#DejaVuSans-63"/>
      <use x="690.478516" xlink:href="#DejaVuSans-61"/>
      <use x="751.757812" xlink:href="#DejaVuSans-73"/>
      <use x="803.857422" xlink:href="#DejaVuSans-65"/>
      <use x="865.380859" xlink:href="#DejaVuSans-73"/>
     </g>
    </g>
   </g>
   <g id="text_10">
    <!-- Though , however , the definition is never predicable , there is nothing in certain cases -->
    <g transform="translate(292.124063 12.6505)scale(0.12 -0.12)">
     <use xlink:href="#DejaVuSans-54"/>
     <use x="61.083984" xlink:href="#DejaVuSans-68"/>
     <use x="124.462891" xlink:href="#DejaVuSans-6f"/>
     <use x="185.644531" xlink:href="#DejaVuSans-75"/>
     <use x="249.023438" xlink:href="#DejaVuSans-67"/>
     <use x="312.5" xlink:href="#DejaVuSans-68"/>
     <use x="375.878906" xlink:href="#DejaVuSans-20"/>
     <use x="407.666016" xlink:href="#DejaVuSans-2c"/>
     <use x="439.453125" xlink:href="#DejaVuSans-20"/>
     <use x="471.240234" xlink:href="#DejaVuSans-68"/>
     <use x="534.619141" xlink:href="#DejaVuSans-6f"/>
     <use x="595.800781" xlink:href="#DejaVuSans-77"/>
     <use x="677.587891" xlink:href="#DejaVuSans-65"/>
     <use x="739.111328" xlink:href="#DejaVuSans-76"/>
     <use x="798.291016" xlink:href="#DejaVuSans-65"/>
     <use x="859.814453" xlink:href="#DejaVuSans-72"/>
     <use x="900.927734" xlink:href="#DejaVuSans-20"/>
     <use x="932.714844" xlink:href="#DejaVuSans-2c"/>
     <use x="964.501953" xlink:href="#DejaVuSans-20"/>
     <use x="996.289062" xlink:href="#DejaVuSans-74"/>
     <use x="1035.498047" xlink:href="#DejaVuSans-68"/>
     <use x="1098.876953" xlink:href="#DejaVuSans-65"/>
     <use x="1160.400391" xlink:href="#DejaVuSans-20"/>
     <use x="1192.1875" xlink:href="#DejaVuSans-64"/>
     <use x="1255.664062" xlink:href="#DejaVuSans-65"/>
     <use x="1317.1875" xlink:href="#DejaVuSans-66"/>
     <use x="1352.392578" xlink:href="#DejaVuSans-69"/>
     <use x="1380.175781" xlink:href="#DejaVuSans-6e"/>
     <use x="1443.554688" xlink:href="#DejaVuSans-69"/>
     <use x="1471.337891" xlink:href="#DejaVuSans-74"/>
     <use x="1510.546875" xlink:href="#DejaVuSans-69"/>
     <use x="1538.330078" xlink:href="#DejaVuSans-6f"/>
     <use x="1599.511719" xlink:href="#DejaVuSans-6e"/>
     <use x="1662.890625" xlink:href="#DejaVuSans-20"/>
     <use x="1694.677734" xlink:href="#DejaVuSans-69"/>
     <use x="1722.460938" xlink:href="#DejaVuSans-73"/>
     <use x="1774.560547" xlink:href="#DejaVuSans-20"/>
     <use x="1806.347656" xlink:href="#DejaVuSans-6e"/>
     <use x="1869.726562" xlink:href="#DejaVuSans-65"/>
     <use x="1931.25" xlink:href="#DejaVuSans-76"/>
     <use x="1990.429688" xlink:href="#DejaVuSans-65"/>
     <use x="2051.953125" xlink:href="#DejaVuSans-72"/>
     <use x="2093.066406" xlink:href="#DejaVuSans-20"/>
     <use x="2124.853516" xlink:href="#DejaVuSans-70"/>
     <use x="2188.330078" xlink:href="#DejaVuSans-72"/>
     <use x="2229.412109" xlink:href="#DejaVuSans-65"/>
     <use x="2290.935547" xlink:href="#DejaVuSans-64"/>
     <use x="2354.412109" xlink:href="#DejaVuSans-69"/>
     <use x="2382.195312" xlink:href="#DejaVuSans-63"/>
     <use x="2437.175781" xlink:href="#DejaVuSans-61"/>
     <use x="2498.455078" xlink:href="#DejaVuSans-62"/>
     <use x="2561.931641" xlink:href="#DejaVuSans-6c"/>
     <use x="2589.714844" xlink:href="#DejaVuSans-65"/>
     <use x="2651.238281" xlink:href="#DejaVuSans-20"/>
     <use x="2683.025391" xlink:href="#DejaVuSans-2c"/>
     <use x="2714.8125" xlink:href="#DejaVuSans-20"/>
     <use x="2746.599609" xlink:href="#DejaVuSans-74"/>
     <use x="2785.808594" xlink:href="#DejaVuSans-68"/>
     <use x="2849.1875" xlink:href="#DejaVuSans-65"/>
     <use x="2910.710938" xlink:href="#DejaVuSans-72"/>
     <use x="2951.792969" xlink:href="#DejaVuSans-65"/>
     <use x="3013.316406" xlink:href="#DejaVuSans-20"/>
     <use x="3045.103516" xlink:href="#DejaVuSans-69"/>
     <use x="3072.886719" xlink:href="#DejaVuSans-73"/>
     <use x="3124.986328" xlink:href="#DejaVuSans-20"/>
     <use x="3156.773438" xlink:href="#DejaVuSans-6e"/>
     <use x="3220.152344" xlink:href="#DejaVuSans-6f"/>
     <use x="3281.333984" xlink:href="#DejaVuSans-74"/>
     <use x="3320.542969" xlink:href="#DejaVuSans-68"/>
     <use x="3383.921875" xlink:href="#DejaVuSans-69"/>
     <use x="3411.705078" xlink:href="#DejaVuSans-6e"/>
     <use x="3475.083984" xlink:href="#DejaVuSans-67"/>
     <use x="3538.560547" xlink:href="#DejaVuSans-20"/>
     <use x="3570.347656" xlink:href="#DejaVuSans-69"/>
     <use x="3598.130859" xlink:href="#DejaVuSans-6e"/>
     <use x="3661.509766" xlink:href="#DejaVuSans-20"/>
     <use x="3693.296875" xlink:href="#DejaVuSans-63"/>
     <use x="3748.277344" xlink:href="#DejaVuSans-65"/>
     <use x="3809.800781" xlink:href="#DejaVuSans-72"/>
     <use x="3850.914062" xlink:href="#DejaVuSans-74"/>
     <use x="3890.123047" xlink:href="#DejaVuSans-61"/>
     <use x="3951.402344" xlink:href="#DejaVuSans-69"/>
     <use x="3979.185547" xlink:href="#DejaVuSans-6e"/>
     <use x="4042.564453" xlink:href="#DejaVuSans-20"/>
     <use x="4074.351562" xlink:href="#DejaVuSans-63"/>
     <use x="4129.332031" xlink:href="#DejaVuSans-61"/>
     <use x="4190.611328" xlink:href="#DejaVuSans-73"/>
     <use x="4242.710938" xlink:href="#DejaVuSans-65"/>
     <use x="4304.234375" xlink:href="#DejaVuSans-73"/>
    </g>
    <!-- to prevent the name being used . -->
    <g transform="translate(452.694375 26.087875)scale(0.12 -0.12)">
     <use xlink:href="#DejaVuSans-74"/>
     <use x="39.208984" xlink:href="#DejaVuSans-6f"/>
     <use x="100.390625" xlink:href="#DejaVuSans-20"/>
     <use x="132.177734" xlink:href="#DejaVuSans-70"/>
     <use x="195.654297" xlink:href="#DejaVuSans-72"/>
     <use x="236.736328" xlink:href="#DejaVuSans-65"/>
     <use x="298.259766" xlink:href="#DejaVuSans-76"/>
     <use x="357.439453" xlink:href="#DejaVuSans-65"/>
     <use x="418.962891" xlink:href="#DejaVuSans-6e"/>
     <use x="482.341797" xlink:href="#DejaVuSans-74"/>
     <use x="521.550781" xlink:href="#DejaVuSans-20"/>
     <use x="553.337891" xlink:href="#DejaVuSans-74"/>
     <use x="592.546875" xlink:href="#DejaVuSans-68"/>
     <use x="655.925781" xlink:href="#DejaVuSans-65"/>
     <use x="717.449219" xlink:href="#DejaVuSans-20"/>
     <use x="749.236328" xlink:href="#DejaVuSans-6e"/>
     <use x="812.615234" xlink:href="#DejaVuSans-61"/>
     <use x="873.894531" xlink:href="#DejaVuSans-6d"/>
     <use x="971.306641" xlink:href="#DejaVuSans-65"/>
     <use x="1032.830078" xlink:href="#DejaVuSans-20"/>
     <use x="1064.617188" xlink:href="#DejaVuSans-62"/>
     <use x="1128.09375" xlink:href="#DejaVuSans-65"/>
     <use x="1189.617188" xlink:href="#DejaVuSans-69"/>
     <use x="1217.400391" xlink:href="#DejaVuSans-6e"/>
     <use x="1280.779297" xlink:href="#DejaVuSans-67"/>
     <use x="1344.255859" xlink:href="#DejaVuSans-20"/>
     <use x="1376.042969" xlink:href="#DejaVuSans-75"/>
     <use x="1439.421875" xlink:href="#DejaVuSans-73"/>
     <use x="1491.521484" xlink:href="#DejaVuSans-65"/>
     <use x="1553.044922" xlink:href="#DejaVuSans-64"/>
     <use x="1616.521484" xlink:href="#DejaVuSans-20"/>
     <use x="1648.308594" xlink:href="#DejaVuSans-2e"/>
    </g>
    <!-- 219  223  221  222  220  224 -->
    <defs>
     <path d="M 12.890625 0 
L 30.515625 57.90625 
L 42.71875 57.90625 
L 60.296875 0 
L 50.78125 0 
L 36.625 45.90625 
L 22.40625 0 
z
" id="DejaVuSans-2227"/>
     <path d="M 10.59375 42.09375 
L 73.1875 42.09375 
L 73.1875 14.015625 
L 64.984375 14.015625 
L 64.984375 33.796875 
L 10.59375 33.796875 
z
" id="DejaVuSans-ac"/>
    </defs>
    <g transform="translate(428.676562 39.52525)scale(0.12 -0.12)">
     <use xlink:href="#DejaVuSans-32"/>
     <use x="63.623047" xlink:href="#DejaVuSans-31"/>
     <use x="127.246094" xlink:href="#DejaVuSans-39"/>
     <use x="190.869141" xlink:href="#DejaVuSans-20"/>
     <use x="222.65625" xlink:href="#DejaVuSans-2227"/>
     <use x="295.849609" xlink:href="#DejaVuSans-20"/>
     <use x="327.636719" xlink:href="#DejaVuSans-32"/>
     <use x="391.259766" xlink:href="#DejaVuSans-32"/>
     <use x="454.882812" xlink:href="#DejaVuSans-33"/>
     <use x="518.505859" xlink:href="#DejaVuSans-20"/>
     <use x="550.292969" xlink:href="#DejaVuSans-2227"/>
     <use x="623.486328" xlink:href="#DejaVuSans-20"/>
     <use x="655.273438" xlink:href="#DejaVuSans-ac"/>
     <use x="739.0625" xlink:href="#DejaVuSans-32"/>
     <use x="802.685547" xlink:href="#DejaVuSans-32"/>
     <use x="866.308594" xlink:href="#DejaVuSans-31"/>
     <use x="929.931641" xlink:href="#DejaVuSans-20"/>
     <use x="961.71875" xlink:href="#DejaVuSans-2227"/>
     <use x="1034.912109" xlink:href="#DejaVuSans-20"/>
     <use x="1066.699219" xlink:href="#DejaVuSans-ac"/>
     <use x="1150.488281" xlink:href="#DejaVuSans-32"/>
     <use x="1214.111328" xlink:href="#DejaVuSans-32"/>
     <use x="1277.734375" xlink:href="#DejaVuSans-32"/>
     <use x="1341.357422" xlink:href="#DejaVuSans-20"/>
     <use x="1373.144531" xlink:href="#DejaVuSans-2227"/>
     <use x="1446.337891" xlink:href="#DejaVuSans-20"/>
     <use x="1478.125" xlink:href="#DejaVuSans-ac"/>
     <use x="1561.914062" xlink:href="#DejaVuSans-32"/>
     <use x="1625.537109" xlink:href="#DejaVuSans-32"/>
     <use x="1689.160156" xlink:href="#DejaVuSans-30"/>
     <use x="1752.783203" xlink:href="#DejaVuSans-20"/>
     <use x="1784.570312" xlink:href="#DejaVuSans-2227"/>
     <use x="1857.763672" xlink:href="#DejaVuSans-20"/>
     <use x="1889.550781" xlink:href="#DejaVuSans-32"/>
     <use x="1953.173828" xlink:href="#DejaVuSans-32"/>
     <use x="2016.796875" xlink:href="#DejaVuSans-34"/>
    </g>
    <!--  pyprover.logic.Prop('219')&amp; pyprover.logic.Prop('223')&amp;~ pyprover.logic.Prop('221')&amp;~ -->
    <defs>
     <path d="M 32.171875 -5.078125 
Q 28.375 -14.84375 24.75 -17.8125 
Q 21.140625 -20.796875 15.09375 -20.796875 
L 7.90625 -20.796875 
L 7.90625 -13.28125 
L 13.1875 -13.28125 
Q 16.890625 -13.28125 18.9375 -11.515625 
Q 21 -9.765625 23.484375 -3.21875 
L 25.09375 0.875 
L 2.984375 54.6875 
L 12.5 54.6875 
L 29.59375 11.921875 
L 46.6875 54.6875 
L 56.203125 54.6875 
z
" id="DejaVuSans-79"/>
     <path d="M 19.671875 64.796875 
L 19.671875 37.40625 
L 32.078125 37.40625 
Q 38.96875 37.40625 42.71875 40.96875 
Q 46.484375 44.53125 46.484375 51.125 
Q 46.484375 57.671875 42.71875 61.234375 
Q 38.96875 64.796875 32.078125 64.796875 
z
M 9.8125 72.90625 
L 32.078125 72.90625 
Q 44.34375 72.90625 50.609375 67.359375 
Q 56.890625 61.8125 56.890625 51.125 
Q 56.890625 40.328125 50.609375 34.8125 
Q 44.34375 29.296875 32.078125 29.296875 
L 19.671875 29.296875 
L 19.671875 0 
L 9.8125 0 
z
" id="DejaVuSans-50"/>
     <path d="M 17.921875 72.90625 
L 17.921875 45.796875 
L 9.625 45.796875 
L 9.625 72.90625 
z
" id="DejaVuSans-27"/>
     <path d="M 24.3125 39.203125 
Q 19.875 35.25 17.796875 31.3125 
Q 15.71875 27.390625 15.71875 23.09375 
Q 15.71875 15.96875 20.890625 11.234375 
Q 26.078125 6.5 33.890625 6.5 
Q 38.53125 6.5 42.578125 8.03125 
Q 46.625 9.578125 50.203125 12.703125 
z
M 31.203125 44.671875 
L 56 19.28125 
Q 58.890625 23.640625 60.5 28.59375 
Q 62.109375 33.546875 62.40625 39.109375 
L 71.484375 39.109375 
Q 70.90625 32.671875 68.359375 26.359375 
Q 65.828125 20.0625 61.28125 13.921875 
L 74.90625 0 
L 62.59375 0 
L 55.609375 7.171875 
Q 50.53125 2.828125 44.96875 0.703125 
Q 39.40625 -1.421875 33.015625 -1.421875 
Q 21.234375 -1.421875 13.765625 5.296875 
Q 6.296875 12.015625 6.296875 22.515625 
Q 6.296875 28.765625 9.5625 34.25 
Q 12.84375 39.75 19.390625 44.578125 
Q 17.046875 47.65625 15.8125 50.703125 
Q 14.59375 53.765625 14.59375 56.6875 
Q 14.59375 64.59375 20.015625 69.40625 
Q 25.4375 74.21875 34.421875 74.21875 
Q 38.484375 74.21875 42.5 73.34375 
Q 46.53125 72.46875 50.6875 70.703125 
L 50.6875 61.8125 
Q 46.4375 64.109375 42.578125 65.296875 
Q 38.71875 66.5 35.40625 66.5 
Q 30.28125 66.5 27.078125 63.78125 
Q 23.875 61.078125 23.875 56.78125 
Q 23.875 54.296875 25.3125 51.78125 
Q 26.765625 49.265625 31.203125 44.671875 
z
" id="DejaVuSans-26"/>
     <path d="M 73.1875 39.890625 
L 73.1875 31.203125 
Q 68.0625 27.34375 63.6875 25.6875 
Q 59.328125 24.03125 54.59375 24.03125 
Q 49.21875 24.03125 42.09375 26.90625 
Q 41.546875 27.09375 41.3125 27.203125 
Q 40.96875 27.34375 40.234375 27.59375 
Q 32.671875 30.609375 28.078125 30.609375 
Q 23.78125 30.609375 19.578125 28.734375 
Q 15.375 26.859375 10.59375 22.796875 
L 10.59375 31.5 
Q 15.71875 35.359375 20.09375 37.03125 
Q 24.46875 38.71875 29.203125 38.71875 
Q 34.578125 38.71875 41.75 35.796875 
Q 42.234375 35.59375 42.484375 35.5 
Q 42.875 35.359375 43.5625 35.109375 
Q 51.125 32.078125 55.71875 32.078125 
Q 59.90625 32.078125 64.03125 33.9375 
Q 68.171875 35.796875 73.1875 39.890625 
z
" id="DejaVuSans-7e"/>
    </defs>
    <g transform="translate(289.903125 52.962625)scale(0.12 -0.12)">
     <use xlink:href="#DejaVuSans-20"/>
     <use x="31.787109" xlink:href="#DejaVuSans-70"/>
     <use x="95.263672" xlink:href="#DejaVuSans-79"/>
     <use x="154.443359" xlink:href="#DejaVuSans-70"/>
     <use x="217.919922" xlink:href="#DejaVuSans-72"/>
     <use x="259.001953" xlink:href="#DejaVuSans-6f"/>
     <use x="320.183594" xlink:href="#DejaVuSans-76"/>
     <use x="379.363281" xlink:href="#DejaVuSans-65"/>
     <use x="440.886719" xlink:href="#DejaVuSans-72"/>
     <use x="481.859375" xlink:href="#DejaVuSans-2e"/>
     <use x="513.646484" xlink:href="#DejaVuSans-6c"/>
     <use x="541.429688" xlink:href="#DejaVuSans-6f"/>
     <use x="602.611328" xlink:href="#DejaVuSans-67"/>
     <use x="666.087891" xlink:href="#DejaVuSans-69"/>
     <use x="693.871094" xlink:href="#DejaVuSans-63"/>
     <use x="748.851562" xlink:href="#DejaVuSans-2e"/>
     <use x="780.638672" xlink:href="#DejaVuSans-50"/>
     <use x="840.925781" xlink:href="#DejaVuSans-72"/>
     <use x="882.007812" xlink:href="#DejaVuSans-6f"/>
     <use x="943.189453" xlink:href="#DejaVuSans-70"/>
     <use x="1006.666016" xlink:href="#DejaVuSans-28"/>
     <use x="1045.679688" xlink:href="#DejaVuSans-27"/>
     <use x="1073.169922" xlink:href="#DejaVuSans-32"/>
     <use x="1136.792969" xlink:href="#DejaVuSans-31"/>
     <use x="1200.416016" xlink:href="#DejaVuSans-39"/>
     <use x="1264.039062" xlink:href="#DejaVuSans-27"/>
     <use x="1291.529297" xlink:href="#DejaVuSans-29"/>
     <use x="1330.542969" xlink:href="#DejaVuSans-26"/>
     <use x="1408.521484" xlink:href="#DejaVuSans-20"/>
     <use x="1440.308594" xlink:href="#DejaVuSans-70"/>
     <use x="1503.785156" xlink:href="#DejaVuSans-79"/>
     <use x="1562.964844" xlink:href="#DejaVuSans-70"/>
     <use x="1626.441406" xlink:href="#DejaVuSans-72"/>
     <use x="1667.523438" xlink:href="#DejaVuSans-6f"/>
     <use x="1728.705078" xlink:href="#DejaVuSans-76"/>
     <use x="1787.884766" xlink:href="#DejaVuSans-65"/>
     <use x="1849.408203" xlink:href="#DejaVuSans-72"/>
     <use x="1890.380859" xlink:href="#DejaVuSans-2e"/>
     <use x="1922.167969" xlink:href="#DejaVuSans-6c"/>
     <use x="1949.951172" xlink:href="#DejaVuSans-6f"/>
     <use x="2011.132812" xlink:href="#DejaVuSans-67"/>
     <use x="2074.609375" xlink:href="#DejaVuSans-69"/>
     <use x="2102.392578" xlink:href="#DejaVuSans-63"/>
     <use x="2157.373047" xlink:href="#DejaVuSans-2e"/>
     <use x="2189.160156" xlink:href="#DejaVuSans-50"/>
     <use x="2249.447266" xlink:href="#DejaVuSans-72"/>
     <use x="2290.529297" xlink:href="#DejaVuSans-6f"/>
     <use x="2351.710938" xlink:href="#DejaVuSans-70"/>
     <use x="2415.1875" xlink:href="#DejaVuSans-28"/>
     <use x="2454.201172" xlink:href="#DejaVuSans-27"/>
     <use x="2481.691406" xlink:href="#DejaVuSans-32"/>
     <use x="2545.314453" xlink:href="#DejaVuSans-32"/>
     <use x="2608.9375" xlink:href="#DejaVuSans-33"/>
     <use x="2672.560547" xlink:href="#DejaVuSans-27"/>
     <use x="2700.050781" xlink:href="#DejaVuSans-29"/>
     <use x="2739.064453" xlink:href="#DejaVuSans-26"/>
     <use x="2817.042969" xlink:href="#DejaVuSans-7e"/>
     <use x="2900.832031" xlink:href="#DejaVuSans-20"/>
     <use x="2932.619141" xlink:href="#DejaVuSans-70"/>
     <use x="2996.095703" xlink:href="#DejaVuSans-79"/>
     <use x="3055.275391" xlink:href="#DejaVuSans-70"/>
     <use x="3118.751953" xlink:href="#DejaVuSans-72"/>
     <use x="3159.833984" xlink:href="#DejaVuSans-6f"/>
     <use x="3221.015625" xlink:href="#DejaVuSans-76"/>
     <use x="3280.195312" xlink:href="#DejaVuSans-65"/>
     <use x="3341.71875" xlink:href="#DejaVuSans-72"/>
     <use x="3382.691406" xlink:href="#DejaVuSans-2e"/>
     <use x="3414.478516" xlink:href="#DejaVuSans-6c"/>
     <use x="3442.261719" xlink:href="#DejaVuSans-6f"/>
     <use x="3503.443359" xlink:href="#DejaVuSans-67"/>
     <use x="3566.919922" xlink:href="#DejaVuSans-69"/>
     <use x="3594.703125" xlink:href="#DejaVuSans-63"/>
     <use x="3649.683594" xlink:href="#DejaVuSans-2e"/>
     <use x="3681.470703" xlink:href="#DejaVuSans-50"/>
     <use x="3741.757812" xlink:href="#DejaVuSans-72"/>
     <use x="3782.839844" xlink:href="#DejaVuSans-6f"/>
     <use x="3844.021484" xlink:href="#DejaVuSans-70"/>
     <use x="3907.498047" xlink:href="#DejaVuSans-28"/>
     <use x="3946.511719" xlink:href="#DejaVuSans-27"/>
     <use x="3974.001953" xlink:href="#DejaVuSans-32"/>
     <use x="4037.625" xlink:href="#DejaVuSans-32"/>
     <use x="4101.248047" xlink:href="#DejaVuSans-31"/>
     <use x="4164.871094" xlink:href="#DejaVuSans-27"/>
     <use x="4192.361328" xlink:href="#DejaVuSans-29"/>
     <use x="4231.375" xlink:href="#DejaVuSans-26"/>
     <use x="4309.353516" xlink:href="#DejaVuSans-7e"/>
    </g>
    <!-- pyprover.logic.Prop('222')&amp;~ pyprover.logic.Prop('220')&amp; pyprover.logic.Prop('224') -->
    <g transform="translate(301.516875 66.4)scale(0.12 -0.12)">
     <use xlink:href="#DejaVuSans-70"/>
     <use x="63.476562" xlink:href="#DejaVuSans-79"/>
     <use x="122.65625" xlink:href="#DejaVuSans-70"/>
     <use x="186.132812" xlink:href="#DejaVuSans-72"/>
     <use x="227.214844" xlink:href="#DejaVuSans-6f"/>
     <use x="288.396484" xlink:href="#DejaVuSans-76"/>
     <use x="347.576172" xlink:href="#DejaVuSans-65"/>
     <use x="409.099609" xlink:href="#DejaVuSans-72"/>
     <use x="450.072266" xlink:href="#DejaVuSans-2e"/>
     <use x="481.859375" xlink:href="#DejaVuSans-6c"/>
     <use x="509.642578" xlink:href="#DejaVuSans-6f"/>
     <use x="570.824219" xlink:href="#DejaVuSans-67"/>
     <use x="634.300781" xlink:href="#DejaVuSans-69"/>
     <use x="662.083984" xlink:href="#DejaVuSans-63"/>
     <use x="717.064453" xlink:href="#DejaVuSans-2e"/>
     <use x="748.851562" xlink:href="#DejaVuSans-50"/>
     <use x="809.138672" xlink:href="#DejaVuSans-72"/>
     <use x="850.220703" xlink:href="#DejaVuSans-6f"/>
     <use x="911.402344" xlink:href="#DejaVuSans-70"/>
     <use x="974.878906" xlink:href="#DejaVuSans-28"/>
     <use x="1013.892578" xlink:href="#DejaVuSans-27"/>
     <use x="1041.382812" xlink:href="#DejaVuSans-32"/>
     <use x="1105.005859" xlink:href="#DejaVuSans-32"/>
     <use x="1168.628906" xlink:href="#DejaVuSans-32"/>
     <use x="1232.251953" xlink:href="#DejaVuSans-27"/>
     <use x="1259.742188" xlink:href="#DejaVuSans-29"/>
     <use x="1298.755859" xlink:href="#DejaVuSans-26"/>
     <use x="1376.734375" xlink:href="#DejaVuSans-7e"/>
     <use x="1460.523438" xlink:href="#DejaVuSans-20"/>
     <use x="1492.310547" xlink:href="#DejaVuSans-70"/>
     <use x="1555.787109" xlink:href="#DejaVuSans-79"/>
     <use x="1614.966797" xlink:href="#DejaVuSans-70"/>
     <use x="1678.443359" xlink:href="#DejaVuSans-72"/>
     <use x="1719.525391" xlink:href="#DejaVuSans-6f"/>
     <use x="1780.707031" xlink:href="#DejaVuSans-76"/>
     <use x="1839.886719" xlink:href="#DejaVuSans-65"/>
     <use x="1901.410156" xlink:href="#DejaVuSans-72"/>
     <use x="1942.382812" xlink:href="#DejaVuSans-2e"/>
     <use x="1974.169922" xlink:href="#DejaVuSans-6c"/>
     <use x="2001.953125" xlink:href="#DejaVuSans-6f"/>
     <use x="2063.134766" xlink:href="#DejaVuSans-67"/>
     <use x="2126.611328" xlink:href="#DejaVuSans-69"/>
     <use x="2154.394531" xlink:href="#DejaVuSans-63"/>
     <use x="2209.375" xlink:href="#DejaVuSans-2e"/>
     <use x="2241.162109" xlink:href="#DejaVuSans-50"/>
     <use x="2301.449219" xlink:href="#DejaVuSans-72"/>
     <use x="2342.53125" xlink:href="#DejaVuSans-6f"/>
     <use x="2403.712891" xlink:href="#DejaVuSans-70"/>
     <use x="2467.189453" xlink:href="#DejaVuSans-28"/>
     <use x="2506.203125" xlink:href="#DejaVuSans-27"/>
     <use x="2533.693359" xlink:href="#DejaVuSans-32"/>
     <use x="2597.316406" xlink:href="#DejaVuSans-32"/>
     <use x="2660.939453" xlink:href="#DejaVuSans-30"/>
     <use x="2724.5625" xlink:href="#DejaVuSans-27"/>
     <use x="2752.052734" xlink:href="#DejaVuSans-29"/>
     <use x="2791.066406" xlink:href="#DejaVuSans-26"/>
     <use x="2869.044922" xlink:href="#DejaVuSans-20"/>
     <use x="2900.832031" xlink:href="#DejaVuSans-70"/>
     <use x="2964.308594" xlink:href="#DejaVuSans-79"/>
     <use x="3023.488281" xlink:href="#DejaVuSans-70"/>
     <use x="3086.964844" xlink:href="#DejaVuSans-72"/>
     <use x="3128.046875" xlink:href="#DejaVuSans-6f"/>
     <use x="3189.228516" xlink:href="#DejaVuSans-76"/>
     <use x="3248.408203" xlink:href="#DejaVuSans-65"/>
     <use x="3309.931641" xlink:href="#DejaVuSans-72"/>
     <use x="3350.904297" xlink:href="#DejaVuSans-2e"/>
     <use x="3382.691406" xlink:href="#DejaVuSans-6c"/>
     <use x="3410.474609" xlink:href="#DejaVuSans-6f"/>
     <use x="3471.65625" xlink:href="#DejaVuSans-67"/>
     <use x="3535.132812" xlink:href="#DejaVuSans-69"/>
     <use x="3562.916016" xlink:href="#DejaVuSans-63"/>
     <use x="3617.896484" xlink:href="#DejaVuSans-2e"/>
     <use x="3649.683594" xlink:href="#DejaVuSans-50"/>
     <use x="3709.970703" xlink:href="#DejaVuSans-72"/>
     <use x="3751.052734" xlink:href="#DejaVuSans-6f"/>
     <use x="3812.234375" xlink:href="#DejaVuSans-70"/>
     <use x="3875.710938" xlink:href="#DejaVuSans-28"/>
     <use x="3914.724609" xlink:href="#DejaVuSans-27"/>
     <use x="3942.214844" xlink:href="#DejaVuSans-32"/>
     <use x="4005.837891" xlink:href="#DejaVuSans-32"/>
     <use x="4069.460938" xlink:href="#DejaVuSans-34"/>
     <use x="4133.083984" xlink:href="#DejaVuSans-27"/>
     <use x="4160.574219" xlink:href="#DejaVuSans-29"/>
    </g>
   </g>
  </g>
 </g>
 <defs>
  <clipPath id="p056dbe1bbb">
   <rect height="554.4" width="837" x="135" y="86.4"/>
  </clipPath>
 </defs>
</svg>
