<?xml version="1.0" encoding="utf-8" standalone="no"?>
<!DOCTYPE svg PUBLIC "-//W3C//DTD SVG 1.1//EN"
  "http://www.w3.org/Graphics/SVG/1.1/DTD/svg11.dtd">
<!-- Created with matplotlib (http://matplotlib.org/) -->
<svg height="720pt" version="1.1" viewBox="0 0 1080 720" width="1080pt" xmlns="http://www.w3.org/2000/svg" xmlns:xlink="http://www.w3.org/1999/xlink">
 <defs>
  <style type="text/css">
*{stroke-linecap:butt;stroke-linejoin:round;}
  </style>
 </defs>
 <g id="figure_1">
  <g id="patch_1">
   <path d="M 0 720 
L 1080 720 
L 1080 0 
L 0 0 
z
" style="fill:#ffffff;"/>
  </g>
  <g id="axes_1">
   <g id="patch_2">
    <path clip-path="url(#p256d1d5764)" d="M 552.514622 134.509091 
Q 382.156056 247.671142 214.591374 358.977333 
" style="fill:none;stroke:#000000;stroke-linecap:round;stroke-width:3;"/>
    <path clip-path="url(#p256d1d5764)" d="M 219.9176 358.320584 
L 214.591374 358.977333 
L 217.261709 354.322303 
L 219.9176 358.320584 
z
" style="stroke:#000000;stroke-linecap:round;stroke-width:3;"/>
   </g>
   <g id="patch_3">
    <path clip-path="url(#p256d1d5764)" d="M 552.514622 134.509091 
Q 723.854604 247.676385 892.395844 358.995156 
" style="fill:none;stroke:#000000;stroke-linecap:round;stroke-width:3;"/>
    <path clip-path="url(#p256d1d5764)" d="M 889.713306 354.347147 
L 892.395844 358.995156 
L 887.067913 358.35238 
L 889.713306 354.347147 
z
" style="stroke:#000000;stroke-linecap:round;stroke-width:3;"/>
   </g>
   <g id="patch_4">
    <path clip-path="url(#p256d1d5764)" d="M 207.632231 363.6 
Q 207.632231 475.644317 207.632231 584.334532 
" style="fill:none;stroke:#000000;stroke-linecap:round;stroke-width:3;"/>
    <path clip-path="url(#p256d1d5764)" d="M 210.032231 579.534532 
L 207.632231 584.334532 
L 205.232231 579.534532 
L 210.032231 579.534532 
z
" style="stroke:#000000;stroke-linecap:round;stroke-width:3;"/>
   </g>
   <g id="PathCollection_1">
    <defs>
     <path d="M 0 5 
C 1.326016 5 2.597899 4.473168 3.535534 3.535534 
C 4.473168 2.597899 5 1.326016 5 0 
C 5 -1.326016 4.473168 -2.597899 3.535534 -3.535534 
C 2.597899 -4.473168 1.326016 -5 0 -5 
C -1.326016 -5 -2.597899 -4.473168 -3.535534 -3.535534 
C -4.473168 -2.597899 -5 -1.326016 -5 0 
C -5 1.326016 -4.473168 2.597899 -3.535534 3.535534 
C -2.597899 4.473168 -1.326016 5 0 5 
z
" id="maa5a825fd8" style="stroke:#0000ff;"/>
    </defs>
    <g clip-path="url(#p256d1d5764)">
     <use style="fill:#0000ff;stroke:#0000ff;" x="552.514622" xlink:href="#maa5a825fd8" y="134.509091"/>
     <use style="fill:#0000ff;stroke:#0000ff;" x="207.632231" xlink:href="#maa5a825fd8" y="363.6"/>
     <use style="fill:#0000ff;stroke:#0000ff;" x="899.367769" xlink:href="#maa5a825fd8" y="363.6"/>
     <use style="fill:#0000ff;stroke:#0000ff;" x="207.632231" xlink:href="#maa5a825fd8" y="592.690909"/>
    </g>
   </g>
   <g id="text_1">
    <g clip-path="url(#p256d1d5764)">
     <!-- 31  Thus while knowledge is -->
     <defs>
      <path d="M 40.578125 39.3125 
Q 47.65625 37.796875 51.625 33 
Q 55.609375 28.21875 55.609375 21.1875 
Q 55.609375 10.40625 48.1875 4.484375 
Q 40.765625 -1.421875 27.09375 -1.421875 
Q 22.515625 -1.421875 17.65625 -0.515625 
Q 12.796875 0.390625 7.625 2.203125 
L 7.625 11.71875 
Q 11.71875 9.328125 16.59375 8.109375 
Q 21.484375 6.890625 26.8125 6.890625 
Q 36.078125 6.890625 40.9375 10.546875 
Q 45.796875 14.203125 45.796875 21.1875 
Q 45.796875 27.640625 41.28125 31.265625 
Q 36.765625 34.90625 28.71875 34.90625 
L 20.21875 34.90625 
L 20.21875 43.015625 
L 29.109375 43.015625 
Q 36.375 43.015625 40.234375 45.921875 
Q 44.09375 48.828125 44.09375 54.296875 
Q 44.09375 59.90625 40.109375 62.90625 
Q 36.140625 65.921875 28.71875 65.921875 
Q 24.65625 65.921875 20.015625 65.03125 
Q 15.375 64.15625 9.8125 62.3125 
L 9.8125 71.09375 
Q 15.4375 72.65625 20.34375 73.4375 
Q 25.25 74.21875 29.59375 74.21875 
Q 40.828125 74.21875 47.359375 69.109375 
Q 53.90625 64.015625 53.90625 55.328125 
Q 53.90625 49.265625 50.4375 45.09375 
Q 46.96875 40.921875 40.578125 39.3125 
z
" id="DejaVuSans-33"/>
      <path d="M 12.40625 8.296875 
L 28.515625 8.296875 
L 28.515625 63.921875 
L 10.984375 60.40625 
L 10.984375 69.390625 
L 28.421875 72.90625 
L 38.28125 72.90625 
L 38.28125 8.296875 
L 54.390625 8.296875 
L 54.390625 0 
L 12.40625 0 
z
" id="DejaVuSans-31"/>
      <path id="DejaVuSans-20"/>
      <path d="M -0.296875 72.90625 
L 61.375 72.90625 
L 61.375 64.59375 
L 35.5 64.59375 
L 35.5 0 
L 25.59375 0 
L 25.59375 64.59375 
L -0.296875 64.59375 
z
" id="DejaVuSans-54"/>
      <path d="M 54.890625 33.015625 
L 54.890625 0 
L 45.90625 0 
L 45.90625 32.71875 
Q 45.90625 40.484375 42.875 44.328125 
Q 39.84375 48.1875 33.796875 48.1875 
Q 26.515625 48.1875 22.3125 43.546875 
Q 18.109375 38.921875 18.109375 30.90625 
L 18.109375 0 
L 9.078125 0 
L 9.078125 75.984375 
L 18.109375 75.984375 
L 18.109375 46.1875 
Q 21.34375 51.125 25.703125 53.5625 
Q 30.078125 56 35.796875 56 
Q 45.21875 56 50.046875 50.171875 
Q 54.890625 44.34375 54.890625 33.015625 
z
" id="DejaVuSans-68"/>
      <path d="M 8.5 21.578125 
L 8.5 54.6875 
L 17.484375 54.6875 
L 17.484375 21.921875 
Q 17.484375 14.15625 20.5 10.265625 
Q 23.53125 6.390625 29.59375 6.390625 
Q 36.859375 6.390625 41.078125 11.03125 
Q 45.3125 15.671875 45.3125 23.6875 
L 45.3125 54.6875 
L 54.296875 54.6875 
L 54.296875 0 
L 45.3125 0 
L 45.3125 8.40625 
Q 42.046875 3.421875 37.71875 1 
Q 33.40625 -1.421875 27.6875 -1.421875 
Q 18.265625 -1.421875 13.375 4.4375 
Q 8.5 10.296875 8.5 21.578125 
z
M 31.109375 56 
z
" id="DejaVuSans-75"/>
      <path d="M 44.28125 53.078125 
L 44.28125 44.578125 
Q 40.484375 46.53125 36.375 47.5 
Q 32.28125 48.484375 27.875 48.484375 
Q 21.1875 48.484375 17.84375 46.4375 
Q 14.5 44.390625 14.5 40.28125 
Q 14.5 37.15625 16.890625 35.375 
Q 19.28125 33.59375 26.515625 31.984375 
L 29.59375 31.296875 
Q 39.15625 29.25 43.1875 25.515625 
Q 47.21875 21.78125 47.21875 15.09375 
Q 47.21875 7.46875 41.1875 3.015625 
Q 35.15625 -1.421875 24.609375 -1.421875 
Q 20.21875 -1.421875 15.453125 -0.5625 
Q 10.6875 0.296875 5.421875 2 
L 5.421875 11.28125 
Q 10.40625 8.6875 15.234375 7.390625 
Q 20.0625 6.109375 24.8125 6.109375 
Q 31.15625 6.109375 34.5625 8.28125 
Q 37.984375 10.453125 37.984375 14.40625 
Q 37.984375 18.0625 35.515625 20.015625 
Q 33.0625 21.96875 24.703125 23.78125 
L 21.578125 24.515625 
Q 13.234375 26.265625 9.515625 29.90625 
Q 5.8125 33.546875 5.8125 39.890625 
Q 5.8125 47.609375 11.28125 51.796875 
Q 16.75 56 26.8125 56 
Q 31.78125 56 36.171875 55.265625 
Q 40.578125 54.546875 44.28125 53.078125 
z
" id="DejaVuSans-73"/>
      <path d="M 4.203125 54.6875 
L 13.1875 54.6875 
L 24.421875 12.015625 
L 35.59375 54.6875 
L 46.1875 54.6875 
L 57.421875 12.015625 
L 68.609375 54.6875 
L 77.59375 54.6875 
L 63.28125 0 
L 52.6875 0 
L 40.921875 44.828125 
L 29.109375 0 
L 18.5 0 
z
" id="DejaVuSans-77"/>
      <path d="M 9.421875 54.6875 
L 18.40625 54.6875 
L 18.40625 0 
L 9.421875 0 
z
M 9.421875 75.984375 
L 18.40625 75.984375 
L 18.40625 64.59375 
L 9.421875 64.59375 
z
" id="DejaVuSans-69"/>
      <path d="M 9.421875 75.984375 
L 18.40625 75.984375 
L 18.40625 0 
L 9.421875 0 
z
" id="DejaVuSans-6c"/>
      <path d="M 56.203125 29.59375 
L 56.203125 25.203125 
L 14.890625 25.203125 
Q 15.484375 15.921875 20.484375 11.0625 
Q 25.484375 6.203125 34.421875 6.203125 
Q 39.59375 6.203125 44.453125 7.46875 
Q 49.3125 8.734375 54.109375 11.28125 
L 54.109375 2.78125 
Q 49.265625 0.734375 44.1875 -0.34375 
Q 39.109375 -1.421875 33.890625 -1.421875 
Q 20.796875 -1.421875 13.15625 6.1875 
Q 5.515625 13.8125 5.515625 26.8125 
Q 5.515625 40.234375 12.765625 48.109375 
Q 20.015625 56 32.328125 56 
Q 43.359375 56 49.78125 48.890625 
Q 56.203125 41.796875 56.203125 29.59375 
z
M 47.21875 32.234375 
Q 47.125 39.59375 43.09375 43.984375 
Q 39.0625 48.390625 32.421875 48.390625 
Q 24.90625 48.390625 20.390625 44.140625 
Q 15.875 39.890625 15.1875 32.171875 
z
" id="DejaVuSans-65"/>
      <path d="M 9.078125 75.984375 
L 18.109375 75.984375 
L 18.109375 31.109375 
L 44.921875 54.6875 
L 56.390625 54.6875 
L 27.390625 29.109375 
L 57.625 0 
L 45.90625 0 
L 18.109375 26.703125 
L 18.109375 0 
L 9.078125 0 
z
" id="DejaVuSans-6b"/>
      <path d="M 54.890625 33.015625 
L 54.890625 0 
L 45.90625 0 
L 45.90625 32.71875 
Q 45.90625 40.484375 42.875 44.328125 
Q 39.84375 48.1875 33.796875 48.1875 
Q 26.515625 48.1875 22.3125 43.546875 
Q 18.109375 38.921875 18.109375 30.90625 
L 18.109375 0 
L 9.078125 0 
L 9.078125 54.6875 
L 18.109375 54.6875 
L 18.109375 46.1875 
Q 21.34375 51.125 25.703125 53.5625 
Q 30.078125 56 35.796875 56 
Q 45.21875 56 50.046875 50.171875 
Q 54.890625 44.34375 54.890625 33.015625 
z
" id="DejaVuSans-6e"/>
      <path d="M 30.609375 48.390625 
Q 23.390625 48.390625 19.1875 42.75 
Q 14.984375 37.109375 14.984375 27.296875 
Q 14.984375 17.484375 19.15625 11.84375 
Q 23.34375 6.203125 30.609375 6.203125 
Q 37.796875 6.203125 41.984375 11.859375 
Q 46.1875 17.53125 46.1875 27.296875 
Q 46.1875 37.015625 41.984375 42.703125 
Q 37.796875 48.390625 30.609375 48.390625 
z
M 30.609375 56 
Q 42.328125 56 49.015625 48.375 
Q 55.71875 40.765625 55.71875 27.296875 
Q 55.71875 13.875 49.015625 6.21875 
Q 42.328125 -1.421875 30.609375 -1.421875 
Q 18.84375 -1.421875 12.171875 6.21875 
Q 5.515625 13.875 5.515625 27.296875 
Q 5.515625 40.765625 12.171875 48.375 
Q 18.84375 56 30.609375 56 
z
" id="DejaVuSans-6f"/>
      <path d="M 45.40625 46.390625 
L 45.40625 75.984375 
L 54.390625 75.984375 
L 54.390625 0 
L 45.40625 0 
L 45.40625 8.203125 
Q 42.578125 3.328125 38.25 0.953125 
Q 33.9375 -1.421875 27.875 -1.421875 
Q 17.96875 -1.421875 11.734375 6.484375 
Q 5.515625 14.40625 5.515625 27.296875 
Q 5.515625 40.1875 11.734375 48.09375 
Q 17.96875 56 27.875 56 
Q 33.9375 56 38.25 53.625 
Q 42.578125 51.265625 45.40625 46.390625 
z
M 14.796875 27.296875 
Q 14.796875 17.390625 18.875 11.75 
Q 22.953125 6.109375 30.078125 6.109375 
Q 37.203125 6.109375 41.296875 11.75 
Q 45.40625 17.390625 45.40625 27.296875 
Q 45.40625 37.203125 41.296875 42.84375 
Q 37.203125 48.484375 30.078125 48.484375 
Q 22.953125 48.484375 18.875 42.84375 
Q 14.796875 37.203125 14.796875 27.296875 
z
" id="DejaVuSans-64"/>
      <path d="M 45.40625 27.984375 
Q 45.40625 37.75 41.375 43.109375 
Q 37.359375 48.484375 30.078125 48.484375 
Q 22.859375 48.484375 18.828125 43.109375 
Q 14.796875 37.75 14.796875 27.984375 
Q 14.796875 18.265625 18.828125 12.890625 
Q 22.859375 7.515625 30.078125 7.515625 
Q 37.359375 7.515625 41.375 12.890625 
Q 45.40625 18.265625 45.40625 27.984375 
z
M 54.390625 6.78125 
Q 54.390625 -7.171875 48.1875 -13.984375 
Q 42 -20.796875 29.203125 -20.796875 
Q 24.46875 -20.796875 20.265625 -20.09375 
Q 16.0625 -19.390625 12.109375 -17.921875 
L 12.109375 -9.1875 
Q 16.0625 -11.328125 19.921875 -12.34375 
Q 23.78125 -13.375 27.78125 -13.375 
Q 36.625 -13.375 41.015625 -8.765625 
Q 45.40625 -4.15625 45.40625 5.171875 
L 45.40625 9.625 
Q 42.625 4.78125 38.28125 2.390625 
Q 33.9375 0 27.875 0 
Q 17.828125 0 11.671875 7.65625 
Q 5.515625 15.328125 5.515625 27.984375 
Q 5.515625 40.671875 11.671875 48.328125 
Q 17.828125 56 27.875 56 
Q 33.9375 56 38.28125 53.609375 
Q 42.625 51.21875 45.40625 46.390625 
L 45.40625 54.6875 
L 54.390625 54.6875 
z
" id="DejaVuSans-67"/>
     </defs>
     <g transform="translate(482.00134 126.070653)scale(0.1 -0.1)">
      <use xlink:href="#DejaVuSans-33"/>
      <use x="63.623047" xlink:href="#DejaVuSans-31"/>
      <use x="127.246094" xlink:href="#DejaVuSans-20"/>
      <use x="159.033203" xlink:href="#DejaVuSans-20"/>
      <use x="190.820312" xlink:href="#DejaVuSans-54"/>
      <use x="251.904297" xlink:href="#DejaVuSans-68"/>
      <use x="315.283203" xlink:href="#DejaVuSans-75"/>
      <use x="378.662109" xlink:href="#DejaVuSans-73"/>
      <use x="430.761719" xlink:href="#DejaVuSans-20"/>
      <use x="462.548828" xlink:href="#DejaVuSans-77"/>
      <use x="544.335938" xlink:href="#DejaVuSans-68"/>
      <use x="607.714844" xlink:href="#DejaVuSans-69"/>
      <use x="635.498047" xlink:href="#DejaVuSans-6c"/>
      <use x="663.28125" xlink:href="#DejaVuSans-65"/>
      <use x="724.804688" xlink:href="#DejaVuSans-20"/>
      <use x="756.591797" xlink:href="#DejaVuSans-6b"/>
      <use x="814.501953" xlink:href="#DejaVuSans-6e"/>
      <use x="877.880859" xlink:href="#DejaVuSans-6f"/>
      <use x="939.0625" xlink:href="#DejaVuSans-77"/>
      <use x="1020.849609" xlink:href="#DejaVuSans-6c"/>
      <use x="1048.632812" xlink:href="#DejaVuSans-65"/>
      <use x="1110.15625" xlink:href="#DejaVuSans-64"/>
      <use x="1173.632812" xlink:href="#DejaVuSans-67"/>
      <use x="1237.109375" xlink:href="#DejaVuSans-65"/>
      <use x="1298.632812" xlink:href="#DejaVuSans-20"/>
      <use x="1330.419922" xlink:href="#DejaVuSans-69"/>
      <use x="1358.203125" xlink:href="#DejaVuSans-73"/>
     </g>
    </g>
    <g clip-path="url(#p256d1d5764)">
     <!-- present in the human mind , it -->
     <defs>
      <path d="M 18.109375 8.203125 
L 18.109375 -20.796875 
L 9.078125 -20.796875 
L 9.078125 54.6875 
L 18.109375 54.6875 
L 18.109375 46.390625 
Q 20.953125 51.265625 25.265625 53.625 
Q 29.59375 56 35.59375 56 
Q 45.5625 56 51.78125 48.09375 
Q 58.015625 40.1875 58.015625 27.296875 
Q 58.015625 14.40625 51.78125 6.484375 
Q 45.5625 -1.421875 35.59375 -1.421875 
Q 29.59375 -1.421875 25.265625 0.953125 
Q 20.953125 3.328125 18.109375 8.203125 
z
M 48.6875 27.296875 
Q 48.6875 37.203125 44.609375 42.84375 
Q 40.53125 48.484375 33.40625 48.484375 
Q 26.265625 48.484375 22.1875 42.84375 
Q 18.109375 37.203125 18.109375 27.296875 
Q 18.109375 17.390625 22.1875 11.75 
Q 26.265625 6.109375 33.40625 6.109375 
Q 40.53125 6.109375 44.609375 11.75 
Q 48.6875 17.390625 48.6875 27.296875 
z
" id="DejaVuSans-70"/>
      <path d="M 41.109375 46.296875 
Q 39.59375 47.171875 37.8125 47.578125 
Q 36.03125 48 33.890625 48 
Q 26.265625 48 22.1875 43.046875 
Q 18.109375 38.09375 18.109375 28.8125 
L 18.109375 0 
L 9.078125 0 
L 9.078125 54.6875 
L 18.109375 54.6875 
L 18.109375 46.1875 
Q 20.953125 51.171875 25.484375 53.578125 
Q 30.03125 56 36.53125 56 
Q 37.453125 56 38.578125 55.875 
Q 39.703125 55.765625 41.0625 55.515625 
z
" id="DejaVuSans-72"/>
      <path d="M 18.3125 70.21875 
L 18.3125 54.6875 
L 36.8125 54.6875 
L 36.8125 47.703125 
L 18.3125 47.703125 
L 18.3125 18.015625 
Q 18.3125 11.328125 20.140625 9.421875 
Q 21.96875 7.515625 27.59375 7.515625 
L 36.8125 7.515625 
L 36.8125 0 
L 27.59375 0 
Q 17.1875 0 13.234375 3.875 
Q 9.28125 7.765625 9.28125 18.015625 
L 9.28125 47.703125 
L 2.6875 47.703125 
L 2.6875 54.6875 
L 9.28125 54.6875 
L 9.28125 70.21875 
z
" id="DejaVuSans-74"/>
      <path d="M 52 44.1875 
Q 55.375 50.25 60.0625 53.125 
Q 64.75 56 71.09375 56 
Q 79.640625 56 84.28125 50.015625 
Q 88.921875 44.046875 88.921875 33.015625 
L 88.921875 0 
L 79.890625 0 
L 79.890625 32.71875 
Q 79.890625 40.578125 77.09375 44.375 
Q 74.3125 48.1875 68.609375 48.1875 
Q 61.625 48.1875 57.5625 43.546875 
Q 53.515625 38.921875 53.515625 30.90625 
L 53.515625 0 
L 44.484375 0 
L 44.484375 32.71875 
Q 44.484375 40.625 41.703125 44.40625 
Q 38.921875 48.1875 33.109375 48.1875 
Q 26.21875 48.1875 22.15625 43.53125 
Q 18.109375 38.875 18.109375 30.90625 
L 18.109375 0 
L 9.078125 0 
L 9.078125 54.6875 
L 18.109375 54.6875 
L 18.109375 46.1875 
Q 21.1875 51.21875 25.484375 53.609375 
Q 29.78125 56 35.6875 56 
Q 41.65625 56 45.828125 52.96875 
Q 50 49.953125 52 44.1875 
z
" id="DejaVuSans-6d"/>
      <path d="M 34.28125 27.484375 
Q 23.390625 27.484375 19.1875 25 
Q 14.984375 22.515625 14.984375 16.5 
Q 14.984375 11.71875 18.140625 8.90625 
Q 21.296875 6.109375 26.703125 6.109375 
Q 34.1875 6.109375 38.703125 11.40625 
Q 43.21875 16.703125 43.21875 25.484375 
L 43.21875 27.484375 
z
M 52.203125 31.203125 
L 52.203125 0 
L 43.21875 0 
L 43.21875 8.296875 
Q 40.140625 3.328125 35.546875 0.953125 
Q 30.953125 -1.421875 24.3125 -1.421875 
Q 15.921875 -1.421875 10.953125 3.296875 
Q 6 8.015625 6 15.921875 
Q 6 25.140625 12.171875 29.828125 
Q 18.359375 34.515625 30.609375 34.515625 
L 43.21875 34.515625 
L 43.21875 35.40625 
Q 43.21875 41.609375 39.140625 45 
Q 35.0625 48.390625 27.6875 48.390625 
Q 23 48.390625 18.546875 47.265625 
Q 14.109375 46.140625 10.015625 43.890625 
L 10.015625 52.203125 
Q 14.9375 54.109375 19.578125 55.046875 
Q 24.21875 56 28.609375 56 
Q 40.484375 56 46.34375 49.84375 
Q 52.203125 43.703125 52.203125 31.203125 
z
" id="DejaVuSans-61"/>
      <path d="M 11.71875 12.40625 
L 22.015625 12.40625 
L 22.015625 4 
L 14.015625 -11.625 
L 7.71875 -11.625 
L 11.71875 4 
z
" id="DejaVuSans-2c"/>
     </defs>
     <g transform="translate(476.120872 137.268466)scale(0.1 -0.1)">
      <use xlink:href="#DejaVuSans-70"/>
      <use x="63.476562" xlink:href="#DejaVuSans-72"/>
      <use x="104.558594" xlink:href="#DejaVuSans-65"/>
      <use x="166.082031" xlink:href="#DejaVuSans-73"/>
      <use x="218.181641" xlink:href="#DejaVuSans-65"/>
      <use x="279.705078" xlink:href="#DejaVuSans-6e"/>
      <use x="343.083984" xlink:href="#DejaVuSans-74"/>
      <use x="382.292969" xlink:href="#DejaVuSans-20"/>
      <use x="414.080078" xlink:href="#DejaVuSans-69"/>
      <use x="441.863281" xlink:href="#DejaVuSans-6e"/>
      <use x="505.242188" xlink:href="#DejaVuSans-20"/>
      <use x="537.029297" xlink:href="#DejaVuSans-74"/>
      <use x="576.238281" xlink:href="#DejaVuSans-68"/>
      <use x="639.617188" xlink:href="#DejaVuSans-65"/>
      <use x="701.140625" xlink:href="#DejaVuSans-20"/>
      <use x="732.927734" xlink:href="#DejaVuSans-68"/>
      <use x="796.306641" xlink:href="#DejaVuSans-75"/>
      <use x="859.685547" xlink:href="#DejaVuSans-6d"/>
      <use x="957.097656" xlink:href="#DejaVuSans-61"/>
      <use x="1018.376953" xlink:href="#DejaVuSans-6e"/>
      <use x="1081.755859" xlink:href="#DejaVuSans-20"/>
      <use x="1113.542969" xlink:href="#DejaVuSans-6d"/>
      <use x="1210.955078" xlink:href="#DejaVuSans-69"/>
      <use x="1238.738281" xlink:href="#DejaVuSans-6e"/>
      <use x="1302.117188" xlink:href="#DejaVuSans-64"/>
      <use x="1365.59375" xlink:href="#DejaVuSans-20"/>
      <use x="1397.380859" xlink:href="#DejaVuSans-2c"/>
      <use x="1429.167969" xlink:href="#DejaVuSans-20"/>
      <use x="1460.955078" xlink:href="#DejaVuSans-69"/>
      <use x="1488.738281" xlink:href="#DejaVuSans-74"/>
     </g>
    </g>
    <g clip-path="url(#p256d1d5764)">
     <!-- is predicable of grammar . -->
     <defs>
      <path d="M 48.78125 52.59375 
L 48.78125 44.1875 
Q 44.96875 46.296875 41.140625 47.34375 
Q 37.3125 48.390625 33.40625 48.390625 
Q 24.65625 48.390625 19.8125 42.84375 
Q 14.984375 37.3125 14.984375 27.296875 
Q 14.984375 17.28125 19.8125 11.734375 
Q 24.65625 6.203125 33.40625 6.203125 
Q 37.3125 6.203125 41.140625 7.25 
Q 44.96875 8.296875 48.78125 10.40625 
L 48.78125 2.09375 
Q 45.015625 0.34375 40.984375 -0.53125 
Q 36.96875 -1.421875 32.421875 -1.421875 
Q 20.0625 -1.421875 12.78125 6.34375 
Q 5.515625 14.109375 5.515625 27.296875 
Q 5.515625 40.671875 12.859375 48.328125 
Q 20.21875 56 33.015625 56 
Q 37.15625 56 41.109375 55.140625 
Q 45.0625 54.296875 48.78125 52.59375 
z
" id="DejaVuSans-63"/>
      <path d="M 48.6875 27.296875 
Q 48.6875 37.203125 44.609375 42.84375 
Q 40.53125 48.484375 33.40625 48.484375 
Q 26.265625 48.484375 22.1875 42.84375 
Q 18.109375 37.203125 18.109375 27.296875 
Q 18.109375 17.390625 22.1875 11.75 
Q 26.265625 6.109375 33.40625 6.109375 
Q 40.53125 6.109375 44.609375 11.75 
Q 48.6875 17.390625 48.6875 27.296875 
z
M 18.109375 46.390625 
Q 20.953125 51.265625 25.265625 53.625 
Q 29.59375 56 35.59375 56 
Q 45.5625 56 51.78125 48.09375 
Q 58.015625 40.1875 58.015625 27.296875 
Q 58.015625 14.40625 51.78125 6.484375 
Q 45.5625 -1.421875 35.59375 -1.421875 
Q 29.59375 -1.421875 25.265625 0.953125 
Q 20.953125 3.328125 18.109375 8.203125 
L 18.109375 0 
L 9.078125 0 
L 9.078125 75.984375 
L 18.109375 75.984375 
z
" id="DejaVuSans-62"/>
      <path d="M 37.109375 75.984375 
L 37.109375 68.5 
L 28.515625 68.5 
Q 23.6875 68.5 21.796875 66.546875 
Q 19.921875 64.59375 19.921875 59.515625 
L 19.921875 54.6875 
L 34.71875 54.6875 
L 34.71875 47.703125 
L 19.921875 47.703125 
L 19.921875 0 
L 10.890625 0 
L 10.890625 47.703125 
L 2.296875 47.703125 
L 2.296875 54.6875 
L 10.890625 54.6875 
L 10.890625 58.5 
Q 10.890625 67.625 15.140625 71.796875 
Q 19.390625 75.984375 28.609375 75.984375 
z
" id="DejaVuSans-66"/>
      <path d="M 10.6875 12.40625 
L 21 12.40625 
L 21 0 
L 10.6875 0 
z
" id="DejaVuSans-2e"/>
     </defs>
     <g transform="translate(486.281028 148.466278)scale(0.1 -0.1)">
      <use xlink:href="#DejaVuSans-69"/>
      <use x="27.783203" xlink:href="#DejaVuSans-73"/>
      <use x="79.882812" xlink:href="#DejaVuSans-20"/>
      <use x="111.669922" xlink:href="#DejaVuSans-70"/>
      <use x="175.146484" xlink:href="#DejaVuSans-72"/>
      <use x="216.228516" xlink:href="#DejaVuSans-65"/>
      <use x="277.751953" xlink:href="#DejaVuSans-64"/>
      <use x="341.228516" xlink:href="#DejaVuSans-69"/>
      <use x="369.011719" xlink:href="#DejaVuSans-63"/>
      <use x="423.992188" xlink:href="#DejaVuSans-61"/>
      <use x="485.271484" xlink:href="#DejaVuSans-62"/>
      <use x="548.748047" xlink:href="#DejaVuSans-6c"/>
      <use x="576.53125" xlink:href="#DejaVuSans-65"/>
      <use x="638.054688" xlink:href="#DejaVuSans-20"/>
      <use x="669.841797" xlink:href="#DejaVuSans-6f"/>
      <use x="731.023438" xlink:href="#DejaVuSans-66"/>
      <use x="766.228516" xlink:href="#DejaVuSans-20"/>
      <use x="798.015625" xlink:href="#DejaVuSans-67"/>
      <use x="861.492188" xlink:href="#DejaVuSans-72"/>
      <use x="902.605469" xlink:href="#DejaVuSans-61"/>
      <use x="963.884766" xlink:href="#DejaVuSans-6d"/>
      <use x="1061.296875" xlink:href="#DejaVuSans-6d"/>
      <use x="1158.708984" xlink:href="#DejaVuSans-61"/>
      <use x="1219.988281" xlink:href="#DejaVuSans-72"/>
      <use x="1261.101562" xlink:href="#DejaVuSans-20"/>
      <use x="1292.888672" xlink:href="#DejaVuSans-2e"/>
     </g>
    </g>
   </g>
   <g id="text_2">
    <g clip-path="url(#p256d1d5764)">
     <!-- 29  while knowledge is present -->
     <defs>
      <path d="M 19.1875 8.296875 
L 53.609375 8.296875 
L 53.609375 0 
L 7.328125 0 
L 7.328125 8.296875 
Q 12.9375 14.109375 22.625 23.890625 
Q 32.328125 33.6875 34.8125 36.53125 
Q 39.546875 41.84375 41.421875 45.53125 
Q 43.3125 49.21875 43.3125 52.78125 
Q 43.3125 58.59375 39.234375 62.25 
Q 35.15625 65.921875 28.609375 65.921875 
Q 23.96875 65.921875 18.8125 64.3125 
Q 13.671875 62.703125 7.8125 59.421875 
L 7.8125 69.390625 
Q 13.765625 71.78125 18.9375 73 
Q 24.125 74.21875 28.421875 74.21875 
Q 39.75 74.21875 46.484375 68.546875 
Q 53.21875 62.890625 53.21875 53.421875 
Q 53.21875 48.921875 51.53125 44.890625 
Q 49.859375 40.875 45.40625 35.40625 
Q 44.1875 33.984375 37.640625 27.21875 
Q 31.109375 20.453125 19.1875 8.296875 
z
" id="DejaVuSans-32"/>
      <path d="M 10.984375 1.515625 
L 10.984375 10.5 
Q 14.703125 8.734375 18.5 7.8125 
Q 22.3125 6.890625 25.984375 6.890625 
Q 35.75 6.890625 40.890625 13.453125 
Q 46.046875 20.015625 46.78125 33.40625 
Q 43.953125 29.203125 39.59375 26.953125 
Q 35.25 24.703125 29.984375 24.703125 
Q 19.046875 24.703125 12.671875 31.3125 
Q 6.296875 37.9375 6.296875 49.421875 
Q 6.296875 60.640625 12.9375 67.421875 
Q 19.578125 74.21875 30.609375 74.21875 
Q 43.265625 74.21875 49.921875 64.515625 
Q 56.59375 54.828125 56.59375 36.375 
Q 56.59375 19.140625 48.40625 8.859375 
Q 40.234375 -1.421875 26.421875 -1.421875 
Q 22.703125 -1.421875 18.890625 -0.6875 
Q 15.09375 0.046875 10.984375 1.515625 
z
M 30.609375 32.421875 
Q 37.25 32.421875 41.125 36.953125 
Q 45.015625 41.5 45.015625 49.421875 
Q 45.015625 57.28125 41.125 61.84375 
Q 37.25 66.40625 30.609375 66.40625 
Q 23.96875 66.40625 20.09375 61.84375 
Q 16.21875 57.28125 16.21875 49.421875 
Q 16.21875 41.5 20.09375 36.953125 
Q 23.96875 32.421875 30.609375 32.421875 
z
" id="DejaVuSans-39"/>
     </defs>
     <g transform="translate(130.0002 360.760469)scale(0.1 -0.1)">
      <use xlink:href="#DejaVuSans-32"/>
      <use x="63.623047" xlink:href="#DejaVuSans-39"/>
      <use x="127.246094" xlink:href="#DejaVuSans-20"/>
      <use x="159.033203" xlink:href="#DejaVuSans-20"/>
      <use x="190.820312" xlink:href="#DejaVuSans-77"/>
      <use x="272.607422" xlink:href="#DejaVuSans-68"/>
      <use x="335.986328" xlink:href="#DejaVuSans-69"/>
      <use x="363.769531" xlink:href="#DejaVuSans-6c"/>
      <use x="391.552734" xlink:href="#DejaVuSans-65"/>
      <use x="453.076172" xlink:href="#DejaVuSans-20"/>
      <use x="484.863281" xlink:href="#DejaVuSans-6b"/>
      <use x="542.773438" xlink:href="#DejaVuSans-6e"/>
      <use x="606.152344" xlink:href="#DejaVuSans-6f"/>
      <use x="667.333984" xlink:href="#DejaVuSans-77"/>
      <use x="749.121094" xlink:href="#DejaVuSans-6c"/>
      <use x="776.904297" xlink:href="#DejaVuSans-65"/>
      <use x="838.427734" xlink:href="#DejaVuSans-64"/>
      <use x="901.904297" xlink:href="#DejaVuSans-67"/>
      <use x="965.380859" xlink:href="#DejaVuSans-65"/>
      <use x="1026.904297" xlink:href="#DejaVuSans-20"/>
      <use x="1058.691406" xlink:href="#DejaVuSans-69"/>
      <use x="1086.474609" xlink:href="#DejaVuSans-73"/>
      <use x="1138.574219" xlink:href="#DejaVuSans-20"/>
      <use x="1170.361328" xlink:href="#DejaVuSans-70"/>
      <use x="1233.837891" xlink:href="#DejaVuSans-72"/>
      <use x="1274.919922" xlink:href="#DejaVuSans-65"/>
      <use x="1336.443359" xlink:href="#DejaVuSans-73"/>
      <use x="1388.542969" xlink:href="#DejaVuSans-65"/>
      <use x="1450.066406" xlink:href="#DejaVuSans-6e"/>
      <use x="1513.445312" xlink:href="#DejaVuSans-74"/>
     </g>
    </g>
    <g clip-path="url(#p256d1d5764)">
     <!-- in the human mind -->
     <g transform="translate(160.058794 371.958281)scale(0.1 -0.1)">
      <use xlink:href="#DejaVuSans-69"/>
      <use x="27.783203" xlink:href="#DejaVuSans-6e"/>
      <use x="91.162109" xlink:href="#DejaVuSans-20"/>
      <use x="122.949219" xlink:href="#DejaVuSans-74"/>
      <use x="162.158203" xlink:href="#DejaVuSans-68"/>
      <use x="225.537109" xlink:href="#DejaVuSans-65"/>
      <use x="287.060547" xlink:href="#DejaVuSans-20"/>
      <use x="318.847656" xlink:href="#DejaVuSans-68"/>
      <use x="382.226562" xlink:href="#DejaVuSans-75"/>
      <use x="445.605469" xlink:href="#DejaVuSans-6d"/>
      <use x="543.017578" xlink:href="#DejaVuSans-61"/>
      <use x="604.296875" xlink:href="#DejaVuSans-6e"/>
      <use x="667.675781" xlink:href="#DejaVuSans-20"/>
      <use x="699.462891" xlink:href="#DejaVuSans-6d"/>
      <use x="796.875" xlink:href="#DejaVuSans-69"/>
      <use x="824.658203" xlink:href="#DejaVuSans-6e"/>
      <use x="888.037109" xlink:href="#DejaVuSans-64"/>
     </g>
    </g>
   </g>
   <g id="text_3">
    <g clip-path="url(#p256d1d5764)">
     <!-- 30  Thus it is predicable of -->
     <defs>
      <path d="M 31.78125 66.40625 
Q 24.171875 66.40625 20.328125 58.90625 
Q 16.5 51.421875 16.5 36.375 
Q 16.5 21.390625 20.328125 13.890625 
Q 24.171875 6.390625 31.78125 6.390625 
Q 39.453125 6.390625 43.28125 13.890625 
Q 47.125 21.390625 47.125 36.375 
Q 47.125 51.421875 43.28125 58.90625 
Q 39.453125 66.40625 31.78125 66.40625 
z
M 31.78125 74.21875 
Q 44.046875 74.21875 50.515625 64.515625 
Q 56.984375 54.828125 56.984375 36.375 
Q 56.984375 17.96875 50.515625 8.265625 
Q 44.046875 -1.421875 31.78125 -1.421875 
Q 19.53125 -1.421875 13.0625 8.265625 
Q 6.59375 17.96875 6.59375 36.375 
Q 6.59375 54.828125 13.0625 64.515625 
Q 19.53125 74.21875 31.78125 74.21875 
z
" id="DejaVuSans-30"/>
     </defs>
     <g transform="translate(832.991206 360.760469)scale(0.1 -0.1)">
      <use xlink:href="#DejaVuSans-33"/>
      <use x="63.623047" xlink:href="#DejaVuSans-30"/>
      <use x="127.246094" xlink:href="#DejaVuSans-20"/>
      <use x="159.033203" xlink:href="#DejaVuSans-20"/>
      <use x="190.820312" xlink:href="#DejaVuSans-54"/>
      <use x="251.904297" xlink:href="#DejaVuSans-68"/>
      <use x="315.283203" xlink:href="#DejaVuSans-75"/>
      <use x="378.662109" xlink:href="#DejaVuSans-73"/>
      <use x="430.761719" xlink:href="#DejaVuSans-20"/>
      <use x="462.548828" xlink:href="#DejaVuSans-69"/>
      <use x="490.332031" xlink:href="#DejaVuSans-74"/>
      <use x="529.541016" xlink:href="#DejaVuSans-20"/>
      <use x="561.328125" xlink:href="#DejaVuSans-69"/>
      <use x="589.111328" xlink:href="#DejaVuSans-73"/>
      <use x="641.210938" xlink:href="#DejaVuSans-20"/>
      <use x="672.998047" xlink:href="#DejaVuSans-70"/>
      <use x="736.474609" xlink:href="#DejaVuSans-72"/>
      <use x="777.556641" xlink:href="#DejaVuSans-65"/>
      <use x="839.080078" xlink:href="#DejaVuSans-64"/>
      <use x="902.556641" xlink:href="#DejaVuSans-69"/>
      <use x="930.339844" xlink:href="#DejaVuSans-63"/>
      <use x="985.320312" xlink:href="#DejaVuSans-61"/>
      <use x="1046.599609" xlink:href="#DejaVuSans-62"/>
      <use x="1110.076172" xlink:href="#DejaVuSans-6c"/>
      <use x="1137.859375" xlink:href="#DejaVuSans-65"/>
      <use x="1199.382812" xlink:href="#DejaVuSans-20"/>
      <use x="1231.169922" xlink:href="#DejaVuSans-6f"/>
      <use x="1292.351562" xlink:href="#DejaVuSans-66"/>
     </g>
    </g>
    <g clip-path="url(#p256d1d5764)">
     <!-- grammar -->
     <g transform="translate(876.213862 371.958281)scale(0.1 -0.1)">
      <use xlink:href="#DejaVuSans-67"/>
      <use x="63.476562" xlink:href="#DejaVuSans-72"/>
      <use x="104.589844" xlink:href="#DejaVuSans-61"/>
      <use x="165.869141" xlink:href="#DejaVuSans-6d"/>
      <use x="263.28125" xlink:href="#DejaVuSans-6d"/>
      <use x="360.693359" xlink:href="#DejaVuSans-61"/>
      <use x="421.972656" xlink:href="#DejaVuSans-72"/>
     </g>
    </g>
   </g>
   <g id="text_4">
    <g clip-path="url(#p256d1d5764)">
     <!-- 28  the human mind -->
     <defs>
      <path d="M 31.78125 34.625 
Q 24.75 34.625 20.71875 30.859375 
Q 16.703125 27.09375 16.703125 20.515625 
Q 16.703125 13.921875 20.71875 10.15625 
Q 24.75 6.390625 31.78125 6.390625 
Q 38.8125 6.390625 42.859375 10.171875 
Q 46.921875 13.96875 46.921875 20.515625 
Q 46.921875 27.09375 42.890625 30.859375 
Q 38.875 34.625 31.78125 34.625 
z
M 21.921875 38.8125 
Q 15.578125 40.375 12.03125 44.71875 
Q 8.5 49.078125 8.5 55.328125 
Q 8.5 64.0625 14.71875 69.140625 
Q 20.953125 74.21875 31.78125 74.21875 
Q 42.671875 74.21875 48.875 69.140625 
Q 55.078125 64.0625 55.078125 55.328125 
Q 55.078125 49.078125 51.53125 44.71875 
Q 48 40.375 41.703125 38.8125 
Q 48.828125 37.15625 52.796875 32.3125 
Q 56.78125 27.484375 56.78125 20.515625 
Q 56.78125 9.90625 50.3125 4.234375 
Q 43.84375 -1.421875 31.78125 -1.421875 
Q 19.734375 -1.421875 13.25 4.234375 
Q 6.78125 9.90625 6.78125 20.515625 
Q 6.78125 27.484375 10.78125 32.3125 
Q 14.796875 37.15625 21.921875 38.8125 
z
M 18.3125 54.390625 
Q 18.3125 48.734375 21.84375 45.5625 
Q 25.390625 42.390625 31.78125 42.390625 
Q 38.140625 42.390625 41.71875 45.5625 
Q 45.3125 48.734375 45.3125 54.390625 
Q 45.3125 60.0625 41.71875 63.234375 
Q 38.140625 66.40625 31.78125 66.40625 
Q 25.390625 66.40625 21.84375 63.234375 
Q 18.3125 60.0625 18.3125 54.390625 
z
" id="DejaVuSans-38"/>
     </defs>
     <g transform="translate(156.665044 595.450284)scale(0.1 -0.1)">
      <use xlink:href="#DejaVuSans-32"/>
      <use x="63.623047" xlink:href="#DejaVuSans-38"/>
      <use x="127.246094" xlink:href="#DejaVuSans-20"/>
      <use x="159.033203" xlink:href="#DejaVuSans-20"/>
      <use x="190.820312" xlink:href="#DejaVuSans-74"/>
      <use x="230.029297" xlink:href="#DejaVuSans-68"/>
      <use x="293.408203" xlink:href="#DejaVuSans-65"/>
      <use x="354.931641" xlink:href="#DejaVuSans-20"/>
      <use x="386.71875" xlink:href="#DejaVuSans-68"/>
      <use x="450.097656" xlink:href="#DejaVuSans-75"/>
      <use x="513.476562" xlink:href="#DejaVuSans-6d"/>
      <use x="610.888672" xlink:href="#DejaVuSans-61"/>
      <use x="672.167969" xlink:href="#DejaVuSans-6e"/>
      <use x="735.546875" xlink:href="#DejaVuSans-20"/>
      <use x="767.333984" xlink:href="#DejaVuSans-6d"/>
      <use x="864.746094" xlink:href="#DejaVuSans-69"/>
      <use x="892.529297" xlink:href="#DejaVuSans-6e"/>
      <use x="955.908203" xlink:href="#DejaVuSans-64"/>
     </g>
    </g>
   </g>
   <g id="text_5">
    <!-- Thus while knowledge is present in the human mind , it is predicable of grammar . -->
    <g transform="translate(305.36625 26.087875)scale(0.12 -0.12)">
     <use xlink:href="#DejaVuSans-54"/>
     <use x="61.083984" xlink:href="#DejaVuSans-68"/>
     <use x="124.462891" xlink:href="#DejaVuSans-75"/>
     <use x="187.841797" xlink:href="#DejaVuSans-73"/>
     <use x="239.941406" xlink:href="#DejaVuSans-20"/>
     <use x="271.728516" xlink:href="#DejaVuSans-77"/>
     <use x="353.515625" xlink:href="#DejaVuSans-68"/>
     <use x="416.894531" xlink:href="#DejaVuSans-69"/>
     <use x="444.677734" xlink:href="#DejaVuSans-6c"/>
     <use x="472.460938" xlink:href="#DejaVuSans-65"/>
     <use x="533.984375" xlink:href="#DejaVuSans-20"/>
     <use x="565.771484" xlink:href="#DejaVuSans-6b"/>
     <use x="623.681641" xlink:href="#DejaVuSans-6e"/>
     <use x="687.060547" xlink:href="#DejaVuSans-6f"/>
     <use x="748.242188" xlink:href="#DejaVuSans-77"/>
     <use x="830.029297" xlink:href="#DejaVuSans-6c"/>
     <use x="857.8125" xlink:href="#DejaVuSans-65"/>
     <use x="919.335938" xlink:href="#DejaVuSans-64"/>
     <use x="982.8125" xlink:href="#DejaVuSans-67"/>
     <use x="1046.289062" xlink:href="#DejaVuSans-65"/>
     <use x="1107.8125" xlink:href="#DejaVuSans-20"/>
     <use x="1139.599609" xlink:href="#DejaVuSans-69"/>
     <use x="1167.382812" xlink:href="#DejaVuSans-73"/>
     <use x="1219.482422" xlink:href="#DejaVuSans-20"/>
     <use x="1251.269531" xlink:href="#DejaVuSans-70"/>
     <use x="1314.746094" xlink:href="#DejaVuSans-72"/>
     <use x="1355.828125" xlink:href="#DejaVuSans-65"/>
     <use x="1417.351562" xlink:href="#DejaVuSans-73"/>
     <use x="1469.451172" xlink:href="#DejaVuSans-65"/>
     <use x="1530.974609" xlink:href="#DejaVuSans-6e"/>
     <use x="1594.353516" xlink:href="#DejaVuSans-74"/>
     <use x="1633.5625" xlink:href="#DejaVuSans-20"/>
     <use x="1665.349609" xlink:href="#DejaVuSans-69"/>
     <use x="1693.132812" xlink:href="#DejaVuSans-6e"/>
     <use x="1756.511719" xlink:href="#DejaVuSans-20"/>
     <use x="1788.298828" xlink:href="#DejaVuSans-74"/>
     <use x="1827.507812" xlink:href="#DejaVuSans-68"/>
     <use x="1890.886719" xlink:href="#DejaVuSans-65"/>
     <use x="1952.410156" xlink:href="#DejaVuSans-20"/>
     <use x="1984.197266" xlink:href="#DejaVuSans-68"/>
     <use x="2047.576172" xlink:href="#DejaVuSans-75"/>
     <use x="2110.955078" xlink:href="#DejaVuSans-6d"/>
     <use x="2208.367188" xlink:href="#DejaVuSans-61"/>
     <use x="2269.646484" xlink:href="#DejaVuSans-6e"/>
     <use x="2333.025391" xlink:href="#DejaVuSans-20"/>
     <use x="2364.8125" xlink:href="#DejaVuSans-6d"/>
     <use x="2462.224609" xlink:href="#DejaVuSans-69"/>
     <use x="2490.007812" xlink:href="#DejaVuSans-6e"/>
     <use x="2553.386719" xlink:href="#DejaVuSans-64"/>
     <use x="2616.863281" xlink:href="#DejaVuSans-20"/>
     <use x="2648.650391" xlink:href="#DejaVuSans-2c"/>
     <use x="2680.4375" xlink:href="#DejaVuSans-20"/>
     <use x="2712.224609" xlink:href="#DejaVuSans-69"/>
     <use x="2740.007812" xlink:href="#DejaVuSans-74"/>
     <use x="2779.216797" xlink:href="#DejaVuSans-20"/>
     <use x="2811.003906" xlink:href="#DejaVuSans-69"/>
     <use x="2838.787109" xlink:href="#DejaVuSans-73"/>
     <use x="2890.886719" xlink:href="#DejaVuSans-20"/>
     <use x="2922.673828" xlink:href="#DejaVuSans-70"/>
     <use x="2986.150391" xlink:href="#DejaVuSans-72"/>
     <use x="3027.232422" xlink:href="#DejaVuSans-65"/>
     <use x="3088.755859" xlink:href="#DejaVuSans-64"/>
     <use x="3152.232422" xlink:href="#DejaVuSans-69"/>
     <use x="3180.015625" xlink:href="#DejaVuSans-63"/>
     <use x="3234.996094" xlink:href="#DejaVuSans-61"/>
     <use x="3296.275391" xlink:href="#DejaVuSans-62"/>
     <use x="3359.751953" xlink:href="#DejaVuSans-6c"/>
     <use x="3387.535156" xlink:href="#DejaVuSans-65"/>
     <use x="3449.058594" xlink:href="#DejaVuSans-20"/>
     <use x="3480.845703" xlink:href="#DejaVuSans-6f"/>
     <use x="3542.027344" xlink:href="#DejaVuSans-66"/>
     <use x="3577.232422" xlink:href="#DejaVuSans-20"/>
     <use x="3609.019531" xlink:href="#DejaVuSans-67"/>
     <use x="3672.496094" xlink:href="#DejaVuSans-72"/>
     <use x="3713.609375" xlink:href="#DejaVuSans-61"/>
     <use x="3774.888672" xlink:href="#DejaVuSans-6d"/>
     <use x="3872.300781" xlink:href="#DejaVuSans-6d"/>
     <use x="3969.712891" xlink:href="#DejaVuSans-61"/>
     <use x="4030.992188" xlink:href="#DejaVuSans-72"/>
     <use x="4072.105469" xlink:href="#DejaVuSans-20"/>
     <use x="4103.892578" xlink:href="#DejaVuSans-2e"/>
    </g>
    <!-- 28 ∧ 30 ∧ 29 ∧ 31 -->
    <defs>
     <path d="M 12.890625 0 
L 30.515625 57.90625 
L 42.71875 57.90625 
L 60.296875 0 
L 50.78125 0 
L 36.625 45.90625 
L 22.40625 0 
z
" id="DejaVuSans-2227"/>
    </defs>
    <g transform="translate(498.345 39.52525)scale(0.12 -0.12)">
     <use xlink:href="#DejaVuSans-32"/>
     <use x="63.623047" xlink:href="#DejaVuSans-38"/>
     <use x="127.246094" xlink:href="#DejaVuSans-20"/>
     <use x="159.033203" xlink:href="#DejaVuSans-2227"/>
     <use x="232.226562" xlink:href="#DejaVuSans-20"/>
     <use x="264.013672" xlink:href="#DejaVuSans-33"/>
     <use x="327.636719" xlink:href="#DejaVuSans-30"/>
     <use x="391.259766" xlink:href="#DejaVuSans-20"/>
     <use x="423.046875" xlink:href="#DejaVuSans-2227"/>
     <use x="496.240234" xlink:href="#DejaVuSans-20"/>
     <use x="528.027344" xlink:href="#DejaVuSans-32"/>
     <use x="591.650391" xlink:href="#DejaVuSans-39"/>
     <use x="655.273438" xlink:href="#DejaVuSans-20"/>
     <use x="687.060547" xlink:href="#DejaVuSans-2227"/>
     <use x="760.253906" xlink:href="#DejaVuSans-20"/>
     <use x="792.041016" xlink:href="#DejaVuSans-33"/>
     <use x="855.664062" xlink:href="#DejaVuSans-31"/>
    </g>
    <!--  pyprover.logic.Prop('28')&amp; pyprover.logic.Prop('30')&amp; pyprover.logic.Prop('29')&amp; -->
    <defs>
     <path d="M 32.171875 -5.078125 
Q 28.375 -14.84375 24.75 -17.8125 
Q 21.140625 -20.796875 15.09375 -20.796875 
L 7.90625 -20.796875 
L 7.90625 -13.28125 
L 13.1875 -13.28125 
Q 16.890625 -13.28125 18.9375 -11.515625 
Q 21 -9.765625 23.484375 -3.21875 
L 25.09375 0.875 
L 2.984375 54.6875 
L 12.5 54.6875 
L 29.59375 11.921875 
L 46.6875 54.6875 
L 56.203125 54.6875 
z
" id="DejaVuSans-79"/>
     <path d="M 2.984375 54.6875 
L 12.5 54.6875 
L 29.59375 8.796875 
L 46.6875 54.6875 
L 56.203125 54.6875 
L 35.6875 0 
L 23.484375 0 
z
" id="DejaVuSans-76"/>
     <path d="M 19.671875 64.796875 
L 19.671875 37.40625 
L 32.078125 37.40625 
Q 38.96875 37.40625 42.71875 40.96875 
Q 46.484375 44.53125 46.484375 51.125 
Q 46.484375 57.671875 42.71875 61.234375 
Q 38.96875 64.796875 32.078125 64.796875 
z
M 9.8125 72.90625 
L 32.078125 72.90625 
Q 44.34375 72.90625 50.609375 67.359375 
Q 56.890625 61.8125 56.890625 51.125 
Q 56.890625 40.328125 50.609375 34.8125 
Q 44.34375 29.296875 32.078125 29.296875 
L 19.671875 29.296875 
L 19.671875 0 
L 9.8125 0 
z
" id="DejaVuSans-50"/>
     <path d="M 31 75.875 
Q 24.46875 64.65625 21.28125 53.65625 
Q 18.109375 42.671875 18.109375 31.390625 
Q 18.109375 20.125 21.3125 9.0625 
Q 24.515625 -2 31 -13.1875 
L 23.1875 -13.1875 
Q 15.875 -1.703125 12.234375 9.375 
Q 8.59375 20.453125 8.59375 31.390625 
Q 8.59375 42.28125 12.203125 53.3125 
Q 15.828125 64.359375 23.1875 75.875 
z
" id="DejaVuSans-28"/>
     <path d="M 17.921875 72.90625 
L 17.921875 45.796875 
L 9.625 45.796875 
L 9.625 72.90625 
z
" id="DejaVuSans-27"/>
     <path d="M 8.015625 75.875 
L 15.828125 75.875 
Q 23.140625 64.359375 26.78125 53.3125 
Q 30.421875 42.28125 30.421875 31.390625 
Q 30.421875 20.453125 26.78125 9.375 
Q 23.140625 -1.703125 15.828125 -13.1875 
L 8.015625 -13.1875 
Q 14.5 -2 17.703125 9.0625 
Q 20.90625 20.125 20.90625 31.390625 
Q 20.90625 42.671875 17.703125 53.65625 
Q 14.5 64.65625 8.015625 75.875 
z
" id="DejaVuSans-29"/>
     <path d="M 24.3125 39.203125 
Q 19.875 35.25 17.796875 31.3125 
Q 15.71875 27.390625 15.71875 23.09375 
Q 15.71875 15.96875 20.890625 11.234375 
Q 26.078125 6.5 33.890625 6.5 
Q 38.53125 6.5 42.578125 8.03125 
Q 46.625 9.578125 50.203125 12.703125 
z
M 31.203125 44.671875 
L 56 19.28125 
Q 58.890625 23.640625 60.5 28.59375 
Q 62.109375 33.546875 62.40625 39.109375 
L 71.484375 39.109375 
Q 70.90625 32.671875 68.359375 26.359375 
Q 65.828125 20.0625 61.28125 13.921875 
L 74.90625 0 
L 62.59375 0 
L 55.609375 7.171875 
Q 50.53125 2.828125 44.96875 0.703125 
Q 39.40625 -1.421875 33.015625 -1.421875 
Q 21.234375 -1.421875 13.765625 5.296875 
Q 6.296875 12.015625 6.296875 22.515625 
Q 6.296875 28.765625 9.5625 34.25 
Q 12.84375 39.75 19.390625 44.578125 
Q 17.046875 47.65625 15.8125 50.703125 
Q 14.59375 53.765625 14.59375 56.6875 
Q 14.59375 64.59375 20.015625 69.40625 
Q 25.4375 74.21875 34.421875 74.21875 
Q 38.484375 74.21875 42.5 73.34375 
Q 46.53125 72.46875 50.6875 70.703125 
L 50.6875 61.8125 
Q 46.4375 64.109375 42.578125 65.296875 
Q 38.71875 66.5 35.40625 66.5 
Q 30.28125 66.5 27.078125 63.78125 
Q 23.875 61.078125 23.875 56.78125 
Q 23.875 54.296875 25.3125 51.78125 
Q 26.765625 49.265625 31.203125 44.671875 
z
" id="DejaVuSans-26"/>
    </defs>
    <g transform="translate(311.41125 52.962625)scale(0.12 -0.12)">
     <use xlink:href="#DejaVuSans-20"/>
     <use x="31.787109" xlink:href="#DejaVuSans-70"/>
     <use x="95.263672" xlink:href="#DejaVuSans-79"/>
     <use x="154.443359" xlink:href="#DejaVuSans-70"/>
     <use x="217.919922" xlink:href="#DejaVuSans-72"/>
     <use x="259.001953" xlink:href="#DejaVuSans-6f"/>
     <use x="320.183594" xlink:href="#DejaVuSans-76"/>
     <use x="379.363281" xlink:href="#DejaVuSans-65"/>
     <use x="440.886719" xlink:href="#DejaVuSans-72"/>
     <use x="481.859375" xlink:href="#DejaVuSans-2e"/>
     <use x="513.646484" xlink:href="#DejaVuSans-6c"/>
     <use x="541.429688" xlink:href="#DejaVuSans-6f"/>
     <use x="602.611328" xlink:href="#DejaVuSans-67"/>
     <use x="666.087891" xlink:href="#DejaVuSans-69"/>
     <use x="693.871094" xlink:href="#DejaVuSans-63"/>
     <use x="748.851562" xlink:href="#DejaVuSans-2e"/>
     <use x="780.638672" xlink:href="#DejaVuSans-50"/>
     <use x="840.925781" xlink:href="#DejaVuSans-72"/>
     <use x="882.007812" xlink:href="#DejaVuSans-6f"/>
     <use x="943.189453" xlink:href="#DejaVuSans-70"/>
     <use x="1006.666016" xlink:href="#DejaVuSans-28"/>
     <use x="1045.679688" xlink:href="#DejaVuSans-27"/>
     <use x="1073.169922" xlink:href="#DejaVuSans-32"/>
     <use x="1136.792969" xlink:href="#DejaVuSans-38"/>
     <use x="1200.416016" xlink:href="#DejaVuSans-27"/>
     <use x="1227.90625" xlink:href="#DejaVuSans-29"/>
     <use x="1266.919922" xlink:href="#DejaVuSans-26"/>
     <use x="1344.898438" xlink:href="#DejaVuSans-20"/>
     <use x="1376.685547" xlink:href="#DejaVuSans-70"/>
     <use x="1440.162109" xlink:href="#DejaVuSans-79"/>
     <use x="1499.341797" xlink:href="#DejaVuSans-70"/>
     <use x="1562.818359" xlink:href="#DejaVuSans-72"/>
     <use x="1603.900391" xlink:href="#DejaVuSans-6f"/>
     <use x="1665.082031" xlink:href="#DejaVuSans-76"/>
     <use x="1724.261719" xlink:href="#DejaVuSans-65"/>
     <use x="1785.785156" xlink:href="#DejaVuSans-72"/>
     <use x="1826.757812" xlink:href="#DejaVuSans-2e"/>
     <use x="1858.544922" xlink:href="#DejaVuSans-6c"/>
     <use x="1886.328125" xlink:href="#DejaVuSans-6f"/>
     <use x="1947.509766" xlink:href="#DejaVuSans-67"/>
     <use x="2010.986328" xlink:href="#DejaVuSans-69"/>
     <use x="2038.769531" xlink:href="#DejaVuSans-63"/>
     <use x="2093.75" xlink:href="#DejaVuSans-2e"/>
     <use x="2125.537109" xlink:href="#DejaVuSans-50"/>
     <use x="2185.824219" xlink:href="#DejaVuSans-72"/>
     <use x="2226.90625" xlink:href="#DejaVuSans-6f"/>
     <use x="2288.087891" xlink:href="#DejaVuSans-70"/>
     <use x="2351.564453" xlink:href="#DejaVuSans-28"/>
     <use x="2390.578125" xlink:href="#DejaVuSans-27"/>
     <use x="2418.068359" xlink:href="#DejaVuSans-33"/>
     <use x="2481.691406" xlink:href="#DejaVuSans-30"/>
     <use x="2545.314453" xlink:href="#DejaVuSans-27"/>
     <use x="2572.804688" xlink:href="#DejaVuSans-29"/>
     <use x="2611.818359" xlink:href="#DejaVuSans-26"/>
     <use x="2689.796875" xlink:href="#DejaVuSans-20"/>
     <use x="2721.583984" xlink:href="#DejaVuSans-70"/>
     <use x="2785.060547" xlink:href="#DejaVuSans-79"/>
     <use x="2844.240234" xlink:href="#DejaVuSans-70"/>
     <use x="2907.716797" xlink:href="#DejaVuSans-72"/>
     <use x="2948.798828" xlink:href="#DejaVuSans-6f"/>
     <use x="3009.980469" xlink:href="#DejaVuSans-76"/>
     <use x="3069.160156" xlink:href="#DejaVuSans-65"/>
     <use x="3130.683594" xlink:href="#DejaVuSans-72"/>
     <use x="3171.65625" xlink:href="#DejaVuSans-2e"/>
     <use x="3203.443359" xlink:href="#DejaVuSans-6c"/>
     <use x="3231.226562" xlink:href="#DejaVuSans-6f"/>
     <use x="3292.408203" xlink:href="#DejaVuSans-67"/>
     <use x="3355.884766" xlink:href="#DejaVuSans-69"/>
     <use x="3383.667969" xlink:href="#DejaVuSans-63"/>
     <use x="3438.648438" xlink:href="#DejaVuSans-2e"/>
     <use x="3470.435547" xlink:href="#DejaVuSans-50"/>
     <use x="3530.722656" xlink:href="#DejaVuSans-72"/>
     <use x="3571.804688" xlink:href="#DejaVuSans-6f"/>
     <use x="3632.986328" xlink:href="#DejaVuSans-70"/>
     <use x="3696.462891" xlink:href="#DejaVuSans-28"/>
     <use x="3735.476562" xlink:href="#DejaVuSans-27"/>
     <use x="3762.966797" xlink:href="#DejaVuSans-32"/>
     <use x="3826.589844" xlink:href="#DejaVuSans-39"/>
     <use x="3890.212891" xlink:href="#DejaVuSans-27"/>
     <use x="3917.703125" xlink:href="#DejaVuSans-29"/>
     <use x="3956.716797" xlink:href="#DejaVuSans-26"/>
    </g>
    <!-- pyprover.logic.Prop('31') -->
    <g transform="translate(479.389688 66.4)scale(0.12 -0.12)">
     <use xlink:href="#DejaVuSans-70"/>
     <use x="63.476562" xlink:href="#DejaVuSans-79"/>
     <use x="122.65625" xlink:href="#DejaVuSans-70"/>
     <use x="186.132812" xlink:href="#DejaVuSans-72"/>
     <use x="227.214844" xlink:href="#DejaVuSans-6f"/>
     <use x="288.396484" xlink:href="#DejaVuSans-76"/>
     <use x="347.576172" xlink:href="#DejaVuSans-65"/>
     <use x="409.099609" xlink:href="#DejaVuSans-72"/>
     <use x="450.072266" xlink:href="#DejaVuSans-2e"/>
     <use x="481.859375" xlink:href="#DejaVuSans-6c"/>
     <use x="509.642578" xlink:href="#DejaVuSans-6f"/>
     <use x="570.824219" xlink:href="#DejaVuSans-67"/>
     <use x="634.300781" xlink:href="#DejaVuSans-69"/>
     <use x="662.083984" xlink:href="#DejaVuSans-63"/>
     <use x="717.064453" xlink:href="#DejaVuSans-2e"/>
     <use x="748.851562" xlink:href="#DejaVuSans-50"/>
     <use x="809.138672" xlink:href="#DejaVuSans-72"/>
     <use x="850.220703" xlink:href="#DejaVuSans-6f"/>
     <use x="911.402344" xlink:href="#DejaVuSans-70"/>
     <use x="974.878906" xlink:href="#DejaVuSans-28"/>
     <use x="1013.892578" xlink:href="#DejaVuSans-27"/>
     <use x="1041.382812" xlink:href="#DejaVuSans-33"/>
     <use x="1105.005859" xlink:href="#DejaVuSans-31"/>
     <use x="1168.628906" xlink:href="#DejaVuSans-27"/>
     <use x="1196.119141" xlink:href="#DejaVuSans-29"/>
    </g>
   </g>
  </g>
 </g>
 <defs>
  <clipPath id="p256d1d5764">
   <rect height="554.4" width="837" x="135" y="86.4"/>
  </clipPath>
 </defs>
</svg>
