<?xml version="1.0" encoding="utf-8" standalone="no"?>
<!DOCTYPE svg PUBLIC "-//W3C//DTD SVG 1.1//EN"
  "http://www.w3.org/Graphics/SVG/1.1/DTD/svg11.dtd">
<!-- Created with matplotlib (http://matplotlib.org/) -->
<svg height="720pt" version="1.1" viewBox="0 0 1080 720" width="1080pt" xmlns="http://www.w3.org/2000/svg" xmlns:xlink="http://www.w3.org/1999/xlink">
 <defs>
  <style type="text/css">
*{stroke-linecap:butt;stroke-linejoin:round;}
  </style>
 </defs>
 <g id="figure_1">
  <g id="patch_1">
   <path d="M 0 720 
L 1080 720 
L 1080 0 
L 0 0 
z
" style="fill:#ffffff;"/>
  </g>
  <g id="axes_1">
   <g id="patch_2">
    <path clip-path="url(#pced0063e37)" d="M 639.840489 134.509091 
Q 452.358404 247.762029 267.747265 359.280705 
" style="fill:none;stroke:#000000;stroke-linecap:round;stroke-width:3;"/>
    <path clip-path="url(#pced0063e37)" d="M 273.096766 358.853112 
L 267.747265 359.280705 
L 270.614892 354.744548 
L 273.096766 358.853112 
z
" style="stroke:#000000;stroke-linecap:round;stroke-width:3;"/>
   </g>
   <g id="patch_3">
    <path clip-path="url(#pced0063e37)" d="M 639.840489 134.509091 
Q 590.521199 246.766643 542.551039 355.953388 
" style="fill:none;stroke:#000000;stroke-linecap:round;stroke-width:3;"/>
    <path clip-path="url(#pced0063e37)" d="M 546.679046 352.524167 
L 542.551039 355.953388 
L 542.284466 350.59345 
L 546.679046 352.524167 
z
" style="stroke:#000000;stroke-linecap:round;stroke-width:3;"/>
   </g>
   <g id="patch_4">
    <path clip-path="url(#pced0063e37)" d="M 639.840489 134.509091 
Q 689.411527 246.766643 737.62767 355.955928 
" style="fill:none;stroke:#000000;stroke-linecap:round;stroke-width:3;"/>
    <path clip-path="url(#pced0063e37)" d="M 737.884175 350.595498 
L 737.62767 355.955928 
L 733.49323 352.534466 
L 737.884175 350.595498 
z
" style="stroke:#000000;stroke-linecap:round;stroke-width:3;"/>
   </g>
   <g id="patch_5">
    <path clip-path="url(#pced0063e37)" d="M 639.840489 134.509091 
Q 767.730025 247.400229 893.104991 358.071697 
" style="fill:none;stroke:#000000;stroke-linecap:round;stroke-width:3;"/>
    <path clip-path="url(#pced0063e37)" d="M 891.094698 353.095883 
L 893.104991 358.071697 
L 887.918164 356.694442 
L 891.094698 353.095883 
z
" style="stroke:#000000;stroke-linecap:round;stroke-width:3;"/>
   </g>
   <g id="patch_6">
    <path clip-path="url(#pced0063e37)" d="M 260.596982 363.6 
Q 234.677503 475.710734 209.513547 584.553567 
" style="fill:none;stroke:#000000;stroke-linecap:round;stroke-width:3;"/>
    <path clip-path="url(#pced0063e37)" d="M 212.933085 580.417535 
L 209.513547 584.553567 
L 208.256444 579.336317 
L 212.933085 580.417535 
z
" style="stroke:#000000;stroke-linecap:round;stroke-width:3;"/>
   </g>
   <g id="patch_7">
    <path clip-path="url(#pced0063e37)" d="M 260.596982 363.6 
Q 286.516462 475.710734 311.680418 584.553567 
" style="fill:none;stroke:#000000;stroke-linecap:round;stroke-width:3;"/>
    <path clip-path="url(#pced0063e37)" d="M 312.937521 579.336317 
L 311.680418 584.553567 
L 308.26088 580.417535 
L 312.937521 579.336317 
z
" style="stroke:#000000;stroke-linecap:round;stroke-width:3;"/>
   </g>
   <g id="patch_8">
    <path clip-path="url(#pced0063e37)" d="M 539.191573 363.6 
Q 539.191573 475.644317 539.191573 584.334532 
" style="fill:none;stroke:#000000;stroke-linecap:round;stroke-width:3;"/>
    <path clip-path="url(#pced0063e37)" d="M 541.591573 579.534532 
L 539.191573 584.334532 
L 536.791573 579.534532 
L 541.591573 579.534532 
z
" style="stroke:#000000;stroke-linecap:round;stroke-width:3;"/>
   </g>
   <g id="text_1">
    <g id="patch_9">
     <path clip-path="url(#pced0063e37)" d="M 528.255874 257.03267 
L 650.776187 257.03267 
Q 653.776187 257.03267 653.776187 254.03267 
L 653.776187 244.07642 
Q 653.776187 241.07642 650.776187 241.07642 
L 528.255874 241.07642 
Q 525.255874 241.07642 525.255874 244.07642 
L 525.255874 254.03267 
Q 525.255874 257.03267 528.255874 257.03267 
z
" style="fill:#ffffff;stroke:#ffffff;stroke-linejoin:miter;"/>
    </g>
    <g clip-path="url(#pced0063e37)">
     <!-- shared_negations: (not,) -->
     <defs>
      <path d="M 44.28125 53.078125 
L 44.28125 44.578125 
Q 40.484375 46.53125 36.375 47.5 
Q 32.28125 48.484375 27.875 48.484375 
Q 21.1875 48.484375 17.84375 46.4375 
Q 14.5 44.390625 14.5 40.28125 
Q 14.5 37.15625 16.890625 35.375 
Q 19.28125 33.59375 26.515625 31.984375 
L 29.59375 31.296875 
Q 39.15625 29.25 43.1875 25.515625 
Q 47.21875 21.78125 47.21875 15.09375 
Q 47.21875 7.46875 41.1875 3.015625 
Q 35.15625 -1.421875 24.609375 -1.421875 
Q 20.21875 -1.421875 15.453125 -0.5625 
Q 10.6875 0.296875 5.421875 2 
L 5.421875 11.28125 
Q 10.40625 8.6875 15.234375 7.390625 
Q 20.0625 6.109375 24.8125 6.109375 
Q 31.15625 6.109375 34.5625 8.28125 
Q 37.984375 10.453125 37.984375 14.40625 
Q 37.984375 18.0625 35.515625 20.015625 
Q 33.0625 21.96875 24.703125 23.78125 
L 21.578125 24.515625 
Q 13.234375 26.265625 9.515625 29.90625 
Q 5.8125 33.546875 5.8125 39.890625 
Q 5.8125 47.609375 11.28125 51.796875 
Q 16.75 56 26.8125 56 
Q 31.78125 56 36.171875 55.265625 
Q 40.578125 54.546875 44.28125 53.078125 
z
" id="DejaVuSans-73"/>
      <path d="M 54.890625 33.015625 
L 54.890625 0 
L 45.90625 0 
L 45.90625 32.71875 
Q 45.90625 40.484375 42.875 44.328125 
Q 39.84375 48.1875 33.796875 48.1875 
Q 26.515625 48.1875 22.3125 43.546875 
Q 18.109375 38.921875 18.109375 30.90625 
L 18.109375 0 
L 9.078125 0 
L 9.078125 75.984375 
L 18.109375 75.984375 
L 18.109375 46.1875 
Q 21.34375 51.125 25.703125 53.5625 
Q 30.078125 56 35.796875 56 
Q 45.21875 56 50.046875 50.171875 
Q 54.890625 44.34375 54.890625 33.015625 
z
" id="DejaVuSans-68"/>
      <path d="M 34.28125 27.484375 
Q 23.390625 27.484375 19.1875 25 
Q 14.984375 22.515625 14.984375 16.5 
Q 14.984375 11.71875 18.140625 8.90625 
Q 21.296875 6.109375 26.703125 6.109375 
Q 34.1875 6.109375 38.703125 11.40625 
Q 43.21875 16.703125 43.21875 25.484375 
L 43.21875 27.484375 
z
M 52.203125 31.203125 
L 52.203125 0 
L 43.21875 0 
L 43.21875 8.296875 
Q 40.140625 3.328125 35.546875 0.953125 
Q 30.953125 -1.421875 24.3125 -1.421875 
Q 15.921875 -1.421875 10.953125 3.296875 
Q 6 8.015625 6 15.921875 
Q 6 25.140625 12.171875 29.828125 
Q 18.359375 34.515625 30.609375 34.515625 
L 43.21875 34.515625 
L 43.21875 35.40625 
Q 43.21875 41.609375 39.140625 45 
Q 35.0625 48.390625 27.6875 48.390625 
Q 23 48.390625 18.546875 47.265625 
Q 14.109375 46.140625 10.015625 43.890625 
L 10.015625 52.203125 
Q 14.9375 54.109375 19.578125 55.046875 
Q 24.21875 56 28.609375 56 
Q 40.484375 56 46.34375 49.84375 
Q 52.203125 43.703125 52.203125 31.203125 
z
" id="DejaVuSans-61"/>
      <path d="M 41.109375 46.296875 
Q 39.59375 47.171875 37.8125 47.578125 
Q 36.03125 48 33.890625 48 
Q 26.265625 48 22.1875 43.046875 
Q 18.109375 38.09375 18.109375 28.8125 
L 18.109375 0 
L 9.078125 0 
L 9.078125 54.6875 
L 18.109375 54.6875 
L 18.109375 46.1875 
Q 20.953125 51.171875 25.484375 53.578125 
Q 30.03125 56 36.53125 56 
Q 37.453125 56 38.578125 55.875 
Q 39.703125 55.765625 41.0625 55.515625 
z
" id="DejaVuSans-72"/>
      <path d="M 56.203125 29.59375 
L 56.203125 25.203125 
L 14.890625 25.203125 
Q 15.484375 15.921875 20.484375 11.0625 
Q 25.484375 6.203125 34.421875 6.203125 
Q 39.59375 6.203125 44.453125 7.46875 
Q 49.3125 8.734375 54.109375 11.28125 
L 54.109375 2.78125 
Q 49.265625 0.734375 44.1875 -0.34375 
Q 39.109375 -1.421875 33.890625 -1.421875 
Q 20.796875 -1.421875 13.15625 6.1875 
Q 5.515625 13.8125 5.515625 26.8125 
Q 5.515625 40.234375 12.765625 48.109375 
Q 20.015625 56 32.328125 56 
Q 43.359375 56 49.78125 48.890625 
Q 56.203125 41.796875 56.203125 29.59375 
z
M 47.21875 32.234375 
Q 47.125 39.59375 43.09375 43.984375 
Q 39.0625 48.390625 32.421875 48.390625 
Q 24.90625 48.390625 20.390625 44.140625 
Q 15.875 39.890625 15.1875 32.171875 
z
" id="DejaVuSans-65"/>
      <path d="M 45.40625 46.390625 
L 45.40625 75.984375 
L 54.390625 75.984375 
L 54.390625 0 
L 45.40625 0 
L 45.40625 8.203125 
Q 42.578125 3.328125 38.25 0.953125 
Q 33.9375 -1.421875 27.875 -1.421875 
Q 17.96875 -1.421875 11.734375 6.484375 
Q 5.515625 14.40625 5.515625 27.296875 
Q 5.515625 40.1875 11.734375 48.09375 
Q 17.96875 56 27.875 56 
Q 33.9375 56 38.25 53.625 
Q 42.578125 51.265625 45.40625 46.390625 
z
M 14.796875 27.296875 
Q 14.796875 17.390625 18.875 11.75 
Q 22.953125 6.109375 30.078125 6.109375 
Q 37.203125 6.109375 41.296875 11.75 
Q 45.40625 17.390625 45.40625 27.296875 
Q 45.40625 37.203125 41.296875 42.84375 
Q 37.203125 48.484375 30.078125 48.484375 
Q 22.953125 48.484375 18.875 42.84375 
Q 14.796875 37.203125 14.796875 27.296875 
z
" id="DejaVuSans-64"/>
      <path d="M 50.984375 -16.609375 
L 50.984375 -23.578125 
L -0.984375 -23.578125 
L -0.984375 -16.609375 
z
" id="DejaVuSans-5f"/>
      <path d="M 54.890625 33.015625 
L 54.890625 0 
L 45.90625 0 
L 45.90625 32.71875 
Q 45.90625 40.484375 42.875 44.328125 
Q 39.84375 48.1875 33.796875 48.1875 
Q 26.515625 48.1875 22.3125 43.546875 
Q 18.109375 38.921875 18.109375 30.90625 
L 18.109375 0 
L 9.078125 0 
L 9.078125 54.6875 
L 18.109375 54.6875 
L 18.109375 46.1875 
Q 21.34375 51.125 25.703125 53.5625 
Q 30.078125 56 35.796875 56 
Q 45.21875 56 50.046875 50.171875 
Q 54.890625 44.34375 54.890625 33.015625 
z
" id="DejaVuSans-6e"/>
      <path d="M 45.40625 27.984375 
Q 45.40625 37.75 41.375 43.109375 
Q 37.359375 48.484375 30.078125 48.484375 
Q 22.859375 48.484375 18.828125 43.109375 
Q 14.796875 37.75 14.796875 27.984375 
Q 14.796875 18.265625 18.828125 12.890625 
Q 22.859375 7.515625 30.078125 7.515625 
Q 37.359375 7.515625 41.375 12.890625 
Q 45.40625 18.265625 45.40625 27.984375 
z
M 54.390625 6.78125 
Q 54.390625 -7.171875 48.1875 -13.984375 
Q 42 -20.796875 29.203125 -20.796875 
Q 24.46875 -20.796875 20.265625 -20.09375 
Q 16.0625 -19.390625 12.109375 -17.921875 
L 12.109375 -9.1875 
Q 16.0625 -11.328125 19.921875 -12.34375 
Q 23.78125 -13.375 27.78125 -13.375 
Q 36.625 -13.375 41.015625 -8.765625 
Q 45.40625 -4.15625 45.40625 5.171875 
L 45.40625 9.625 
Q 42.625 4.78125 38.28125 2.390625 
Q 33.9375 0 27.875 0 
Q 17.828125 0 11.671875 7.65625 
Q 5.515625 15.328125 5.515625 27.984375 
Q 5.515625 40.671875 11.671875 48.328125 
Q 17.828125 56 27.875 56 
Q 33.9375 56 38.28125 53.609375 
Q 42.625 51.21875 45.40625 46.390625 
L 45.40625 54.6875 
L 54.390625 54.6875 
z
" id="DejaVuSans-67"/>
      <path d="M 18.3125 70.21875 
L 18.3125 54.6875 
L 36.8125 54.6875 
L 36.8125 47.703125 
L 18.3125 47.703125 
L 18.3125 18.015625 
Q 18.3125 11.328125 20.140625 9.421875 
Q 21.96875 7.515625 27.59375 7.515625 
L 36.8125 7.515625 
L 36.8125 0 
L 27.59375 0 
Q 17.1875 0 13.234375 3.875 
Q 9.28125 7.765625 9.28125 18.015625 
L 9.28125 47.703125 
L 2.6875 47.703125 
L 2.6875 54.6875 
L 9.28125 54.6875 
L 9.28125 70.21875 
z
" id="DejaVuSans-74"/>
      <path d="M 9.421875 54.6875 
L 18.40625 54.6875 
L 18.40625 0 
L 9.421875 0 
z
M 9.421875 75.984375 
L 18.40625 75.984375 
L 18.40625 64.59375 
L 9.421875 64.59375 
z
" id="DejaVuSans-69"/>
      <path d="M 30.609375 48.390625 
Q 23.390625 48.390625 19.1875 42.75 
Q 14.984375 37.109375 14.984375 27.296875 
Q 14.984375 17.484375 19.15625 11.84375 
Q 23.34375 6.203125 30.609375 6.203125 
Q 37.796875 6.203125 41.984375 11.859375 
Q 46.1875 17.53125 46.1875 27.296875 
Q 46.1875 37.015625 41.984375 42.703125 
Q 37.796875 48.390625 30.609375 48.390625 
z
M 30.609375 56 
Q 42.328125 56 49.015625 48.375 
Q 55.71875 40.765625 55.71875 27.296875 
Q 55.71875 13.875 49.015625 6.21875 
Q 42.328125 -1.421875 30.609375 -1.421875 
Q 18.84375 -1.421875 12.171875 6.21875 
Q 5.515625 13.875 5.515625 27.296875 
Q 5.515625 40.765625 12.171875 48.375 
Q 18.84375 56 30.609375 56 
z
" id="DejaVuSans-6f"/>
      <path d="M 11.71875 12.40625 
L 22.015625 12.40625 
L 22.015625 0 
L 11.71875 0 
z
M 11.71875 51.703125 
L 22.015625 51.703125 
L 22.015625 39.3125 
L 11.71875 39.3125 
z
" id="DejaVuSans-3a"/>
      <path id="DejaVuSans-20"/>
      <path d="M 31 75.875 
Q 24.46875 64.65625 21.28125 53.65625 
Q 18.109375 42.671875 18.109375 31.390625 
Q 18.109375 20.125 21.3125 9.0625 
Q 24.515625 -2 31 -13.1875 
L 23.1875 -13.1875 
Q 15.875 -1.703125 12.234375 9.375 
Q 8.59375 20.453125 8.59375 31.390625 
Q 8.59375 42.28125 12.203125 53.3125 
Q 15.828125 64.359375 23.1875 75.875 
z
" id="DejaVuSans-28"/>
      <path d="M 11.71875 12.40625 
L 22.015625 12.40625 
L 22.015625 4 
L 14.015625 -11.625 
L 7.71875 -11.625 
L 11.71875 4 
z
" id="DejaVuSans-2c"/>
      <path d="M 8.015625 75.875 
L 15.828125 75.875 
Q 23.140625 64.359375 26.78125 53.3125 
Q 30.421875 42.28125 30.421875 31.390625 
Q 30.421875 20.453125 26.78125 9.375 
Q 23.140625 -1.703125 15.828125 -13.1875 
L 8.015625 -13.1875 
Q 14.5 -2 17.703125 9.0625 
Q 20.90625 20.125 20.90625 31.390625 
Q 20.90625 42.671875 17.703125 53.65625 
Q 14.5 64.65625 8.015625 75.875 
z
" id="DejaVuSans-29"/>
     </defs>
     <g transform="translate(528.255874 251.674858)scale(0.1 -0.1)">
      <use xlink:href="#DejaVuSans-73"/>
      <use x="52.099609" xlink:href="#DejaVuSans-68"/>
      <use x="115.478516" xlink:href="#DejaVuSans-61"/>
      <use x="176.757812" xlink:href="#DejaVuSans-72"/>
      <use x="217.839844" xlink:href="#DejaVuSans-65"/>
      <use x="279.363281" xlink:href="#DejaVuSans-64"/>
      <use x="342.839844" xlink:href="#DejaVuSans-5f"/>
      <use x="392.839844" xlink:href="#DejaVuSans-6e"/>
      <use x="456.21875" xlink:href="#DejaVuSans-65"/>
      <use x="517.742188" xlink:href="#DejaVuSans-67"/>
      <use x="581.21875" xlink:href="#DejaVuSans-61"/>
      <use x="642.498047" xlink:href="#DejaVuSans-74"/>
      <use x="681.707031" xlink:href="#DejaVuSans-69"/>
      <use x="709.490234" xlink:href="#DejaVuSans-6f"/>
      <use x="770.671875" xlink:href="#DejaVuSans-6e"/>
      <use x="834.050781" xlink:href="#DejaVuSans-73"/>
      <use x="886.150391" xlink:href="#DejaVuSans-3a"/>
      <use x="919.841797" xlink:href="#DejaVuSans-20"/>
      <use x="951.628906" xlink:href="#DejaVuSans-28"/>
      <use x="990.642578" xlink:href="#DejaVuSans-6e"/>
      <use x="1054.021484" xlink:href="#DejaVuSans-6f"/>
      <use x="1115.203125" xlink:href="#DejaVuSans-74"/>
      <use x="1154.412109" xlink:href="#DejaVuSans-2c"/>
      <use x="1186.199219" xlink:href="#DejaVuSans-29"/>
     </g>
    </g>
   </g>
   <g id="text_2">
    <g id="patch_10">
     <path clip-path="url(#pced0063e37)" d="M 631.121826 257.03267 
L 749.721826 257.03267 
Q 752.721826 257.03267 752.721826 254.03267 
L 752.721826 244.07642 
Q 752.721826 241.07642 749.721826 241.07642 
L 631.121826 241.07642 
Q 628.121826 241.07642 628.121826 244.07642 
L 628.121826 254.03267 
Q 628.121826 257.03267 631.121826 257.03267 
z
" style="fill:#ffffff;stroke:#ffffff;stroke-linejoin:miter;"/>
    </g>
    <g clip-path="url(#pced0063e37)">
     <!-- shared_negations: (no,) -->
     <g transform="translate(631.121826 251.674858)scale(0.1 -0.1)">
      <use xlink:href="#DejaVuSans-73"/>
      <use x="52.099609" xlink:href="#DejaVuSans-68"/>
      <use x="115.478516" xlink:href="#DejaVuSans-61"/>
      <use x="176.757812" xlink:href="#DejaVuSans-72"/>
      <use x="217.839844" xlink:href="#DejaVuSans-65"/>
      <use x="279.363281" xlink:href="#DejaVuSans-64"/>
      <use x="342.839844" xlink:href="#DejaVuSans-5f"/>
      <use x="392.839844" xlink:href="#DejaVuSans-6e"/>
      <use x="456.21875" xlink:href="#DejaVuSans-65"/>
      <use x="517.742188" xlink:href="#DejaVuSans-67"/>
      <use x="581.21875" xlink:href="#DejaVuSans-61"/>
      <use x="642.498047" xlink:href="#DejaVuSans-74"/>
      <use x="681.707031" xlink:href="#DejaVuSans-69"/>
      <use x="709.490234" xlink:href="#DejaVuSans-6f"/>
      <use x="770.671875" xlink:href="#DejaVuSans-6e"/>
      <use x="834.050781" xlink:href="#DejaVuSans-73"/>
      <use x="886.150391" xlink:href="#DejaVuSans-3a"/>
      <use x="919.841797" xlink:href="#DejaVuSans-20"/>
      <use x="951.628906" xlink:href="#DejaVuSans-28"/>
      <use x="990.642578" xlink:href="#DejaVuSans-6e"/>
      <use x="1054.021484" xlink:href="#DejaVuSans-6f"/>
      <use x="1115.203125" xlink:href="#DejaVuSans-2c"/>
      <use x="1146.990234" xlink:href="#DejaVuSans-29"/>
     </g>
    </g>
   </g>
   <g id="PathCollection_1">
    <defs>
     <path d="M 0 5 
C 1.326016 5 2.597899 4.473168 3.535534 3.535534 
C 4.473168 2.597899 5 1.326016 5 0 
C 5 -1.326016 4.473168 -2.597899 3.535534 -3.535534 
C 2.597899 -4.473168 1.326016 -5 0 -5 
C -1.326016 -5 -2.597899 -4.473168 -3.535534 -3.535534 
C -4.473168 -2.597899 -5 -1.326016 -5 0 
C -5 1.326016 -4.473168 2.597899 -3.535534 3.535534 
C -2.597899 4.473168 -1.326016 5 0 5 
z
" id="m45cc803b03" style="stroke:#0000ff;"/>
    </defs>
    <g clip-path="url(#pced0063e37)">
     <use style="fill:#0000ff;stroke:#0000ff;" x="639.840489" xlink:href="#m45cc803b03" y="134.509091"/>
     <use style="fill:#0000ff;stroke:#0000ff;" x="260.596982" xlink:href="#m45cc803b03" y="363.6"/>
     <use style="fill:#0000ff;stroke:#0000ff;" x="539.191573" xlink:href="#m45cc803b03" y="363.6"/>
     <use style="fill:#0000ff;stroke:#0000ff;" x="741.003163" xlink:href="#m45cc803b03" y="363.6"/>
     <use style="fill:#0000ff;stroke:#0000ff;" x="899.367769" xlink:href="#m45cc803b03" y="363.6"/>
     <use style="fill:#0000ff;stroke:#0000ff;" x="207.632231" xlink:href="#m45cc803b03" y="592.690909"/>
     <use style="fill:#0000ff;stroke:#0000ff;" x="313.561733" xlink:href="#m45cc803b03" y="592.690909"/>
     <use style="fill:#0000ff;stroke:#0000ff;" x="539.191573" xlink:href="#m45cc803b03" y="592.690909"/>
    </g>
   </g>
   <g id="text_3">
    <g clip-path="url(#pced0063e37)">
     <!-- 252  Animal is predicated of -->
     <defs>
      <path d="M 19.1875 8.296875 
L 53.609375 8.296875 
L 53.609375 0 
L 7.328125 0 
L 7.328125 8.296875 
Q 12.9375 14.109375 22.625 23.890625 
Q 32.328125 33.6875 34.8125 36.53125 
Q 39.546875 41.84375 41.421875 45.53125 
Q 43.3125 49.21875 43.3125 52.78125 
Q 43.3125 58.59375 39.234375 62.25 
Q 35.15625 65.921875 28.609375 65.921875 
Q 23.96875 65.921875 18.8125 64.3125 
Q 13.671875 62.703125 7.8125 59.421875 
L 7.8125 69.390625 
Q 13.765625 71.78125 18.9375 73 
Q 24.125 74.21875 28.421875 74.21875 
Q 39.75 74.21875 46.484375 68.546875 
Q 53.21875 62.890625 53.21875 53.421875 
Q 53.21875 48.921875 51.53125 44.890625 
Q 49.859375 40.875 45.40625 35.40625 
Q 44.1875 33.984375 37.640625 27.21875 
Q 31.109375 20.453125 19.1875 8.296875 
z
" id="DejaVuSans-32"/>
      <path d="M 10.796875 72.90625 
L 49.515625 72.90625 
L 49.515625 64.59375 
L 19.828125 64.59375 
L 19.828125 46.734375 
Q 21.96875 47.46875 24.109375 47.828125 
Q 26.265625 48.1875 28.421875 48.1875 
Q 40.625 48.1875 47.75 41.5 
Q 54.890625 34.8125 54.890625 23.390625 
Q 54.890625 11.625 47.5625 5.09375 
Q 40.234375 -1.421875 26.90625 -1.421875 
Q 22.3125 -1.421875 17.546875 -0.640625 
Q 12.796875 0.140625 7.71875 1.703125 
L 7.71875 11.625 
Q 12.109375 9.234375 16.796875 8.0625 
Q 21.484375 6.890625 26.703125 6.890625 
Q 35.15625 6.890625 40.078125 11.328125 
Q 45.015625 15.765625 45.015625 23.390625 
Q 45.015625 31 40.078125 35.4375 
Q 35.15625 39.890625 26.703125 39.890625 
Q 22.75 39.890625 18.8125 39.015625 
Q 14.890625 38.140625 10.796875 36.28125 
z
" id="DejaVuSans-35"/>
      <path d="M 34.1875 63.1875 
L 20.796875 26.90625 
L 47.609375 26.90625 
z
M 28.609375 72.90625 
L 39.796875 72.90625 
L 67.578125 0 
L 57.328125 0 
L 50.6875 18.703125 
L 17.828125 18.703125 
L 11.1875 0 
L 0.78125 0 
z
" id="DejaVuSans-41"/>
      <path d="M 52 44.1875 
Q 55.375 50.25 60.0625 53.125 
Q 64.75 56 71.09375 56 
Q 79.640625 56 84.28125 50.015625 
Q 88.921875 44.046875 88.921875 33.015625 
L 88.921875 0 
L 79.890625 0 
L 79.890625 32.71875 
Q 79.890625 40.578125 77.09375 44.375 
Q 74.3125 48.1875 68.609375 48.1875 
Q 61.625 48.1875 57.5625 43.546875 
Q 53.515625 38.921875 53.515625 30.90625 
L 53.515625 0 
L 44.484375 0 
L 44.484375 32.71875 
Q 44.484375 40.625 41.703125 44.40625 
Q 38.921875 48.1875 33.109375 48.1875 
Q 26.21875 48.1875 22.15625 43.53125 
Q 18.109375 38.875 18.109375 30.90625 
L 18.109375 0 
L 9.078125 0 
L 9.078125 54.6875 
L 18.109375 54.6875 
L 18.109375 46.1875 
Q 21.1875 51.21875 25.484375 53.609375 
Q 29.78125 56 35.6875 56 
Q 41.65625 56 45.828125 52.96875 
Q 50 49.953125 52 44.1875 
z
" id="DejaVuSans-6d"/>
      <path d="M 9.421875 75.984375 
L 18.40625 75.984375 
L 18.40625 0 
L 9.421875 0 
z
" id="DejaVuSans-6c"/>
      <path d="M 18.109375 8.203125 
L 18.109375 -20.796875 
L 9.078125 -20.796875 
L 9.078125 54.6875 
L 18.109375 54.6875 
L 18.109375 46.390625 
Q 20.953125 51.265625 25.265625 53.625 
Q 29.59375 56 35.59375 56 
Q 45.5625 56 51.78125 48.09375 
Q 58.015625 40.1875 58.015625 27.296875 
Q 58.015625 14.40625 51.78125 6.484375 
Q 45.5625 -1.421875 35.59375 -1.421875 
Q 29.59375 -1.421875 25.265625 0.953125 
Q 20.953125 3.328125 18.109375 8.203125 
z
M 48.6875 27.296875 
Q 48.6875 37.203125 44.609375 42.84375 
Q 40.53125 48.484375 33.40625 48.484375 
Q 26.265625 48.484375 22.1875 42.84375 
Q 18.109375 37.203125 18.109375 27.296875 
Q 18.109375 17.390625 22.1875 11.75 
Q 26.265625 6.109375 33.40625 6.109375 
Q 40.53125 6.109375 44.609375 11.75 
Q 48.6875 17.390625 48.6875 27.296875 
z
" id="DejaVuSans-70"/>
      <path d="M 48.78125 52.59375 
L 48.78125 44.1875 
Q 44.96875 46.296875 41.140625 47.34375 
Q 37.3125 48.390625 33.40625 48.390625 
Q 24.65625 48.390625 19.8125 42.84375 
Q 14.984375 37.3125 14.984375 27.296875 
Q 14.984375 17.28125 19.8125 11.734375 
Q 24.65625 6.203125 33.40625 6.203125 
Q 37.3125 6.203125 41.140625 7.25 
Q 44.96875 8.296875 48.78125 10.40625 
L 48.78125 2.09375 
Q 45.015625 0.34375 40.984375 -0.53125 
Q 36.96875 -1.421875 32.421875 -1.421875 
Q 20.0625 -1.421875 12.78125 6.34375 
Q 5.515625 14.109375 5.515625 27.296875 
Q 5.515625 40.671875 12.859375 48.328125 
Q 20.21875 56 33.015625 56 
Q 37.15625 56 41.109375 55.140625 
Q 45.0625 54.296875 48.78125 52.59375 
z
" id="DejaVuSans-63"/>
      <path d="M 37.109375 75.984375 
L 37.109375 68.5 
L 28.515625 68.5 
Q 23.6875 68.5 21.796875 66.546875 
Q 19.921875 64.59375 19.921875 59.515625 
L 19.921875 54.6875 
L 34.71875 54.6875 
L 34.71875 47.703125 
L 19.921875 47.703125 
L 19.921875 0 
L 10.890625 0 
L 10.890625 47.703125 
L 2.296875 47.703125 
L 2.296875 54.6875 
L 10.890625 54.6875 
L 10.890625 58.5 
Q 10.890625 67.625 15.140625 71.796875 
Q 19.390625 75.984375 28.609375 75.984375 
z
" id="DejaVuSans-66"/>
     </defs>
     <g transform="translate(569.344395 103.675028)scale(0.1 -0.1)">
      <use xlink:href="#DejaVuSans-32"/>
      <use x="63.623047" xlink:href="#DejaVuSans-35"/>
      <use x="127.246094" xlink:href="#DejaVuSans-32"/>
      <use x="190.869141" xlink:href="#DejaVuSans-20"/>
      <use x="222.65625" xlink:href="#DejaVuSans-20"/>
      <use x="254.443359" xlink:href="#DejaVuSans-41"/>
      <use x="322.851562" xlink:href="#DejaVuSans-6e"/>
      <use x="386.230469" xlink:href="#DejaVuSans-69"/>
      <use x="414.013672" xlink:href="#DejaVuSans-6d"/>
      <use x="511.425781" xlink:href="#DejaVuSans-61"/>
      <use x="572.705078" xlink:href="#DejaVuSans-6c"/>
      <use x="600.488281" xlink:href="#DejaVuSans-20"/>
      <use x="632.275391" xlink:href="#DejaVuSans-69"/>
      <use x="660.058594" xlink:href="#DejaVuSans-73"/>
      <use x="712.158203" xlink:href="#DejaVuSans-20"/>
      <use x="743.945312" xlink:href="#DejaVuSans-70"/>
      <use x="807.421875" xlink:href="#DejaVuSans-72"/>
      <use x="848.503906" xlink:href="#DejaVuSans-65"/>
      <use x="910.027344" xlink:href="#DejaVuSans-64"/>
      <use x="973.503906" xlink:href="#DejaVuSans-69"/>
      <use x="1001.287109" xlink:href="#DejaVuSans-63"/>
      <use x="1056.267578" xlink:href="#DejaVuSans-61"/>
      <use x="1117.546875" xlink:href="#DejaVuSans-74"/>
      <use x="1156.755859" xlink:href="#DejaVuSans-65"/>
      <use x="1218.279297" xlink:href="#DejaVuSans-64"/>
      <use x="1281.755859" xlink:href="#DejaVuSans-20"/>
      <use x="1313.542969" xlink:href="#DejaVuSans-6f"/>
      <use x="1374.724609" xlink:href="#DejaVuSans-66"/>
     </g>
    </g>
    <g clip-path="url(#pced0063e37)">
     <!-- the species Man , therefore of -->
     <defs>
      <path d="M 9.8125 72.90625 
L 24.515625 72.90625 
L 43.109375 23.296875 
L 61.8125 72.90625 
L 76.515625 72.90625 
L 76.515625 0 
L 66.890625 0 
L 66.890625 64.015625 
L 48.09375 14.015625 
L 38.1875 14.015625 
L 19.390625 64.015625 
L 19.390625 0 
L 9.8125 0 
z
" id="DejaVuSans-4d"/>
     </defs>
     <g transform="translate(564.773301 114.872841)scale(0.1 -0.1)">
      <use xlink:href="#DejaVuSans-74"/>
      <use x="39.208984" xlink:href="#DejaVuSans-68"/>
      <use x="102.587891" xlink:href="#DejaVuSans-65"/>
      <use x="164.111328" xlink:href="#DejaVuSans-20"/>
      <use x="195.898438" xlink:href="#DejaVuSans-73"/>
      <use x="247.998047" xlink:href="#DejaVuSans-70"/>
      <use x="311.474609" xlink:href="#DejaVuSans-65"/>
      <use x="372.998047" xlink:href="#DejaVuSans-63"/>
      <use x="427.978516" xlink:href="#DejaVuSans-69"/>
      <use x="455.761719" xlink:href="#DejaVuSans-65"/>
      <use x="517.285156" xlink:href="#DejaVuSans-73"/>
      <use x="569.384766" xlink:href="#DejaVuSans-20"/>
      <use x="601.171875" xlink:href="#DejaVuSans-4d"/>
      <use x="687.451172" xlink:href="#DejaVuSans-61"/>
      <use x="748.730469" xlink:href="#DejaVuSans-6e"/>
      <use x="812.109375" xlink:href="#DejaVuSans-20"/>
      <use x="843.896484" xlink:href="#DejaVuSans-2c"/>
      <use x="875.683594" xlink:href="#DejaVuSans-20"/>
      <use x="907.470703" xlink:href="#DejaVuSans-74"/>
      <use x="946.679688" xlink:href="#DejaVuSans-68"/>
      <use x="1010.058594" xlink:href="#DejaVuSans-65"/>
      <use x="1071.582031" xlink:href="#DejaVuSans-72"/>
      <use x="1112.664062" xlink:href="#DejaVuSans-65"/>
      <use x="1174.1875" xlink:href="#DejaVuSans-66"/>
      <use x="1209.392578" xlink:href="#DejaVuSans-6f"/>
      <use x="1270.574219" xlink:href="#DejaVuSans-72"/>
      <use x="1311.65625" xlink:href="#DejaVuSans-65"/>
      <use x="1373.179688" xlink:href="#DejaVuSans-20"/>
      <use x="1404.966797" xlink:href="#DejaVuSans-6f"/>
      <use x="1466.148438" xlink:href="#DejaVuSans-66"/>
     </g>
    </g>
    <g clip-path="url(#pced0063e37)">
     <!-- the individual man , for if -->
     <defs>
      <path d="M 2.984375 54.6875 
L 12.5 54.6875 
L 29.59375 8.796875 
L 46.6875 54.6875 
L 56.203125 54.6875 
L 35.6875 0 
L 23.484375 0 
z
" id="DejaVuSans-76"/>
      <path d="M 8.5 21.578125 
L 8.5 54.6875 
L 17.484375 54.6875 
L 17.484375 21.921875 
Q 17.484375 14.15625 20.5 10.265625 
Q 23.53125 6.390625 29.59375 6.390625 
Q 36.859375 6.390625 41.078125 11.03125 
Q 45.3125 15.671875 45.3125 23.6875 
L 45.3125 54.6875 
L 54.296875 54.6875 
L 54.296875 0 
L 45.3125 0 
L 45.3125 8.40625 
Q 42.046875 3.421875 37.71875 1 
Q 33.40625 -1.421875 27.6875 -1.421875 
Q 18.265625 -1.421875 13.375 4.4375 
Q 8.5 10.296875 8.5 21.578125 
z
M 31.109375 56 
z
" id="DejaVuSans-75"/>
     </defs>
     <g transform="translate(576.707676 126.070653)scale(0.1 -0.1)">
      <use xlink:href="#DejaVuSans-74"/>
      <use x="39.208984" xlink:href="#DejaVuSans-68"/>
      <use x="102.587891" xlink:href="#DejaVuSans-65"/>
      <use x="164.111328" xlink:href="#DejaVuSans-20"/>
      <use x="195.898438" xlink:href="#DejaVuSans-69"/>
      <use x="223.681641" xlink:href="#DejaVuSans-6e"/>
      <use x="287.060547" xlink:href="#DejaVuSans-64"/>
      <use x="350.537109" xlink:href="#DejaVuSans-69"/>
      <use x="378.320312" xlink:href="#DejaVuSans-76"/>
      <use x="437.5" xlink:href="#DejaVuSans-69"/>
      <use x="465.283203" xlink:href="#DejaVuSans-64"/>
      <use x="528.759766" xlink:href="#DejaVuSans-75"/>
      <use x="592.138672" xlink:href="#DejaVuSans-61"/>
      <use x="653.417969" xlink:href="#DejaVuSans-6c"/>
      <use x="681.201172" xlink:href="#DejaVuSans-20"/>
      <use x="712.988281" xlink:href="#DejaVuSans-6d"/>
      <use x="810.400391" xlink:href="#DejaVuSans-61"/>
      <use x="871.679688" xlink:href="#DejaVuSans-6e"/>
      <use x="935.058594" xlink:href="#DejaVuSans-20"/>
      <use x="966.845703" xlink:href="#DejaVuSans-2c"/>
      <use x="998.632812" xlink:href="#DejaVuSans-20"/>
      <use x="1030.419922" xlink:href="#DejaVuSans-66"/>
      <use x="1065.625" xlink:href="#DejaVuSans-6f"/>
      <use x="1126.806641" xlink:href="#DejaVuSans-72"/>
      <use x="1167.919922" xlink:href="#DejaVuSans-20"/>
      <use x="1199.707031" xlink:href="#DejaVuSans-69"/>
      <use x="1227.490234" xlink:href="#DejaVuSans-66"/>
     </g>
    </g>
    <g clip-path="url(#pced0063e37)">
     <!-- there were no individual man -->
     <defs>
      <path d="M 4.203125 54.6875 
L 13.1875 54.6875 
L 24.421875 12.015625 
L 35.59375 54.6875 
L 46.1875 54.6875 
L 57.421875 12.015625 
L 68.609375 54.6875 
L 77.59375 54.6875 
L 63.28125 0 
L 52.6875 0 
L 40.921875 44.828125 
L 29.109375 0 
L 18.5 0 
z
" id="DejaVuSans-77"/>
     </defs>
     <g transform="translate(566.255333 137.268466)scale(0.1 -0.1)">
      <use xlink:href="#DejaVuSans-74"/>
      <use x="39.208984" xlink:href="#DejaVuSans-68"/>
      <use x="102.587891" xlink:href="#DejaVuSans-65"/>
      <use x="164.111328" xlink:href="#DejaVuSans-72"/>
      <use x="205.193359" xlink:href="#DejaVuSans-65"/>
      <use x="266.716797" xlink:href="#DejaVuSans-20"/>
      <use x="298.503906" xlink:href="#DejaVuSans-77"/>
      <use x="380.291016" xlink:href="#DejaVuSans-65"/>
      <use x="441.814453" xlink:href="#DejaVuSans-72"/>
      <use x="482.896484" xlink:href="#DejaVuSans-65"/>
      <use x="544.419922" xlink:href="#DejaVuSans-20"/>
      <use x="576.207031" xlink:href="#DejaVuSans-6e"/>
      <use x="639.585938" xlink:href="#DejaVuSans-6f"/>
      <use x="700.767578" xlink:href="#DejaVuSans-20"/>
      <use x="732.554688" xlink:href="#DejaVuSans-69"/>
      <use x="760.337891" xlink:href="#DejaVuSans-6e"/>
      <use x="823.716797" xlink:href="#DejaVuSans-64"/>
      <use x="887.193359" xlink:href="#DejaVuSans-69"/>
      <use x="914.976562" xlink:href="#DejaVuSans-76"/>
      <use x="974.15625" xlink:href="#DejaVuSans-69"/>
      <use x="1001.939453" xlink:href="#DejaVuSans-64"/>
      <use x="1065.416016" xlink:href="#DejaVuSans-75"/>
      <use x="1128.794922" xlink:href="#DejaVuSans-61"/>
      <use x="1190.074219" xlink:href="#DejaVuSans-6c"/>
      <use x="1217.857422" xlink:href="#DejaVuSans-20"/>
      <use x="1249.644531" xlink:href="#DejaVuSans-6d"/>
      <use x="1347.056641" xlink:href="#DejaVuSans-61"/>
      <use x="1408.335938" xlink:href="#DejaVuSans-6e"/>
     </g>
    </g>
    <g clip-path="url(#pced0063e37)">
     <!-- of whom it could be predicated -->
     <defs>
      <path d="M 48.6875 27.296875 
Q 48.6875 37.203125 44.609375 42.84375 
Q 40.53125 48.484375 33.40625 48.484375 
Q 26.265625 48.484375 22.1875 42.84375 
Q 18.109375 37.203125 18.109375 27.296875 
Q 18.109375 17.390625 22.1875 11.75 
Q 26.265625 6.109375 33.40625 6.109375 
Q 40.53125 6.109375 44.609375 11.75 
Q 48.6875 17.390625 48.6875 27.296875 
z
M 18.109375 46.390625 
Q 20.953125 51.265625 25.265625 53.625 
Q 29.59375 56 35.59375 56 
Q 45.5625 56 51.78125 48.09375 
Q 58.015625 40.1875 58.015625 27.296875 
Q 58.015625 14.40625 51.78125 6.484375 
Q 45.5625 -1.421875 35.59375 -1.421875 
Q 29.59375 -1.421875 25.265625 0.953125 
Q 20.953125 3.328125 18.109375 8.203125 
L 18.109375 0 
L 9.078125 0 
L 9.078125 75.984375 
L 18.109375 75.984375 
z
" id="DejaVuSans-62"/>
     </defs>
     <g transform="translate(561.855333 148.466278)scale(0.1 -0.1)">
      <use xlink:href="#DejaVuSans-6f"/>
      <use x="61.181641" xlink:href="#DejaVuSans-66"/>
      <use x="96.386719" xlink:href="#DejaVuSans-20"/>
      <use x="128.173828" xlink:href="#DejaVuSans-77"/>
      <use x="209.960938" xlink:href="#DejaVuSans-68"/>
      <use x="273.339844" xlink:href="#DejaVuSans-6f"/>
      <use x="334.521484" xlink:href="#DejaVuSans-6d"/>
      <use x="431.933594" xlink:href="#DejaVuSans-20"/>
      <use x="463.720703" xlink:href="#DejaVuSans-69"/>
      <use x="491.503906" xlink:href="#DejaVuSans-74"/>
      <use x="530.712891" xlink:href="#DejaVuSans-20"/>
      <use x="562.5" xlink:href="#DejaVuSans-63"/>
      <use x="617.480469" xlink:href="#DejaVuSans-6f"/>
      <use x="678.662109" xlink:href="#DejaVuSans-75"/>
      <use x="742.041016" xlink:href="#DejaVuSans-6c"/>
      <use x="769.824219" xlink:href="#DejaVuSans-64"/>
      <use x="833.300781" xlink:href="#DejaVuSans-20"/>
      <use x="865.087891" xlink:href="#DejaVuSans-62"/>
      <use x="928.564453" xlink:href="#DejaVuSans-65"/>
      <use x="990.087891" xlink:href="#DejaVuSans-20"/>
      <use x="1021.875" xlink:href="#DejaVuSans-70"/>
      <use x="1085.351562" xlink:href="#DejaVuSans-72"/>
      <use x="1126.433594" xlink:href="#DejaVuSans-65"/>
      <use x="1187.957031" xlink:href="#DejaVuSans-64"/>
      <use x="1251.433594" xlink:href="#DejaVuSans-69"/>
      <use x="1279.216797" xlink:href="#DejaVuSans-63"/>
      <use x="1334.197266" xlink:href="#DejaVuSans-61"/>
      <use x="1395.476562" xlink:href="#DejaVuSans-74"/>
      <use x="1434.685547" xlink:href="#DejaVuSans-65"/>
      <use x="1496.208984" xlink:href="#DejaVuSans-64"/>
     </g>
    </g>
    <g clip-path="url(#pced0063e37)">
     <!-- , it could not be predicated -->
     <g transform="translate(572.08502 159.664091)scale(0.1 -0.1)">
      <use xlink:href="#DejaVuSans-2c"/>
      <use x="31.787109" xlink:href="#DejaVuSans-20"/>
      <use x="63.574219" xlink:href="#DejaVuSans-69"/>
      <use x="91.357422" xlink:href="#DejaVuSans-74"/>
      <use x="130.566406" xlink:href="#DejaVuSans-20"/>
      <use x="162.353516" xlink:href="#DejaVuSans-63"/>
      <use x="217.333984" xlink:href="#DejaVuSans-6f"/>
      <use x="278.515625" xlink:href="#DejaVuSans-75"/>
      <use x="341.894531" xlink:href="#DejaVuSans-6c"/>
      <use x="369.677734" xlink:href="#DejaVuSans-64"/>
      <use x="433.154297" xlink:href="#DejaVuSans-20"/>
      <use x="464.941406" xlink:href="#DejaVuSans-6e"/>
      <use x="528.320312" xlink:href="#DejaVuSans-6f"/>
      <use x="589.501953" xlink:href="#DejaVuSans-74"/>
      <use x="628.710938" xlink:href="#DejaVuSans-20"/>
      <use x="660.498047" xlink:href="#DejaVuSans-62"/>
      <use x="723.974609" xlink:href="#DejaVuSans-65"/>
      <use x="785.498047" xlink:href="#DejaVuSans-20"/>
      <use x="817.285156" xlink:href="#DejaVuSans-70"/>
      <use x="880.761719" xlink:href="#DejaVuSans-72"/>
      <use x="921.84375" xlink:href="#DejaVuSans-65"/>
      <use x="983.367188" xlink:href="#DejaVuSans-64"/>
      <use x="1046.84375" xlink:href="#DejaVuSans-69"/>
      <use x="1074.626953" xlink:href="#DejaVuSans-63"/>
      <use x="1129.607422" xlink:href="#DejaVuSans-61"/>
      <use x="1190.886719" xlink:href="#DejaVuSans-74"/>
      <use x="1230.095703" xlink:href="#DejaVuSans-65"/>
      <use x="1291.619141" xlink:href="#DejaVuSans-64"/>
     </g>
    </g>
    <g clip-path="url(#pced0063e37)">
     <!-- of the species Man at all . -->
     <defs>
      <path d="M 10.6875 12.40625 
L 21 12.40625 
L 21 0 
L 10.6875 0 
z
" id="DejaVuSans-2e"/>
     </defs>
     <g transform="translate(575.60377 170.861903)scale(0.1 -0.1)">
      <use xlink:href="#DejaVuSans-6f"/>
      <use x="61.181641" xlink:href="#DejaVuSans-66"/>
      <use x="96.386719" xlink:href="#DejaVuSans-20"/>
      <use x="128.173828" xlink:href="#DejaVuSans-74"/>
      <use x="167.382812" xlink:href="#DejaVuSans-68"/>
      <use x="230.761719" xlink:href="#DejaVuSans-65"/>
      <use x="292.285156" xlink:href="#DejaVuSans-20"/>
      <use x="324.072266" xlink:href="#DejaVuSans-73"/>
      <use x="376.171875" xlink:href="#DejaVuSans-70"/>
      <use x="439.648438" xlink:href="#DejaVuSans-65"/>
      <use x="501.171875" xlink:href="#DejaVuSans-63"/>
      <use x="556.152344" xlink:href="#DejaVuSans-69"/>
      <use x="583.935547" xlink:href="#DejaVuSans-65"/>
      <use x="645.458984" xlink:href="#DejaVuSans-73"/>
      <use x="697.558594" xlink:href="#DejaVuSans-20"/>
      <use x="729.345703" xlink:href="#DejaVuSans-4d"/>
      <use x="815.625" xlink:href="#DejaVuSans-61"/>
      <use x="876.904297" xlink:href="#DejaVuSans-6e"/>
      <use x="940.283203" xlink:href="#DejaVuSans-20"/>
      <use x="972.070312" xlink:href="#DejaVuSans-61"/>
      <use x="1033.349609" xlink:href="#DejaVuSans-74"/>
      <use x="1072.558594" xlink:href="#DejaVuSans-20"/>
      <use x="1104.345703" xlink:href="#DejaVuSans-61"/>
      <use x="1165.625" xlink:href="#DejaVuSans-6c"/>
      <use x="1193.408203" xlink:href="#DejaVuSans-6c"/>
      <use x="1221.191406" xlink:href="#DejaVuSans-20"/>
      <use x="1252.978516" xlink:href="#DejaVuSans-2e"/>
     </g>
    </g>
   </g>
   <g id="text_4">
    <g clip-path="url(#pced0063e37)">
     <!-- 248  Animal is predicated of -->
     <defs>
      <path d="M 37.796875 64.3125 
L 12.890625 25.390625 
L 37.796875 25.390625 
z
M 35.203125 72.90625 
L 47.609375 72.90625 
L 47.609375 25.390625 
L 58.015625 25.390625 
L 58.015625 17.1875 
L 47.609375 17.1875 
L 47.609375 0 
L 37.796875 0 
L 37.796875 17.1875 
L 4.890625 17.1875 
L 4.890625 26.703125 
z
" id="DejaVuSans-34"/>
      <path d="M 31.78125 34.625 
Q 24.75 34.625 20.71875 30.859375 
Q 16.703125 27.09375 16.703125 20.515625 
Q 16.703125 13.921875 20.71875 10.15625 
Q 24.75 6.390625 31.78125 6.390625 
Q 38.8125 6.390625 42.859375 10.171875 
Q 46.921875 13.96875 46.921875 20.515625 
Q 46.921875 27.09375 42.890625 30.859375 
Q 38.875 34.625 31.78125 34.625 
z
M 21.921875 38.8125 
Q 15.578125 40.375 12.03125 44.71875 
Q 8.5 49.078125 8.5 55.328125 
Q 8.5 64.0625 14.71875 69.140625 
Q 20.953125 74.21875 31.78125 74.21875 
Q 42.671875 74.21875 48.875 69.140625 
Q 55.078125 64.0625 55.078125 55.328125 
Q 55.078125 49.078125 51.53125 44.71875 
Q 48 40.375 41.703125 38.8125 
Q 48.828125 37.15625 52.796875 32.3125 
Q 56.78125 27.484375 56.78125 20.515625 
Q 56.78125 9.90625 50.3125 4.234375 
Q 43.84375 -1.421875 31.78125 -1.421875 
Q 19.734375 -1.421875 13.25 4.234375 
Q 6.78125 9.90625 6.78125 20.515625 
Q 6.78125 27.484375 10.78125 32.3125 
Q 14.796875 37.15625 21.921875 38.8125 
z
M 18.3125 54.390625 
Q 18.3125 48.734375 21.84375 45.5625 
Q 25.390625 42.390625 31.78125 42.390625 
Q 38.140625 42.390625 41.71875 45.5625 
Q 45.3125 48.734375 45.3125 54.390625 
Q 45.3125 60.0625 41.71875 63.234375 
Q 38.140625 66.40625 31.78125 66.40625 
Q 25.390625 66.40625 21.84375 63.234375 
Q 18.3125 60.0625 18.3125 54.390625 
z
" id="DejaVuSans-38"/>
     </defs>
     <g transform="translate(190.100889 355.161562)scale(0.1 -0.1)">
      <use xlink:href="#DejaVuSans-32"/>
      <use x="63.623047" xlink:href="#DejaVuSans-34"/>
      <use x="127.246094" xlink:href="#DejaVuSans-38"/>
      <use x="190.869141" xlink:href="#DejaVuSans-20"/>
      <use x="222.65625" xlink:href="#DejaVuSans-20"/>
      <use x="254.443359" xlink:href="#DejaVuSans-41"/>
      <use x="322.851562" xlink:href="#DejaVuSans-6e"/>
      <use x="386.230469" xlink:href="#DejaVuSans-69"/>
      <use x="414.013672" xlink:href="#DejaVuSans-6d"/>
      <use x="511.425781" xlink:href="#DejaVuSans-61"/>
      <use x="572.705078" xlink:href="#DejaVuSans-6c"/>
      <use x="600.488281" xlink:href="#DejaVuSans-20"/>
      <use x="632.275391" xlink:href="#DejaVuSans-69"/>
      <use x="660.058594" xlink:href="#DejaVuSans-73"/>
      <use x="712.158203" xlink:href="#DejaVuSans-20"/>
      <use x="743.945312" xlink:href="#DejaVuSans-70"/>
      <use x="807.421875" xlink:href="#DejaVuSans-72"/>
      <use x="848.503906" xlink:href="#DejaVuSans-65"/>
      <use x="910.027344" xlink:href="#DejaVuSans-64"/>
      <use x="973.503906" xlink:href="#DejaVuSans-69"/>
      <use x="1001.287109" xlink:href="#DejaVuSans-63"/>
      <use x="1056.267578" xlink:href="#DejaVuSans-61"/>
      <use x="1117.546875" xlink:href="#DejaVuSans-74"/>
      <use x="1156.755859" xlink:href="#DejaVuSans-65"/>
      <use x="1218.279297" xlink:href="#DejaVuSans-64"/>
      <use x="1281.755859" xlink:href="#DejaVuSans-20"/>
      <use x="1313.542969" xlink:href="#DejaVuSans-6f"/>
      <use x="1374.724609" xlink:href="#DejaVuSans-66"/>
     </g>
    </g>
    <g clip-path="url(#pced0063e37)">
     <!-- the species Man therefore of -->
     <g transform="translate(188.70792 366.359375)scale(0.1 -0.1)">
      <use xlink:href="#DejaVuSans-74"/>
      <use x="39.208984" xlink:href="#DejaVuSans-68"/>
      <use x="102.587891" xlink:href="#DejaVuSans-65"/>
      <use x="164.111328" xlink:href="#DejaVuSans-20"/>
      <use x="195.898438" xlink:href="#DejaVuSans-73"/>
      <use x="247.998047" xlink:href="#DejaVuSans-70"/>
      <use x="311.474609" xlink:href="#DejaVuSans-65"/>
      <use x="372.998047" xlink:href="#DejaVuSans-63"/>
      <use x="427.978516" xlink:href="#DejaVuSans-69"/>
      <use x="455.761719" xlink:href="#DejaVuSans-65"/>
      <use x="517.285156" xlink:href="#DejaVuSans-73"/>
      <use x="569.384766" xlink:href="#DejaVuSans-20"/>
      <use x="601.171875" xlink:href="#DejaVuSans-4d"/>
      <use x="687.451172" xlink:href="#DejaVuSans-61"/>
      <use x="748.730469" xlink:href="#DejaVuSans-6e"/>
      <use x="812.109375" xlink:href="#DejaVuSans-20"/>
      <use x="843.896484" xlink:href="#DejaVuSans-74"/>
      <use x="883.105469" xlink:href="#DejaVuSans-68"/>
      <use x="946.484375" xlink:href="#DejaVuSans-65"/>
      <use x="1008.007812" xlink:href="#DejaVuSans-72"/>
      <use x="1049.089844" xlink:href="#DejaVuSans-65"/>
      <use x="1110.613281" xlink:href="#DejaVuSans-66"/>
      <use x="1145.818359" xlink:href="#DejaVuSans-6f"/>
      <use x="1207" xlink:href="#DejaVuSans-72"/>
      <use x="1248.082031" xlink:href="#DejaVuSans-65"/>
      <use x="1309.605469" xlink:href="#DejaVuSans-20"/>
      <use x="1341.392578" xlink:href="#DejaVuSans-6f"/>
      <use x="1402.574219" xlink:href="#DejaVuSans-66"/>
     </g>
    </g>
    <g clip-path="url(#pced0063e37)">
     <!-- the individual man -->
     <g transform="translate(213.844639 377.557187)scale(0.1 -0.1)">
      <use xlink:href="#DejaVuSans-74"/>
      <use x="39.208984" xlink:href="#DejaVuSans-68"/>
      <use x="102.587891" xlink:href="#DejaVuSans-65"/>
      <use x="164.111328" xlink:href="#DejaVuSans-20"/>
      <use x="195.898438" xlink:href="#DejaVuSans-69"/>
      <use x="223.681641" xlink:href="#DejaVuSans-6e"/>
      <use x="287.060547" xlink:href="#DejaVuSans-64"/>
      <use x="350.537109" xlink:href="#DejaVuSans-69"/>
      <use x="378.320312" xlink:href="#DejaVuSans-76"/>
      <use x="437.5" xlink:href="#DejaVuSans-69"/>
      <use x="465.283203" xlink:href="#DejaVuSans-64"/>
      <use x="528.759766" xlink:href="#DejaVuSans-75"/>
      <use x="592.138672" xlink:href="#DejaVuSans-61"/>
      <use x="653.417969" xlink:href="#DejaVuSans-6c"/>
      <use x="681.201172" xlink:href="#DejaVuSans-20"/>
      <use x="712.988281" xlink:href="#DejaVuSans-6d"/>
      <use x="810.400391" xlink:href="#DejaVuSans-61"/>
      <use x="871.679688" xlink:href="#DejaVuSans-6e"/>
     </g>
    </g>
   </g>
   <g id="text_5">
    <g clip-path="url(#pced0063e37)">
     <!-- 251  for it could not be -->
     <defs>
      <path d="M 12.40625 8.296875 
L 28.515625 8.296875 
L 28.515625 63.921875 
L 10.984375 60.40625 
L 10.984375 69.390625 
L 28.421875 72.90625 
L 38.28125 72.90625 
L 38.28125 8.296875 
L 54.390625 8.296875 
L 54.390625 0 
L 12.40625 0 
z
" id="DejaVuSans-31"/>
     </defs>
     <g transform="translate(481.909541 355.161562)scale(0.1 -0.1)">
      <use xlink:href="#DejaVuSans-32"/>
      <use x="63.623047" xlink:href="#DejaVuSans-35"/>
      <use x="127.246094" xlink:href="#DejaVuSans-31"/>
      <use x="190.869141" xlink:href="#DejaVuSans-20"/>
      <use x="222.65625" xlink:href="#DejaVuSans-20"/>
      <use x="254.443359" xlink:href="#DejaVuSans-66"/>
      <use x="289.648438" xlink:href="#DejaVuSans-6f"/>
      <use x="350.830078" xlink:href="#DejaVuSans-72"/>
      <use x="391.943359" xlink:href="#DejaVuSans-20"/>
      <use x="423.730469" xlink:href="#DejaVuSans-69"/>
      <use x="451.513672" xlink:href="#DejaVuSans-74"/>
      <use x="490.722656" xlink:href="#DejaVuSans-20"/>
      <use x="522.509766" xlink:href="#DejaVuSans-63"/>
      <use x="577.490234" xlink:href="#DejaVuSans-6f"/>
      <use x="638.671875" xlink:href="#DejaVuSans-75"/>
      <use x="702.050781" xlink:href="#DejaVuSans-6c"/>
      <use x="729.833984" xlink:href="#DejaVuSans-64"/>
      <use x="793.310547" xlink:href="#DejaVuSans-20"/>
      <use x="825.097656" xlink:href="#DejaVuSans-6e"/>
      <use x="888.476562" xlink:href="#DejaVuSans-6f"/>
      <use x="949.658203" xlink:href="#DejaVuSans-74"/>
      <use x="988.867188" xlink:href="#DejaVuSans-20"/>
      <use x="1020.654297" xlink:href="#DejaVuSans-62"/>
      <use x="1084.130859" xlink:href="#DejaVuSans-65"/>
     </g>
    </g>
    <g clip-path="url(#pced0063e37)">
     <!-- predicated of the species Man -->
     <g transform="translate(463.69626 366.359375)scale(0.1 -0.1)">
      <use xlink:href="#DejaVuSans-70"/>
      <use x="63.476562" xlink:href="#DejaVuSans-72"/>
      <use x="104.558594" xlink:href="#DejaVuSans-65"/>
      <use x="166.082031" xlink:href="#DejaVuSans-64"/>
      <use x="229.558594" xlink:href="#DejaVuSans-69"/>
      <use x="257.341797" xlink:href="#DejaVuSans-63"/>
      <use x="312.322266" xlink:href="#DejaVuSans-61"/>
      <use x="373.601562" xlink:href="#DejaVuSans-74"/>
      <use x="412.810547" xlink:href="#DejaVuSans-65"/>
      <use x="474.333984" xlink:href="#DejaVuSans-64"/>
      <use x="537.810547" xlink:href="#DejaVuSans-20"/>
      <use x="569.597656" xlink:href="#DejaVuSans-6f"/>
      <use x="630.779297" xlink:href="#DejaVuSans-66"/>
      <use x="665.984375" xlink:href="#DejaVuSans-20"/>
      <use x="697.771484" xlink:href="#DejaVuSans-74"/>
      <use x="736.980469" xlink:href="#DejaVuSans-68"/>
      <use x="800.359375" xlink:href="#DejaVuSans-65"/>
      <use x="861.882812" xlink:href="#DejaVuSans-20"/>
      <use x="893.669922" xlink:href="#DejaVuSans-73"/>
      <use x="945.769531" xlink:href="#DejaVuSans-70"/>
      <use x="1009.246094" xlink:href="#DejaVuSans-65"/>
      <use x="1070.769531" xlink:href="#DejaVuSans-63"/>
      <use x="1125.75" xlink:href="#DejaVuSans-69"/>
      <use x="1153.533203" xlink:href="#DejaVuSans-65"/>
      <use x="1215.056641" xlink:href="#DejaVuSans-73"/>
      <use x="1267.15625" xlink:href="#DejaVuSans-20"/>
      <use x="1298.943359" xlink:href="#DejaVuSans-4d"/>
      <use x="1385.222656" xlink:href="#DejaVuSans-61"/>
      <use x="1446.501953" xlink:href="#DejaVuSans-6e"/>
     </g>
    </g>
    <g clip-path="url(#pced0063e37)">
     <!-- at all -->
     <g transform="translate(526.736104 377.557187)scale(0.1 -0.1)">
      <use xlink:href="#DejaVuSans-61"/>
      <use x="61.279297" xlink:href="#DejaVuSans-74"/>
      <use x="100.488281" xlink:href="#DejaVuSans-20"/>
      <use x="132.275391" xlink:href="#DejaVuSans-61"/>
      <use x="193.554688" xlink:href="#DejaVuSans-6c"/>
      <use x="221.337891" xlink:href="#DejaVuSans-6c"/>
     </g>
    </g>
   </g>
   <g id="text_6">
    <g clip-path="url(#pced0063e37)">
     <!-- 249  if there were no -->
     <defs>
      <path d="M 10.984375 1.515625 
L 10.984375 10.5 
Q 14.703125 8.734375 18.5 7.8125 
Q 22.3125 6.890625 25.984375 6.890625 
Q 35.75 6.890625 40.890625 13.453125 
Q 46.046875 20.015625 46.78125 33.40625 
Q 43.953125 29.203125 39.59375 26.953125 
Q 35.25 24.703125 29.984375 24.703125 
Q 19.046875 24.703125 12.671875 31.3125 
Q 6.296875 37.9375 6.296875 49.421875 
Q 6.296875 60.640625 12.9375 67.421875 
Q 19.578125 74.21875 30.609375 74.21875 
Q 43.265625 74.21875 49.921875 64.515625 
Q 56.59375 54.828125 56.59375 36.375 
Q 56.59375 19.140625 48.40625 8.859375 
Q 40.234375 -1.421875 26.421875 -1.421875 
Q 22.703125 -1.421875 18.890625 -0.6875 
Q 15.09375 0.046875 10.984375 1.515625 
z
M 30.609375 32.421875 
Q 37.25 32.421875 41.125 36.953125 
Q 45.015625 41.5 45.015625 49.421875 
Q 45.015625 57.28125 41.125 61.84375 
Q 37.25 66.40625 30.609375 66.40625 
Q 23.96875 66.40625 20.09375 61.84375 
Q 16.21875 57.28125 16.21875 49.421875 
Q 16.21875 41.5 20.09375 36.953125 
Q 23.96875 32.421875 30.609375 32.421875 
z
" id="DejaVuSans-39"/>
     </defs>
     <g transform="translate(688.504726 360.760469)scale(0.1 -0.1)">
      <use xlink:href="#DejaVuSans-32"/>
      <use x="63.623047" xlink:href="#DejaVuSans-34"/>
      <use x="127.246094" xlink:href="#DejaVuSans-39"/>
      <use x="190.869141" xlink:href="#DejaVuSans-20"/>
      <use x="222.65625" xlink:href="#DejaVuSans-20"/>
      <use x="254.443359" xlink:href="#DejaVuSans-69"/>
      <use x="282.226562" xlink:href="#DejaVuSans-66"/>
      <use x="317.431641" xlink:href="#DejaVuSans-20"/>
      <use x="349.21875" xlink:href="#DejaVuSans-74"/>
      <use x="388.427734" xlink:href="#DejaVuSans-68"/>
      <use x="451.806641" xlink:href="#DejaVuSans-65"/>
      <use x="513.330078" xlink:href="#DejaVuSans-72"/>
      <use x="554.412109" xlink:href="#DejaVuSans-65"/>
      <use x="615.935547" xlink:href="#DejaVuSans-20"/>
      <use x="647.722656" xlink:href="#DejaVuSans-77"/>
      <use x="729.509766" xlink:href="#DejaVuSans-65"/>
      <use x="791.033203" xlink:href="#DejaVuSans-72"/>
      <use x="832.115234" xlink:href="#DejaVuSans-65"/>
      <use x="893.638672" xlink:href="#DejaVuSans-20"/>
      <use x="925.425781" xlink:href="#DejaVuSans-6e"/>
      <use x="988.804688" xlink:href="#DejaVuSans-6f"/>
     </g>
    </g>
    <g clip-path="url(#pced0063e37)">
     <!-- individual man -->
     <g transform="translate(704.045351 371.958281)scale(0.1 -0.1)">
      <use xlink:href="#DejaVuSans-69"/>
      <use x="27.783203" xlink:href="#DejaVuSans-6e"/>
      <use x="91.162109" xlink:href="#DejaVuSans-64"/>
      <use x="154.638672" xlink:href="#DejaVuSans-69"/>
      <use x="182.421875" xlink:href="#DejaVuSans-76"/>
      <use x="241.601562" xlink:href="#DejaVuSans-69"/>
      <use x="269.384766" xlink:href="#DejaVuSans-64"/>
      <use x="332.861328" xlink:href="#DejaVuSans-75"/>
      <use x="396.240234" xlink:href="#DejaVuSans-61"/>
      <use x="457.519531" xlink:href="#DejaVuSans-6c"/>
      <use x="485.302734" xlink:href="#DejaVuSans-20"/>
      <use x="517.089844" xlink:href="#DejaVuSans-6d"/>
      <use x="614.501953" xlink:href="#DejaVuSans-61"/>
      <use x="675.78125" xlink:href="#DejaVuSans-6e"/>
     </g>
    </g>
   </g>
   <g id="text_7">
    <g clip-path="url(#pced0063e37)">
     <!-- 250  of whom it could be -->
     <defs>
      <path d="M 31.78125 66.40625 
Q 24.171875 66.40625 20.328125 58.90625 
Q 16.5 51.421875 16.5 36.375 
Q 16.5 21.390625 20.328125 13.890625 
Q 24.171875 6.390625 31.78125 6.390625 
Q 39.453125 6.390625 43.28125 13.890625 
Q 47.125 21.390625 47.125 36.375 
Q 47.125 51.421875 43.28125 58.90625 
Q 39.453125 66.40625 31.78125 66.40625 
z
M 31.78125 74.21875 
Q 44.046875 74.21875 50.515625 64.515625 
Q 56.984375 54.828125 56.984375 36.375 
Q 56.984375 17.96875 50.515625 8.265625 
Q 44.046875 -1.421875 31.78125 -1.421875 
Q 19.53125 -1.421875 13.0625 8.265625 
Q 6.59375 17.96875 6.59375 36.375 
Q 6.59375 54.828125 13.0625 64.515625 
Q 19.53125 74.21875 31.78125 74.21875 
z
" id="DejaVuSans-30"/>
     </defs>
     <g transform="translate(837.141987 360.760469)scale(0.1 -0.1)">
      <use xlink:href="#DejaVuSans-32"/>
      <use x="63.623047" xlink:href="#DejaVuSans-35"/>
      <use x="127.246094" xlink:href="#DejaVuSans-30"/>
      <use x="190.869141" xlink:href="#DejaVuSans-20"/>
      <use x="222.65625" xlink:href="#DejaVuSans-20"/>
      <use x="254.443359" xlink:href="#DejaVuSans-6f"/>
      <use x="315.625" xlink:href="#DejaVuSans-66"/>
      <use x="350.830078" xlink:href="#DejaVuSans-20"/>
      <use x="382.617188" xlink:href="#DejaVuSans-77"/>
      <use x="464.404297" xlink:href="#DejaVuSans-68"/>
      <use x="527.783203" xlink:href="#DejaVuSans-6f"/>
      <use x="588.964844" xlink:href="#DejaVuSans-6d"/>
      <use x="686.376953" xlink:href="#DejaVuSans-20"/>
      <use x="718.164062" xlink:href="#DejaVuSans-69"/>
      <use x="745.947266" xlink:href="#DejaVuSans-74"/>
      <use x="785.15625" xlink:href="#DejaVuSans-20"/>
      <use x="816.943359" xlink:href="#DejaVuSans-63"/>
      <use x="871.923828" xlink:href="#DejaVuSans-6f"/>
      <use x="933.105469" xlink:href="#DejaVuSans-75"/>
      <use x="996.484375" xlink:href="#DejaVuSans-6c"/>
      <use x="1024.267578" xlink:href="#DejaVuSans-64"/>
      <use x="1087.744141" xlink:href="#DejaVuSans-20"/>
      <use x="1119.53125" xlink:href="#DejaVuSans-62"/>
      <use x="1183.007812" xlink:href="#DejaVuSans-65"/>
     </g>
    </g>
    <g clip-path="url(#pced0063e37)">
     <!-- predicated -->
     <g transform="translate(872.475581 371.958281)scale(0.1 -0.1)">
      <use xlink:href="#DejaVuSans-70"/>
      <use x="63.476562" xlink:href="#DejaVuSans-72"/>
      <use x="104.558594" xlink:href="#DejaVuSans-65"/>
      <use x="166.082031" xlink:href="#DejaVuSans-64"/>
      <use x="229.558594" xlink:href="#DejaVuSans-69"/>
      <use x="257.341797" xlink:href="#DejaVuSans-63"/>
      <use x="312.322266" xlink:href="#DejaVuSans-61"/>
      <use x="373.601562" xlink:href="#DejaVuSans-74"/>
      <use x="412.810547" xlink:href="#DejaVuSans-65"/>
      <use x="474.333984" xlink:href="#DejaVuSans-64"/>
     </g>
    </g>
   </g>
   <g id="text_8">
    <g clip-path="url(#pced0063e37)">
     <!-- 245  the species Man -->
     <g transform="translate(154.304888 595.450284)scale(0.1 -0.1)">
      <use xlink:href="#DejaVuSans-32"/>
      <use x="63.623047" xlink:href="#DejaVuSans-34"/>
      <use x="127.246094" xlink:href="#DejaVuSans-35"/>
      <use x="190.869141" xlink:href="#DejaVuSans-20"/>
      <use x="222.65625" xlink:href="#DejaVuSans-20"/>
      <use x="254.443359" xlink:href="#DejaVuSans-74"/>
      <use x="293.652344" xlink:href="#DejaVuSans-68"/>
      <use x="357.03125" xlink:href="#DejaVuSans-65"/>
      <use x="418.554688" xlink:href="#DejaVuSans-20"/>
      <use x="450.341797" xlink:href="#DejaVuSans-73"/>
      <use x="502.441406" xlink:href="#DejaVuSans-70"/>
      <use x="565.917969" xlink:href="#DejaVuSans-65"/>
      <use x="627.441406" xlink:href="#DejaVuSans-63"/>
      <use x="682.421875" xlink:href="#DejaVuSans-69"/>
      <use x="710.205078" xlink:href="#DejaVuSans-65"/>
      <use x="771.728516" xlink:href="#DejaVuSans-73"/>
      <use x="823.828125" xlink:href="#DejaVuSans-20"/>
      <use x="855.615234" xlink:href="#DejaVuSans-4d"/>
      <use x="941.894531" xlink:href="#DejaVuSans-61"/>
      <use x="1003.173828" xlink:href="#DejaVuSans-6e"/>
     </g>
    </g>
   </g>
   <g id="text_9">
    <g clip-path="url(#pced0063e37)">
     <!-- 246  the individual man -->
     <defs>
      <path d="M 33.015625 40.375 
Q 26.375 40.375 22.484375 35.828125 
Q 18.609375 31.296875 18.609375 23.390625 
Q 18.609375 15.53125 22.484375 10.953125 
Q 26.375 6.390625 33.015625 6.390625 
Q 39.65625 6.390625 43.53125 10.953125 
Q 47.40625 15.53125 47.40625 23.390625 
Q 47.40625 31.296875 43.53125 35.828125 
Q 39.65625 40.375 33.015625 40.375 
z
M 52.59375 71.296875 
L 52.59375 62.3125 
Q 48.875 64.0625 45.09375 64.984375 
Q 41.3125 65.921875 37.59375 65.921875 
Q 27.828125 65.921875 22.671875 59.328125 
Q 17.53125 52.734375 16.796875 39.40625 
Q 19.671875 43.65625 24.015625 45.921875 
Q 28.375 48.1875 33.59375 48.1875 
Q 44.578125 48.1875 50.953125 41.515625 
Q 57.328125 34.859375 57.328125 23.390625 
Q 57.328125 12.15625 50.6875 5.359375 
Q 44.046875 -1.421875 33.015625 -1.421875 
Q 20.359375 -1.421875 13.671875 8.265625 
Q 6.984375 17.96875 6.984375 36.375 
Q 6.984375 53.65625 15.1875 63.9375 
Q 23.390625 74.21875 37.203125 74.21875 
Q 40.921875 74.21875 44.703125 73.484375 
Q 48.484375 72.75 52.59375 71.296875 
z
" id="DejaVuSans-36"/>
     </defs>
     <g transform="translate(254.087515 595.450284)scale(0.1 -0.1)">
      <use xlink:href="#DejaVuSans-32"/>
      <use x="63.623047" xlink:href="#DejaVuSans-34"/>
      <use x="127.246094" xlink:href="#DejaVuSans-36"/>
      <use x="190.869141" xlink:href="#DejaVuSans-20"/>
      <use x="222.65625" xlink:href="#DejaVuSans-20"/>
      <use x="254.443359" xlink:href="#DejaVuSans-74"/>
      <use x="293.652344" xlink:href="#DejaVuSans-68"/>
      <use x="357.03125" xlink:href="#DejaVuSans-65"/>
      <use x="418.554688" xlink:href="#DejaVuSans-20"/>
      <use x="450.341797" xlink:href="#DejaVuSans-69"/>
      <use x="478.125" xlink:href="#DejaVuSans-6e"/>
      <use x="541.503906" xlink:href="#DejaVuSans-64"/>
      <use x="604.980469" xlink:href="#DejaVuSans-69"/>
      <use x="632.763672" xlink:href="#DejaVuSans-76"/>
      <use x="691.943359" xlink:href="#DejaVuSans-69"/>
      <use x="719.726562" xlink:href="#DejaVuSans-64"/>
      <use x="783.203125" xlink:href="#DejaVuSans-75"/>
      <use x="846.582031" xlink:href="#DejaVuSans-61"/>
      <use x="907.861328" xlink:href="#DejaVuSans-6c"/>
      <use x="935.644531" xlink:href="#DejaVuSans-20"/>
      <use x="967.431641" xlink:href="#DejaVuSans-6d"/>
      <use x="1064.84375" xlink:href="#DejaVuSans-61"/>
      <use x="1126.123047" xlink:href="#DejaVuSans-6e"/>
     </g>
    </g>
   </g>
   <g id="text_10">
    <g clip-path="url(#pced0063e37)">
     <!-- 247  the species Man -->
     <defs>
      <path d="M 8.203125 72.90625 
L 55.078125 72.90625 
L 55.078125 68.703125 
L 28.609375 0 
L 18.3125 0 
L 43.21875 64.59375 
L 8.203125 64.59375 
z
" id="DejaVuSans-37"/>
     </defs>
     <g transform="translate(485.864229 595.450284)scale(0.1 -0.1)">
      <use xlink:href="#DejaVuSans-32"/>
      <use x="63.623047" xlink:href="#DejaVuSans-34"/>
      <use x="127.246094" xlink:href="#DejaVuSans-37"/>
      <use x="190.869141" xlink:href="#DejaVuSans-20"/>
      <use x="222.65625" xlink:href="#DejaVuSans-20"/>
      <use x="254.443359" xlink:href="#DejaVuSans-74"/>
      <use x="293.652344" xlink:href="#DejaVuSans-68"/>
      <use x="357.03125" xlink:href="#DejaVuSans-65"/>
      <use x="418.554688" xlink:href="#DejaVuSans-20"/>
      <use x="450.341797" xlink:href="#DejaVuSans-73"/>
      <use x="502.441406" xlink:href="#DejaVuSans-70"/>
      <use x="565.917969" xlink:href="#DejaVuSans-65"/>
      <use x="627.441406" xlink:href="#DejaVuSans-63"/>
      <use x="682.421875" xlink:href="#DejaVuSans-69"/>
      <use x="710.205078" xlink:href="#DejaVuSans-65"/>
      <use x="771.728516" xlink:href="#DejaVuSans-73"/>
      <use x="823.828125" xlink:href="#DejaVuSans-20"/>
      <use x="855.615234" xlink:href="#DejaVuSans-4d"/>
      <use x="941.894531" xlink:href="#DejaVuSans-61"/>
      <use x="1003.173828" xlink:href="#DejaVuSans-6e"/>
     </g>
    </g>
   </g>
   <g id="text_11">
    <!-- Animal is predicated of the species Man , therefore of the individual man , for if there -->
    <g transform="translate(296.607188 -14.22425)scale(0.12 -0.12)">
     <use xlink:href="#DejaVuSans-41"/>
     <use x="68.408203" xlink:href="#DejaVuSans-6e"/>
     <use x="131.787109" xlink:href="#DejaVuSans-69"/>
     <use x="159.570312" xlink:href="#DejaVuSans-6d"/>
     <use x="256.982422" xlink:href="#DejaVuSans-61"/>
     <use x="318.261719" xlink:href="#DejaVuSans-6c"/>
     <use x="346.044922" xlink:href="#DejaVuSans-20"/>
     <use x="377.832031" xlink:href="#DejaVuSans-69"/>
     <use x="405.615234" xlink:href="#DejaVuSans-73"/>
     <use x="457.714844" xlink:href="#DejaVuSans-20"/>
     <use x="489.501953" xlink:href="#DejaVuSans-70"/>
     <use x="552.978516" xlink:href="#DejaVuSans-72"/>
     <use x="594.060547" xlink:href="#DejaVuSans-65"/>
     <use x="655.583984" xlink:href="#DejaVuSans-64"/>
     <use x="719.060547" xlink:href="#DejaVuSans-69"/>
     <use x="746.84375" xlink:href="#DejaVuSans-63"/>
     <use x="801.824219" xlink:href="#DejaVuSans-61"/>
     <use x="863.103516" xlink:href="#DejaVuSans-74"/>
     <use x="902.3125" xlink:href="#DejaVuSans-65"/>
     <use x="963.835938" xlink:href="#DejaVuSans-64"/>
     <use x="1027.3125" xlink:href="#DejaVuSans-20"/>
     <use x="1059.099609" xlink:href="#DejaVuSans-6f"/>
     <use x="1120.28125" xlink:href="#DejaVuSans-66"/>
     <use x="1155.486328" xlink:href="#DejaVuSans-20"/>
     <use x="1187.273438" xlink:href="#DejaVuSans-74"/>
     <use x="1226.482422" xlink:href="#DejaVuSans-68"/>
     <use x="1289.861328" xlink:href="#DejaVuSans-65"/>
     <use x="1351.384766" xlink:href="#DejaVuSans-20"/>
     <use x="1383.171875" xlink:href="#DejaVuSans-73"/>
     <use x="1435.271484" xlink:href="#DejaVuSans-70"/>
     <use x="1498.748047" xlink:href="#DejaVuSans-65"/>
     <use x="1560.271484" xlink:href="#DejaVuSans-63"/>
     <use x="1615.251953" xlink:href="#DejaVuSans-69"/>
     <use x="1643.035156" xlink:href="#DejaVuSans-65"/>
     <use x="1704.558594" xlink:href="#DejaVuSans-73"/>
     <use x="1756.658203" xlink:href="#DejaVuSans-20"/>
     <use x="1788.445312" xlink:href="#DejaVuSans-4d"/>
     <use x="1874.724609" xlink:href="#DejaVuSans-61"/>
     <use x="1936.003906" xlink:href="#DejaVuSans-6e"/>
     <use x="1999.382812" xlink:href="#DejaVuSans-20"/>
     <use x="2031.169922" xlink:href="#DejaVuSans-2c"/>
     <use x="2062.957031" xlink:href="#DejaVuSans-20"/>
     <use x="2094.744141" xlink:href="#DejaVuSans-74"/>
     <use x="2133.953125" xlink:href="#DejaVuSans-68"/>
     <use x="2197.332031" xlink:href="#DejaVuSans-65"/>
     <use x="2258.855469" xlink:href="#DejaVuSans-72"/>
     <use x="2299.9375" xlink:href="#DejaVuSans-65"/>
     <use x="2361.460938" xlink:href="#DejaVuSans-66"/>
     <use x="2396.666016" xlink:href="#DejaVuSans-6f"/>
     <use x="2457.847656" xlink:href="#DejaVuSans-72"/>
     <use x="2498.929688" xlink:href="#DejaVuSans-65"/>
     <use x="2560.453125" xlink:href="#DejaVuSans-20"/>
     <use x="2592.240234" xlink:href="#DejaVuSans-6f"/>
     <use x="2653.421875" xlink:href="#DejaVuSans-66"/>
     <use x="2688.626953" xlink:href="#DejaVuSans-20"/>
     <use x="2720.414062" xlink:href="#DejaVuSans-74"/>
     <use x="2759.623047" xlink:href="#DejaVuSans-68"/>
     <use x="2823.001953" xlink:href="#DejaVuSans-65"/>
     <use x="2884.525391" xlink:href="#DejaVuSans-20"/>
     <use x="2916.3125" xlink:href="#DejaVuSans-69"/>
     <use x="2944.095703" xlink:href="#DejaVuSans-6e"/>
     <use x="3007.474609" xlink:href="#DejaVuSans-64"/>
     <use x="3070.951172" xlink:href="#DejaVuSans-69"/>
     <use x="3098.734375" xlink:href="#DejaVuSans-76"/>
     <use x="3157.914062" xlink:href="#DejaVuSans-69"/>
     <use x="3185.697266" xlink:href="#DejaVuSans-64"/>
     <use x="3249.173828" xlink:href="#DejaVuSans-75"/>
     <use x="3312.552734" xlink:href="#DejaVuSans-61"/>
     <use x="3373.832031" xlink:href="#DejaVuSans-6c"/>
     <use x="3401.615234" xlink:href="#DejaVuSans-20"/>
     <use x="3433.402344" xlink:href="#DejaVuSans-6d"/>
     <use x="3530.814453" xlink:href="#DejaVuSans-61"/>
     <use x="3592.09375" xlink:href="#DejaVuSans-6e"/>
     <use x="3655.472656" xlink:href="#DejaVuSans-20"/>
     <use x="3687.259766" xlink:href="#DejaVuSans-2c"/>
     <use x="3719.046875" xlink:href="#DejaVuSans-20"/>
     <use x="3750.833984" xlink:href="#DejaVuSans-66"/>
     <use x="3786.039062" xlink:href="#DejaVuSans-6f"/>
     <use x="3847.220703" xlink:href="#DejaVuSans-72"/>
     <use x="3888.333984" xlink:href="#DejaVuSans-20"/>
     <use x="3920.121094" xlink:href="#DejaVuSans-69"/>
     <use x="3947.904297" xlink:href="#DejaVuSans-66"/>
     <use x="3983.109375" xlink:href="#DejaVuSans-20"/>
     <use x="4014.896484" xlink:href="#DejaVuSans-74"/>
     <use x="4054.105469" xlink:href="#DejaVuSans-68"/>
     <use x="4117.484375" xlink:href="#DejaVuSans-65"/>
     <use x="4179.007812" xlink:href="#DejaVuSans-72"/>
     <use x="4220.089844" xlink:href="#DejaVuSans-65"/>
    </g>
    <!-- were no individual man of whom it could be predicated , it could not be predicated of the -->
    <g transform="translate(284.961563 -0.786875)scale(0.12 -0.12)">
     <use xlink:href="#DejaVuSans-77"/>
     <use x="81.787109" xlink:href="#DejaVuSans-65"/>
     <use x="143.310547" xlink:href="#DejaVuSans-72"/>
     <use x="184.392578" xlink:href="#DejaVuSans-65"/>
     <use x="245.916016" xlink:href="#DejaVuSans-20"/>
     <use x="277.703125" xlink:href="#DejaVuSans-6e"/>
     <use x="341.082031" xlink:href="#DejaVuSans-6f"/>
     <use x="402.263672" xlink:href="#DejaVuSans-20"/>
     <use x="434.050781" xlink:href="#DejaVuSans-69"/>
     <use x="461.833984" xlink:href="#DejaVuSans-6e"/>
     <use x="525.212891" xlink:href="#DejaVuSans-64"/>
     <use x="588.689453" xlink:href="#DejaVuSans-69"/>
     <use x="616.472656" xlink:href="#DejaVuSans-76"/>
     <use x="675.652344" xlink:href="#DejaVuSans-69"/>
     <use x="703.435547" xlink:href="#DejaVuSans-64"/>
     <use x="766.912109" xlink:href="#DejaVuSans-75"/>
     <use x="830.291016" xlink:href="#DejaVuSans-61"/>
     <use x="891.570312" xlink:href="#DejaVuSans-6c"/>
     <use x="919.353516" xlink:href="#DejaVuSans-20"/>
     <use x="951.140625" xlink:href="#DejaVuSans-6d"/>
     <use x="1048.552734" xlink:href="#DejaVuSans-61"/>
     <use x="1109.832031" xlink:href="#DejaVuSans-6e"/>
     <use x="1173.210938" xlink:href="#DejaVuSans-20"/>
     <use x="1204.998047" xlink:href="#DejaVuSans-6f"/>
     <use x="1266.179688" xlink:href="#DejaVuSans-66"/>
     <use x="1301.384766" xlink:href="#DejaVuSans-20"/>
     <use x="1333.171875" xlink:href="#DejaVuSans-77"/>
     <use x="1414.958984" xlink:href="#DejaVuSans-68"/>
     <use x="1478.337891" xlink:href="#DejaVuSans-6f"/>
     <use x="1539.519531" xlink:href="#DejaVuSans-6d"/>
     <use x="1636.931641" xlink:href="#DejaVuSans-20"/>
     <use x="1668.71875" xlink:href="#DejaVuSans-69"/>
     <use x="1696.501953" xlink:href="#DejaVuSans-74"/>
     <use x="1735.710938" xlink:href="#DejaVuSans-20"/>
     <use x="1767.498047" xlink:href="#DejaVuSans-63"/>
     <use x="1822.478516" xlink:href="#DejaVuSans-6f"/>
     <use x="1883.660156" xlink:href="#DejaVuSans-75"/>
     <use x="1947.039062" xlink:href="#DejaVuSans-6c"/>
     <use x="1974.822266" xlink:href="#DejaVuSans-64"/>
     <use x="2038.298828" xlink:href="#DejaVuSans-20"/>
     <use x="2070.085938" xlink:href="#DejaVuSans-62"/>
     <use x="2133.5625" xlink:href="#DejaVuSans-65"/>
     <use x="2195.085938" xlink:href="#DejaVuSans-20"/>
     <use x="2226.873047" xlink:href="#DejaVuSans-70"/>
     <use x="2290.349609" xlink:href="#DejaVuSans-72"/>
     <use x="2331.431641" xlink:href="#DejaVuSans-65"/>
     <use x="2392.955078" xlink:href="#DejaVuSans-64"/>
     <use x="2456.431641" xlink:href="#DejaVuSans-69"/>
     <use x="2484.214844" xlink:href="#DejaVuSans-63"/>
     <use x="2539.195312" xlink:href="#DejaVuSans-61"/>
     <use x="2600.474609" xlink:href="#DejaVuSans-74"/>
     <use x="2639.683594" xlink:href="#DejaVuSans-65"/>
     <use x="2701.207031" xlink:href="#DejaVuSans-64"/>
     <use x="2764.683594" xlink:href="#DejaVuSans-20"/>
     <use x="2796.470703" xlink:href="#DejaVuSans-2c"/>
     <use x="2828.257812" xlink:href="#DejaVuSans-20"/>
     <use x="2860.044922" xlink:href="#DejaVuSans-69"/>
     <use x="2887.828125" xlink:href="#DejaVuSans-74"/>
     <use x="2927.037109" xlink:href="#DejaVuSans-20"/>
     <use x="2958.824219" xlink:href="#DejaVuSans-63"/>
     <use x="3013.804688" xlink:href="#DejaVuSans-6f"/>
     <use x="3074.986328" xlink:href="#DejaVuSans-75"/>
     <use x="3138.365234" xlink:href="#DejaVuSans-6c"/>
     <use x="3166.148438" xlink:href="#DejaVuSans-64"/>
     <use x="3229.625" xlink:href="#DejaVuSans-20"/>
     <use x="3261.412109" xlink:href="#DejaVuSans-6e"/>
     <use x="3324.791016" xlink:href="#DejaVuSans-6f"/>
     <use x="3385.972656" xlink:href="#DejaVuSans-74"/>
     <use x="3425.181641" xlink:href="#DejaVuSans-20"/>
     <use x="3456.96875" xlink:href="#DejaVuSans-62"/>
     <use x="3520.445312" xlink:href="#DejaVuSans-65"/>
     <use x="3581.96875" xlink:href="#DejaVuSans-20"/>
     <use x="3613.755859" xlink:href="#DejaVuSans-70"/>
     <use x="3677.232422" xlink:href="#DejaVuSans-72"/>
     <use x="3718.314453" xlink:href="#DejaVuSans-65"/>
     <use x="3779.837891" xlink:href="#DejaVuSans-64"/>
     <use x="3843.314453" xlink:href="#DejaVuSans-69"/>
     <use x="3871.097656" xlink:href="#DejaVuSans-63"/>
     <use x="3926.078125" xlink:href="#DejaVuSans-61"/>
     <use x="3987.357422" xlink:href="#DejaVuSans-74"/>
     <use x="4026.566406" xlink:href="#DejaVuSans-65"/>
     <use x="4088.089844" xlink:href="#DejaVuSans-64"/>
     <use x="4151.566406" xlink:href="#DejaVuSans-20"/>
     <use x="4183.353516" xlink:href="#DejaVuSans-6f"/>
     <use x="4244.535156" xlink:href="#DejaVuSans-66"/>
     <use x="4279.740234" xlink:href="#DejaVuSans-20"/>
     <use x="4311.527344" xlink:href="#DejaVuSans-74"/>
     <use x="4350.736328" xlink:href="#DejaVuSans-68"/>
     <use x="4414.115234" xlink:href="#DejaVuSans-65"/>
    </g>
    <!-- species Man at all . -->
    <g transform="translate(495.859688 12.6505)scale(0.12 -0.12)">
     <use xlink:href="#DejaVuSans-73"/>
     <use x="52.099609" xlink:href="#DejaVuSans-70"/>
     <use x="115.576172" xlink:href="#DejaVuSans-65"/>
     <use x="177.099609" xlink:href="#DejaVuSans-63"/>
     <use x="232.080078" xlink:href="#DejaVuSans-69"/>
     <use x="259.863281" xlink:href="#DejaVuSans-65"/>
     <use x="321.386719" xlink:href="#DejaVuSans-73"/>
     <use x="373.486328" xlink:href="#DejaVuSans-20"/>
     <use x="405.273438" xlink:href="#DejaVuSans-4d"/>
     <use x="491.552734" xlink:href="#DejaVuSans-61"/>
     <use x="552.832031" xlink:href="#DejaVuSans-6e"/>
     <use x="616.210938" xlink:href="#DejaVuSans-20"/>
     <use x="647.998047" xlink:href="#DejaVuSans-61"/>
     <use x="709.277344" xlink:href="#DejaVuSans-74"/>
     <use x="748.486328" xlink:href="#DejaVuSans-20"/>
     <use x="780.273438" xlink:href="#DejaVuSans-61"/>
     <use x="841.552734" xlink:href="#DejaVuSans-6c"/>
     <use x="869.335938" xlink:href="#DejaVuSans-6c"/>
     <use x="897.119141" xlink:href="#DejaVuSans-20"/>
     <use x="928.90625" xlink:href="#DejaVuSans-2e"/>
    </g>
    <!-- 245  246  247  249  250  248  251  252 -->
    <defs>
     <path d="M 12.890625 0 
L 30.515625 57.90625 
L 42.71875 57.90625 
L 60.296875 0 
L 50.78125 0 
L 36.625 45.90625 
L 22.40625 0 
z
" id="DejaVuSans-2227"/>
     <path d="M 10.59375 42.09375 
L 73.1875 42.09375 
L 73.1875 14.015625 
L 64.984375 14.015625 
L 64.984375 33.796875 
L 10.59375 33.796875 
z
" id="DejaVuSans-ac"/>
    </defs>
    <g transform="translate(394.389375 26.087875)scale(0.12 -0.12)">
     <use xlink:href="#DejaVuSans-32"/>
     <use x="63.623047" xlink:href="#DejaVuSans-34"/>
     <use x="127.246094" xlink:href="#DejaVuSans-35"/>
     <use x="190.869141" xlink:href="#DejaVuSans-20"/>
     <use x="222.65625" xlink:href="#DejaVuSans-2227"/>
     <use x="295.849609" xlink:href="#DejaVuSans-20"/>
     <use x="327.636719" xlink:href="#DejaVuSans-32"/>
     <use x="391.259766" xlink:href="#DejaVuSans-34"/>
     <use x="454.882812" xlink:href="#DejaVuSans-36"/>
     <use x="518.505859" xlink:href="#DejaVuSans-20"/>
     <use x="550.292969" xlink:href="#DejaVuSans-2227"/>
     <use x="623.486328" xlink:href="#DejaVuSans-20"/>
     <use x="655.273438" xlink:href="#DejaVuSans-32"/>
     <use x="718.896484" xlink:href="#DejaVuSans-34"/>
     <use x="782.519531" xlink:href="#DejaVuSans-37"/>
     <use x="846.142578" xlink:href="#DejaVuSans-20"/>
     <use x="877.929688" xlink:href="#DejaVuSans-2227"/>
     <use x="951.123047" xlink:href="#DejaVuSans-20"/>
     <use x="982.910156" xlink:href="#DejaVuSans-ac"/>
     <use x="1066.699219" xlink:href="#DejaVuSans-32"/>
     <use x="1130.322266" xlink:href="#DejaVuSans-34"/>
     <use x="1193.945312" xlink:href="#DejaVuSans-39"/>
     <use x="1257.568359" xlink:href="#DejaVuSans-20"/>
     <use x="1289.355469" xlink:href="#DejaVuSans-2227"/>
     <use x="1362.548828" xlink:href="#DejaVuSans-20"/>
     <use x="1394.335938" xlink:href="#DejaVuSans-32"/>
     <use x="1457.958984" xlink:href="#DejaVuSans-35"/>
     <use x="1521.582031" xlink:href="#DejaVuSans-30"/>
     <use x="1585.205078" xlink:href="#DejaVuSans-20"/>
     <use x="1616.992188" xlink:href="#DejaVuSans-2227"/>
     <use x="1690.185547" xlink:href="#DejaVuSans-20"/>
     <use x="1721.972656" xlink:href="#DejaVuSans-32"/>
     <use x="1785.595703" xlink:href="#DejaVuSans-34"/>
     <use x="1849.21875" xlink:href="#DejaVuSans-38"/>
     <use x="1912.841797" xlink:href="#DejaVuSans-20"/>
     <use x="1944.628906" xlink:href="#DejaVuSans-2227"/>
     <use x="2017.822266" xlink:href="#DejaVuSans-20"/>
     <use x="2049.609375" xlink:href="#DejaVuSans-ac"/>
     <use x="2133.398438" xlink:href="#DejaVuSans-32"/>
     <use x="2197.021484" xlink:href="#DejaVuSans-35"/>
     <use x="2260.644531" xlink:href="#DejaVuSans-31"/>
     <use x="2324.267578" xlink:href="#DejaVuSans-20"/>
     <use x="2356.054688" xlink:href="#DejaVuSans-2227"/>
     <use x="2429.248047" xlink:href="#DejaVuSans-20"/>
     <use x="2461.035156" xlink:href="#DejaVuSans-32"/>
     <use x="2524.658203" xlink:href="#DejaVuSans-35"/>
     <use x="2588.28125" xlink:href="#DejaVuSans-32"/>
    </g>
    <!--  pyprover.logic.Prop('245')&amp; pyprover.logic.Prop('246')&amp; pyprover.logic.Prop('247')&amp;~ -->
    <defs>
     <path d="M 32.171875 -5.078125 
Q 28.375 -14.84375 24.75 -17.8125 
Q 21.140625 -20.796875 15.09375 -20.796875 
L 7.90625 -20.796875 
L 7.90625 -13.28125 
L 13.1875 -13.28125 
Q 16.890625 -13.28125 18.9375 -11.515625 
Q 21 -9.765625 23.484375 -3.21875 
L 25.09375 0.875 
L 2.984375 54.6875 
L 12.5 54.6875 
L 29.59375 11.921875 
L 46.6875 54.6875 
L 56.203125 54.6875 
z
" id="DejaVuSans-79"/>
     <path d="M 19.671875 64.796875 
L 19.671875 37.40625 
L 32.078125 37.40625 
Q 38.96875 37.40625 42.71875 40.96875 
Q 46.484375 44.53125 46.484375 51.125 
Q 46.484375 57.671875 42.71875 61.234375 
Q 38.96875 64.796875 32.078125 64.796875 
z
M 9.8125 72.90625 
L 32.078125 72.90625 
Q 44.34375 72.90625 50.609375 67.359375 
Q 56.890625 61.8125 56.890625 51.125 
Q 56.890625 40.328125 50.609375 34.8125 
Q 44.34375 29.296875 32.078125 29.296875 
L 19.671875 29.296875 
L 19.671875 0 
L 9.8125 0 
z
" id="DejaVuSans-50"/>
     <path d="M 17.921875 72.90625 
L 17.921875 45.796875 
L 9.625 45.796875 
L 9.625 72.90625 
z
" id="DejaVuSans-27"/>
     <path d="M 24.3125 39.203125 
Q 19.875 35.25 17.796875 31.3125 
Q 15.71875 27.390625 15.71875 23.09375 
Q 15.71875 15.96875 20.890625 11.234375 
Q 26.078125 6.5 33.890625 6.5 
Q 38.53125 6.5 42.578125 8.03125 
Q 46.625 9.578125 50.203125 12.703125 
z
M 31.203125 44.671875 
L 56 19.28125 
Q 58.890625 23.640625 60.5 28.59375 
Q 62.109375 33.546875 62.40625 39.109375 
L 71.484375 39.109375 
Q 70.90625 32.671875 68.359375 26.359375 
Q 65.828125 20.0625 61.28125 13.921875 
L 74.90625 0 
L 62.59375 0 
L 55.609375 7.171875 
Q 50.53125 2.828125 44.96875 0.703125 
Q 39.40625 -1.421875 33.015625 -1.421875 
Q 21.234375 -1.421875 13.765625 5.296875 
Q 6.296875 12.015625 6.296875 22.515625 
Q 6.296875 28.765625 9.5625 34.25 
Q 12.84375 39.75 19.390625 44.578125 
Q 17.046875 47.65625 15.8125 50.703125 
Q 14.59375 53.765625 14.59375 56.6875 
Q 14.59375 64.59375 20.015625 69.40625 
Q 25.4375 74.21875 34.421875 74.21875 
Q 38.484375 74.21875 42.5 73.34375 
Q 46.53125 72.46875 50.6875 70.703125 
L 50.6875 61.8125 
Q 46.4375 64.109375 42.578125 65.296875 
Q 38.71875 66.5 35.40625 66.5 
Q 30.28125 66.5 27.078125 63.78125 
Q 23.875 61.078125 23.875 56.78125 
Q 23.875 54.296875 25.3125 51.78125 
Q 26.765625 49.265625 31.203125 44.671875 
z
" id="DejaVuSans-26"/>
     <path d="M 73.1875 39.890625 
L 73.1875 31.203125 
Q 68.0625 27.34375 63.6875 25.6875 
Q 59.328125 24.03125 54.59375 24.03125 
Q 49.21875 24.03125 42.09375 26.90625 
Q 41.546875 27.09375 41.3125 27.203125 
Q 40.96875 27.34375 40.234375 27.59375 
Q 32.671875 30.609375 28.078125 30.609375 
Q 23.78125 30.609375 19.578125 28.734375 
Q 15.375 26.859375 10.59375 22.796875 
L 10.59375 31.5 
Q 15.71875 35.359375 20.09375 37.03125 
Q 24.46875 38.71875 29.203125 38.71875 
Q 34.578125 38.71875 41.75 35.796875 
Q 42.234375 35.59375 42.484375 35.5 
Q 42.875 35.359375 43.5625 35.109375 
Q 51.125 32.078125 55.71875 32.078125 
Q 59.90625 32.078125 64.03125 33.9375 
Q 68.171875 35.796875 73.1875 39.890625 
z
" id="DejaVuSans-7e"/>
    </defs>
    <g transform="translate(294.930938 39.52525)scale(0.12 -0.12)">
     <use xlink:href="#DejaVuSans-20"/>
     <use x="31.787109" xlink:href="#DejaVuSans-70"/>
     <use x="95.263672" xlink:href="#DejaVuSans-79"/>
     <use x="154.443359" xlink:href="#DejaVuSans-70"/>
     <use x="217.919922" xlink:href="#DejaVuSans-72"/>
     <use x="259.001953" xlink:href="#DejaVuSans-6f"/>
     <use x="320.183594" xlink:href="#DejaVuSans-76"/>
     <use x="379.363281" xlink:href="#DejaVuSans-65"/>
     <use x="440.886719" xlink:href="#DejaVuSans-72"/>
     <use x="481.859375" xlink:href="#DejaVuSans-2e"/>
     <use x="513.646484" xlink:href="#DejaVuSans-6c"/>
     <use x="541.429688" xlink:href="#DejaVuSans-6f"/>
     <use x="602.611328" xlink:href="#DejaVuSans-67"/>
     <use x="666.087891" xlink:href="#DejaVuSans-69"/>
     <use x="693.871094" xlink:href="#DejaVuSans-63"/>
     <use x="748.851562" xlink:href="#DejaVuSans-2e"/>
     <use x="780.638672" xlink:href="#DejaVuSans-50"/>
     <use x="840.925781" xlink:href="#DejaVuSans-72"/>
     <use x="882.007812" xlink:href="#DejaVuSans-6f"/>
     <use x="943.189453" xlink:href="#DejaVuSans-70"/>
     <use x="1006.666016" xlink:href="#DejaVuSans-28"/>
     <use x="1045.679688" xlink:href="#DejaVuSans-27"/>
     <use x="1073.169922" xlink:href="#DejaVuSans-32"/>
     <use x="1136.792969" xlink:href="#DejaVuSans-34"/>
     <use x="1200.416016" xlink:href="#DejaVuSans-35"/>
     <use x="1264.039062" xlink:href="#DejaVuSans-27"/>
     <use x="1291.529297" xlink:href="#DejaVuSans-29"/>
     <use x="1330.542969" xlink:href="#DejaVuSans-26"/>
     <use x="1408.521484" xlink:href="#DejaVuSans-20"/>
     <use x="1440.308594" xlink:href="#DejaVuSans-70"/>
     <use x="1503.785156" xlink:href="#DejaVuSans-79"/>
     <use x="1562.964844" xlink:href="#DejaVuSans-70"/>
     <use x="1626.441406" xlink:href="#DejaVuSans-72"/>
     <use x="1667.523438" xlink:href="#DejaVuSans-6f"/>
     <use x="1728.705078" xlink:href="#DejaVuSans-76"/>
     <use x="1787.884766" xlink:href="#DejaVuSans-65"/>
     <use x="1849.408203" xlink:href="#DejaVuSans-72"/>
     <use x="1890.380859" xlink:href="#DejaVuSans-2e"/>
     <use x="1922.167969" xlink:href="#DejaVuSans-6c"/>
     <use x="1949.951172" xlink:href="#DejaVuSans-6f"/>
     <use x="2011.132812" xlink:href="#DejaVuSans-67"/>
     <use x="2074.609375" xlink:href="#DejaVuSans-69"/>
     <use x="2102.392578" xlink:href="#DejaVuSans-63"/>
     <use x="2157.373047" xlink:href="#DejaVuSans-2e"/>
     <use x="2189.160156" xlink:href="#DejaVuSans-50"/>
     <use x="2249.447266" xlink:href="#DejaVuSans-72"/>
     <use x="2290.529297" xlink:href="#DejaVuSans-6f"/>
     <use x="2351.710938" xlink:href="#DejaVuSans-70"/>
     <use x="2415.1875" xlink:href="#DejaVuSans-28"/>
     <use x="2454.201172" xlink:href="#DejaVuSans-27"/>
     <use x="2481.691406" xlink:href="#DejaVuSans-32"/>
     <use x="2545.314453" xlink:href="#DejaVuSans-34"/>
     <use x="2608.9375" xlink:href="#DejaVuSans-36"/>
     <use x="2672.560547" xlink:href="#DejaVuSans-27"/>
     <use x="2700.050781" xlink:href="#DejaVuSans-29"/>
     <use x="2739.064453" xlink:href="#DejaVuSans-26"/>
     <use x="2817.042969" xlink:href="#DejaVuSans-20"/>
     <use x="2848.830078" xlink:href="#DejaVuSans-70"/>
     <use x="2912.306641" xlink:href="#DejaVuSans-79"/>
     <use x="2971.486328" xlink:href="#DejaVuSans-70"/>
     <use x="3034.962891" xlink:href="#DejaVuSans-72"/>
     <use x="3076.044922" xlink:href="#DejaVuSans-6f"/>
     <use x="3137.226562" xlink:href="#DejaVuSans-76"/>
     <use x="3196.40625" xlink:href="#DejaVuSans-65"/>
     <use x="3257.929688" xlink:href="#DejaVuSans-72"/>
     <use x="3298.902344" xlink:href="#DejaVuSans-2e"/>
     <use x="3330.689453" xlink:href="#DejaVuSans-6c"/>
     <use x="3358.472656" xlink:href="#DejaVuSans-6f"/>
     <use x="3419.654297" xlink:href="#DejaVuSans-67"/>
     <use x="3483.130859" xlink:href="#DejaVuSans-69"/>
     <use x="3510.914062" xlink:href="#DejaVuSans-63"/>
     <use x="3565.894531" xlink:href="#DejaVuSans-2e"/>
     <use x="3597.681641" xlink:href="#DejaVuSans-50"/>
     <use x="3657.96875" xlink:href="#DejaVuSans-72"/>
     <use x="3699.050781" xlink:href="#DejaVuSans-6f"/>
     <use x="3760.232422" xlink:href="#DejaVuSans-70"/>
     <use x="3823.708984" xlink:href="#DejaVuSans-28"/>
     <use x="3862.722656" xlink:href="#DejaVuSans-27"/>
     <use x="3890.212891" xlink:href="#DejaVuSans-32"/>
     <use x="3953.835938" xlink:href="#DejaVuSans-34"/>
     <use x="4017.458984" xlink:href="#DejaVuSans-37"/>
     <use x="4081.082031" xlink:href="#DejaVuSans-27"/>
     <use x="4108.572266" xlink:href="#DejaVuSans-29"/>
     <use x="4147.585938" xlink:href="#DejaVuSans-26"/>
     <use x="4225.564453" xlink:href="#DejaVuSans-7e"/>
    </g>
    <!-- pyprover.logic.Prop('249')&amp; pyprover.logic.Prop('250')&amp; pyprover.logic.Prop('248')&amp;~ -->
    <g transform="translate(296.837812 52.962625)scale(0.12 -0.12)">
     <use xlink:href="#DejaVuSans-70"/>
     <use x="63.476562" xlink:href="#DejaVuSans-79"/>
     <use x="122.65625" xlink:href="#DejaVuSans-70"/>
     <use x="186.132812" xlink:href="#DejaVuSans-72"/>
     <use x="227.214844" xlink:href="#DejaVuSans-6f"/>
     <use x="288.396484" xlink:href="#DejaVuSans-76"/>
     <use x="347.576172" xlink:href="#DejaVuSans-65"/>
     <use x="409.099609" xlink:href="#DejaVuSans-72"/>
     <use x="450.072266" xlink:href="#DejaVuSans-2e"/>
     <use x="481.859375" xlink:href="#DejaVuSans-6c"/>
     <use x="509.642578" xlink:href="#DejaVuSans-6f"/>
     <use x="570.824219" xlink:href="#DejaVuSans-67"/>
     <use x="634.300781" xlink:href="#DejaVuSans-69"/>
     <use x="662.083984" xlink:href="#DejaVuSans-63"/>
     <use x="717.064453" xlink:href="#DejaVuSans-2e"/>
     <use x="748.851562" xlink:href="#DejaVuSans-50"/>
     <use x="809.138672" xlink:href="#DejaVuSans-72"/>
     <use x="850.220703" xlink:href="#DejaVuSans-6f"/>
     <use x="911.402344" xlink:href="#DejaVuSans-70"/>
     <use x="974.878906" xlink:href="#DejaVuSans-28"/>
     <use x="1013.892578" xlink:href="#DejaVuSans-27"/>
     <use x="1041.382812" xlink:href="#DejaVuSans-32"/>
     <use x="1105.005859" xlink:href="#DejaVuSans-34"/>
     <use x="1168.628906" xlink:href="#DejaVuSans-39"/>
     <use x="1232.251953" xlink:href="#DejaVuSans-27"/>
     <use x="1259.742188" xlink:href="#DejaVuSans-29"/>
     <use x="1298.755859" xlink:href="#DejaVuSans-26"/>
     <use x="1376.734375" xlink:href="#DejaVuSans-20"/>
     <use x="1408.521484" xlink:href="#DejaVuSans-70"/>
     <use x="1471.998047" xlink:href="#DejaVuSans-79"/>
     <use x="1531.177734" xlink:href="#DejaVuSans-70"/>
     <use x="1594.654297" xlink:href="#DejaVuSans-72"/>
     <use x="1635.736328" xlink:href="#DejaVuSans-6f"/>
     <use x="1696.917969" xlink:href="#DejaVuSans-76"/>
     <use x="1756.097656" xlink:href="#DejaVuSans-65"/>
     <use x="1817.621094" xlink:href="#DejaVuSans-72"/>
     <use x="1858.59375" xlink:href="#DejaVuSans-2e"/>
     <use x="1890.380859" xlink:href="#DejaVuSans-6c"/>
     <use x="1918.164062" xlink:href="#DejaVuSans-6f"/>
     <use x="1979.345703" xlink:href="#DejaVuSans-67"/>
     <use x="2042.822266" xlink:href="#DejaVuSans-69"/>
     <use x="2070.605469" xlink:href="#DejaVuSans-63"/>
     <use x="2125.585938" xlink:href="#DejaVuSans-2e"/>
     <use x="2157.373047" xlink:href="#DejaVuSans-50"/>
     <use x="2217.660156" xlink:href="#DejaVuSans-72"/>
     <use x="2258.742188" xlink:href="#DejaVuSans-6f"/>
     <use x="2319.923828" xlink:href="#DejaVuSans-70"/>
     <use x="2383.400391" xlink:href="#DejaVuSans-28"/>
     <use x="2422.414062" xlink:href="#DejaVuSans-27"/>
     <use x="2449.904297" xlink:href="#DejaVuSans-32"/>
     <use x="2513.527344" xlink:href="#DejaVuSans-35"/>
     <use x="2577.150391" xlink:href="#DejaVuSans-30"/>
     <use x="2640.773438" xlink:href="#DejaVuSans-27"/>
     <use x="2668.263672" xlink:href="#DejaVuSans-29"/>
     <use x="2707.277344" xlink:href="#DejaVuSans-26"/>
     <use x="2785.255859" xlink:href="#DejaVuSans-20"/>
     <use x="2817.042969" xlink:href="#DejaVuSans-70"/>
     <use x="2880.519531" xlink:href="#DejaVuSans-79"/>
     <use x="2939.699219" xlink:href="#DejaVuSans-70"/>
     <use x="3003.175781" xlink:href="#DejaVuSans-72"/>
     <use x="3044.257812" xlink:href="#DejaVuSans-6f"/>
     <use x="3105.439453" xlink:href="#DejaVuSans-76"/>
     <use x="3164.619141" xlink:href="#DejaVuSans-65"/>
     <use x="3226.142578" xlink:href="#DejaVuSans-72"/>
     <use x="3267.115234" xlink:href="#DejaVuSans-2e"/>
     <use x="3298.902344" xlink:href="#DejaVuSans-6c"/>
     <use x="3326.685547" xlink:href="#DejaVuSans-6f"/>
     <use x="3387.867188" xlink:href="#DejaVuSans-67"/>
     <use x="3451.34375" xlink:href="#DejaVuSans-69"/>
     <use x="3479.126953" xlink:href="#DejaVuSans-63"/>
     <use x="3534.107422" xlink:href="#DejaVuSans-2e"/>
     <use x="3565.894531" xlink:href="#DejaVuSans-50"/>
     <use x="3626.181641" xlink:href="#DejaVuSans-72"/>
     <use x="3667.263672" xlink:href="#DejaVuSans-6f"/>
     <use x="3728.445312" xlink:href="#DejaVuSans-70"/>
     <use x="3791.921875" xlink:href="#DejaVuSans-28"/>
     <use x="3830.935547" xlink:href="#DejaVuSans-27"/>
     <use x="3858.425781" xlink:href="#DejaVuSans-32"/>
     <use x="3922.048828" xlink:href="#DejaVuSans-34"/>
     <use x="3985.671875" xlink:href="#DejaVuSans-38"/>
     <use x="4049.294922" xlink:href="#DejaVuSans-27"/>
     <use x="4076.785156" xlink:href="#DejaVuSans-29"/>
     <use x="4115.798828" xlink:href="#DejaVuSans-26"/>
     <use x="4193.777344" xlink:href="#DejaVuSans-7e"/>
    </g>
    <!-- pyprover.logic.Prop('251')&amp; pyprover.logic.Prop('252') -->
    <g transform="translate(391.058437 66.4)scale(0.12 -0.12)">
     <use xlink:href="#DejaVuSans-70"/>
     <use x="63.476562" xlink:href="#DejaVuSans-79"/>
     <use x="122.65625" xlink:href="#DejaVuSans-70"/>
     <use x="186.132812" xlink:href="#DejaVuSans-72"/>
     <use x="227.214844" xlink:href="#DejaVuSans-6f"/>
     <use x="288.396484" xlink:href="#DejaVuSans-76"/>
     <use x="347.576172" xlink:href="#DejaVuSans-65"/>
     <use x="409.099609" xlink:href="#DejaVuSans-72"/>
     <use x="450.072266" xlink:href="#DejaVuSans-2e"/>
     <use x="481.859375" xlink:href="#DejaVuSans-6c"/>
     <use x="509.642578" xlink:href="#DejaVuSans-6f"/>
     <use x="570.824219" xlink:href="#DejaVuSans-67"/>
     <use x="634.300781" xlink:href="#DejaVuSans-69"/>
     <use x="662.083984" xlink:href="#DejaVuSans-63"/>
     <use x="717.064453" xlink:href="#DejaVuSans-2e"/>
     <use x="748.851562" xlink:href="#DejaVuSans-50"/>
     <use x="809.138672" xlink:href="#DejaVuSans-72"/>
     <use x="850.220703" xlink:href="#DejaVuSans-6f"/>
     <use x="911.402344" xlink:href="#DejaVuSans-70"/>
     <use x="974.878906" xlink:href="#DejaVuSans-28"/>
     <use x="1013.892578" xlink:href="#DejaVuSans-27"/>
     <use x="1041.382812" xlink:href="#DejaVuSans-32"/>
     <use x="1105.005859" xlink:href="#DejaVuSans-35"/>
     <use x="1168.628906" xlink:href="#DejaVuSans-31"/>
     <use x="1232.251953" xlink:href="#DejaVuSans-27"/>
     <use x="1259.742188" xlink:href="#DejaVuSans-29"/>
     <use x="1298.755859" xlink:href="#DejaVuSans-26"/>
     <use x="1376.734375" xlink:href="#DejaVuSans-20"/>
     <use x="1408.521484" xlink:href="#DejaVuSans-70"/>
     <use x="1471.998047" xlink:href="#DejaVuSans-79"/>
     <use x="1531.177734" xlink:href="#DejaVuSans-70"/>
     <use x="1594.654297" xlink:href="#DejaVuSans-72"/>
     <use x="1635.736328" xlink:href="#DejaVuSans-6f"/>
     <use x="1696.917969" xlink:href="#DejaVuSans-76"/>
     <use x="1756.097656" xlink:href="#DejaVuSans-65"/>
     <use x="1817.621094" xlink:href="#DejaVuSans-72"/>
     <use x="1858.59375" xlink:href="#DejaVuSans-2e"/>
     <use x="1890.380859" xlink:href="#DejaVuSans-6c"/>
     <use x="1918.164062" xlink:href="#DejaVuSans-6f"/>
     <use x="1979.345703" xlink:href="#DejaVuSans-67"/>
     <use x="2042.822266" xlink:href="#DejaVuSans-69"/>
     <use x="2070.605469" xlink:href="#DejaVuSans-63"/>
     <use x="2125.585938" xlink:href="#DejaVuSans-2e"/>
     <use x="2157.373047" xlink:href="#DejaVuSans-50"/>
     <use x="2217.660156" xlink:href="#DejaVuSans-72"/>
     <use x="2258.742188" xlink:href="#DejaVuSans-6f"/>
     <use x="2319.923828" xlink:href="#DejaVuSans-70"/>
     <use x="2383.400391" xlink:href="#DejaVuSans-28"/>
     <use x="2422.414062" xlink:href="#DejaVuSans-27"/>
     <use x="2449.904297" xlink:href="#DejaVuSans-32"/>
     <use x="2513.527344" xlink:href="#DejaVuSans-35"/>
     <use x="2577.150391" xlink:href="#DejaVuSans-32"/>
     <use x="2640.773438" xlink:href="#DejaVuSans-27"/>
     <use x="2668.263672" xlink:href="#DejaVuSans-29"/>
    </g>
   </g>
  </g>
 </g>
 <defs>
  <clipPath id="pced0063e37">
   <rect height="554.4" width="837" x="135" y="86.4"/>
  </clipPath>
 </defs>
</svg>
