<?xml version="1.0" encoding="utf-8" standalone="no"?>
<!DOCTYPE svg PUBLIC "-//W3C//DTD SVG 1.1//EN"
  "http://www.w3.org/Graphics/SVG/1.1/DTD/svg11.dtd">
<!-- Created with matplotlib (http://matplotlib.org/) -->
<svg height="720pt" version="1.1" viewBox="0 0 1080 720" width="1080pt" xmlns="http://www.w3.org/2000/svg" xmlns:xlink="http://www.w3.org/1999/xlink">
 <defs>
  <style type="text/css">
*{stroke-linecap:butt;stroke-linejoin:round;}
  </style>
 </defs>
 <g id="figure_1">
  <g id="patch_1">
   <path d="M 0 720 
L 1080 720 
L 1080 0 
L 0 0 
z
" style="fill:#ffffff;"/>
  </g>
  <g id="axes_1">
   <g id="patch_2">
    <path clip-path="url(#pfd5dbaeced)" d="M 577.416388 134.509091 
Q 394.650106 247.737559 214.735089 359.199595 
" style="fill:none;stroke:#000000;stroke-linecap:round;stroke-width:3;"/>
    <path clip-path="url(#pfd5dbaeced)" d="M 220.079445 358.711881 
L 214.735089 359.199595 
L 217.551531 354.631482 
L 220.079445 358.711881 
z
" style="stroke:#000000;stroke-linecap:round;stroke-width:3;"/>
   </g>
   <g id="patch_3">
    <path clip-path="url(#pfd5dbaeced)" d="M 577.416388 134.509091 
Q 577.416388 246.553408 577.416388 355.243623 
" style="fill:none;stroke:#000000;stroke-linecap:round;stroke-width:3;"/>
    <path clip-path="url(#pfd5dbaeced)" d="M 579.816388 350.443623 
L 577.416388 355.243623 
L 575.016388 350.443623 
L 579.816388 350.443623 
z
" style="stroke:#000000;stroke-linecap:round;stroke-width:3;"/>
   </g>
   <g id="patch_4">
    <path clip-path="url(#pfd5dbaeced)" d="M 577.416388 134.509091 
Q 736.354582 247.604725 892.559926 358.755744 
" style="fill:none;stroke:#000000;stroke-linecap:round;stroke-width:3;"/>
    <path clip-path="url(#pfd5dbaeced)" d="M 890.040441 354.017369 
L 892.559926 358.755744 
L 887.257535 357.928307 
L 890.040441 354.017369 
z
" style="stroke:#000000;stroke-linecap:round;stroke-width:3;"/>
   </g>
   <g id="patch_5">
    <path clip-path="url(#pfd5dbaeced)" d="M 577.416388 363.6 
Q 577.416388 475.644317 577.416388 584.334532 
" style="fill:none;stroke:#000000;stroke-linecap:round;stroke-width:3;"/>
    <path clip-path="url(#pfd5dbaeced)" d="M 579.816388 579.534532 
L 577.416388 584.334532 
L 575.016388 579.534532 
L 579.816388 579.534532 
z
" style="stroke:#000000;stroke-linecap:round;stroke-width:3;"/>
   </g>
   <g id="patch_6">
    <path clip-path="url(#pfd5dbaeced)" d="M 899.367769 363.6 
Q 899.367769 475.644317 899.367769 584.334532 
" style="fill:none;stroke:#000000;stroke-linecap:round;stroke-width:3;"/>
    <path clip-path="url(#pfd5dbaeced)" d="M 901.767769 579.534532 
L 899.367769 584.334532 
L 896.967769 579.534532 
L 901.767769 579.534532 
z
" style="stroke:#000000;stroke-linecap:round;stroke-width:3;"/>
   </g>
   <g id="PathCollection_1">
    <defs>
     <path d="M 0 5 
C 1.326016 5 2.597899 4.473168 3.535534 3.535534 
C 4.473168 2.597899 5 1.326016 5 0 
C 5 -1.326016 4.473168 -2.597899 3.535534 -3.535534 
C 2.597899 -4.473168 1.326016 -5 0 -5 
C -1.326016 -5 -2.597899 -4.473168 -3.535534 -3.535534 
C -4.473168 -2.597899 -5 -1.326016 -5 0 
C -5 1.326016 -4.473168 2.597899 -3.535534 3.535534 
C -2.597899 4.473168 -1.326016 5 0 5 
z
" id="m4f1a9fac67" style="stroke:#0000ff;"/>
    </defs>
    <g clip-path="url(#pfd5dbaeced)">
     <use style="fill:#0000ff;stroke:#0000ff;" x="577.416388" xlink:href="#m4f1a9fac67" y="134.509091"/>
     <use style="fill:#0000ff;stroke:#0000ff;" x="207.632231" xlink:href="#m4f1a9fac67" y="363.6"/>
     <use style="fill:#0000ff;stroke:#0000ff;" x="577.416388" xlink:href="#m4f1a9fac67" y="363.6"/>
     <use style="fill:#0000ff;stroke:#0000ff;" x="899.367769" xlink:href="#m4f1a9fac67" y="363.6"/>
     <use style="fill:#0000ff;stroke:#0000ff;" x="899.367769" xlink:href="#m4f1a9fac67" y="592.690909"/>
     <use style="fill:#0000ff;stroke:#0000ff;" x="577.416388" xlink:href="#m4f1a9fac67" y="592.690909"/>
    </g>
   </g>
   <g id="text_1">
    <g clip-path="url(#pfd5dbaeced)">
     <!-- 400  If we call an individual -->
     <defs>
      <path d="M 37.796875 64.3125 
L 12.890625 25.390625 
L 37.796875 25.390625 
z
M 35.203125 72.90625 
L 47.609375 72.90625 
L 47.609375 25.390625 
L 58.015625 25.390625 
L 58.015625 17.1875 
L 47.609375 17.1875 
L 47.609375 0 
L 37.796875 0 
L 37.796875 17.1875 
L 4.890625 17.1875 
L 4.890625 26.703125 
z
" id="DejaVuSans-34"/>
      <path d="M 31.78125 66.40625 
Q 24.171875 66.40625 20.328125 58.90625 
Q 16.5 51.421875 16.5 36.375 
Q 16.5 21.390625 20.328125 13.890625 
Q 24.171875 6.390625 31.78125 6.390625 
Q 39.453125 6.390625 43.28125 13.890625 
Q 47.125 21.390625 47.125 36.375 
Q 47.125 51.421875 43.28125 58.90625 
Q 39.453125 66.40625 31.78125 66.40625 
z
M 31.78125 74.21875 
Q 44.046875 74.21875 50.515625 64.515625 
Q 56.984375 54.828125 56.984375 36.375 
Q 56.984375 17.96875 50.515625 8.265625 
Q 44.046875 -1.421875 31.78125 -1.421875 
Q 19.53125 -1.421875 13.0625 8.265625 
Q 6.59375 17.96875 6.59375 36.375 
Q 6.59375 54.828125 13.0625 64.515625 
Q 19.53125 74.21875 31.78125 74.21875 
z
" id="DejaVuSans-30"/>
      <path id="DejaVuSans-20"/>
      <path d="M 9.8125 72.90625 
L 19.671875 72.90625 
L 19.671875 0 
L 9.8125 0 
z
" id="DejaVuSans-49"/>
      <path d="M 37.109375 75.984375 
L 37.109375 68.5 
L 28.515625 68.5 
Q 23.6875 68.5 21.796875 66.546875 
Q 19.921875 64.59375 19.921875 59.515625 
L 19.921875 54.6875 
L 34.71875 54.6875 
L 34.71875 47.703125 
L 19.921875 47.703125 
L 19.921875 0 
L 10.890625 0 
L 10.890625 47.703125 
L 2.296875 47.703125 
L 2.296875 54.6875 
L 10.890625 54.6875 
L 10.890625 58.5 
Q 10.890625 67.625 15.140625 71.796875 
Q 19.390625 75.984375 28.609375 75.984375 
z
" id="DejaVuSans-66"/>
      <path d="M 4.203125 54.6875 
L 13.1875 54.6875 
L 24.421875 12.015625 
L 35.59375 54.6875 
L 46.1875 54.6875 
L 57.421875 12.015625 
L 68.609375 54.6875 
L 77.59375 54.6875 
L 63.28125 0 
L 52.6875 0 
L 40.921875 44.828125 
L 29.109375 0 
L 18.5 0 
z
" id="DejaVuSans-77"/>
      <path d="M 56.203125 29.59375 
L 56.203125 25.203125 
L 14.890625 25.203125 
Q 15.484375 15.921875 20.484375 11.0625 
Q 25.484375 6.203125 34.421875 6.203125 
Q 39.59375 6.203125 44.453125 7.46875 
Q 49.3125 8.734375 54.109375 11.28125 
L 54.109375 2.78125 
Q 49.265625 0.734375 44.1875 -0.34375 
Q 39.109375 -1.421875 33.890625 -1.421875 
Q 20.796875 -1.421875 13.15625 6.1875 
Q 5.515625 13.8125 5.515625 26.8125 
Q 5.515625 40.234375 12.765625 48.109375 
Q 20.015625 56 32.328125 56 
Q 43.359375 56 49.78125 48.890625 
Q 56.203125 41.796875 56.203125 29.59375 
z
M 47.21875 32.234375 
Q 47.125 39.59375 43.09375 43.984375 
Q 39.0625 48.390625 32.421875 48.390625 
Q 24.90625 48.390625 20.390625 44.140625 
Q 15.875 39.890625 15.1875 32.171875 
z
" id="DejaVuSans-65"/>
      <path d="M 48.78125 52.59375 
L 48.78125 44.1875 
Q 44.96875 46.296875 41.140625 47.34375 
Q 37.3125 48.390625 33.40625 48.390625 
Q 24.65625 48.390625 19.8125 42.84375 
Q 14.984375 37.3125 14.984375 27.296875 
Q 14.984375 17.28125 19.8125 11.734375 
Q 24.65625 6.203125 33.40625 6.203125 
Q 37.3125 6.203125 41.140625 7.25 
Q 44.96875 8.296875 48.78125 10.40625 
L 48.78125 2.09375 
Q 45.015625 0.34375 40.984375 -0.53125 
Q 36.96875 -1.421875 32.421875 -1.421875 
Q 20.0625 -1.421875 12.78125 6.34375 
Q 5.515625 14.109375 5.515625 27.296875 
Q 5.515625 40.671875 12.859375 48.328125 
Q 20.21875 56 33.015625 56 
Q 37.15625 56 41.109375 55.140625 
Q 45.0625 54.296875 48.78125 52.59375 
z
" id="DejaVuSans-63"/>
      <path d="M 34.28125 27.484375 
Q 23.390625 27.484375 19.1875 25 
Q 14.984375 22.515625 14.984375 16.5 
Q 14.984375 11.71875 18.140625 8.90625 
Q 21.296875 6.109375 26.703125 6.109375 
Q 34.1875 6.109375 38.703125 11.40625 
Q 43.21875 16.703125 43.21875 25.484375 
L 43.21875 27.484375 
z
M 52.203125 31.203125 
L 52.203125 0 
L 43.21875 0 
L 43.21875 8.296875 
Q 40.140625 3.328125 35.546875 0.953125 
Q 30.953125 -1.421875 24.3125 -1.421875 
Q 15.921875 -1.421875 10.953125 3.296875 
Q 6 8.015625 6 15.921875 
Q 6 25.140625 12.171875 29.828125 
Q 18.359375 34.515625 30.609375 34.515625 
L 43.21875 34.515625 
L 43.21875 35.40625 
Q 43.21875 41.609375 39.140625 45 
Q 35.0625 48.390625 27.6875 48.390625 
Q 23 48.390625 18.546875 47.265625 
Q 14.109375 46.140625 10.015625 43.890625 
L 10.015625 52.203125 
Q 14.9375 54.109375 19.578125 55.046875 
Q 24.21875 56 28.609375 56 
Q 40.484375 56 46.34375 49.84375 
Q 52.203125 43.703125 52.203125 31.203125 
z
" id="DejaVuSans-61"/>
      <path d="M 9.421875 75.984375 
L 18.40625 75.984375 
L 18.40625 0 
L 9.421875 0 
z
" id="DejaVuSans-6c"/>
      <path d="M 54.890625 33.015625 
L 54.890625 0 
L 45.90625 0 
L 45.90625 32.71875 
Q 45.90625 40.484375 42.875 44.328125 
Q 39.84375 48.1875 33.796875 48.1875 
Q 26.515625 48.1875 22.3125 43.546875 
Q 18.109375 38.921875 18.109375 30.90625 
L 18.109375 0 
L 9.078125 0 
L 9.078125 54.6875 
L 18.109375 54.6875 
L 18.109375 46.1875 
Q 21.34375 51.125 25.703125 53.5625 
Q 30.078125 56 35.796875 56 
Q 45.21875 56 50.046875 50.171875 
Q 54.890625 44.34375 54.890625 33.015625 
z
" id="DejaVuSans-6e"/>
      <path d="M 9.421875 54.6875 
L 18.40625 54.6875 
L 18.40625 0 
L 9.421875 0 
z
M 9.421875 75.984375 
L 18.40625 75.984375 
L 18.40625 64.59375 
L 9.421875 64.59375 
z
" id="DejaVuSans-69"/>
      <path d="M 45.40625 46.390625 
L 45.40625 75.984375 
L 54.390625 75.984375 
L 54.390625 0 
L 45.40625 0 
L 45.40625 8.203125 
Q 42.578125 3.328125 38.25 0.953125 
Q 33.9375 -1.421875 27.875 -1.421875 
Q 17.96875 -1.421875 11.734375 6.484375 
Q 5.515625 14.40625 5.515625 27.296875 
Q 5.515625 40.1875 11.734375 48.09375 
Q 17.96875 56 27.875 56 
Q 33.9375 56 38.25 53.625 
Q 42.578125 51.265625 45.40625 46.390625 
z
M 14.796875 27.296875 
Q 14.796875 17.390625 18.875 11.75 
Q 22.953125 6.109375 30.078125 6.109375 
Q 37.203125 6.109375 41.296875 11.75 
Q 45.40625 17.390625 45.40625 27.296875 
Q 45.40625 37.203125 41.296875 42.84375 
Q 37.203125 48.484375 30.078125 48.484375 
Q 22.953125 48.484375 18.875 42.84375 
Q 14.796875 37.203125 14.796875 27.296875 
z
" id="DejaVuSans-64"/>
      <path d="M 2.984375 54.6875 
L 12.5 54.6875 
L 29.59375 8.796875 
L 46.6875 54.6875 
L 56.203125 54.6875 
L 35.6875 0 
L 23.484375 0 
z
" id="DejaVuSans-76"/>
      <path d="M 8.5 21.578125 
L 8.5 54.6875 
L 17.484375 54.6875 
L 17.484375 21.921875 
Q 17.484375 14.15625 20.5 10.265625 
Q 23.53125 6.390625 29.59375 6.390625 
Q 36.859375 6.390625 41.078125 11.03125 
Q 45.3125 15.671875 45.3125 23.6875 
L 45.3125 54.6875 
L 54.296875 54.6875 
L 54.296875 0 
L 45.3125 0 
L 45.3125 8.40625 
Q 42.046875 3.421875 37.71875 1 
Q 33.40625 -1.421875 27.6875 -1.421875 
Q 18.265625 -1.421875 13.375 4.4375 
Q 8.5 10.296875 8.5 21.578125 
z
M 31.109375 56 
z
" id="DejaVuSans-75"/>
     </defs>
     <g transform="translate(508.847638 114.872841)scale(0.1 -0.1)">
      <use xlink:href="#DejaVuSans-34"/>
      <use x="63.623047" xlink:href="#DejaVuSans-30"/>
      <use x="127.246094" xlink:href="#DejaVuSans-30"/>
      <use x="190.869141" xlink:href="#DejaVuSans-20"/>
      <use x="222.65625" xlink:href="#DejaVuSans-20"/>
      <use x="254.443359" xlink:href="#DejaVuSans-49"/>
      <use x="283.935547" xlink:href="#DejaVuSans-66"/>
      <use x="319.140625" xlink:href="#DejaVuSans-20"/>
      <use x="350.927734" xlink:href="#DejaVuSans-77"/>
      <use x="432.714844" xlink:href="#DejaVuSans-65"/>
      <use x="494.238281" xlink:href="#DejaVuSans-20"/>
      <use x="526.025391" xlink:href="#DejaVuSans-63"/>
      <use x="581.005859" xlink:href="#DejaVuSans-61"/>
      <use x="642.285156" xlink:href="#DejaVuSans-6c"/>
      <use x="670.068359" xlink:href="#DejaVuSans-6c"/>
      <use x="697.851562" xlink:href="#DejaVuSans-20"/>
      <use x="729.638672" xlink:href="#DejaVuSans-61"/>
      <use x="790.917969" xlink:href="#DejaVuSans-6e"/>
      <use x="854.296875" xlink:href="#DejaVuSans-20"/>
      <use x="886.083984" xlink:href="#DejaVuSans-69"/>
      <use x="913.867188" xlink:href="#DejaVuSans-6e"/>
      <use x="977.246094" xlink:href="#DejaVuSans-64"/>
      <use x="1040.722656" xlink:href="#DejaVuSans-69"/>
      <use x="1068.505859" xlink:href="#DejaVuSans-76"/>
      <use x="1127.685547" xlink:href="#DejaVuSans-69"/>
      <use x="1155.46875" xlink:href="#DejaVuSans-64"/>
      <use x="1218.945312" xlink:href="#DejaVuSans-75"/>
      <use x="1282.324219" xlink:href="#DejaVuSans-61"/>
      <use x="1343.603516" xlink:href="#DejaVuSans-6c"/>
     </g>
    </g>
    <g clip-path="url(#pfd5dbaeced)">
     <!-- man Skilledingrammar , the -->
     <defs>
      <path d="M 52 44.1875 
Q 55.375 50.25 60.0625 53.125 
Q 64.75 56 71.09375 56 
Q 79.640625 56 84.28125 50.015625 
Q 88.921875 44.046875 88.921875 33.015625 
L 88.921875 0 
L 79.890625 0 
L 79.890625 32.71875 
Q 79.890625 40.578125 77.09375 44.375 
Q 74.3125 48.1875 68.609375 48.1875 
Q 61.625 48.1875 57.5625 43.546875 
Q 53.515625 38.921875 53.515625 30.90625 
L 53.515625 0 
L 44.484375 0 
L 44.484375 32.71875 
Q 44.484375 40.625 41.703125 44.40625 
Q 38.921875 48.1875 33.109375 48.1875 
Q 26.21875 48.1875 22.15625 43.53125 
Q 18.109375 38.875 18.109375 30.90625 
L 18.109375 0 
L 9.078125 0 
L 9.078125 54.6875 
L 18.109375 54.6875 
L 18.109375 46.1875 
Q 21.1875 51.21875 25.484375 53.609375 
Q 29.78125 56 35.6875 56 
Q 41.65625 56 45.828125 52.96875 
Q 50 49.953125 52 44.1875 
z
" id="DejaVuSans-6d"/>
      <path d="M 53.515625 70.515625 
L 53.515625 60.890625 
Q 47.90625 63.578125 42.921875 64.890625 
Q 37.9375 66.21875 33.296875 66.21875 
Q 25.25 66.21875 20.875 63.09375 
Q 16.5 59.96875 16.5 54.203125 
Q 16.5 49.359375 19.40625 46.890625 
Q 22.3125 44.4375 30.421875 42.921875 
L 36.375 41.703125 
Q 47.40625 39.59375 52.65625 34.296875 
Q 57.90625 29 57.90625 20.125 
Q 57.90625 9.515625 50.796875 4.046875 
Q 43.703125 -1.421875 29.984375 -1.421875 
Q 24.8125 -1.421875 18.96875 -0.25 
Q 13.140625 0.921875 6.890625 3.21875 
L 6.890625 13.375 
Q 12.890625 10.015625 18.65625 8.296875 
Q 24.421875 6.59375 29.984375 6.59375 
Q 38.421875 6.59375 43.015625 9.90625 
Q 47.609375 13.234375 47.609375 19.390625 
Q 47.609375 24.75 44.3125 27.78125 
Q 41.015625 30.8125 33.5 32.328125 
L 27.484375 33.5 
Q 16.453125 35.6875 11.515625 40.375 
Q 6.59375 45.0625 6.59375 53.421875 
Q 6.59375 63.09375 13.40625 68.65625 
Q 20.21875 74.21875 32.171875 74.21875 
Q 37.3125 74.21875 42.625 73.28125 
Q 47.953125 72.359375 53.515625 70.515625 
z
" id="DejaVuSans-53"/>
      <path d="M 9.078125 75.984375 
L 18.109375 75.984375 
L 18.109375 31.109375 
L 44.921875 54.6875 
L 56.390625 54.6875 
L 27.390625 29.109375 
L 57.625 0 
L 45.90625 0 
L 18.109375 26.703125 
L 18.109375 0 
L 9.078125 0 
z
" id="DejaVuSans-6b"/>
      <path d="M 45.40625 27.984375 
Q 45.40625 37.75 41.375 43.109375 
Q 37.359375 48.484375 30.078125 48.484375 
Q 22.859375 48.484375 18.828125 43.109375 
Q 14.796875 37.75 14.796875 27.984375 
Q 14.796875 18.265625 18.828125 12.890625 
Q 22.859375 7.515625 30.078125 7.515625 
Q 37.359375 7.515625 41.375 12.890625 
Q 45.40625 18.265625 45.40625 27.984375 
z
M 54.390625 6.78125 
Q 54.390625 -7.171875 48.1875 -13.984375 
Q 42 -20.796875 29.203125 -20.796875 
Q 24.46875 -20.796875 20.265625 -20.09375 
Q 16.0625 -19.390625 12.109375 -17.921875 
L 12.109375 -9.1875 
Q 16.0625 -11.328125 19.921875 -12.34375 
Q 23.78125 -13.375 27.78125 -13.375 
Q 36.625 -13.375 41.015625 -8.765625 
Q 45.40625 -4.15625 45.40625 5.171875 
L 45.40625 9.625 
Q 42.625 4.78125 38.28125 2.390625 
Q 33.9375 0 27.875 0 
Q 17.828125 0 11.671875 7.65625 
Q 5.515625 15.328125 5.515625 27.984375 
Q 5.515625 40.671875 11.671875 48.328125 
Q 17.828125 56 27.875 56 
Q 33.9375 56 38.28125 53.609375 
Q 42.625 51.21875 45.40625 46.390625 
L 45.40625 54.6875 
L 54.390625 54.6875 
z
" id="DejaVuSans-67"/>
      <path d="M 41.109375 46.296875 
Q 39.59375 47.171875 37.8125 47.578125 
Q 36.03125 48 33.890625 48 
Q 26.265625 48 22.1875 43.046875 
Q 18.109375 38.09375 18.109375 28.8125 
L 18.109375 0 
L 9.078125 0 
L 9.078125 54.6875 
L 18.109375 54.6875 
L 18.109375 46.1875 
Q 20.953125 51.171875 25.484375 53.578125 
Q 30.03125 56 36.53125 56 
Q 37.453125 56 38.578125 55.875 
Q 39.703125 55.765625 41.0625 55.515625 
z
" id="DejaVuSans-72"/>
      <path d="M 11.71875 12.40625 
L 22.015625 12.40625 
L 22.015625 4 
L 14.015625 -11.625 
L 7.71875 -11.625 
L 11.71875 4 
z
" id="DejaVuSans-2c"/>
      <path d="M 18.3125 70.21875 
L 18.3125 54.6875 
L 36.8125 54.6875 
L 36.8125 47.703125 
L 18.3125 47.703125 
L 18.3125 18.015625 
Q 18.3125 11.328125 20.140625 9.421875 
Q 21.96875 7.515625 27.59375 7.515625 
L 36.8125 7.515625 
L 36.8125 0 
L 27.59375 0 
Q 17.1875 0 13.234375 3.875 
Q 9.28125 7.765625 9.28125 18.015625 
L 9.28125 47.703125 
L 2.6875 47.703125 
L 2.6875 54.6875 
L 9.28125 54.6875 
L 9.28125 70.21875 
z
" id="DejaVuSans-74"/>
      <path d="M 54.890625 33.015625 
L 54.890625 0 
L 45.90625 0 
L 45.90625 32.71875 
Q 45.90625 40.484375 42.875 44.328125 
Q 39.84375 48.1875 33.796875 48.1875 
Q 26.515625 48.1875 22.3125 43.546875 
Q 18.109375 38.921875 18.109375 30.90625 
L 18.109375 0 
L 9.078125 0 
L 9.078125 75.984375 
L 18.109375 75.984375 
L 18.109375 46.1875 
Q 21.34375 51.125 25.703125 53.5625 
Q 30.078125 56 35.796875 56 
Q 45.21875 56 50.046875 50.171875 
Q 54.890625 44.34375 54.890625 33.015625 
z
" id="DejaVuSans-68"/>
     </defs>
     <g transform="translate(507.552326 126.070653)scale(0.1 -0.1)">
      <use xlink:href="#DejaVuSans-6d"/>
      <use x="97.412109" xlink:href="#DejaVuSans-61"/>
      <use x="158.691406" xlink:href="#DejaVuSans-6e"/>
      <use x="222.070312" xlink:href="#DejaVuSans-20"/>
      <use x="253.857422" xlink:href="#DejaVuSans-53"/>
      <use x="317.333984" xlink:href="#DejaVuSans-6b"/>
      <use x="375.244141" xlink:href="#DejaVuSans-69"/>
      <use x="403.027344" xlink:href="#DejaVuSans-6c"/>
      <use x="430.810547" xlink:href="#DejaVuSans-6c"/>
      <use x="458.59375" xlink:href="#DejaVuSans-65"/>
      <use x="520.117188" xlink:href="#DejaVuSans-64"/>
      <use x="583.59375" xlink:href="#DejaVuSans-69"/>
      <use x="611.376953" xlink:href="#DejaVuSans-6e"/>
      <use x="674.755859" xlink:href="#DejaVuSans-67"/>
      <use x="738.232422" xlink:href="#DejaVuSans-72"/>
      <use x="779.345703" xlink:href="#DejaVuSans-61"/>
      <use x="840.625" xlink:href="#DejaVuSans-6d"/>
      <use x="938.037109" xlink:href="#DejaVuSans-6d"/>
      <use x="1035.449219" xlink:href="#DejaVuSans-61"/>
      <use x="1096.728516" xlink:href="#DejaVuSans-72"/>
      <use x="1137.841797" xlink:href="#DejaVuSans-20"/>
      <use x="1169.628906" xlink:href="#DejaVuSans-2c"/>
      <use x="1201.416016" xlink:href="#DejaVuSans-20"/>
      <use x="1233.203125" xlink:href="#DejaVuSans-74"/>
      <use x="1272.412109" xlink:href="#DejaVuSans-68"/>
      <use x="1335.791016" xlink:href="#DejaVuSans-65"/>
     </g>
    </g>
    <g clip-path="url(#pfd5dbaeced)">
     <!-- predicate is applicable also -->
     <defs>
      <path d="M 18.109375 8.203125 
L 18.109375 -20.796875 
L 9.078125 -20.796875 
L 9.078125 54.6875 
L 18.109375 54.6875 
L 18.109375 46.390625 
Q 20.953125 51.265625 25.265625 53.625 
Q 29.59375 56 35.59375 56 
Q 45.5625 56 51.78125 48.09375 
Q 58.015625 40.1875 58.015625 27.296875 
Q 58.015625 14.40625 51.78125 6.484375 
Q 45.5625 -1.421875 35.59375 -1.421875 
Q 29.59375 -1.421875 25.265625 0.953125 
Q 20.953125 3.328125 18.109375 8.203125 
z
M 48.6875 27.296875 
Q 48.6875 37.203125 44.609375 42.84375 
Q 40.53125 48.484375 33.40625 48.484375 
Q 26.265625 48.484375 22.1875 42.84375 
Q 18.109375 37.203125 18.109375 27.296875 
Q 18.109375 17.390625 22.1875 11.75 
Q 26.265625 6.109375 33.40625 6.109375 
Q 40.53125 6.109375 44.609375 11.75 
Q 48.6875 17.390625 48.6875 27.296875 
z
" id="DejaVuSans-70"/>
      <path d="M 44.28125 53.078125 
L 44.28125 44.578125 
Q 40.484375 46.53125 36.375 47.5 
Q 32.28125 48.484375 27.875 48.484375 
Q 21.1875 48.484375 17.84375 46.4375 
Q 14.5 44.390625 14.5 40.28125 
Q 14.5 37.15625 16.890625 35.375 
Q 19.28125 33.59375 26.515625 31.984375 
L 29.59375 31.296875 
Q 39.15625 29.25 43.1875 25.515625 
Q 47.21875 21.78125 47.21875 15.09375 
Q 47.21875 7.46875 41.1875 3.015625 
Q 35.15625 -1.421875 24.609375 -1.421875 
Q 20.21875 -1.421875 15.453125 -0.5625 
Q 10.6875 0.296875 5.421875 2 
L 5.421875 11.28125 
Q 10.40625 8.6875 15.234375 7.390625 
Q 20.0625 6.109375 24.8125 6.109375 
Q 31.15625 6.109375 34.5625 8.28125 
Q 37.984375 10.453125 37.984375 14.40625 
Q 37.984375 18.0625 35.515625 20.015625 
Q 33.0625 21.96875 24.703125 23.78125 
L 21.578125 24.515625 
Q 13.234375 26.265625 9.515625 29.90625 
Q 5.8125 33.546875 5.8125 39.890625 
Q 5.8125 47.609375 11.28125 51.796875 
Q 16.75 56 26.8125 56 
Q 31.78125 56 36.171875 55.265625 
Q 40.578125 54.546875 44.28125 53.078125 
z
" id="DejaVuSans-73"/>
      <path d="M 48.6875 27.296875 
Q 48.6875 37.203125 44.609375 42.84375 
Q 40.53125 48.484375 33.40625 48.484375 
Q 26.265625 48.484375 22.1875 42.84375 
Q 18.109375 37.203125 18.109375 27.296875 
Q 18.109375 17.390625 22.1875 11.75 
Q 26.265625 6.109375 33.40625 6.109375 
Q 40.53125 6.109375 44.609375 11.75 
Q 48.6875 17.390625 48.6875 27.296875 
z
M 18.109375 46.390625 
Q 20.953125 51.265625 25.265625 53.625 
Q 29.59375 56 35.59375 56 
Q 45.5625 56 51.78125 48.09375 
Q 58.015625 40.1875 58.015625 27.296875 
Q 58.015625 14.40625 51.78125 6.484375 
Q 45.5625 -1.421875 35.59375 -1.421875 
Q 29.59375 -1.421875 25.265625 0.953125 
Q 20.953125 3.328125 18.109375 8.203125 
L 18.109375 0 
L 9.078125 0 
L 9.078125 75.984375 
L 18.109375 75.984375 
z
" id="DejaVuSans-62"/>
      <path d="M 30.609375 48.390625 
Q 23.390625 48.390625 19.1875 42.75 
Q 14.984375 37.109375 14.984375 27.296875 
Q 14.984375 17.484375 19.15625 11.84375 
Q 23.34375 6.203125 30.609375 6.203125 
Q 37.796875 6.203125 41.984375 11.859375 
Q 46.1875 17.53125 46.1875 27.296875 
Q 46.1875 37.015625 41.984375 42.703125 
Q 37.796875 48.390625 30.609375 48.390625 
z
M 30.609375 56 
Q 42.328125 56 49.015625 48.375 
Q 55.71875 40.765625 55.71875 27.296875 
Q 55.71875 13.875 49.015625 6.21875 
Q 42.328125 -1.421875 30.609375 -1.421875 
Q 18.84375 -1.421875 12.171875 6.21875 
Q 5.515625 13.875 5.515625 27.296875 
Q 5.515625 40.765625 12.171875 48.375 
Q 18.84375 56 30.609375 56 
z
" id="DejaVuSans-6f"/>
     </defs>
     <g transform="translate(509.176545 137.268466)scale(0.1 -0.1)">
      <use xlink:href="#DejaVuSans-70"/>
      <use x="63.476562" xlink:href="#DejaVuSans-72"/>
      <use x="104.558594" xlink:href="#DejaVuSans-65"/>
      <use x="166.082031" xlink:href="#DejaVuSans-64"/>
      <use x="229.558594" xlink:href="#DejaVuSans-69"/>
      <use x="257.341797" xlink:href="#DejaVuSans-63"/>
      <use x="312.322266" xlink:href="#DejaVuSans-61"/>
      <use x="373.601562" xlink:href="#DejaVuSans-74"/>
      <use x="412.810547" xlink:href="#DejaVuSans-65"/>
      <use x="474.333984" xlink:href="#DejaVuSans-20"/>
      <use x="506.121094" xlink:href="#DejaVuSans-69"/>
      <use x="533.904297" xlink:href="#DejaVuSans-73"/>
      <use x="586.003906" xlink:href="#DejaVuSans-20"/>
      <use x="617.791016" xlink:href="#DejaVuSans-61"/>
      <use x="679.070312" xlink:href="#DejaVuSans-70"/>
      <use x="742.546875" xlink:href="#DejaVuSans-70"/>
      <use x="806.023438" xlink:href="#DejaVuSans-6c"/>
      <use x="833.806641" xlink:href="#DejaVuSans-69"/>
      <use x="861.589844" xlink:href="#DejaVuSans-63"/>
      <use x="916.570312" xlink:href="#DejaVuSans-61"/>
      <use x="977.849609" xlink:href="#DejaVuSans-62"/>
      <use x="1041.326172" xlink:href="#DejaVuSans-6c"/>
      <use x="1069.109375" xlink:href="#DejaVuSans-65"/>
      <use x="1130.632812" xlink:href="#DejaVuSans-20"/>
      <use x="1162.419922" xlink:href="#DejaVuSans-61"/>
      <use x="1223.699219" xlink:href="#DejaVuSans-6c"/>
      <use x="1251.482422" xlink:href="#DejaVuSans-73"/>
      <use x="1303.582031" xlink:href="#DejaVuSans-6f"/>
     </g>
    </g>
    <g clip-path="url(#pfd5dbaeced)">
     <!-- to the species and to the -->
     <g transform="translate(514.939045 148.466278)scale(0.1 -0.1)">
      <use xlink:href="#DejaVuSans-74"/>
      <use x="39.208984" xlink:href="#DejaVuSans-6f"/>
      <use x="100.390625" xlink:href="#DejaVuSans-20"/>
      <use x="132.177734" xlink:href="#DejaVuSans-74"/>
      <use x="171.386719" xlink:href="#DejaVuSans-68"/>
      <use x="234.765625" xlink:href="#DejaVuSans-65"/>
      <use x="296.289062" xlink:href="#DejaVuSans-20"/>
      <use x="328.076172" xlink:href="#DejaVuSans-73"/>
      <use x="380.175781" xlink:href="#DejaVuSans-70"/>
      <use x="443.652344" xlink:href="#DejaVuSans-65"/>
      <use x="505.175781" xlink:href="#DejaVuSans-63"/>
      <use x="560.15625" xlink:href="#DejaVuSans-69"/>
      <use x="587.939453" xlink:href="#DejaVuSans-65"/>
      <use x="649.462891" xlink:href="#DejaVuSans-73"/>
      <use x="701.5625" xlink:href="#DejaVuSans-20"/>
      <use x="733.349609" xlink:href="#DejaVuSans-61"/>
      <use x="794.628906" xlink:href="#DejaVuSans-6e"/>
      <use x="858.007812" xlink:href="#DejaVuSans-64"/>
      <use x="921.484375" xlink:href="#DejaVuSans-20"/>
      <use x="953.271484" xlink:href="#DejaVuSans-74"/>
      <use x="992.480469" xlink:href="#DejaVuSans-6f"/>
      <use x="1053.662109" xlink:href="#DejaVuSans-20"/>
      <use x="1085.449219" xlink:href="#DejaVuSans-74"/>
      <use x="1124.658203" xlink:href="#DejaVuSans-68"/>
      <use x="1188.037109" xlink:href="#DejaVuSans-65"/>
     </g>
    </g>
    <g clip-path="url(#pfd5dbaeced)">
     <!-- genus to which he belongs . -->
     <defs>
      <path d="M 10.6875 12.40625 
L 21 12.40625 
L 21 0 
L 10.6875 0 
z
" id="DejaVuSans-2e"/>
     </defs>
     <g transform="translate(507.212482 159.664091)scale(0.1 -0.1)">
      <use xlink:href="#DejaVuSans-67"/>
      <use x="63.476562" xlink:href="#DejaVuSans-65"/>
      <use x="125" xlink:href="#DejaVuSans-6e"/>
      <use x="188.378906" xlink:href="#DejaVuSans-75"/>
      <use x="251.757812" xlink:href="#DejaVuSans-73"/>
      <use x="303.857422" xlink:href="#DejaVuSans-20"/>
      <use x="335.644531" xlink:href="#DejaVuSans-74"/>
      <use x="374.853516" xlink:href="#DejaVuSans-6f"/>
      <use x="436.035156" xlink:href="#DejaVuSans-20"/>
      <use x="467.822266" xlink:href="#DejaVuSans-77"/>
      <use x="549.609375" xlink:href="#DejaVuSans-68"/>
      <use x="612.988281" xlink:href="#DejaVuSans-69"/>
      <use x="640.771484" xlink:href="#DejaVuSans-63"/>
      <use x="695.751953" xlink:href="#DejaVuSans-68"/>
      <use x="759.130859" xlink:href="#DejaVuSans-20"/>
      <use x="790.917969" xlink:href="#DejaVuSans-68"/>
      <use x="854.296875" xlink:href="#DejaVuSans-65"/>
      <use x="915.820312" xlink:href="#DejaVuSans-20"/>
      <use x="947.607422" xlink:href="#DejaVuSans-62"/>
      <use x="1011.083984" xlink:href="#DejaVuSans-65"/>
      <use x="1072.607422" xlink:href="#DejaVuSans-6c"/>
      <use x="1100.390625" xlink:href="#DejaVuSans-6f"/>
      <use x="1161.572266" xlink:href="#DejaVuSans-6e"/>
      <use x="1224.951172" xlink:href="#DejaVuSans-67"/>
      <use x="1288.427734" xlink:href="#DejaVuSans-73"/>
      <use x="1340.527344" xlink:href="#DejaVuSans-20"/>
      <use x="1372.314453" xlink:href="#DejaVuSans-2e"/>
     </g>
    </g>
   </g>
   <g id="text_2">
    <g clip-path="url(#pfd5dbaeced)">
     <!-- 398  the predicate is -->
     <defs>
      <path d="M 40.578125 39.3125 
Q 47.65625 37.796875 51.625 33 
Q 55.609375 28.21875 55.609375 21.1875 
Q 55.609375 10.40625 48.1875 4.484375 
Q 40.765625 -1.421875 27.09375 -1.421875 
Q 22.515625 -1.421875 17.65625 -0.515625 
Q 12.796875 0.390625 7.625 2.203125 
L 7.625 11.71875 
Q 11.71875 9.328125 16.59375 8.109375 
Q 21.484375 6.890625 26.8125 6.890625 
Q 36.078125 6.890625 40.9375 10.546875 
Q 45.796875 14.203125 45.796875 21.1875 
Q 45.796875 27.640625 41.28125 31.265625 
Q 36.765625 34.90625 28.71875 34.90625 
L 20.21875 34.90625 
L 20.21875 43.015625 
L 29.109375 43.015625 
Q 36.375 43.015625 40.234375 45.921875 
Q 44.09375 48.828125 44.09375 54.296875 
Q 44.09375 59.90625 40.109375 62.90625 
Q 36.140625 65.921875 28.71875 65.921875 
Q 24.65625 65.921875 20.015625 65.03125 
Q 15.375 64.15625 9.8125 62.3125 
L 9.8125 71.09375 
Q 15.4375 72.65625 20.34375 73.4375 
Q 25.25 74.21875 29.59375 74.21875 
Q 40.828125 74.21875 47.359375 69.109375 
Q 53.90625 64.015625 53.90625 55.328125 
Q 53.90625 49.265625 50.4375 45.09375 
Q 46.96875 40.921875 40.578125 39.3125 
z
" id="DejaVuSans-33"/>
      <path d="M 10.984375 1.515625 
L 10.984375 10.5 
Q 14.703125 8.734375 18.5 7.8125 
Q 22.3125 6.890625 25.984375 6.890625 
Q 35.75 6.890625 40.890625 13.453125 
Q 46.046875 20.015625 46.78125 33.40625 
Q 43.953125 29.203125 39.59375 26.953125 
Q 35.25 24.703125 29.984375 24.703125 
Q 19.046875 24.703125 12.671875 31.3125 
Q 6.296875 37.9375 6.296875 49.421875 
Q 6.296875 60.640625 12.9375 67.421875 
Q 19.578125 74.21875 30.609375 74.21875 
Q 43.265625 74.21875 49.921875 64.515625 
Q 56.59375 54.828125 56.59375 36.375 
Q 56.59375 19.140625 48.40625 8.859375 
Q 40.234375 -1.421875 26.421875 -1.421875 
Q 22.703125 -1.421875 18.890625 -0.6875 
Q 15.09375 0.046875 10.984375 1.515625 
z
M 30.609375 32.421875 
Q 37.25 32.421875 41.125 36.953125 
Q 45.015625 41.5 45.015625 49.421875 
Q 45.015625 57.28125 41.125 61.84375 
Q 37.25 66.40625 30.609375 66.40625 
Q 23.96875 66.40625 20.09375 61.84375 
Q 16.21875 57.28125 16.21875 49.421875 
Q 16.21875 41.5 20.09375 36.953125 
Q 23.96875 32.421875 30.609375 32.421875 
z
" id="DejaVuSans-39"/>
      <path d="M 31.78125 34.625 
Q 24.75 34.625 20.71875 30.859375 
Q 16.703125 27.09375 16.703125 20.515625 
Q 16.703125 13.921875 20.71875 10.15625 
Q 24.75 6.390625 31.78125 6.390625 
Q 38.8125 6.390625 42.859375 10.171875 
Q 46.921875 13.96875 46.921875 20.515625 
Q 46.921875 27.09375 42.890625 30.859375 
Q 38.875 34.625 31.78125 34.625 
z
M 21.921875 38.8125 
Q 15.578125 40.375 12.03125 44.71875 
Q 8.5 49.078125 8.5 55.328125 
Q 8.5 64.0625 14.71875 69.140625 
Q 20.953125 74.21875 31.78125 74.21875 
Q 42.671875 74.21875 48.875 69.140625 
Q 55.078125 64.0625 55.078125 55.328125 
Q 55.078125 49.078125 51.53125 44.71875 
Q 48 40.375 41.703125 38.8125 
Q 48.828125 37.15625 52.796875 32.3125 
Q 56.78125 27.484375 56.78125 20.515625 
Q 56.78125 9.90625 50.3125 4.234375 
Q 43.84375 -1.421875 31.78125 -1.421875 
Q 19.734375 -1.421875 13.25 4.234375 
Q 6.78125 9.90625 6.78125 20.515625 
Q 6.78125 27.484375 10.78125 32.3125 
Q 14.796875 37.15625 21.921875 38.8125 
z
M 18.3125 54.390625 
Q 18.3125 48.734375 21.84375 45.5625 
Q 25.390625 42.390625 31.78125 42.390625 
Q 38.140625 42.390625 41.71875 45.5625 
Q 45.3125 48.734375 45.3125 54.390625 
Q 45.3125 60.0625 41.71875 63.234375 
Q 38.140625 66.40625 31.78125 66.40625 
Q 25.390625 66.40625 21.84375 63.234375 
Q 18.3125 60.0625 18.3125 54.390625 
z
" id="DejaVuSans-38"/>
     </defs>
     <g transform="translate(155.815044 360.760469)scale(0.1 -0.1)">
      <use xlink:href="#DejaVuSans-33"/>
      <use x="63.623047" xlink:href="#DejaVuSans-39"/>
      <use x="127.246094" xlink:href="#DejaVuSans-38"/>
      <use x="190.869141" xlink:href="#DejaVuSans-20"/>
      <use x="222.65625" xlink:href="#DejaVuSans-20"/>
      <use x="254.443359" xlink:href="#DejaVuSans-74"/>
      <use x="293.652344" xlink:href="#DejaVuSans-68"/>
      <use x="357.03125" xlink:href="#DejaVuSans-65"/>
      <use x="418.554688" xlink:href="#DejaVuSans-20"/>
      <use x="450.341797" xlink:href="#DejaVuSans-70"/>
      <use x="513.818359" xlink:href="#DejaVuSans-72"/>
      <use x="554.900391" xlink:href="#DejaVuSans-65"/>
      <use x="616.423828" xlink:href="#DejaVuSans-64"/>
      <use x="679.900391" xlink:href="#DejaVuSans-69"/>
      <use x="707.683594" xlink:href="#DejaVuSans-63"/>
      <use x="762.664062" xlink:href="#DejaVuSans-61"/>
      <use x="823.943359" xlink:href="#DejaVuSans-74"/>
      <use x="863.152344" xlink:href="#DejaVuSans-65"/>
      <use x="924.675781" xlink:href="#DejaVuSans-20"/>
      <use x="956.462891" xlink:href="#DejaVuSans-69"/>
      <use x="984.246094" xlink:href="#DejaVuSans-73"/>
     </g>
    </g>
    <g clip-path="url(#pfd5dbaeced)">
     <!-- applicable also to the species -->
     <g transform="translate(133.615044 371.958281)scale(0.1 -0.1)">
      <use xlink:href="#DejaVuSans-61"/>
      <use x="61.279297" xlink:href="#DejaVuSans-70"/>
      <use x="124.755859" xlink:href="#DejaVuSans-70"/>
      <use x="188.232422" xlink:href="#DejaVuSans-6c"/>
      <use x="216.015625" xlink:href="#DejaVuSans-69"/>
      <use x="243.798828" xlink:href="#DejaVuSans-63"/>
      <use x="298.779297" xlink:href="#DejaVuSans-61"/>
      <use x="360.058594" xlink:href="#DejaVuSans-62"/>
      <use x="423.535156" xlink:href="#DejaVuSans-6c"/>
      <use x="451.318359" xlink:href="#DejaVuSans-65"/>
      <use x="512.841797" xlink:href="#DejaVuSans-20"/>
      <use x="544.628906" xlink:href="#DejaVuSans-61"/>
      <use x="605.908203" xlink:href="#DejaVuSans-6c"/>
      <use x="633.691406" xlink:href="#DejaVuSans-73"/>
      <use x="685.791016" xlink:href="#DejaVuSans-6f"/>
      <use x="746.972656" xlink:href="#DejaVuSans-20"/>
      <use x="778.759766" xlink:href="#DejaVuSans-74"/>
      <use x="817.96875" xlink:href="#DejaVuSans-6f"/>
      <use x="879.150391" xlink:href="#DejaVuSans-20"/>
      <use x="910.9375" xlink:href="#DejaVuSans-74"/>
      <use x="950.146484" xlink:href="#DejaVuSans-68"/>
      <use x="1013.525391" xlink:href="#DejaVuSans-65"/>
      <use x="1075.048828" xlink:href="#DejaVuSans-20"/>
      <use x="1106.835938" xlink:href="#DejaVuSans-73"/>
      <use x="1158.935547" xlink:href="#DejaVuSans-70"/>
      <use x="1222.412109" xlink:href="#DejaVuSans-65"/>
      <use x="1283.935547" xlink:href="#DejaVuSans-63"/>
      <use x="1338.916016" xlink:href="#DejaVuSans-69"/>
      <use x="1366.699219" xlink:href="#DejaVuSans-65"/>
      <use x="1428.222656" xlink:href="#DejaVuSans-73"/>
     </g>
    </g>
   </g>
   <g id="text_3">
    <g clip-path="url(#pfd5dbaeced)">
     <!-- 397  If we call an individual -->
     <defs>
      <path d="M 8.203125 72.90625 
L 55.078125 72.90625 
L 55.078125 68.703125 
L 28.609375 0 
L 18.3125 0 
L 43.21875 64.59375 
L 8.203125 64.59375 
z
" id="DejaVuSans-37"/>
     </defs>
     <g transform="translate(508.847638 360.760469)scale(0.1 -0.1)">
      <use xlink:href="#DejaVuSans-33"/>
      <use x="63.623047" xlink:href="#DejaVuSans-39"/>
      <use x="127.246094" xlink:href="#DejaVuSans-37"/>
      <use x="190.869141" xlink:href="#DejaVuSans-20"/>
      <use x="222.65625" xlink:href="#DejaVuSans-20"/>
      <use x="254.443359" xlink:href="#DejaVuSans-49"/>
      <use x="283.935547" xlink:href="#DejaVuSans-66"/>
      <use x="319.140625" xlink:href="#DejaVuSans-20"/>
      <use x="350.927734" xlink:href="#DejaVuSans-77"/>
      <use x="432.714844" xlink:href="#DejaVuSans-65"/>
      <use x="494.238281" xlink:href="#DejaVuSans-20"/>
      <use x="526.025391" xlink:href="#DejaVuSans-63"/>
      <use x="581.005859" xlink:href="#DejaVuSans-61"/>
      <use x="642.285156" xlink:href="#DejaVuSans-6c"/>
      <use x="670.068359" xlink:href="#DejaVuSans-6c"/>
      <use x="697.851562" xlink:href="#DejaVuSans-20"/>
      <use x="729.638672" xlink:href="#DejaVuSans-61"/>
      <use x="790.917969" xlink:href="#DejaVuSans-6e"/>
      <use x="854.296875" xlink:href="#DejaVuSans-20"/>
      <use x="886.083984" xlink:href="#DejaVuSans-69"/>
      <use x="913.867188" xlink:href="#DejaVuSans-6e"/>
      <use x="977.246094" xlink:href="#DejaVuSans-64"/>
      <use x="1040.722656" xlink:href="#DejaVuSans-69"/>
      <use x="1068.505859" xlink:href="#DejaVuSans-76"/>
      <use x="1127.685547" xlink:href="#DejaVuSans-69"/>
      <use x="1155.46875" xlink:href="#DejaVuSans-64"/>
      <use x="1218.945312" xlink:href="#DejaVuSans-75"/>
      <use x="1282.324219" xlink:href="#DejaVuSans-61"/>
      <use x="1343.603516" xlink:href="#DejaVuSans-6c"/>
     </g>
    </g>
    <g clip-path="url(#pfd5dbaeced)">
     <!-- man Skilledingrammar -->
     <g transform="translate(520.524982 371.958281)scale(0.1 -0.1)">
      <use xlink:href="#DejaVuSans-6d"/>
      <use x="97.412109" xlink:href="#DejaVuSans-61"/>
      <use x="158.691406" xlink:href="#DejaVuSans-6e"/>
      <use x="222.070312" xlink:href="#DejaVuSans-20"/>
      <use x="253.857422" xlink:href="#DejaVuSans-53"/>
      <use x="317.333984" xlink:href="#DejaVuSans-6b"/>
      <use x="375.244141" xlink:href="#DejaVuSans-69"/>
      <use x="403.027344" xlink:href="#DejaVuSans-6c"/>
      <use x="430.810547" xlink:href="#DejaVuSans-6c"/>
      <use x="458.59375" xlink:href="#DejaVuSans-65"/>
      <use x="520.117188" xlink:href="#DejaVuSans-64"/>
      <use x="583.59375" xlink:href="#DejaVuSans-69"/>
      <use x="611.376953" xlink:href="#DejaVuSans-6e"/>
      <use x="674.755859" xlink:href="#DejaVuSans-67"/>
      <use x="738.232422" xlink:href="#DejaVuSans-72"/>
      <use x="779.345703" xlink:href="#DejaVuSans-61"/>
      <use x="840.625" xlink:href="#DejaVuSans-6d"/>
      <use x="938.037109" xlink:href="#DejaVuSans-6d"/>
      <use x="1035.449219" xlink:href="#DejaVuSans-61"/>
      <use x="1096.728516" xlink:href="#DejaVuSans-72"/>
     </g>
    </g>
   </g>
   <g id="text_4">
    <g clip-path="url(#pfd5dbaeced)">
     <!-- 396  the genus to which he -->
     <defs>
      <path d="M 33.015625 40.375 
Q 26.375 40.375 22.484375 35.828125 
Q 18.609375 31.296875 18.609375 23.390625 
Q 18.609375 15.53125 22.484375 10.953125 
Q 26.375 6.390625 33.015625 6.390625 
Q 39.65625 6.390625 43.53125 10.953125 
Q 47.40625 15.53125 47.40625 23.390625 
Q 47.40625 31.296875 43.53125 35.828125 
Q 39.65625 40.375 33.015625 40.375 
z
M 52.59375 71.296875 
L 52.59375 62.3125 
Q 48.875 64.0625 45.09375 64.984375 
Q 41.3125 65.921875 37.59375 65.921875 
Q 27.828125 65.921875 22.671875 59.328125 
Q 17.53125 52.734375 16.796875 39.40625 
Q 19.671875 43.65625 24.015625 45.921875 
Q 28.375 48.1875 33.59375 48.1875 
Q 44.578125 48.1875 50.953125 41.515625 
Q 57.328125 34.859375 57.328125 23.390625 
Q 57.328125 12.15625 50.6875 5.359375 
Q 44.046875 -1.421875 33.015625 -1.421875 
Q 20.359375 -1.421875 13.671875 8.265625 
Q 6.984375 17.96875 6.984375 36.375 
Q 6.984375 53.65625 15.1875 63.9375 
Q 23.390625 74.21875 37.203125 74.21875 
Q 40.921875 74.21875 44.703125 73.484375 
Q 48.484375 72.75 52.59375 71.296875 
z
" id="DejaVuSans-36"/>
     </defs>
     <g transform="translate(831.061519 360.760469)scale(0.1 -0.1)">
      <use xlink:href="#DejaVuSans-33"/>
      <use x="63.623047" xlink:href="#DejaVuSans-39"/>
      <use x="127.246094" xlink:href="#DejaVuSans-36"/>
      <use x="190.869141" xlink:href="#DejaVuSans-20"/>
      <use x="222.65625" xlink:href="#DejaVuSans-20"/>
      <use x="254.443359" xlink:href="#DejaVuSans-74"/>
      <use x="293.652344" xlink:href="#DejaVuSans-68"/>
      <use x="357.03125" xlink:href="#DejaVuSans-65"/>
      <use x="418.554688" xlink:href="#DejaVuSans-20"/>
      <use x="450.341797" xlink:href="#DejaVuSans-67"/>
      <use x="513.818359" xlink:href="#DejaVuSans-65"/>
      <use x="575.341797" xlink:href="#DejaVuSans-6e"/>
      <use x="638.720703" xlink:href="#DejaVuSans-75"/>
      <use x="702.099609" xlink:href="#DejaVuSans-73"/>
      <use x="754.199219" xlink:href="#DejaVuSans-20"/>
      <use x="785.986328" xlink:href="#DejaVuSans-74"/>
      <use x="825.195312" xlink:href="#DejaVuSans-6f"/>
      <use x="886.376953" xlink:href="#DejaVuSans-20"/>
      <use x="918.164062" xlink:href="#DejaVuSans-77"/>
      <use x="999.951172" xlink:href="#DejaVuSans-68"/>
      <use x="1063.330078" xlink:href="#DejaVuSans-69"/>
      <use x="1091.113281" xlink:href="#DejaVuSans-63"/>
      <use x="1146.09375" xlink:href="#DejaVuSans-68"/>
      <use x="1209.472656" xlink:href="#DejaVuSans-20"/>
      <use x="1241.259766" xlink:href="#DejaVuSans-68"/>
      <use x="1304.638672" xlink:href="#DejaVuSans-65"/>
     </g>
    </g>
    <g clip-path="url(#pfd5dbaeced)">
     <!-- belongs -->
     <g transform="translate(879.720894 371.958281)scale(0.1 -0.1)">
      <use xlink:href="#DejaVuSans-62"/>
      <use x="63.476562" xlink:href="#DejaVuSans-65"/>
      <use x="125" xlink:href="#DejaVuSans-6c"/>
      <use x="152.783203" xlink:href="#DejaVuSans-6f"/>
      <use x="213.964844" xlink:href="#DejaVuSans-6e"/>
      <use x="277.34375" xlink:href="#DejaVuSans-67"/>
      <use x="340.820312" xlink:href="#DejaVuSans-73"/>
     </g>
    </g>
   </g>
   <g id="text_5">
    <g clip-path="url(#pfd5dbaeced)">
     <!-- 399  to which he belongs -->
     <g transform="translate(836.402144 595.450284)scale(0.1 -0.1)">
      <use xlink:href="#DejaVuSans-33"/>
      <use x="63.623047" xlink:href="#DejaVuSans-39"/>
      <use x="127.246094" xlink:href="#DejaVuSans-39"/>
      <use x="190.869141" xlink:href="#DejaVuSans-20"/>
      <use x="222.65625" xlink:href="#DejaVuSans-20"/>
      <use x="254.443359" xlink:href="#DejaVuSans-74"/>
      <use x="293.652344" xlink:href="#DejaVuSans-6f"/>
      <use x="354.833984" xlink:href="#DejaVuSans-20"/>
      <use x="386.621094" xlink:href="#DejaVuSans-77"/>
      <use x="468.408203" xlink:href="#DejaVuSans-68"/>
      <use x="531.787109" xlink:href="#DejaVuSans-69"/>
      <use x="559.570312" xlink:href="#DejaVuSans-63"/>
      <use x="614.550781" xlink:href="#DejaVuSans-68"/>
      <use x="677.929688" xlink:href="#DejaVuSans-20"/>
      <use x="709.716797" xlink:href="#DejaVuSans-68"/>
      <use x="773.095703" xlink:href="#DejaVuSans-65"/>
      <use x="834.619141" xlink:href="#DejaVuSans-20"/>
      <use x="866.40625" xlink:href="#DejaVuSans-62"/>
      <use x="929.882812" xlink:href="#DejaVuSans-65"/>
      <use x="991.40625" xlink:href="#DejaVuSans-6c"/>
      <use x="1019.189453" xlink:href="#DejaVuSans-6f"/>
      <use x="1080.371094" xlink:href="#DejaVuSans-6e"/>
      <use x="1143.75" xlink:href="#DejaVuSans-67"/>
      <use x="1207.226562" xlink:href="#DejaVuSans-73"/>
     </g>
    </g>
   </g>
   <g id="text_6">
    <g clip-path="url(#pfd5dbaeced)">
     <!-- 395  an individual man -->
     <defs>
      <path d="M 10.796875 72.90625 
L 49.515625 72.90625 
L 49.515625 64.59375 
L 19.828125 64.59375 
L 19.828125 46.734375 
Q 21.96875 47.46875 24.109375 47.828125 
Q 26.265625 48.1875 28.421875 48.1875 
Q 40.625 48.1875 47.75 41.5 
Q 54.890625 34.8125 54.890625 23.390625 
Q 54.890625 11.625 47.5625 5.09375 
Q 40.234375 -1.421875 26.90625 -1.421875 
Q 22.3125 -1.421875 17.546875 -0.640625 
Q 12.796875 0.140625 7.71875 1.703125 
L 7.71875 11.625 
Q 12.109375 9.234375 16.796875 8.0625 
Q 21.484375 6.890625 26.703125 6.890625 
Q 35.15625 6.890625 40.078125 11.328125 
Q 45.015625 15.765625 45.015625 23.390625 
Q 45.015625 31 40.078125 35.4375 
Q 35.15625 39.890625 26.703125 39.890625 
Q 22.75 39.890625 18.8125 39.015625 
Q 14.890625 38.140625 10.796875 36.28125 
z
" id="DejaVuSans-35"/>
     </defs>
     <g transform="translate(519.914826 589.851378)scale(0.1 -0.1)">
      <use xlink:href="#DejaVuSans-33"/>
      <use x="63.623047" xlink:href="#DejaVuSans-39"/>
      <use x="127.246094" xlink:href="#DejaVuSans-35"/>
      <use x="190.869141" xlink:href="#DejaVuSans-20"/>
      <use x="222.65625" xlink:href="#DejaVuSans-20"/>
      <use x="254.443359" xlink:href="#DejaVuSans-61"/>
      <use x="315.722656" xlink:href="#DejaVuSans-6e"/>
      <use x="379.101562" xlink:href="#DejaVuSans-20"/>
      <use x="410.888672" xlink:href="#DejaVuSans-69"/>
      <use x="438.671875" xlink:href="#DejaVuSans-6e"/>
      <use x="502.050781" xlink:href="#DejaVuSans-64"/>
      <use x="565.527344" xlink:href="#DejaVuSans-69"/>
      <use x="593.310547" xlink:href="#DejaVuSans-76"/>
      <use x="652.490234" xlink:href="#DejaVuSans-69"/>
      <use x="680.273438" xlink:href="#DejaVuSans-64"/>
      <use x="743.75" xlink:href="#DejaVuSans-75"/>
      <use x="807.128906" xlink:href="#DejaVuSans-61"/>
      <use x="868.408203" xlink:href="#DejaVuSans-6c"/>
      <use x="896.191406" xlink:href="#DejaVuSans-20"/>
      <use x="927.978516" xlink:href="#DejaVuSans-6d"/>
      <use x="1025.390625" xlink:href="#DejaVuSans-61"/>
      <use x="1086.669922" xlink:href="#DejaVuSans-6e"/>
     </g>
    </g>
    <g clip-path="url(#pfd5dbaeced)">
     <!-- Skilledingrammar -->
     <g transform="translate(533.21717 601.04919)scale(0.1 -0.1)">
      <use xlink:href="#DejaVuSans-53"/>
      <use x="63.476562" xlink:href="#DejaVuSans-6b"/>
      <use x="121.386719" xlink:href="#DejaVuSans-69"/>
      <use x="149.169922" xlink:href="#DejaVuSans-6c"/>
      <use x="176.953125" xlink:href="#DejaVuSans-6c"/>
      <use x="204.736328" xlink:href="#DejaVuSans-65"/>
      <use x="266.259766" xlink:href="#DejaVuSans-64"/>
      <use x="329.736328" xlink:href="#DejaVuSans-69"/>
      <use x="357.519531" xlink:href="#DejaVuSans-6e"/>
      <use x="420.898438" xlink:href="#DejaVuSans-67"/>
      <use x="484.375" xlink:href="#DejaVuSans-72"/>
      <use x="525.488281" xlink:href="#DejaVuSans-61"/>
      <use x="586.767578" xlink:href="#DejaVuSans-6d"/>
      <use x="684.179688" xlink:href="#DejaVuSans-6d"/>
      <use x="781.591797" xlink:href="#DejaVuSans-61"/>
      <use x="842.871094" xlink:href="#DejaVuSans-72"/>
     </g>
    </g>
   </g>
   <g id="text_7">
    <!-- If we call an individual man Skilledingrammar , the predicate is applicable also to the -->
    <g transform="translate(297.261563 12.6505)scale(0.12 -0.12)">
     <use xlink:href="#DejaVuSans-49"/>
     <use x="29.492188" xlink:href="#DejaVuSans-66"/>
     <use x="64.697266" xlink:href="#DejaVuSans-20"/>
     <use x="96.484375" xlink:href="#DejaVuSans-77"/>
     <use x="178.271484" xlink:href="#DejaVuSans-65"/>
     <use x="239.794922" xlink:href="#DejaVuSans-20"/>
     <use x="271.582031" xlink:href="#DejaVuSans-63"/>
     <use x="326.5625" xlink:href="#DejaVuSans-61"/>
     <use x="387.841797" xlink:href="#DejaVuSans-6c"/>
     <use x="415.625" xlink:href="#DejaVuSans-6c"/>
     <use x="443.408203" xlink:href="#DejaVuSans-20"/>
     <use x="475.195312" xlink:href="#DejaVuSans-61"/>
     <use x="536.474609" xlink:href="#DejaVuSans-6e"/>
     <use x="599.853516" xlink:href="#DejaVuSans-20"/>
     <use x="631.640625" xlink:href="#DejaVuSans-69"/>
     <use x="659.423828" xlink:href="#DejaVuSans-6e"/>
     <use x="722.802734" xlink:href="#DejaVuSans-64"/>
     <use x="786.279297" xlink:href="#DejaVuSans-69"/>
     <use x="814.0625" xlink:href="#DejaVuSans-76"/>
     <use x="873.242188" xlink:href="#DejaVuSans-69"/>
     <use x="901.025391" xlink:href="#DejaVuSans-64"/>
     <use x="964.501953" xlink:href="#DejaVuSans-75"/>
     <use x="1027.880859" xlink:href="#DejaVuSans-61"/>
     <use x="1089.160156" xlink:href="#DejaVuSans-6c"/>
     <use x="1116.943359" xlink:href="#DejaVuSans-20"/>
     <use x="1148.730469" xlink:href="#DejaVuSans-6d"/>
     <use x="1246.142578" xlink:href="#DejaVuSans-61"/>
     <use x="1307.421875" xlink:href="#DejaVuSans-6e"/>
     <use x="1370.800781" xlink:href="#DejaVuSans-20"/>
     <use x="1402.587891" xlink:href="#DejaVuSans-53"/>
     <use x="1466.064453" xlink:href="#DejaVuSans-6b"/>
     <use x="1523.974609" xlink:href="#DejaVuSans-69"/>
     <use x="1551.757812" xlink:href="#DejaVuSans-6c"/>
     <use x="1579.541016" xlink:href="#DejaVuSans-6c"/>
     <use x="1607.324219" xlink:href="#DejaVuSans-65"/>
     <use x="1668.847656" xlink:href="#DejaVuSans-64"/>
     <use x="1732.324219" xlink:href="#DejaVuSans-69"/>
     <use x="1760.107422" xlink:href="#DejaVuSans-6e"/>
     <use x="1823.486328" xlink:href="#DejaVuSans-67"/>
     <use x="1886.962891" xlink:href="#DejaVuSans-72"/>
     <use x="1928.076172" xlink:href="#DejaVuSans-61"/>
     <use x="1989.355469" xlink:href="#DejaVuSans-6d"/>
     <use x="2086.767578" xlink:href="#DejaVuSans-6d"/>
     <use x="2184.179688" xlink:href="#DejaVuSans-61"/>
     <use x="2245.458984" xlink:href="#DejaVuSans-72"/>
     <use x="2286.572266" xlink:href="#DejaVuSans-20"/>
     <use x="2318.359375" xlink:href="#DejaVuSans-2c"/>
     <use x="2350.146484" xlink:href="#DejaVuSans-20"/>
     <use x="2381.933594" xlink:href="#DejaVuSans-74"/>
     <use x="2421.142578" xlink:href="#DejaVuSans-68"/>
     <use x="2484.521484" xlink:href="#DejaVuSans-65"/>
     <use x="2546.044922" xlink:href="#DejaVuSans-20"/>
     <use x="2577.832031" xlink:href="#DejaVuSans-70"/>
     <use x="2641.308594" xlink:href="#DejaVuSans-72"/>
     <use x="2682.390625" xlink:href="#DejaVuSans-65"/>
     <use x="2743.914062" xlink:href="#DejaVuSans-64"/>
     <use x="2807.390625" xlink:href="#DejaVuSans-69"/>
     <use x="2835.173828" xlink:href="#DejaVuSans-63"/>
     <use x="2890.154297" xlink:href="#DejaVuSans-61"/>
     <use x="2951.433594" xlink:href="#DejaVuSans-74"/>
     <use x="2990.642578" xlink:href="#DejaVuSans-65"/>
     <use x="3052.166016" xlink:href="#DejaVuSans-20"/>
     <use x="3083.953125" xlink:href="#DejaVuSans-69"/>
     <use x="3111.736328" xlink:href="#DejaVuSans-73"/>
     <use x="3163.835938" xlink:href="#DejaVuSans-20"/>
     <use x="3195.623047" xlink:href="#DejaVuSans-61"/>
     <use x="3256.902344" xlink:href="#DejaVuSans-70"/>
     <use x="3320.378906" xlink:href="#DejaVuSans-70"/>
     <use x="3383.855469" xlink:href="#DejaVuSans-6c"/>
     <use x="3411.638672" xlink:href="#DejaVuSans-69"/>
     <use x="3439.421875" xlink:href="#DejaVuSans-63"/>
     <use x="3494.402344" xlink:href="#DejaVuSans-61"/>
     <use x="3555.681641" xlink:href="#DejaVuSans-62"/>
     <use x="3619.158203" xlink:href="#DejaVuSans-6c"/>
     <use x="3646.941406" xlink:href="#DejaVuSans-65"/>
     <use x="3708.464844" xlink:href="#DejaVuSans-20"/>
     <use x="3740.251953" xlink:href="#DejaVuSans-61"/>
     <use x="3801.53125" xlink:href="#DejaVuSans-6c"/>
     <use x="3829.314453" xlink:href="#DejaVuSans-73"/>
     <use x="3881.414062" xlink:href="#DejaVuSans-6f"/>
     <use x="3942.595703" xlink:href="#DejaVuSans-20"/>
     <use x="3974.382812" xlink:href="#DejaVuSans-74"/>
     <use x="4013.591797" xlink:href="#DejaVuSans-6f"/>
     <use x="4074.773438" xlink:href="#DejaVuSans-20"/>
     <use x="4106.560547" xlink:href="#DejaVuSans-74"/>
     <use x="4145.769531" xlink:href="#DejaVuSans-68"/>
     <use x="4209.148438" xlink:href="#DejaVuSans-65"/>
    </g>
    <!-- species and to the genus to which he belongs . -->
    <g transform="translate(412.059375 26.087875)scale(0.12 -0.12)">
     <use xlink:href="#DejaVuSans-73"/>
     <use x="52.099609" xlink:href="#DejaVuSans-70"/>
     <use x="115.576172" xlink:href="#DejaVuSans-65"/>
     <use x="177.099609" xlink:href="#DejaVuSans-63"/>
     <use x="232.080078" xlink:href="#DejaVuSans-69"/>
     <use x="259.863281" xlink:href="#DejaVuSans-65"/>
     <use x="321.386719" xlink:href="#DejaVuSans-73"/>
     <use x="373.486328" xlink:href="#DejaVuSans-20"/>
     <use x="405.273438" xlink:href="#DejaVuSans-61"/>
     <use x="466.552734" xlink:href="#DejaVuSans-6e"/>
     <use x="529.931641" xlink:href="#DejaVuSans-64"/>
     <use x="593.408203" xlink:href="#DejaVuSans-20"/>
     <use x="625.195312" xlink:href="#DejaVuSans-74"/>
     <use x="664.404297" xlink:href="#DejaVuSans-6f"/>
     <use x="725.585938" xlink:href="#DejaVuSans-20"/>
     <use x="757.373047" xlink:href="#DejaVuSans-74"/>
     <use x="796.582031" xlink:href="#DejaVuSans-68"/>
     <use x="859.960938" xlink:href="#DejaVuSans-65"/>
     <use x="921.484375" xlink:href="#DejaVuSans-20"/>
     <use x="953.271484" xlink:href="#DejaVuSans-67"/>
     <use x="1016.748047" xlink:href="#DejaVuSans-65"/>
     <use x="1078.271484" xlink:href="#DejaVuSans-6e"/>
     <use x="1141.650391" xlink:href="#DejaVuSans-75"/>
     <use x="1205.029297" xlink:href="#DejaVuSans-73"/>
     <use x="1257.128906" xlink:href="#DejaVuSans-20"/>
     <use x="1288.916016" xlink:href="#DejaVuSans-74"/>
     <use x="1328.125" xlink:href="#DejaVuSans-6f"/>
     <use x="1389.306641" xlink:href="#DejaVuSans-20"/>
     <use x="1421.09375" xlink:href="#DejaVuSans-77"/>
     <use x="1502.880859" xlink:href="#DejaVuSans-68"/>
     <use x="1566.259766" xlink:href="#DejaVuSans-69"/>
     <use x="1594.042969" xlink:href="#DejaVuSans-63"/>
     <use x="1649.023438" xlink:href="#DejaVuSans-68"/>
     <use x="1712.402344" xlink:href="#DejaVuSans-20"/>
     <use x="1744.189453" xlink:href="#DejaVuSans-68"/>
     <use x="1807.568359" xlink:href="#DejaVuSans-65"/>
     <use x="1869.091797" xlink:href="#DejaVuSans-20"/>
     <use x="1900.878906" xlink:href="#DejaVuSans-62"/>
     <use x="1964.355469" xlink:href="#DejaVuSans-65"/>
     <use x="2025.878906" xlink:href="#DejaVuSans-6c"/>
     <use x="2053.662109" xlink:href="#DejaVuSans-6f"/>
     <use x="2114.84375" xlink:href="#DejaVuSans-6e"/>
     <use x="2178.222656" xlink:href="#DejaVuSans-67"/>
     <use x="2241.699219" xlink:href="#DejaVuSans-73"/>
     <use x="2293.798828" xlink:href="#DejaVuSans-20"/>
     <use x="2325.585938" xlink:href="#DejaVuSans-2e"/>
    </g>
    <!-- 399  395  396  397  398  400 -->
    <defs>
     <path d="M 12.890625 0 
L 30.515625 57.90625 
L 42.71875 57.90625 
L 60.296875 0 
L 50.78125 0 
L 36.625 45.90625 
L 22.40625 0 
z
" id="DejaVuSans-2227"/>
    </defs>
    <g transform="translate(443.76 39.52525)scale(0.12 -0.12)">
     <use xlink:href="#DejaVuSans-33"/>
     <use x="63.623047" xlink:href="#DejaVuSans-39"/>
     <use x="127.246094" xlink:href="#DejaVuSans-39"/>
     <use x="190.869141" xlink:href="#DejaVuSans-20"/>
     <use x="222.65625" xlink:href="#DejaVuSans-2227"/>
     <use x="295.849609" xlink:href="#DejaVuSans-20"/>
     <use x="327.636719" xlink:href="#DejaVuSans-33"/>
     <use x="391.259766" xlink:href="#DejaVuSans-39"/>
     <use x="454.882812" xlink:href="#DejaVuSans-35"/>
     <use x="518.505859" xlink:href="#DejaVuSans-20"/>
     <use x="550.292969" xlink:href="#DejaVuSans-2227"/>
     <use x="623.486328" xlink:href="#DejaVuSans-20"/>
     <use x="655.273438" xlink:href="#DejaVuSans-33"/>
     <use x="718.896484" xlink:href="#DejaVuSans-39"/>
     <use x="782.519531" xlink:href="#DejaVuSans-36"/>
     <use x="846.142578" xlink:href="#DejaVuSans-20"/>
     <use x="877.929688" xlink:href="#DejaVuSans-2227"/>
     <use x="951.123047" xlink:href="#DejaVuSans-20"/>
     <use x="982.910156" xlink:href="#DejaVuSans-33"/>
     <use x="1046.533203" xlink:href="#DejaVuSans-39"/>
     <use x="1110.15625" xlink:href="#DejaVuSans-37"/>
     <use x="1173.779297" xlink:href="#DejaVuSans-20"/>
     <use x="1205.566406" xlink:href="#DejaVuSans-2227"/>
     <use x="1278.759766" xlink:href="#DejaVuSans-20"/>
     <use x="1310.546875" xlink:href="#DejaVuSans-33"/>
     <use x="1374.169922" xlink:href="#DejaVuSans-39"/>
     <use x="1437.792969" xlink:href="#DejaVuSans-38"/>
     <use x="1501.416016" xlink:href="#DejaVuSans-20"/>
     <use x="1533.203125" xlink:href="#DejaVuSans-2227"/>
     <use x="1606.396484" xlink:href="#DejaVuSans-20"/>
     <use x="1638.183594" xlink:href="#DejaVuSans-34"/>
     <use x="1701.806641" xlink:href="#DejaVuSans-30"/>
     <use x="1765.429688" xlink:href="#DejaVuSans-30"/>
    </g>
    <!--  pyprover.logic.Prop('399')&amp; pyprover.logic.Prop('395')&amp; pyprover.logic.Prop('396')&amp; -->
    <defs>
     <path d="M 32.171875 -5.078125 
Q 28.375 -14.84375 24.75 -17.8125 
Q 21.140625 -20.796875 15.09375 -20.796875 
L 7.90625 -20.796875 
L 7.90625 -13.28125 
L 13.1875 -13.28125 
Q 16.890625 -13.28125 18.9375 -11.515625 
Q 21 -9.765625 23.484375 -3.21875 
L 25.09375 0.875 
L 2.984375 54.6875 
L 12.5 54.6875 
L 29.59375 11.921875 
L 46.6875 54.6875 
L 56.203125 54.6875 
z
" id="DejaVuSans-79"/>
     <path d="M 19.671875 64.796875 
L 19.671875 37.40625 
L 32.078125 37.40625 
Q 38.96875 37.40625 42.71875 40.96875 
Q 46.484375 44.53125 46.484375 51.125 
Q 46.484375 57.671875 42.71875 61.234375 
Q 38.96875 64.796875 32.078125 64.796875 
z
M 9.8125 72.90625 
L 32.078125 72.90625 
Q 44.34375 72.90625 50.609375 67.359375 
Q 56.890625 61.8125 56.890625 51.125 
Q 56.890625 40.328125 50.609375 34.8125 
Q 44.34375 29.296875 32.078125 29.296875 
L 19.671875 29.296875 
L 19.671875 0 
L 9.8125 0 
z
" id="DejaVuSans-50"/>
     <path d="M 31 75.875 
Q 24.46875 64.65625 21.28125 53.65625 
Q 18.109375 42.671875 18.109375 31.390625 
Q 18.109375 20.125 21.3125 9.0625 
Q 24.515625 -2 31 -13.1875 
L 23.1875 -13.1875 
Q 15.875 -1.703125 12.234375 9.375 
Q 8.59375 20.453125 8.59375 31.390625 
Q 8.59375 42.28125 12.203125 53.3125 
Q 15.828125 64.359375 23.1875 75.875 
z
" id="DejaVuSans-28"/>
     <path d="M 17.921875 72.90625 
L 17.921875 45.796875 
L 9.625 45.796875 
L 9.625 72.90625 
z
" id="DejaVuSans-27"/>
     <path d="M 8.015625 75.875 
L 15.828125 75.875 
Q 23.140625 64.359375 26.78125 53.3125 
Q 30.421875 42.28125 30.421875 31.390625 
Q 30.421875 20.453125 26.78125 9.375 
Q 23.140625 -1.703125 15.828125 -13.1875 
L 8.015625 -13.1875 
Q 14.5 -2 17.703125 9.0625 
Q 20.90625 20.125 20.90625 31.390625 
Q 20.90625 42.671875 17.703125 53.65625 
Q 14.5 64.65625 8.015625 75.875 
z
" id="DejaVuSans-29"/>
     <path d="M 24.3125 39.203125 
Q 19.875 35.25 17.796875 31.3125 
Q 15.71875 27.390625 15.71875 23.09375 
Q 15.71875 15.96875 20.890625 11.234375 
Q 26.078125 6.5 33.890625 6.5 
Q 38.53125 6.5 42.578125 8.03125 
Q 46.625 9.578125 50.203125 12.703125 
z
M 31.203125 44.671875 
L 56 19.28125 
Q 58.890625 23.640625 60.5 28.59375 
Q 62.109375 33.546875 62.40625 39.109375 
L 71.484375 39.109375 
Q 70.90625 32.671875 68.359375 26.359375 
Q 65.828125 20.0625 61.28125 13.921875 
L 74.90625 0 
L 62.59375 0 
L 55.609375 7.171875 
Q 50.53125 2.828125 44.96875 0.703125 
Q 39.40625 -1.421875 33.015625 -1.421875 
Q 21.234375 -1.421875 13.765625 5.296875 
Q 6.296875 12.015625 6.296875 22.515625 
Q 6.296875 28.765625 9.5625 34.25 
Q 12.84375 39.75 19.390625 44.578125 
Q 17.046875 47.65625 15.8125 50.703125 
Q 14.59375 53.765625 14.59375 56.6875 
Q 14.59375 64.59375 20.015625 69.40625 
Q 25.4375 74.21875 34.421875 74.21875 
Q 38.484375 74.21875 42.5 73.34375 
Q 46.53125 72.46875 50.6875 70.703125 
L 50.6875 61.8125 
Q 46.4375 64.109375 42.578125 65.296875 
Q 38.71875 66.5 35.40625 66.5 
Q 30.28125 66.5 27.078125 63.78125 
Q 23.875 61.078125 23.875 56.78125 
Q 23.875 54.296875 25.3125 51.78125 
Q 26.765625 49.265625 31.203125 44.671875 
z
" id="DejaVuSans-26"/>
    </defs>
    <g transform="translate(299.95875 52.962625)scale(0.12 -0.12)">
     <use xlink:href="#DejaVuSans-20"/>
     <use x="31.787109" xlink:href="#DejaVuSans-70"/>
     <use x="95.263672" xlink:href="#DejaVuSans-79"/>
     <use x="154.443359" xlink:href="#DejaVuSans-70"/>
     <use x="217.919922" xlink:href="#DejaVuSans-72"/>
     <use x="259.001953" xlink:href="#DejaVuSans-6f"/>
     <use x="320.183594" xlink:href="#DejaVuSans-76"/>
     <use x="379.363281" xlink:href="#DejaVuSans-65"/>
     <use x="440.886719" xlink:href="#DejaVuSans-72"/>
     <use x="481.859375" xlink:href="#DejaVuSans-2e"/>
     <use x="513.646484" xlink:href="#DejaVuSans-6c"/>
     <use x="541.429688" xlink:href="#DejaVuSans-6f"/>
     <use x="602.611328" xlink:href="#DejaVuSans-67"/>
     <use x="666.087891" xlink:href="#DejaVuSans-69"/>
     <use x="693.871094" xlink:href="#DejaVuSans-63"/>
     <use x="748.851562" xlink:href="#DejaVuSans-2e"/>
     <use x="780.638672" xlink:href="#DejaVuSans-50"/>
     <use x="840.925781" xlink:href="#DejaVuSans-72"/>
     <use x="882.007812" xlink:href="#DejaVuSans-6f"/>
     <use x="943.189453" xlink:href="#DejaVuSans-70"/>
     <use x="1006.666016" xlink:href="#DejaVuSans-28"/>
     <use x="1045.679688" xlink:href="#DejaVuSans-27"/>
     <use x="1073.169922" xlink:href="#DejaVuSans-33"/>
     <use x="1136.792969" xlink:href="#DejaVuSans-39"/>
     <use x="1200.416016" xlink:href="#DejaVuSans-39"/>
     <use x="1264.039062" xlink:href="#DejaVuSans-27"/>
     <use x="1291.529297" xlink:href="#DejaVuSans-29"/>
     <use x="1330.542969" xlink:href="#DejaVuSans-26"/>
     <use x="1408.521484" xlink:href="#DejaVuSans-20"/>
     <use x="1440.308594" xlink:href="#DejaVuSans-70"/>
     <use x="1503.785156" xlink:href="#DejaVuSans-79"/>
     <use x="1562.964844" xlink:href="#DejaVuSans-70"/>
     <use x="1626.441406" xlink:href="#DejaVuSans-72"/>
     <use x="1667.523438" xlink:href="#DejaVuSans-6f"/>
     <use x="1728.705078" xlink:href="#DejaVuSans-76"/>
     <use x="1787.884766" xlink:href="#DejaVuSans-65"/>
     <use x="1849.408203" xlink:href="#DejaVuSans-72"/>
     <use x="1890.380859" xlink:href="#DejaVuSans-2e"/>
     <use x="1922.167969" xlink:href="#DejaVuSans-6c"/>
     <use x="1949.951172" xlink:href="#DejaVuSans-6f"/>
     <use x="2011.132812" xlink:href="#DejaVuSans-67"/>
     <use x="2074.609375" xlink:href="#DejaVuSans-69"/>
     <use x="2102.392578" xlink:href="#DejaVuSans-63"/>
     <use x="2157.373047" xlink:href="#DejaVuSans-2e"/>
     <use x="2189.160156" xlink:href="#DejaVuSans-50"/>
     <use x="2249.447266" xlink:href="#DejaVuSans-72"/>
     <use x="2290.529297" xlink:href="#DejaVuSans-6f"/>
     <use x="2351.710938" xlink:href="#DejaVuSans-70"/>
     <use x="2415.1875" xlink:href="#DejaVuSans-28"/>
     <use x="2454.201172" xlink:href="#DejaVuSans-27"/>
     <use x="2481.691406" xlink:href="#DejaVuSans-33"/>
     <use x="2545.314453" xlink:href="#DejaVuSans-39"/>
     <use x="2608.9375" xlink:href="#DejaVuSans-35"/>
     <use x="2672.560547" xlink:href="#DejaVuSans-27"/>
     <use x="2700.050781" xlink:href="#DejaVuSans-29"/>
     <use x="2739.064453" xlink:href="#DejaVuSans-26"/>
     <use x="2817.042969" xlink:href="#DejaVuSans-20"/>
     <use x="2848.830078" xlink:href="#DejaVuSans-70"/>
     <use x="2912.306641" xlink:href="#DejaVuSans-79"/>
     <use x="2971.486328" xlink:href="#DejaVuSans-70"/>
     <use x="3034.962891" xlink:href="#DejaVuSans-72"/>
     <use x="3076.044922" xlink:href="#DejaVuSans-6f"/>
     <use x="3137.226562" xlink:href="#DejaVuSans-76"/>
     <use x="3196.40625" xlink:href="#DejaVuSans-65"/>
     <use x="3257.929688" xlink:href="#DejaVuSans-72"/>
     <use x="3298.902344" xlink:href="#DejaVuSans-2e"/>
     <use x="3330.689453" xlink:href="#DejaVuSans-6c"/>
     <use x="3358.472656" xlink:href="#DejaVuSans-6f"/>
     <use x="3419.654297" xlink:href="#DejaVuSans-67"/>
     <use x="3483.130859" xlink:href="#DejaVuSans-69"/>
     <use x="3510.914062" xlink:href="#DejaVuSans-63"/>
     <use x="3565.894531" xlink:href="#DejaVuSans-2e"/>
     <use x="3597.681641" xlink:href="#DejaVuSans-50"/>
     <use x="3657.96875" xlink:href="#DejaVuSans-72"/>
     <use x="3699.050781" xlink:href="#DejaVuSans-6f"/>
     <use x="3760.232422" xlink:href="#DejaVuSans-70"/>
     <use x="3823.708984" xlink:href="#DejaVuSans-28"/>
     <use x="3862.722656" xlink:href="#DejaVuSans-27"/>
     <use x="3890.212891" xlink:href="#DejaVuSans-33"/>
     <use x="3953.835938" xlink:href="#DejaVuSans-39"/>
     <use x="4017.458984" xlink:href="#DejaVuSans-36"/>
     <use x="4081.082031" xlink:href="#DejaVuSans-27"/>
     <use x="4108.572266" xlink:href="#DejaVuSans-29"/>
     <use x="4147.585938" xlink:href="#DejaVuSans-26"/>
    </g>
    <!-- pyprover.logic.Prop('397')&amp; pyprover.logic.Prop('398')&amp; pyprover.logic.Prop('400') -->
    <g transform="translate(306.544688 66.4)scale(0.12 -0.12)">
     <use xlink:href="#DejaVuSans-70"/>
     <use x="63.476562" xlink:href="#DejaVuSans-79"/>
     <use x="122.65625" xlink:href="#DejaVuSans-70"/>
     <use x="186.132812" xlink:href="#DejaVuSans-72"/>
     <use x="227.214844" xlink:href="#DejaVuSans-6f"/>
     <use x="288.396484" xlink:href="#DejaVuSans-76"/>
     <use x="347.576172" xlink:href="#DejaVuSans-65"/>
     <use x="409.099609" xlink:href="#DejaVuSans-72"/>
     <use x="450.072266" xlink:href="#DejaVuSans-2e"/>
     <use x="481.859375" xlink:href="#DejaVuSans-6c"/>
     <use x="509.642578" xlink:href="#DejaVuSans-6f"/>
     <use x="570.824219" xlink:href="#DejaVuSans-67"/>
     <use x="634.300781" xlink:href="#DejaVuSans-69"/>
     <use x="662.083984" xlink:href="#DejaVuSans-63"/>
     <use x="717.064453" xlink:href="#DejaVuSans-2e"/>
     <use x="748.851562" xlink:href="#DejaVuSans-50"/>
     <use x="809.138672" xlink:href="#DejaVuSans-72"/>
     <use x="850.220703" xlink:href="#DejaVuSans-6f"/>
     <use x="911.402344" xlink:href="#DejaVuSans-70"/>
     <use x="974.878906" xlink:href="#DejaVuSans-28"/>
     <use x="1013.892578" xlink:href="#DejaVuSans-27"/>
     <use x="1041.382812" xlink:href="#DejaVuSans-33"/>
     <use x="1105.005859" xlink:href="#DejaVuSans-39"/>
     <use x="1168.628906" xlink:href="#DejaVuSans-37"/>
     <use x="1232.251953" xlink:href="#DejaVuSans-27"/>
     <use x="1259.742188" xlink:href="#DejaVuSans-29"/>
     <use x="1298.755859" xlink:href="#DejaVuSans-26"/>
     <use x="1376.734375" xlink:href="#DejaVuSans-20"/>
     <use x="1408.521484" xlink:href="#DejaVuSans-70"/>
     <use x="1471.998047" xlink:href="#DejaVuSans-79"/>
     <use x="1531.177734" xlink:href="#DejaVuSans-70"/>
     <use x="1594.654297" xlink:href="#DejaVuSans-72"/>
     <use x="1635.736328" xlink:href="#DejaVuSans-6f"/>
     <use x="1696.917969" xlink:href="#DejaVuSans-76"/>
     <use x="1756.097656" xlink:href="#DejaVuSans-65"/>
     <use x="1817.621094" xlink:href="#DejaVuSans-72"/>
     <use x="1858.59375" xlink:href="#DejaVuSans-2e"/>
     <use x="1890.380859" xlink:href="#DejaVuSans-6c"/>
     <use x="1918.164062" xlink:href="#DejaVuSans-6f"/>
     <use x="1979.345703" xlink:href="#DejaVuSans-67"/>
     <use x="2042.822266" xlink:href="#DejaVuSans-69"/>
     <use x="2070.605469" xlink:href="#DejaVuSans-63"/>
     <use x="2125.585938" xlink:href="#DejaVuSans-2e"/>
     <use x="2157.373047" xlink:href="#DejaVuSans-50"/>
     <use x="2217.660156" xlink:href="#DejaVuSans-72"/>
     <use x="2258.742188" xlink:href="#DejaVuSans-6f"/>
     <use x="2319.923828" xlink:href="#DejaVuSans-70"/>
     <use x="2383.400391" xlink:href="#DejaVuSans-28"/>
     <use x="2422.414062" xlink:href="#DejaVuSans-27"/>
     <use x="2449.904297" xlink:href="#DejaVuSans-33"/>
     <use x="2513.527344" xlink:href="#DejaVuSans-39"/>
     <use x="2577.150391" xlink:href="#DejaVuSans-38"/>
     <use x="2640.773438" xlink:href="#DejaVuSans-27"/>
     <use x="2668.263672" xlink:href="#DejaVuSans-29"/>
     <use x="2707.277344" xlink:href="#DejaVuSans-26"/>
     <use x="2785.255859" xlink:href="#DejaVuSans-20"/>
     <use x="2817.042969" xlink:href="#DejaVuSans-70"/>
     <use x="2880.519531" xlink:href="#DejaVuSans-79"/>
     <use x="2939.699219" xlink:href="#DejaVuSans-70"/>
     <use x="3003.175781" xlink:href="#DejaVuSans-72"/>
     <use x="3044.257812" xlink:href="#DejaVuSans-6f"/>
     <use x="3105.439453" xlink:href="#DejaVuSans-76"/>
     <use x="3164.619141" xlink:href="#DejaVuSans-65"/>
     <use x="3226.142578" xlink:href="#DejaVuSans-72"/>
     <use x="3267.115234" xlink:href="#DejaVuSans-2e"/>
     <use x="3298.902344" xlink:href="#DejaVuSans-6c"/>
     <use x="3326.685547" xlink:href="#DejaVuSans-6f"/>
     <use x="3387.867188" xlink:href="#DejaVuSans-67"/>
     <use x="3451.34375" xlink:href="#DejaVuSans-69"/>
     <use x="3479.126953" xlink:href="#DejaVuSans-63"/>
     <use x="3534.107422" xlink:href="#DejaVuSans-2e"/>
     <use x="3565.894531" xlink:href="#DejaVuSans-50"/>
     <use x="3626.181641" xlink:href="#DejaVuSans-72"/>
     <use x="3667.263672" xlink:href="#DejaVuSans-6f"/>
     <use x="3728.445312" xlink:href="#DejaVuSans-70"/>
     <use x="3791.921875" xlink:href="#DejaVuSans-28"/>
     <use x="3830.935547" xlink:href="#DejaVuSans-27"/>
     <use x="3858.425781" xlink:href="#DejaVuSans-34"/>
     <use x="3922.048828" xlink:href="#DejaVuSans-30"/>
     <use x="3985.671875" xlink:href="#DejaVuSans-30"/>
     <use x="4049.294922" xlink:href="#DejaVuSans-27"/>
     <use x="4076.785156" xlink:href="#DejaVuSans-29"/>
    </g>
   </g>
  </g>
 </g>
 <defs>
  <clipPath id="pfd5dbaeced">
   <rect height="554.4" width="837" x="135" y="86.4"/>
  </clipPath>
 </defs>
</svg>
