<?xml version="1.0" encoding="utf-8" standalone="no"?>
<!DOCTYPE svg PUBLIC "-//W3C//DTD SVG 1.1//EN"
  "http://www.w3.org/Graphics/SVG/1.1/DTD/svg11.dtd">
<!-- Created with matplotlib (http://matplotlib.org/) -->
<svg height="720pt" version="1.1" viewBox="0 0 1080 720" width="1080pt" xmlns="http://www.w3.org/2000/svg" xmlns:xlink="http://www.w3.org/1999/xlink">
 <defs>
  <style type="text/css">
*{stroke-linecap:butt;stroke-linejoin:round;}
  </style>
 </defs>
 <g id="figure_1">
  <g id="patch_1">
   <path d="M 0 720 
L 1080 720 
L 1080 0 
L 0 0 
z
" style="fill:#ffffff;"/>
  </g>
  <g id="axes_1">
   <g id="patch_2">
    <path clip-path="url(#p94a50ab09e)" d="M 563.161776 134.509091 
Q 387.497816 247.700855 214.653318 359.075855 
" style="fill:none;stroke:#000000;stroke-linecap:round;stroke-width:3;"/>
    <path clip-path="url(#p94a50ab09e)" d="M 219.988175 358.493358 
L 214.653318 359.075855 
L 217.388234 354.458471 
L 219.988175 358.493358 
z
" style="stroke:#000000;stroke-linecap:round;stroke-width:3;"/>
   </g>
   <g id="patch_3">
    <path clip-path="url(#p94a50ab09e)" d="M 563.161776 134.509091 
Q 563.161776 246.553408 563.161776 355.243623 
" style="fill:none;stroke:#000000;stroke-linecap:round;stroke-width:3;"/>
    <path clip-path="url(#p94a50ab09e)" d="M 565.561776 350.443623 
L 563.161776 355.243623 
L 560.761776 350.443623 
L 565.561776 350.443623 
z
" style="stroke:#000000;stroke-linecap:round;stroke-width:3;"/>
   </g>
   <g id="patch_4">
    <path clip-path="url(#p94a50ab09e)" d="M 563.161776 134.509091 
Q 729.198626 247.646672 892.463686 358.895555 
" style="fill:none;stroke:#000000;stroke-linecap:round;stroke-width:3;"/>
    <path clip-path="url(#p94a50ab09e)" d="M 889.848467 354.209339 
L 892.463686 358.895555 
L 887.145581 358.176001 
L 889.848467 354.209339 
z
" style="stroke:#000000;stroke-linecap:round;stroke-width:3;"/>
   </g>
   <g id="patch_5">
    <path clip-path="url(#p94a50ab09e)" d="M 563.161776 363.6 
Q 645.73087 476.130212 726.315737 585.956198 
" style="fill:none;stroke:#000000;stroke-linecap:round;stroke-width:3;"/>
    <path clip-path="url(#p94a50ab09e)" d="M 725.411129 580.666427 
L 726.315737 585.956198 
L 721.541155 583.506022 
L 725.411129 580.666427 
z
" style="stroke:#000000;stroke-linecap:round;stroke-width:3;"/>
   </g>
   <g id="patch_6">
    <path clip-path="url(#p94a50ab09e)" d="M 899.367769 363.6 
Q 816.791367 476.130212 736.199307 585.956282 
" style="fill:none;stroke:#000000;stroke-linecap:round;stroke-width:3;"/>
    <path clip-path="url(#p94a50ab09e)" d="M 740.973993 583.506307 
L 736.199307 585.956282 
L 737.104139 580.666549 
L 740.973993 583.506307 
z
" style="stroke:#000000;stroke-linecap:round;stroke-width:3;"/>
   </g>
   <g id="PathCollection_1">
    <defs>
     <path d="M 0 5 
C 1.326016 5 2.597899 4.473168 3.535534 3.535534 
C 4.473168 2.597899 5 1.326016 5 0 
C 5 -1.326016 4.473168 -2.597899 3.535534 -3.535534 
C 2.597899 -4.473168 1.326016 -5 0 -5 
C -1.326016 -5 -2.597899 -4.473168 -3.535534 -3.535534 
C -4.473168 -2.597899 -5 -1.326016 -5 0 
C -5 1.326016 -4.473168 2.597899 -3.535534 3.535534 
C -2.597899 4.473168 -1.326016 5 0 5 
z
" id="m830952afb4" style="stroke:#0000ff;"/>
    </defs>
    <g clip-path="url(#p94a50ab09e)">
     <use style="fill:#0000ff;stroke:#0000ff;" x="563.161776" xlink:href="#m830952afb4" y="134.509091"/>
     <use style="fill:#0000ff;stroke:#0000ff;" x="207.632231" xlink:href="#m830952afb4" y="363.6"/>
     <use style="fill:#0000ff;stroke:#0000ff;" x="563.161776" xlink:href="#m830952afb4" y="363.6"/>
     <use style="fill:#0000ff;stroke:#0000ff;" x="899.367769" xlink:href="#m830952afb4" y="363.6"/>
     <use style="fill:#0000ff;stroke:#0000ff;" x="731.257334" xlink:href="#m830952afb4" y="592.690909"/>
    </g>
   </g>
   <g id="text_1">
    <g clip-path="url(#p94a50ab09e)">
     <!-- 387  Further , primary -->
     <defs>
      <path d="M 40.578125 39.3125 
Q 47.65625 37.796875 51.625 33 
Q 55.609375 28.21875 55.609375 21.1875 
Q 55.609375 10.40625 48.1875 4.484375 
Q 40.765625 -1.421875 27.09375 -1.421875 
Q 22.515625 -1.421875 17.65625 -0.515625 
Q 12.796875 0.390625 7.625 2.203125 
L 7.625 11.71875 
Q 11.71875 9.328125 16.59375 8.109375 
Q 21.484375 6.890625 26.8125 6.890625 
Q 36.078125 6.890625 40.9375 10.546875 
Q 45.796875 14.203125 45.796875 21.1875 
Q 45.796875 27.640625 41.28125 31.265625 
Q 36.765625 34.90625 28.71875 34.90625 
L 20.21875 34.90625 
L 20.21875 43.015625 
L 29.109375 43.015625 
Q 36.375 43.015625 40.234375 45.921875 
Q 44.09375 48.828125 44.09375 54.296875 
Q 44.09375 59.90625 40.109375 62.90625 
Q 36.140625 65.921875 28.71875 65.921875 
Q 24.65625 65.921875 20.015625 65.03125 
Q 15.375 64.15625 9.8125 62.3125 
L 9.8125 71.09375 
Q 15.4375 72.65625 20.34375 73.4375 
Q 25.25 74.21875 29.59375 74.21875 
Q 40.828125 74.21875 47.359375 69.109375 
Q 53.90625 64.015625 53.90625 55.328125 
Q 53.90625 49.265625 50.4375 45.09375 
Q 46.96875 40.921875 40.578125 39.3125 
z
" id="DejaVuSans-33"/>
      <path d="M 31.78125 34.625 
Q 24.75 34.625 20.71875 30.859375 
Q 16.703125 27.09375 16.703125 20.515625 
Q 16.703125 13.921875 20.71875 10.15625 
Q 24.75 6.390625 31.78125 6.390625 
Q 38.8125 6.390625 42.859375 10.171875 
Q 46.921875 13.96875 46.921875 20.515625 
Q 46.921875 27.09375 42.890625 30.859375 
Q 38.875 34.625 31.78125 34.625 
z
M 21.921875 38.8125 
Q 15.578125 40.375 12.03125 44.71875 
Q 8.5 49.078125 8.5 55.328125 
Q 8.5 64.0625 14.71875 69.140625 
Q 20.953125 74.21875 31.78125 74.21875 
Q 42.671875 74.21875 48.875 69.140625 
Q 55.078125 64.0625 55.078125 55.328125 
Q 55.078125 49.078125 51.53125 44.71875 
Q 48 40.375 41.703125 38.8125 
Q 48.828125 37.15625 52.796875 32.3125 
Q 56.78125 27.484375 56.78125 20.515625 
Q 56.78125 9.90625 50.3125 4.234375 
Q 43.84375 -1.421875 31.78125 -1.421875 
Q 19.734375 -1.421875 13.25 4.234375 
Q 6.78125 9.90625 6.78125 20.515625 
Q 6.78125 27.484375 10.78125 32.3125 
Q 14.796875 37.15625 21.921875 38.8125 
z
M 18.3125 54.390625 
Q 18.3125 48.734375 21.84375 45.5625 
Q 25.390625 42.390625 31.78125 42.390625 
Q 38.140625 42.390625 41.71875 45.5625 
Q 45.3125 48.734375 45.3125 54.390625 
Q 45.3125 60.0625 41.71875 63.234375 
Q 38.140625 66.40625 31.78125 66.40625 
Q 25.390625 66.40625 21.84375 63.234375 
Q 18.3125 60.0625 18.3125 54.390625 
z
" id="DejaVuSans-38"/>
      <path d="M 8.203125 72.90625 
L 55.078125 72.90625 
L 55.078125 68.703125 
L 28.609375 0 
L 18.3125 0 
L 43.21875 64.59375 
L 8.203125 64.59375 
z
" id="DejaVuSans-37"/>
      <path id="DejaVuSans-20"/>
      <path d="M 9.8125 72.90625 
L 51.703125 72.90625 
L 51.703125 64.59375 
L 19.671875 64.59375 
L 19.671875 43.109375 
L 48.578125 43.109375 
L 48.578125 34.8125 
L 19.671875 34.8125 
L 19.671875 0 
L 9.8125 0 
z
" id="DejaVuSans-46"/>
      <path d="M 8.5 21.578125 
L 8.5 54.6875 
L 17.484375 54.6875 
L 17.484375 21.921875 
Q 17.484375 14.15625 20.5 10.265625 
Q 23.53125 6.390625 29.59375 6.390625 
Q 36.859375 6.390625 41.078125 11.03125 
Q 45.3125 15.671875 45.3125 23.6875 
L 45.3125 54.6875 
L 54.296875 54.6875 
L 54.296875 0 
L 45.3125 0 
L 45.3125 8.40625 
Q 42.046875 3.421875 37.71875 1 
Q 33.40625 -1.421875 27.6875 -1.421875 
Q 18.265625 -1.421875 13.375 4.4375 
Q 8.5 10.296875 8.5 21.578125 
z
M 31.109375 56 
z
" id="DejaVuSans-75"/>
      <path d="M 41.109375 46.296875 
Q 39.59375 47.171875 37.8125 47.578125 
Q 36.03125 48 33.890625 48 
Q 26.265625 48 22.1875 43.046875 
Q 18.109375 38.09375 18.109375 28.8125 
L 18.109375 0 
L 9.078125 0 
L 9.078125 54.6875 
L 18.109375 54.6875 
L 18.109375 46.1875 
Q 20.953125 51.171875 25.484375 53.578125 
Q 30.03125 56 36.53125 56 
Q 37.453125 56 38.578125 55.875 
Q 39.703125 55.765625 41.0625 55.515625 
z
" id="DejaVuSans-72"/>
      <path d="M 18.3125 70.21875 
L 18.3125 54.6875 
L 36.8125 54.6875 
L 36.8125 47.703125 
L 18.3125 47.703125 
L 18.3125 18.015625 
Q 18.3125 11.328125 20.140625 9.421875 
Q 21.96875 7.515625 27.59375 7.515625 
L 36.8125 7.515625 
L 36.8125 0 
L 27.59375 0 
Q 17.1875 0 13.234375 3.875 
Q 9.28125 7.765625 9.28125 18.015625 
L 9.28125 47.703125 
L 2.6875 47.703125 
L 2.6875 54.6875 
L 9.28125 54.6875 
L 9.28125 70.21875 
z
" id="DejaVuSans-74"/>
      <path d="M 54.890625 33.015625 
L 54.890625 0 
L 45.90625 0 
L 45.90625 32.71875 
Q 45.90625 40.484375 42.875 44.328125 
Q 39.84375 48.1875 33.796875 48.1875 
Q 26.515625 48.1875 22.3125 43.546875 
Q 18.109375 38.921875 18.109375 30.90625 
L 18.109375 0 
L 9.078125 0 
L 9.078125 75.984375 
L 18.109375 75.984375 
L 18.109375 46.1875 
Q 21.34375 51.125 25.703125 53.5625 
Q 30.078125 56 35.796875 56 
Q 45.21875 56 50.046875 50.171875 
Q 54.890625 44.34375 54.890625 33.015625 
z
" id="DejaVuSans-68"/>
      <path d="M 56.203125 29.59375 
L 56.203125 25.203125 
L 14.890625 25.203125 
Q 15.484375 15.921875 20.484375 11.0625 
Q 25.484375 6.203125 34.421875 6.203125 
Q 39.59375 6.203125 44.453125 7.46875 
Q 49.3125 8.734375 54.109375 11.28125 
L 54.109375 2.78125 
Q 49.265625 0.734375 44.1875 -0.34375 
Q 39.109375 -1.421875 33.890625 -1.421875 
Q 20.796875 -1.421875 13.15625 6.1875 
Q 5.515625 13.8125 5.515625 26.8125 
Q 5.515625 40.234375 12.765625 48.109375 
Q 20.015625 56 32.328125 56 
Q 43.359375 56 49.78125 48.890625 
Q 56.203125 41.796875 56.203125 29.59375 
z
M 47.21875 32.234375 
Q 47.125 39.59375 43.09375 43.984375 
Q 39.0625 48.390625 32.421875 48.390625 
Q 24.90625 48.390625 20.390625 44.140625 
Q 15.875 39.890625 15.1875 32.171875 
z
" id="DejaVuSans-65"/>
      <path d="M 11.71875 12.40625 
L 22.015625 12.40625 
L 22.015625 4 
L 14.015625 -11.625 
L 7.71875 -11.625 
L 11.71875 4 
z
" id="DejaVuSans-2c"/>
      <path d="M 18.109375 8.203125 
L 18.109375 -20.796875 
L 9.078125 -20.796875 
L 9.078125 54.6875 
L 18.109375 54.6875 
L 18.109375 46.390625 
Q 20.953125 51.265625 25.265625 53.625 
Q 29.59375 56 35.59375 56 
Q 45.5625 56 51.78125 48.09375 
Q 58.015625 40.1875 58.015625 27.296875 
Q 58.015625 14.40625 51.78125 6.484375 
Q 45.5625 -1.421875 35.59375 -1.421875 
Q 29.59375 -1.421875 25.265625 0.953125 
Q 20.953125 3.328125 18.109375 8.203125 
z
M 48.6875 27.296875 
Q 48.6875 37.203125 44.609375 42.84375 
Q 40.53125 48.484375 33.40625 48.484375 
Q 26.265625 48.484375 22.1875 42.84375 
Q 18.109375 37.203125 18.109375 27.296875 
Q 18.109375 17.390625 22.1875 11.75 
Q 26.265625 6.109375 33.40625 6.109375 
Q 40.53125 6.109375 44.609375 11.75 
Q 48.6875 17.390625 48.6875 27.296875 
z
" id="DejaVuSans-70"/>
      <path d="M 9.421875 54.6875 
L 18.40625 54.6875 
L 18.40625 0 
L 9.421875 0 
z
M 9.421875 75.984375 
L 18.40625 75.984375 
L 18.40625 64.59375 
L 9.421875 64.59375 
z
" id="DejaVuSans-69"/>
      <path d="M 52 44.1875 
Q 55.375 50.25 60.0625 53.125 
Q 64.75 56 71.09375 56 
Q 79.640625 56 84.28125 50.015625 
Q 88.921875 44.046875 88.921875 33.015625 
L 88.921875 0 
L 79.890625 0 
L 79.890625 32.71875 
Q 79.890625 40.578125 77.09375 44.375 
Q 74.3125 48.1875 68.609375 48.1875 
Q 61.625 48.1875 57.5625 43.546875 
Q 53.515625 38.921875 53.515625 30.90625 
L 53.515625 0 
L 44.484375 0 
L 44.484375 32.71875 
Q 44.484375 40.625 41.703125 44.40625 
Q 38.921875 48.1875 33.109375 48.1875 
Q 26.21875 48.1875 22.15625 43.53125 
Q 18.109375 38.875 18.109375 30.90625 
L 18.109375 0 
L 9.078125 0 
L 9.078125 54.6875 
L 18.109375 54.6875 
L 18.109375 46.1875 
Q 21.1875 51.21875 25.484375 53.609375 
Q 29.78125 56 35.6875 56 
Q 41.65625 56 45.828125 52.96875 
Q 50 49.953125 52 44.1875 
z
" id="DejaVuSans-6d"/>
      <path d="M 34.28125 27.484375 
Q 23.390625 27.484375 19.1875 25 
Q 14.984375 22.515625 14.984375 16.5 
Q 14.984375 11.71875 18.140625 8.90625 
Q 21.296875 6.109375 26.703125 6.109375 
Q 34.1875 6.109375 38.703125 11.40625 
Q 43.21875 16.703125 43.21875 25.484375 
L 43.21875 27.484375 
z
M 52.203125 31.203125 
L 52.203125 0 
L 43.21875 0 
L 43.21875 8.296875 
Q 40.140625 3.328125 35.546875 0.953125 
Q 30.953125 -1.421875 24.3125 -1.421875 
Q 15.921875 -1.421875 10.953125 3.296875 
Q 6 8.015625 6 15.921875 
Q 6 25.140625 12.171875 29.828125 
Q 18.359375 34.515625 30.609375 34.515625 
L 43.21875 34.515625 
L 43.21875 35.40625 
Q 43.21875 41.609375 39.140625 45 
Q 35.0625 48.390625 27.6875 48.390625 
Q 23 48.390625 18.546875 47.265625 
Q 14.109375 46.140625 10.015625 43.890625 
L 10.015625 52.203125 
Q 14.9375 54.109375 19.578125 55.046875 
Q 24.21875 56 28.609375 56 
Q 40.484375 56 46.34375 49.84375 
Q 52.203125 43.703125 52.203125 31.203125 
z
" id="DejaVuSans-61"/>
      <path d="M 32.171875 -5.078125 
Q 28.375 -14.84375 24.75 -17.8125 
Q 21.140625 -20.796875 15.09375 -20.796875 
L 7.90625 -20.796875 
L 7.90625 -13.28125 
L 13.1875 -13.28125 
Q 16.890625 -13.28125 18.9375 -11.515625 
Q 21 -9.765625 23.484375 -3.21875 
L 25.09375 0.875 
L 2.984375 54.6875 
L 12.5 54.6875 
L 29.59375 11.921875 
L 46.6875 54.6875 
L 56.203125 54.6875 
z
" id="DejaVuSans-79"/>
     </defs>
     <g transform="translate(507.747713 114.872841)scale(0.1 -0.1)">
      <use xlink:href="#DejaVuSans-33"/>
      <use x="63.623047" xlink:href="#DejaVuSans-38"/>
      <use x="127.246094" xlink:href="#DejaVuSans-37"/>
      <use x="190.869141" xlink:href="#DejaVuSans-20"/>
      <use x="222.65625" xlink:href="#DejaVuSans-20"/>
      <use x="254.443359" xlink:href="#DejaVuSans-46"/>
      <use x="311.884766" xlink:href="#DejaVuSans-75"/>
      <use x="375.263672" xlink:href="#DejaVuSans-72"/>
      <use x="416.376953" xlink:href="#DejaVuSans-74"/>
      <use x="455.585938" xlink:href="#DejaVuSans-68"/>
      <use x="518.964844" xlink:href="#DejaVuSans-65"/>
      <use x="580.488281" xlink:href="#DejaVuSans-72"/>
      <use x="621.601562" xlink:href="#DejaVuSans-20"/>
      <use x="653.388672" xlink:href="#DejaVuSans-2c"/>
      <use x="685.175781" xlink:href="#DejaVuSans-20"/>
      <use x="716.962891" xlink:href="#DejaVuSans-70"/>
      <use x="780.439453" xlink:href="#DejaVuSans-72"/>
      <use x="821.552734" xlink:href="#DejaVuSans-69"/>
      <use x="849.335938" xlink:href="#DejaVuSans-6d"/>
      <use x="946.748047" xlink:href="#DejaVuSans-61"/>
      <use x="1008.027344" xlink:href="#DejaVuSans-72"/>
      <use x="1049.140625" xlink:href="#DejaVuSans-79"/>
     </g>
    </g>
    <g clip-path="url(#p94a50ab09e)">
     <!-- substances are most properly -->
     <defs>
      <path d="M 44.28125 53.078125 
L 44.28125 44.578125 
Q 40.484375 46.53125 36.375 47.5 
Q 32.28125 48.484375 27.875 48.484375 
Q 21.1875 48.484375 17.84375 46.4375 
Q 14.5 44.390625 14.5 40.28125 
Q 14.5 37.15625 16.890625 35.375 
Q 19.28125 33.59375 26.515625 31.984375 
L 29.59375 31.296875 
Q 39.15625 29.25 43.1875 25.515625 
Q 47.21875 21.78125 47.21875 15.09375 
Q 47.21875 7.46875 41.1875 3.015625 
Q 35.15625 -1.421875 24.609375 -1.421875 
Q 20.21875 -1.421875 15.453125 -0.5625 
Q 10.6875 0.296875 5.421875 2 
L 5.421875 11.28125 
Q 10.40625 8.6875 15.234375 7.390625 
Q 20.0625 6.109375 24.8125 6.109375 
Q 31.15625 6.109375 34.5625 8.28125 
Q 37.984375 10.453125 37.984375 14.40625 
Q 37.984375 18.0625 35.515625 20.015625 
Q 33.0625 21.96875 24.703125 23.78125 
L 21.578125 24.515625 
Q 13.234375 26.265625 9.515625 29.90625 
Q 5.8125 33.546875 5.8125 39.890625 
Q 5.8125 47.609375 11.28125 51.796875 
Q 16.75 56 26.8125 56 
Q 31.78125 56 36.171875 55.265625 
Q 40.578125 54.546875 44.28125 53.078125 
z
" id="DejaVuSans-73"/>
      <path d="M 48.6875 27.296875 
Q 48.6875 37.203125 44.609375 42.84375 
Q 40.53125 48.484375 33.40625 48.484375 
Q 26.265625 48.484375 22.1875 42.84375 
Q 18.109375 37.203125 18.109375 27.296875 
Q 18.109375 17.390625 22.1875 11.75 
Q 26.265625 6.109375 33.40625 6.109375 
Q 40.53125 6.109375 44.609375 11.75 
Q 48.6875 17.390625 48.6875 27.296875 
z
M 18.109375 46.390625 
Q 20.953125 51.265625 25.265625 53.625 
Q 29.59375 56 35.59375 56 
Q 45.5625 56 51.78125 48.09375 
Q 58.015625 40.1875 58.015625 27.296875 
Q 58.015625 14.40625 51.78125 6.484375 
Q 45.5625 -1.421875 35.59375 -1.421875 
Q 29.59375 -1.421875 25.265625 0.953125 
Q 20.953125 3.328125 18.109375 8.203125 
L 18.109375 0 
L 9.078125 0 
L 9.078125 75.984375 
L 18.109375 75.984375 
z
" id="DejaVuSans-62"/>
      <path d="M 54.890625 33.015625 
L 54.890625 0 
L 45.90625 0 
L 45.90625 32.71875 
Q 45.90625 40.484375 42.875 44.328125 
Q 39.84375 48.1875 33.796875 48.1875 
Q 26.515625 48.1875 22.3125 43.546875 
Q 18.109375 38.921875 18.109375 30.90625 
L 18.109375 0 
L 9.078125 0 
L 9.078125 54.6875 
L 18.109375 54.6875 
L 18.109375 46.1875 
Q 21.34375 51.125 25.703125 53.5625 
Q 30.078125 56 35.796875 56 
Q 45.21875 56 50.046875 50.171875 
Q 54.890625 44.34375 54.890625 33.015625 
z
" id="DejaVuSans-6e"/>
      <path d="M 48.78125 52.59375 
L 48.78125 44.1875 
Q 44.96875 46.296875 41.140625 47.34375 
Q 37.3125 48.390625 33.40625 48.390625 
Q 24.65625 48.390625 19.8125 42.84375 
Q 14.984375 37.3125 14.984375 27.296875 
Q 14.984375 17.28125 19.8125 11.734375 
Q 24.65625 6.203125 33.40625 6.203125 
Q 37.3125 6.203125 41.140625 7.25 
Q 44.96875 8.296875 48.78125 10.40625 
L 48.78125 2.09375 
Q 45.015625 0.34375 40.984375 -0.53125 
Q 36.96875 -1.421875 32.421875 -1.421875 
Q 20.0625 -1.421875 12.78125 6.34375 
Q 5.515625 14.109375 5.515625 27.296875 
Q 5.515625 40.671875 12.859375 48.328125 
Q 20.21875 56 33.015625 56 
Q 37.15625 56 41.109375 55.140625 
Q 45.0625 54.296875 48.78125 52.59375 
z
" id="DejaVuSans-63"/>
      <path d="M 30.609375 48.390625 
Q 23.390625 48.390625 19.1875 42.75 
Q 14.984375 37.109375 14.984375 27.296875 
Q 14.984375 17.484375 19.15625 11.84375 
Q 23.34375 6.203125 30.609375 6.203125 
Q 37.796875 6.203125 41.984375 11.859375 
Q 46.1875 17.53125 46.1875 27.296875 
Q 46.1875 37.015625 41.984375 42.703125 
Q 37.796875 48.390625 30.609375 48.390625 
z
M 30.609375 56 
Q 42.328125 56 49.015625 48.375 
Q 55.71875 40.765625 55.71875 27.296875 
Q 55.71875 13.875 49.015625 6.21875 
Q 42.328125 -1.421875 30.609375 -1.421875 
Q 18.84375 -1.421875 12.171875 6.21875 
Q 5.515625 13.875 5.515625 27.296875 
Q 5.515625 40.765625 12.171875 48.375 
Q 18.84375 56 30.609375 56 
z
" id="DejaVuSans-6f"/>
      <path d="M 9.421875 75.984375 
L 18.40625 75.984375 
L 18.40625 0 
L 9.421875 0 
z
" id="DejaVuSans-6c"/>
     </defs>
     <g transform="translate(488.587557 126.070653)scale(0.1 -0.1)">
      <use xlink:href="#DejaVuSans-73"/>
      <use x="52.099609" xlink:href="#DejaVuSans-75"/>
      <use x="115.478516" xlink:href="#DejaVuSans-62"/>
      <use x="178.955078" xlink:href="#DejaVuSans-73"/>
      <use x="231.054688" xlink:href="#DejaVuSans-74"/>
      <use x="270.263672" xlink:href="#DejaVuSans-61"/>
      <use x="331.542969" xlink:href="#DejaVuSans-6e"/>
      <use x="394.921875" xlink:href="#DejaVuSans-63"/>
      <use x="449.902344" xlink:href="#DejaVuSans-65"/>
      <use x="511.425781" xlink:href="#DejaVuSans-73"/>
      <use x="563.525391" xlink:href="#DejaVuSans-20"/>
      <use x="595.3125" xlink:href="#DejaVuSans-61"/>
      <use x="656.591797" xlink:href="#DejaVuSans-72"/>
      <use x="697.673828" xlink:href="#DejaVuSans-65"/>
      <use x="759.197266" xlink:href="#DejaVuSans-20"/>
      <use x="790.984375" xlink:href="#DejaVuSans-6d"/>
      <use x="888.396484" xlink:href="#DejaVuSans-6f"/>
      <use x="949.578125" xlink:href="#DejaVuSans-73"/>
      <use x="1001.677734" xlink:href="#DejaVuSans-74"/>
      <use x="1040.886719" xlink:href="#DejaVuSans-20"/>
      <use x="1072.673828" xlink:href="#DejaVuSans-70"/>
      <use x="1136.150391" xlink:href="#DejaVuSans-72"/>
      <use x="1177.232422" xlink:href="#DejaVuSans-6f"/>
      <use x="1238.414062" xlink:href="#DejaVuSans-70"/>
      <use x="1301.890625" xlink:href="#DejaVuSans-65"/>
      <use x="1363.414062" xlink:href="#DejaVuSans-72"/>
      <use x="1404.527344" xlink:href="#DejaVuSans-6c"/>
      <use x="1432.310547" xlink:href="#DejaVuSans-79"/>
     </g>
    </g>
    <g clip-path="url(#p94a50ab09e)">
     <!-- so called , because they -->
     <defs>
      <path d="M 45.40625 46.390625 
L 45.40625 75.984375 
L 54.390625 75.984375 
L 54.390625 0 
L 45.40625 0 
L 45.40625 8.203125 
Q 42.578125 3.328125 38.25 0.953125 
Q 33.9375 -1.421875 27.875 -1.421875 
Q 17.96875 -1.421875 11.734375 6.484375 
Q 5.515625 14.40625 5.515625 27.296875 
Q 5.515625 40.1875 11.734375 48.09375 
Q 17.96875 56 27.875 56 
Q 33.9375 56 38.25 53.625 
Q 42.578125 51.265625 45.40625 46.390625 
z
M 14.796875 27.296875 
Q 14.796875 17.390625 18.875 11.75 
Q 22.953125 6.109375 30.078125 6.109375 
Q 37.203125 6.109375 41.296875 11.75 
Q 45.40625 17.390625 45.40625 27.296875 
Q 45.40625 37.203125 41.296875 42.84375 
Q 37.203125 48.484375 30.078125 48.484375 
Q 22.953125 48.484375 18.875 42.84375 
Q 14.796875 37.203125 14.796875 27.296875 
z
" id="DejaVuSans-64"/>
     </defs>
     <g transform="translate(502.631307 137.268466)scale(0.1 -0.1)">
      <use xlink:href="#DejaVuSans-73"/>
      <use x="52.099609" xlink:href="#DejaVuSans-6f"/>
      <use x="113.28125" xlink:href="#DejaVuSans-20"/>
      <use x="145.068359" xlink:href="#DejaVuSans-63"/>
      <use x="200.048828" xlink:href="#DejaVuSans-61"/>
      <use x="261.328125" xlink:href="#DejaVuSans-6c"/>
      <use x="289.111328" xlink:href="#DejaVuSans-6c"/>
      <use x="316.894531" xlink:href="#DejaVuSans-65"/>
      <use x="378.417969" xlink:href="#DejaVuSans-64"/>
      <use x="441.894531" xlink:href="#DejaVuSans-20"/>
      <use x="473.681641" xlink:href="#DejaVuSans-2c"/>
      <use x="505.46875" xlink:href="#DejaVuSans-20"/>
      <use x="537.255859" xlink:href="#DejaVuSans-62"/>
      <use x="600.732422" xlink:href="#DejaVuSans-65"/>
      <use x="662.255859" xlink:href="#DejaVuSans-63"/>
      <use x="717.236328" xlink:href="#DejaVuSans-61"/>
      <use x="778.515625" xlink:href="#DejaVuSans-75"/>
      <use x="841.894531" xlink:href="#DejaVuSans-73"/>
      <use x="893.994141" xlink:href="#DejaVuSans-65"/>
      <use x="955.517578" xlink:href="#DejaVuSans-20"/>
      <use x="987.304688" xlink:href="#DejaVuSans-74"/>
      <use x="1026.513672" xlink:href="#DejaVuSans-68"/>
      <use x="1089.892578" xlink:href="#DejaVuSans-65"/>
      <use x="1151.416016" xlink:href="#DejaVuSans-79"/>
     </g>
    </g>
    <g clip-path="url(#p94a50ab09e)">
     <!-- underlie and are the subjects -->
     <defs>
      <path d="M 9.421875 54.6875 
L 18.40625 54.6875 
L 18.40625 -0.984375 
Q 18.40625 -11.421875 14.421875 -16.109375 
Q 10.453125 -20.796875 1.609375 -20.796875 
L -1.8125 -20.796875 
L -1.8125 -13.1875 
L 0.59375 -13.1875 
Q 5.71875 -13.1875 7.5625 -10.8125 
Q 9.421875 -8.453125 9.421875 -0.984375 
z
M 9.421875 75.984375 
L 18.40625 75.984375 
L 18.40625 64.59375 
L 9.421875 64.59375 
z
" id="DejaVuSans-6a"/>
     </defs>
     <g transform="translate(489.772713 148.466278)scale(0.1 -0.1)">
      <use xlink:href="#DejaVuSans-75"/>
      <use x="63.378906" xlink:href="#DejaVuSans-6e"/>
      <use x="126.757812" xlink:href="#DejaVuSans-64"/>
      <use x="190.234375" xlink:href="#DejaVuSans-65"/>
      <use x="251.757812" xlink:href="#DejaVuSans-72"/>
      <use x="292.871094" xlink:href="#DejaVuSans-6c"/>
      <use x="320.654297" xlink:href="#DejaVuSans-69"/>
      <use x="348.4375" xlink:href="#DejaVuSans-65"/>
      <use x="409.960938" xlink:href="#DejaVuSans-20"/>
      <use x="441.748047" xlink:href="#DejaVuSans-61"/>
      <use x="503.027344" xlink:href="#DejaVuSans-6e"/>
      <use x="566.40625" xlink:href="#DejaVuSans-64"/>
      <use x="629.882812" xlink:href="#DejaVuSans-20"/>
      <use x="661.669922" xlink:href="#DejaVuSans-61"/>
      <use x="722.949219" xlink:href="#DejaVuSans-72"/>
      <use x="764.03125" xlink:href="#DejaVuSans-65"/>
      <use x="825.554688" xlink:href="#DejaVuSans-20"/>
      <use x="857.341797" xlink:href="#DejaVuSans-74"/>
      <use x="896.550781" xlink:href="#DejaVuSans-68"/>
      <use x="959.929688" xlink:href="#DejaVuSans-65"/>
      <use x="1021.453125" xlink:href="#DejaVuSans-20"/>
      <use x="1053.240234" xlink:href="#DejaVuSans-73"/>
      <use x="1105.339844" xlink:href="#DejaVuSans-75"/>
      <use x="1168.71875" xlink:href="#DejaVuSans-62"/>
      <use x="1232.195312" xlink:href="#DejaVuSans-6a"/>
      <use x="1259.978516" xlink:href="#DejaVuSans-65"/>
      <use x="1321.501953" xlink:href="#DejaVuSans-63"/>
      <use x="1376.482422" xlink:href="#DejaVuSans-74"/>
      <use x="1415.691406" xlink:href="#DejaVuSans-73"/>
     </g>
    </g>
    <g clip-path="url(#p94a50ab09e)">
     <!-- of everything else . -->
     <defs>
      <path d="M 37.109375 75.984375 
L 37.109375 68.5 
L 28.515625 68.5 
Q 23.6875 68.5 21.796875 66.546875 
Q 19.921875 64.59375 19.921875 59.515625 
L 19.921875 54.6875 
L 34.71875 54.6875 
L 34.71875 47.703125 
L 19.921875 47.703125 
L 19.921875 0 
L 10.890625 0 
L 10.890625 47.703125 
L 2.296875 47.703125 
L 2.296875 54.6875 
L 10.890625 54.6875 
L 10.890625 58.5 
Q 10.890625 67.625 15.140625 71.796875 
Q 19.390625 75.984375 28.609375 75.984375 
z
" id="DejaVuSans-66"/>
      <path d="M 2.984375 54.6875 
L 12.5 54.6875 
L 29.59375 8.796875 
L 46.6875 54.6875 
L 56.203125 54.6875 
L 35.6875 0 
L 23.484375 0 
z
" id="DejaVuSans-76"/>
      <path d="M 45.40625 27.984375 
Q 45.40625 37.75 41.375 43.109375 
Q 37.359375 48.484375 30.078125 48.484375 
Q 22.859375 48.484375 18.828125 43.109375 
Q 14.796875 37.75 14.796875 27.984375 
Q 14.796875 18.265625 18.828125 12.890625 
Q 22.859375 7.515625 30.078125 7.515625 
Q 37.359375 7.515625 41.375 12.890625 
Q 45.40625 18.265625 45.40625 27.984375 
z
M 54.390625 6.78125 
Q 54.390625 -7.171875 48.1875 -13.984375 
Q 42 -20.796875 29.203125 -20.796875 
Q 24.46875 -20.796875 20.265625 -20.09375 
Q 16.0625 -19.390625 12.109375 -17.921875 
L 12.109375 -9.1875 
Q 16.0625 -11.328125 19.921875 -12.34375 
Q 23.78125 -13.375 27.78125 -13.375 
Q 36.625 -13.375 41.015625 -8.765625 
Q 45.40625 -4.15625 45.40625 5.171875 
L 45.40625 9.625 
Q 42.625 4.78125 38.28125 2.390625 
Q 33.9375 0 27.875 0 
Q 17.828125 0 11.671875 7.65625 
Q 5.515625 15.328125 5.515625 27.984375 
Q 5.515625 40.671875 11.671875 48.328125 
Q 17.828125 56 27.875 56 
Q 33.9375 56 38.28125 53.609375 
Q 42.625 51.21875 45.40625 46.390625 
L 45.40625 54.6875 
L 54.390625 54.6875 
z
" id="DejaVuSans-67"/>
      <path d="M 10.6875 12.40625 
L 21 12.40625 
L 21 0 
L 10.6875 0 
z
" id="DejaVuSans-2e"/>
     </defs>
     <g transform="translate(514.850838 159.664091)scale(0.1 -0.1)">
      <use xlink:href="#DejaVuSans-6f"/>
      <use x="61.181641" xlink:href="#DejaVuSans-66"/>
      <use x="96.386719" xlink:href="#DejaVuSans-20"/>
      <use x="128.173828" xlink:href="#DejaVuSans-65"/>
      <use x="189.697266" xlink:href="#DejaVuSans-76"/>
      <use x="248.876953" xlink:href="#DejaVuSans-65"/>
      <use x="310.400391" xlink:href="#DejaVuSans-72"/>
      <use x="351.513672" xlink:href="#DejaVuSans-79"/>
      <use x="410.693359" xlink:href="#DejaVuSans-74"/>
      <use x="449.902344" xlink:href="#DejaVuSans-68"/>
      <use x="513.28125" xlink:href="#DejaVuSans-69"/>
      <use x="541.064453" xlink:href="#DejaVuSans-6e"/>
      <use x="604.443359" xlink:href="#DejaVuSans-67"/>
      <use x="667.919922" xlink:href="#DejaVuSans-20"/>
      <use x="699.707031" xlink:href="#DejaVuSans-65"/>
      <use x="761.230469" xlink:href="#DejaVuSans-6c"/>
      <use x="789.013672" xlink:href="#DejaVuSans-73"/>
      <use x="841.113281" xlink:href="#DejaVuSans-65"/>
      <use x="902.636719" xlink:href="#DejaVuSans-20"/>
      <use x="934.423828" xlink:href="#DejaVuSans-2e"/>
     </g>
    </g>
   </g>
   <g id="text_2">
    <g clip-path="url(#p94a50ab09e)">
     <!-- 385  called because they and -->
     <defs>
      <path d="M 10.796875 72.90625 
L 49.515625 72.90625 
L 49.515625 64.59375 
L 19.828125 64.59375 
L 19.828125 46.734375 
Q 21.96875 47.46875 24.109375 47.828125 
Q 26.265625 48.1875 28.421875 48.1875 
Q 40.625 48.1875 47.75 41.5 
Q 54.890625 34.8125 54.890625 23.390625 
Q 54.890625 11.625 47.5625 5.09375 
Q 40.234375 -1.421875 26.90625 -1.421875 
Q 22.3125 -1.421875 17.546875 -0.640625 
Q 12.796875 0.140625 7.71875 1.703125 
L 7.71875 11.625 
Q 12.109375 9.234375 16.796875 8.0625 
Q 21.484375 6.890625 26.703125 6.890625 
Q 35.15625 6.890625 40.078125 11.328125 
Q 45.015625 15.765625 45.015625 23.390625 
Q 45.015625 31 40.078125 35.4375 
Q 35.15625 39.890625 26.703125 39.890625 
Q 22.75 39.890625 18.8125 39.015625 
Q 14.890625 38.140625 10.796875 36.28125 
z
" id="DejaVuSans-35"/>
     </defs>
     <g transform="translate(133.815044 355.161562)scale(0.1 -0.1)">
      <use xlink:href="#DejaVuSans-33"/>
      <use x="63.623047" xlink:href="#DejaVuSans-38"/>
      <use x="127.246094" xlink:href="#DejaVuSans-35"/>
      <use x="190.869141" xlink:href="#DejaVuSans-20"/>
      <use x="222.65625" xlink:href="#DejaVuSans-20"/>
      <use x="254.443359" xlink:href="#DejaVuSans-63"/>
      <use x="309.423828" xlink:href="#DejaVuSans-61"/>
      <use x="370.703125" xlink:href="#DejaVuSans-6c"/>
      <use x="398.486328" xlink:href="#DejaVuSans-6c"/>
      <use x="426.269531" xlink:href="#DejaVuSans-65"/>
      <use x="487.792969" xlink:href="#DejaVuSans-64"/>
      <use x="551.269531" xlink:href="#DejaVuSans-20"/>
      <use x="583.056641" xlink:href="#DejaVuSans-62"/>
      <use x="646.533203" xlink:href="#DejaVuSans-65"/>
      <use x="708.056641" xlink:href="#DejaVuSans-63"/>
      <use x="763.037109" xlink:href="#DejaVuSans-61"/>
      <use x="824.316406" xlink:href="#DejaVuSans-75"/>
      <use x="887.695312" xlink:href="#DejaVuSans-73"/>
      <use x="939.794922" xlink:href="#DejaVuSans-65"/>
      <use x="1001.318359" xlink:href="#DejaVuSans-20"/>
      <use x="1033.105469" xlink:href="#DejaVuSans-74"/>
      <use x="1072.314453" xlink:href="#DejaVuSans-68"/>
      <use x="1135.693359" xlink:href="#DejaVuSans-65"/>
      <use x="1197.216797" xlink:href="#DejaVuSans-79"/>
      <use x="1256.396484" xlink:href="#DejaVuSans-20"/>
      <use x="1288.183594" xlink:href="#DejaVuSans-61"/>
      <use x="1349.462891" xlink:href="#DejaVuSans-6e"/>
      <use x="1412.841797" xlink:href="#DejaVuSans-64"/>
     </g>
    </g>
    <g clip-path="url(#p94a50ab09e)">
     <!-- are the subjects of everything -->
     <g transform="translate(132.340825 366.359375)scale(0.1 -0.1)">
      <use xlink:href="#DejaVuSans-61"/>
      <use x="61.279297" xlink:href="#DejaVuSans-72"/>
      <use x="102.361328" xlink:href="#DejaVuSans-65"/>
      <use x="163.884766" xlink:href="#DejaVuSans-20"/>
      <use x="195.671875" xlink:href="#DejaVuSans-74"/>
      <use x="234.880859" xlink:href="#DejaVuSans-68"/>
      <use x="298.259766" xlink:href="#DejaVuSans-65"/>
      <use x="359.783203" xlink:href="#DejaVuSans-20"/>
      <use x="391.570312" xlink:href="#DejaVuSans-73"/>
      <use x="443.669922" xlink:href="#DejaVuSans-75"/>
      <use x="507.048828" xlink:href="#DejaVuSans-62"/>
      <use x="570.525391" xlink:href="#DejaVuSans-6a"/>
      <use x="598.308594" xlink:href="#DejaVuSans-65"/>
      <use x="659.832031" xlink:href="#DejaVuSans-63"/>
      <use x="714.8125" xlink:href="#DejaVuSans-74"/>
      <use x="754.021484" xlink:href="#DejaVuSans-73"/>
      <use x="806.121094" xlink:href="#DejaVuSans-20"/>
      <use x="837.908203" xlink:href="#DejaVuSans-6f"/>
      <use x="899.089844" xlink:href="#DejaVuSans-66"/>
      <use x="934.294922" xlink:href="#DejaVuSans-20"/>
      <use x="966.082031" xlink:href="#DejaVuSans-65"/>
      <use x="1027.605469" xlink:href="#DejaVuSans-76"/>
      <use x="1086.785156" xlink:href="#DejaVuSans-65"/>
      <use x="1148.308594" xlink:href="#DejaVuSans-72"/>
      <use x="1189.421875" xlink:href="#DejaVuSans-79"/>
      <use x="1248.601562" xlink:href="#DejaVuSans-74"/>
      <use x="1287.810547" xlink:href="#DejaVuSans-68"/>
      <use x="1351.189453" xlink:href="#DejaVuSans-69"/>
      <use x="1378.972656" xlink:href="#DejaVuSans-6e"/>
      <use x="1442.351562" xlink:href="#DejaVuSans-67"/>
     </g>
    </g>
    <g clip-path="url(#p94a50ab09e)">
     <!-- else -->
     <g transform="translate(197.485356 377.557187)scale(0.1 -0.1)">
      <use xlink:href="#DejaVuSans-65"/>
      <use x="61.523438" xlink:href="#DejaVuSans-6c"/>
      <use x="89.306641" xlink:href="#DejaVuSans-73"/>
      <use x="141.40625" xlink:href="#DejaVuSans-65"/>
     </g>
    </g>
   </g>
   <g id="text_3">
    <g clip-path="url(#p94a50ab09e)">
     <!-- 383  Further primary -->
     <g transform="translate(510.925838 355.161562)scale(0.1 -0.1)">
      <use xlink:href="#DejaVuSans-33"/>
      <use x="63.623047" xlink:href="#DejaVuSans-38"/>
      <use x="127.246094" xlink:href="#DejaVuSans-33"/>
      <use x="190.869141" xlink:href="#DejaVuSans-20"/>
      <use x="222.65625" xlink:href="#DejaVuSans-20"/>
      <use x="254.443359" xlink:href="#DejaVuSans-46"/>
      <use x="311.884766" xlink:href="#DejaVuSans-75"/>
      <use x="375.263672" xlink:href="#DejaVuSans-72"/>
      <use x="416.376953" xlink:href="#DejaVuSans-74"/>
      <use x="455.585938" xlink:href="#DejaVuSans-68"/>
      <use x="518.964844" xlink:href="#DejaVuSans-65"/>
      <use x="580.488281" xlink:href="#DejaVuSans-72"/>
      <use x="621.601562" xlink:href="#DejaVuSans-20"/>
      <use x="653.388672" xlink:href="#DejaVuSans-70"/>
      <use x="716.865234" xlink:href="#DejaVuSans-72"/>
      <use x="757.978516" xlink:href="#DejaVuSans-69"/>
      <use x="785.761719" xlink:href="#DejaVuSans-6d"/>
      <use x="883.173828" xlink:href="#DejaVuSans-61"/>
      <use x="944.453125" xlink:href="#DejaVuSans-72"/>
      <use x="985.566406" xlink:href="#DejaVuSans-79"/>
     </g>
    </g>
    <g clip-path="url(#p94a50ab09e)">
     <!-- substances are most properly -->
     <g transform="translate(488.587557 366.359375)scale(0.1 -0.1)">
      <use xlink:href="#DejaVuSans-73"/>
      <use x="52.099609" xlink:href="#DejaVuSans-75"/>
      <use x="115.478516" xlink:href="#DejaVuSans-62"/>
      <use x="178.955078" xlink:href="#DejaVuSans-73"/>
      <use x="231.054688" xlink:href="#DejaVuSans-74"/>
      <use x="270.263672" xlink:href="#DejaVuSans-61"/>
      <use x="331.542969" xlink:href="#DejaVuSans-6e"/>
      <use x="394.921875" xlink:href="#DejaVuSans-63"/>
      <use x="449.902344" xlink:href="#DejaVuSans-65"/>
      <use x="511.425781" xlink:href="#DejaVuSans-73"/>
      <use x="563.525391" xlink:href="#DejaVuSans-20"/>
      <use x="595.3125" xlink:href="#DejaVuSans-61"/>
      <use x="656.591797" xlink:href="#DejaVuSans-72"/>
      <use x="697.673828" xlink:href="#DejaVuSans-65"/>
      <use x="759.197266" xlink:href="#DejaVuSans-20"/>
      <use x="790.984375" xlink:href="#DejaVuSans-6d"/>
      <use x="888.396484" xlink:href="#DejaVuSans-6f"/>
      <use x="949.578125" xlink:href="#DejaVuSans-73"/>
      <use x="1001.677734" xlink:href="#DejaVuSans-74"/>
      <use x="1040.886719" xlink:href="#DejaVuSans-20"/>
      <use x="1072.673828" xlink:href="#DejaVuSans-70"/>
      <use x="1136.150391" xlink:href="#DejaVuSans-72"/>
      <use x="1177.232422" xlink:href="#DejaVuSans-6f"/>
      <use x="1238.414062" xlink:href="#DejaVuSans-70"/>
      <use x="1301.890625" xlink:href="#DejaVuSans-65"/>
      <use x="1363.414062" xlink:href="#DejaVuSans-72"/>
      <use x="1404.527344" xlink:href="#DejaVuSans-6c"/>
      <use x="1432.310547" xlink:href="#DejaVuSans-79"/>
     </g>
    </g>
    <g clip-path="url(#p94a50ab09e)">
     <!-- so called -->
     <g transform="translate(541.066463 377.557187)scale(0.1 -0.1)">
      <use xlink:href="#DejaVuSans-73"/>
      <use x="52.099609" xlink:href="#DejaVuSans-6f"/>
      <use x="113.28125" xlink:href="#DejaVuSans-20"/>
      <use x="145.068359" xlink:href="#DejaVuSans-63"/>
      <use x="200.048828" xlink:href="#DejaVuSans-61"/>
      <use x="261.328125" xlink:href="#DejaVuSans-6c"/>
      <use x="289.111328" xlink:href="#DejaVuSans-6c"/>
      <use x="316.894531" xlink:href="#DejaVuSans-65"/>
      <use x="378.417969" xlink:href="#DejaVuSans-64"/>
     </g>
    </g>
   </g>
   <g id="text_4">
    <g clip-path="url(#p94a50ab09e)">
     <!-- 384  Further , primary -->
     <defs>
      <path d="M 37.796875 64.3125 
L 12.890625 25.390625 
L 37.796875 25.390625 
z
M 35.203125 72.90625 
L 47.609375 72.90625 
L 47.609375 25.390625 
L 58.015625 25.390625 
L 58.015625 17.1875 
L 47.609375 17.1875 
L 47.609375 0 
L 37.796875 0 
L 37.796875 17.1875 
L 4.890625 17.1875 
L 4.890625 26.703125 
z
" id="DejaVuSans-34"/>
     </defs>
     <g transform="translate(843.953706 355.161562)scale(0.1 -0.1)">
      <use xlink:href="#DejaVuSans-33"/>
      <use x="63.623047" xlink:href="#DejaVuSans-38"/>
      <use x="127.246094" xlink:href="#DejaVuSans-34"/>
      <use x="190.869141" xlink:href="#DejaVuSans-20"/>
      <use x="222.65625" xlink:href="#DejaVuSans-20"/>
      <use x="254.443359" xlink:href="#DejaVuSans-46"/>
      <use x="311.884766" xlink:href="#DejaVuSans-75"/>
      <use x="375.263672" xlink:href="#DejaVuSans-72"/>
      <use x="416.376953" xlink:href="#DejaVuSans-74"/>
      <use x="455.585938" xlink:href="#DejaVuSans-68"/>
      <use x="518.964844" xlink:href="#DejaVuSans-65"/>
      <use x="580.488281" xlink:href="#DejaVuSans-72"/>
      <use x="621.601562" xlink:href="#DejaVuSans-20"/>
      <use x="653.388672" xlink:href="#DejaVuSans-2c"/>
      <use x="685.175781" xlink:href="#DejaVuSans-20"/>
      <use x="716.962891" xlink:href="#DejaVuSans-70"/>
      <use x="780.439453" xlink:href="#DejaVuSans-72"/>
      <use x="821.552734" xlink:href="#DejaVuSans-69"/>
      <use x="849.335938" xlink:href="#DejaVuSans-6d"/>
      <use x="946.748047" xlink:href="#DejaVuSans-61"/>
      <use x="1008.027344" xlink:href="#DejaVuSans-72"/>
      <use x="1049.140625" xlink:href="#DejaVuSans-79"/>
     </g>
    </g>
    <g clip-path="url(#p94a50ab09e)">
     <!-- substances because they -->
     <g transform="translate(835.934956 366.359375)scale(0.1 -0.1)">
      <use xlink:href="#DejaVuSans-73"/>
      <use x="52.099609" xlink:href="#DejaVuSans-75"/>
      <use x="115.478516" xlink:href="#DejaVuSans-62"/>
      <use x="178.955078" xlink:href="#DejaVuSans-73"/>
      <use x="231.054688" xlink:href="#DejaVuSans-74"/>
      <use x="270.263672" xlink:href="#DejaVuSans-61"/>
      <use x="331.542969" xlink:href="#DejaVuSans-6e"/>
      <use x="394.921875" xlink:href="#DejaVuSans-63"/>
      <use x="449.902344" xlink:href="#DejaVuSans-65"/>
      <use x="511.425781" xlink:href="#DejaVuSans-73"/>
      <use x="563.525391" xlink:href="#DejaVuSans-20"/>
      <use x="595.3125" xlink:href="#DejaVuSans-62"/>
      <use x="658.789062" xlink:href="#DejaVuSans-65"/>
      <use x="720.3125" xlink:href="#DejaVuSans-63"/>
      <use x="775.292969" xlink:href="#DejaVuSans-61"/>
      <use x="836.572266" xlink:href="#DejaVuSans-75"/>
      <use x="899.951172" xlink:href="#DejaVuSans-73"/>
      <use x="952.050781" xlink:href="#DejaVuSans-65"/>
      <use x="1013.574219" xlink:href="#DejaVuSans-20"/>
      <use x="1045.361328" xlink:href="#DejaVuSans-74"/>
      <use x="1084.570312" xlink:href="#DejaVuSans-68"/>
      <use x="1147.949219" xlink:href="#DejaVuSans-65"/>
      <use x="1209.472656" xlink:href="#DejaVuSans-79"/>
     </g>
    </g>
    <g clip-path="url(#p94a50ab09e)">
     <!-- underlie -->
     <g transform="translate(878.869331 377.557187)scale(0.1 -0.1)">
      <use xlink:href="#DejaVuSans-75"/>
      <use x="63.378906" xlink:href="#DejaVuSans-6e"/>
      <use x="126.757812" xlink:href="#DejaVuSans-64"/>
      <use x="190.234375" xlink:href="#DejaVuSans-65"/>
      <use x="251.757812" xlink:href="#DejaVuSans-72"/>
      <use x="292.871094" xlink:href="#DejaVuSans-6c"/>
      <use x="320.654297" xlink:href="#DejaVuSans-69"/>
      <use x="348.4375" xlink:href="#DejaVuSans-65"/>
     </g>
    </g>
   </g>
   <g id="text_5">
    <g clip-path="url(#p94a50ab09e)">
     <!-- 382  primary substances -->
     <defs>
      <path d="M 19.1875 8.296875 
L 53.609375 8.296875 
L 53.609375 0 
L 7.328125 0 
L 7.328125 8.296875 
Q 12.9375 14.109375 22.625 23.890625 
Q 32.328125 33.6875 34.8125 36.53125 
Q 39.546875 41.84375 41.421875 45.53125 
Q 43.3125 49.21875 43.3125 52.78125 
Q 43.3125 58.59375 39.234375 62.25 
Q 35.15625 65.921875 28.609375 65.921875 
Q 23.96875 65.921875 18.8125 64.3125 
Q 13.671875 62.703125 7.8125 59.421875 
L 7.8125 69.390625 
Q 13.765625 71.78125 18.9375 73 
Q 24.125 74.21875 28.421875 74.21875 
Q 39.75 74.21875 46.484375 68.546875 
Q 53.21875 62.890625 53.21875 53.421875 
Q 53.21875 48.921875 51.53125 44.890625 
Q 49.859375 40.875 45.40625 35.40625 
Q 44.1875 33.984375 37.640625 27.21875 
Q 31.109375 20.453125 19.1875 8.296875 
z
" id="DejaVuSans-32"/>
     </defs>
     <g transform="translate(669.202647 595.450284)scale(0.1 -0.1)">
      <use xlink:href="#DejaVuSans-33"/>
      <use x="63.623047" xlink:href="#DejaVuSans-38"/>
      <use x="127.246094" xlink:href="#DejaVuSans-32"/>
      <use x="190.869141" xlink:href="#DejaVuSans-20"/>
      <use x="222.65625" xlink:href="#DejaVuSans-20"/>
      <use x="254.443359" xlink:href="#DejaVuSans-70"/>
      <use x="317.919922" xlink:href="#DejaVuSans-72"/>
      <use x="359.033203" xlink:href="#DejaVuSans-69"/>
      <use x="386.816406" xlink:href="#DejaVuSans-6d"/>
      <use x="484.228516" xlink:href="#DejaVuSans-61"/>
      <use x="545.507812" xlink:href="#DejaVuSans-72"/>
      <use x="586.621094" xlink:href="#DejaVuSans-79"/>
      <use x="645.800781" xlink:href="#DejaVuSans-20"/>
      <use x="677.587891" xlink:href="#DejaVuSans-73"/>
      <use x="729.6875" xlink:href="#DejaVuSans-75"/>
      <use x="793.066406" xlink:href="#DejaVuSans-62"/>
      <use x="856.542969" xlink:href="#DejaVuSans-73"/>
      <use x="908.642578" xlink:href="#DejaVuSans-74"/>
      <use x="947.851562" xlink:href="#DejaVuSans-61"/>
      <use x="1009.130859" xlink:href="#DejaVuSans-6e"/>
      <use x="1072.509766" xlink:href="#DejaVuSans-63"/>
      <use x="1127.490234" xlink:href="#DejaVuSans-65"/>
      <use x="1189.013672" xlink:href="#DejaVuSans-73"/>
     </g>
    </g>
   </g>
   <g id="text_6">
    <!-- Further , primary substances are most properly so called , because they underlie and are -->
    <g transform="translate(284.889375 12.6505)scale(0.12 -0.12)">
     <use xlink:href="#DejaVuSans-46"/>
     <use x="57.441406" xlink:href="#DejaVuSans-75"/>
     <use x="120.820312" xlink:href="#DejaVuSans-72"/>
     <use x="161.933594" xlink:href="#DejaVuSans-74"/>
     <use x="201.142578" xlink:href="#DejaVuSans-68"/>
     <use x="264.521484" xlink:href="#DejaVuSans-65"/>
     <use x="326.044922" xlink:href="#DejaVuSans-72"/>
     <use x="367.158203" xlink:href="#DejaVuSans-20"/>
     <use x="398.945312" xlink:href="#DejaVuSans-2c"/>
     <use x="430.732422" xlink:href="#DejaVuSans-20"/>
     <use x="462.519531" xlink:href="#DejaVuSans-70"/>
     <use x="525.996094" xlink:href="#DejaVuSans-72"/>
     <use x="567.109375" xlink:href="#DejaVuSans-69"/>
     <use x="594.892578" xlink:href="#DejaVuSans-6d"/>
     <use x="692.304688" xlink:href="#DejaVuSans-61"/>
     <use x="753.583984" xlink:href="#DejaVuSans-72"/>
     <use x="794.697266" xlink:href="#DejaVuSans-79"/>
     <use x="853.876953" xlink:href="#DejaVuSans-20"/>
     <use x="885.664062" xlink:href="#DejaVuSans-73"/>
     <use x="937.763672" xlink:href="#DejaVuSans-75"/>
     <use x="1001.142578" xlink:href="#DejaVuSans-62"/>
     <use x="1064.619141" xlink:href="#DejaVuSans-73"/>
     <use x="1116.71875" xlink:href="#DejaVuSans-74"/>
     <use x="1155.927734" xlink:href="#DejaVuSans-61"/>
     <use x="1217.207031" xlink:href="#DejaVuSans-6e"/>
     <use x="1280.585938" xlink:href="#DejaVuSans-63"/>
     <use x="1335.566406" xlink:href="#DejaVuSans-65"/>
     <use x="1397.089844" xlink:href="#DejaVuSans-73"/>
     <use x="1449.189453" xlink:href="#DejaVuSans-20"/>
     <use x="1480.976562" xlink:href="#DejaVuSans-61"/>
     <use x="1542.255859" xlink:href="#DejaVuSans-72"/>
     <use x="1583.337891" xlink:href="#DejaVuSans-65"/>
     <use x="1644.861328" xlink:href="#DejaVuSans-20"/>
     <use x="1676.648438" xlink:href="#DejaVuSans-6d"/>
     <use x="1774.060547" xlink:href="#DejaVuSans-6f"/>
     <use x="1835.242188" xlink:href="#DejaVuSans-73"/>
     <use x="1887.341797" xlink:href="#DejaVuSans-74"/>
     <use x="1926.550781" xlink:href="#DejaVuSans-20"/>
     <use x="1958.337891" xlink:href="#DejaVuSans-70"/>
     <use x="2021.814453" xlink:href="#DejaVuSans-72"/>
     <use x="2062.896484" xlink:href="#DejaVuSans-6f"/>
     <use x="2124.078125" xlink:href="#DejaVuSans-70"/>
     <use x="2187.554688" xlink:href="#DejaVuSans-65"/>
     <use x="2249.078125" xlink:href="#DejaVuSans-72"/>
     <use x="2290.191406" xlink:href="#DejaVuSans-6c"/>
     <use x="2317.974609" xlink:href="#DejaVuSans-79"/>
     <use x="2377.154297" xlink:href="#DejaVuSans-20"/>
     <use x="2408.941406" xlink:href="#DejaVuSans-73"/>
     <use x="2461.041016" xlink:href="#DejaVuSans-6f"/>
     <use x="2522.222656" xlink:href="#DejaVuSans-20"/>
     <use x="2554.009766" xlink:href="#DejaVuSans-63"/>
     <use x="2608.990234" xlink:href="#DejaVuSans-61"/>
     <use x="2670.269531" xlink:href="#DejaVuSans-6c"/>
     <use x="2698.052734" xlink:href="#DejaVuSans-6c"/>
     <use x="2725.835938" xlink:href="#DejaVuSans-65"/>
     <use x="2787.359375" xlink:href="#DejaVuSans-64"/>
     <use x="2850.835938" xlink:href="#DejaVuSans-20"/>
     <use x="2882.623047" xlink:href="#DejaVuSans-2c"/>
     <use x="2914.410156" xlink:href="#DejaVuSans-20"/>
     <use x="2946.197266" xlink:href="#DejaVuSans-62"/>
     <use x="3009.673828" xlink:href="#DejaVuSans-65"/>
     <use x="3071.197266" xlink:href="#DejaVuSans-63"/>
     <use x="3126.177734" xlink:href="#DejaVuSans-61"/>
     <use x="3187.457031" xlink:href="#DejaVuSans-75"/>
     <use x="3250.835938" xlink:href="#DejaVuSans-73"/>
     <use x="3302.935547" xlink:href="#DejaVuSans-65"/>
     <use x="3364.458984" xlink:href="#DejaVuSans-20"/>
     <use x="3396.246094" xlink:href="#DejaVuSans-74"/>
     <use x="3435.455078" xlink:href="#DejaVuSans-68"/>
     <use x="3498.833984" xlink:href="#DejaVuSans-65"/>
     <use x="3560.357422" xlink:href="#DejaVuSans-79"/>
     <use x="3619.537109" xlink:href="#DejaVuSans-20"/>
     <use x="3651.324219" xlink:href="#DejaVuSans-75"/>
     <use x="3714.703125" xlink:href="#DejaVuSans-6e"/>
     <use x="3778.082031" xlink:href="#DejaVuSans-64"/>
     <use x="3841.558594" xlink:href="#DejaVuSans-65"/>
     <use x="3903.082031" xlink:href="#DejaVuSans-72"/>
     <use x="3944.195312" xlink:href="#DejaVuSans-6c"/>
     <use x="3971.978516" xlink:href="#DejaVuSans-69"/>
     <use x="3999.761719" xlink:href="#DejaVuSans-65"/>
     <use x="4061.285156" xlink:href="#DejaVuSans-20"/>
     <use x="4093.072266" xlink:href="#DejaVuSans-61"/>
     <use x="4154.351562" xlink:href="#DejaVuSans-6e"/>
     <use x="4217.730469" xlink:href="#DejaVuSans-64"/>
     <use x="4281.207031" xlink:href="#DejaVuSans-20"/>
     <use x="4312.994141" xlink:href="#DejaVuSans-61"/>
     <use x="4374.273438" xlink:href="#DejaVuSans-72"/>
     <use x="4415.355469" xlink:href="#DejaVuSans-65"/>
    </g>
    <!-- the subjects of everything else . -->
    <g transform="translate(456.99375 26.087875)scale(0.12 -0.12)">
     <use xlink:href="#DejaVuSans-74"/>
     <use x="39.208984" xlink:href="#DejaVuSans-68"/>
     <use x="102.587891" xlink:href="#DejaVuSans-65"/>
     <use x="164.111328" xlink:href="#DejaVuSans-20"/>
     <use x="195.898438" xlink:href="#DejaVuSans-73"/>
     <use x="247.998047" xlink:href="#DejaVuSans-75"/>
     <use x="311.376953" xlink:href="#DejaVuSans-62"/>
     <use x="374.853516" xlink:href="#DejaVuSans-6a"/>
     <use x="402.636719" xlink:href="#DejaVuSans-65"/>
     <use x="464.160156" xlink:href="#DejaVuSans-63"/>
     <use x="519.140625" xlink:href="#DejaVuSans-74"/>
     <use x="558.349609" xlink:href="#DejaVuSans-73"/>
     <use x="610.449219" xlink:href="#DejaVuSans-20"/>
     <use x="642.236328" xlink:href="#DejaVuSans-6f"/>
     <use x="703.417969" xlink:href="#DejaVuSans-66"/>
     <use x="738.623047" xlink:href="#DejaVuSans-20"/>
     <use x="770.410156" xlink:href="#DejaVuSans-65"/>
     <use x="831.933594" xlink:href="#DejaVuSans-76"/>
     <use x="891.113281" xlink:href="#DejaVuSans-65"/>
     <use x="952.636719" xlink:href="#DejaVuSans-72"/>
     <use x="993.75" xlink:href="#DejaVuSans-79"/>
     <use x="1052.929688" xlink:href="#DejaVuSans-74"/>
     <use x="1092.138672" xlink:href="#DejaVuSans-68"/>
     <use x="1155.517578" xlink:href="#DejaVuSans-69"/>
     <use x="1183.300781" xlink:href="#DejaVuSans-6e"/>
     <use x="1246.679688" xlink:href="#DejaVuSans-67"/>
     <use x="1310.15625" xlink:href="#DejaVuSans-20"/>
     <use x="1341.943359" xlink:href="#DejaVuSans-65"/>
     <use x="1403.466797" xlink:href="#DejaVuSans-6c"/>
     <use x="1431.25" xlink:href="#DejaVuSans-73"/>
     <use x="1483.349609" xlink:href="#DejaVuSans-65"/>
     <use x="1544.873047" xlink:href="#DejaVuSans-20"/>
     <use x="1576.660156" xlink:href="#DejaVuSans-2e"/>
    </g>
    <!-- 382 ∧ 384 ∧ 383 ∧ 385 ∧ 387 -->
    <defs>
     <path d="M 12.890625 0 
L 30.515625 57.90625 
L 42.71875 57.90625 
L 60.296875 0 
L 50.78125 0 
L 36.625 45.90625 
L 22.40625 0 
z
" id="DejaVuSans-2227"/>
    </defs>
    <g transform="translate(463.4175 39.52525)scale(0.12 -0.12)">
     <use xlink:href="#DejaVuSans-33"/>
     <use x="63.623047" xlink:href="#DejaVuSans-38"/>
     <use x="127.246094" xlink:href="#DejaVuSans-32"/>
     <use x="190.869141" xlink:href="#DejaVuSans-20"/>
     <use x="222.65625" xlink:href="#DejaVuSans-2227"/>
     <use x="295.849609" xlink:href="#DejaVuSans-20"/>
     <use x="327.636719" xlink:href="#DejaVuSans-33"/>
     <use x="391.259766" xlink:href="#DejaVuSans-38"/>
     <use x="454.882812" xlink:href="#DejaVuSans-34"/>
     <use x="518.505859" xlink:href="#DejaVuSans-20"/>
     <use x="550.292969" xlink:href="#DejaVuSans-2227"/>
     <use x="623.486328" xlink:href="#DejaVuSans-20"/>
     <use x="655.273438" xlink:href="#DejaVuSans-33"/>
     <use x="718.896484" xlink:href="#DejaVuSans-38"/>
     <use x="782.519531" xlink:href="#DejaVuSans-33"/>
     <use x="846.142578" xlink:href="#DejaVuSans-20"/>
     <use x="877.929688" xlink:href="#DejaVuSans-2227"/>
     <use x="951.123047" xlink:href="#DejaVuSans-20"/>
     <use x="982.910156" xlink:href="#DejaVuSans-33"/>
     <use x="1046.533203" xlink:href="#DejaVuSans-38"/>
     <use x="1110.15625" xlink:href="#DejaVuSans-35"/>
     <use x="1173.779297" xlink:href="#DejaVuSans-20"/>
     <use x="1205.566406" xlink:href="#DejaVuSans-2227"/>
     <use x="1278.759766" xlink:href="#DejaVuSans-20"/>
     <use x="1310.546875" xlink:href="#DejaVuSans-33"/>
     <use x="1374.169922" xlink:href="#DejaVuSans-38"/>
     <use x="1437.792969" xlink:href="#DejaVuSans-37"/>
    </g>
    <!--  pyprover.logic.Prop('382')&amp; pyprover.logic.Prop('384')&amp; pyprover.logic.Prop('383')&amp; -->
    <defs>
     <path d="M 19.671875 64.796875 
L 19.671875 37.40625 
L 32.078125 37.40625 
Q 38.96875 37.40625 42.71875 40.96875 
Q 46.484375 44.53125 46.484375 51.125 
Q 46.484375 57.671875 42.71875 61.234375 
Q 38.96875 64.796875 32.078125 64.796875 
z
M 9.8125 72.90625 
L 32.078125 72.90625 
Q 44.34375 72.90625 50.609375 67.359375 
Q 56.890625 61.8125 56.890625 51.125 
Q 56.890625 40.328125 50.609375 34.8125 
Q 44.34375 29.296875 32.078125 29.296875 
L 19.671875 29.296875 
L 19.671875 0 
L 9.8125 0 
z
" id="DejaVuSans-50"/>
     <path d="M 31 75.875 
Q 24.46875 64.65625 21.28125 53.65625 
Q 18.109375 42.671875 18.109375 31.390625 
Q 18.109375 20.125 21.3125 9.0625 
Q 24.515625 -2 31 -13.1875 
L 23.1875 -13.1875 
Q 15.875 -1.703125 12.234375 9.375 
Q 8.59375 20.453125 8.59375 31.390625 
Q 8.59375 42.28125 12.203125 53.3125 
Q 15.828125 64.359375 23.1875 75.875 
z
" id="DejaVuSans-28"/>
     <path d="M 17.921875 72.90625 
L 17.921875 45.796875 
L 9.625 45.796875 
L 9.625 72.90625 
z
" id="DejaVuSans-27"/>
     <path d="M 8.015625 75.875 
L 15.828125 75.875 
Q 23.140625 64.359375 26.78125 53.3125 
Q 30.421875 42.28125 30.421875 31.390625 
Q 30.421875 20.453125 26.78125 9.375 
Q 23.140625 -1.703125 15.828125 -13.1875 
L 8.015625 -13.1875 
Q 14.5 -2 17.703125 9.0625 
Q 20.90625 20.125 20.90625 31.390625 
Q 20.90625 42.671875 17.703125 53.65625 
Q 14.5 64.65625 8.015625 75.875 
z
" id="DejaVuSans-29"/>
     <path d="M 24.3125 39.203125 
Q 19.875 35.25 17.796875 31.3125 
Q 15.71875 27.390625 15.71875 23.09375 
Q 15.71875 15.96875 20.890625 11.234375 
Q 26.078125 6.5 33.890625 6.5 
Q 38.53125 6.5 42.578125 8.03125 
Q 46.625 9.578125 50.203125 12.703125 
z
M 31.203125 44.671875 
L 56 19.28125 
Q 58.890625 23.640625 60.5 28.59375 
Q 62.109375 33.546875 62.40625 39.109375 
L 71.484375 39.109375 
Q 70.90625 32.671875 68.359375 26.359375 
Q 65.828125 20.0625 61.28125 13.921875 
L 74.90625 0 
L 62.59375 0 
L 55.609375 7.171875 
Q 50.53125 2.828125 44.96875 0.703125 
Q 39.40625 -1.421875 33.015625 -1.421875 
Q 21.234375 -1.421875 13.765625 5.296875 
Q 6.296875 12.015625 6.296875 22.515625 
Q 6.296875 28.765625 9.5625 34.25 
Q 12.84375 39.75 19.390625 44.578125 
Q 17.046875 47.65625 15.8125 50.703125 
Q 14.59375 53.765625 14.59375 56.6875 
Q 14.59375 64.59375 20.015625 69.40625 
Q 25.4375 74.21875 34.421875 74.21875 
Q 38.484375 74.21875 42.5 73.34375 
Q 46.53125 72.46875 50.6875 70.703125 
L 50.6875 61.8125 
Q 46.4375 64.109375 42.578125 65.296875 
Q 38.71875 66.5 35.40625 66.5 
Q 30.28125 66.5 27.078125 63.78125 
Q 23.875 61.078125 23.875 56.78125 
Q 23.875 54.296875 25.3125 51.78125 
Q 26.765625 49.265625 31.203125 44.671875 
z
" id="DejaVuSans-26"/>
    </defs>
    <g transform="translate(299.95875 52.962625)scale(0.12 -0.12)">
     <use xlink:href="#DejaVuSans-20"/>
     <use x="31.787109" xlink:href="#DejaVuSans-70"/>
     <use x="95.263672" xlink:href="#DejaVuSans-79"/>
     <use x="154.443359" xlink:href="#DejaVuSans-70"/>
     <use x="217.919922" xlink:href="#DejaVuSans-72"/>
     <use x="259.001953" xlink:href="#DejaVuSans-6f"/>
     <use x="320.183594" xlink:href="#DejaVuSans-76"/>
     <use x="379.363281" xlink:href="#DejaVuSans-65"/>
     <use x="440.886719" xlink:href="#DejaVuSans-72"/>
     <use x="481.859375" xlink:href="#DejaVuSans-2e"/>
     <use x="513.646484" xlink:href="#DejaVuSans-6c"/>
     <use x="541.429688" xlink:href="#DejaVuSans-6f"/>
     <use x="602.611328" xlink:href="#DejaVuSans-67"/>
     <use x="666.087891" xlink:href="#DejaVuSans-69"/>
     <use x="693.871094" xlink:href="#DejaVuSans-63"/>
     <use x="748.851562" xlink:href="#DejaVuSans-2e"/>
     <use x="780.638672" xlink:href="#DejaVuSans-50"/>
     <use x="840.925781" xlink:href="#DejaVuSans-72"/>
     <use x="882.007812" xlink:href="#DejaVuSans-6f"/>
     <use x="943.189453" xlink:href="#DejaVuSans-70"/>
     <use x="1006.666016" xlink:href="#DejaVuSans-28"/>
     <use x="1045.679688" xlink:href="#DejaVuSans-27"/>
     <use x="1073.169922" xlink:href="#DejaVuSans-33"/>
     <use x="1136.792969" xlink:href="#DejaVuSans-38"/>
     <use x="1200.416016" xlink:href="#DejaVuSans-32"/>
     <use x="1264.039062" xlink:href="#DejaVuSans-27"/>
     <use x="1291.529297" xlink:href="#DejaVuSans-29"/>
     <use x="1330.542969" xlink:href="#DejaVuSans-26"/>
     <use x="1408.521484" xlink:href="#DejaVuSans-20"/>
     <use x="1440.308594" xlink:href="#DejaVuSans-70"/>
     <use x="1503.785156" xlink:href="#DejaVuSans-79"/>
     <use x="1562.964844" xlink:href="#DejaVuSans-70"/>
     <use x="1626.441406" xlink:href="#DejaVuSans-72"/>
     <use x="1667.523438" xlink:href="#DejaVuSans-6f"/>
     <use x="1728.705078" xlink:href="#DejaVuSans-76"/>
     <use x="1787.884766" xlink:href="#DejaVuSans-65"/>
     <use x="1849.408203" xlink:href="#DejaVuSans-72"/>
     <use x="1890.380859" xlink:href="#DejaVuSans-2e"/>
     <use x="1922.167969" xlink:href="#DejaVuSans-6c"/>
     <use x="1949.951172" xlink:href="#DejaVuSans-6f"/>
     <use x="2011.132812" xlink:href="#DejaVuSans-67"/>
     <use x="2074.609375" xlink:href="#DejaVuSans-69"/>
     <use x="2102.392578" xlink:href="#DejaVuSans-63"/>
     <use x="2157.373047" xlink:href="#DejaVuSans-2e"/>
     <use x="2189.160156" xlink:href="#DejaVuSans-50"/>
     <use x="2249.447266" xlink:href="#DejaVuSans-72"/>
     <use x="2290.529297" xlink:href="#DejaVuSans-6f"/>
     <use x="2351.710938" xlink:href="#DejaVuSans-70"/>
     <use x="2415.1875" xlink:href="#DejaVuSans-28"/>
     <use x="2454.201172" xlink:href="#DejaVuSans-27"/>
     <use x="2481.691406" xlink:href="#DejaVuSans-33"/>
     <use x="2545.314453" xlink:href="#DejaVuSans-38"/>
     <use x="2608.9375" xlink:href="#DejaVuSans-34"/>
     <use x="2672.560547" xlink:href="#DejaVuSans-27"/>
     <use x="2700.050781" xlink:href="#DejaVuSans-29"/>
     <use x="2739.064453" xlink:href="#DejaVuSans-26"/>
     <use x="2817.042969" xlink:href="#DejaVuSans-20"/>
     <use x="2848.830078" xlink:href="#DejaVuSans-70"/>
     <use x="2912.306641" xlink:href="#DejaVuSans-79"/>
     <use x="2971.486328" xlink:href="#DejaVuSans-70"/>
     <use x="3034.962891" xlink:href="#DejaVuSans-72"/>
     <use x="3076.044922" xlink:href="#DejaVuSans-6f"/>
     <use x="3137.226562" xlink:href="#DejaVuSans-76"/>
     <use x="3196.40625" xlink:href="#DejaVuSans-65"/>
     <use x="3257.929688" xlink:href="#DejaVuSans-72"/>
     <use x="3298.902344" xlink:href="#DejaVuSans-2e"/>
     <use x="3330.689453" xlink:href="#DejaVuSans-6c"/>
     <use x="3358.472656" xlink:href="#DejaVuSans-6f"/>
     <use x="3419.654297" xlink:href="#DejaVuSans-67"/>
     <use x="3483.130859" xlink:href="#DejaVuSans-69"/>
     <use x="3510.914062" xlink:href="#DejaVuSans-63"/>
     <use x="3565.894531" xlink:href="#DejaVuSans-2e"/>
     <use x="3597.681641" xlink:href="#DejaVuSans-50"/>
     <use x="3657.96875" xlink:href="#DejaVuSans-72"/>
     <use x="3699.050781" xlink:href="#DejaVuSans-6f"/>
     <use x="3760.232422" xlink:href="#DejaVuSans-70"/>
     <use x="3823.708984" xlink:href="#DejaVuSans-28"/>
     <use x="3862.722656" xlink:href="#DejaVuSans-27"/>
     <use x="3890.212891" xlink:href="#DejaVuSans-33"/>
     <use x="3953.835938" xlink:href="#DejaVuSans-38"/>
     <use x="4017.458984" xlink:href="#DejaVuSans-33"/>
     <use x="4081.082031" xlink:href="#DejaVuSans-27"/>
     <use x="4108.572266" xlink:href="#DejaVuSans-29"/>
     <use x="4147.585938" xlink:href="#DejaVuSans-26"/>
    </g>
    <!-- pyprover.logic.Prop('385')&amp; pyprover.logic.Prop('387') -->
    <g transform="translate(391.058437 66.4)scale(0.12 -0.12)">
     <use xlink:href="#DejaVuSans-70"/>
     <use x="63.476562" xlink:href="#DejaVuSans-79"/>
     <use x="122.65625" xlink:href="#DejaVuSans-70"/>
     <use x="186.132812" xlink:href="#DejaVuSans-72"/>
     <use x="227.214844" xlink:href="#DejaVuSans-6f"/>
     <use x="288.396484" xlink:href="#DejaVuSans-76"/>
     <use x="347.576172" xlink:href="#DejaVuSans-65"/>
     <use x="409.099609" xlink:href="#DejaVuSans-72"/>
     <use x="450.072266" xlink:href="#DejaVuSans-2e"/>
     <use x="481.859375" xlink:href="#DejaVuSans-6c"/>
     <use x="509.642578" xlink:href="#DejaVuSans-6f"/>
     <use x="570.824219" xlink:href="#DejaVuSans-67"/>
     <use x="634.300781" xlink:href="#DejaVuSans-69"/>
     <use x="662.083984" xlink:href="#DejaVuSans-63"/>
     <use x="717.064453" xlink:href="#DejaVuSans-2e"/>
     <use x="748.851562" xlink:href="#DejaVuSans-50"/>
     <use x="809.138672" xlink:href="#DejaVuSans-72"/>
     <use x="850.220703" xlink:href="#DejaVuSans-6f"/>
     <use x="911.402344" xlink:href="#DejaVuSans-70"/>
     <use x="974.878906" xlink:href="#DejaVuSans-28"/>
     <use x="1013.892578" xlink:href="#DejaVuSans-27"/>
     <use x="1041.382812" xlink:href="#DejaVuSans-33"/>
     <use x="1105.005859" xlink:href="#DejaVuSans-38"/>
     <use x="1168.628906" xlink:href="#DejaVuSans-35"/>
     <use x="1232.251953" xlink:href="#DejaVuSans-27"/>
     <use x="1259.742188" xlink:href="#DejaVuSans-29"/>
     <use x="1298.755859" xlink:href="#DejaVuSans-26"/>
     <use x="1376.734375" xlink:href="#DejaVuSans-20"/>
     <use x="1408.521484" xlink:href="#DejaVuSans-70"/>
     <use x="1471.998047" xlink:href="#DejaVuSans-79"/>
     <use x="1531.177734" xlink:href="#DejaVuSans-70"/>
     <use x="1594.654297" xlink:href="#DejaVuSans-72"/>
     <use x="1635.736328" xlink:href="#DejaVuSans-6f"/>
     <use x="1696.917969" xlink:href="#DejaVuSans-76"/>
     <use x="1756.097656" xlink:href="#DejaVuSans-65"/>
     <use x="1817.621094" xlink:href="#DejaVuSans-72"/>
     <use x="1858.59375" xlink:href="#DejaVuSans-2e"/>
     <use x="1890.380859" xlink:href="#DejaVuSans-6c"/>
     <use x="1918.164062" xlink:href="#DejaVuSans-6f"/>
     <use x="1979.345703" xlink:href="#DejaVuSans-67"/>
     <use x="2042.822266" xlink:href="#DejaVuSans-69"/>
     <use x="2070.605469" xlink:href="#DejaVuSans-63"/>
     <use x="2125.585938" xlink:href="#DejaVuSans-2e"/>
     <use x="2157.373047" xlink:href="#DejaVuSans-50"/>
     <use x="2217.660156" xlink:href="#DejaVuSans-72"/>
     <use x="2258.742188" xlink:href="#DejaVuSans-6f"/>
     <use x="2319.923828" xlink:href="#DejaVuSans-70"/>
     <use x="2383.400391" xlink:href="#DejaVuSans-28"/>
     <use x="2422.414062" xlink:href="#DejaVuSans-27"/>
     <use x="2449.904297" xlink:href="#DejaVuSans-33"/>
     <use x="2513.527344" xlink:href="#DejaVuSans-38"/>
     <use x="2577.150391" xlink:href="#DejaVuSans-37"/>
     <use x="2640.773438" xlink:href="#DejaVuSans-27"/>
     <use x="2668.263672" xlink:href="#DejaVuSans-29"/>
    </g>
   </g>
  </g>
 </g>
 <defs>
  <clipPath id="p94a50ab09e">
   <rect height="554.4" width="837" x="135" y="86.4"/>
  </clipPath>
 </defs>
</svg>
