<?xml version="1.0" encoding="utf-8" standalone="no"?>
<!DOCTYPE svg PUBLIC "-//W3C//DTD SVG 1.1//EN"
  "http://www.w3.org/Graphics/SVG/1.1/DTD/svg11.dtd">
<!-- Created with matplotlib (http://matplotlib.org/) -->
<svg height="720pt" version="1.1" viewBox="0 0 1080 720" width="1080pt" xmlns="http://www.w3.org/2000/svg" xmlns:xlink="http://www.w3.org/1999/xlink">
 <defs>
  <style type="text/css">
*{stroke-linecap:butt;stroke-linejoin:round;}
  </style>
 </defs>
 <g id="figure_1">
  <g id="patch_1">
   <path d="M 0 720 
L 1080 720 
L 1080 0 
L 0 0 
z
" style="fill:#ffffff;"/>
  </g>
  <g id="axes_1">
   <g id="patch_2">
    <path clip-path="url(#p7f3421e653)" d="M 553.5 134.509091 
Q 553.5 208.372172 553.5 278.881152 
" style="fill:none;stroke:#000000;stroke-linecap:round;stroke-width:3;"/>
    <path clip-path="url(#p7f3421e653)" d="M 555.9 274.081152 
L 553.5 278.881152 
L 551.1 274.081152 
L 555.9 274.081152 
z
" style="stroke:#000000;stroke-linecap:round;stroke-width:3;"/>
   </g>
   <g id="patch_3">
    <path clip-path="url(#p7f3421e653)" d="M 553.5 287.236364 
Q 382.852603 362.59034 215.273479 436.589437 
" style="fill:none;stroke:#000000;stroke-linecap:round;stroke-width:3;"/>
    <path clip-path="url(#p7f3421e653)" d="M 220.633907 436.845969 
L 215.273479 436.589437 
L 218.694962 432.455014 
L 220.633907 436.845969 
z
" style="stroke:#000000;stroke-linecap:round;stroke-width:3;"/>
   </g>
   <g id="patch_4">
    <path clip-path="url(#p7f3421e653)" d="M 553.5 287.236364 
Q 724.147397 362.59034 891.726521 436.589437 
" style="fill:none;stroke:#000000;stroke-linecap:round;stroke-width:3;"/>
    <path clip-path="url(#p7f3421e653)" d="M 888.305038 432.455014 
L 891.726521 436.589437 
L 886.366093 436.845969 
L 888.305038 432.455014 
z
" style="stroke:#000000;stroke-linecap:round;stroke-width:3;"/>
   </g>
   <g id="patch_5">
    <path clip-path="url(#p7f3421e653)" d="M 207.632231 439.963636 
Q 207.632231 513.826718 207.632231 584.335697 
" style="fill:none;stroke:#000000;stroke-linecap:round;stroke-width:3;"/>
    <path clip-path="url(#p7f3421e653)" d="M 210.032231 579.535697 
L 207.632231 584.335697 
L 205.232231 579.535697 
L 210.032231 579.535697 
z
" style="stroke:#000000;stroke-linecap:round;stroke-width:3;"/>
   </g>
   <g id="PathCollection_1">
    <defs>
     <path d="M 0 5 
C 1.326016 5 2.597899 4.473168 3.535534 3.535534 
C 4.473168 2.597899 5 1.326016 5 0 
C 5 -1.326016 4.473168 -2.597899 3.535534 -3.535534 
C 2.597899 -4.473168 1.326016 -5 0 -5 
C -1.326016 -5 -2.597899 -4.473168 -3.535534 -3.535534 
C -4.473168 -2.597899 -5 -1.326016 -5 0 
C -5 1.326016 -4.473168 2.597899 -3.535534 3.535534 
C -2.597899 4.473168 -1.326016 5 0 5 
z
" id="meee73483f3" style="stroke:#0000ff;"/>
    </defs>
    <g clip-path="url(#p7f3421e653)">
     <use style="fill:#0000ff;stroke:#0000ff;" x="553.5" xlink:href="#meee73483f3" y="134.509091"/>
     <use style="fill:#0000ff;stroke:#0000ff;" x="553.5" xlink:href="#meee73483f3" y="287.236364"/>
     <use style="fill:#0000ff;stroke:#0000ff;" x="207.632231" xlink:href="#meee73483f3" y="439.963636"/>
     <use style="fill:#0000ff;stroke:#0000ff;" x="207.632231" xlink:href="#meee73483f3" y="592.690909"/>
     <use style="fill:#0000ff;stroke:#0000ff;" x="899.367769" xlink:href="#meee73483f3" y="439.963636"/>
    </g>
   </g>
   <g id="text_1">
    <g clip-path="url(#p7f3421e653)">
     <!-- 25  On the other hand , things -->
     <defs>
      <path d="M 19.1875 8.296875 
L 53.609375 8.296875 
L 53.609375 0 
L 7.328125 0 
L 7.328125 8.296875 
Q 12.9375 14.109375 22.625 23.890625 
Q 32.328125 33.6875 34.8125 36.53125 
Q 39.546875 41.84375 41.421875 45.53125 
Q 43.3125 49.21875 43.3125 52.78125 
Q 43.3125 58.59375 39.234375 62.25 
Q 35.15625 65.921875 28.609375 65.921875 
Q 23.96875 65.921875 18.8125 64.3125 
Q 13.671875 62.703125 7.8125 59.421875 
L 7.8125 69.390625 
Q 13.765625 71.78125 18.9375 73 
Q 24.125 74.21875 28.421875 74.21875 
Q 39.75 74.21875 46.484375 68.546875 
Q 53.21875 62.890625 53.21875 53.421875 
Q 53.21875 48.921875 51.53125 44.890625 
Q 49.859375 40.875 45.40625 35.40625 
Q 44.1875 33.984375 37.640625 27.21875 
Q 31.109375 20.453125 19.1875 8.296875 
z
" id="DejaVuSans-32"/>
      <path d="M 10.796875 72.90625 
L 49.515625 72.90625 
L 49.515625 64.59375 
L 19.828125 64.59375 
L 19.828125 46.734375 
Q 21.96875 47.46875 24.109375 47.828125 
Q 26.265625 48.1875 28.421875 48.1875 
Q 40.625 48.1875 47.75 41.5 
Q 54.890625 34.8125 54.890625 23.390625 
Q 54.890625 11.625 47.5625 5.09375 
Q 40.234375 -1.421875 26.90625 -1.421875 
Q 22.3125 -1.421875 17.546875 -0.640625 
Q 12.796875 0.140625 7.71875 1.703125 
L 7.71875 11.625 
Q 12.109375 9.234375 16.796875 8.0625 
Q 21.484375 6.890625 26.703125 6.890625 
Q 35.15625 6.890625 40.078125 11.328125 
Q 45.015625 15.765625 45.015625 23.390625 
Q 45.015625 31 40.078125 35.4375 
Q 35.15625 39.890625 26.703125 39.890625 
Q 22.75 39.890625 18.8125 39.015625 
Q 14.890625 38.140625 10.796875 36.28125 
z
" id="DejaVuSans-35"/>
      <path id="DejaVuSans-20"/>
      <path d="M 39.40625 66.21875 
Q 28.65625 66.21875 22.328125 58.203125 
Q 16.015625 50.203125 16.015625 36.375 
Q 16.015625 22.609375 22.328125 14.59375 
Q 28.65625 6.59375 39.40625 6.59375 
Q 50.140625 6.59375 56.421875 14.59375 
Q 62.703125 22.609375 62.703125 36.375 
Q 62.703125 50.203125 56.421875 58.203125 
Q 50.140625 66.21875 39.40625 66.21875 
z
M 39.40625 74.21875 
Q 54.734375 74.21875 63.90625 63.9375 
Q 73.09375 53.65625 73.09375 36.375 
Q 73.09375 19.140625 63.90625 8.859375 
Q 54.734375 -1.421875 39.40625 -1.421875 
Q 24.03125 -1.421875 14.8125 8.828125 
Q 5.609375 19.09375 5.609375 36.375 
Q 5.609375 53.65625 14.8125 63.9375 
Q 24.03125 74.21875 39.40625 74.21875 
z
" id="DejaVuSans-4f"/>
      <path d="M 54.890625 33.015625 
L 54.890625 0 
L 45.90625 0 
L 45.90625 32.71875 
Q 45.90625 40.484375 42.875 44.328125 
Q 39.84375 48.1875 33.796875 48.1875 
Q 26.515625 48.1875 22.3125 43.546875 
Q 18.109375 38.921875 18.109375 30.90625 
L 18.109375 0 
L 9.078125 0 
L 9.078125 54.6875 
L 18.109375 54.6875 
L 18.109375 46.1875 
Q 21.34375 51.125 25.703125 53.5625 
Q 30.078125 56 35.796875 56 
Q 45.21875 56 50.046875 50.171875 
Q 54.890625 44.34375 54.890625 33.015625 
z
" id="DejaVuSans-6e"/>
      <path d="M 18.3125 70.21875 
L 18.3125 54.6875 
L 36.8125 54.6875 
L 36.8125 47.703125 
L 18.3125 47.703125 
L 18.3125 18.015625 
Q 18.3125 11.328125 20.140625 9.421875 
Q 21.96875 7.515625 27.59375 7.515625 
L 36.8125 7.515625 
L 36.8125 0 
L 27.59375 0 
Q 17.1875 0 13.234375 3.875 
Q 9.28125 7.765625 9.28125 18.015625 
L 9.28125 47.703125 
L 2.6875 47.703125 
L 2.6875 54.6875 
L 9.28125 54.6875 
L 9.28125 70.21875 
z
" id="DejaVuSans-74"/>
      <path d="M 54.890625 33.015625 
L 54.890625 0 
L 45.90625 0 
L 45.90625 32.71875 
Q 45.90625 40.484375 42.875 44.328125 
Q 39.84375 48.1875 33.796875 48.1875 
Q 26.515625 48.1875 22.3125 43.546875 
Q 18.109375 38.921875 18.109375 30.90625 
L 18.109375 0 
L 9.078125 0 
L 9.078125 75.984375 
L 18.109375 75.984375 
L 18.109375 46.1875 
Q 21.34375 51.125 25.703125 53.5625 
Q 30.078125 56 35.796875 56 
Q 45.21875 56 50.046875 50.171875 
Q 54.890625 44.34375 54.890625 33.015625 
z
" id="DejaVuSans-68"/>
      <path d="M 56.203125 29.59375 
L 56.203125 25.203125 
L 14.890625 25.203125 
Q 15.484375 15.921875 20.484375 11.0625 
Q 25.484375 6.203125 34.421875 6.203125 
Q 39.59375 6.203125 44.453125 7.46875 
Q 49.3125 8.734375 54.109375 11.28125 
L 54.109375 2.78125 
Q 49.265625 0.734375 44.1875 -0.34375 
Q 39.109375 -1.421875 33.890625 -1.421875 
Q 20.796875 -1.421875 13.15625 6.1875 
Q 5.515625 13.8125 5.515625 26.8125 
Q 5.515625 40.234375 12.765625 48.109375 
Q 20.015625 56 32.328125 56 
Q 43.359375 56 49.78125 48.890625 
Q 56.203125 41.796875 56.203125 29.59375 
z
M 47.21875 32.234375 
Q 47.125 39.59375 43.09375 43.984375 
Q 39.0625 48.390625 32.421875 48.390625 
Q 24.90625 48.390625 20.390625 44.140625 
Q 15.875 39.890625 15.1875 32.171875 
z
" id="DejaVuSans-65"/>
      <path d="M 30.609375 48.390625 
Q 23.390625 48.390625 19.1875 42.75 
Q 14.984375 37.109375 14.984375 27.296875 
Q 14.984375 17.484375 19.15625 11.84375 
Q 23.34375 6.203125 30.609375 6.203125 
Q 37.796875 6.203125 41.984375 11.859375 
Q 46.1875 17.53125 46.1875 27.296875 
Q 46.1875 37.015625 41.984375 42.703125 
Q 37.796875 48.390625 30.609375 48.390625 
z
M 30.609375 56 
Q 42.328125 56 49.015625 48.375 
Q 55.71875 40.765625 55.71875 27.296875 
Q 55.71875 13.875 49.015625 6.21875 
Q 42.328125 -1.421875 30.609375 -1.421875 
Q 18.84375 -1.421875 12.171875 6.21875 
Q 5.515625 13.875 5.515625 27.296875 
Q 5.515625 40.765625 12.171875 48.375 
Q 18.84375 56 30.609375 56 
z
" id="DejaVuSans-6f"/>
      <path d="M 41.109375 46.296875 
Q 39.59375 47.171875 37.8125 47.578125 
Q 36.03125 48 33.890625 48 
Q 26.265625 48 22.1875 43.046875 
Q 18.109375 38.09375 18.109375 28.8125 
L 18.109375 0 
L 9.078125 0 
L 9.078125 54.6875 
L 18.109375 54.6875 
L 18.109375 46.1875 
Q 20.953125 51.171875 25.484375 53.578125 
Q 30.03125 56 36.53125 56 
Q 37.453125 56 38.578125 55.875 
Q 39.703125 55.765625 41.0625 55.515625 
z
" id="DejaVuSans-72"/>
      <path d="M 34.28125 27.484375 
Q 23.390625 27.484375 19.1875 25 
Q 14.984375 22.515625 14.984375 16.5 
Q 14.984375 11.71875 18.140625 8.90625 
Q 21.296875 6.109375 26.703125 6.109375 
Q 34.1875 6.109375 38.703125 11.40625 
Q 43.21875 16.703125 43.21875 25.484375 
L 43.21875 27.484375 
z
M 52.203125 31.203125 
L 52.203125 0 
L 43.21875 0 
L 43.21875 8.296875 
Q 40.140625 3.328125 35.546875 0.953125 
Q 30.953125 -1.421875 24.3125 -1.421875 
Q 15.921875 -1.421875 10.953125 3.296875 
Q 6 8.015625 6 15.921875 
Q 6 25.140625 12.171875 29.828125 
Q 18.359375 34.515625 30.609375 34.515625 
L 43.21875 34.515625 
L 43.21875 35.40625 
Q 43.21875 41.609375 39.140625 45 
Q 35.0625 48.390625 27.6875 48.390625 
Q 23 48.390625 18.546875 47.265625 
Q 14.109375 46.140625 10.015625 43.890625 
L 10.015625 52.203125 
Q 14.9375 54.109375 19.578125 55.046875 
Q 24.21875 56 28.609375 56 
Q 40.484375 56 46.34375 49.84375 
Q 52.203125 43.703125 52.203125 31.203125 
z
" id="DejaVuSans-61"/>
      <path d="M 45.40625 46.390625 
L 45.40625 75.984375 
L 54.390625 75.984375 
L 54.390625 0 
L 45.40625 0 
L 45.40625 8.203125 
Q 42.578125 3.328125 38.25 0.953125 
Q 33.9375 -1.421875 27.875 -1.421875 
Q 17.96875 -1.421875 11.734375 6.484375 
Q 5.515625 14.40625 5.515625 27.296875 
Q 5.515625 40.1875 11.734375 48.09375 
Q 17.96875 56 27.875 56 
Q 33.9375 56 38.25 53.625 
Q 42.578125 51.265625 45.40625 46.390625 
z
M 14.796875 27.296875 
Q 14.796875 17.390625 18.875 11.75 
Q 22.953125 6.109375 30.078125 6.109375 
Q 37.203125 6.109375 41.296875 11.75 
Q 45.40625 17.390625 45.40625 27.296875 
Q 45.40625 37.203125 41.296875 42.84375 
Q 37.203125 48.484375 30.078125 48.484375 
Q 22.953125 48.484375 18.875 42.84375 
Q 14.796875 37.203125 14.796875 27.296875 
z
" id="DejaVuSans-64"/>
      <path d="M 11.71875 12.40625 
L 22.015625 12.40625 
L 22.015625 4 
L 14.015625 -11.625 
L 7.71875 -11.625 
L 11.71875 4 
z
" id="DejaVuSans-2c"/>
      <path d="M 9.421875 54.6875 
L 18.40625 54.6875 
L 18.40625 0 
L 9.421875 0 
z
M 9.421875 75.984375 
L 18.40625 75.984375 
L 18.40625 64.59375 
L 9.421875 64.59375 
z
" id="DejaVuSans-69"/>
      <path d="M 45.40625 27.984375 
Q 45.40625 37.75 41.375 43.109375 
Q 37.359375 48.484375 30.078125 48.484375 
Q 22.859375 48.484375 18.828125 43.109375 
Q 14.796875 37.75 14.796875 27.984375 
Q 14.796875 18.265625 18.828125 12.890625 
Q 22.859375 7.515625 30.078125 7.515625 
Q 37.359375 7.515625 41.375 12.890625 
Q 45.40625 18.265625 45.40625 27.984375 
z
M 54.390625 6.78125 
Q 54.390625 -7.171875 48.1875 -13.984375 
Q 42 -20.796875 29.203125 -20.796875 
Q 24.46875 -20.796875 20.265625 -20.09375 
Q 16.0625 -19.390625 12.109375 -17.921875 
L 12.109375 -9.1875 
Q 16.0625 -11.328125 19.921875 -12.34375 
Q 23.78125 -13.375 27.78125 -13.375 
Q 36.625 -13.375 41.015625 -8.765625 
Q 45.40625 -4.15625 45.40625 5.171875 
L 45.40625 9.625 
Q 42.625 4.78125 38.28125 2.390625 
Q 33.9375 0 27.875 0 
Q 17.828125 0 11.671875 7.65625 
Q 5.515625 15.328125 5.515625 27.984375 
Q 5.515625 40.671875 11.671875 48.328125 
Q 17.828125 56 27.875 56 
Q 33.9375 56 38.28125 53.609375 
Q 42.625 51.21875 45.40625 46.390625 
L 45.40625 54.6875 
L 54.390625 54.6875 
z
" id="DejaVuSans-67"/>
      <path d="M 44.28125 53.078125 
L 44.28125 44.578125 
Q 40.484375 46.53125 36.375 47.5 
Q 32.28125 48.484375 27.875 48.484375 
Q 21.1875 48.484375 17.84375 46.4375 
Q 14.5 44.390625 14.5 40.28125 
Q 14.5 37.15625 16.890625 35.375 
Q 19.28125 33.59375 26.515625 31.984375 
L 29.59375 31.296875 
Q 39.15625 29.25 43.1875 25.515625 
Q 47.21875 21.78125 47.21875 15.09375 
Q 47.21875 7.46875 41.1875 3.015625 
Q 35.15625 -1.421875 24.609375 -1.421875 
Q 20.21875 -1.421875 15.453125 -0.5625 
Q 10.6875 0.296875 5.421875 2 
L 5.421875 11.28125 
Q 10.40625 8.6875 15.234375 7.390625 
Q 20.0625 6.109375 24.8125 6.109375 
Q 31.15625 6.109375 34.5625 8.28125 
Q 37.984375 10.453125 37.984375 14.40625 
Q 37.984375 18.0625 35.515625 20.015625 
Q 33.0625 21.96875 24.703125 23.78125 
L 21.578125 24.515625 
Q 13.234375 26.265625 9.515625 29.90625 
Q 5.8125 33.546875 5.8125 39.890625 
Q 5.8125 47.609375 11.28125 51.796875 
Q 16.75 56 26.8125 56 
Q 31.78125 56 36.171875 55.265625 
Q 40.578125 54.546875 44.28125 53.078125 
z
" id="DejaVuSans-73"/>
     </defs>
     <g transform="translate(477.753125 109.273935)scale(0.1 -0.1)">
      <use xlink:href="#DejaVuSans-32"/>
      <use x="63.623047" xlink:href="#DejaVuSans-35"/>
      <use x="127.246094" xlink:href="#DejaVuSans-20"/>
      <use x="159.033203" xlink:href="#DejaVuSans-20"/>
      <use x="190.820312" xlink:href="#DejaVuSans-4f"/>
      <use x="269.53125" xlink:href="#DejaVuSans-6e"/>
      <use x="332.910156" xlink:href="#DejaVuSans-20"/>
      <use x="364.697266" xlink:href="#DejaVuSans-74"/>
      <use x="403.90625" xlink:href="#DejaVuSans-68"/>
      <use x="467.285156" xlink:href="#DejaVuSans-65"/>
      <use x="528.808594" xlink:href="#DejaVuSans-20"/>
      <use x="560.595703" xlink:href="#DejaVuSans-6f"/>
      <use x="621.777344" xlink:href="#DejaVuSans-74"/>
      <use x="660.986328" xlink:href="#DejaVuSans-68"/>
      <use x="724.365234" xlink:href="#DejaVuSans-65"/>
      <use x="785.888672" xlink:href="#DejaVuSans-72"/>
      <use x="827.001953" xlink:href="#DejaVuSans-20"/>
      <use x="858.789062" xlink:href="#DejaVuSans-68"/>
      <use x="922.167969" xlink:href="#DejaVuSans-61"/>
      <use x="983.447266" xlink:href="#DejaVuSans-6e"/>
      <use x="1046.826172" xlink:href="#DejaVuSans-64"/>
      <use x="1110.302734" xlink:href="#DejaVuSans-20"/>
      <use x="1142.089844" xlink:href="#DejaVuSans-2c"/>
      <use x="1173.876953" xlink:href="#DejaVuSans-20"/>
      <use x="1205.664062" xlink:href="#DejaVuSans-74"/>
      <use x="1244.873047" xlink:href="#DejaVuSans-68"/>
      <use x="1308.251953" xlink:href="#DejaVuSans-69"/>
      <use x="1336.035156" xlink:href="#DejaVuSans-6e"/>
      <use x="1399.414062" xlink:href="#DejaVuSans-67"/>
      <use x="1462.890625" xlink:href="#DejaVuSans-73"/>
     </g>
    </g>
    <g clip-path="url(#p7f3421e653)">
     <!-- are said to be named -->
     <defs>
      <path d="M 48.6875 27.296875 
Q 48.6875 37.203125 44.609375 42.84375 
Q 40.53125 48.484375 33.40625 48.484375 
Q 26.265625 48.484375 22.1875 42.84375 
Q 18.109375 37.203125 18.109375 27.296875 
Q 18.109375 17.390625 22.1875 11.75 
Q 26.265625 6.109375 33.40625 6.109375 
Q 40.53125 6.109375 44.609375 11.75 
Q 48.6875 17.390625 48.6875 27.296875 
z
M 18.109375 46.390625 
Q 20.953125 51.265625 25.265625 53.625 
Q 29.59375 56 35.59375 56 
Q 45.5625 56 51.78125 48.09375 
Q 58.015625 40.1875 58.015625 27.296875 
Q 58.015625 14.40625 51.78125 6.484375 
Q 45.5625 -1.421875 35.59375 -1.421875 
Q 29.59375 -1.421875 25.265625 0.953125 
Q 20.953125 3.328125 18.109375 8.203125 
L 18.109375 0 
L 9.078125 0 
L 9.078125 75.984375 
L 18.109375 75.984375 
z
" id="DejaVuSans-62"/>
      <path d="M 52 44.1875 
Q 55.375 50.25 60.0625 53.125 
Q 64.75 56 71.09375 56 
Q 79.640625 56 84.28125 50.015625 
Q 88.921875 44.046875 88.921875 33.015625 
L 88.921875 0 
L 79.890625 0 
L 79.890625 32.71875 
Q 79.890625 40.578125 77.09375 44.375 
Q 74.3125 48.1875 68.609375 48.1875 
Q 61.625 48.1875 57.5625 43.546875 
Q 53.515625 38.921875 53.515625 30.90625 
L 53.515625 0 
L 44.484375 0 
L 44.484375 32.71875 
Q 44.484375 40.625 41.703125 44.40625 
Q 38.921875 48.1875 33.109375 48.1875 
Q 26.21875 48.1875 22.15625 43.53125 
Q 18.109375 38.875 18.109375 30.90625 
L 18.109375 0 
L 9.078125 0 
L 9.078125 54.6875 
L 18.109375 54.6875 
L 18.109375 46.1875 
Q 21.1875 51.21875 25.484375 53.609375 
Q 29.78125 56 35.6875 56 
Q 41.65625 56 45.828125 52.96875 
Q 50 49.953125 52 44.1875 
z
" id="DejaVuSans-6d"/>
     </defs>
     <g transform="translate(500.092969 120.471747)scale(0.1 -0.1)">
      <use xlink:href="#DejaVuSans-61"/>
      <use x="61.279297" xlink:href="#DejaVuSans-72"/>
      <use x="102.361328" xlink:href="#DejaVuSans-65"/>
      <use x="163.884766" xlink:href="#DejaVuSans-20"/>
      <use x="195.671875" xlink:href="#DejaVuSans-73"/>
      <use x="247.771484" xlink:href="#DejaVuSans-61"/>
      <use x="309.050781" xlink:href="#DejaVuSans-69"/>
      <use x="336.833984" xlink:href="#DejaVuSans-64"/>
      <use x="400.310547" xlink:href="#DejaVuSans-20"/>
      <use x="432.097656" xlink:href="#DejaVuSans-74"/>
      <use x="471.306641" xlink:href="#DejaVuSans-6f"/>
      <use x="532.488281" xlink:href="#DejaVuSans-20"/>
      <use x="564.275391" xlink:href="#DejaVuSans-62"/>
      <use x="627.751953" xlink:href="#DejaVuSans-65"/>
      <use x="689.275391" xlink:href="#DejaVuSans-20"/>
      <use x="721.0625" xlink:href="#DejaVuSans-6e"/>
      <use x="784.441406" xlink:href="#DejaVuSans-61"/>
      <use x="845.720703" xlink:href="#DejaVuSans-6d"/>
      <use x="943.132812" xlink:href="#DejaVuSans-65"/>
      <use x="1004.65625" xlink:href="#DejaVuSans-64"/>
     </g>
    </g>
    <g clip-path="url(#p7f3421e653)">
     <!-- Univocally which have both the -->
     <defs>
      <path d="M 8.6875 72.90625 
L 18.609375 72.90625 
L 18.609375 28.609375 
Q 18.609375 16.890625 22.84375 11.734375 
Q 27.09375 6.59375 36.625 6.59375 
Q 46.09375 6.59375 50.34375 11.734375 
Q 54.59375 16.890625 54.59375 28.609375 
L 54.59375 72.90625 
L 64.5 72.90625 
L 64.5 27.390625 
Q 64.5 13.140625 57.4375 5.859375 
Q 50.390625 -1.421875 36.625 -1.421875 
Q 22.796875 -1.421875 15.734375 5.859375 
Q 8.6875 13.140625 8.6875 27.390625 
z
" id="DejaVuSans-55"/>
      <path d="M 2.984375 54.6875 
L 12.5 54.6875 
L 29.59375 8.796875 
L 46.6875 54.6875 
L 56.203125 54.6875 
L 35.6875 0 
L 23.484375 0 
z
" id="DejaVuSans-76"/>
      <path d="M 48.78125 52.59375 
L 48.78125 44.1875 
Q 44.96875 46.296875 41.140625 47.34375 
Q 37.3125 48.390625 33.40625 48.390625 
Q 24.65625 48.390625 19.8125 42.84375 
Q 14.984375 37.3125 14.984375 27.296875 
Q 14.984375 17.28125 19.8125 11.734375 
Q 24.65625 6.203125 33.40625 6.203125 
Q 37.3125 6.203125 41.140625 7.25 
Q 44.96875 8.296875 48.78125 10.40625 
L 48.78125 2.09375 
Q 45.015625 0.34375 40.984375 -0.53125 
Q 36.96875 -1.421875 32.421875 -1.421875 
Q 20.0625 -1.421875 12.78125 6.34375 
Q 5.515625 14.109375 5.515625 27.296875 
Q 5.515625 40.671875 12.859375 48.328125 
Q 20.21875 56 33.015625 56 
Q 37.15625 56 41.109375 55.140625 
Q 45.0625 54.296875 48.78125 52.59375 
z
" id="DejaVuSans-63"/>
      <path d="M 9.421875 75.984375 
L 18.40625 75.984375 
L 18.40625 0 
L 9.421875 0 
z
" id="DejaVuSans-6c"/>
      <path d="M 32.171875 -5.078125 
Q 28.375 -14.84375 24.75 -17.8125 
Q 21.140625 -20.796875 15.09375 -20.796875 
L 7.90625 -20.796875 
L 7.90625 -13.28125 
L 13.1875 -13.28125 
Q 16.890625 -13.28125 18.9375 -11.515625 
Q 21 -9.765625 23.484375 -3.21875 
L 25.09375 0.875 
L 2.984375 54.6875 
L 12.5 54.6875 
L 29.59375 11.921875 
L 46.6875 54.6875 
L 56.203125 54.6875 
z
" id="DejaVuSans-79"/>
      <path d="M 4.203125 54.6875 
L 13.1875 54.6875 
L 24.421875 12.015625 
L 35.59375 54.6875 
L 46.1875 54.6875 
L 57.421875 12.015625 
L 68.609375 54.6875 
L 77.59375 54.6875 
L 63.28125 0 
L 52.6875 0 
L 40.921875 44.828125 
L 29.109375 0 
L 18.5 0 
z
" id="DejaVuSans-77"/>
     </defs>
     <g transform="translate(474.955469 131.66956)scale(0.1 -0.1)">
      <use xlink:href="#DejaVuSans-55"/>
      <use x="73.193359" xlink:href="#DejaVuSans-6e"/>
      <use x="136.572266" xlink:href="#DejaVuSans-69"/>
      <use x="164.355469" xlink:href="#DejaVuSans-76"/>
      <use x="223.535156" xlink:href="#DejaVuSans-6f"/>
      <use x="284.716797" xlink:href="#DejaVuSans-63"/>
      <use x="339.697266" xlink:href="#DejaVuSans-61"/>
      <use x="400.976562" xlink:href="#DejaVuSans-6c"/>
      <use x="428.759766" xlink:href="#DejaVuSans-6c"/>
      <use x="456.542969" xlink:href="#DejaVuSans-79"/>
      <use x="515.722656" xlink:href="#DejaVuSans-20"/>
      <use x="547.509766" xlink:href="#DejaVuSans-77"/>
      <use x="629.296875" xlink:href="#DejaVuSans-68"/>
      <use x="692.675781" xlink:href="#DejaVuSans-69"/>
      <use x="720.458984" xlink:href="#DejaVuSans-63"/>
      <use x="775.439453" xlink:href="#DejaVuSans-68"/>
      <use x="838.818359" xlink:href="#DejaVuSans-20"/>
      <use x="870.605469" xlink:href="#DejaVuSans-68"/>
      <use x="933.984375" xlink:href="#DejaVuSans-61"/>
      <use x="995.263672" xlink:href="#DejaVuSans-76"/>
      <use x="1054.443359" xlink:href="#DejaVuSans-65"/>
      <use x="1115.966797" xlink:href="#DejaVuSans-20"/>
      <use x="1147.753906" xlink:href="#DejaVuSans-62"/>
      <use x="1211.230469" xlink:href="#DejaVuSans-6f"/>
      <use x="1272.412109" xlink:href="#DejaVuSans-74"/>
      <use x="1311.621094" xlink:href="#DejaVuSans-68"/>
      <use x="1375" xlink:href="#DejaVuSans-20"/>
      <use x="1406.787109" xlink:href="#DejaVuSans-74"/>
      <use x="1445.996094" xlink:href="#DejaVuSans-68"/>
      <use x="1509.375" xlink:href="#DejaVuSans-65"/>
     </g>
    </g>
    <g clip-path="url(#p7f3421e653)">
     <!-- name and the definition -->
     <defs>
      <path d="M 37.109375 75.984375 
L 37.109375 68.5 
L 28.515625 68.5 
Q 23.6875 68.5 21.796875 66.546875 
Q 19.921875 64.59375 19.921875 59.515625 
L 19.921875 54.6875 
L 34.71875 54.6875 
L 34.71875 47.703125 
L 19.921875 47.703125 
L 19.921875 0 
L 10.890625 0 
L 10.890625 47.703125 
L 2.296875 47.703125 
L 2.296875 54.6875 
L 10.890625 54.6875 
L 10.890625 58.5 
Q 10.890625 67.625 15.140625 71.796875 
Q 19.390625 75.984375 28.609375 75.984375 
z
" id="DejaVuSans-66"/>
     </defs>
     <g transform="translate(493.405469 142.867372)scale(0.1 -0.1)">
      <use xlink:href="#DejaVuSans-6e"/>
      <use x="63.378906" xlink:href="#DejaVuSans-61"/>
      <use x="124.658203" xlink:href="#DejaVuSans-6d"/>
      <use x="222.070312" xlink:href="#DejaVuSans-65"/>
      <use x="283.59375" xlink:href="#DejaVuSans-20"/>
      <use x="315.380859" xlink:href="#DejaVuSans-61"/>
      <use x="376.660156" xlink:href="#DejaVuSans-6e"/>
      <use x="440.039062" xlink:href="#DejaVuSans-64"/>
      <use x="503.515625" xlink:href="#DejaVuSans-20"/>
      <use x="535.302734" xlink:href="#DejaVuSans-74"/>
      <use x="574.511719" xlink:href="#DejaVuSans-68"/>
      <use x="637.890625" xlink:href="#DejaVuSans-65"/>
      <use x="699.414062" xlink:href="#DejaVuSans-20"/>
      <use x="731.201172" xlink:href="#DejaVuSans-64"/>
      <use x="794.677734" xlink:href="#DejaVuSans-65"/>
      <use x="856.201172" xlink:href="#DejaVuSans-66"/>
      <use x="891.40625" xlink:href="#DejaVuSans-69"/>
      <use x="919.189453" xlink:href="#DejaVuSans-6e"/>
      <use x="982.568359" xlink:href="#DejaVuSans-69"/>
      <use x="1010.351562" xlink:href="#DejaVuSans-74"/>
      <use x="1049.560547" xlink:href="#DejaVuSans-69"/>
      <use x="1077.34375" xlink:href="#DejaVuSans-6f"/>
      <use x="1138.525391" xlink:href="#DejaVuSans-6e"/>
     </g>
    </g>
    <g clip-path="url(#p7f3421e653)">
     <!-- answering to the name in -->
     <g transform="translate(489.390625 154.065185)scale(0.1 -0.1)">
      <use xlink:href="#DejaVuSans-61"/>
      <use x="61.279297" xlink:href="#DejaVuSans-6e"/>
      <use x="124.658203" xlink:href="#DejaVuSans-73"/>
      <use x="176.757812" xlink:href="#DejaVuSans-77"/>
      <use x="258.544922" xlink:href="#DejaVuSans-65"/>
      <use x="320.068359" xlink:href="#DejaVuSans-72"/>
      <use x="361.181641" xlink:href="#DejaVuSans-69"/>
      <use x="388.964844" xlink:href="#DejaVuSans-6e"/>
      <use x="452.34375" xlink:href="#DejaVuSans-67"/>
      <use x="515.820312" xlink:href="#DejaVuSans-20"/>
      <use x="547.607422" xlink:href="#DejaVuSans-74"/>
      <use x="586.816406" xlink:href="#DejaVuSans-6f"/>
      <use x="647.998047" xlink:href="#DejaVuSans-20"/>
      <use x="679.785156" xlink:href="#DejaVuSans-74"/>
      <use x="718.994141" xlink:href="#DejaVuSans-68"/>
      <use x="782.373047" xlink:href="#DejaVuSans-65"/>
      <use x="843.896484" xlink:href="#DejaVuSans-20"/>
      <use x="875.683594" xlink:href="#DejaVuSans-6e"/>
      <use x="939.0625" xlink:href="#DejaVuSans-61"/>
      <use x="1000.341797" xlink:href="#DejaVuSans-6d"/>
      <use x="1097.753906" xlink:href="#DejaVuSans-65"/>
      <use x="1159.277344" xlink:href="#DejaVuSans-20"/>
      <use x="1191.064453" xlink:href="#DejaVuSans-69"/>
      <use x="1218.847656" xlink:href="#DejaVuSans-6e"/>
     </g>
    </g>
    <g clip-path="url(#p7f3421e653)">
     <!-- common . -->
     <defs>
      <path d="M 10.6875 12.40625 
L 21 12.40625 
L 21 0 
L 10.6875 0 
z
" id="DejaVuSans-2e"/>
     </defs>
     <g transform="translate(528.544531 165.262997)scale(0.1 -0.1)">
      <use xlink:href="#DejaVuSans-63"/>
      <use x="54.980469" xlink:href="#DejaVuSans-6f"/>
      <use x="116.162109" xlink:href="#DejaVuSans-6d"/>
      <use x="213.574219" xlink:href="#DejaVuSans-6d"/>
      <use x="310.986328" xlink:href="#DejaVuSans-6f"/>
      <use x="372.167969" xlink:href="#DejaVuSans-6e"/>
      <use x="435.546875" xlink:href="#DejaVuSans-20"/>
      <use x="467.333984" xlink:href="#DejaVuSans-2e"/>
     </g>
    </g>
   </g>
   <g id="text_2">
    <g clip-path="url(#p7f3421e653)">
     <!-- 23  On the other hand things -->
     <defs>
      <path d="M 40.578125 39.3125 
Q 47.65625 37.796875 51.625 33 
Q 55.609375 28.21875 55.609375 21.1875 
Q 55.609375 10.40625 48.1875 4.484375 
Q 40.765625 -1.421875 27.09375 -1.421875 
Q 22.515625 -1.421875 17.65625 -0.515625 
Q 12.796875 0.390625 7.625 2.203125 
L 7.625 11.71875 
Q 11.71875 9.328125 16.59375 8.109375 
Q 21.484375 6.890625 26.8125 6.890625 
Q 36.078125 6.890625 40.9375 10.546875 
Q 45.796875 14.203125 45.796875 21.1875 
Q 45.796875 27.640625 41.28125 31.265625 
Q 36.765625 34.90625 28.71875 34.90625 
L 20.21875 34.90625 
L 20.21875 43.015625 
L 29.109375 43.015625 
Q 36.375 43.015625 40.234375 45.921875 
Q 44.09375 48.828125 44.09375 54.296875 
Q 44.09375 59.90625 40.109375 62.90625 
Q 36.140625 65.921875 28.71875 65.921875 
Q 24.65625 65.921875 20.015625 65.03125 
Q 15.375 64.15625 9.8125 62.3125 
L 9.8125 71.09375 
Q 15.4375 72.65625 20.34375 73.4375 
Q 25.25 74.21875 29.59375 74.21875 
Q 40.828125 74.21875 47.359375 69.109375 
Q 53.90625 64.015625 53.90625 55.328125 
Q 53.90625 49.265625 50.4375 45.09375 
Q 46.96875 40.921875 40.578125 39.3125 
z
" id="DejaVuSans-33"/>
     </defs>
     <g transform="translate(480.93125 267.600114)scale(0.1 -0.1)">
      <use xlink:href="#DejaVuSans-32"/>
      <use x="63.623047" xlink:href="#DejaVuSans-33"/>
      <use x="127.246094" xlink:href="#DejaVuSans-20"/>
      <use x="159.033203" xlink:href="#DejaVuSans-20"/>
      <use x="190.820312" xlink:href="#DejaVuSans-4f"/>
      <use x="269.53125" xlink:href="#DejaVuSans-6e"/>
      <use x="332.910156" xlink:href="#DejaVuSans-20"/>
      <use x="364.697266" xlink:href="#DejaVuSans-74"/>
      <use x="403.90625" xlink:href="#DejaVuSans-68"/>
      <use x="467.285156" xlink:href="#DejaVuSans-65"/>
      <use x="528.808594" xlink:href="#DejaVuSans-20"/>
      <use x="560.595703" xlink:href="#DejaVuSans-6f"/>
      <use x="621.777344" xlink:href="#DejaVuSans-74"/>
      <use x="660.986328" xlink:href="#DejaVuSans-68"/>
      <use x="724.365234" xlink:href="#DejaVuSans-65"/>
      <use x="785.888672" xlink:href="#DejaVuSans-72"/>
      <use x="827.001953" xlink:href="#DejaVuSans-20"/>
      <use x="858.789062" xlink:href="#DejaVuSans-68"/>
      <use x="922.167969" xlink:href="#DejaVuSans-61"/>
      <use x="983.447266" xlink:href="#DejaVuSans-6e"/>
      <use x="1046.826172" xlink:href="#DejaVuSans-64"/>
      <use x="1110.302734" xlink:href="#DejaVuSans-20"/>
      <use x="1142.089844" xlink:href="#DejaVuSans-74"/>
      <use x="1181.298828" xlink:href="#DejaVuSans-68"/>
      <use x="1244.677734" xlink:href="#DejaVuSans-69"/>
      <use x="1272.460938" xlink:href="#DejaVuSans-6e"/>
      <use x="1335.839844" xlink:href="#DejaVuSans-67"/>
      <use x="1399.316406" xlink:href="#DejaVuSans-73"/>
     </g>
    </g>
    <g clip-path="url(#p7f3421e653)">
     <!-- are said to be named -->
     <g transform="translate(500.092969 278.797926)scale(0.1 -0.1)">
      <use xlink:href="#DejaVuSans-61"/>
      <use x="61.279297" xlink:href="#DejaVuSans-72"/>
      <use x="102.361328" xlink:href="#DejaVuSans-65"/>
      <use x="163.884766" xlink:href="#DejaVuSans-20"/>
      <use x="195.671875" xlink:href="#DejaVuSans-73"/>
      <use x="247.771484" xlink:href="#DejaVuSans-61"/>
      <use x="309.050781" xlink:href="#DejaVuSans-69"/>
      <use x="336.833984" xlink:href="#DejaVuSans-64"/>
      <use x="400.310547" xlink:href="#DejaVuSans-20"/>
      <use x="432.097656" xlink:href="#DejaVuSans-74"/>
      <use x="471.306641" xlink:href="#DejaVuSans-6f"/>
      <use x="532.488281" xlink:href="#DejaVuSans-20"/>
      <use x="564.275391" xlink:href="#DejaVuSans-62"/>
      <use x="627.751953" xlink:href="#DejaVuSans-65"/>
      <use x="689.275391" xlink:href="#DejaVuSans-20"/>
      <use x="721.0625" xlink:href="#DejaVuSans-6e"/>
      <use x="784.441406" xlink:href="#DejaVuSans-61"/>
      <use x="845.720703" xlink:href="#DejaVuSans-6d"/>
      <use x="943.132812" xlink:href="#DejaVuSans-65"/>
      <use x="1004.65625" xlink:href="#DejaVuSans-64"/>
     </g>
    </g>
    <g clip-path="url(#p7f3421e653)">
     <!-- Univocally which have both the -->
     <g transform="translate(474.955469 289.995739)scale(0.1 -0.1)">
      <use xlink:href="#DejaVuSans-55"/>
      <use x="73.193359" xlink:href="#DejaVuSans-6e"/>
      <use x="136.572266" xlink:href="#DejaVuSans-69"/>
      <use x="164.355469" xlink:href="#DejaVuSans-76"/>
      <use x="223.535156" xlink:href="#DejaVuSans-6f"/>
      <use x="284.716797" xlink:href="#DejaVuSans-63"/>
      <use x="339.697266" xlink:href="#DejaVuSans-61"/>
      <use x="400.976562" xlink:href="#DejaVuSans-6c"/>
      <use x="428.759766" xlink:href="#DejaVuSans-6c"/>
      <use x="456.542969" xlink:href="#DejaVuSans-79"/>
      <use x="515.722656" xlink:href="#DejaVuSans-20"/>
      <use x="547.509766" xlink:href="#DejaVuSans-77"/>
      <use x="629.296875" xlink:href="#DejaVuSans-68"/>
      <use x="692.675781" xlink:href="#DejaVuSans-69"/>
      <use x="720.458984" xlink:href="#DejaVuSans-63"/>
      <use x="775.439453" xlink:href="#DejaVuSans-68"/>
      <use x="838.818359" xlink:href="#DejaVuSans-20"/>
      <use x="870.605469" xlink:href="#DejaVuSans-68"/>
      <use x="933.984375" xlink:href="#DejaVuSans-61"/>
      <use x="995.263672" xlink:href="#DejaVuSans-76"/>
      <use x="1054.443359" xlink:href="#DejaVuSans-65"/>
      <use x="1115.966797" xlink:href="#DejaVuSans-20"/>
      <use x="1147.753906" xlink:href="#DejaVuSans-62"/>
      <use x="1211.230469" xlink:href="#DejaVuSans-6f"/>
      <use x="1272.412109" xlink:href="#DejaVuSans-74"/>
      <use x="1311.621094" xlink:href="#DejaVuSans-68"/>
      <use x="1375" xlink:href="#DejaVuSans-20"/>
      <use x="1406.787109" xlink:href="#DejaVuSans-74"/>
      <use x="1445.996094" xlink:href="#DejaVuSans-68"/>
      <use x="1509.375" xlink:href="#DejaVuSans-65"/>
     </g>
    </g>
    <g clip-path="url(#p7f3421e653)">
     <!-- name answering to the name in -->
     <g transform="translate(473.621875 301.193551)scale(0.1 -0.1)">
      <use xlink:href="#DejaVuSans-6e"/>
      <use x="63.378906" xlink:href="#DejaVuSans-61"/>
      <use x="124.658203" xlink:href="#DejaVuSans-6d"/>
      <use x="222.070312" xlink:href="#DejaVuSans-65"/>
      <use x="283.59375" xlink:href="#DejaVuSans-20"/>
      <use x="315.380859" xlink:href="#DejaVuSans-61"/>
      <use x="376.660156" xlink:href="#DejaVuSans-6e"/>
      <use x="440.039062" xlink:href="#DejaVuSans-73"/>
      <use x="492.138672" xlink:href="#DejaVuSans-77"/>
      <use x="573.925781" xlink:href="#DejaVuSans-65"/>
      <use x="635.449219" xlink:href="#DejaVuSans-72"/>
      <use x="676.5625" xlink:href="#DejaVuSans-69"/>
      <use x="704.345703" xlink:href="#DejaVuSans-6e"/>
      <use x="767.724609" xlink:href="#DejaVuSans-67"/>
      <use x="831.201172" xlink:href="#DejaVuSans-20"/>
      <use x="862.988281" xlink:href="#DejaVuSans-74"/>
      <use x="902.197266" xlink:href="#DejaVuSans-6f"/>
      <use x="963.378906" xlink:href="#DejaVuSans-20"/>
      <use x="995.166016" xlink:href="#DejaVuSans-74"/>
      <use x="1034.375" xlink:href="#DejaVuSans-68"/>
      <use x="1097.753906" xlink:href="#DejaVuSans-65"/>
      <use x="1159.277344" xlink:href="#DejaVuSans-20"/>
      <use x="1191.064453" xlink:href="#DejaVuSans-6e"/>
      <use x="1254.443359" xlink:href="#DejaVuSans-61"/>
      <use x="1315.722656" xlink:href="#DejaVuSans-6d"/>
      <use x="1413.134766" xlink:href="#DejaVuSans-65"/>
      <use x="1474.658203" xlink:href="#DejaVuSans-20"/>
      <use x="1506.445312" xlink:href="#DejaVuSans-69"/>
      <use x="1534.228516" xlink:href="#DejaVuSans-6e"/>
     </g>
    </g>
    <g clip-path="url(#p7f3421e653)">
     <!-- common -->
     <g transform="translate(531.722656 312.391364)scale(0.1 -0.1)">
      <use xlink:href="#DejaVuSans-63"/>
      <use x="54.980469" xlink:href="#DejaVuSans-6f"/>
      <use x="116.162109" xlink:href="#DejaVuSans-6d"/>
      <use x="213.574219" xlink:href="#DejaVuSans-6d"/>
      <use x="310.986328" xlink:href="#DejaVuSans-6f"/>
      <use x="372.167969" xlink:href="#DejaVuSans-6e"/>
     </g>
    </g>
   </g>
   <g id="text_3">
    <g clip-path="url(#p7f3421e653)">
     <!-- 24  which have both the name -->
     <defs>
      <path d="M 37.796875 64.3125 
L 12.890625 25.390625 
L 37.796875 25.390625 
z
M 35.203125 72.90625 
L 47.609375 72.90625 
L 47.609375 25.390625 
L 58.015625 25.390625 
L 58.015625 17.1875 
L 47.609375 17.1875 
L 47.609375 0 
L 37.796875 0 
L 37.796875 17.1875 
L 4.890625 17.1875 
L 4.890625 26.703125 
z
" id="DejaVuSans-34"/>
     </defs>
     <g transform="translate(131.154106 431.525199)scale(0.1 -0.1)">
      <use xlink:href="#DejaVuSans-32"/>
      <use x="63.623047" xlink:href="#DejaVuSans-34"/>
      <use x="127.246094" xlink:href="#DejaVuSans-20"/>
      <use x="159.033203" xlink:href="#DejaVuSans-20"/>
      <use x="190.820312" xlink:href="#DejaVuSans-77"/>
      <use x="272.607422" xlink:href="#DejaVuSans-68"/>
      <use x="335.986328" xlink:href="#DejaVuSans-69"/>
      <use x="363.769531" xlink:href="#DejaVuSans-63"/>
      <use x="418.75" xlink:href="#DejaVuSans-68"/>
      <use x="482.128906" xlink:href="#DejaVuSans-20"/>
      <use x="513.916016" xlink:href="#DejaVuSans-68"/>
      <use x="577.294922" xlink:href="#DejaVuSans-61"/>
      <use x="638.574219" xlink:href="#DejaVuSans-76"/>
      <use x="697.753906" xlink:href="#DejaVuSans-65"/>
      <use x="759.277344" xlink:href="#DejaVuSans-20"/>
      <use x="791.064453" xlink:href="#DejaVuSans-62"/>
      <use x="854.541016" xlink:href="#DejaVuSans-6f"/>
      <use x="915.722656" xlink:href="#DejaVuSans-74"/>
      <use x="954.931641" xlink:href="#DejaVuSans-68"/>
      <use x="1018.310547" xlink:href="#DejaVuSans-20"/>
      <use x="1050.097656" xlink:href="#DejaVuSans-74"/>
      <use x="1089.306641" xlink:href="#DejaVuSans-68"/>
      <use x="1152.685547" xlink:href="#DejaVuSans-65"/>
      <use x="1214.208984" xlink:href="#DejaVuSans-20"/>
      <use x="1245.996094" xlink:href="#DejaVuSans-6e"/>
      <use x="1309.375" xlink:href="#DejaVuSans-61"/>
      <use x="1370.654297" xlink:href="#DejaVuSans-6d"/>
      <use x="1468.066406" xlink:href="#DejaVuSans-65"/>
     </g>
    </g>
    <g clip-path="url(#p7f3421e653)">
     <!-- answering to the name in -->
     <g transform="translate(143.522856 442.723011)scale(0.1 -0.1)">
      <use xlink:href="#DejaVuSans-61"/>
      <use x="61.279297" xlink:href="#DejaVuSans-6e"/>
      <use x="124.658203" xlink:href="#DejaVuSans-73"/>
      <use x="176.757812" xlink:href="#DejaVuSans-77"/>
      <use x="258.544922" xlink:href="#DejaVuSans-65"/>
      <use x="320.068359" xlink:href="#DejaVuSans-72"/>
      <use x="361.181641" xlink:href="#DejaVuSans-69"/>
      <use x="388.964844" xlink:href="#DejaVuSans-6e"/>
      <use x="452.34375" xlink:href="#DejaVuSans-67"/>
      <use x="515.820312" xlink:href="#DejaVuSans-20"/>
      <use x="547.607422" xlink:href="#DejaVuSans-74"/>
      <use x="586.816406" xlink:href="#DejaVuSans-6f"/>
      <use x="647.998047" xlink:href="#DejaVuSans-20"/>
      <use x="679.785156" xlink:href="#DejaVuSans-74"/>
      <use x="718.994141" xlink:href="#DejaVuSans-68"/>
      <use x="782.373047" xlink:href="#DejaVuSans-65"/>
      <use x="843.896484" xlink:href="#DejaVuSans-20"/>
      <use x="875.683594" xlink:href="#DejaVuSans-6e"/>
      <use x="939.0625" xlink:href="#DejaVuSans-61"/>
      <use x="1000.341797" xlink:href="#DejaVuSans-6d"/>
      <use x="1097.753906" xlink:href="#DejaVuSans-65"/>
      <use x="1159.277344" xlink:href="#DejaVuSans-20"/>
      <use x="1191.064453" xlink:href="#DejaVuSans-69"/>
      <use x="1218.847656" xlink:href="#DejaVuSans-6e"/>
     </g>
    </g>
    <g clip-path="url(#p7f3421e653)">
     <!-- common -->
     <g transform="translate(185.854888 453.920824)scale(0.1 -0.1)">
      <use xlink:href="#DejaVuSans-63"/>
      <use x="54.980469" xlink:href="#DejaVuSans-6f"/>
      <use x="116.162109" xlink:href="#DejaVuSans-6d"/>
      <use x="213.574219" xlink:href="#DejaVuSans-6d"/>
      <use x="310.986328" xlink:href="#DejaVuSans-6f"/>
      <use x="372.167969" xlink:href="#DejaVuSans-6e"/>
     </g>
    </g>
   </g>
   <g id="text_4">
    <g clip-path="url(#p7f3421e653)">
     <!-- 22  both the name answering to -->
     <g transform="translate(127.177544 589.851378)scale(0.1 -0.1)">
      <use xlink:href="#DejaVuSans-32"/>
      <use x="63.623047" xlink:href="#DejaVuSans-32"/>
      <use x="127.246094" xlink:href="#DejaVuSans-20"/>
      <use x="159.033203" xlink:href="#DejaVuSans-20"/>
      <use x="190.820312" xlink:href="#DejaVuSans-62"/>
      <use x="254.296875" xlink:href="#DejaVuSans-6f"/>
      <use x="315.478516" xlink:href="#DejaVuSans-74"/>
      <use x="354.6875" xlink:href="#DejaVuSans-68"/>
      <use x="418.066406" xlink:href="#DejaVuSans-20"/>
      <use x="449.853516" xlink:href="#DejaVuSans-74"/>
      <use x="489.0625" xlink:href="#DejaVuSans-68"/>
      <use x="552.441406" xlink:href="#DejaVuSans-65"/>
      <use x="613.964844" xlink:href="#DejaVuSans-20"/>
      <use x="645.751953" xlink:href="#DejaVuSans-6e"/>
      <use x="709.130859" xlink:href="#DejaVuSans-61"/>
      <use x="770.410156" xlink:href="#DejaVuSans-6d"/>
      <use x="867.822266" xlink:href="#DejaVuSans-65"/>
      <use x="929.345703" xlink:href="#DejaVuSans-20"/>
      <use x="961.132812" xlink:href="#DejaVuSans-61"/>
      <use x="1022.412109" xlink:href="#DejaVuSans-6e"/>
      <use x="1085.791016" xlink:href="#DejaVuSans-73"/>
      <use x="1137.890625" xlink:href="#DejaVuSans-77"/>
      <use x="1219.677734" xlink:href="#DejaVuSans-65"/>
      <use x="1281.201172" xlink:href="#DejaVuSans-72"/>
      <use x="1322.314453" xlink:href="#DejaVuSans-69"/>
      <use x="1350.097656" xlink:href="#DejaVuSans-6e"/>
      <use x="1413.476562" xlink:href="#DejaVuSans-67"/>
      <use x="1476.953125" xlink:href="#DejaVuSans-20"/>
      <use x="1508.740234" xlink:href="#DejaVuSans-74"/>
      <use x="1547.949219" xlink:href="#DejaVuSans-6f"/>
     </g>
    </g>
    <g clip-path="url(#p7f3421e653)">
     <!-- the name in common -->
     <g transform="translate(154.144731 601.04919)scale(0.1 -0.1)">
      <use xlink:href="#DejaVuSans-74"/>
      <use x="39.208984" xlink:href="#DejaVuSans-68"/>
      <use x="102.587891" xlink:href="#DejaVuSans-65"/>
      <use x="164.111328" xlink:href="#DejaVuSans-20"/>
      <use x="195.898438" xlink:href="#DejaVuSans-6e"/>
      <use x="259.277344" xlink:href="#DejaVuSans-61"/>
      <use x="320.556641" xlink:href="#DejaVuSans-6d"/>
      <use x="417.96875" xlink:href="#DejaVuSans-65"/>
      <use x="479.492188" xlink:href="#DejaVuSans-20"/>
      <use x="511.279297" xlink:href="#DejaVuSans-69"/>
      <use x="539.0625" xlink:href="#DejaVuSans-6e"/>
      <use x="602.441406" xlink:href="#DejaVuSans-20"/>
      <use x="634.228516" xlink:href="#DejaVuSans-63"/>
      <use x="689.208984" xlink:href="#DejaVuSans-6f"/>
      <use x="750.390625" xlink:href="#DejaVuSans-6d"/>
      <use x="847.802734" xlink:href="#DejaVuSans-6d"/>
      <use x="945.214844" xlink:href="#DejaVuSans-6f"/>
      <use x="1006.396484" xlink:href="#DejaVuSans-6e"/>
     </g>
    </g>
   </g>
   <g id="text_5">
    <g clip-path="url(#p7f3421e653)">
     <!-- 21  the other hand -->
     <defs>
      <path d="M 12.40625 8.296875 
L 28.515625 8.296875 
L 28.515625 63.921875 
L 10.984375 60.40625 
L 10.984375 69.390625 
L 28.421875 72.90625 
L 38.28125 72.90625 
L 38.28125 8.296875 
L 54.390625 8.296875 
L 54.390625 0 
L 12.40625 0 
z
" id="DejaVuSans-31"/>
     </defs>
     <g transform="translate(852.547456 442.723011)scale(0.1 -0.1)">
      <use xlink:href="#DejaVuSans-32"/>
      <use x="63.623047" xlink:href="#DejaVuSans-31"/>
      <use x="127.246094" xlink:href="#DejaVuSans-20"/>
      <use x="159.033203" xlink:href="#DejaVuSans-20"/>
      <use x="190.820312" xlink:href="#DejaVuSans-74"/>
      <use x="230.029297" xlink:href="#DejaVuSans-68"/>
      <use x="293.408203" xlink:href="#DejaVuSans-65"/>
      <use x="354.931641" xlink:href="#DejaVuSans-20"/>
      <use x="386.71875" xlink:href="#DejaVuSans-6f"/>
      <use x="447.900391" xlink:href="#DejaVuSans-74"/>
      <use x="487.109375" xlink:href="#DejaVuSans-68"/>
      <use x="550.488281" xlink:href="#DejaVuSans-65"/>
      <use x="612.011719" xlink:href="#DejaVuSans-72"/>
      <use x="653.125" xlink:href="#DejaVuSans-20"/>
      <use x="684.912109" xlink:href="#DejaVuSans-68"/>
      <use x="748.291016" xlink:href="#DejaVuSans-61"/>
      <use x="809.570312" xlink:href="#DejaVuSans-6e"/>
      <use x="872.949219" xlink:href="#DejaVuSans-64"/>
     </g>
    </g>
   </g>
   <g id="text_6">
    <!-- On the other hand , things are said to be named Univocally which have both the name and -->
    <g transform="translate(279.779063 12.6505)scale(0.12 -0.12)">
     <use xlink:href="#DejaVuSans-4f"/>
     <use x="78.710938" xlink:href="#DejaVuSans-6e"/>
     <use x="142.089844" xlink:href="#DejaVuSans-20"/>
     <use x="173.876953" xlink:href="#DejaVuSans-74"/>
     <use x="213.085938" xlink:href="#DejaVuSans-68"/>
     <use x="276.464844" xlink:href="#DejaVuSans-65"/>
     <use x="337.988281" xlink:href="#DejaVuSans-20"/>
     <use x="369.775391" xlink:href="#DejaVuSans-6f"/>
     <use x="430.957031" xlink:href="#DejaVuSans-74"/>
     <use x="470.166016" xlink:href="#DejaVuSans-68"/>
     <use x="533.544922" xlink:href="#DejaVuSans-65"/>
     <use x="595.068359" xlink:href="#DejaVuSans-72"/>
     <use x="636.181641" xlink:href="#DejaVuSans-20"/>
     <use x="667.96875" xlink:href="#DejaVuSans-68"/>
     <use x="731.347656" xlink:href="#DejaVuSans-61"/>
     <use x="792.626953" xlink:href="#DejaVuSans-6e"/>
     <use x="856.005859" xlink:href="#DejaVuSans-64"/>
     <use x="919.482422" xlink:href="#DejaVuSans-20"/>
     <use x="951.269531" xlink:href="#DejaVuSans-2c"/>
     <use x="983.056641" xlink:href="#DejaVuSans-20"/>
     <use x="1014.84375" xlink:href="#DejaVuSans-74"/>
     <use x="1054.052734" xlink:href="#DejaVuSans-68"/>
     <use x="1117.431641" xlink:href="#DejaVuSans-69"/>
     <use x="1145.214844" xlink:href="#DejaVuSans-6e"/>
     <use x="1208.59375" xlink:href="#DejaVuSans-67"/>
     <use x="1272.070312" xlink:href="#DejaVuSans-73"/>
     <use x="1324.169922" xlink:href="#DejaVuSans-20"/>
     <use x="1355.957031" xlink:href="#DejaVuSans-61"/>
     <use x="1417.236328" xlink:href="#DejaVuSans-72"/>
     <use x="1458.318359" xlink:href="#DejaVuSans-65"/>
     <use x="1519.841797" xlink:href="#DejaVuSans-20"/>
     <use x="1551.628906" xlink:href="#DejaVuSans-73"/>
     <use x="1603.728516" xlink:href="#DejaVuSans-61"/>
     <use x="1665.007812" xlink:href="#DejaVuSans-69"/>
     <use x="1692.791016" xlink:href="#DejaVuSans-64"/>
     <use x="1756.267578" xlink:href="#DejaVuSans-20"/>
     <use x="1788.054688" xlink:href="#DejaVuSans-74"/>
     <use x="1827.263672" xlink:href="#DejaVuSans-6f"/>
     <use x="1888.445312" xlink:href="#DejaVuSans-20"/>
     <use x="1920.232422" xlink:href="#DejaVuSans-62"/>
     <use x="1983.708984" xlink:href="#DejaVuSans-65"/>
     <use x="2045.232422" xlink:href="#DejaVuSans-20"/>
     <use x="2077.019531" xlink:href="#DejaVuSans-6e"/>
     <use x="2140.398438" xlink:href="#DejaVuSans-61"/>
     <use x="2201.677734" xlink:href="#DejaVuSans-6d"/>
     <use x="2299.089844" xlink:href="#DejaVuSans-65"/>
     <use x="2360.613281" xlink:href="#DejaVuSans-64"/>
     <use x="2424.089844" xlink:href="#DejaVuSans-20"/>
     <use x="2455.876953" xlink:href="#DejaVuSans-55"/>
     <use x="2529.070312" xlink:href="#DejaVuSans-6e"/>
     <use x="2592.449219" xlink:href="#DejaVuSans-69"/>
     <use x="2620.232422" xlink:href="#DejaVuSans-76"/>
     <use x="2679.412109" xlink:href="#DejaVuSans-6f"/>
     <use x="2740.59375" xlink:href="#DejaVuSans-63"/>
     <use x="2795.574219" xlink:href="#DejaVuSans-61"/>
     <use x="2856.853516" xlink:href="#DejaVuSans-6c"/>
     <use x="2884.636719" xlink:href="#DejaVuSans-6c"/>
     <use x="2912.419922" xlink:href="#DejaVuSans-79"/>
     <use x="2971.599609" xlink:href="#DejaVuSans-20"/>
     <use x="3003.386719" xlink:href="#DejaVuSans-77"/>
     <use x="3085.173828" xlink:href="#DejaVuSans-68"/>
     <use x="3148.552734" xlink:href="#DejaVuSans-69"/>
     <use x="3176.335938" xlink:href="#DejaVuSans-63"/>
     <use x="3231.316406" xlink:href="#DejaVuSans-68"/>
     <use x="3294.695312" xlink:href="#DejaVuSans-20"/>
     <use x="3326.482422" xlink:href="#DejaVuSans-68"/>
     <use x="3389.861328" xlink:href="#DejaVuSans-61"/>
     <use x="3451.140625" xlink:href="#DejaVuSans-76"/>
     <use x="3510.320312" xlink:href="#DejaVuSans-65"/>
     <use x="3571.84375" xlink:href="#DejaVuSans-20"/>
     <use x="3603.630859" xlink:href="#DejaVuSans-62"/>
     <use x="3667.107422" xlink:href="#DejaVuSans-6f"/>
     <use x="3728.289062" xlink:href="#DejaVuSans-74"/>
     <use x="3767.498047" xlink:href="#DejaVuSans-68"/>
     <use x="3830.876953" xlink:href="#DejaVuSans-20"/>
     <use x="3862.664062" xlink:href="#DejaVuSans-74"/>
     <use x="3901.873047" xlink:href="#DejaVuSans-68"/>
     <use x="3965.251953" xlink:href="#DejaVuSans-65"/>
     <use x="4026.775391" xlink:href="#DejaVuSans-20"/>
     <use x="4058.5625" xlink:href="#DejaVuSans-6e"/>
     <use x="4121.941406" xlink:href="#DejaVuSans-61"/>
     <use x="4183.220703" xlink:href="#DejaVuSans-6d"/>
     <use x="4280.632812" xlink:href="#DejaVuSans-65"/>
     <use x="4342.15625" xlink:href="#DejaVuSans-20"/>
     <use x="4373.943359" xlink:href="#DejaVuSans-61"/>
     <use x="4435.222656" xlink:href="#DejaVuSans-6e"/>
     <use x="4498.601562" xlink:href="#DejaVuSans-64"/>
    </g>
    <!-- the definition answering to the name in common . -->
    <g transform="translate(402.812813 26.087875)scale(0.12 -0.12)">
     <use xlink:href="#DejaVuSans-74"/>
     <use x="39.208984" xlink:href="#DejaVuSans-68"/>
     <use x="102.587891" xlink:href="#DejaVuSans-65"/>
     <use x="164.111328" xlink:href="#DejaVuSans-20"/>
     <use x="195.898438" xlink:href="#DejaVuSans-64"/>
     <use x="259.375" xlink:href="#DejaVuSans-65"/>
     <use x="320.898438" xlink:href="#DejaVuSans-66"/>
     <use x="356.103516" xlink:href="#DejaVuSans-69"/>
     <use x="383.886719" xlink:href="#DejaVuSans-6e"/>
     <use x="447.265625" xlink:href="#DejaVuSans-69"/>
     <use x="475.048828" xlink:href="#DejaVuSans-74"/>
     <use x="514.257812" xlink:href="#DejaVuSans-69"/>
     <use x="542.041016" xlink:href="#DejaVuSans-6f"/>
     <use x="603.222656" xlink:href="#DejaVuSans-6e"/>
     <use x="666.601562" xlink:href="#DejaVuSans-20"/>
     <use x="698.388672" xlink:href="#DejaVuSans-61"/>
     <use x="759.667969" xlink:href="#DejaVuSans-6e"/>
     <use x="823.046875" xlink:href="#DejaVuSans-73"/>
     <use x="875.146484" xlink:href="#DejaVuSans-77"/>
     <use x="956.933594" xlink:href="#DejaVuSans-65"/>
     <use x="1018.457031" xlink:href="#DejaVuSans-72"/>
     <use x="1059.570312" xlink:href="#DejaVuSans-69"/>
     <use x="1087.353516" xlink:href="#DejaVuSans-6e"/>
     <use x="1150.732422" xlink:href="#DejaVuSans-67"/>
     <use x="1214.208984" xlink:href="#DejaVuSans-20"/>
     <use x="1245.996094" xlink:href="#DejaVuSans-74"/>
     <use x="1285.205078" xlink:href="#DejaVuSans-6f"/>
     <use x="1346.386719" xlink:href="#DejaVuSans-20"/>
     <use x="1378.173828" xlink:href="#DejaVuSans-74"/>
     <use x="1417.382812" xlink:href="#DejaVuSans-68"/>
     <use x="1480.761719" xlink:href="#DejaVuSans-65"/>
     <use x="1542.285156" xlink:href="#DejaVuSans-20"/>
     <use x="1574.072266" xlink:href="#DejaVuSans-6e"/>
     <use x="1637.451172" xlink:href="#DejaVuSans-61"/>
     <use x="1698.730469" xlink:href="#DejaVuSans-6d"/>
     <use x="1796.142578" xlink:href="#DejaVuSans-65"/>
     <use x="1857.666016" xlink:href="#DejaVuSans-20"/>
     <use x="1889.453125" xlink:href="#DejaVuSans-69"/>
     <use x="1917.236328" xlink:href="#DejaVuSans-6e"/>
     <use x="1980.615234" xlink:href="#DejaVuSans-20"/>
     <use x="2012.402344" xlink:href="#DejaVuSans-63"/>
     <use x="2067.382812" xlink:href="#DejaVuSans-6f"/>
     <use x="2128.564453" xlink:href="#DejaVuSans-6d"/>
     <use x="2225.976562" xlink:href="#DejaVuSans-6d"/>
     <use x="2323.388672" xlink:href="#DejaVuSans-6f"/>
     <use x="2384.570312" xlink:href="#DejaVuSans-6e"/>
     <use x="2447.949219" xlink:href="#DejaVuSans-20"/>
     <use x="2479.736328" xlink:href="#DejaVuSans-2e"/>
    </g>
    <!-- 21  22  24  23  25 -->
    <defs>
     <path d="M 12.890625 0 
L 30.515625 57.90625 
L 42.71875 57.90625 
L 60.296875 0 
L 50.78125 0 
L 36.625 45.90625 
L 22.40625 0 
z
" id="DejaVuSans-2227"/>
    </defs>
    <g transform="translate(482.505 39.52525)scale(0.12 -0.12)">
     <use xlink:href="#DejaVuSans-32"/>
     <use x="63.623047" xlink:href="#DejaVuSans-31"/>
     <use x="127.246094" xlink:href="#DejaVuSans-20"/>
     <use x="159.033203" xlink:href="#DejaVuSans-2227"/>
     <use x="232.226562" xlink:href="#DejaVuSans-20"/>
     <use x="264.013672" xlink:href="#DejaVuSans-32"/>
     <use x="327.636719" xlink:href="#DejaVuSans-32"/>
     <use x="391.259766" xlink:href="#DejaVuSans-20"/>
     <use x="423.046875" xlink:href="#DejaVuSans-2227"/>
     <use x="496.240234" xlink:href="#DejaVuSans-20"/>
     <use x="528.027344" xlink:href="#DejaVuSans-32"/>
     <use x="591.650391" xlink:href="#DejaVuSans-34"/>
     <use x="655.273438" xlink:href="#DejaVuSans-20"/>
     <use x="687.060547" xlink:href="#DejaVuSans-2227"/>
     <use x="760.253906" xlink:href="#DejaVuSans-20"/>
     <use x="792.041016" xlink:href="#DejaVuSans-32"/>
     <use x="855.664062" xlink:href="#DejaVuSans-33"/>
     <use x="919.287109" xlink:href="#DejaVuSans-20"/>
     <use x="951.074219" xlink:href="#DejaVuSans-2227"/>
     <use x="1024.267578" xlink:href="#DejaVuSans-20"/>
     <use x="1056.054688" xlink:href="#DejaVuSans-32"/>
     <use x="1119.677734" xlink:href="#DejaVuSans-35"/>
    </g>
    <!--  pyprover.logic.Prop('21')&amp; pyprover.logic.Prop('22')&amp; pyprover.logic.Prop('24')&amp; -->
    <defs>
     <path d="M 18.109375 8.203125 
L 18.109375 -20.796875 
L 9.078125 -20.796875 
L 9.078125 54.6875 
L 18.109375 54.6875 
L 18.109375 46.390625 
Q 20.953125 51.265625 25.265625 53.625 
Q 29.59375 56 35.59375 56 
Q 45.5625 56 51.78125 48.09375 
Q 58.015625 40.1875 58.015625 27.296875 
Q 58.015625 14.40625 51.78125 6.484375 
Q 45.5625 -1.421875 35.59375 -1.421875 
Q 29.59375 -1.421875 25.265625 0.953125 
Q 20.953125 3.328125 18.109375 8.203125 
z
M 48.6875 27.296875 
Q 48.6875 37.203125 44.609375 42.84375 
Q 40.53125 48.484375 33.40625 48.484375 
Q 26.265625 48.484375 22.1875 42.84375 
Q 18.109375 37.203125 18.109375 27.296875 
Q 18.109375 17.390625 22.1875 11.75 
Q 26.265625 6.109375 33.40625 6.109375 
Q 40.53125 6.109375 44.609375 11.75 
Q 48.6875 17.390625 48.6875 27.296875 
z
" id="DejaVuSans-70"/>
     <path d="M 19.671875 64.796875 
L 19.671875 37.40625 
L 32.078125 37.40625 
Q 38.96875 37.40625 42.71875 40.96875 
Q 46.484375 44.53125 46.484375 51.125 
Q 46.484375 57.671875 42.71875 61.234375 
Q 38.96875 64.796875 32.078125 64.796875 
z
M 9.8125 72.90625 
L 32.078125 72.90625 
Q 44.34375 72.90625 50.609375 67.359375 
Q 56.890625 61.8125 56.890625 51.125 
Q 56.890625 40.328125 50.609375 34.8125 
Q 44.34375 29.296875 32.078125 29.296875 
L 19.671875 29.296875 
L 19.671875 0 
L 9.8125 0 
z
" id="DejaVuSans-50"/>
     <path d="M 31 75.875 
Q 24.46875 64.65625 21.28125 53.65625 
Q 18.109375 42.671875 18.109375 31.390625 
Q 18.109375 20.125 21.3125 9.0625 
Q 24.515625 -2 31 -13.1875 
L 23.1875 -13.1875 
Q 15.875 -1.703125 12.234375 9.375 
Q 8.59375 20.453125 8.59375 31.390625 
Q 8.59375 42.28125 12.203125 53.3125 
Q 15.828125 64.359375 23.1875 75.875 
z
" id="DejaVuSans-28"/>
     <path d="M 17.921875 72.90625 
L 17.921875 45.796875 
L 9.625 45.796875 
L 9.625 72.90625 
z
" id="DejaVuSans-27"/>
     <path d="M 8.015625 75.875 
L 15.828125 75.875 
Q 23.140625 64.359375 26.78125 53.3125 
Q 30.421875 42.28125 30.421875 31.390625 
Q 30.421875 20.453125 26.78125 9.375 
Q 23.140625 -1.703125 15.828125 -13.1875 
L 8.015625 -13.1875 
Q 14.5 -2 17.703125 9.0625 
Q 20.90625 20.125 20.90625 31.390625 
Q 20.90625 42.671875 17.703125 53.65625 
Q 14.5 64.65625 8.015625 75.875 
z
" id="DejaVuSans-29"/>
     <path d="M 24.3125 39.203125 
Q 19.875 35.25 17.796875 31.3125 
Q 15.71875 27.390625 15.71875 23.09375 
Q 15.71875 15.96875 20.890625 11.234375 
Q 26.078125 6.5 33.890625 6.5 
Q 38.53125 6.5 42.578125 8.03125 
Q 46.625 9.578125 50.203125 12.703125 
z
M 31.203125 44.671875 
L 56 19.28125 
Q 58.890625 23.640625 60.5 28.59375 
Q 62.109375 33.546875 62.40625 39.109375 
L 71.484375 39.109375 
Q 70.90625 32.671875 68.359375 26.359375 
Q 65.828125 20.0625 61.28125 13.921875 
L 74.90625 0 
L 62.59375 0 
L 55.609375 7.171875 
Q 50.53125 2.828125 44.96875 0.703125 
Q 39.40625 -1.421875 33.015625 -1.421875 
Q 21.234375 -1.421875 13.765625 5.296875 
Q 6.296875 12.015625 6.296875 22.515625 
Q 6.296875 28.765625 9.5625 34.25 
Q 12.84375 39.75 19.390625 44.578125 
Q 17.046875 47.65625 15.8125 50.703125 
Q 14.59375 53.765625 14.59375 56.6875 
Q 14.59375 64.59375 20.015625 69.40625 
Q 25.4375 74.21875 34.421875 74.21875 
Q 38.484375 74.21875 42.5 73.34375 
Q 46.53125 72.46875 50.6875 70.703125 
L 50.6875 61.8125 
Q 46.4375 64.109375 42.578125 65.296875 
Q 38.71875 66.5 35.40625 66.5 
Q 30.28125 66.5 27.078125 63.78125 
Q 23.875 61.078125 23.875 56.78125 
Q 23.875 54.296875 25.3125 51.78125 
Q 26.765625 49.265625 31.203125 44.671875 
z
" id="DejaVuSans-26"/>
    </defs>
    <g transform="translate(311.41125 52.962625)scale(0.12 -0.12)">
     <use xlink:href="#DejaVuSans-20"/>
     <use x="31.787109" xlink:href="#DejaVuSans-70"/>
     <use x="95.263672" xlink:href="#DejaVuSans-79"/>
     <use x="154.443359" xlink:href="#DejaVuSans-70"/>
     <use x="217.919922" xlink:href="#DejaVuSans-72"/>
     <use x="259.001953" xlink:href="#DejaVuSans-6f"/>
     <use x="320.183594" xlink:href="#DejaVuSans-76"/>
     <use x="379.363281" xlink:href="#DejaVuSans-65"/>
     <use x="440.886719" xlink:href="#DejaVuSans-72"/>
     <use x="481.859375" xlink:href="#DejaVuSans-2e"/>
     <use x="513.646484" xlink:href="#DejaVuSans-6c"/>
     <use x="541.429688" xlink:href="#DejaVuSans-6f"/>
     <use x="602.611328" xlink:href="#DejaVuSans-67"/>
     <use x="666.087891" xlink:href="#DejaVuSans-69"/>
     <use x="693.871094" xlink:href="#DejaVuSans-63"/>
     <use x="748.851562" xlink:href="#DejaVuSans-2e"/>
     <use x="780.638672" xlink:href="#DejaVuSans-50"/>
     <use x="840.925781" xlink:href="#DejaVuSans-72"/>
     <use x="882.007812" xlink:href="#DejaVuSans-6f"/>
     <use x="943.189453" xlink:href="#DejaVuSans-70"/>
     <use x="1006.666016" xlink:href="#DejaVuSans-28"/>
     <use x="1045.679688" xlink:href="#DejaVuSans-27"/>
     <use x="1073.169922" xlink:href="#DejaVuSans-32"/>
     <use x="1136.792969" xlink:href="#DejaVuSans-31"/>
     <use x="1200.416016" xlink:href="#DejaVuSans-27"/>
     <use x="1227.90625" xlink:href="#DejaVuSans-29"/>
     <use x="1266.919922" xlink:href="#DejaVuSans-26"/>
     <use x="1344.898438" xlink:href="#DejaVuSans-20"/>
     <use x="1376.685547" xlink:href="#DejaVuSans-70"/>
     <use x="1440.162109" xlink:href="#DejaVuSans-79"/>
     <use x="1499.341797" xlink:href="#DejaVuSans-70"/>
     <use x="1562.818359" xlink:href="#DejaVuSans-72"/>
     <use x="1603.900391" xlink:href="#DejaVuSans-6f"/>
     <use x="1665.082031" xlink:href="#DejaVuSans-76"/>
     <use x="1724.261719" xlink:href="#DejaVuSans-65"/>
     <use x="1785.785156" xlink:href="#DejaVuSans-72"/>
     <use x="1826.757812" xlink:href="#DejaVuSans-2e"/>
     <use x="1858.544922" xlink:href="#DejaVuSans-6c"/>
     <use x="1886.328125" xlink:href="#DejaVuSans-6f"/>
     <use x="1947.509766" xlink:href="#DejaVuSans-67"/>
     <use x="2010.986328" xlink:href="#DejaVuSans-69"/>
     <use x="2038.769531" xlink:href="#DejaVuSans-63"/>
     <use x="2093.75" xlink:href="#DejaVuSans-2e"/>
     <use x="2125.537109" xlink:href="#DejaVuSans-50"/>
     <use x="2185.824219" xlink:href="#DejaVuSans-72"/>
     <use x="2226.90625" xlink:href="#DejaVuSans-6f"/>
     <use x="2288.087891" xlink:href="#DejaVuSans-70"/>
     <use x="2351.564453" xlink:href="#DejaVuSans-28"/>
     <use x="2390.578125" xlink:href="#DejaVuSans-27"/>
     <use x="2418.068359" xlink:href="#DejaVuSans-32"/>
     <use x="2481.691406" xlink:href="#DejaVuSans-32"/>
     <use x="2545.314453" xlink:href="#DejaVuSans-27"/>
     <use x="2572.804688" xlink:href="#DejaVuSans-29"/>
     <use x="2611.818359" xlink:href="#DejaVuSans-26"/>
     <use x="2689.796875" xlink:href="#DejaVuSans-20"/>
     <use x="2721.583984" xlink:href="#DejaVuSans-70"/>
     <use x="2785.060547" xlink:href="#DejaVuSans-79"/>
     <use x="2844.240234" xlink:href="#DejaVuSans-70"/>
     <use x="2907.716797" xlink:href="#DejaVuSans-72"/>
     <use x="2948.798828" xlink:href="#DejaVuSans-6f"/>
     <use x="3009.980469" xlink:href="#DejaVuSans-76"/>
     <use x="3069.160156" xlink:href="#DejaVuSans-65"/>
     <use x="3130.683594" xlink:href="#DejaVuSans-72"/>
     <use x="3171.65625" xlink:href="#DejaVuSans-2e"/>
     <use x="3203.443359" xlink:href="#DejaVuSans-6c"/>
     <use x="3231.226562" xlink:href="#DejaVuSans-6f"/>
     <use x="3292.408203" xlink:href="#DejaVuSans-67"/>
     <use x="3355.884766" xlink:href="#DejaVuSans-69"/>
     <use x="3383.667969" xlink:href="#DejaVuSans-63"/>
     <use x="3438.648438" xlink:href="#DejaVuSans-2e"/>
     <use x="3470.435547" xlink:href="#DejaVuSans-50"/>
     <use x="3530.722656" xlink:href="#DejaVuSans-72"/>
     <use x="3571.804688" xlink:href="#DejaVuSans-6f"/>
     <use x="3632.986328" xlink:href="#DejaVuSans-70"/>
     <use x="3696.462891" xlink:href="#DejaVuSans-28"/>
     <use x="3735.476562" xlink:href="#DejaVuSans-27"/>
     <use x="3762.966797" xlink:href="#DejaVuSans-32"/>
     <use x="3826.589844" xlink:href="#DejaVuSans-34"/>
     <use x="3890.212891" xlink:href="#DejaVuSans-27"/>
     <use x="3917.703125" xlink:href="#DejaVuSans-29"/>
     <use x="3956.716797" xlink:href="#DejaVuSans-26"/>
    </g>
    <!-- pyprover.logic.Prop('23')&amp; pyprover.logic.Prop('25') -->
    <g transform="translate(398.693438 66.4)scale(0.12 -0.12)">
     <use xlink:href="#DejaVuSans-70"/>
     <use x="63.476562" xlink:href="#DejaVuSans-79"/>
     <use x="122.65625" xlink:href="#DejaVuSans-70"/>
     <use x="186.132812" xlink:href="#DejaVuSans-72"/>
     <use x="227.214844" xlink:href="#DejaVuSans-6f"/>
     <use x="288.396484" xlink:href="#DejaVuSans-76"/>
     <use x="347.576172" xlink:href="#DejaVuSans-65"/>
     <use x="409.099609" xlink:href="#DejaVuSans-72"/>
     <use x="450.072266" xlink:href="#DejaVuSans-2e"/>
     <use x="481.859375" xlink:href="#DejaVuSans-6c"/>
     <use x="509.642578" xlink:href="#DejaVuSans-6f"/>
     <use x="570.824219" xlink:href="#DejaVuSans-67"/>
     <use x="634.300781" xlink:href="#DejaVuSans-69"/>
     <use x="662.083984" xlink:href="#DejaVuSans-63"/>
     <use x="717.064453" xlink:href="#DejaVuSans-2e"/>
     <use x="748.851562" xlink:href="#DejaVuSans-50"/>
     <use x="809.138672" xlink:href="#DejaVuSans-72"/>
     <use x="850.220703" xlink:href="#DejaVuSans-6f"/>
     <use x="911.402344" xlink:href="#DejaVuSans-70"/>
     <use x="974.878906" xlink:href="#DejaVuSans-28"/>
     <use x="1013.892578" xlink:href="#DejaVuSans-27"/>
     <use x="1041.382812" xlink:href="#DejaVuSans-32"/>
     <use x="1105.005859" xlink:href="#DejaVuSans-33"/>
     <use x="1168.628906" xlink:href="#DejaVuSans-27"/>
     <use x="1196.119141" xlink:href="#DejaVuSans-29"/>
     <use x="1235.132812" xlink:href="#DejaVuSans-26"/>
     <use x="1313.111328" xlink:href="#DejaVuSans-20"/>
     <use x="1344.898438" xlink:href="#DejaVuSans-70"/>
     <use x="1408.375" xlink:href="#DejaVuSans-79"/>
     <use x="1467.554688" xlink:href="#DejaVuSans-70"/>
     <use x="1531.03125" xlink:href="#DejaVuSans-72"/>
     <use x="1572.113281" xlink:href="#DejaVuSans-6f"/>
     <use x="1633.294922" xlink:href="#DejaVuSans-76"/>
     <use x="1692.474609" xlink:href="#DejaVuSans-65"/>
     <use x="1753.998047" xlink:href="#DejaVuSans-72"/>
     <use x="1794.970703" xlink:href="#DejaVuSans-2e"/>
     <use x="1826.757812" xlink:href="#DejaVuSans-6c"/>
     <use x="1854.541016" xlink:href="#DejaVuSans-6f"/>
     <use x="1915.722656" xlink:href="#DejaVuSans-67"/>
     <use x="1979.199219" xlink:href="#DejaVuSans-69"/>
     <use x="2006.982422" xlink:href="#DejaVuSans-63"/>
     <use x="2061.962891" xlink:href="#DejaVuSans-2e"/>
     <use x="2093.75" xlink:href="#DejaVuSans-50"/>
     <use x="2154.037109" xlink:href="#DejaVuSans-72"/>
     <use x="2195.119141" xlink:href="#DejaVuSans-6f"/>
     <use x="2256.300781" xlink:href="#DejaVuSans-70"/>
     <use x="2319.777344" xlink:href="#DejaVuSans-28"/>
     <use x="2358.791016" xlink:href="#DejaVuSans-27"/>
     <use x="2386.28125" xlink:href="#DejaVuSans-32"/>
     <use x="2449.904297" xlink:href="#DejaVuSans-35"/>
     <use x="2513.527344" xlink:href="#DejaVuSans-27"/>
     <use x="2541.017578" xlink:href="#DejaVuSans-29"/>
    </g>
   </g>
  </g>
 </g>
 <defs>
  <clipPath id="p7f3421e653">
   <rect height="554.4" width="837" x="135" y="86.4"/>
  </clipPath>
 </defs>
</svg>
