<?xml version="1.0" encoding="utf-8" standalone="no"?>
<!DOCTYPE svg PUBLIC "-//W3C//DTD SVG 1.1//EN"
  "http://www.w3.org/Graphics/SVG/1.1/DTD/svg11.dtd">
<!-- Created with matplotlib (http://matplotlib.org/) -->
<svg height="720pt" version="1.1" viewBox="0 0 1080 720" width="1080pt" xmlns="http://www.w3.org/2000/svg" xmlns:xlink="http://www.w3.org/1999/xlink">
 <defs>
  <style type="text/css">
*{stroke-linecap:butt;stroke-linejoin:round;}
  </style>
 </defs>
 <g id="figure_1">
  <g id="patch_1">
   <path d="M 0 720 
L 1080 720 
L 1080 0 
L 0 0 
z
" style="fill:#ffffff;"/>
  </g>
  <g id="axes_1">
   <g id="patch_2">
    <path clip-path="url(#pc5901a686a)" d="M 599.165488 134.509091 
Q 405.557084 247.791742 214.843639 359.380517 
" style="fill:none;stroke:#000000;stroke-linecap:round;stroke-width:3;"/>
    <path clip-path="url(#pc5901a686a)" d="M 220.198605 359.027903 
L 214.843639 359.380517 
L 217.774527 354.884976 
L 220.198605 359.027903 
z
" style="stroke:#000000;stroke-linecap:round;stroke-width:3;"/>
   </g>
   <g id="patch_3">
    <path clip-path="url(#pc5901a686a)" d="M 599.165488 134.509091 
Q 599.165488 246.553408 599.165488 355.243623 
" style="fill:none;stroke:#000000;stroke-linecap:round;stroke-width:3;"/>
    <path clip-path="url(#pc5901a686a)" d="M 601.565488 350.443623 
L 599.165488 355.243623 
L 596.765488 350.443623 
L 601.565488 350.443623 
z
" style="stroke:#000000;stroke-linecap:round;stroke-width:3;"/>
   </g>
   <g id="patch_4">
    <path clip-path="url(#pc5901a686a)" d="M 599.165488 134.509091 
Q 747.27974 247.538307 892.727597 358.53274 
" style="fill:none;stroke:#000000;stroke-linecap:round;stroke-width:3;"/>
    <path clip-path="url(#pc5901a686a)" d="M 890.367737 353.712879 
L 892.727597 358.53274 
L 887.455792 357.528712 
L 890.367737 353.712879 
z
" style="stroke:#000000;stroke-linecap:round;stroke-width:3;"/>
   </g>
   <g id="patch_5">
    <path clip-path="url(#pc5901a686a)" d="M 207.632231 363.6 
Q 207.632231 475.644317 207.632231 584.334532 
" style="fill:none;stroke:#000000;stroke-linecap:round;stroke-width:3;"/>
    <path clip-path="url(#pc5901a686a)" d="M 210.032231 579.534532 
L 207.632231 584.334532 
L 205.232231 579.534532 
L 210.032231 579.534532 
z
" style="stroke:#000000;stroke-linecap:round;stroke-width:3;"/>
   </g>
   <g id="patch_6">
    <path clip-path="url(#pc5901a686a)" d="M 599.165488 363.6 
Q 599.165488 475.644317 599.165488 584.334532 
" style="fill:none;stroke:#000000;stroke-linecap:round;stroke-width:3;"/>
    <path clip-path="url(#pc5901a686a)" d="M 601.565488 579.534532 
L 599.165488 584.334532 
L 596.765488 579.534532 
L 601.565488 579.534532 
z
" style="stroke:#000000;stroke-linecap:round;stroke-width:3;"/>
   </g>
   <g id="PathCollection_1">
    <defs>
     <path d="M 0 5 
C 1.326016 5 2.597899 4.473168 3.535534 3.535534 
C 4.473168 2.597899 5 1.326016 5 0 
C 5 -1.326016 4.473168 -2.597899 3.535534 -3.535534 
C 2.597899 -4.473168 1.326016 -5 0 -5 
C -1.326016 -5 -2.597899 -4.473168 -3.535534 -3.535534 
C -4.473168 -2.597899 -5 -1.326016 -5 0 
C -5 1.326016 -4.473168 2.597899 -3.535534 3.535534 
C -2.597899 4.473168 -1.326016 5 0 5 
z
" id="m51d48866bb" style="stroke:#0000ff;"/>
    </defs>
    <g clip-path="url(#pc5901a686a)">
     <use style="fill:#0000ff;stroke:#0000ff;" x="599.165488" xlink:href="#m51d48866bb" y="134.509091"/>
     <use style="fill:#0000ff;stroke:#0000ff;" x="207.632231" xlink:href="#m51d48866bb" y="363.6"/>
     <use style="fill:#0000ff;stroke:#0000ff;" x="599.165488" xlink:href="#m51d48866bb" y="363.6"/>
     <use style="fill:#0000ff;stroke:#0000ff;" x="899.367769" xlink:href="#m51d48866bb" y="363.6"/>
     <use style="fill:#0000ff;stroke:#0000ff;" x="599.165488" xlink:href="#m51d48866bb" y="592.690909"/>
     <use style="fill:#0000ff;stroke:#0000ff;" x="207.632231" xlink:href="#m51d48866bb" y="592.690909"/>
    </g>
   </g>
   <g id="text_1">
    <g clip-path="url(#pc5901a686a)">
     <!-- 182  But in a secondary sense -->
     <defs>
      <path d="M 12.40625 8.296875 
L 28.515625 8.296875 
L 28.515625 63.921875 
L 10.984375 60.40625 
L 10.984375 69.390625 
L 28.421875 72.90625 
L 38.28125 72.90625 
L 38.28125 8.296875 
L 54.390625 8.296875 
L 54.390625 0 
L 12.40625 0 
z
" id="DejaVuSans-31"/>
      <path d="M 31.78125 34.625 
Q 24.75 34.625 20.71875 30.859375 
Q 16.703125 27.09375 16.703125 20.515625 
Q 16.703125 13.921875 20.71875 10.15625 
Q 24.75 6.390625 31.78125 6.390625 
Q 38.8125 6.390625 42.859375 10.171875 
Q 46.921875 13.96875 46.921875 20.515625 
Q 46.921875 27.09375 42.890625 30.859375 
Q 38.875 34.625 31.78125 34.625 
z
M 21.921875 38.8125 
Q 15.578125 40.375 12.03125 44.71875 
Q 8.5 49.078125 8.5 55.328125 
Q 8.5 64.0625 14.71875 69.140625 
Q 20.953125 74.21875 31.78125 74.21875 
Q 42.671875 74.21875 48.875 69.140625 
Q 55.078125 64.0625 55.078125 55.328125 
Q 55.078125 49.078125 51.53125 44.71875 
Q 48 40.375 41.703125 38.8125 
Q 48.828125 37.15625 52.796875 32.3125 
Q 56.78125 27.484375 56.78125 20.515625 
Q 56.78125 9.90625 50.3125 4.234375 
Q 43.84375 -1.421875 31.78125 -1.421875 
Q 19.734375 -1.421875 13.25 4.234375 
Q 6.78125 9.90625 6.78125 20.515625 
Q 6.78125 27.484375 10.78125 32.3125 
Q 14.796875 37.15625 21.921875 38.8125 
z
M 18.3125 54.390625 
Q 18.3125 48.734375 21.84375 45.5625 
Q 25.390625 42.390625 31.78125 42.390625 
Q 38.140625 42.390625 41.71875 45.5625 
Q 45.3125 48.734375 45.3125 54.390625 
Q 45.3125 60.0625 41.71875 63.234375 
Q 38.140625 66.40625 31.78125 66.40625 
Q 25.390625 66.40625 21.84375 63.234375 
Q 18.3125 60.0625 18.3125 54.390625 
z
" id="DejaVuSans-38"/>
      <path d="M 19.1875 8.296875 
L 53.609375 8.296875 
L 53.609375 0 
L 7.328125 0 
L 7.328125 8.296875 
Q 12.9375 14.109375 22.625 23.890625 
Q 32.328125 33.6875 34.8125 36.53125 
Q 39.546875 41.84375 41.421875 45.53125 
Q 43.3125 49.21875 43.3125 52.78125 
Q 43.3125 58.59375 39.234375 62.25 
Q 35.15625 65.921875 28.609375 65.921875 
Q 23.96875 65.921875 18.8125 64.3125 
Q 13.671875 62.703125 7.8125 59.421875 
L 7.8125 69.390625 
Q 13.765625 71.78125 18.9375 73 
Q 24.125 74.21875 28.421875 74.21875 
Q 39.75 74.21875 46.484375 68.546875 
Q 53.21875 62.890625 53.21875 53.421875 
Q 53.21875 48.921875 51.53125 44.890625 
Q 49.859375 40.875 45.40625 35.40625 
Q 44.1875 33.984375 37.640625 27.21875 
Q 31.109375 20.453125 19.1875 8.296875 
z
" id="DejaVuSans-32"/>
      <path id="DejaVuSans-20"/>
      <path d="M 19.671875 34.8125 
L 19.671875 8.109375 
L 35.5 8.109375 
Q 43.453125 8.109375 47.28125 11.40625 
Q 51.125 14.703125 51.125 21.484375 
Q 51.125 28.328125 47.28125 31.5625 
Q 43.453125 34.8125 35.5 34.8125 
z
M 19.671875 64.796875 
L 19.671875 42.828125 
L 34.28125 42.828125 
Q 41.5 42.828125 45.03125 45.53125 
Q 48.578125 48.25 48.578125 53.8125 
Q 48.578125 59.328125 45.03125 62.0625 
Q 41.5 64.796875 34.28125 64.796875 
z
M 9.8125 72.90625 
L 35.015625 72.90625 
Q 46.296875 72.90625 52.390625 68.21875 
Q 58.5 63.53125 58.5 54.890625 
Q 58.5 48.1875 55.375 44.234375 
Q 52.25 40.28125 46.1875 39.3125 
Q 53.46875 37.75 57.5 32.78125 
Q 61.53125 27.828125 61.53125 20.40625 
Q 61.53125 10.640625 54.890625 5.3125 
Q 48.25 0 35.984375 0 
L 9.8125 0 
z
" id="DejaVuSans-42"/>
      <path d="M 8.5 21.578125 
L 8.5 54.6875 
L 17.484375 54.6875 
L 17.484375 21.921875 
Q 17.484375 14.15625 20.5 10.265625 
Q 23.53125 6.390625 29.59375 6.390625 
Q 36.859375 6.390625 41.078125 11.03125 
Q 45.3125 15.671875 45.3125 23.6875 
L 45.3125 54.6875 
L 54.296875 54.6875 
L 54.296875 0 
L 45.3125 0 
L 45.3125 8.40625 
Q 42.046875 3.421875 37.71875 1 
Q 33.40625 -1.421875 27.6875 -1.421875 
Q 18.265625 -1.421875 13.375 4.4375 
Q 8.5 10.296875 8.5 21.578125 
z
M 31.109375 56 
z
" id="DejaVuSans-75"/>
      <path d="M 18.3125 70.21875 
L 18.3125 54.6875 
L 36.8125 54.6875 
L 36.8125 47.703125 
L 18.3125 47.703125 
L 18.3125 18.015625 
Q 18.3125 11.328125 20.140625 9.421875 
Q 21.96875 7.515625 27.59375 7.515625 
L 36.8125 7.515625 
L 36.8125 0 
L 27.59375 0 
Q 17.1875 0 13.234375 3.875 
Q 9.28125 7.765625 9.28125 18.015625 
L 9.28125 47.703125 
L 2.6875 47.703125 
L 2.6875 54.6875 
L 9.28125 54.6875 
L 9.28125 70.21875 
z
" id="DejaVuSans-74"/>
      <path d="M 9.421875 54.6875 
L 18.40625 54.6875 
L 18.40625 0 
L 9.421875 0 
z
M 9.421875 75.984375 
L 18.40625 75.984375 
L 18.40625 64.59375 
L 9.421875 64.59375 
z
" id="DejaVuSans-69"/>
      <path d="M 54.890625 33.015625 
L 54.890625 0 
L 45.90625 0 
L 45.90625 32.71875 
Q 45.90625 40.484375 42.875 44.328125 
Q 39.84375 48.1875 33.796875 48.1875 
Q 26.515625 48.1875 22.3125 43.546875 
Q 18.109375 38.921875 18.109375 30.90625 
L 18.109375 0 
L 9.078125 0 
L 9.078125 54.6875 
L 18.109375 54.6875 
L 18.109375 46.1875 
Q 21.34375 51.125 25.703125 53.5625 
Q 30.078125 56 35.796875 56 
Q 45.21875 56 50.046875 50.171875 
Q 54.890625 44.34375 54.890625 33.015625 
z
" id="DejaVuSans-6e"/>
      <path d="M 34.28125 27.484375 
Q 23.390625 27.484375 19.1875 25 
Q 14.984375 22.515625 14.984375 16.5 
Q 14.984375 11.71875 18.140625 8.90625 
Q 21.296875 6.109375 26.703125 6.109375 
Q 34.1875 6.109375 38.703125 11.40625 
Q 43.21875 16.703125 43.21875 25.484375 
L 43.21875 27.484375 
z
M 52.203125 31.203125 
L 52.203125 0 
L 43.21875 0 
L 43.21875 8.296875 
Q 40.140625 3.328125 35.546875 0.953125 
Q 30.953125 -1.421875 24.3125 -1.421875 
Q 15.921875 -1.421875 10.953125 3.296875 
Q 6 8.015625 6 15.921875 
Q 6 25.140625 12.171875 29.828125 
Q 18.359375 34.515625 30.609375 34.515625 
L 43.21875 34.515625 
L 43.21875 35.40625 
Q 43.21875 41.609375 39.140625 45 
Q 35.0625 48.390625 27.6875 48.390625 
Q 23 48.390625 18.546875 47.265625 
Q 14.109375 46.140625 10.015625 43.890625 
L 10.015625 52.203125 
Q 14.9375 54.109375 19.578125 55.046875 
Q 24.21875 56 28.609375 56 
Q 40.484375 56 46.34375 49.84375 
Q 52.203125 43.703125 52.203125 31.203125 
z
" id="DejaVuSans-61"/>
      <path d="M 44.28125 53.078125 
L 44.28125 44.578125 
Q 40.484375 46.53125 36.375 47.5 
Q 32.28125 48.484375 27.875 48.484375 
Q 21.1875 48.484375 17.84375 46.4375 
Q 14.5 44.390625 14.5 40.28125 
Q 14.5 37.15625 16.890625 35.375 
Q 19.28125 33.59375 26.515625 31.984375 
L 29.59375 31.296875 
Q 39.15625 29.25 43.1875 25.515625 
Q 47.21875 21.78125 47.21875 15.09375 
Q 47.21875 7.46875 41.1875 3.015625 
Q 35.15625 -1.421875 24.609375 -1.421875 
Q 20.21875 -1.421875 15.453125 -0.5625 
Q 10.6875 0.296875 5.421875 2 
L 5.421875 11.28125 
Q 10.40625 8.6875 15.234375 7.390625 
Q 20.0625 6.109375 24.8125 6.109375 
Q 31.15625 6.109375 34.5625 8.28125 
Q 37.984375 10.453125 37.984375 14.40625 
Q 37.984375 18.0625 35.515625 20.015625 
Q 33.0625 21.96875 24.703125 23.78125 
L 21.578125 24.515625 
Q 13.234375 26.265625 9.515625 29.90625 
Q 5.8125 33.546875 5.8125 39.890625 
Q 5.8125 47.609375 11.28125 51.796875 
Q 16.75 56 26.8125 56 
Q 31.78125 56 36.171875 55.265625 
Q 40.578125 54.546875 44.28125 53.078125 
z
" id="DejaVuSans-73"/>
      <path d="M 56.203125 29.59375 
L 56.203125 25.203125 
L 14.890625 25.203125 
Q 15.484375 15.921875 20.484375 11.0625 
Q 25.484375 6.203125 34.421875 6.203125 
Q 39.59375 6.203125 44.453125 7.46875 
Q 49.3125 8.734375 54.109375 11.28125 
L 54.109375 2.78125 
Q 49.265625 0.734375 44.1875 -0.34375 
Q 39.109375 -1.421875 33.890625 -1.421875 
Q 20.796875 -1.421875 13.15625 6.1875 
Q 5.515625 13.8125 5.515625 26.8125 
Q 5.515625 40.234375 12.765625 48.109375 
Q 20.015625 56 32.328125 56 
Q 43.359375 56 49.78125 48.890625 
Q 56.203125 41.796875 56.203125 29.59375 
z
M 47.21875 32.234375 
Q 47.125 39.59375 43.09375 43.984375 
Q 39.0625 48.390625 32.421875 48.390625 
Q 24.90625 48.390625 20.390625 44.140625 
Q 15.875 39.890625 15.1875 32.171875 
z
" id="DejaVuSans-65"/>
      <path d="M 48.78125 52.59375 
L 48.78125 44.1875 
Q 44.96875 46.296875 41.140625 47.34375 
Q 37.3125 48.390625 33.40625 48.390625 
Q 24.65625 48.390625 19.8125 42.84375 
Q 14.984375 37.3125 14.984375 27.296875 
Q 14.984375 17.28125 19.8125 11.734375 
Q 24.65625 6.203125 33.40625 6.203125 
Q 37.3125 6.203125 41.140625 7.25 
Q 44.96875 8.296875 48.78125 10.40625 
L 48.78125 2.09375 
Q 45.015625 0.34375 40.984375 -0.53125 
Q 36.96875 -1.421875 32.421875 -1.421875 
Q 20.0625 -1.421875 12.78125 6.34375 
Q 5.515625 14.109375 5.515625 27.296875 
Q 5.515625 40.671875 12.859375 48.328125 
Q 20.21875 56 33.015625 56 
Q 37.15625 56 41.109375 55.140625 
Q 45.0625 54.296875 48.78125 52.59375 
z
" id="DejaVuSans-63"/>
      <path d="M 30.609375 48.390625 
Q 23.390625 48.390625 19.1875 42.75 
Q 14.984375 37.109375 14.984375 27.296875 
Q 14.984375 17.484375 19.15625 11.84375 
Q 23.34375 6.203125 30.609375 6.203125 
Q 37.796875 6.203125 41.984375 11.859375 
Q 46.1875 17.53125 46.1875 27.296875 
Q 46.1875 37.015625 41.984375 42.703125 
Q 37.796875 48.390625 30.609375 48.390625 
z
M 30.609375 56 
Q 42.328125 56 49.015625 48.375 
Q 55.71875 40.765625 55.71875 27.296875 
Q 55.71875 13.875 49.015625 6.21875 
Q 42.328125 -1.421875 30.609375 -1.421875 
Q 18.84375 -1.421875 12.171875 6.21875 
Q 5.515625 13.875 5.515625 27.296875 
Q 5.515625 40.765625 12.171875 48.375 
Q 18.84375 56 30.609375 56 
z
" id="DejaVuSans-6f"/>
      <path d="M 45.40625 46.390625 
L 45.40625 75.984375 
L 54.390625 75.984375 
L 54.390625 0 
L 45.40625 0 
L 45.40625 8.203125 
Q 42.578125 3.328125 38.25 0.953125 
Q 33.9375 -1.421875 27.875 -1.421875 
Q 17.96875 -1.421875 11.734375 6.484375 
Q 5.515625 14.40625 5.515625 27.296875 
Q 5.515625 40.1875 11.734375 48.09375 
Q 17.96875 56 27.875 56 
Q 33.9375 56 38.25 53.625 
Q 42.578125 51.265625 45.40625 46.390625 
z
M 14.796875 27.296875 
Q 14.796875 17.390625 18.875 11.75 
Q 22.953125 6.109375 30.078125 6.109375 
Q 37.203125 6.109375 41.296875 11.75 
Q 45.40625 17.390625 45.40625 27.296875 
Q 45.40625 37.203125 41.296875 42.84375 
Q 37.203125 48.484375 30.078125 48.484375 
Q 22.953125 48.484375 18.875 42.84375 
Q 14.796875 37.203125 14.796875 27.296875 
z
" id="DejaVuSans-64"/>
      <path d="M 41.109375 46.296875 
Q 39.59375 47.171875 37.8125 47.578125 
Q 36.03125 48 33.890625 48 
Q 26.265625 48 22.1875 43.046875 
Q 18.109375 38.09375 18.109375 28.8125 
L 18.109375 0 
L 9.078125 0 
L 9.078125 54.6875 
L 18.109375 54.6875 
L 18.109375 46.1875 
Q 20.953125 51.171875 25.484375 53.578125 
Q 30.03125 56 36.53125 56 
Q 37.453125 56 38.578125 55.875 
Q 39.703125 55.765625 41.0625 55.515625 
z
" id="DejaVuSans-72"/>
      <path d="M 32.171875 -5.078125 
Q 28.375 -14.84375 24.75 -17.8125 
Q 21.140625 -20.796875 15.09375 -20.796875 
L 7.90625 -20.796875 
L 7.90625 -13.28125 
L 13.1875 -13.28125 
Q 16.890625 -13.28125 18.9375 -11.515625 
Q 21 -9.765625 23.484375 -3.21875 
L 25.09375 0.875 
L 2.984375 54.6875 
L 12.5 54.6875 
L 29.59375 11.921875 
L 46.6875 54.6875 
L 56.203125 54.6875 
z
" id="DejaVuSans-79"/>
     </defs>
     <g transform="translate(523.463144 103.675028)scale(0.1 -0.1)">
      <use xlink:href="#DejaVuSans-31"/>
      <use x="63.623047" xlink:href="#DejaVuSans-38"/>
      <use x="127.246094" xlink:href="#DejaVuSans-32"/>
      <use x="190.869141" xlink:href="#DejaVuSans-20"/>
      <use x="222.65625" xlink:href="#DejaVuSans-20"/>
      <use x="254.443359" xlink:href="#DejaVuSans-42"/>
      <use x="323.046875" xlink:href="#DejaVuSans-75"/>
      <use x="386.425781" xlink:href="#DejaVuSans-74"/>
      <use x="425.634766" xlink:href="#DejaVuSans-20"/>
      <use x="457.421875" xlink:href="#DejaVuSans-69"/>
      <use x="485.205078" xlink:href="#DejaVuSans-6e"/>
      <use x="548.583984" xlink:href="#DejaVuSans-20"/>
      <use x="580.371094" xlink:href="#DejaVuSans-61"/>
      <use x="641.650391" xlink:href="#DejaVuSans-20"/>
      <use x="673.4375" xlink:href="#DejaVuSans-73"/>
      <use x="725.537109" xlink:href="#DejaVuSans-65"/>
      <use x="787.060547" xlink:href="#DejaVuSans-63"/>
      <use x="842.041016" xlink:href="#DejaVuSans-6f"/>
      <use x="903.222656" xlink:href="#DejaVuSans-6e"/>
      <use x="966.601562" xlink:href="#DejaVuSans-64"/>
      <use x="1030.078125" xlink:href="#DejaVuSans-61"/>
      <use x="1091.357422" xlink:href="#DejaVuSans-72"/>
      <use x="1132.470703" xlink:href="#DejaVuSans-79"/>
      <use x="1191.650391" xlink:href="#DejaVuSans-20"/>
      <use x="1223.4375" xlink:href="#DejaVuSans-73"/>
      <use x="1275.537109" xlink:href="#DejaVuSans-65"/>
      <use x="1337.060547" xlink:href="#DejaVuSans-6e"/>
      <use x="1400.439453" xlink:href="#DejaVuSans-73"/>
      <use x="1452.539062" xlink:href="#DejaVuSans-65"/>
     </g>
    </g>
    <g clip-path="url(#pc5901a686a)">
     <!-- those things are called -->
     <defs>
      <path d="M 54.890625 33.015625 
L 54.890625 0 
L 45.90625 0 
L 45.90625 32.71875 
Q 45.90625 40.484375 42.875 44.328125 
Q 39.84375 48.1875 33.796875 48.1875 
Q 26.515625 48.1875 22.3125 43.546875 
Q 18.109375 38.921875 18.109375 30.90625 
L 18.109375 0 
L 9.078125 0 
L 9.078125 75.984375 
L 18.109375 75.984375 
L 18.109375 46.1875 
Q 21.34375 51.125 25.703125 53.5625 
Q 30.078125 56 35.796875 56 
Q 45.21875 56 50.046875 50.171875 
Q 54.890625 44.34375 54.890625 33.015625 
z
" id="DejaVuSans-68"/>
      <path d="M 45.40625 27.984375 
Q 45.40625 37.75 41.375 43.109375 
Q 37.359375 48.484375 30.078125 48.484375 
Q 22.859375 48.484375 18.828125 43.109375 
Q 14.796875 37.75 14.796875 27.984375 
Q 14.796875 18.265625 18.828125 12.890625 
Q 22.859375 7.515625 30.078125 7.515625 
Q 37.359375 7.515625 41.375 12.890625 
Q 45.40625 18.265625 45.40625 27.984375 
z
M 54.390625 6.78125 
Q 54.390625 -7.171875 48.1875 -13.984375 
Q 42 -20.796875 29.203125 -20.796875 
Q 24.46875 -20.796875 20.265625 -20.09375 
Q 16.0625 -19.390625 12.109375 -17.921875 
L 12.109375 -9.1875 
Q 16.0625 -11.328125 19.921875 -12.34375 
Q 23.78125 -13.375 27.78125 -13.375 
Q 36.625 -13.375 41.015625 -8.765625 
Q 45.40625 -4.15625 45.40625 5.171875 
L 45.40625 9.625 
Q 42.625 4.78125 38.28125 2.390625 
Q 33.9375 0 27.875 0 
Q 17.828125 0 11.671875 7.65625 
Q 5.515625 15.328125 5.515625 27.984375 
Q 5.515625 40.671875 11.671875 48.328125 
Q 17.828125 56 27.875 56 
Q 33.9375 56 38.28125 53.609375 
Q 42.625 51.21875 45.40625 46.390625 
L 45.40625 54.6875 
L 54.390625 54.6875 
z
" id="DejaVuSans-67"/>
      <path d="M 9.421875 75.984375 
L 18.40625 75.984375 
L 18.40625 0 
L 9.421875 0 
z
" id="DejaVuSans-6c"/>
     </defs>
     <g transform="translate(542.026425 114.872841)scale(0.1 -0.1)">
      <use xlink:href="#DejaVuSans-74"/>
      <use x="39.208984" xlink:href="#DejaVuSans-68"/>
      <use x="102.587891" xlink:href="#DejaVuSans-6f"/>
      <use x="163.769531" xlink:href="#DejaVuSans-73"/>
      <use x="215.869141" xlink:href="#DejaVuSans-65"/>
      <use x="277.392578" xlink:href="#DejaVuSans-20"/>
      <use x="309.179688" xlink:href="#DejaVuSans-74"/>
      <use x="348.388672" xlink:href="#DejaVuSans-68"/>
      <use x="411.767578" xlink:href="#DejaVuSans-69"/>
      <use x="439.550781" xlink:href="#DejaVuSans-6e"/>
      <use x="502.929688" xlink:href="#DejaVuSans-67"/>
      <use x="566.40625" xlink:href="#DejaVuSans-73"/>
      <use x="618.505859" xlink:href="#DejaVuSans-20"/>
      <use x="650.292969" xlink:href="#DejaVuSans-61"/>
      <use x="711.572266" xlink:href="#DejaVuSans-72"/>
      <use x="752.654297" xlink:href="#DejaVuSans-65"/>
      <use x="814.177734" xlink:href="#DejaVuSans-20"/>
      <use x="845.964844" xlink:href="#DejaVuSans-63"/>
      <use x="900.945312" xlink:href="#DejaVuSans-61"/>
      <use x="962.224609" xlink:href="#DejaVuSans-6c"/>
      <use x="990.007812" xlink:href="#DejaVuSans-6c"/>
      <use x="1017.791016" xlink:href="#DejaVuSans-65"/>
      <use x="1079.314453" xlink:href="#DejaVuSans-64"/>
     </g>
    </g>
    <g clip-path="url(#pc5901a686a)">
     <!-- substances within which , as -->
     <defs>
      <path d="M 48.6875 27.296875 
Q 48.6875 37.203125 44.609375 42.84375 
Q 40.53125 48.484375 33.40625 48.484375 
Q 26.265625 48.484375 22.1875 42.84375 
Q 18.109375 37.203125 18.109375 27.296875 
Q 18.109375 17.390625 22.1875 11.75 
Q 26.265625 6.109375 33.40625 6.109375 
Q 40.53125 6.109375 44.609375 11.75 
Q 48.6875 17.390625 48.6875 27.296875 
z
M 18.109375 46.390625 
Q 20.953125 51.265625 25.265625 53.625 
Q 29.59375 56 35.59375 56 
Q 45.5625 56 51.78125 48.09375 
Q 58.015625 40.1875 58.015625 27.296875 
Q 58.015625 14.40625 51.78125 6.484375 
Q 45.5625 -1.421875 35.59375 -1.421875 
Q 29.59375 -1.421875 25.265625 0.953125 
Q 20.953125 3.328125 18.109375 8.203125 
L 18.109375 0 
L 9.078125 0 
L 9.078125 75.984375 
L 18.109375 75.984375 
z
" id="DejaVuSans-62"/>
      <path d="M 4.203125 54.6875 
L 13.1875 54.6875 
L 24.421875 12.015625 
L 35.59375 54.6875 
L 46.1875 54.6875 
L 57.421875 12.015625 
L 68.609375 54.6875 
L 77.59375 54.6875 
L 63.28125 0 
L 52.6875 0 
L 40.921875 44.828125 
L 29.109375 0 
L 18.5 0 
z
" id="DejaVuSans-77"/>
      <path d="M 11.71875 12.40625 
L 22.015625 12.40625 
L 22.015625 4 
L 14.015625 -11.625 
L 7.71875 -11.625 
L 11.71875 4 
z
" id="DejaVuSans-2c"/>
     </defs>
     <g transform="translate(527.645957 126.070653)scale(0.1 -0.1)">
      <use xlink:href="#DejaVuSans-73"/>
      <use x="52.099609" xlink:href="#DejaVuSans-75"/>
      <use x="115.478516" xlink:href="#DejaVuSans-62"/>
      <use x="178.955078" xlink:href="#DejaVuSans-73"/>
      <use x="231.054688" xlink:href="#DejaVuSans-74"/>
      <use x="270.263672" xlink:href="#DejaVuSans-61"/>
      <use x="331.542969" xlink:href="#DejaVuSans-6e"/>
      <use x="394.921875" xlink:href="#DejaVuSans-63"/>
      <use x="449.902344" xlink:href="#DejaVuSans-65"/>
      <use x="511.425781" xlink:href="#DejaVuSans-73"/>
      <use x="563.525391" xlink:href="#DejaVuSans-20"/>
      <use x="595.3125" xlink:href="#DejaVuSans-77"/>
      <use x="677.099609" xlink:href="#DejaVuSans-69"/>
      <use x="704.882812" xlink:href="#DejaVuSans-74"/>
      <use x="744.091797" xlink:href="#DejaVuSans-68"/>
      <use x="807.470703" xlink:href="#DejaVuSans-69"/>
      <use x="835.253906" xlink:href="#DejaVuSans-6e"/>
      <use x="898.632812" xlink:href="#DejaVuSans-20"/>
      <use x="930.419922" xlink:href="#DejaVuSans-77"/>
      <use x="1012.207031" xlink:href="#DejaVuSans-68"/>
      <use x="1075.585938" xlink:href="#DejaVuSans-69"/>
      <use x="1103.369141" xlink:href="#DejaVuSans-63"/>
      <use x="1158.349609" xlink:href="#DejaVuSans-68"/>
      <use x="1221.728516" xlink:href="#DejaVuSans-20"/>
      <use x="1253.515625" xlink:href="#DejaVuSans-2c"/>
      <use x="1285.302734" xlink:href="#DejaVuSans-20"/>
      <use x="1317.089844" xlink:href="#DejaVuSans-61"/>
      <use x="1378.369141" xlink:href="#DejaVuSans-73"/>
     </g>
    </g>
    <g clip-path="url(#pc5901a686a)">
     <!-- species , the primary -->
     <defs>
      <path d="M 18.109375 8.203125 
L 18.109375 -20.796875 
L 9.078125 -20.796875 
L 9.078125 54.6875 
L 18.109375 54.6875 
L 18.109375 46.390625 
Q 20.953125 51.265625 25.265625 53.625 
Q 29.59375 56 35.59375 56 
Q 45.5625 56 51.78125 48.09375 
Q 58.015625 40.1875 58.015625 27.296875 
Q 58.015625 14.40625 51.78125 6.484375 
Q 45.5625 -1.421875 35.59375 -1.421875 
Q 29.59375 -1.421875 25.265625 0.953125 
Q 20.953125 3.328125 18.109375 8.203125 
z
M 48.6875 27.296875 
Q 48.6875 37.203125 44.609375 42.84375 
Q 40.53125 48.484375 33.40625 48.484375 
Q 26.265625 48.484375 22.1875 42.84375 
Q 18.109375 37.203125 18.109375 27.296875 
Q 18.109375 17.390625 22.1875 11.75 
Q 26.265625 6.109375 33.40625 6.109375 
Q 40.53125 6.109375 44.609375 11.75 
Q 48.6875 17.390625 48.6875 27.296875 
z
" id="DejaVuSans-70"/>
      <path d="M 52 44.1875 
Q 55.375 50.25 60.0625 53.125 
Q 64.75 56 71.09375 56 
Q 79.640625 56 84.28125 50.015625 
Q 88.921875 44.046875 88.921875 33.015625 
L 88.921875 0 
L 79.890625 0 
L 79.890625 32.71875 
Q 79.890625 40.578125 77.09375 44.375 
Q 74.3125 48.1875 68.609375 48.1875 
Q 61.625 48.1875 57.5625 43.546875 
Q 53.515625 38.921875 53.515625 30.90625 
L 53.515625 0 
L 44.484375 0 
L 44.484375 32.71875 
Q 44.484375 40.625 41.703125 44.40625 
Q 38.921875 48.1875 33.109375 48.1875 
Q 26.21875 48.1875 22.15625 43.53125 
Q 18.109375 38.875 18.109375 30.90625 
L 18.109375 0 
L 9.078125 0 
L 9.078125 54.6875 
L 18.109375 54.6875 
L 18.109375 46.1875 
Q 21.1875 51.21875 25.484375 53.609375 
Q 29.78125 56 35.6875 56 
Q 41.65625 56 45.828125 52.96875 
Q 50 49.953125 52 44.1875 
z
" id="DejaVuSans-6d"/>
     </defs>
     <g transform="translate(546.3608 137.268466)scale(0.1 -0.1)">
      <use xlink:href="#DejaVuSans-73"/>
      <use x="52.099609" xlink:href="#DejaVuSans-70"/>
      <use x="115.576172" xlink:href="#DejaVuSans-65"/>
      <use x="177.099609" xlink:href="#DejaVuSans-63"/>
      <use x="232.080078" xlink:href="#DejaVuSans-69"/>
      <use x="259.863281" xlink:href="#DejaVuSans-65"/>
      <use x="321.386719" xlink:href="#DejaVuSans-73"/>
      <use x="373.486328" xlink:href="#DejaVuSans-20"/>
      <use x="405.273438" xlink:href="#DejaVuSans-2c"/>
      <use x="437.060547" xlink:href="#DejaVuSans-20"/>
      <use x="468.847656" xlink:href="#DejaVuSans-74"/>
      <use x="508.056641" xlink:href="#DejaVuSans-68"/>
      <use x="571.435547" xlink:href="#DejaVuSans-65"/>
      <use x="632.958984" xlink:href="#DejaVuSans-20"/>
      <use x="664.746094" xlink:href="#DejaVuSans-70"/>
      <use x="728.222656" xlink:href="#DejaVuSans-72"/>
      <use x="769.335938" xlink:href="#DejaVuSans-69"/>
      <use x="797.119141" xlink:href="#DejaVuSans-6d"/>
      <use x="894.53125" xlink:href="#DejaVuSans-61"/>
      <use x="955.810547" xlink:href="#DejaVuSans-72"/>
      <use x="996.923828" xlink:href="#DejaVuSans-79"/>
     </g>
    </g>
    <g clip-path="url(#pc5901a686a)">
     <!-- substances are included , also -->
     <g transform="translate(523.442832 148.466278)scale(0.1 -0.1)">
      <use xlink:href="#DejaVuSans-73"/>
      <use x="52.099609" xlink:href="#DejaVuSans-75"/>
      <use x="115.478516" xlink:href="#DejaVuSans-62"/>
      <use x="178.955078" xlink:href="#DejaVuSans-73"/>
      <use x="231.054688" xlink:href="#DejaVuSans-74"/>
      <use x="270.263672" xlink:href="#DejaVuSans-61"/>
      <use x="331.542969" xlink:href="#DejaVuSans-6e"/>
      <use x="394.921875" xlink:href="#DejaVuSans-63"/>
      <use x="449.902344" xlink:href="#DejaVuSans-65"/>
      <use x="511.425781" xlink:href="#DejaVuSans-73"/>
      <use x="563.525391" xlink:href="#DejaVuSans-20"/>
      <use x="595.3125" xlink:href="#DejaVuSans-61"/>
      <use x="656.591797" xlink:href="#DejaVuSans-72"/>
      <use x="697.673828" xlink:href="#DejaVuSans-65"/>
      <use x="759.197266" xlink:href="#DejaVuSans-20"/>
      <use x="790.984375" xlink:href="#DejaVuSans-69"/>
      <use x="818.767578" xlink:href="#DejaVuSans-6e"/>
      <use x="882.146484" xlink:href="#DejaVuSans-63"/>
      <use x="937.126953" xlink:href="#DejaVuSans-6c"/>
      <use x="964.910156" xlink:href="#DejaVuSans-75"/>
      <use x="1028.289062" xlink:href="#DejaVuSans-64"/>
      <use x="1091.765625" xlink:href="#DejaVuSans-65"/>
      <use x="1153.289062" xlink:href="#DejaVuSans-64"/>
      <use x="1216.765625" xlink:href="#DejaVuSans-20"/>
      <use x="1248.552734" xlink:href="#DejaVuSans-2c"/>
      <use x="1280.339844" xlink:href="#DejaVuSans-20"/>
      <use x="1312.126953" xlink:href="#DejaVuSans-61"/>
      <use x="1373.40625" xlink:href="#DejaVuSans-6c"/>
      <use x="1401.189453" xlink:href="#DejaVuSans-73"/>
      <use x="1453.289062" xlink:href="#DejaVuSans-6f"/>
     </g>
    </g>
    <g clip-path="url(#pc5901a686a)">
     <!-- those which , as genera , -->
     <g transform="translate(536.3233 159.664091)scale(0.1 -0.1)">
      <use xlink:href="#DejaVuSans-74"/>
      <use x="39.208984" xlink:href="#DejaVuSans-68"/>
      <use x="102.587891" xlink:href="#DejaVuSans-6f"/>
      <use x="163.769531" xlink:href="#DejaVuSans-73"/>
      <use x="215.869141" xlink:href="#DejaVuSans-65"/>
      <use x="277.392578" xlink:href="#DejaVuSans-20"/>
      <use x="309.179688" xlink:href="#DejaVuSans-77"/>
      <use x="390.966797" xlink:href="#DejaVuSans-68"/>
      <use x="454.345703" xlink:href="#DejaVuSans-69"/>
      <use x="482.128906" xlink:href="#DejaVuSans-63"/>
      <use x="537.109375" xlink:href="#DejaVuSans-68"/>
      <use x="600.488281" xlink:href="#DejaVuSans-20"/>
      <use x="632.275391" xlink:href="#DejaVuSans-2c"/>
      <use x="664.0625" xlink:href="#DejaVuSans-20"/>
      <use x="695.849609" xlink:href="#DejaVuSans-61"/>
      <use x="757.128906" xlink:href="#DejaVuSans-73"/>
      <use x="809.228516" xlink:href="#DejaVuSans-20"/>
      <use x="841.015625" xlink:href="#DejaVuSans-67"/>
      <use x="904.492188" xlink:href="#DejaVuSans-65"/>
      <use x="966.015625" xlink:href="#DejaVuSans-6e"/>
      <use x="1029.394531" xlink:href="#DejaVuSans-65"/>
      <use x="1090.917969" xlink:href="#DejaVuSans-72"/>
      <use x="1132.03125" xlink:href="#DejaVuSans-61"/>
      <use x="1193.310547" xlink:href="#DejaVuSans-20"/>
      <use x="1225.097656" xlink:href="#DejaVuSans-2c"/>
     </g>
    </g>
    <g clip-path="url(#pc5901a686a)">
     <!-- include the species . -->
     <defs>
      <path d="M 10.6875 12.40625 
L 21 12.40625 
L 21 0 
L 10.6875 0 
z
" id="DejaVuSans-2e"/>
     </defs>
     <g transform="translate(547.813144 170.861903)scale(0.1 -0.1)">
      <use xlink:href="#DejaVuSans-69"/>
      <use x="27.783203" xlink:href="#DejaVuSans-6e"/>
      <use x="91.162109" xlink:href="#DejaVuSans-63"/>
      <use x="146.142578" xlink:href="#DejaVuSans-6c"/>
      <use x="173.925781" xlink:href="#DejaVuSans-75"/>
      <use x="237.304688" xlink:href="#DejaVuSans-64"/>
      <use x="300.78125" xlink:href="#DejaVuSans-65"/>
      <use x="362.304688" xlink:href="#DejaVuSans-20"/>
      <use x="394.091797" xlink:href="#DejaVuSans-74"/>
      <use x="433.300781" xlink:href="#DejaVuSans-68"/>
      <use x="496.679688" xlink:href="#DejaVuSans-65"/>
      <use x="558.203125" xlink:href="#DejaVuSans-20"/>
      <use x="589.990234" xlink:href="#DejaVuSans-73"/>
      <use x="642.089844" xlink:href="#DejaVuSans-70"/>
      <use x="705.566406" xlink:href="#DejaVuSans-65"/>
      <use x="767.089844" xlink:href="#DejaVuSans-63"/>
      <use x="822.070312" xlink:href="#DejaVuSans-69"/>
      <use x="849.853516" xlink:href="#DejaVuSans-65"/>
      <use x="911.376953" xlink:href="#DejaVuSans-73"/>
      <use x="963.476562" xlink:href="#DejaVuSans-20"/>
      <use x="995.263672" xlink:href="#DejaVuSans-2e"/>
     </g>
    </g>
   </g>
   <g id="text_2">
    <g clip-path="url(#pc5901a686a)">
     <!-- 180  within which as species -->
     <defs>
      <path d="M 31.78125 66.40625 
Q 24.171875 66.40625 20.328125 58.90625 
Q 16.5 51.421875 16.5 36.375 
Q 16.5 21.390625 20.328125 13.890625 
Q 24.171875 6.390625 31.78125 6.390625 
Q 39.453125 6.390625 43.28125 13.890625 
Q 47.125 21.390625 47.125 36.375 
Q 47.125 51.421875 43.28125 58.90625 
Q 39.453125 66.40625 31.78125 66.40625 
z
M 31.78125 74.21875 
Q 44.046875 74.21875 50.515625 64.515625 
Q 56.984375 54.828125 56.984375 36.375 
Q 56.984375 17.96875 50.515625 8.265625 
Q 44.046875 -1.421875 31.78125 -1.421875 
Q 19.53125 -1.421875 13.0625 8.265625 
Q 6.59375 17.96875 6.59375 36.375 
Q 6.59375 54.828125 13.0625 64.515625 
Q 19.53125 74.21875 31.78125 74.21875 
z
" id="DejaVuSans-30"/>
     </defs>
     <g transform="translate(136.069731 355.161562)scale(0.1 -0.1)">
      <use xlink:href="#DejaVuSans-31"/>
      <use x="63.623047" xlink:href="#DejaVuSans-38"/>
      <use x="127.246094" xlink:href="#DejaVuSans-30"/>
      <use x="190.869141" xlink:href="#DejaVuSans-20"/>
      <use x="222.65625" xlink:href="#DejaVuSans-20"/>
      <use x="254.443359" xlink:href="#DejaVuSans-77"/>
      <use x="336.230469" xlink:href="#DejaVuSans-69"/>
      <use x="364.013672" xlink:href="#DejaVuSans-74"/>
      <use x="403.222656" xlink:href="#DejaVuSans-68"/>
      <use x="466.601562" xlink:href="#DejaVuSans-69"/>
      <use x="494.384766" xlink:href="#DejaVuSans-6e"/>
      <use x="557.763672" xlink:href="#DejaVuSans-20"/>
      <use x="589.550781" xlink:href="#DejaVuSans-77"/>
      <use x="671.337891" xlink:href="#DejaVuSans-68"/>
      <use x="734.716797" xlink:href="#DejaVuSans-69"/>
      <use x="762.5" xlink:href="#DejaVuSans-63"/>
      <use x="817.480469" xlink:href="#DejaVuSans-68"/>
      <use x="880.859375" xlink:href="#DejaVuSans-20"/>
      <use x="912.646484" xlink:href="#DejaVuSans-61"/>
      <use x="973.925781" xlink:href="#DejaVuSans-73"/>
      <use x="1026.025391" xlink:href="#DejaVuSans-20"/>
      <use x="1057.8125" xlink:href="#DejaVuSans-73"/>
      <use x="1109.912109" xlink:href="#DejaVuSans-70"/>
      <use x="1173.388672" xlink:href="#DejaVuSans-65"/>
      <use x="1234.912109" xlink:href="#DejaVuSans-63"/>
      <use x="1289.892578" xlink:href="#DejaVuSans-69"/>
      <use x="1317.675781" xlink:href="#DejaVuSans-65"/>
      <use x="1379.199219" xlink:href="#DejaVuSans-73"/>
     </g>
    </g>
    <g clip-path="url(#pc5901a686a)">
     <!-- the primary substances are -->
     <g transform="translate(138.721294 366.359375)scale(0.1 -0.1)">
      <use xlink:href="#DejaVuSans-74"/>
      <use x="39.208984" xlink:href="#DejaVuSans-68"/>
      <use x="102.587891" xlink:href="#DejaVuSans-65"/>
      <use x="164.111328" xlink:href="#DejaVuSans-20"/>
      <use x="195.898438" xlink:href="#DejaVuSans-70"/>
      <use x="259.375" xlink:href="#DejaVuSans-72"/>
      <use x="300.488281" xlink:href="#DejaVuSans-69"/>
      <use x="328.271484" xlink:href="#DejaVuSans-6d"/>
      <use x="425.683594" xlink:href="#DejaVuSans-61"/>
      <use x="486.962891" xlink:href="#DejaVuSans-72"/>
      <use x="528.076172" xlink:href="#DejaVuSans-79"/>
      <use x="587.255859" xlink:href="#DejaVuSans-20"/>
      <use x="619.042969" xlink:href="#DejaVuSans-73"/>
      <use x="671.142578" xlink:href="#DejaVuSans-75"/>
      <use x="734.521484" xlink:href="#DejaVuSans-62"/>
      <use x="797.998047" xlink:href="#DejaVuSans-73"/>
      <use x="850.097656" xlink:href="#DejaVuSans-74"/>
      <use x="889.306641" xlink:href="#DejaVuSans-61"/>
      <use x="950.585938" xlink:href="#DejaVuSans-6e"/>
      <use x="1013.964844" xlink:href="#DejaVuSans-63"/>
      <use x="1068.945312" xlink:href="#DejaVuSans-65"/>
      <use x="1130.46875" xlink:href="#DejaVuSans-73"/>
      <use x="1182.568359" xlink:href="#DejaVuSans-20"/>
      <use x="1214.355469" xlink:href="#DejaVuSans-61"/>
      <use x="1275.634766" xlink:href="#DejaVuSans-72"/>
      <use x="1316.716797" xlink:href="#DejaVuSans-65"/>
     </g>
    </g>
    <g clip-path="url(#pc5901a686a)">
     <!-- included also those -->
     <g transform="translate(159.177544 377.557187)scale(0.1 -0.1)">
      <use xlink:href="#DejaVuSans-69"/>
      <use x="27.783203" xlink:href="#DejaVuSans-6e"/>
      <use x="91.162109" xlink:href="#DejaVuSans-63"/>
      <use x="146.142578" xlink:href="#DejaVuSans-6c"/>
      <use x="173.925781" xlink:href="#DejaVuSans-75"/>
      <use x="237.304688" xlink:href="#DejaVuSans-64"/>
      <use x="300.78125" xlink:href="#DejaVuSans-65"/>
      <use x="362.304688" xlink:href="#DejaVuSans-64"/>
      <use x="425.78125" xlink:href="#DejaVuSans-20"/>
      <use x="457.568359" xlink:href="#DejaVuSans-61"/>
      <use x="518.847656" xlink:href="#DejaVuSans-6c"/>
      <use x="546.630859" xlink:href="#DejaVuSans-73"/>
      <use x="598.730469" xlink:href="#DejaVuSans-6f"/>
      <use x="659.912109" xlink:href="#DejaVuSans-20"/>
      <use x="691.699219" xlink:href="#DejaVuSans-74"/>
      <use x="730.908203" xlink:href="#DejaVuSans-68"/>
      <use x="794.287109" xlink:href="#DejaVuSans-6f"/>
      <use x="855.46875" xlink:href="#DejaVuSans-73"/>
      <use x="907.568359" xlink:href="#DejaVuSans-65"/>
     </g>
    </g>
   </g>
   <g id="text_3">
    <g clip-path="url(#pc5901a686a)">
     <!-- 179  But in a secondary sense -->
     <defs>
      <path d="M 8.203125 72.90625 
L 55.078125 72.90625 
L 55.078125 68.703125 
L 28.609375 0 
L 18.3125 0 
L 43.21875 64.59375 
L 8.203125 64.59375 
z
" id="DejaVuSans-37"/>
      <path d="M 10.984375 1.515625 
L 10.984375 10.5 
Q 14.703125 8.734375 18.5 7.8125 
Q 22.3125 6.890625 25.984375 6.890625 
Q 35.75 6.890625 40.890625 13.453125 
Q 46.046875 20.015625 46.78125 33.40625 
Q 43.953125 29.203125 39.59375 26.953125 
Q 35.25 24.703125 29.984375 24.703125 
Q 19.046875 24.703125 12.671875 31.3125 
Q 6.296875 37.9375 6.296875 49.421875 
Q 6.296875 60.640625 12.9375 67.421875 
Q 19.578125 74.21875 30.609375 74.21875 
Q 43.265625 74.21875 49.921875 64.515625 
Q 56.59375 54.828125 56.59375 36.375 
Q 56.59375 19.140625 48.40625 8.859375 
Q 40.234375 -1.421875 26.421875 -1.421875 
Q 22.703125 -1.421875 18.890625 -0.6875 
Q 15.09375 0.046875 10.984375 1.515625 
z
M 30.609375 32.421875 
Q 37.25 32.421875 41.125 36.953125 
Q 45.015625 41.5 45.015625 49.421875 
Q 45.015625 57.28125 41.125 61.84375 
Q 37.25 66.40625 30.609375 66.40625 
Q 23.96875 66.40625 20.09375 61.84375 
Q 16.21875 57.28125 16.21875 49.421875 
Q 16.21875 41.5 20.09375 36.953125 
Q 23.96875 32.421875 30.609375 32.421875 
z
" id="DejaVuSans-39"/>
     </defs>
     <g transform="translate(523.463144 355.161562)scale(0.1 -0.1)">
      <use xlink:href="#DejaVuSans-31"/>
      <use x="63.623047" xlink:href="#DejaVuSans-37"/>
      <use x="127.246094" xlink:href="#DejaVuSans-39"/>
      <use x="190.869141" xlink:href="#DejaVuSans-20"/>
      <use x="222.65625" xlink:href="#DejaVuSans-20"/>
      <use x="254.443359" xlink:href="#DejaVuSans-42"/>
      <use x="323.046875" xlink:href="#DejaVuSans-75"/>
      <use x="386.425781" xlink:href="#DejaVuSans-74"/>
      <use x="425.634766" xlink:href="#DejaVuSans-20"/>
      <use x="457.421875" xlink:href="#DejaVuSans-69"/>
      <use x="485.205078" xlink:href="#DejaVuSans-6e"/>
      <use x="548.583984" xlink:href="#DejaVuSans-20"/>
      <use x="580.371094" xlink:href="#DejaVuSans-61"/>
      <use x="641.650391" xlink:href="#DejaVuSans-20"/>
      <use x="673.4375" xlink:href="#DejaVuSans-73"/>
      <use x="725.537109" xlink:href="#DejaVuSans-65"/>
      <use x="787.060547" xlink:href="#DejaVuSans-63"/>
      <use x="842.041016" xlink:href="#DejaVuSans-6f"/>
      <use x="903.222656" xlink:href="#DejaVuSans-6e"/>
      <use x="966.601562" xlink:href="#DejaVuSans-64"/>
      <use x="1030.078125" xlink:href="#DejaVuSans-61"/>
      <use x="1091.357422" xlink:href="#DejaVuSans-72"/>
      <use x="1132.470703" xlink:href="#DejaVuSans-79"/>
      <use x="1191.650391" xlink:href="#DejaVuSans-20"/>
      <use x="1223.4375" xlink:href="#DejaVuSans-73"/>
      <use x="1275.537109" xlink:href="#DejaVuSans-65"/>
      <use x="1337.060547" xlink:href="#DejaVuSans-6e"/>
      <use x="1400.439453" xlink:href="#DejaVuSans-73"/>
      <use x="1452.539062" xlink:href="#DejaVuSans-65"/>
     </g>
    </g>
    <g clip-path="url(#pc5901a686a)">
     <!-- those things are called -->
     <g transform="translate(542.026425 366.359375)scale(0.1 -0.1)">
      <use xlink:href="#DejaVuSans-74"/>
      <use x="39.208984" xlink:href="#DejaVuSans-68"/>
      <use x="102.587891" xlink:href="#DejaVuSans-6f"/>
      <use x="163.769531" xlink:href="#DejaVuSans-73"/>
      <use x="215.869141" xlink:href="#DejaVuSans-65"/>
      <use x="277.392578" xlink:href="#DejaVuSans-20"/>
      <use x="309.179688" xlink:href="#DejaVuSans-74"/>
      <use x="348.388672" xlink:href="#DejaVuSans-68"/>
      <use x="411.767578" xlink:href="#DejaVuSans-69"/>
      <use x="439.550781" xlink:href="#DejaVuSans-6e"/>
      <use x="502.929688" xlink:href="#DejaVuSans-67"/>
      <use x="566.40625" xlink:href="#DejaVuSans-73"/>
      <use x="618.505859" xlink:href="#DejaVuSans-20"/>
      <use x="650.292969" xlink:href="#DejaVuSans-61"/>
      <use x="711.572266" xlink:href="#DejaVuSans-72"/>
      <use x="752.654297" xlink:href="#DejaVuSans-65"/>
      <use x="814.177734" xlink:href="#DejaVuSans-20"/>
      <use x="845.964844" xlink:href="#DejaVuSans-63"/>
      <use x="900.945312" xlink:href="#DejaVuSans-61"/>
      <use x="962.224609" xlink:href="#DejaVuSans-6c"/>
      <use x="990.007812" xlink:href="#DejaVuSans-6c"/>
      <use x="1017.791016" xlink:href="#DejaVuSans-65"/>
      <use x="1079.314453" xlink:href="#DejaVuSans-64"/>
     </g>
    </g>
    <g clip-path="url(#pc5901a686a)">
     <!-- substances -->
     <g transform="translate(570.989707 377.557187)scale(0.1 -0.1)">
      <use xlink:href="#DejaVuSans-73"/>
      <use x="52.099609" xlink:href="#DejaVuSans-75"/>
      <use x="115.478516" xlink:href="#DejaVuSans-62"/>
      <use x="178.955078" xlink:href="#DejaVuSans-73"/>
      <use x="231.054688" xlink:href="#DejaVuSans-74"/>
      <use x="270.263672" xlink:href="#DejaVuSans-61"/>
      <use x="331.542969" xlink:href="#DejaVuSans-6e"/>
      <use x="394.921875" xlink:href="#DejaVuSans-63"/>
      <use x="449.902344" xlink:href="#DejaVuSans-65"/>
      <use x="511.425781" xlink:href="#DejaVuSans-73"/>
     </g>
    </g>
   </g>
   <g id="text_4">
    <g clip-path="url(#pc5901a686a)">
     <!-- 181  which as genera include -->
     <g transform="translate(825.913862 360.760469)scale(0.1 -0.1)">
      <use xlink:href="#DejaVuSans-31"/>
      <use x="63.623047" xlink:href="#DejaVuSans-38"/>
      <use x="127.246094" xlink:href="#DejaVuSans-31"/>
      <use x="190.869141" xlink:href="#DejaVuSans-20"/>
      <use x="222.65625" xlink:href="#DejaVuSans-20"/>
      <use x="254.443359" xlink:href="#DejaVuSans-77"/>
      <use x="336.230469" xlink:href="#DejaVuSans-68"/>
      <use x="399.609375" xlink:href="#DejaVuSans-69"/>
      <use x="427.392578" xlink:href="#DejaVuSans-63"/>
      <use x="482.373047" xlink:href="#DejaVuSans-68"/>
      <use x="545.751953" xlink:href="#DejaVuSans-20"/>
      <use x="577.539062" xlink:href="#DejaVuSans-61"/>
      <use x="638.818359" xlink:href="#DejaVuSans-73"/>
      <use x="690.917969" xlink:href="#DejaVuSans-20"/>
      <use x="722.705078" xlink:href="#DejaVuSans-67"/>
      <use x="786.181641" xlink:href="#DejaVuSans-65"/>
      <use x="847.705078" xlink:href="#DejaVuSans-6e"/>
      <use x="911.083984" xlink:href="#DejaVuSans-65"/>
      <use x="972.607422" xlink:href="#DejaVuSans-72"/>
      <use x="1013.720703" xlink:href="#DejaVuSans-61"/>
      <use x="1075" xlink:href="#DejaVuSans-20"/>
      <use x="1106.787109" xlink:href="#DejaVuSans-69"/>
      <use x="1134.570312" xlink:href="#DejaVuSans-6e"/>
      <use x="1197.949219" xlink:href="#DejaVuSans-63"/>
      <use x="1252.929688" xlink:href="#DejaVuSans-6c"/>
      <use x="1280.712891" xlink:href="#DejaVuSans-75"/>
      <use x="1344.091797" xlink:href="#DejaVuSans-64"/>
      <use x="1407.568359" xlink:href="#DejaVuSans-65"/>
     </g>
    </g>
    <g clip-path="url(#pc5901a686a)">
     <!-- the species -->
     <g transform="translate(870.898237 371.958281)scale(0.1 -0.1)">
      <use xlink:href="#DejaVuSans-74"/>
      <use x="39.208984" xlink:href="#DejaVuSans-68"/>
      <use x="102.587891" xlink:href="#DejaVuSans-65"/>
      <use x="164.111328" xlink:href="#DejaVuSans-20"/>
      <use x="195.898438" xlink:href="#DejaVuSans-73"/>
      <use x="247.998047" xlink:href="#DejaVuSans-70"/>
      <use x="311.474609" xlink:href="#DejaVuSans-65"/>
      <use x="372.998047" xlink:href="#DejaVuSans-63"/>
      <use x="427.978516" xlink:href="#DejaVuSans-69"/>
      <use x="455.761719" xlink:href="#DejaVuSans-65"/>
      <use x="517.285156" xlink:href="#DejaVuSans-73"/>
     </g>
    </g>
   </g>
   <g id="text_5">
    <g clip-path="url(#pc5901a686a)">
     <!-- 177  a secondary sense -->
     <g transform="translate(539.758457 595.450284)scale(0.1 -0.1)">
      <use xlink:href="#DejaVuSans-31"/>
      <use x="63.623047" xlink:href="#DejaVuSans-37"/>
      <use x="127.246094" xlink:href="#DejaVuSans-37"/>
      <use x="190.869141" xlink:href="#DejaVuSans-20"/>
      <use x="222.65625" xlink:href="#DejaVuSans-20"/>
      <use x="254.443359" xlink:href="#DejaVuSans-61"/>
      <use x="315.722656" xlink:href="#DejaVuSans-20"/>
      <use x="347.509766" xlink:href="#DejaVuSans-73"/>
      <use x="399.609375" xlink:href="#DejaVuSans-65"/>
      <use x="461.132812" xlink:href="#DejaVuSans-63"/>
      <use x="516.113281" xlink:href="#DejaVuSans-6f"/>
      <use x="577.294922" xlink:href="#DejaVuSans-6e"/>
      <use x="640.673828" xlink:href="#DejaVuSans-64"/>
      <use x="704.150391" xlink:href="#DejaVuSans-61"/>
      <use x="765.429688" xlink:href="#DejaVuSans-72"/>
      <use x="806.542969" xlink:href="#DejaVuSans-79"/>
      <use x="865.722656" xlink:href="#DejaVuSans-20"/>
      <use x="897.509766" xlink:href="#DejaVuSans-73"/>
      <use x="949.609375" xlink:href="#DejaVuSans-65"/>
      <use x="1011.132812" xlink:href="#DejaVuSans-6e"/>
      <use x="1074.511719" xlink:href="#DejaVuSans-73"/>
      <use x="1126.611328" xlink:href="#DejaVuSans-65"/>
     </g>
    </g>
   </g>
   <g id="text_6">
    <g clip-path="url(#pc5901a686a)">
     <!-- 178  the primary substances -->
     <g transform="translate(135.783013 595.450284)scale(0.1 -0.1)">
      <use xlink:href="#DejaVuSans-31"/>
      <use x="63.623047" xlink:href="#DejaVuSans-37"/>
      <use x="127.246094" xlink:href="#DejaVuSans-38"/>
      <use x="190.869141" xlink:href="#DejaVuSans-20"/>
      <use x="222.65625" xlink:href="#DejaVuSans-20"/>
      <use x="254.443359" xlink:href="#DejaVuSans-74"/>
      <use x="293.652344" xlink:href="#DejaVuSans-68"/>
      <use x="357.03125" xlink:href="#DejaVuSans-65"/>
      <use x="418.554688" xlink:href="#DejaVuSans-20"/>
      <use x="450.341797" xlink:href="#DejaVuSans-70"/>
      <use x="513.818359" xlink:href="#DejaVuSans-72"/>
      <use x="554.931641" xlink:href="#DejaVuSans-69"/>
      <use x="582.714844" xlink:href="#DejaVuSans-6d"/>
      <use x="680.126953" xlink:href="#DejaVuSans-61"/>
      <use x="741.40625" xlink:href="#DejaVuSans-72"/>
      <use x="782.519531" xlink:href="#DejaVuSans-79"/>
      <use x="841.699219" xlink:href="#DejaVuSans-20"/>
      <use x="873.486328" xlink:href="#DejaVuSans-73"/>
      <use x="925.585938" xlink:href="#DejaVuSans-75"/>
      <use x="988.964844" xlink:href="#DejaVuSans-62"/>
      <use x="1052.441406" xlink:href="#DejaVuSans-73"/>
      <use x="1104.541016" xlink:href="#DejaVuSans-74"/>
      <use x="1143.75" xlink:href="#DejaVuSans-61"/>
      <use x="1205.029297" xlink:href="#DejaVuSans-6e"/>
      <use x="1268.408203" xlink:href="#DejaVuSans-63"/>
      <use x="1323.388672" xlink:href="#DejaVuSans-65"/>
      <use x="1384.912109" xlink:href="#DejaVuSans-73"/>
     </g>
    </g>
   </g>
   <g id="text_7">
    <!-- But in a secondary sense those things are called substances within which , as species , -->
    <g transform="translate(291.58875 12.6505)scale(0.12 -0.12)">
     <use xlink:href="#DejaVuSans-42"/>
     <use x="68.603516" xlink:href="#DejaVuSans-75"/>
     <use x="131.982422" xlink:href="#DejaVuSans-74"/>
     <use x="171.191406" xlink:href="#DejaVuSans-20"/>
     <use x="202.978516" xlink:href="#DejaVuSans-69"/>
     <use x="230.761719" xlink:href="#DejaVuSans-6e"/>
     <use x="294.140625" xlink:href="#DejaVuSans-20"/>
     <use x="325.927734" xlink:href="#DejaVuSans-61"/>
     <use x="387.207031" xlink:href="#DejaVuSans-20"/>
     <use x="418.994141" xlink:href="#DejaVuSans-73"/>
     <use x="471.09375" xlink:href="#DejaVuSans-65"/>
     <use x="532.617188" xlink:href="#DejaVuSans-63"/>
     <use x="587.597656" xlink:href="#DejaVuSans-6f"/>
     <use x="648.779297" xlink:href="#DejaVuSans-6e"/>
     <use x="712.158203" xlink:href="#DejaVuSans-64"/>
     <use x="775.634766" xlink:href="#DejaVuSans-61"/>
     <use x="836.914062" xlink:href="#DejaVuSans-72"/>
     <use x="878.027344" xlink:href="#DejaVuSans-79"/>
     <use x="937.207031" xlink:href="#DejaVuSans-20"/>
     <use x="968.994141" xlink:href="#DejaVuSans-73"/>
     <use x="1021.09375" xlink:href="#DejaVuSans-65"/>
     <use x="1082.617188" xlink:href="#DejaVuSans-6e"/>
     <use x="1145.996094" xlink:href="#DejaVuSans-73"/>
     <use x="1198.095703" xlink:href="#DejaVuSans-65"/>
     <use x="1259.619141" xlink:href="#DejaVuSans-20"/>
     <use x="1291.40625" xlink:href="#DejaVuSans-74"/>
     <use x="1330.615234" xlink:href="#DejaVuSans-68"/>
     <use x="1393.994141" xlink:href="#DejaVuSans-6f"/>
     <use x="1455.175781" xlink:href="#DejaVuSans-73"/>
     <use x="1507.275391" xlink:href="#DejaVuSans-65"/>
     <use x="1568.798828" xlink:href="#DejaVuSans-20"/>
     <use x="1600.585938" xlink:href="#DejaVuSans-74"/>
     <use x="1639.794922" xlink:href="#DejaVuSans-68"/>
     <use x="1703.173828" xlink:href="#DejaVuSans-69"/>
     <use x="1730.957031" xlink:href="#DejaVuSans-6e"/>
     <use x="1794.335938" xlink:href="#DejaVuSans-67"/>
     <use x="1857.8125" xlink:href="#DejaVuSans-73"/>
     <use x="1909.912109" xlink:href="#DejaVuSans-20"/>
     <use x="1941.699219" xlink:href="#DejaVuSans-61"/>
     <use x="2002.978516" xlink:href="#DejaVuSans-72"/>
     <use x="2044.060547" xlink:href="#DejaVuSans-65"/>
     <use x="2105.583984" xlink:href="#DejaVuSans-20"/>
     <use x="2137.371094" xlink:href="#DejaVuSans-63"/>
     <use x="2192.351562" xlink:href="#DejaVuSans-61"/>
     <use x="2253.630859" xlink:href="#DejaVuSans-6c"/>
     <use x="2281.414062" xlink:href="#DejaVuSans-6c"/>
     <use x="2309.197266" xlink:href="#DejaVuSans-65"/>
     <use x="2370.720703" xlink:href="#DejaVuSans-64"/>
     <use x="2434.197266" xlink:href="#DejaVuSans-20"/>
     <use x="2465.984375" xlink:href="#DejaVuSans-73"/>
     <use x="2518.083984" xlink:href="#DejaVuSans-75"/>
     <use x="2581.462891" xlink:href="#DejaVuSans-62"/>
     <use x="2644.939453" xlink:href="#DejaVuSans-73"/>
     <use x="2697.039062" xlink:href="#DejaVuSans-74"/>
     <use x="2736.248047" xlink:href="#DejaVuSans-61"/>
     <use x="2797.527344" xlink:href="#DejaVuSans-6e"/>
     <use x="2860.90625" xlink:href="#DejaVuSans-63"/>
     <use x="2915.886719" xlink:href="#DejaVuSans-65"/>
     <use x="2977.410156" xlink:href="#DejaVuSans-73"/>
     <use x="3029.509766" xlink:href="#DejaVuSans-20"/>
     <use x="3061.296875" xlink:href="#DejaVuSans-77"/>
     <use x="3143.083984" xlink:href="#DejaVuSans-69"/>
     <use x="3170.867188" xlink:href="#DejaVuSans-74"/>
     <use x="3210.076172" xlink:href="#DejaVuSans-68"/>
     <use x="3273.455078" xlink:href="#DejaVuSans-69"/>
     <use x="3301.238281" xlink:href="#DejaVuSans-6e"/>
     <use x="3364.617188" xlink:href="#DejaVuSans-20"/>
     <use x="3396.404297" xlink:href="#DejaVuSans-77"/>
     <use x="3478.191406" xlink:href="#DejaVuSans-68"/>
     <use x="3541.570312" xlink:href="#DejaVuSans-69"/>
     <use x="3569.353516" xlink:href="#DejaVuSans-63"/>
     <use x="3624.333984" xlink:href="#DejaVuSans-68"/>
     <use x="3687.712891" xlink:href="#DejaVuSans-20"/>
     <use x="3719.5" xlink:href="#DejaVuSans-2c"/>
     <use x="3751.287109" xlink:href="#DejaVuSans-20"/>
     <use x="3783.074219" xlink:href="#DejaVuSans-61"/>
     <use x="3844.353516" xlink:href="#DejaVuSans-73"/>
     <use x="3896.453125" xlink:href="#DejaVuSans-20"/>
     <use x="3928.240234" xlink:href="#DejaVuSans-73"/>
     <use x="3980.339844" xlink:href="#DejaVuSans-70"/>
     <use x="4043.816406" xlink:href="#DejaVuSans-65"/>
     <use x="4105.339844" xlink:href="#DejaVuSans-63"/>
     <use x="4160.320312" xlink:href="#DejaVuSans-69"/>
     <use x="4188.103516" xlink:href="#DejaVuSans-65"/>
     <use x="4249.626953" xlink:href="#DejaVuSans-73"/>
     <use x="4301.726562" xlink:href="#DejaVuSans-20"/>
     <use x="4333.513672" xlink:href="#DejaVuSans-2c"/>
    </g>
    <!-- the primary substances are included , also those which , as genera , include the species . -->
    <g transform="translate(284.64375 26.087875)scale(0.12 -0.12)">
     <use xlink:href="#DejaVuSans-74"/>
     <use x="39.208984" xlink:href="#DejaVuSans-68"/>
     <use x="102.587891" xlink:href="#DejaVuSans-65"/>
     <use x="164.111328" xlink:href="#DejaVuSans-20"/>
     <use x="195.898438" xlink:href="#DejaVuSans-70"/>
     <use x="259.375" xlink:href="#DejaVuSans-72"/>
     <use x="300.488281" xlink:href="#DejaVuSans-69"/>
     <use x="328.271484" xlink:href="#DejaVuSans-6d"/>
     <use x="425.683594" xlink:href="#DejaVuSans-61"/>
     <use x="486.962891" xlink:href="#DejaVuSans-72"/>
     <use x="528.076172" xlink:href="#DejaVuSans-79"/>
     <use x="587.255859" xlink:href="#DejaVuSans-20"/>
     <use x="619.042969" xlink:href="#DejaVuSans-73"/>
     <use x="671.142578" xlink:href="#DejaVuSans-75"/>
     <use x="734.521484" xlink:href="#DejaVuSans-62"/>
     <use x="797.998047" xlink:href="#DejaVuSans-73"/>
     <use x="850.097656" xlink:href="#DejaVuSans-74"/>
     <use x="889.306641" xlink:href="#DejaVuSans-61"/>
     <use x="950.585938" xlink:href="#DejaVuSans-6e"/>
     <use x="1013.964844" xlink:href="#DejaVuSans-63"/>
     <use x="1068.945312" xlink:href="#DejaVuSans-65"/>
     <use x="1130.46875" xlink:href="#DejaVuSans-73"/>
     <use x="1182.568359" xlink:href="#DejaVuSans-20"/>
     <use x="1214.355469" xlink:href="#DejaVuSans-61"/>
     <use x="1275.634766" xlink:href="#DejaVuSans-72"/>
     <use x="1316.716797" xlink:href="#DejaVuSans-65"/>
     <use x="1378.240234" xlink:href="#DejaVuSans-20"/>
     <use x="1410.027344" xlink:href="#DejaVuSans-69"/>
     <use x="1437.810547" xlink:href="#DejaVuSans-6e"/>
     <use x="1501.189453" xlink:href="#DejaVuSans-63"/>
     <use x="1556.169922" xlink:href="#DejaVuSans-6c"/>
     <use x="1583.953125" xlink:href="#DejaVuSans-75"/>
     <use x="1647.332031" xlink:href="#DejaVuSans-64"/>
     <use x="1710.808594" xlink:href="#DejaVuSans-65"/>
     <use x="1772.332031" xlink:href="#DejaVuSans-64"/>
     <use x="1835.808594" xlink:href="#DejaVuSans-20"/>
     <use x="1867.595703" xlink:href="#DejaVuSans-2c"/>
     <use x="1899.382812" xlink:href="#DejaVuSans-20"/>
     <use x="1931.169922" xlink:href="#DejaVuSans-61"/>
     <use x="1992.449219" xlink:href="#DejaVuSans-6c"/>
     <use x="2020.232422" xlink:href="#DejaVuSans-73"/>
     <use x="2072.332031" xlink:href="#DejaVuSans-6f"/>
     <use x="2133.513672" xlink:href="#DejaVuSans-20"/>
     <use x="2165.300781" xlink:href="#DejaVuSans-74"/>
     <use x="2204.509766" xlink:href="#DejaVuSans-68"/>
     <use x="2267.888672" xlink:href="#DejaVuSans-6f"/>
     <use x="2329.070312" xlink:href="#DejaVuSans-73"/>
     <use x="2381.169922" xlink:href="#DejaVuSans-65"/>
     <use x="2442.693359" xlink:href="#DejaVuSans-20"/>
     <use x="2474.480469" xlink:href="#DejaVuSans-77"/>
     <use x="2556.267578" xlink:href="#DejaVuSans-68"/>
     <use x="2619.646484" xlink:href="#DejaVuSans-69"/>
     <use x="2647.429688" xlink:href="#DejaVuSans-63"/>
     <use x="2702.410156" xlink:href="#DejaVuSans-68"/>
     <use x="2765.789062" xlink:href="#DejaVuSans-20"/>
     <use x="2797.576172" xlink:href="#DejaVuSans-2c"/>
     <use x="2829.363281" xlink:href="#DejaVuSans-20"/>
     <use x="2861.150391" xlink:href="#DejaVuSans-61"/>
     <use x="2922.429688" xlink:href="#DejaVuSans-73"/>
     <use x="2974.529297" xlink:href="#DejaVuSans-20"/>
     <use x="3006.316406" xlink:href="#DejaVuSans-67"/>
     <use x="3069.792969" xlink:href="#DejaVuSans-65"/>
     <use x="3131.316406" xlink:href="#DejaVuSans-6e"/>
     <use x="3194.695312" xlink:href="#DejaVuSans-65"/>
     <use x="3256.21875" xlink:href="#DejaVuSans-72"/>
     <use x="3297.332031" xlink:href="#DejaVuSans-61"/>
     <use x="3358.611328" xlink:href="#DejaVuSans-20"/>
     <use x="3390.398438" xlink:href="#DejaVuSans-2c"/>
     <use x="3422.185547" xlink:href="#DejaVuSans-20"/>
     <use x="3453.972656" xlink:href="#DejaVuSans-69"/>
     <use x="3481.755859" xlink:href="#DejaVuSans-6e"/>
     <use x="3545.134766" xlink:href="#DejaVuSans-63"/>
     <use x="3600.115234" xlink:href="#DejaVuSans-6c"/>
     <use x="3627.898438" xlink:href="#DejaVuSans-75"/>
     <use x="3691.277344" xlink:href="#DejaVuSans-64"/>
     <use x="3754.753906" xlink:href="#DejaVuSans-65"/>
     <use x="3816.277344" xlink:href="#DejaVuSans-20"/>
     <use x="3848.064453" xlink:href="#DejaVuSans-74"/>
     <use x="3887.273438" xlink:href="#DejaVuSans-68"/>
     <use x="3950.652344" xlink:href="#DejaVuSans-65"/>
     <use x="4012.175781" xlink:href="#DejaVuSans-20"/>
     <use x="4043.962891" xlink:href="#DejaVuSans-73"/>
     <use x="4096.0625" xlink:href="#DejaVuSans-70"/>
     <use x="4159.539062" xlink:href="#DejaVuSans-65"/>
     <use x="4221.0625" xlink:href="#DejaVuSans-63"/>
     <use x="4276.042969" xlink:href="#DejaVuSans-69"/>
     <use x="4303.826172" xlink:href="#DejaVuSans-65"/>
     <use x="4365.349609" xlink:href="#DejaVuSans-73"/>
     <use x="4417.449219" xlink:href="#DejaVuSans-20"/>
     <use x="4449.236328" xlink:href="#DejaVuSans-2e"/>
    </g>
    <!-- 177  178  181  179  180  182 -->
    <defs>
     <path d="M 12.890625 0 
L 30.515625 57.90625 
L 42.71875 57.90625 
L 60.296875 0 
L 50.78125 0 
L 36.625 45.90625 
L 22.40625 0 
z
" id="DejaVuSans-2227"/>
    </defs>
    <g transform="translate(443.76 39.52525)scale(0.12 -0.12)">
     <use xlink:href="#DejaVuSans-31"/>
     <use x="63.623047" xlink:href="#DejaVuSans-37"/>
     <use x="127.246094" xlink:href="#DejaVuSans-37"/>
     <use x="190.869141" xlink:href="#DejaVuSans-20"/>
     <use x="222.65625" xlink:href="#DejaVuSans-2227"/>
     <use x="295.849609" xlink:href="#DejaVuSans-20"/>
     <use x="327.636719" xlink:href="#DejaVuSans-31"/>
     <use x="391.259766" xlink:href="#DejaVuSans-37"/>
     <use x="454.882812" xlink:href="#DejaVuSans-38"/>
     <use x="518.505859" xlink:href="#DejaVuSans-20"/>
     <use x="550.292969" xlink:href="#DejaVuSans-2227"/>
     <use x="623.486328" xlink:href="#DejaVuSans-20"/>
     <use x="655.273438" xlink:href="#DejaVuSans-31"/>
     <use x="718.896484" xlink:href="#DejaVuSans-38"/>
     <use x="782.519531" xlink:href="#DejaVuSans-31"/>
     <use x="846.142578" xlink:href="#DejaVuSans-20"/>
     <use x="877.929688" xlink:href="#DejaVuSans-2227"/>
     <use x="951.123047" xlink:href="#DejaVuSans-20"/>
     <use x="982.910156" xlink:href="#DejaVuSans-31"/>
     <use x="1046.533203" xlink:href="#DejaVuSans-37"/>
     <use x="1110.15625" xlink:href="#DejaVuSans-39"/>
     <use x="1173.779297" xlink:href="#DejaVuSans-20"/>
     <use x="1205.566406" xlink:href="#DejaVuSans-2227"/>
     <use x="1278.759766" xlink:href="#DejaVuSans-20"/>
     <use x="1310.546875" xlink:href="#DejaVuSans-31"/>
     <use x="1374.169922" xlink:href="#DejaVuSans-38"/>
     <use x="1437.792969" xlink:href="#DejaVuSans-30"/>
     <use x="1501.416016" xlink:href="#DejaVuSans-20"/>
     <use x="1533.203125" xlink:href="#DejaVuSans-2227"/>
     <use x="1606.396484" xlink:href="#DejaVuSans-20"/>
     <use x="1638.183594" xlink:href="#DejaVuSans-31"/>
     <use x="1701.806641" xlink:href="#DejaVuSans-38"/>
     <use x="1765.429688" xlink:href="#DejaVuSans-32"/>
    </g>
    <!--  pyprover.logic.Prop('177')&amp; pyprover.logic.Prop('178')&amp; pyprover.logic.Prop('181')&amp; -->
    <defs>
     <path d="M 2.984375 54.6875 
L 12.5 54.6875 
L 29.59375 8.796875 
L 46.6875 54.6875 
L 56.203125 54.6875 
L 35.6875 0 
L 23.484375 0 
z
" id="DejaVuSans-76"/>
     <path d="M 19.671875 64.796875 
L 19.671875 37.40625 
L 32.078125 37.40625 
Q 38.96875 37.40625 42.71875 40.96875 
Q 46.484375 44.53125 46.484375 51.125 
Q 46.484375 57.671875 42.71875 61.234375 
Q 38.96875 64.796875 32.078125 64.796875 
z
M 9.8125 72.90625 
L 32.078125 72.90625 
Q 44.34375 72.90625 50.609375 67.359375 
Q 56.890625 61.8125 56.890625 51.125 
Q 56.890625 40.328125 50.609375 34.8125 
Q 44.34375 29.296875 32.078125 29.296875 
L 19.671875 29.296875 
L 19.671875 0 
L 9.8125 0 
z
" id="DejaVuSans-50"/>
     <path d="M 31 75.875 
Q 24.46875 64.65625 21.28125 53.65625 
Q 18.109375 42.671875 18.109375 31.390625 
Q 18.109375 20.125 21.3125 9.0625 
Q 24.515625 -2 31 -13.1875 
L 23.1875 -13.1875 
Q 15.875 -1.703125 12.234375 9.375 
Q 8.59375 20.453125 8.59375 31.390625 
Q 8.59375 42.28125 12.203125 53.3125 
Q 15.828125 64.359375 23.1875 75.875 
z
" id="DejaVuSans-28"/>
     <path d="M 17.921875 72.90625 
L 17.921875 45.796875 
L 9.625 45.796875 
L 9.625 72.90625 
z
" id="DejaVuSans-27"/>
     <path d="M 8.015625 75.875 
L 15.828125 75.875 
Q 23.140625 64.359375 26.78125 53.3125 
Q 30.421875 42.28125 30.421875 31.390625 
Q 30.421875 20.453125 26.78125 9.375 
Q 23.140625 -1.703125 15.828125 -13.1875 
L 8.015625 -13.1875 
Q 14.5 -2 17.703125 9.0625 
Q 20.90625 20.125 20.90625 31.390625 
Q 20.90625 42.671875 17.703125 53.65625 
Q 14.5 64.65625 8.015625 75.875 
z
" id="DejaVuSans-29"/>
     <path d="M 24.3125 39.203125 
Q 19.875 35.25 17.796875 31.3125 
Q 15.71875 27.390625 15.71875 23.09375 
Q 15.71875 15.96875 20.890625 11.234375 
Q 26.078125 6.5 33.890625 6.5 
Q 38.53125 6.5 42.578125 8.03125 
Q 46.625 9.578125 50.203125 12.703125 
z
M 31.203125 44.671875 
L 56 19.28125 
Q 58.890625 23.640625 60.5 28.59375 
Q 62.109375 33.546875 62.40625 39.109375 
L 71.484375 39.109375 
Q 70.90625 32.671875 68.359375 26.359375 
Q 65.828125 20.0625 61.28125 13.921875 
L 74.90625 0 
L 62.59375 0 
L 55.609375 7.171875 
Q 50.53125 2.828125 44.96875 0.703125 
Q 39.40625 -1.421875 33.015625 -1.421875 
Q 21.234375 -1.421875 13.765625 5.296875 
Q 6.296875 12.015625 6.296875 22.515625 
Q 6.296875 28.765625 9.5625 34.25 
Q 12.84375 39.75 19.390625 44.578125 
Q 17.046875 47.65625 15.8125 50.703125 
Q 14.59375 53.765625 14.59375 56.6875 
Q 14.59375 64.59375 20.015625 69.40625 
Q 25.4375 74.21875 34.421875 74.21875 
Q 38.484375 74.21875 42.5 73.34375 
Q 46.53125 72.46875 50.6875 70.703125 
L 50.6875 61.8125 
Q 46.4375 64.109375 42.578125 65.296875 
Q 38.71875 66.5 35.40625 66.5 
Q 30.28125 66.5 27.078125 63.78125 
Q 23.875 61.078125 23.875 56.78125 
Q 23.875 54.296875 25.3125 51.78125 
Q 26.765625 49.265625 31.203125 44.671875 
z
" id="DejaVuSans-26"/>
    </defs>
    <g transform="translate(299.95875 52.962625)scale(0.12 -0.12)">
     <use xlink:href="#DejaVuSans-20"/>
     <use x="31.787109" xlink:href="#DejaVuSans-70"/>
     <use x="95.263672" xlink:href="#DejaVuSans-79"/>
     <use x="154.443359" xlink:href="#DejaVuSans-70"/>
     <use x="217.919922" xlink:href="#DejaVuSans-72"/>
     <use x="259.001953" xlink:href="#DejaVuSans-6f"/>
     <use x="320.183594" xlink:href="#DejaVuSans-76"/>
     <use x="379.363281" xlink:href="#DejaVuSans-65"/>
     <use x="440.886719" xlink:href="#DejaVuSans-72"/>
     <use x="481.859375" xlink:href="#DejaVuSans-2e"/>
     <use x="513.646484" xlink:href="#DejaVuSans-6c"/>
     <use x="541.429688" xlink:href="#DejaVuSans-6f"/>
     <use x="602.611328" xlink:href="#DejaVuSans-67"/>
     <use x="666.087891" xlink:href="#DejaVuSans-69"/>
     <use x="693.871094" xlink:href="#DejaVuSans-63"/>
     <use x="748.851562" xlink:href="#DejaVuSans-2e"/>
     <use x="780.638672" xlink:href="#DejaVuSans-50"/>
     <use x="840.925781" xlink:href="#DejaVuSans-72"/>
     <use x="882.007812" xlink:href="#DejaVuSans-6f"/>
     <use x="943.189453" xlink:href="#DejaVuSans-70"/>
     <use x="1006.666016" xlink:href="#DejaVuSans-28"/>
     <use x="1045.679688" xlink:href="#DejaVuSans-27"/>
     <use x="1073.169922" xlink:href="#DejaVuSans-31"/>
     <use x="1136.792969" xlink:href="#DejaVuSans-37"/>
     <use x="1200.416016" xlink:href="#DejaVuSans-37"/>
     <use x="1264.039062" xlink:href="#DejaVuSans-27"/>
     <use x="1291.529297" xlink:href="#DejaVuSans-29"/>
     <use x="1330.542969" xlink:href="#DejaVuSans-26"/>
     <use x="1408.521484" xlink:href="#DejaVuSans-20"/>
     <use x="1440.308594" xlink:href="#DejaVuSans-70"/>
     <use x="1503.785156" xlink:href="#DejaVuSans-79"/>
     <use x="1562.964844" xlink:href="#DejaVuSans-70"/>
     <use x="1626.441406" xlink:href="#DejaVuSans-72"/>
     <use x="1667.523438" xlink:href="#DejaVuSans-6f"/>
     <use x="1728.705078" xlink:href="#DejaVuSans-76"/>
     <use x="1787.884766" xlink:href="#DejaVuSans-65"/>
     <use x="1849.408203" xlink:href="#DejaVuSans-72"/>
     <use x="1890.380859" xlink:href="#DejaVuSans-2e"/>
     <use x="1922.167969" xlink:href="#DejaVuSans-6c"/>
     <use x="1949.951172" xlink:href="#DejaVuSans-6f"/>
     <use x="2011.132812" xlink:href="#DejaVuSans-67"/>
     <use x="2074.609375" xlink:href="#DejaVuSans-69"/>
     <use x="2102.392578" xlink:href="#DejaVuSans-63"/>
     <use x="2157.373047" xlink:href="#DejaVuSans-2e"/>
     <use x="2189.160156" xlink:href="#DejaVuSans-50"/>
     <use x="2249.447266" xlink:href="#DejaVuSans-72"/>
     <use x="2290.529297" xlink:href="#DejaVuSans-6f"/>
     <use x="2351.710938" xlink:href="#DejaVuSans-70"/>
     <use x="2415.1875" xlink:href="#DejaVuSans-28"/>
     <use x="2454.201172" xlink:href="#DejaVuSans-27"/>
     <use x="2481.691406" xlink:href="#DejaVuSans-31"/>
     <use x="2545.314453" xlink:href="#DejaVuSans-37"/>
     <use x="2608.9375" xlink:href="#DejaVuSans-38"/>
     <use x="2672.560547" xlink:href="#DejaVuSans-27"/>
     <use x="2700.050781" xlink:href="#DejaVuSans-29"/>
     <use x="2739.064453" xlink:href="#DejaVuSans-26"/>
     <use x="2817.042969" xlink:href="#DejaVuSans-20"/>
     <use x="2848.830078" xlink:href="#DejaVuSans-70"/>
     <use x="2912.306641" xlink:href="#DejaVuSans-79"/>
     <use x="2971.486328" xlink:href="#DejaVuSans-70"/>
     <use x="3034.962891" xlink:href="#DejaVuSans-72"/>
     <use x="3076.044922" xlink:href="#DejaVuSans-6f"/>
     <use x="3137.226562" xlink:href="#DejaVuSans-76"/>
     <use x="3196.40625" xlink:href="#DejaVuSans-65"/>
     <use x="3257.929688" xlink:href="#DejaVuSans-72"/>
     <use x="3298.902344" xlink:href="#DejaVuSans-2e"/>
     <use x="3330.689453" xlink:href="#DejaVuSans-6c"/>
     <use x="3358.472656" xlink:href="#DejaVuSans-6f"/>
     <use x="3419.654297" xlink:href="#DejaVuSans-67"/>
     <use x="3483.130859" xlink:href="#DejaVuSans-69"/>
     <use x="3510.914062" xlink:href="#DejaVuSans-63"/>
     <use x="3565.894531" xlink:href="#DejaVuSans-2e"/>
     <use x="3597.681641" xlink:href="#DejaVuSans-50"/>
     <use x="3657.96875" xlink:href="#DejaVuSans-72"/>
     <use x="3699.050781" xlink:href="#DejaVuSans-6f"/>
     <use x="3760.232422" xlink:href="#DejaVuSans-70"/>
     <use x="3823.708984" xlink:href="#DejaVuSans-28"/>
     <use x="3862.722656" xlink:href="#DejaVuSans-27"/>
     <use x="3890.212891" xlink:href="#DejaVuSans-31"/>
     <use x="3953.835938" xlink:href="#DejaVuSans-38"/>
     <use x="4017.458984" xlink:href="#DejaVuSans-31"/>
     <use x="4081.082031" xlink:href="#DejaVuSans-27"/>
     <use x="4108.572266" xlink:href="#DejaVuSans-29"/>
     <use x="4147.585938" xlink:href="#DejaVuSans-26"/>
    </g>
    <!-- pyprover.logic.Prop('179')&amp; pyprover.logic.Prop('180')&amp; pyprover.logic.Prop('182') -->
    <g transform="translate(306.544688 66.4)scale(0.12 -0.12)">
     <use xlink:href="#DejaVuSans-70"/>
     <use x="63.476562" xlink:href="#DejaVuSans-79"/>
     <use x="122.65625" xlink:href="#DejaVuSans-70"/>
     <use x="186.132812" xlink:href="#DejaVuSans-72"/>
     <use x="227.214844" xlink:href="#DejaVuSans-6f"/>
     <use x="288.396484" xlink:href="#DejaVuSans-76"/>
     <use x="347.576172" xlink:href="#DejaVuSans-65"/>
     <use x="409.099609" xlink:href="#DejaVuSans-72"/>
     <use x="450.072266" xlink:href="#DejaVuSans-2e"/>
     <use x="481.859375" xlink:href="#DejaVuSans-6c"/>
     <use x="509.642578" xlink:href="#DejaVuSans-6f"/>
     <use x="570.824219" xlink:href="#DejaVuSans-67"/>
     <use x="634.300781" xlink:href="#DejaVuSans-69"/>
     <use x="662.083984" xlink:href="#DejaVuSans-63"/>
     <use x="717.064453" xlink:href="#DejaVuSans-2e"/>
     <use x="748.851562" xlink:href="#DejaVuSans-50"/>
     <use x="809.138672" xlink:href="#DejaVuSans-72"/>
     <use x="850.220703" xlink:href="#DejaVuSans-6f"/>
     <use x="911.402344" xlink:href="#DejaVuSans-70"/>
     <use x="974.878906" xlink:href="#DejaVuSans-28"/>
     <use x="1013.892578" xlink:href="#DejaVuSans-27"/>
     <use x="1041.382812" xlink:href="#DejaVuSans-31"/>
     <use x="1105.005859" xlink:href="#DejaVuSans-37"/>
     <use x="1168.628906" xlink:href="#DejaVuSans-39"/>
     <use x="1232.251953" xlink:href="#DejaVuSans-27"/>
     <use x="1259.742188" xlink:href="#DejaVuSans-29"/>
     <use x="1298.755859" xlink:href="#DejaVuSans-26"/>
     <use x="1376.734375" xlink:href="#DejaVuSans-20"/>
     <use x="1408.521484" xlink:href="#DejaVuSans-70"/>
     <use x="1471.998047" xlink:href="#DejaVuSans-79"/>
     <use x="1531.177734" xlink:href="#DejaVuSans-70"/>
     <use x="1594.654297" xlink:href="#DejaVuSans-72"/>
     <use x="1635.736328" xlink:href="#DejaVuSans-6f"/>
     <use x="1696.917969" xlink:href="#DejaVuSans-76"/>
     <use x="1756.097656" xlink:href="#DejaVuSans-65"/>
     <use x="1817.621094" xlink:href="#DejaVuSans-72"/>
     <use x="1858.59375" xlink:href="#DejaVuSans-2e"/>
     <use x="1890.380859" xlink:href="#DejaVuSans-6c"/>
     <use x="1918.164062" xlink:href="#DejaVuSans-6f"/>
     <use x="1979.345703" xlink:href="#DejaVuSans-67"/>
     <use x="2042.822266" xlink:href="#DejaVuSans-69"/>
     <use x="2070.605469" xlink:href="#DejaVuSans-63"/>
     <use x="2125.585938" xlink:href="#DejaVuSans-2e"/>
     <use x="2157.373047" xlink:href="#DejaVuSans-50"/>
     <use x="2217.660156" xlink:href="#DejaVuSans-72"/>
     <use x="2258.742188" xlink:href="#DejaVuSans-6f"/>
     <use x="2319.923828" xlink:href="#DejaVuSans-70"/>
     <use x="2383.400391" xlink:href="#DejaVuSans-28"/>
     <use x="2422.414062" xlink:href="#DejaVuSans-27"/>
     <use x="2449.904297" xlink:href="#DejaVuSans-31"/>
     <use x="2513.527344" xlink:href="#DejaVuSans-38"/>
     <use x="2577.150391" xlink:href="#DejaVuSans-30"/>
     <use x="2640.773438" xlink:href="#DejaVuSans-27"/>
     <use x="2668.263672" xlink:href="#DejaVuSans-29"/>
     <use x="2707.277344" xlink:href="#DejaVuSans-26"/>
     <use x="2785.255859" xlink:href="#DejaVuSans-20"/>
     <use x="2817.042969" xlink:href="#DejaVuSans-70"/>
     <use x="2880.519531" xlink:href="#DejaVuSans-79"/>
     <use x="2939.699219" xlink:href="#DejaVuSans-70"/>
     <use x="3003.175781" xlink:href="#DejaVuSans-72"/>
     <use x="3044.257812" xlink:href="#DejaVuSans-6f"/>
     <use x="3105.439453" xlink:href="#DejaVuSans-76"/>
     <use x="3164.619141" xlink:href="#DejaVuSans-65"/>
     <use x="3226.142578" xlink:href="#DejaVuSans-72"/>
     <use x="3267.115234" xlink:href="#DejaVuSans-2e"/>
     <use x="3298.902344" xlink:href="#DejaVuSans-6c"/>
     <use x="3326.685547" xlink:href="#DejaVuSans-6f"/>
     <use x="3387.867188" xlink:href="#DejaVuSans-67"/>
     <use x="3451.34375" xlink:href="#DejaVuSans-69"/>
     <use x="3479.126953" xlink:href="#DejaVuSans-63"/>
     <use x="3534.107422" xlink:href="#DejaVuSans-2e"/>
     <use x="3565.894531" xlink:href="#DejaVuSans-50"/>
     <use x="3626.181641" xlink:href="#DejaVuSans-72"/>
     <use x="3667.263672" xlink:href="#DejaVuSans-6f"/>
     <use x="3728.445312" xlink:href="#DejaVuSans-70"/>
     <use x="3791.921875" xlink:href="#DejaVuSans-28"/>
     <use x="3830.935547" xlink:href="#DejaVuSans-27"/>
     <use x="3858.425781" xlink:href="#DejaVuSans-31"/>
     <use x="3922.048828" xlink:href="#DejaVuSans-38"/>
     <use x="3985.671875" xlink:href="#DejaVuSans-32"/>
     <use x="4049.294922" xlink:href="#DejaVuSans-27"/>
     <use x="4076.785156" xlink:href="#DejaVuSans-29"/>
    </g>
   </g>
  </g>
 </g>
 <defs>
  <clipPath id="pc5901a686a">
   <rect height="554.4" width="837" x="135" y="86.4"/>
  </clipPath>
 </defs>
</svg>
