<?xml version="1.0" encoding="utf-8" standalone="no"?>
<!DOCTYPE svg PUBLIC "-//W3C//DTD SVG 1.1//EN"
  "http://www.w3.org/Graphics/SVG/1.1/DTD/svg11.dtd">
<!-- Created with matplotlib (http://matplotlib.org/) -->
<svg height="720pt" version="1.1" viewBox="0 0 1080 720" width="1080pt" xmlns="http://www.w3.org/2000/svg" xmlns:xlink="http://www.w3.org/1999/xlink">
 <defs>
  <style type="text/css">
*{stroke-linecap:butt;stroke-linejoin:round;}
  </style>
 </defs>
 <g id="figure_1">
  <g id="patch_1">
   <path d="M 0 720 
L 1080 720 
L 1080 0 
L 0 0 
z
" style="fill:#ffffff;"/>
  </g>
  <g id="axes_1">
   <g id="patch_2">
    <path clip-path="url(#pf5dc48929a)" d="M 553.5 134.509091 
Q 382.649418 247.674638 214.595156 358.987998 
" style="fill:none;stroke:#000000;stroke-linecap:round;stroke-width:3;"/>
    <path clip-path="url(#pf5dc48929a)" d="M 219.92224 358.338249 
L 214.595156 358.987998 
L 217.271607 354.336481 
L 219.92224 358.338249 
z
" style="stroke:#000000;stroke-linecap:round;stroke-width:3;"/>
   </g>
   <g id="patch_3">
    <path clip-path="url(#pf5dc48929a)" d="M 553.5 134.509091 
Q 724.350582 247.674638 892.404844 358.987998 
" style="fill:none;stroke:#000000;stroke-linecap:round;stroke-width:3;"/>
    <path clip-path="url(#pf5dc48929a)" d="M 889.728393 354.336481 
L 892.404844 358.987998 
L 887.07776 358.338249 
L 889.728393 354.336481 
z
" style="stroke:#000000;stroke-linecap:round;stroke-width:3;"/>
   </g>
   <g id="patch_4">
    <path clip-path="url(#pf5dc48929a)" d="M 207.632231 363.6 
Q 207.632231 475.644317 207.632231 584.334532 
" style="fill:none;stroke:#000000;stroke-linecap:round;stroke-width:3;"/>
    <path clip-path="url(#pf5dc48929a)" d="M 210.032231 579.534532 
L 207.632231 584.334532 
L 205.232231 579.534532 
L 210.032231 579.534532 
z
" style="stroke:#000000;stroke-linecap:round;stroke-width:3;"/>
   </g>
   <g id="patch_5">
    <path clip-path="url(#pf5dc48929a)" d="M 899.367769 363.6 
Q 899.367769 475.644317 899.367769 584.334532 
" style="fill:none;stroke:#000000;stroke-linecap:round;stroke-width:3;"/>
    <path clip-path="url(#pf5dc48929a)" d="M 901.767769 579.534532 
L 899.367769 584.334532 
L 896.967769 579.534532 
L 901.767769 579.534532 
z
" style="stroke:#000000;stroke-linecap:round;stroke-width:3;"/>
   </g>
   <g id="PathCollection_1">
    <defs>
     <path d="M 0 5 
C 1.326016 5 2.597899 4.473168 3.535534 3.535534 
C 4.473168 2.597899 5 1.326016 5 0 
C 5 -1.326016 4.473168 -2.597899 3.535534 -3.535534 
C 2.597899 -4.473168 1.326016 -5 0 -5 
C -1.326016 -5 -2.597899 -4.473168 -3.535534 -3.535534 
C -4.473168 -2.597899 -5 -1.326016 -5 0 
C -5 1.326016 -4.473168 2.597899 -3.535534 3.535534 
C -2.597899 4.473168 -1.326016 5 0 5 
z
" id="m180eed56b0" style="stroke:#0000ff;"/>
    </defs>
    <g clip-path="url(#pf5dc48929a)">
     <use style="fill:#0000ff;stroke:#0000ff;" x="553.5" xlink:href="#m180eed56b0" y="134.509091"/>
     <use style="fill:#0000ff;stroke:#0000ff;" x="207.632231" xlink:href="#m180eed56b0" y="363.6"/>
     <use style="fill:#0000ff;stroke:#0000ff;" x="899.367769" xlink:href="#m180eed56b0" y="363.6"/>
     <use style="fill:#0000ff;stroke:#0000ff;" x="207.632231" xlink:href="#m180eed56b0" y="592.690909"/>
     <use style="fill:#0000ff;stroke:#0000ff;" x="899.367769" xlink:href="#m180eed56b0" y="592.690909"/>
    </g>
   </g>
   <g id="text_1">
    <g clip-path="url(#pf5dc48929a)">
     <!-- 20  For should anyone define -->
     <defs>
      <path d="M 19.1875 8.296875 
L 53.609375 8.296875 
L 53.609375 0 
L 7.328125 0 
L 7.328125 8.296875 
Q 12.9375 14.109375 22.625 23.890625 
Q 32.328125 33.6875 34.8125 36.53125 
Q 39.546875 41.84375 41.421875 45.53125 
Q 43.3125 49.21875 43.3125 52.78125 
Q 43.3125 58.59375 39.234375 62.25 
Q 35.15625 65.921875 28.609375 65.921875 
Q 23.96875 65.921875 18.8125 64.3125 
Q 13.671875 62.703125 7.8125 59.421875 
L 7.8125 69.390625 
Q 13.765625 71.78125 18.9375 73 
Q 24.125 74.21875 28.421875 74.21875 
Q 39.75 74.21875 46.484375 68.546875 
Q 53.21875 62.890625 53.21875 53.421875 
Q 53.21875 48.921875 51.53125 44.890625 
Q 49.859375 40.875 45.40625 35.40625 
Q 44.1875 33.984375 37.640625 27.21875 
Q 31.109375 20.453125 19.1875 8.296875 
z
" id="DejaVuSans-32"/>
      <path d="M 31.78125 66.40625 
Q 24.171875 66.40625 20.328125 58.90625 
Q 16.5 51.421875 16.5 36.375 
Q 16.5 21.390625 20.328125 13.890625 
Q 24.171875 6.390625 31.78125 6.390625 
Q 39.453125 6.390625 43.28125 13.890625 
Q 47.125 21.390625 47.125 36.375 
Q 47.125 51.421875 43.28125 58.90625 
Q 39.453125 66.40625 31.78125 66.40625 
z
M 31.78125 74.21875 
Q 44.046875 74.21875 50.515625 64.515625 
Q 56.984375 54.828125 56.984375 36.375 
Q 56.984375 17.96875 50.515625 8.265625 
Q 44.046875 -1.421875 31.78125 -1.421875 
Q 19.53125 -1.421875 13.0625 8.265625 
Q 6.59375 17.96875 6.59375 36.375 
Q 6.59375 54.828125 13.0625 64.515625 
Q 19.53125 74.21875 31.78125 74.21875 
z
" id="DejaVuSans-30"/>
      <path id="DejaVuSans-20"/>
      <path d="M 9.8125 72.90625 
L 51.703125 72.90625 
L 51.703125 64.59375 
L 19.671875 64.59375 
L 19.671875 43.109375 
L 48.578125 43.109375 
L 48.578125 34.8125 
L 19.671875 34.8125 
L 19.671875 0 
L 9.8125 0 
z
" id="DejaVuSans-46"/>
      <path d="M 30.609375 48.390625 
Q 23.390625 48.390625 19.1875 42.75 
Q 14.984375 37.109375 14.984375 27.296875 
Q 14.984375 17.484375 19.15625 11.84375 
Q 23.34375 6.203125 30.609375 6.203125 
Q 37.796875 6.203125 41.984375 11.859375 
Q 46.1875 17.53125 46.1875 27.296875 
Q 46.1875 37.015625 41.984375 42.703125 
Q 37.796875 48.390625 30.609375 48.390625 
z
M 30.609375 56 
Q 42.328125 56 49.015625 48.375 
Q 55.71875 40.765625 55.71875 27.296875 
Q 55.71875 13.875 49.015625 6.21875 
Q 42.328125 -1.421875 30.609375 -1.421875 
Q 18.84375 -1.421875 12.171875 6.21875 
Q 5.515625 13.875 5.515625 27.296875 
Q 5.515625 40.765625 12.171875 48.375 
Q 18.84375 56 30.609375 56 
z
" id="DejaVuSans-6f"/>
      <path d="M 41.109375 46.296875 
Q 39.59375 47.171875 37.8125 47.578125 
Q 36.03125 48 33.890625 48 
Q 26.265625 48 22.1875 43.046875 
Q 18.109375 38.09375 18.109375 28.8125 
L 18.109375 0 
L 9.078125 0 
L 9.078125 54.6875 
L 18.109375 54.6875 
L 18.109375 46.1875 
Q 20.953125 51.171875 25.484375 53.578125 
Q 30.03125 56 36.53125 56 
Q 37.453125 56 38.578125 55.875 
Q 39.703125 55.765625 41.0625 55.515625 
z
" id="DejaVuSans-72"/>
      <path d="M 44.28125 53.078125 
L 44.28125 44.578125 
Q 40.484375 46.53125 36.375 47.5 
Q 32.28125 48.484375 27.875 48.484375 
Q 21.1875 48.484375 17.84375 46.4375 
Q 14.5 44.390625 14.5 40.28125 
Q 14.5 37.15625 16.890625 35.375 
Q 19.28125 33.59375 26.515625 31.984375 
L 29.59375 31.296875 
Q 39.15625 29.25 43.1875 25.515625 
Q 47.21875 21.78125 47.21875 15.09375 
Q 47.21875 7.46875 41.1875 3.015625 
Q 35.15625 -1.421875 24.609375 -1.421875 
Q 20.21875 -1.421875 15.453125 -0.5625 
Q 10.6875 0.296875 5.421875 2 
L 5.421875 11.28125 
Q 10.40625 8.6875 15.234375 7.390625 
Q 20.0625 6.109375 24.8125 6.109375 
Q 31.15625 6.109375 34.5625 8.28125 
Q 37.984375 10.453125 37.984375 14.40625 
Q 37.984375 18.0625 35.515625 20.015625 
Q 33.0625 21.96875 24.703125 23.78125 
L 21.578125 24.515625 
Q 13.234375 26.265625 9.515625 29.90625 
Q 5.8125 33.546875 5.8125 39.890625 
Q 5.8125 47.609375 11.28125 51.796875 
Q 16.75 56 26.8125 56 
Q 31.78125 56 36.171875 55.265625 
Q 40.578125 54.546875 44.28125 53.078125 
z
" id="DejaVuSans-73"/>
      <path d="M 54.890625 33.015625 
L 54.890625 0 
L 45.90625 0 
L 45.90625 32.71875 
Q 45.90625 40.484375 42.875 44.328125 
Q 39.84375 48.1875 33.796875 48.1875 
Q 26.515625 48.1875 22.3125 43.546875 
Q 18.109375 38.921875 18.109375 30.90625 
L 18.109375 0 
L 9.078125 0 
L 9.078125 75.984375 
L 18.109375 75.984375 
L 18.109375 46.1875 
Q 21.34375 51.125 25.703125 53.5625 
Q 30.078125 56 35.796875 56 
Q 45.21875 56 50.046875 50.171875 
Q 54.890625 44.34375 54.890625 33.015625 
z
" id="DejaVuSans-68"/>
      <path d="M 8.5 21.578125 
L 8.5 54.6875 
L 17.484375 54.6875 
L 17.484375 21.921875 
Q 17.484375 14.15625 20.5 10.265625 
Q 23.53125 6.390625 29.59375 6.390625 
Q 36.859375 6.390625 41.078125 11.03125 
Q 45.3125 15.671875 45.3125 23.6875 
L 45.3125 54.6875 
L 54.296875 54.6875 
L 54.296875 0 
L 45.3125 0 
L 45.3125 8.40625 
Q 42.046875 3.421875 37.71875 1 
Q 33.40625 -1.421875 27.6875 -1.421875 
Q 18.265625 -1.421875 13.375 4.4375 
Q 8.5 10.296875 8.5 21.578125 
z
M 31.109375 56 
z
" id="DejaVuSans-75"/>
      <path d="M 9.421875 75.984375 
L 18.40625 75.984375 
L 18.40625 0 
L 9.421875 0 
z
" id="DejaVuSans-6c"/>
      <path d="M 45.40625 46.390625 
L 45.40625 75.984375 
L 54.390625 75.984375 
L 54.390625 0 
L 45.40625 0 
L 45.40625 8.203125 
Q 42.578125 3.328125 38.25 0.953125 
Q 33.9375 -1.421875 27.875 -1.421875 
Q 17.96875 -1.421875 11.734375 6.484375 
Q 5.515625 14.40625 5.515625 27.296875 
Q 5.515625 40.1875 11.734375 48.09375 
Q 17.96875 56 27.875 56 
Q 33.9375 56 38.25 53.625 
Q 42.578125 51.265625 45.40625 46.390625 
z
M 14.796875 27.296875 
Q 14.796875 17.390625 18.875 11.75 
Q 22.953125 6.109375 30.078125 6.109375 
Q 37.203125 6.109375 41.296875 11.75 
Q 45.40625 17.390625 45.40625 27.296875 
Q 45.40625 37.203125 41.296875 42.84375 
Q 37.203125 48.484375 30.078125 48.484375 
Q 22.953125 48.484375 18.875 42.84375 
Q 14.796875 37.203125 14.796875 27.296875 
z
" id="DejaVuSans-64"/>
      <path d="M 34.28125 27.484375 
Q 23.390625 27.484375 19.1875 25 
Q 14.984375 22.515625 14.984375 16.5 
Q 14.984375 11.71875 18.140625 8.90625 
Q 21.296875 6.109375 26.703125 6.109375 
Q 34.1875 6.109375 38.703125 11.40625 
Q 43.21875 16.703125 43.21875 25.484375 
L 43.21875 27.484375 
z
M 52.203125 31.203125 
L 52.203125 0 
L 43.21875 0 
L 43.21875 8.296875 
Q 40.140625 3.328125 35.546875 0.953125 
Q 30.953125 -1.421875 24.3125 -1.421875 
Q 15.921875 -1.421875 10.953125 3.296875 
Q 6 8.015625 6 15.921875 
Q 6 25.140625 12.171875 29.828125 
Q 18.359375 34.515625 30.609375 34.515625 
L 43.21875 34.515625 
L 43.21875 35.40625 
Q 43.21875 41.609375 39.140625 45 
Q 35.0625 48.390625 27.6875 48.390625 
Q 23 48.390625 18.546875 47.265625 
Q 14.109375 46.140625 10.015625 43.890625 
L 10.015625 52.203125 
Q 14.9375 54.109375 19.578125 55.046875 
Q 24.21875 56 28.609375 56 
Q 40.484375 56 46.34375 49.84375 
Q 52.203125 43.703125 52.203125 31.203125 
z
" id="DejaVuSans-61"/>
      <path d="M 54.890625 33.015625 
L 54.890625 0 
L 45.90625 0 
L 45.90625 32.71875 
Q 45.90625 40.484375 42.875 44.328125 
Q 39.84375 48.1875 33.796875 48.1875 
Q 26.515625 48.1875 22.3125 43.546875 
Q 18.109375 38.921875 18.109375 30.90625 
L 18.109375 0 
L 9.078125 0 
L 9.078125 54.6875 
L 18.109375 54.6875 
L 18.109375 46.1875 
Q 21.34375 51.125 25.703125 53.5625 
Q 30.078125 56 35.796875 56 
Q 45.21875 56 50.046875 50.171875 
Q 54.890625 44.34375 54.890625 33.015625 
z
" id="DejaVuSans-6e"/>
      <path d="M 32.171875 -5.078125 
Q 28.375 -14.84375 24.75 -17.8125 
Q 21.140625 -20.796875 15.09375 -20.796875 
L 7.90625 -20.796875 
L 7.90625 -13.28125 
L 13.1875 -13.28125 
Q 16.890625 -13.28125 18.9375 -11.515625 
Q 21 -9.765625 23.484375 -3.21875 
L 25.09375 0.875 
L 2.984375 54.6875 
L 12.5 54.6875 
L 29.59375 11.921875 
L 46.6875 54.6875 
L 56.203125 54.6875 
z
" id="DejaVuSans-79"/>
      <path d="M 56.203125 29.59375 
L 56.203125 25.203125 
L 14.890625 25.203125 
Q 15.484375 15.921875 20.484375 11.0625 
Q 25.484375 6.203125 34.421875 6.203125 
Q 39.59375 6.203125 44.453125 7.46875 
Q 49.3125 8.734375 54.109375 11.28125 
L 54.109375 2.78125 
Q 49.265625 0.734375 44.1875 -0.34375 
Q 39.109375 -1.421875 33.890625 -1.421875 
Q 20.796875 -1.421875 13.15625 6.1875 
Q 5.515625 13.8125 5.515625 26.8125 
Q 5.515625 40.234375 12.765625 48.109375 
Q 20.015625 56 32.328125 56 
Q 43.359375 56 49.78125 48.890625 
Q 56.203125 41.796875 56.203125 29.59375 
z
M 47.21875 32.234375 
Q 47.125 39.59375 43.09375 43.984375 
Q 39.0625 48.390625 32.421875 48.390625 
Q 24.90625 48.390625 20.390625 44.140625 
Q 15.875 39.890625 15.1875 32.171875 
z
" id="DejaVuSans-65"/>
      <path d="M 37.109375 75.984375 
L 37.109375 68.5 
L 28.515625 68.5 
Q 23.6875 68.5 21.796875 66.546875 
Q 19.921875 64.59375 19.921875 59.515625 
L 19.921875 54.6875 
L 34.71875 54.6875 
L 34.71875 47.703125 
L 19.921875 47.703125 
L 19.921875 0 
L 10.890625 0 
L 10.890625 47.703125 
L 2.296875 47.703125 
L 2.296875 54.6875 
L 10.890625 54.6875 
L 10.890625 58.5 
Q 10.890625 67.625 15.140625 71.796875 
Q 19.390625 75.984375 28.609375 75.984375 
z
" id="DejaVuSans-66"/>
      <path d="M 9.421875 54.6875 
L 18.40625 54.6875 
L 18.40625 0 
L 9.421875 0 
z
M 9.421875 75.984375 
L 18.40625 75.984375 
L 18.40625 64.59375 
L 9.421875 64.59375 
z
" id="DejaVuSans-69"/>
     </defs>
     <g transform="translate(480.496875 114.872841)scale(0.1 -0.1)">
      <use xlink:href="#DejaVuSans-32"/>
      <use x="63.623047" xlink:href="#DejaVuSans-30"/>
      <use x="127.246094" xlink:href="#DejaVuSans-20"/>
      <use x="159.033203" xlink:href="#DejaVuSans-20"/>
      <use x="190.820312" xlink:href="#DejaVuSans-46"/>
      <use x="248.292969" xlink:href="#DejaVuSans-6f"/>
      <use x="309.474609" xlink:href="#DejaVuSans-72"/>
      <use x="350.587891" xlink:href="#DejaVuSans-20"/>
      <use x="382.375" xlink:href="#DejaVuSans-73"/>
      <use x="434.474609" xlink:href="#DejaVuSans-68"/>
      <use x="497.853516" xlink:href="#DejaVuSans-6f"/>
      <use x="559.035156" xlink:href="#DejaVuSans-75"/>
      <use x="622.414062" xlink:href="#DejaVuSans-6c"/>
      <use x="650.197266" xlink:href="#DejaVuSans-64"/>
      <use x="713.673828" xlink:href="#DejaVuSans-20"/>
      <use x="745.460938" xlink:href="#DejaVuSans-61"/>
      <use x="806.740234" xlink:href="#DejaVuSans-6e"/>
      <use x="870.119141" xlink:href="#DejaVuSans-79"/>
      <use x="929.298828" xlink:href="#DejaVuSans-6f"/>
      <use x="990.480469" xlink:href="#DejaVuSans-6e"/>
      <use x="1053.859375" xlink:href="#DejaVuSans-65"/>
      <use x="1115.382812" xlink:href="#DejaVuSans-20"/>
      <use x="1147.169922" xlink:href="#DejaVuSans-64"/>
      <use x="1210.646484" xlink:href="#DejaVuSans-65"/>
      <use x="1272.169922" xlink:href="#DejaVuSans-66"/>
      <use x="1307.375" xlink:href="#DejaVuSans-69"/>
      <use x="1335.158203" xlink:href="#DejaVuSans-6e"/>
      <use x="1398.537109" xlink:href="#DejaVuSans-65"/>
     </g>
    </g>
    <g clip-path="url(#pf5dc48929a)">
     <!-- in what sense each is an -->
     <defs>
      <path d="M 4.203125 54.6875 
L 13.1875 54.6875 
L 24.421875 12.015625 
L 35.59375 54.6875 
L 46.1875 54.6875 
L 57.421875 12.015625 
L 68.609375 54.6875 
L 77.59375 54.6875 
L 63.28125 0 
L 52.6875 0 
L 40.921875 44.828125 
L 29.109375 0 
L 18.5 0 
z
" id="DejaVuSans-77"/>
      <path d="M 18.3125 70.21875 
L 18.3125 54.6875 
L 36.8125 54.6875 
L 36.8125 47.703125 
L 18.3125 47.703125 
L 18.3125 18.015625 
Q 18.3125 11.328125 20.140625 9.421875 
Q 21.96875 7.515625 27.59375 7.515625 
L 36.8125 7.515625 
L 36.8125 0 
L 27.59375 0 
Q 17.1875 0 13.234375 3.875 
Q 9.28125 7.765625 9.28125 18.015625 
L 9.28125 47.703125 
L 2.6875 47.703125 
L 2.6875 54.6875 
L 9.28125 54.6875 
L 9.28125 70.21875 
z
" id="DejaVuSans-74"/>
      <path d="M 48.78125 52.59375 
L 48.78125 44.1875 
Q 44.96875 46.296875 41.140625 47.34375 
Q 37.3125 48.390625 33.40625 48.390625 
Q 24.65625 48.390625 19.8125 42.84375 
Q 14.984375 37.3125 14.984375 27.296875 
Q 14.984375 17.28125 19.8125 11.734375 
Q 24.65625 6.203125 33.40625 6.203125 
Q 37.3125 6.203125 41.140625 7.25 
Q 44.96875 8.296875 48.78125 10.40625 
L 48.78125 2.09375 
Q 45.015625 0.34375 40.984375 -0.53125 
Q 36.96875 -1.421875 32.421875 -1.421875 
Q 20.0625 -1.421875 12.78125 6.34375 
Q 5.515625 14.109375 5.515625 27.296875 
Q 5.515625 40.671875 12.859375 48.328125 
Q 20.21875 56 33.015625 56 
Q 37.15625 56 41.109375 55.140625 
Q 45.0625 54.296875 48.78125 52.59375 
z
" id="DejaVuSans-63"/>
     </defs>
     <g transform="translate(491.898437 126.070653)scale(0.1 -0.1)">
      <use xlink:href="#DejaVuSans-69"/>
      <use x="27.783203" xlink:href="#DejaVuSans-6e"/>
      <use x="91.162109" xlink:href="#DejaVuSans-20"/>
      <use x="122.949219" xlink:href="#DejaVuSans-77"/>
      <use x="204.736328" xlink:href="#DejaVuSans-68"/>
      <use x="268.115234" xlink:href="#DejaVuSans-61"/>
      <use x="329.394531" xlink:href="#DejaVuSans-74"/>
      <use x="368.603516" xlink:href="#DejaVuSans-20"/>
      <use x="400.390625" xlink:href="#DejaVuSans-73"/>
      <use x="452.490234" xlink:href="#DejaVuSans-65"/>
      <use x="514.013672" xlink:href="#DejaVuSans-6e"/>
      <use x="577.392578" xlink:href="#DejaVuSans-73"/>
      <use x="629.492188" xlink:href="#DejaVuSans-65"/>
      <use x="691.015625" xlink:href="#DejaVuSans-20"/>
      <use x="722.802734" xlink:href="#DejaVuSans-65"/>
      <use x="784.326172" xlink:href="#DejaVuSans-61"/>
      <use x="845.605469" xlink:href="#DejaVuSans-63"/>
      <use x="900.585938" xlink:href="#DejaVuSans-68"/>
      <use x="963.964844" xlink:href="#DejaVuSans-20"/>
      <use x="995.751953" xlink:href="#DejaVuSans-69"/>
      <use x="1023.535156" xlink:href="#DejaVuSans-73"/>
      <use x="1075.634766" xlink:href="#DejaVuSans-20"/>
      <use x="1107.421875" xlink:href="#DejaVuSans-61"/>
      <use x="1168.701172" xlink:href="#DejaVuSans-6e"/>
     </g>
    </g>
    <g clip-path="url(#pf5dc48929a)">
     <!-- animal , his definition in the -->
     <defs>
      <path d="M 52 44.1875 
Q 55.375 50.25 60.0625 53.125 
Q 64.75 56 71.09375 56 
Q 79.640625 56 84.28125 50.015625 
Q 88.921875 44.046875 88.921875 33.015625 
L 88.921875 0 
L 79.890625 0 
L 79.890625 32.71875 
Q 79.890625 40.578125 77.09375 44.375 
Q 74.3125 48.1875 68.609375 48.1875 
Q 61.625 48.1875 57.5625 43.546875 
Q 53.515625 38.921875 53.515625 30.90625 
L 53.515625 0 
L 44.484375 0 
L 44.484375 32.71875 
Q 44.484375 40.625 41.703125 44.40625 
Q 38.921875 48.1875 33.109375 48.1875 
Q 26.21875 48.1875 22.15625 43.53125 
Q 18.109375 38.875 18.109375 30.90625 
L 18.109375 0 
L 9.078125 0 
L 9.078125 54.6875 
L 18.109375 54.6875 
L 18.109375 46.1875 
Q 21.1875 51.21875 25.484375 53.609375 
Q 29.78125 56 35.6875 56 
Q 41.65625 56 45.828125 52.96875 
Q 50 49.953125 52 44.1875 
z
" id="DejaVuSans-6d"/>
      <path d="M 11.71875 12.40625 
L 22.015625 12.40625 
L 22.015625 4 
L 14.015625 -11.625 
L 7.71875 -11.625 
L 11.71875 4 
z
" id="DejaVuSans-2c"/>
     </defs>
     <g transform="translate(483.559375 137.268466)scale(0.1 -0.1)">
      <use xlink:href="#DejaVuSans-61"/>
      <use x="61.279297" xlink:href="#DejaVuSans-6e"/>
      <use x="124.658203" xlink:href="#DejaVuSans-69"/>
      <use x="152.441406" xlink:href="#DejaVuSans-6d"/>
      <use x="249.853516" xlink:href="#DejaVuSans-61"/>
      <use x="311.132812" xlink:href="#DejaVuSans-6c"/>
      <use x="338.916016" xlink:href="#DejaVuSans-20"/>
      <use x="370.703125" xlink:href="#DejaVuSans-2c"/>
      <use x="402.490234" xlink:href="#DejaVuSans-20"/>
      <use x="434.277344" xlink:href="#DejaVuSans-68"/>
      <use x="497.65625" xlink:href="#DejaVuSans-69"/>
      <use x="525.439453" xlink:href="#DejaVuSans-73"/>
      <use x="577.539062" xlink:href="#DejaVuSans-20"/>
      <use x="609.326172" xlink:href="#DejaVuSans-64"/>
      <use x="672.802734" xlink:href="#DejaVuSans-65"/>
      <use x="734.326172" xlink:href="#DejaVuSans-66"/>
      <use x="769.53125" xlink:href="#DejaVuSans-69"/>
      <use x="797.314453" xlink:href="#DejaVuSans-6e"/>
      <use x="860.693359" xlink:href="#DejaVuSans-69"/>
      <use x="888.476562" xlink:href="#DejaVuSans-74"/>
      <use x="927.685547" xlink:href="#DejaVuSans-69"/>
      <use x="955.46875" xlink:href="#DejaVuSans-6f"/>
      <use x="1016.650391" xlink:href="#DejaVuSans-6e"/>
      <use x="1080.029297" xlink:href="#DejaVuSans-20"/>
      <use x="1111.816406" xlink:href="#DejaVuSans-69"/>
      <use x="1139.599609" xlink:href="#DejaVuSans-6e"/>
      <use x="1202.978516" xlink:href="#DejaVuSans-20"/>
      <use x="1234.765625" xlink:href="#DejaVuSans-74"/>
      <use x="1273.974609" xlink:href="#DejaVuSans-68"/>
      <use x="1337.353516" xlink:href="#DejaVuSans-65"/>
     </g>
    </g>
    <g clip-path="url(#pf5dc48929a)">
     <!-- one case will be appropriate -->
     <defs>
      <path d="M 48.6875 27.296875 
Q 48.6875 37.203125 44.609375 42.84375 
Q 40.53125 48.484375 33.40625 48.484375 
Q 26.265625 48.484375 22.1875 42.84375 
Q 18.109375 37.203125 18.109375 27.296875 
Q 18.109375 17.390625 22.1875 11.75 
Q 26.265625 6.109375 33.40625 6.109375 
Q 40.53125 6.109375 44.609375 11.75 
Q 48.6875 17.390625 48.6875 27.296875 
z
M 18.109375 46.390625 
Q 20.953125 51.265625 25.265625 53.625 
Q 29.59375 56 35.59375 56 
Q 45.5625 56 51.78125 48.09375 
Q 58.015625 40.1875 58.015625 27.296875 
Q 58.015625 14.40625 51.78125 6.484375 
Q 45.5625 -1.421875 35.59375 -1.421875 
Q 29.59375 -1.421875 25.265625 0.953125 
Q 20.953125 3.328125 18.109375 8.203125 
L 18.109375 0 
L 9.078125 0 
L 9.078125 75.984375 
L 18.109375 75.984375 
z
" id="DejaVuSans-62"/>
      <path d="M 18.109375 8.203125 
L 18.109375 -20.796875 
L 9.078125 -20.796875 
L 9.078125 54.6875 
L 18.109375 54.6875 
L 18.109375 46.390625 
Q 20.953125 51.265625 25.265625 53.625 
Q 29.59375 56 35.59375 56 
Q 45.5625 56 51.78125 48.09375 
Q 58.015625 40.1875 58.015625 27.296875 
Q 58.015625 14.40625 51.78125 6.484375 
Q 45.5625 -1.421875 35.59375 -1.421875 
Q 29.59375 -1.421875 25.265625 0.953125 
Q 20.953125 3.328125 18.109375 8.203125 
z
M 48.6875 27.296875 
Q 48.6875 37.203125 44.609375 42.84375 
Q 40.53125 48.484375 33.40625 48.484375 
Q 26.265625 48.484375 22.1875 42.84375 
Q 18.109375 37.203125 18.109375 27.296875 
Q 18.109375 17.390625 22.1875 11.75 
Q 26.265625 6.109375 33.40625 6.109375 
Q 40.53125 6.109375 44.609375 11.75 
Q 48.6875 17.390625 48.6875 27.296875 
z
" id="DejaVuSans-70"/>
     </defs>
     <g transform="translate(482.592187 148.466278)scale(0.1 -0.1)">
      <use xlink:href="#DejaVuSans-6f"/>
      <use x="61.181641" xlink:href="#DejaVuSans-6e"/>
      <use x="124.560547" xlink:href="#DejaVuSans-65"/>
      <use x="186.083984" xlink:href="#DejaVuSans-20"/>
      <use x="217.871094" xlink:href="#DejaVuSans-63"/>
      <use x="272.851562" xlink:href="#DejaVuSans-61"/>
      <use x="334.130859" xlink:href="#DejaVuSans-73"/>
      <use x="386.230469" xlink:href="#DejaVuSans-65"/>
      <use x="447.753906" xlink:href="#DejaVuSans-20"/>
      <use x="479.541016" xlink:href="#DejaVuSans-77"/>
      <use x="561.328125" xlink:href="#DejaVuSans-69"/>
      <use x="589.111328" xlink:href="#DejaVuSans-6c"/>
      <use x="616.894531" xlink:href="#DejaVuSans-6c"/>
      <use x="644.677734" xlink:href="#DejaVuSans-20"/>
      <use x="676.464844" xlink:href="#DejaVuSans-62"/>
      <use x="739.941406" xlink:href="#DejaVuSans-65"/>
      <use x="801.464844" xlink:href="#DejaVuSans-20"/>
      <use x="833.251953" xlink:href="#DejaVuSans-61"/>
      <use x="894.53125" xlink:href="#DejaVuSans-70"/>
      <use x="958.007812" xlink:href="#DejaVuSans-70"/>
      <use x="1021.484375" xlink:href="#DejaVuSans-72"/>
      <use x="1062.566406" xlink:href="#DejaVuSans-6f"/>
      <use x="1123.748047" xlink:href="#DejaVuSans-70"/>
      <use x="1187.224609" xlink:href="#DejaVuSans-72"/>
      <use x="1228.337891" xlink:href="#DejaVuSans-69"/>
      <use x="1256.121094" xlink:href="#DejaVuSans-61"/>
      <use x="1317.400391" xlink:href="#DejaVuSans-74"/>
      <use x="1356.609375" xlink:href="#DejaVuSans-65"/>
     </g>
    </g>
    <g clip-path="url(#pf5dc48929a)">
     <!-- to that case only . -->
     <defs>
      <path d="M 10.6875 12.40625 
L 21 12.40625 
L 21 0 
L 10.6875 0 
z
" id="DejaVuSans-2e"/>
     </defs>
     <g transform="translate(508.310937 159.664091)scale(0.1 -0.1)">
      <use xlink:href="#DejaVuSans-74"/>
      <use x="39.208984" xlink:href="#DejaVuSans-6f"/>
      <use x="100.390625" xlink:href="#DejaVuSans-20"/>
      <use x="132.177734" xlink:href="#DejaVuSans-74"/>
      <use x="171.386719" xlink:href="#DejaVuSans-68"/>
      <use x="234.765625" xlink:href="#DejaVuSans-61"/>
      <use x="296.044922" xlink:href="#DejaVuSans-74"/>
      <use x="335.253906" xlink:href="#DejaVuSans-20"/>
      <use x="367.041016" xlink:href="#DejaVuSans-63"/>
      <use x="422.021484" xlink:href="#DejaVuSans-61"/>
      <use x="483.300781" xlink:href="#DejaVuSans-73"/>
      <use x="535.400391" xlink:href="#DejaVuSans-65"/>
      <use x="596.923828" xlink:href="#DejaVuSans-20"/>
      <use x="628.710938" xlink:href="#DejaVuSans-6f"/>
      <use x="689.892578" xlink:href="#DejaVuSans-6e"/>
      <use x="753.271484" xlink:href="#DejaVuSans-6c"/>
      <use x="781.054688" xlink:href="#DejaVuSans-79"/>
      <use x="840.234375" xlink:href="#DejaVuSans-20"/>
      <use x="872.021484" xlink:href="#DejaVuSans-2e"/>
     </g>
    </g>
   </g>
   <g id="text_2">
    <g clip-path="url(#pf5dc48929a)">
     <!-- 19  each his definition in the -->
     <defs>
      <path d="M 12.40625 8.296875 
L 28.515625 8.296875 
L 28.515625 63.921875 
L 10.984375 60.40625 
L 10.984375 69.390625 
L 28.421875 72.90625 
L 38.28125 72.90625 
L 38.28125 8.296875 
L 54.390625 8.296875 
L 54.390625 0 
L 12.40625 0 
z
" id="DejaVuSans-31"/>
      <path d="M 10.984375 1.515625 
L 10.984375 10.5 
Q 14.703125 8.734375 18.5 7.8125 
Q 22.3125 6.890625 25.984375 6.890625 
Q 35.75 6.890625 40.890625 13.453125 
Q 46.046875 20.015625 46.78125 33.40625 
Q 43.953125 29.203125 39.59375 26.953125 
Q 35.25 24.703125 29.984375 24.703125 
Q 19.046875 24.703125 12.671875 31.3125 
Q 6.296875 37.9375 6.296875 49.421875 
Q 6.296875 60.640625 12.9375 67.421875 
Q 19.578125 74.21875 30.609375 74.21875 
Q 43.265625 74.21875 49.921875 64.515625 
Q 56.59375 54.828125 56.59375 36.375 
Q 56.59375 19.140625 48.40625 8.859375 
Q 40.234375 -1.421875 26.421875 -1.421875 
Q 22.703125 -1.421875 18.890625 -0.6875 
Q 15.09375 0.046875 10.984375 1.515625 
z
M 30.609375 32.421875 
Q 37.25 32.421875 41.125 36.953125 
Q 45.015625 41.5 45.015625 49.421875 
Q 45.015625 57.28125 41.125 61.84375 
Q 37.25 66.40625 30.609375 66.40625 
Q 23.96875 66.40625 20.09375 61.84375 
Q 16.21875 57.28125 16.21875 49.421875 
Q 16.21875 41.5 20.09375 36.953125 
Q 23.96875 32.421875 30.609375 32.421875 
z
" id="DejaVuSans-39"/>
     </defs>
     <g transform="translate(136.215825 355.161562)scale(0.1 -0.1)">
      <use xlink:href="#DejaVuSans-31"/>
      <use x="63.623047" xlink:href="#DejaVuSans-39"/>
      <use x="127.246094" xlink:href="#DejaVuSans-20"/>
      <use x="159.033203" xlink:href="#DejaVuSans-20"/>
      <use x="190.820312" xlink:href="#DejaVuSans-65"/>
      <use x="252.34375" xlink:href="#DejaVuSans-61"/>
      <use x="313.623047" xlink:href="#DejaVuSans-63"/>
      <use x="368.603516" xlink:href="#DejaVuSans-68"/>
      <use x="431.982422" xlink:href="#DejaVuSans-20"/>
      <use x="463.769531" xlink:href="#DejaVuSans-68"/>
      <use x="527.148438" xlink:href="#DejaVuSans-69"/>
      <use x="554.931641" xlink:href="#DejaVuSans-73"/>
      <use x="607.03125" xlink:href="#DejaVuSans-20"/>
      <use x="638.818359" xlink:href="#DejaVuSans-64"/>
      <use x="702.294922" xlink:href="#DejaVuSans-65"/>
      <use x="763.818359" xlink:href="#DejaVuSans-66"/>
      <use x="799.023438" xlink:href="#DejaVuSans-69"/>
      <use x="826.806641" xlink:href="#DejaVuSans-6e"/>
      <use x="890.185547" xlink:href="#DejaVuSans-69"/>
      <use x="917.96875" xlink:href="#DejaVuSans-74"/>
      <use x="957.177734" xlink:href="#DejaVuSans-69"/>
      <use x="984.960938" xlink:href="#DejaVuSans-6f"/>
      <use x="1046.142578" xlink:href="#DejaVuSans-6e"/>
      <use x="1109.521484" xlink:href="#DejaVuSans-20"/>
      <use x="1141.308594" xlink:href="#DejaVuSans-69"/>
      <use x="1169.091797" xlink:href="#DejaVuSans-6e"/>
      <use x="1232.470703" xlink:href="#DejaVuSans-20"/>
      <use x="1264.257812" xlink:href="#DejaVuSans-74"/>
      <use x="1303.466797" xlink:href="#DejaVuSans-68"/>
      <use x="1366.845703" xlink:href="#DejaVuSans-65"/>
     </g>
    </g>
    <g clip-path="url(#pf5dc48929a)">
     <!-- one case will be appropriate -->
     <g transform="translate(136.724419 366.359375)scale(0.1 -0.1)">
      <use xlink:href="#DejaVuSans-6f"/>
      <use x="61.181641" xlink:href="#DejaVuSans-6e"/>
      <use x="124.560547" xlink:href="#DejaVuSans-65"/>
      <use x="186.083984" xlink:href="#DejaVuSans-20"/>
      <use x="217.871094" xlink:href="#DejaVuSans-63"/>
      <use x="272.851562" xlink:href="#DejaVuSans-61"/>
      <use x="334.130859" xlink:href="#DejaVuSans-73"/>
      <use x="386.230469" xlink:href="#DejaVuSans-65"/>
      <use x="447.753906" xlink:href="#DejaVuSans-20"/>
      <use x="479.541016" xlink:href="#DejaVuSans-77"/>
      <use x="561.328125" xlink:href="#DejaVuSans-69"/>
      <use x="589.111328" xlink:href="#DejaVuSans-6c"/>
      <use x="616.894531" xlink:href="#DejaVuSans-6c"/>
      <use x="644.677734" xlink:href="#DejaVuSans-20"/>
      <use x="676.464844" xlink:href="#DejaVuSans-62"/>
      <use x="739.941406" xlink:href="#DejaVuSans-65"/>
      <use x="801.464844" xlink:href="#DejaVuSans-20"/>
      <use x="833.251953" xlink:href="#DejaVuSans-61"/>
      <use x="894.53125" xlink:href="#DejaVuSans-70"/>
      <use x="958.007812" xlink:href="#DejaVuSans-70"/>
      <use x="1021.484375" xlink:href="#DejaVuSans-72"/>
      <use x="1062.566406" xlink:href="#DejaVuSans-6f"/>
      <use x="1123.748047" xlink:href="#DejaVuSans-70"/>
      <use x="1187.224609" xlink:href="#DejaVuSans-72"/>
      <use x="1228.337891" xlink:href="#DejaVuSans-69"/>
      <use x="1256.121094" xlink:href="#DejaVuSans-61"/>
      <use x="1317.400391" xlink:href="#DejaVuSans-74"/>
      <use x="1356.609375" xlink:href="#DejaVuSans-65"/>
     </g>
    </g>
    <g clip-path="url(#pf5dc48929a)">
     <!-- to that case only -->
     <g transform="translate(165.621294 377.557187)scale(0.1 -0.1)">
      <use xlink:href="#DejaVuSans-74"/>
      <use x="39.208984" xlink:href="#DejaVuSans-6f"/>
      <use x="100.390625" xlink:href="#DejaVuSans-20"/>
      <use x="132.177734" xlink:href="#DejaVuSans-74"/>
      <use x="171.386719" xlink:href="#DejaVuSans-68"/>
      <use x="234.765625" xlink:href="#DejaVuSans-61"/>
      <use x="296.044922" xlink:href="#DejaVuSans-74"/>
      <use x="335.253906" xlink:href="#DejaVuSans-20"/>
      <use x="367.041016" xlink:href="#DejaVuSans-63"/>
      <use x="422.021484" xlink:href="#DejaVuSans-61"/>
      <use x="483.300781" xlink:href="#DejaVuSans-73"/>
      <use x="535.400391" xlink:href="#DejaVuSans-65"/>
      <use x="596.923828" xlink:href="#DejaVuSans-20"/>
      <use x="628.710938" xlink:href="#DejaVuSans-6f"/>
      <use x="689.892578" xlink:href="#DejaVuSans-6e"/>
      <use x="753.271484" xlink:href="#DejaVuSans-6c"/>
      <use x="781.054688" xlink:href="#DejaVuSans-79"/>
     </g>
    </g>
   </g>
   <g id="text_3">
    <g clip-path="url(#pf5dc48929a)">
     <!-- 17  For should anyone define -->
     <defs>
      <path d="M 8.203125 72.90625 
L 55.078125 72.90625 
L 55.078125 68.703125 
L 28.609375 0 
L 18.3125 0 
L 43.21875 64.59375 
L 8.203125 64.59375 
z
" id="DejaVuSans-37"/>
     </defs>
     <g transform="translate(826.364644 355.161562)scale(0.1 -0.1)">
      <use xlink:href="#DejaVuSans-31"/>
      <use x="63.623047" xlink:href="#DejaVuSans-37"/>
      <use x="127.246094" xlink:href="#DejaVuSans-20"/>
      <use x="159.033203" xlink:href="#DejaVuSans-20"/>
      <use x="190.820312" xlink:href="#DejaVuSans-46"/>
      <use x="248.292969" xlink:href="#DejaVuSans-6f"/>
      <use x="309.474609" xlink:href="#DejaVuSans-72"/>
      <use x="350.587891" xlink:href="#DejaVuSans-20"/>
      <use x="382.375" xlink:href="#DejaVuSans-73"/>
      <use x="434.474609" xlink:href="#DejaVuSans-68"/>
      <use x="497.853516" xlink:href="#DejaVuSans-6f"/>
      <use x="559.035156" xlink:href="#DejaVuSans-75"/>
      <use x="622.414062" xlink:href="#DejaVuSans-6c"/>
      <use x="650.197266" xlink:href="#DejaVuSans-64"/>
      <use x="713.673828" xlink:href="#DejaVuSans-20"/>
      <use x="745.460938" xlink:href="#DejaVuSans-61"/>
      <use x="806.740234" xlink:href="#DejaVuSans-6e"/>
      <use x="870.119141" xlink:href="#DejaVuSans-79"/>
      <use x="929.298828" xlink:href="#DejaVuSans-6f"/>
      <use x="990.480469" xlink:href="#DejaVuSans-6e"/>
      <use x="1053.859375" xlink:href="#DejaVuSans-65"/>
      <use x="1115.382812" xlink:href="#DejaVuSans-20"/>
      <use x="1147.169922" xlink:href="#DejaVuSans-64"/>
      <use x="1210.646484" xlink:href="#DejaVuSans-65"/>
      <use x="1272.169922" xlink:href="#DejaVuSans-66"/>
      <use x="1307.375" xlink:href="#DejaVuSans-69"/>
      <use x="1335.158203" xlink:href="#DejaVuSans-6e"/>
      <use x="1398.537109" xlink:href="#DejaVuSans-65"/>
     </g>
    </g>
    <g clip-path="url(#pf5dc48929a)">
     <!-- in what sense each is an -->
     <g transform="translate(837.766206 366.359375)scale(0.1 -0.1)">
      <use xlink:href="#DejaVuSans-69"/>
      <use x="27.783203" xlink:href="#DejaVuSans-6e"/>
      <use x="91.162109" xlink:href="#DejaVuSans-20"/>
      <use x="122.949219" xlink:href="#DejaVuSans-77"/>
      <use x="204.736328" xlink:href="#DejaVuSans-68"/>
      <use x="268.115234" xlink:href="#DejaVuSans-61"/>
      <use x="329.394531" xlink:href="#DejaVuSans-74"/>
      <use x="368.603516" xlink:href="#DejaVuSans-20"/>
      <use x="400.390625" xlink:href="#DejaVuSans-73"/>
      <use x="452.490234" xlink:href="#DejaVuSans-65"/>
      <use x="514.013672" xlink:href="#DejaVuSans-6e"/>
      <use x="577.392578" xlink:href="#DejaVuSans-73"/>
      <use x="629.492188" xlink:href="#DejaVuSans-65"/>
      <use x="691.015625" xlink:href="#DejaVuSans-20"/>
      <use x="722.802734" xlink:href="#DejaVuSans-65"/>
      <use x="784.326172" xlink:href="#DejaVuSans-61"/>
      <use x="845.605469" xlink:href="#DejaVuSans-63"/>
      <use x="900.585938" xlink:href="#DejaVuSans-68"/>
      <use x="963.964844" xlink:href="#DejaVuSans-20"/>
      <use x="995.751953" xlink:href="#DejaVuSans-69"/>
      <use x="1023.535156" xlink:href="#DejaVuSans-73"/>
      <use x="1075.634766" xlink:href="#DejaVuSans-20"/>
      <use x="1107.421875" xlink:href="#DejaVuSans-61"/>
      <use x="1168.701172" xlink:href="#DejaVuSans-6e"/>
     </g>
    </g>
    <g clip-path="url(#pf5dc48929a)">
     <!-- animal -->
     <g transform="translate(882.422456 377.557187)scale(0.1 -0.1)">
      <use xlink:href="#DejaVuSans-61"/>
      <use x="61.279297" xlink:href="#DejaVuSans-6e"/>
      <use x="124.658203" xlink:href="#DejaVuSans-69"/>
      <use x="152.441406" xlink:href="#DejaVuSans-6d"/>
      <use x="249.853516" xlink:href="#DejaVuSans-61"/>
      <use x="311.132812" xlink:href="#DejaVuSans-6c"/>
     </g>
    </g>
   </g>
   <g id="text_4">
    <g clip-path="url(#pf5dc48929a)">
     <!-- 16  his definition in the one -->
     <defs>
      <path d="M 33.015625 40.375 
Q 26.375 40.375 22.484375 35.828125 
Q 18.609375 31.296875 18.609375 23.390625 
Q 18.609375 15.53125 22.484375 10.953125 
Q 26.375 6.390625 33.015625 6.390625 
Q 39.65625 6.390625 43.53125 10.953125 
Q 47.40625 15.53125 47.40625 23.390625 
Q 47.40625 31.296875 43.53125 35.828125 
Q 39.65625 40.375 33.015625 40.375 
z
M 52.59375 71.296875 
L 52.59375 62.3125 
Q 48.875 64.0625 45.09375 64.984375 
Q 41.3125 65.921875 37.59375 65.921875 
Q 27.828125 65.921875 22.671875 59.328125 
Q 17.53125 52.734375 16.796875 39.40625 
Q 19.671875 43.65625 24.015625 45.921875 
Q 28.375 48.1875 33.59375 48.1875 
Q 44.578125 48.1875 50.953125 41.515625 
Q 57.328125 34.859375 57.328125 23.390625 
Q 57.328125 12.15625 50.6875 5.359375 
Q 44.046875 -1.421875 33.015625 -1.421875 
Q 20.359375 -1.421875 13.671875 8.265625 
Q 6.984375 17.96875 6.984375 36.375 
Q 6.984375 53.65625 15.1875 63.9375 
Q 23.390625 74.21875 37.203125 74.21875 
Q 40.921875 74.21875 44.703125 73.484375 
Q 48.484375 72.75 52.59375 71.296875 
z
" id="DejaVuSans-36"/>
     </defs>
     <g transform="translate(138.969731 589.851378)scale(0.1 -0.1)">
      <use xlink:href="#DejaVuSans-31"/>
      <use x="63.623047" xlink:href="#DejaVuSans-36"/>
      <use x="127.246094" xlink:href="#DejaVuSans-20"/>
      <use x="159.033203" xlink:href="#DejaVuSans-20"/>
      <use x="190.820312" xlink:href="#DejaVuSans-68"/>
      <use x="254.199219" xlink:href="#DejaVuSans-69"/>
      <use x="281.982422" xlink:href="#DejaVuSans-73"/>
      <use x="334.082031" xlink:href="#DejaVuSans-20"/>
      <use x="365.869141" xlink:href="#DejaVuSans-64"/>
      <use x="429.345703" xlink:href="#DejaVuSans-65"/>
      <use x="490.869141" xlink:href="#DejaVuSans-66"/>
      <use x="526.074219" xlink:href="#DejaVuSans-69"/>
      <use x="553.857422" xlink:href="#DejaVuSans-6e"/>
      <use x="617.236328" xlink:href="#DejaVuSans-69"/>
      <use x="645.019531" xlink:href="#DejaVuSans-74"/>
      <use x="684.228516" xlink:href="#DejaVuSans-69"/>
      <use x="712.011719" xlink:href="#DejaVuSans-6f"/>
      <use x="773.193359" xlink:href="#DejaVuSans-6e"/>
      <use x="836.572266" xlink:href="#DejaVuSans-20"/>
      <use x="868.359375" xlink:href="#DejaVuSans-69"/>
      <use x="896.142578" xlink:href="#DejaVuSans-6e"/>
      <use x="959.521484" xlink:href="#DejaVuSans-20"/>
      <use x="991.308594" xlink:href="#DejaVuSans-74"/>
      <use x="1030.517578" xlink:href="#DejaVuSans-68"/>
      <use x="1093.896484" xlink:href="#DejaVuSans-65"/>
      <use x="1155.419922" xlink:href="#DejaVuSans-20"/>
      <use x="1187.207031" xlink:href="#DejaVuSans-6f"/>
      <use x="1248.388672" xlink:href="#DejaVuSans-6e"/>
      <use x="1311.767578" xlink:href="#DejaVuSans-65"/>
     </g>
    </g>
    <g clip-path="url(#pf5dc48929a)">
     <!-- case -->
     <g transform="translate(196.1377 601.04919)scale(0.1 -0.1)">
      <use xlink:href="#DejaVuSans-63"/>
      <use x="54.980469" xlink:href="#DejaVuSans-61"/>
      <use x="116.259766" xlink:href="#DejaVuSans-73"/>
      <use x="168.359375" xlink:href="#DejaVuSans-65"/>
     </g>
    </g>
   </g>
   <g id="text_5">
    <g clip-path="url(#pf5dc48929a)">
     <!-- 18  each is an animal -->
     <defs>
      <path d="M 31.78125 34.625 
Q 24.75 34.625 20.71875 30.859375 
Q 16.703125 27.09375 16.703125 20.515625 
Q 16.703125 13.921875 20.71875 10.15625 
Q 24.75 6.390625 31.78125 6.390625 
Q 38.8125 6.390625 42.859375 10.171875 
Q 46.921875 13.96875 46.921875 20.515625 
Q 46.921875 27.09375 42.890625 30.859375 
Q 38.875 34.625 31.78125 34.625 
z
M 21.921875 38.8125 
Q 15.578125 40.375 12.03125 44.71875 
Q 8.5 49.078125 8.5 55.328125 
Q 8.5 64.0625 14.71875 69.140625 
Q 20.953125 74.21875 31.78125 74.21875 
Q 42.671875 74.21875 48.875 69.140625 
Q 55.078125 64.0625 55.078125 55.328125 
Q 55.078125 49.078125 51.53125 44.71875 
Q 48 40.375 41.703125 38.8125 
Q 48.828125 37.15625 52.796875 32.3125 
Q 56.78125 27.484375 56.78125 20.515625 
Q 56.78125 9.90625 50.3125 4.234375 
Q 43.84375 -1.421875 31.78125 -1.421875 
Q 19.734375 -1.421875 13.25 4.234375 
Q 6.78125 9.90625 6.78125 20.515625 
Q 6.78125 27.484375 10.78125 32.3125 
Q 14.796875 37.15625 21.921875 38.8125 
z
M 18.3125 54.390625 
Q 18.3125 48.734375 21.84375 45.5625 
Q 25.390625 42.390625 31.78125 42.390625 
Q 38.140625 42.390625 41.71875 45.5625 
Q 45.3125 48.734375 45.3125 54.390625 
Q 45.3125 60.0625 41.71875 63.234375 
Q 38.140625 66.40625 31.78125 66.40625 
Q 25.390625 66.40625 21.84375 63.234375 
Q 18.3125 60.0625 18.3125 54.390625 
z
" id="DejaVuSans-38"/>
     </defs>
     <g transform="translate(845.829487 595.450284)scale(0.1 -0.1)">
      <use xlink:href="#DejaVuSans-31"/>
      <use x="63.623047" xlink:href="#DejaVuSans-38"/>
      <use x="127.246094" xlink:href="#DejaVuSans-20"/>
      <use x="159.033203" xlink:href="#DejaVuSans-20"/>
      <use x="190.820312" xlink:href="#DejaVuSans-65"/>
      <use x="252.34375" xlink:href="#DejaVuSans-61"/>
      <use x="313.623047" xlink:href="#DejaVuSans-63"/>
      <use x="368.603516" xlink:href="#DejaVuSans-68"/>
      <use x="431.982422" xlink:href="#DejaVuSans-20"/>
      <use x="463.769531" xlink:href="#DejaVuSans-69"/>
      <use x="491.552734" xlink:href="#DejaVuSans-73"/>
      <use x="543.652344" xlink:href="#DejaVuSans-20"/>
      <use x="575.439453" xlink:href="#DejaVuSans-61"/>
      <use x="636.71875" xlink:href="#DejaVuSans-6e"/>
      <use x="700.097656" xlink:href="#DejaVuSans-20"/>
      <use x="731.884766" xlink:href="#DejaVuSans-61"/>
      <use x="793.164062" xlink:href="#DejaVuSans-6e"/>
      <use x="856.542969" xlink:href="#DejaVuSans-69"/>
      <use x="884.326172" xlink:href="#DejaVuSans-6d"/>
      <use x="981.738281" xlink:href="#DejaVuSans-61"/>
      <use x="1043.017578" xlink:href="#DejaVuSans-6c"/>
     </g>
    </g>
   </g>
   <g id="text_6">
    <!-- For should anyone define in what sense each is an animal , his definition in the one case -->
    <g transform="translate(286.907813 12.6505)scale(0.12 -0.12)">
     <use xlink:href="#DejaVuSans-46"/>
     <use x="57.472656" xlink:href="#DejaVuSans-6f"/>
     <use x="118.654297" xlink:href="#DejaVuSans-72"/>
     <use x="159.767578" xlink:href="#DejaVuSans-20"/>
     <use x="191.554688" xlink:href="#DejaVuSans-73"/>
     <use x="243.654297" xlink:href="#DejaVuSans-68"/>
     <use x="307.033203" xlink:href="#DejaVuSans-6f"/>
     <use x="368.214844" xlink:href="#DejaVuSans-75"/>
     <use x="431.59375" xlink:href="#DejaVuSans-6c"/>
     <use x="459.376953" xlink:href="#DejaVuSans-64"/>
     <use x="522.853516" xlink:href="#DejaVuSans-20"/>
     <use x="554.640625" xlink:href="#DejaVuSans-61"/>
     <use x="615.919922" xlink:href="#DejaVuSans-6e"/>
     <use x="679.298828" xlink:href="#DejaVuSans-79"/>
     <use x="738.478516" xlink:href="#DejaVuSans-6f"/>
     <use x="799.660156" xlink:href="#DejaVuSans-6e"/>
     <use x="863.039062" xlink:href="#DejaVuSans-65"/>
     <use x="924.5625" xlink:href="#DejaVuSans-20"/>
     <use x="956.349609" xlink:href="#DejaVuSans-64"/>
     <use x="1019.826172" xlink:href="#DejaVuSans-65"/>
     <use x="1081.349609" xlink:href="#DejaVuSans-66"/>
     <use x="1116.554688" xlink:href="#DejaVuSans-69"/>
     <use x="1144.337891" xlink:href="#DejaVuSans-6e"/>
     <use x="1207.716797" xlink:href="#DejaVuSans-65"/>
     <use x="1269.240234" xlink:href="#DejaVuSans-20"/>
     <use x="1301.027344" xlink:href="#DejaVuSans-69"/>
     <use x="1328.810547" xlink:href="#DejaVuSans-6e"/>
     <use x="1392.189453" xlink:href="#DejaVuSans-20"/>
     <use x="1423.976562" xlink:href="#DejaVuSans-77"/>
     <use x="1505.763672" xlink:href="#DejaVuSans-68"/>
     <use x="1569.142578" xlink:href="#DejaVuSans-61"/>
     <use x="1630.421875" xlink:href="#DejaVuSans-74"/>
     <use x="1669.630859" xlink:href="#DejaVuSans-20"/>
     <use x="1701.417969" xlink:href="#DejaVuSans-73"/>
     <use x="1753.517578" xlink:href="#DejaVuSans-65"/>
     <use x="1815.041016" xlink:href="#DejaVuSans-6e"/>
     <use x="1878.419922" xlink:href="#DejaVuSans-73"/>
     <use x="1930.519531" xlink:href="#DejaVuSans-65"/>
     <use x="1992.042969" xlink:href="#DejaVuSans-20"/>
     <use x="2023.830078" xlink:href="#DejaVuSans-65"/>
     <use x="2085.353516" xlink:href="#DejaVuSans-61"/>
     <use x="2146.632812" xlink:href="#DejaVuSans-63"/>
     <use x="2201.613281" xlink:href="#DejaVuSans-68"/>
     <use x="2264.992188" xlink:href="#DejaVuSans-20"/>
     <use x="2296.779297" xlink:href="#DejaVuSans-69"/>
     <use x="2324.5625" xlink:href="#DejaVuSans-73"/>
     <use x="2376.662109" xlink:href="#DejaVuSans-20"/>
     <use x="2408.449219" xlink:href="#DejaVuSans-61"/>
     <use x="2469.728516" xlink:href="#DejaVuSans-6e"/>
     <use x="2533.107422" xlink:href="#DejaVuSans-20"/>
     <use x="2564.894531" xlink:href="#DejaVuSans-61"/>
     <use x="2626.173828" xlink:href="#DejaVuSans-6e"/>
     <use x="2689.552734" xlink:href="#DejaVuSans-69"/>
     <use x="2717.335938" xlink:href="#DejaVuSans-6d"/>
     <use x="2814.748047" xlink:href="#DejaVuSans-61"/>
     <use x="2876.027344" xlink:href="#DejaVuSans-6c"/>
     <use x="2903.810547" xlink:href="#DejaVuSans-20"/>
     <use x="2935.597656" xlink:href="#DejaVuSans-2c"/>
     <use x="2967.384766" xlink:href="#DejaVuSans-20"/>
     <use x="2999.171875" xlink:href="#DejaVuSans-68"/>
     <use x="3062.550781" xlink:href="#DejaVuSans-69"/>
     <use x="3090.333984" xlink:href="#DejaVuSans-73"/>
     <use x="3142.433594" xlink:href="#DejaVuSans-20"/>
     <use x="3174.220703" xlink:href="#DejaVuSans-64"/>
     <use x="3237.697266" xlink:href="#DejaVuSans-65"/>
     <use x="3299.220703" xlink:href="#DejaVuSans-66"/>
     <use x="3334.425781" xlink:href="#DejaVuSans-69"/>
     <use x="3362.208984" xlink:href="#DejaVuSans-6e"/>
     <use x="3425.587891" xlink:href="#DejaVuSans-69"/>
     <use x="3453.371094" xlink:href="#DejaVuSans-74"/>
     <use x="3492.580078" xlink:href="#DejaVuSans-69"/>
     <use x="3520.363281" xlink:href="#DejaVuSans-6f"/>
     <use x="3581.544922" xlink:href="#DejaVuSans-6e"/>
     <use x="3644.923828" xlink:href="#DejaVuSans-20"/>
     <use x="3676.710938" xlink:href="#DejaVuSans-69"/>
     <use x="3704.494141" xlink:href="#DejaVuSans-6e"/>
     <use x="3767.873047" xlink:href="#DejaVuSans-20"/>
     <use x="3799.660156" xlink:href="#DejaVuSans-74"/>
     <use x="3838.869141" xlink:href="#DejaVuSans-68"/>
     <use x="3902.248047" xlink:href="#DejaVuSans-65"/>
     <use x="3963.771484" xlink:href="#DejaVuSans-20"/>
     <use x="3995.558594" xlink:href="#DejaVuSans-6f"/>
     <use x="4056.740234" xlink:href="#DejaVuSans-6e"/>
     <use x="4120.119141" xlink:href="#DejaVuSans-65"/>
     <use x="4181.642578" xlink:href="#DejaVuSans-20"/>
     <use x="4213.429688" xlink:href="#DejaVuSans-63"/>
     <use x="4268.410156" xlink:href="#DejaVuSans-61"/>
     <use x="4329.689453" xlink:href="#DejaVuSans-73"/>
     <use x="4381.789062" xlink:href="#DejaVuSans-65"/>
    </g>
    <!-- will be appropriate to that case only . -->
    <g transform="translate(441.049688 26.087875)scale(0.12 -0.12)">
     <use xlink:href="#DejaVuSans-77"/>
     <use x="81.787109" xlink:href="#DejaVuSans-69"/>
     <use x="109.570312" xlink:href="#DejaVuSans-6c"/>
     <use x="137.353516" xlink:href="#DejaVuSans-6c"/>
     <use x="165.136719" xlink:href="#DejaVuSans-20"/>
     <use x="196.923828" xlink:href="#DejaVuSans-62"/>
     <use x="260.400391" xlink:href="#DejaVuSans-65"/>
     <use x="321.923828" xlink:href="#DejaVuSans-20"/>
     <use x="353.710938" xlink:href="#DejaVuSans-61"/>
     <use x="414.990234" xlink:href="#DejaVuSans-70"/>
     <use x="478.466797" xlink:href="#DejaVuSans-70"/>
     <use x="541.943359" xlink:href="#DejaVuSans-72"/>
     <use x="583.025391" xlink:href="#DejaVuSans-6f"/>
     <use x="644.207031" xlink:href="#DejaVuSans-70"/>
     <use x="707.683594" xlink:href="#DejaVuSans-72"/>
     <use x="748.796875" xlink:href="#DejaVuSans-69"/>
     <use x="776.580078" xlink:href="#DejaVuSans-61"/>
     <use x="837.859375" xlink:href="#DejaVuSans-74"/>
     <use x="877.068359" xlink:href="#DejaVuSans-65"/>
     <use x="938.591797" xlink:href="#DejaVuSans-20"/>
     <use x="970.378906" xlink:href="#DejaVuSans-74"/>
     <use x="1009.587891" xlink:href="#DejaVuSans-6f"/>
     <use x="1070.769531" xlink:href="#DejaVuSans-20"/>
     <use x="1102.556641" xlink:href="#DejaVuSans-74"/>
     <use x="1141.765625" xlink:href="#DejaVuSans-68"/>
     <use x="1205.144531" xlink:href="#DejaVuSans-61"/>
     <use x="1266.423828" xlink:href="#DejaVuSans-74"/>
     <use x="1305.632812" xlink:href="#DejaVuSans-20"/>
     <use x="1337.419922" xlink:href="#DejaVuSans-63"/>
     <use x="1392.400391" xlink:href="#DejaVuSans-61"/>
     <use x="1453.679688" xlink:href="#DejaVuSans-73"/>
     <use x="1505.779297" xlink:href="#DejaVuSans-65"/>
     <use x="1567.302734" xlink:href="#DejaVuSans-20"/>
     <use x="1599.089844" xlink:href="#DejaVuSans-6f"/>
     <use x="1660.271484" xlink:href="#DejaVuSans-6e"/>
     <use x="1723.650391" xlink:href="#DejaVuSans-6c"/>
     <use x="1751.433594" xlink:href="#DejaVuSans-79"/>
     <use x="1810.613281" xlink:href="#DejaVuSans-20"/>
     <use x="1842.400391" xlink:href="#DejaVuSans-2e"/>
    </g>
    <!-- 18 ∧ 16 ∧ 17 ∧ 19 ∧ 20 -->
    <defs>
     <path d="M 12.890625 0 
L 30.515625 57.90625 
L 42.71875 57.90625 
L 60.296875 0 
L 50.78125 0 
L 36.625 45.90625 
L 22.40625 0 
z
" id="DejaVuSans-2227"/>
    </defs>
    <g transform="translate(482.505 39.52525)scale(0.12 -0.12)">
     <use xlink:href="#DejaVuSans-31"/>
     <use x="63.623047" xlink:href="#DejaVuSans-38"/>
     <use x="127.246094" xlink:href="#DejaVuSans-20"/>
     <use x="159.033203" xlink:href="#DejaVuSans-2227"/>
     <use x="232.226562" xlink:href="#DejaVuSans-20"/>
     <use x="264.013672" xlink:href="#DejaVuSans-31"/>
     <use x="327.636719" xlink:href="#DejaVuSans-36"/>
     <use x="391.259766" xlink:href="#DejaVuSans-20"/>
     <use x="423.046875" xlink:href="#DejaVuSans-2227"/>
     <use x="496.240234" xlink:href="#DejaVuSans-20"/>
     <use x="528.027344" xlink:href="#DejaVuSans-31"/>
     <use x="591.650391" xlink:href="#DejaVuSans-37"/>
     <use x="655.273438" xlink:href="#DejaVuSans-20"/>
     <use x="687.060547" xlink:href="#DejaVuSans-2227"/>
     <use x="760.253906" xlink:href="#DejaVuSans-20"/>
     <use x="792.041016" xlink:href="#DejaVuSans-31"/>
     <use x="855.664062" xlink:href="#DejaVuSans-39"/>
     <use x="919.287109" xlink:href="#DejaVuSans-20"/>
     <use x="951.074219" xlink:href="#DejaVuSans-2227"/>
     <use x="1024.267578" xlink:href="#DejaVuSans-20"/>
     <use x="1056.054688" xlink:href="#DejaVuSans-32"/>
     <use x="1119.677734" xlink:href="#DejaVuSans-30"/>
    </g>
    <!--  pyprover.logic.Prop('18')&amp; pyprover.logic.Prop('16')&amp; pyprover.logic.Prop('17')&amp; -->
    <defs>
     <path d="M 2.984375 54.6875 
L 12.5 54.6875 
L 29.59375 8.796875 
L 46.6875 54.6875 
L 56.203125 54.6875 
L 35.6875 0 
L 23.484375 0 
z
" id="DejaVuSans-76"/>
     <path d="M 45.40625 27.984375 
Q 45.40625 37.75 41.375 43.109375 
Q 37.359375 48.484375 30.078125 48.484375 
Q 22.859375 48.484375 18.828125 43.109375 
Q 14.796875 37.75 14.796875 27.984375 
Q 14.796875 18.265625 18.828125 12.890625 
Q 22.859375 7.515625 30.078125 7.515625 
Q 37.359375 7.515625 41.375 12.890625 
Q 45.40625 18.265625 45.40625 27.984375 
z
M 54.390625 6.78125 
Q 54.390625 -7.171875 48.1875 -13.984375 
Q 42 -20.796875 29.203125 -20.796875 
Q 24.46875 -20.796875 20.265625 -20.09375 
Q 16.0625 -19.390625 12.109375 -17.921875 
L 12.109375 -9.1875 
Q 16.0625 -11.328125 19.921875 -12.34375 
Q 23.78125 -13.375 27.78125 -13.375 
Q 36.625 -13.375 41.015625 -8.765625 
Q 45.40625 -4.15625 45.40625 5.171875 
L 45.40625 9.625 
Q 42.625 4.78125 38.28125 2.390625 
Q 33.9375 0 27.875 0 
Q 17.828125 0 11.671875 7.65625 
Q 5.515625 15.328125 5.515625 27.984375 
Q 5.515625 40.671875 11.671875 48.328125 
Q 17.828125 56 27.875 56 
Q 33.9375 56 38.28125 53.609375 
Q 42.625 51.21875 45.40625 46.390625 
L 45.40625 54.6875 
L 54.390625 54.6875 
z
" id="DejaVuSans-67"/>
     <path d="M 19.671875 64.796875 
L 19.671875 37.40625 
L 32.078125 37.40625 
Q 38.96875 37.40625 42.71875 40.96875 
Q 46.484375 44.53125 46.484375 51.125 
Q 46.484375 57.671875 42.71875 61.234375 
Q 38.96875 64.796875 32.078125 64.796875 
z
M 9.8125 72.90625 
L 32.078125 72.90625 
Q 44.34375 72.90625 50.609375 67.359375 
Q 56.890625 61.8125 56.890625 51.125 
Q 56.890625 40.328125 50.609375 34.8125 
Q 44.34375 29.296875 32.078125 29.296875 
L 19.671875 29.296875 
L 19.671875 0 
L 9.8125 0 
z
" id="DejaVuSans-50"/>
     <path d="M 31 75.875 
Q 24.46875 64.65625 21.28125 53.65625 
Q 18.109375 42.671875 18.109375 31.390625 
Q 18.109375 20.125 21.3125 9.0625 
Q 24.515625 -2 31 -13.1875 
L 23.1875 -13.1875 
Q 15.875 -1.703125 12.234375 9.375 
Q 8.59375 20.453125 8.59375 31.390625 
Q 8.59375 42.28125 12.203125 53.3125 
Q 15.828125 64.359375 23.1875 75.875 
z
" id="DejaVuSans-28"/>
     <path d="M 17.921875 72.90625 
L 17.921875 45.796875 
L 9.625 45.796875 
L 9.625 72.90625 
z
" id="DejaVuSans-27"/>
     <path d="M 8.015625 75.875 
L 15.828125 75.875 
Q 23.140625 64.359375 26.78125 53.3125 
Q 30.421875 42.28125 30.421875 31.390625 
Q 30.421875 20.453125 26.78125 9.375 
Q 23.140625 -1.703125 15.828125 -13.1875 
L 8.015625 -13.1875 
Q 14.5 -2 17.703125 9.0625 
Q 20.90625 20.125 20.90625 31.390625 
Q 20.90625 42.671875 17.703125 53.65625 
Q 14.5 64.65625 8.015625 75.875 
z
" id="DejaVuSans-29"/>
     <path d="M 24.3125 39.203125 
Q 19.875 35.25 17.796875 31.3125 
Q 15.71875 27.390625 15.71875 23.09375 
Q 15.71875 15.96875 20.890625 11.234375 
Q 26.078125 6.5 33.890625 6.5 
Q 38.53125 6.5 42.578125 8.03125 
Q 46.625 9.578125 50.203125 12.703125 
z
M 31.203125 44.671875 
L 56 19.28125 
Q 58.890625 23.640625 60.5 28.59375 
Q 62.109375 33.546875 62.40625 39.109375 
L 71.484375 39.109375 
Q 70.90625 32.671875 68.359375 26.359375 
Q 65.828125 20.0625 61.28125 13.921875 
L 74.90625 0 
L 62.59375 0 
L 55.609375 7.171875 
Q 50.53125 2.828125 44.96875 0.703125 
Q 39.40625 -1.421875 33.015625 -1.421875 
Q 21.234375 -1.421875 13.765625 5.296875 
Q 6.296875 12.015625 6.296875 22.515625 
Q 6.296875 28.765625 9.5625 34.25 
Q 12.84375 39.75 19.390625 44.578125 
Q 17.046875 47.65625 15.8125 50.703125 
Q 14.59375 53.765625 14.59375 56.6875 
Q 14.59375 64.59375 20.015625 69.40625 
Q 25.4375 74.21875 34.421875 74.21875 
Q 38.484375 74.21875 42.5 73.34375 
Q 46.53125 72.46875 50.6875 70.703125 
L 50.6875 61.8125 
Q 46.4375 64.109375 42.578125 65.296875 
Q 38.71875 66.5 35.40625 66.5 
Q 30.28125 66.5 27.078125 63.78125 
Q 23.875 61.078125 23.875 56.78125 
Q 23.875 54.296875 25.3125 51.78125 
Q 26.765625 49.265625 31.203125 44.671875 
z
" id="DejaVuSans-26"/>
    </defs>
    <g transform="translate(311.41125 52.962625)scale(0.12 -0.12)">
     <use xlink:href="#DejaVuSans-20"/>
     <use x="31.787109" xlink:href="#DejaVuSans-70"/>
     <use x="95.263672" xlink:href="#DejaVuSans-79"/>
     <use x="154.443359" xlink:href="#DejaVuSans-70"/>
     <use x="217.919922" xlink:href="#DejaVuSans-72"/>
     <use x="259.001953" xlink:href="#DejaVuSans-6f"/>
     <use x="320.183594" xlink:href="#DejaVuSans-76"/>
     <use x="379.363281" xlink:href="#DejaVuSans-65"/>
     <use x="440.886719" xlink:href="#DejaVuSans-72"/>
     <use x="481.859375" xlink:href="#DejaVuSans-2e"/>
     <use x="513.646484" xlink:href="#DejaVuSans-6c"/>
     <use x="541.429688" xlink:href="#DejaVuSans-6f"/>
     <use x="602.611328" xlink:href="#DejaVuSans-67"/>
     <use x="666.087891" xlink:href="#DejaVuSans-69"/>
     <use x="693.871094" xlink:href="#DejaVuSans-63"/>
     <use x="748.851562" xlink:href="#DejaVuSans-2e"/>
     <use x="780.638672" xlink:href="#DejaVuSans-50"/>
     <use x="840.925781" xlink:href="#DejaVuSans-72"/>
     <use x="882.007812" xlink:href="#DejaVuSans-6f"/>
     <use x="943.189453" xlink:href="#DejaVuSans-70"/>
     <use x="1006.666016" xlink:href="#DejaVuSans-28"/>
     <use x="1045.679688" xlink:href="#DejaVuSans-27"/>
     <use x="1073.169922" xlink:href="#DejaVuSans-31"/>
     <use x="1136.792969" xlink:href="#DejaVuSans-38"/>
     <use x="1200.416016" xlink:href="#DejaVuSans-27"/>
     <use x="1227.90625" xlink:href="#DejaVuSans-29"/>
     <use x="1266.919922" xlink:href="#DejaVuSans-26"/>
     <use x="1344.898438" xlink:href="#DejaVuSans-20"/>
     <use x="1376.685547" xlink:href="#DejaVuSans-70"/>
     <use x="1440.162109" xlink:href="#DejaVuSans-79"/>
     <use x="1499.341797" xlink:href="#DejaVuSans-70"/>
     <use x="1562.818359" xlink:href="#DejaVuSans-72"/>
     <use x="1603.900391" xlink:href="#DejaVuSans-6f"/>
     <use x="1665.082031" xlink:href="#DejaVuSans-76"/>
     <use x="1724.261719" xlink:href="#DejaVuSans-65"/>
     <use x="1785.785156" xlink:href="#DejaVuSans-72"/>
     <use x="1826.757812" xlink:href="#DejaVuSans-2e"/>
     <use x="1858.544922" xlink:href="#DejaVuSans-6c"/>
     <use x="1886.328125" xlink:href="#DejaVuSans-6f"/>
     <use x="1947.509766" xlink:href="#DejaVuSans-67"/>
     <use x="2010.986328" xlink:href="#DejaVuSans-69"/>
     <use x="2038.769531" xlink:href="#DejaVuSans-63"/>
     <use x="2093.75" xlink:href="#DejaVuSans-2e"/>
     <use x="2125.537109" xlink:href="#DejaVuSans-50"/>
     <use x="2185.824219" xlink:href="#DejaVuSans-72"/>
     <use x="2226.90625" xlink:href="#DejaVuSans-6f"/>
     <use x="2288.087891" xlink:href="#DejaVuSans-70"/>
     <use x="2351.564453" xlink:href="#DejaVuSans-28"/>
     <use x="2390.578125" xlink:href="#DejaVuSans-27"/>
     <use x="2418.068359" xlink:href="#DejaVuSans-31"/>
     <use x="2481.691406" xlink:href="#DejaVuSans-36"/>
     <use x="2545.314453" xlink:href="#DejaVuSans-27"/>
     <use x="2572.804688" xlink:href="#DejaVuSans-29"/>
     <use x="2611.818359" xlink:href="#DejaVuSans-26"/>
     <use x="2689.796875" xlink:href="#DejaVuSans-20"/>
     <use x="2721.583984" xlink:href="#DejaVuSans-70"/>
     <use x="2785.060547" xlink:href="#DejaVuSans-79"/>
     <use x="2844.240234" xlink:href="#DejaVuSans-70"/>
     <use x="2907.716797" xlink:href="#DejaVuSans-72"/>
     <use x="2948.798828" xlink:href="#DejaVuSans-6f"/>
     <use x="3009.980469" xlink:href="#DejaVuSans-76"/>
     <use x="3069.160156" xlink:href="#DejaVuSans-65"/>
     <use x="3130.683594" xlink:href="#DejaVuSans-72"/>
     <use x="3171.65625" xlink:href="#DejaVuSans-2e"/>
     <use x="3203.443359" xlink:href="#DejaVuSans-6c"/>
     <use x="3231.226562" xlink:href="#DejaVuSans-6f"/>
     <use x="3292.408203" xlink:href="#DejaVuSans-67"/>
     <use x="3355.884766" xlink:href="#DejaVuSans-69"/>
     <use x="3383.667969" xlink:href="#DejaVuSans-63"/>
     <use x="3438.648438" xlink:href="#DejaVuSans-2e"/>
     <use x="3470.435547" xlink:href="#DejaVuSans-50"/>
     <use x="3530.722656" xlink:href="#DejaVuSans-72"/>
     <use x="3571.804688" xlink:href="#DejaVuSans-6f"/>
     <use x="3632.986328" xlink:href="#DejaVuSans-70"/>
     <use x="3696.462891" xlink:href="#DejaVuSans-28"/>
     <use x="3735.476562" xlink:href="#DejaVuSans-27"/>
     <use x="3762.966797" xlink:href="#DejaVuSans-31"/>
     <use x="3826.589844" xlink:href="#DejaVuSans-37"/>
     <use x="3890.212891" xlink:href="#DejaVuSans-27"/>
     <use x="3917.703125" xlink:href="#DejaVuSans-29"/>
     <use x="3956.716797" xlink:href="#DejaVuSans-26"/>
    </g>
    <!-- pyprover.logic.Prop('19')&amp; pyprover.logic.Prop('20') -->
    <g transform="translate(398.693438 66.4)scale(0.12 -0.12)">
     <use xlink:href="#DejaVuSans-70"/>
     <use x="63.476562" xlink:href="#DejaVuSans-79"/>
     <use x="122.65625" xlink:href="#DejaVuSans-70"/>
     <use x="186.132812" xlink:href="#DejaVuSans-72"/>
     <use x="227.214844" xlink:href="#DejaVuSans-6f"/>
     <use x="288.396484" xlink:href="#DejaVuSans-76"/>
     <use x="347.576172" xlink:href="#DejaVuSans-65"/>
     <use x="409.099609" xlink:href="#DejaVuSans-72"/>
     <use x="450.072266" xlink:href="#DejaVuSans-2e"/>
     <use x="481.859375" xlink:href="#DejaVuSans-6c"/>
     <use x="509.642578" xlink:href="#DejaVuSans-6f"/>
     <use x="570.824219" xlink:href="#DejaVuSans-67"/>
     <use x="634.300781" xlink:href="#DejaVuSans-69"/>
     <use x="662.083984" xlink:href="#DejaVuSans-63"/>
     <use x="717.064453" xlink:href="#DejaVuSans-2e"/>
     <use x="748.851562" xlink:href="#DejaVuSans-50"/>
     <use x="809.138672" xlink:href="#DejaVuSans-72"/>
     <use x="850.220703" xlink:href="#DejaVuSans-6f"/>
     <use x="911.402344" xlink:href="#DejaVuSans-70"/>
     <use x="974.878906" xlink:href="#DejaVuSans-28"/>
     <use x="1013.892578" xlink:href="#DejaVuSans-27"/>
     <use x="1041.382812" xlink:href="#DejaVuSans-31"/>
     <use x="1105.005859" xlink:href="#DejaVuSans-39"/>
     <use x="1168.628906" xlink:href="#DejaVuSans-27"/>
     <use x="1196.119141" xlink:href="#DejaVuSans-29"/>
     <use x="1235.132812" xlink:href="#DejaVuSans-26"/>
     <use x="1313.111328" xlink:href="#DejaVuSans-20"/>
     <use x="1344.898438" xlink:href="#DejaVuSans-70"/>
     <use x="1408.375" xlink:href="#DejaVuSans-79"/>
     <use x="1467.554688" xlink:href="#DejaVuSans-70"/>
     <use x="1531.03125" xlink:href="#DejaVuSans-72"/>
     <use x="1572.113281" xlink:href="#DejaVuSans-6f"/>
     <use x="1633.294922" xlink:href="#DejaVuSans-76"/>
     <use x="1692.474609" xlink:href="#DejaVuSans-65"/>
     <use x="1753.998047" xlink:href="#DejaVuSans-72"/>
     <use x="1794.970703" xlink:href="#DejaVuSans-2e"/>
     <use x="1826.757812" xlink:href="#DejaVuSans-6c"/>
     <use x="1854.541016" xlink:href="#DejaVuSans-6f"/>
     <use x="1915.722656" xlink:href="#DejaVuSans-67"/>
     <use x="1979.199219" xlink:href="#DejaVuSans-69"/>
     <use x="2006.982422" xlink:href="#DejaVuSans-63"/>
     <use x="2061.962891" xlink:href="#DejaVuSans-2e"/>
     <use x="2093.75" xlink:href="#DejaVuSans-50"/>
     <use x="2154.037109" xlink:href="#DejaVuSans-72"/>
     <use x="2195.119141" xlink:href="#DejaVuSans-6f"/>
     <use x="2256.300781" xlink:href="#DejaVuSans-70"/>
     <use x="2319.777344" xlink:href="#DejaVuSans-28"/>
     <use x="2358.791016" xlink:href="#DejaVuSans-27"/>
     <use x="2386.28125" xlink:href="#DejaVuSans-32"/>
     <use x="2449.904297" xlink:href="#DejaVuSans-30"/>
     <use x="2513.527344" xlink:href="#DejaVuSans-27"/>
     <use x="2541.017578" xlink:href="#DejaVuSans-29"/>
    </g>
   </g>
  </g>
 </g>
 <defs>
  <clipPath id="pf5dc48929a">
   <rect height="554.4" width="837" x="135" y="86.4"/>
  </clipPath>
 </defs>
</svg>
