<?xml version="1.0" encoding="utf-8" standalone="no"?>
<!DOCTYPE svg PUBLIC "-//W3C//DTD SVG 1.1//EN"
  "http://www.w3.org/Graphics/SVG/1.1/DTD/svg11.dtd">
<!-- Created with matplotlib (http://matplotlib.org/) -->
<svg height="720pt" version="1.1" viewBox="0 0 1080 720" width="1080pt" xmlns="http://www.w3.org/2000/svg" xmlns:xlink="http://www.w3.org/1999/xlink">
 <defs>
  <style type="text/css">
*{stroke-linecap:butt;stroke-linejoin:round;}
  </style>
 </defs>
 <g id="figure_1">
  <g id="patch_1">
   <path d="M 0 720 
L 1080 720 
L 1080 0 
L 0 0 
z
" style="fill:#ffffff;"/>
  </g>
  <g id="axes_1">
   <g id="patch_2">
    <path clip-path="url(#p4ce8ac0d76)" d="M 553.5 134.509091 
Q 382.071529 361.605732 212.663854 586.025362 
" style="fill:none;stroke:#000000;stroke-linecap:round;stroke-width:3;"/>
    <path clip-path="url(#p4ce8ac0d76)" d="M 217.471294 583.6403 
L 212.663854 586.025362 
L 213.640268 580.748373 
L 217.471294 583.6403 
z
" style="stroke:#000000;stroke-linecap:round;stroke-width:3;"/>
   </g>
   <g id="patch_3">
    <path clip-path="url(#p4ce8ac0d76)" d="M 553.5 134.509091 
Q 724.928471 361.605732 894.336146 586.025362 
" style="fill:none;stroke:#000000;stroke-linecap:round;stroke-width:3;"/>
    <path clip-path="url(#p4ce8ac0d76)" d="M 893.359732 580.748373 
L 894.336146 586.025362 
L 889.528706 583.6403 
L 893.359732 580.748373 
z
" style="stroke:#000000;stroke-linecap:round;stroke-width:3;"/>
   </g>
   <g id="text_1">
    <g id="patch_4">
     <path clip-path="url(#p4ce8ac0d76)" d="M 319.305959 371.578125 
L 441.826272 371.578125 
Q 444.826272 371.578125 444.826272 368.578125 
L 444.826272 358.621875 
Q 444.826272 355.621875 441.826272 355.621875 
L 319.305959 355.621875 
Q 316.305959 355.621875 316.305959 358.621875 
L 316.305959 368.578125 
Q 316.305959 371.578125 319.305959 371.578125 
z
" style="fill:#ffffff;stroke:#ffffff;stroke-linejoin:miter;"/>
    </g>
    <g clip-path="url(#p4ce8ac0d76)">
     <!-- shared_negations: (not,) -->
     <defs>
      <path d="M 44.28125 53.078125 
L 44.28125 44.578125 
Q 40.484375 46.53125 36.375 47.5 
Q 32.28125 48.484375 27.875 48.484375 
Q 21.1875 48.484375 17.84375 46.4375 
Q 14.5 44.390625 14.5 40.28125 
Q 14.5 37.15625 16.890625 35.375 
Q 19.28125 33.59375 26.515625 31.984375 
L 29.59375 31.296875 
Q 39.15625 29.25 43.1875 25.515625 
Q 47.21875 21.78125 47.21875 15.09375 
Q 47.21875 7.46875 41.1875 3.015625 
Q 35.15625 -1.421875 24.609375 -1.421875 
Q 20.21875 -1.421875 15.453125 -0.5625 
Q 10.6875 0.296875 5.421875 2 
L 5.421875 11.28125 
Q 10.40625 8.6875 15.234375 7.390625 
Q 20.0625 6.109375 24.8125 6.109375 
Q 31.15625 6.109375 34.5625 8.28125 
Q 37.984375 10.453125 37.984375 14.40625 
Q 37.984375 18.0625 35.515625 20.015625 
Q 33.0625 21.96875 24.703125 23.78125 
L 21.578125 24.515625 
Q 13.234375 26.265625 9.515625 29.90625 
Q 5.8125 33.546875 5.8125 39.890625 
Q 5.8125 47.609375 11.28125 51.796875 
Q 16.75 56 26.8125 56 
Q 31.78125 56 36.171875 55.265625 
Q 40.578125 54.546875 44.28125 53.078125 
z
" id="DejaVuSans-73"/>
      <path d="M 54.890625 33.015625 
L 54.890625 0 
L 45.90625 0 
L 45.90625 32.71875 
Q 45.90625 40.484375 42.875 44.328125 
Q 39.84375 48.1875 33.796875 48.1875 
Q 26.515625 48.1875 22.3125 43.546875 
Q 18.109375 38.921875 18.109375 30.90625 
L 18.109375 0 
L 9.078125 0 
L 9.078125 75.984375 
L 18.109375 75.984375 
L 18.109375 46.1875 
Q 21.34375 51.125 25.703125 53.5625 
Q 30.078125 56 35.796875 56 
Q 45.21875 56 50.046875 50.171875 
Q 54.890625 44.34375 54.890625 33.015625 
z
" id="DejaVuSans-68"/>
      <path d="M 34.28125 27.484375 
Q 23.390625 27.484375 19.1875 25 
Q 14.984375 22.515625 14.984375 16.5 
Q 14.984375 11.71875 18.140625 8.90625 
Q 21.296875 6.109375 26.703125 6.109375 
Q 34.1875 6.109375 38.703125 11.40625 
Q 43.21875 16.703125 43.21875 25.484375 
L 43.21875 27.484375 
z
M 52.203125 31.203125 
L 52.203125 0 
L 43.21875 0 
L 43.21875 8.296875 
Q 40.140625 3.328125 35.546875 0.953125 
Q 30.953125 -1.421875 24.3125 -1.421875 
Q 15.921875 -1.421875 10.953125 3.296875 
Q 6 8.015625 6 15.921875 
Q 6 25.140625 12.171875 29.828125 
Q 18.359375 34.515625 30.609375 34.515625 
L 43.21875 34.515625 
L 43.21875 35.40625 
Q 43.21875 41.609375 39.140625 45 
Q 35.0625 48.390625 27.6875 48.390625 
Q 23 48.390625 18.546875 47.265625 
Q 14.109375 46.140625 10.015625 43.890625 
L 10.015625 52.203125 
Q 14.9375 54.109375 19.578125 55.046875 
Q 24.21875 56 28.609375 56 
Q 40.484375 56 46.34375 49.84375 
Q 52.203125 43.703125 52.203125 31.203125 
z
" id="DejaVuSans-61"/>
      <path d="M 41.109375 46.296875 
Q 39.59375 47.171875 37.8125 47.578125 
Q 36.03125 48 33.890625 48 
Q 26.265625 48 22.1875 43.046875 
Q 18.109375 38.09375 18.109375 28.8125 
L 18.109375 0 
L 9.078125 0 
L 9.078125 54.6875 
L 18.109375 54.6875 
L 18.109375 46.1875 
Q 20.953125 51.171875 25.484375 53.578125 
Q 30.03125 56 36.53125 56 
Q 37.453125 56 38.578125 55.875 
Q 39.703125 55.765625 41.0625 55.515625 
z
" id="DejaVuSans-72"/>
      <path d="M 56.203125 29.59375 
L 56.203125 25.203125 
L 14.890625 25.203125 
Q 15.484375 15.921875 20.484375 11.0625 
Q 25.484375 6.203125 34.421875 6.203125 
Q 39.59375 6.203125 44.453125 7.46875 
Q 49.3125 8.734375 54.109375 11.28125 
L 54.109375 2.78125 
Q 49.265625 0.734375 44.1875 -0.34375 
Q 39.109375 -1.421875 33.890625 -1.421875 
Q 20.796875 -1.421875 13.15625 6.1875 
Q 5.515625 13.8125 5.515625 26.8125 
Q 5.515625 40.234375 12.765625 48.109375 
Q 20.015625 56 32.328125 56 
Q 43.359375 56 49.78125 48.890625 
Q 56.203125 41.796875 56.203125 29.59375 
z
M 47.21875 32.234375 
Q 47.125 39.59375 43.09375 43.984375 
Q 39.0625 48.390625 32.421875 48.390625 
Q 24.90625 48.390625 20.390625 44.140625 
Q 15.875 39.890625 15.1875 32.171875 
z
" id="DejaVuSans-65"/>
      <path d="M 45.40625 46.390625 
L 45.40625 75.984375 
L 54.390625 75.984375 
L 54.390625 0 
L 45.40625 0 
L 45.40625 8.203125 
Q 42.578125 3.328125 38.25 0.953125 
Q 33.9375 -1.421875 27.875 -1.421875 
Q 17.96875 -1.421875 11.734375 6.484375 
Q 5.515625 14.40625 5.515625 27.296875 
Q 5.515625 40.1875 11.734375 48.09375 
Q 17.96875 56 27.875 56 
Q 33.9375 56 38.25 53.625 
Q 42.578125 51.265625 45.40625 46.390625 
z
M 14.796875 27.296875 
Q 14.796875 17.390625 18.875 11.75 
Q 22.953125 6.109375 30.078125 6.109375 
Q 37.203125 6.109375 41.296875 11.75 
Q 45.40625 17.390625 45.40625 27.296875 
Q 45.40625 37.203125 41.296875 42.84375 
Q 37.203125 48.484375 30.078125 48.484375 
Q 22.953125 48.484375 18.875 42.84375 
Q 14.796875 37.203125 14.796875 27.296875 
z
" id="DejaVuSans-64"/>
      <path d="M 50.984375 -16.609375 
L 50.984375 -23.578125 
L -0.984375 -23.578125 
L -0.984375 -16.609375 
z
" id="DejaVuSans-5f"/>
      <path d="M 54.890625 33.015625 
L 54.890625 0 
L 45.90625 0 
L 45.90625 32.71875 
Q 45.90625 40.484375 42.875 44.328125 
Q 39.84375 48.1875 33.796875 48.1875 
Q 26.515625 48.1875 22.3125 43.546875 
Q 18.109375 38.921875 18.109375 30.90625 
L 18.109375 0 
L 9.078125 0 
L 9.078125 54.6875 
L 18.109375 54.6875 
L 18.109375 46.1875 
Q 21.34375 51.125 25.703125 53.5625 
Q 30.078125 56 35.796875 56 
Q 45.21875 56 50.046875 50.171875 
Q 54.890625 44.34375 54.890625 33.015625 
z
" id="DejaVuSans-6e"/>
      <path d="M 45.40625 27.984375 
Q 45.40625 37.75 41.375 43.109375 
Q 37.359375 48.484375 30.078125 48.484375 
Q 22.859375 48.484375 18.828125 43.109375 
Q 14.796875 37.75 14.796875 27.984375 
Q 14.796875 18.265625 18.828125 12.890625 
Q 22.859375 7.515625 30.078125 7.515625 
Q 37.359375 7.515625 41.375 12.890625 
Q 45.40625 18.265625 45.40625 27.984375 
z
M 54.390625 6.78125 
Q 54.390625 -7.171875 48.1875 -13.984375 
Q 42 -20.796875 29.203125 -20.796875 
Q 24.46875 -20.796875 20.265625 -20.09375 
Q 16.0625 -19.390625 12.109375 -17.921875 
L 12.109375 -9.1875 
Q 16.0625 -11.328125 19.921875 -12.34375 
Q 23.78125 -13.375 27.78125 -13.375 
Q 36.625 -13.375 41.015625 -8.765625 
Q 45.40625 -4.15625 45.40625 5.171875 
L 45.40625 9.625 
Q 42.625 4.78125 38.28125 2.390625 
Q 33.9375 0 27.875 0 
Q 17.828125 0 11.671875 7.65625 
Q 5.515625 15.328125 5.515625 27.984375 
Q 5.515625 40.671875 11.671875 48.328125 
Q 17.828125 56 27.875 56 
Q 33.9375 56 38.28125 53.609375 
Q 42.625 51.21875 45.40625 46.390625 
L 45.40625 54.6875 
L 54.390625 54.6875 
z
" id="DejaVuSans-67"/>
      <path d="M 18.3125 70.21875 
L 18.3125 54.6875 
L 36.8125 54.6875 
L 36.8125 47.703125 
L 18.3125 47.703125 
L 18.3125 18.015625 
Q 18.3125 11.328125 20.140625 9.421875 
Q 21.96875 7.515625 27.59375 7.515625 
L 36.8125 7.515625 
L 36.8125 0 
L 27.59375 0 
Q 17.1875 0 13.234375 3.875 
Q 9.28125 7.765625 9.28125 18.015625 
L 9.28125 47.703125 
L 2.6875 47.703125 
L 2.6875 54.6875 
L 9.28125 54.6875 
L 9.28125 70.21875 
z
" id="DejaVuSans-74"/>
      <path d="M 9.421875 54.6875 
L 18.40625 54.6875 
L 18.40625 0 
L 9.421875 0 
z
M 9.421875 75.984375 
L 18.40625 75.984375 
L 18.40625 64.59375 
L 9.421875 64.59375 
z
" id="DejaVuSans-69"/>
      <path d="M 30.609375 48.390625 
Q 23.390625 48.390625 19.1875 42.75 
Q 14.984375 37.109375 14.984375 27.296875 
Q 14.984375 17.484375 19.15625 11.84375 
Q 23.34375 6.203125 30.609375 6.203125 
Q 37.796875 6.203125 41.984375 11.859375 
Q 46.1875 17.53125 46.1875 27.296875 
Q 46.1875 37.015625 41.984375 42.703125 
Q 37.796875 48.390625 30.609375 48.390625 
z
M 30.609375 56 
Q 42.328125 56 49.015625 48.375 
Q 55.71875 40.765625 55.71875 27.296875 
Q 55.71875 13.875 49.015625 6.21875 
Q 42.328125 -1.421875 30.609375 -1.421875 
Q 18.84375 -1.421875 12.171875 6.21875 
Q 5.515625 13.875 5.515625 27.296875 
Q 5.515625 40.765625 12.171875 48.375 
Q 18.84375 56 30.609375 56 
z
" id="DejaVuSans-6f"/>
      <path d="M 11.71875 12.40625 
L 22.015625 12.40625 
L 22.015625 0 
L 11.71875 0 
z
M 11.71875 51.703125 
L 22.015625 51.703125 
L 22.015625 39.3125 
L 11.71875 39.3125 
z
" id="DejaVuSans-3a"/>
      <path id="DejaVuSans-20"/>
      <path d="M 31 75.875 
Q 24.46875 64.65625 21.28125 53.65625 
Q 18.109375 42.671875 18.109375 31.390625 
Q 18.109375 20.125 21.3125 9.0625 
Q 24.515625 -2 31 -13.1875 
L 23.1875 -13.1875 
Q 15.875 -1.703125 12.234375 9.375 
Q 8.59375 20.453125 8.59375 31.390625 
Q 8.59375 42.28125 12.203125 53.3125 
Q 15.828125 64.359375 23.1875 75.875 
z
" id="DejaVuSans-28"/>
      <path d="M 11.71875 12.40625 
L 22.015625 12.40625 
L 22.015625 4 
L 14.015625 -11.625 
L 7.71875 -11.625 
L 11.71875 4 
z
" id="DejaVuSans-2c"/>
      <path d="M 8.015625 75.875 
L 15.828125 75.875 
Q 23.140625 64.359375 26.78125 53.3125 
Q 30.421875 42.28125 30.421875 31.390625 
Q 30.421875 20.453125 26.78125 9.375 
Q 23.140625 -1.703125 15.828125 -13.1875 
L 8.015625 -13.1875 
Q 14.5 -2 17.703125 9.0625 
Q 20.90625 20.125 20.90625 31.390625 
Q 20.90625 42.671875 17.703125 53.65625 
Q 14.5 64.65625 8.015625 75.875 
z
" id="DejaVuSans-29"/>
     </defs>
     <g transform="translate(319.305959 366.220312)scale(0.1 -0.1)">
      <use xlink:href="#DejaVuSans-73"/>
      <use x="52.099609" xlink:href="#DejaVuSans-68"/>
      <use x="115.478516" xlink:href="#DejaVuSans-61"/>
      <use x="176.757812" xlink:href="#DejaVuSans-72"/>
      <use x="217.839844" xlink:href="#DejaVuSans-65"/>
      <use x="279.363281" xlink:href="#DejaVuSans-64"/>
      <use x="342.839844" xlink:href="#DejaVuSans-5f"/>
      <use x="392.839844" xlink:href="#DejaVuSans-6e"/>
      <use x="456.21875" xlink:href="#DejaVuSans-65"/>
      <use x="517.742188" xlink:href="#DejaVuSans-67"/>
      <use x="581.21875" xlink:href="#DejaVuSans-61"/>
      <use x="642.498047" xlink:href="#DejaVuSans-74"/>
      <use x="681.707031" xlink:href="#DejaVuSans-69"/>
      <use x="709.490234" xlink:href="#DejaVuSans-6f"/>
      <use x="770.671875" xlink:href="#DejaVuSans-6e"/>
      <use x="834.050781" xlink:href="#DejaVuSans-73"/>
      <use x="886.150391" xlink:href="#DejaVuSans-3a"/>
      <use x="919.841797" xlink:href="#DejaVuSans-20"/>
      <use x="951.628906" xlink:href="#DejaVuSans-28"/>
      <use x="990.642578" xlink:href="#DejaVuSans-6e"/>
      <use x="1054.021484" xlink:href="#DejaVuSans-6f"/>
      <use x="1115.203125" xlink:href="#DejaVuSans-74"/>
      <use x="1154.412109" xlink:href="#DejaVuSans-2c"/>
      <use x="1186.199219" xlink:href="#DejaVuSans-29"/>
     </g>
    </g>
   </g>
   <g id="text_2">
    <g id="patch_5">
     <path clip-path="url(#p4ce8ac0d76)" d="M 665.173728 371.578125 
L 787.694041 371.578125 
Q 790.694041 371.578125 790.694041 368.578125 
L 790.694041 358.621875 
Q 790.694041 355.621875 787.694041 355.621875 
L 665.173728 355.621875 
Q 662.173728 355.621875 662.173728 358.621875 
L 662.173728 368.578125 
Q 662.173728 371.578125 665.173728 371.578125 
z
" style="fill:#ffffff;stroke:#ffffff;stroke-linejoin:miter;"/>
    </g>
    <g clip-path="url(#p4ce8ac0d76)">
     <!-- shared_negations: (not,) -->
     <g transform="translate(665.173728 366.220312)scale(0.1 -0.1)">
      <use xlink:href="#DejaVuSans-73"/>
      <use x="52.099609" xlink:href="#DejaVuSans-68"/>
      <use x="115.478516" xlink:href="#DejaVuSans-61"/>
      <use x="176.757812" xlink:href="#DejaVuSans-72"/>
      <use x="217.839844" xlink:href="#DejaVuSans-65"/>
      <use x="279.363281" xlink:href="#DejaVuSans-64"/>
      <use x="342.839844" xlink:href="#DejaVuSans-5f"/>
      <use x="392.839844" xlink:href="#DejaVuSans-6e"/>
      <use x="456.21875" xlink:href="#DejaVuSans-65"/>
      <use x="517.742188" xlink:href="#DejaVuSans-67"/>
      <use x="581.21875" xlink:href="#DejaVuSans-61"/>
      <use x="642.498047" xlink:href="#DejaVuSans-74"/>
      <use x="681.707031" xlink:href="#DejaVuSans-69"/>
      <use x="709.490234" xlink:href="#DejaVuSans-6f"/>
      <use x="770.671875" xlink:href="#DejaVuSans-6e"/>
      <use x="834.050781" xlink:href="#DejaVuSans-73"/>
      <use x="886.150391" xlink:href="#DejaVuSans-3a"/>
      <use x="919.841797" xlink:href="#DejaVuSans-20"/>
      <use x="951.628906" xlink:href="#DejaVuSans-28"/>
      <use x="990.642578" xlink:href="#DejaVuSans-6e"/>
      <use x="1054.021484" xlink:href="#DejaVuSans-6f"/>
      <use x="1115.203125" xlink:href="#DejaVuSans-74"/>
      <use x="1154.412109" xlink:href="#DejaVuSans-2c"/>
      <use x="1186.199219" xlink:href="#DejaVuSans-29"/>
     </g>
    </g>
   </g>
   <g id="PathCollection_1">
    <defs>
     <path d="M 0 5 
C 1.326016 5 2.597899 4.473168 3.535534 3.535534 
C 4.473168 2.597899 5 1.326016 5 0 
C 5 -1.326016 4.473168 -2.597899 3.535534 -3.535534 
C 2.597899 -4.473168 1.326016 -5 0 -5 
C -1.326016 -5 -2.597899 -4.473168 -3.535534 -3.535534 
C -4.473168 -2.597899 -5 -1.326016 -5 0 
C -5 1.326016 -4.473168 2.597899 -3.535534 3.535534 
C -2.597899 4.473168 -1.326016 5 0 5 
z
" id="m542780123a" style="stroke:#0000ff;"/>
    </defs>
    <g clip-path="url(#p4ce8ac0d76)">
     <use style="fill:#0000ff;stroke:#0000ff;" x="553.5" xlink:href="#m542780123a" y="134.509091"/>
     <use style="fill:#0000ff;stroke:#0000ff;" x="207.632231" xlink:href="#m542780123a" y="592.690909"/>
     <use style="fill:#0000ff;stroke:#0000ff;" x="899.367769" xlink:href="#m542780123a" y="592.690909"/>
    </g>
   </g>
   <g id="text_3">
    <g clip-path="url(#p4ce8ac0d76)">
     <!-- 443  Yet this is not peculiar -->
     <defs>
      <path d="M 37.796875 64.3125 
L 12.890625 25.390625 
L 37.796875 25.390625 
z
M 35.203125 72.90625 
L 47.609375 72.90625 
L 47.609375 25.390625 
L 58.015625 25.390625 
L 58.015625 17.1875 
L 47.609375 17.1875 
L 47.609375 0 
L 37.796875 0 
L 37.796875 17.1875 
L 4.890625 17.1875 
L 4.890625 26.703125 
z
" id="DejaVuSans-34"/>
      <path d="M 40.578125 39.3125 
Q 47.65625 37.796875 51.625 33 
Q 55.609375 28.21875 55.609375 21.1875 
Q 55.609375 10.40625 48.1875 4.484375 
Q 40.765625 -1.421875 27.09375 -1.421875 
Q 22.515625 -1.421875 17.65625 -0.515625 
Q 12.796875 0.390625 7.625 2.203125 
L 7.625 11.71875 
Q 11.71875 9.328125 16.59375 8.109375 
Q 21.484375 6.890625 26.8125 6.890625 
Q 36.078125 6.890625 40.9375 10.546875 
Q 45.796875 14.203125 45.796875 21.1875 
Q 45.796875 27.640625 41.28125 31.265625 
Q 36.765625 34.90625 28.71875 34.90625 
L 20.21875 34.90625 
L 20.21875 43.015625 
L 29.109375 43.015625 
Q 36.375 43.015625 40.234375 45.921875 
Q 44.09375 48.828125 44.09375 54.296875 
Q 44.09375 59.90625 40.109375 62.90625 
Q 36.140625 65.921875 28.71875 65.921875 
Q 24.65625 65.921875 20.015625 65.03125 
Q 15.375 64.15625 9.8125 62.3125 
L 9.8125 71.09375 
Q 15.4375 72.65625 20.34375 73.4375 
Q 25.25 74.21875 29.59375 74.21875 
Q 40.828125 74.21875 47.359375 69.109375 
Q 53.90625 64.015625 53.90625 55.328125 
Q 53.90625 49.265625 50.4375 45.09375 
Q 46.96875 40.921875 40.578125 39.3125 
z
" id="DejaVuSans-33"/>
      <path d="M -0.203125 72.90625 
L 10.40625 72.90625 
L 30.609375 42.921875 
L 50.6875 72.90625 
L 61.28125 72.90625 
L 35.5 34.71875 
L 35.5 0 
L 25.59375 0 
L 25.59375 34.71875 
z
" id="DejaVuSans-59"/>
      <path d="M 18.109375 8.203125 
L 18.109375 -20.796875 
L 9.078125 -20.796875 
L 9.078125 54.6875 
L 18.109375 54.6875 
L 18.109375 46.390625 
Q 20.953125 51.265625 25.265625 53.625 
Q 29.59375 56 35.59375 56 
Q 45.5625 56 51.78125 48.09375 
Q 58.015625 40.1875 58.015625 27.296875 
Q 58.015625 14.40625 51.78125 6.484375 
Q 45.5625 -1.421875 35.59375 -1.421875 
Q 29.59375 -1.421875 25.265625 0.953125 
Q 20.953125 3.328125 18.109375 8.203125 
z
M 48.6875 27.296875 
Q 48.6875 37.203125 44.609375 42.84375 
Q 40.53125 48.484375 33.40625 48.484375 
Q 26.265625 48.484375 22.1875 42.84375 
Q 18.109375 37.203125 18.109375 27.296875 
Q 18.109375 17.390625 22.1875 11.75 
Q 26.265625 6.109375 33.40625 6.109375 
Q 40.53125 6.109375 44.609375 11.75 
Q 48.6875 17.390625 48.6875 27.296875 
z
" id="DejaVuSans-70"/>
      <path d="M 48.78125 52.59375 
L 48.78125 44.1875 
Q 44.96875 46.296875 41.140625 47.34375 
Q 37.3125 48.390625 33.40625 48.390625 
Q 24.65625 48.390625 19.8125 42.84375 
Q 14.984375 37.3125 14.984375 27.296875 
Q 14.984375 17.28125 19.8125 11.734375 
Q 24.65625 6.203125 33.40625 6.203125 
Q 37.3125 6.203125 41.140625 7.25 
Q 44.96875 8.296875 48.78125 10.40625 
L 48.78125 2.09375 
Q 45.015625 0.34375 40.984375 -0.53125 
Q 36.96875 -1.421875 32.421875 -1.421875 
Q 20.0625 -1.421875 12.78125 6.34375 
Q 5.515625 14.109375 5.515625 27.296875 
Q 5.515625 40.671875 12.859375 48.328125 
Q 20.21875 56 33.015625 56 
Q 37.15625 56 41.109375 55.140625 
Q 45.0625 54.296875 48.78125 52.59375 
z
" id="DejaVuSans-63"/>
      <path d="M 8.5 21.578125 
L 8.5 54.6875 
L 17.484375 54.6875 
L 17.484375 21.921875 
Q 17.484375 14.15625 20.5 10.265625 
Q 23.53125 6.390625 29.59375 6.390625 
Q 36.859375 6.390625 41.078125 11.03125 
Q 45.3125 15.671875 45.3125 23.6875 
L 45.3125 54.6875 
L 54.296875 54.6875 
L 54.296875 0 
L 45.3125 0 
L 45.3125 8.40625 
Q 42.046875 3.421875 37.71875 1 
Q 33.40625 -1.421875 27.6875 -1.421875 
Q 18.265625 -1.421875 13.375 4.4375 
Q 8.5 10.296875 8.5 21.578125 
z
M 31.109375 56 
z
" id="DejaVuSans-75"/>
      <path d="M 9.421875 75.984375 
L 18.40625 75.984375 
L 18.40625 0 
L 9.421875 0 
z
" id="DejaVuSans-6c"/>
     </defs>
     <g transform="translate(484.970312 120.471747)scale(0.1 -0.1)">
      <use xlink:href="#DejaVuSans-34"/>
      <use x="63.623047" xlink:href="#DejaVuSans-34"/>
      <use x="127.246094" xlink:href="#DejaVuSans-33"/>
      <use x="190.869141" xlink:href="#DejaVuSans-20"/>
      <use x="222.65625" xlink:href="#DejaVuSans-20"/>
      <use x="254.443359" xlink:href="#DejaVuSans-59"/>
      <use x="315.324219" xlink:href="#DejaVuSans-65"/>
      <use x="376.847656" xlink:href="#DejaVuSans-74"/>
      <use x="416.056641" xlink:href="#DejaVuSans-20"/>
      <use x="447.84375" xlink:href="#DejaVuSans-74"/>
      <use x="487.052734" xlink:href="#DejaVuSans-68"/>
      <use x="550.431641" xlink:href="#DejaVuSans-69"/>
      <use x="578.214844" xlink:href="#DejaVuSans-73"/>
      <use x="630.314453" xlink:href="#DejaVuSans-20"/>
      <use x="662.101562" xlink:href="#DejaVuSans-69"/>
      <use x="689.884766" xlink:href="#DejaVuSans-73"/>
      <use x="741.984375" xlink:href="#DejaVuSans-20"/>
      <use x="773.771484" xlink:href="#DejaVuSans-6e"/>
      <use x="837.150391" xlink:href="#DejaVuSans-6f"/>
      <use x="898.332031" xlink:href="#DejaVuSans-74"/>
      <use x="937.541016" xlink:href="#DejaVuSans-20"/>
      <use x="969.328125" xlink:href="#DejaVuSans-70"/>
      <use x="1032.804688" xlink:href="#DejaVuSans-65"/>
      <use x="1094.328125" xlink:href="#DejaVuSans-63"/>
      <use x="1149.308594" xlink:href="#DejaVuSans-75"/>
      <use x="1212.6875" xlink:href="#DejaVuSans-6c"/>
      <use x="1240.470703" xlink:href="#DejaVuSans-69"/>
      <use x="1268.253906" xlink:href="#DejaVuSans-61"/>
      <use x="1329.533203" xlink:href="#DejaVuSans-72"/>
     </g>
    </g>
    <g clip-path="url(#p4ce8ac0d76)">
     <!-- to substance , for it is also -->
     <defs>
      <path d="M 48.6875 27.296875 
Q 48.6875 37.203125 44.609375 42.84375 
Q 40.53125 48.484375 33.40625 48.484375 
Q 26.265625 48.484375 22.1875 42.84375 
Q 18.109375 37.203125 18.109375 27.296875 
Q 18.109375 17.390625 22.1875 11.75 
Q 26.265625 6.109375 33.40625 6.109375 
Q 40.53125 6.109375 44.609375 11.75 
Q 48.6875 17.390625 48.6875 27.296875 
z
M 18.109375 46.390625 
Q 20.953125 51.265625 25.265625 53.625 
Q 29.59375 56 35.59375 56 
Q 45.5625 56 51.78125 48.09375 
Q 58.015625 40.1875 58.015625 27.296875 
Q 58.015625 14.40625 51.78125 6.484375 
Q 45.5625 -1.421875 35.59375 -1.421875 
Q 29.59375 -1.421875 25.265625 0.953125 
Q 20.953125 3.328125 18.109375 8.203125 
L 18.109375 0 
L 9.078125 0 
L 9.078125 75.984375 
L 18.109375 75.984375 
z
" id="DejaVuSans-62"/>
      <path d="M 37.109375 75.984375 
L 37.109375 68.5 
L 28.515625 68.5 
Q 23.6875 68.5 21.796875 66.546875 
Q 19.921875 64.59375 19.921875 59.515625 
L 19.921875 54.6875 
L 34.71875 54.6875 
L 34.71875 47.703125 
L 19.921875 47.703125 
L 19.921875 0 
L 10.890625 0 
L 10.890625 47.703125 
L 2.296875 47.703125 
L 2.296875 54.6875 
L 10.890625 54.6875 
L 10.890625 58.5 
Q 10.890625 67.625 15.140625 71.796875 
Q 19.390625 75.984375 28.609375 75.984375 
z
" id="DejaVuSans-66"/>
     </defs>
     <g transform="translate(487.450781 131.66956)scale(0.1 -0.1)">
      <use xlink:href="#DejaVuSans-74"/>
      <use x="39.208984" xlink:href="#DejaVuSans-6f"/>
      <use x="100.390625" xlink:href="#DejaVuSans-20"/>
      <use x="132.177734" xlink:href="#DejaVuSans-73"/>
      <use x="184.277344" xlink:href="#DejaVuSans-75"/>
      <use x="247.65625" xlink:href="#DejaVuSans-62"/>
      <use x="311.132812" xlink:href="#DejaVuSans-73"/>
      <use x="363.232422" xlink:href="#DejaVuSans-74"/>
      <use x="402.441406" xlink:href="#DejaVuSans-61"/>
      <use x="463.720703" xlink:href="#DejaVuSans-6e"/>
      <use x="527.099609" xlink:href="#DejaVuSans-63"/>
      <use x="582.080078" xlink:href="#DejaVuSans-65"/>
      <use x="643.603516" xlink:href="#DejaVuSans-20"/>
      <use x="675.390625" xlink:href="#DejaVuSans-2c"/>
      <use x="707.177734" xlink:href="#DejaVuSans-20"/>
      <use x="738.964844" xlink:href="#DejaVuSans-66"/>
      <use x="774.169922" xlink:href="#DejaVuSans-6f"/>
      <use x="835.351562" xlink:href="#DejaVuSans-72"/>
      <use x="876.464844" xlink:href="#DejaVuSans-20"/>
      <use x="908.251953" xlink:href="#DejaVuSans-69"/>
      <use x="936.035156" xlink:href="#DejaVuSans-74"/>
      <use x="975.244141" xlink:href="#DejaVuSans-20"/>
      <use x="1007.03125" xlink:href="#DejaVuSans-69"/>
      <use x="1034.814453" xlink:href="#DejaVuSans-73"/>
      <use x="1086.914062" xlink:href="#DejaVuSans-20"/>
      <use x="1118.701172" xlink:href="#DejaVuSans-61"/>
      <use x="1179.980469" xlink:href="#DejaVuSans-6c"/>
      <use x="1207.763672" xlink:href="#DejaVuSans-73"/>
      <use x="1259.863281" xlink:href="#DejaVuSans-6f"/>
     </g>
    </g>
    <g clip-path="url(#p4ce8ac0d76)">
     <!-- the case that differentiae can -->
     <g transform="translate(479.359375 142.867372)scale(0.1 -0.1)">
      <use xlink:href="#DejaVuSans-74"/>
      <use x="39.208984" xlink:href="#DejaVuSans-68"/>
      <use x="102.587891" xlink:href="#DejaVuSans-65"/>
      <use x="164.111328" xlink:href="#DejaVuSans-20"/>
      <use x="195.898438" xlink:href="#DejaVuSans-63"/>
      <use x="250.878906" xlink:href="#DejaVuSans-61"/>
      <use x="312.158203" xlink:href="#DejaVuSans-73"/>
      <use x="364.257812" xlink:href="#DejaVuSans-65"/>
      <use x="425.78125" xlink:href="#DejaVuSans-20"/>
      <use x="457.568359" xlink:href="#DejaVuSans-74"/>
      <use x="496.777344" xlink:href="#DejaVuSans-68"/>
      <use x="560.15625" xlink:href="#DejaVuSans-61"/>
      <use x="621.435547" xlink:href="#DejaVuSans-74"/>
      <use x="660.644531" xlink:href="#DejaVuSans-20"/>
      <use x="692.431641" xlink:href="#DejaVuSans-64"/>
      <use x="755.908203" xlink:href="#DejaVuSans-69"/>
      <use x="783.691406" xlink:href="#DejaVuSans-66"/>
      <use x="818.896484" xlink:href="#DejaVuSans-66"/>
      <use x="854.101562" xlink:href="#DejaVuSans-65"/>
      <use x="915.625" xlink:href="#DejaVuSans-72"/>
      <use x="956.707031" xlink:href="#DejaVuSans-65"/>
      <use x="1018.230469" xlink:href="#DejaVuSans-6e"/>
      <use x="1081.609375" xlink:href="#DejaVuSans-74"/>
      <use x="1120.818359" xlink:href="#DejaVuSans-69"/>
      <use x="1148.601562" xlink:href="#DejaVuSans-61"/>
      <use x="1209.880859" xlink:href="#DejaVuSans-65"/>
      <use x="1271.404297" xlink:href="#DejaVuSans-20"/>
      <use x="1303.191406" xlink:href="#DejaVuSans-63"/>
      <use x="1358.171875" xlink:href="#DejaVuSans-61"/>
      <use x="1419.451172" xlink:href="#DejaVuSans-6e"/>
     </g>
    </g>
    <g clip-path="url(#p4ce8ac0d76)">
     <!-- not be present in subjects . -->
     <defs>
      <path d="M 9.421875 54.6875 
L 18.40625 54.6875 
L 18.40625 -0.984375 
Q 18.40625 -11.421875 14.421875 -16.109375 
Q 10.453125 -20.796875 1.609375 -20.796875 
L -1.8125 -20.796875 
L -1.8125 -13.1875 
L 0.59375 -13.1875 
Q 5.71875 -13.1875 7.5625 -10.8125 
Q 9.421875 -8.453125 9.421875 -0.984375 
z
M 9.421875 75.984375 
L 18.40625 75.984375 
L 18.40625 64.59375 
L 9.421875 64.59375 
z
" id="DejaVuSans-6a"/>
      <path d="M 10.6875 12.40625 
L 21 12.40625 
L 21 0 
L 10.6875 0 
z
" id="DejaVuSans-2e"/>
     </defs>
     <g transform="translate(485.126562 154.065185)scale(0.1 -0.1)">
      <use xlink:href="#DejaVuSans-6e"/>
      <use x="63.378906" xlink:href="#DejaVuSans-6f"/>
      <use x="124.560547" xlink:href="#DejaVuSans-74"/>
      <use x="163.769531" xlink:href="#DejaVuSans-20"/>
      <use x="195.556641" xlink:href="#DejaVuSans-62"/>
      <use x="259.033203" xlink:href="#DejaVuSans-65"/>
      <use x="320.556641" xlink:href="#DejaVuSans-20"/>
      <use x="352.34375" xlink:href="#DejaVuSans-70"/>
      <use x="415.820312" xlink:href="#DejaVuSans-72"/>
      <use x="456.902344" xlink:href="#DejaVuSans-65"/>
      <use x="518.425781" xlink:href="#DejaVuSans-73"/>
      <use x="570.525391" xlink:href="#DejaVuSans-65"/>
      <use x="632.048828" xlink:href="#DejaVuSans-6e"/>
      <use x="695.427734" xlink:href="#DejaVuSans-74"/>
      <use x="734.636719" xlink:href="#DejaVuSans-20"/>
      <use x="766.423828" xlink:href="#DejaVuSans-69"/>
      <use x="794.207031" xlink:href="#DejaVuSans-6e"/>
      <use x="857.585938" xlink:href="#DejaVuSans-20"/>
      <use x="889.373047" xlink:href="#DejaVuSans-73"/>
      <use x="941.472656" xlink:href="#DejaVuSans-75"/>
      <use x="1004.851562" xlink:href="#DejaVuSans-62"/>
      <use x="1068.328125" xlink:href="#DejaVuSans-6a"/>
      <use x="1096.111328" xlink:href="#DejaVuSans-65"/>
      <use x="1157.634766" xlink:href="#DejaVuSans-63"/>
      <use x="1212.615234" xlink:href="#DejaVuSans-74"/>
      <use x="1251.824219" xlink:href="#DejaVuSans-73"/>
      <use x="1303.923828" xlink:href="#DejaVuSans-20"/>
      <use x="1335.710938" xlink:href="#DejaVuSans-2e"/>
     </g>
    </g>
   </g>
   <g id="text_4">
    <g clip-path="url(#p4ce8ac0d76)">
     <!-- 442  for it is also the case -->
     <defs>
      <path d="M 19.1875 8.296875 
L 53.609375 8.296875 
L 53.609375 0 
L 7.328125 0 
L 7.328125 8.296875 
Q 12.9375 14.109375 22.625 23.890625 
Q 32.328125 33.6875 34.8125 36.53125 
Q 39.546875 41.84375 41.421875 45.53125 
Q 43.3125 49.21875 43.3125 52.78125 
Q 43.3125 58.59375 39.234375 62.25 
Q 35.15625 65.921875 28.609375 65.921875 
Q 23.96875 65.921875 18.8125 64.3125 
Q 13.671875 62.703125 7.8125 59.421875 
L 7.8125 69.390625 
Q 13.765625 71.78125 18.9375 73 
Q 24.125 74.21875 28.421875 74.21875 
Q 39.75 74.21875 46.484375 68.546875 
Q 53.21875 62.890625 53.21875 53.421875 
Q 53.21875 48.921875 51.53125 44.890625 
Q 49.859375 40.875 45.40625 35.40625 
Q 44.1875 33.984375 37.640625 27.21875 
Q 31.109375 20.453125 19.1875 8.296875 
z
" id="DejaVuSans-32"/>
     </defs>
     <g transform="translate(142.929888 584.252472)scale(0.1 -0.1)">
      <use xlink:href="#DejaVuSans-34"/>
      <use x="63.623047" xlink:href="#DejaVuSans-34"/>
      <use x="127.246094" xlink:href="#DejaVuSans-32"/>
      <use x="190.869141" xlink:href="#DejaVuSans-20"/>
      <use x="222.65625" xlink:href="#DejaVuSans-20"/>
      <use x="254.443359" xlink:href="#DejaVuSans-66"/>
      <use x="289.648438" xlink:href="#DejaVuSans-6f"/>
      <use x="350.830078" xlink:href="#DejaVuSans-72"/>
      <use x="391.943359" xlink:href="#DejaVuSans-20"/>
      <use x="423.730469" xlink:href="#DejaVuSans-69"/>
      <use x="451.513672" xlink:href="#DejaVuSans-74"/>
      <use x="490.722656" xlink:href="#DejaVuSans-20"/>
      <use x="522.509766" xlink:href="#DejaVuSans-69"/>
      <use x="550.292969" xlink:href="#DejaVuSans-73"/>
      <use x="602.392578" xlink:href="#DejaVuSans-20"/>
      <use x="634.179688" xlink:href="#DejaVuSans-61"/>
      <use x="695.458984" xlink:href="#DejaVuSans-6c"/>
      <use x="723.242188" xlink:href="#DejaVuSans-73"/>
      <use x="775.341797" xlink:href="#DejaVuSans-6f"/>
      <use x="836.523438" xlink:href="#DejaVuSans-20"/>
      <use x="868.310547" xlink:href="#DejaVuSans-74"/>
      <use x="907.519531" xlink:href="#DejaVuSans-68"/>
      <use x="970.898438" xlink:href="#DejaVuSans-65"/>
      <use x="1032.421875" xlink:href="#DejaVuSans-20"/>
      <use x="1064.208984" xlink:href="#DejaVuSans-63"/>
      <use x="1119.189453" xlink:href="#DejaVuSans-61"/>
      <use x="1180.46875" xlink:href="#DejaVuSans-73"/>
      <use x="1232.568359" xlink:href="#DejaVuSans-65"/>
     </g>
    </g>
    <g clip-path="url(#p4ce8ac0d76)">
     <!-- that differentiae can not be -->
     <g transform="translate(138.752544 595.450284)scale(0.1 -0.1)">
      <use xlink:href="#DejaVuSans-74"/>
      <use x="39.208984" xlink:href="#DejaVuSans-68"/>
      <use x="102.587891" xlink:href="#DejaVuSans-61"/>
      <use x="163.867188" xlink:href="#DejaVuSans-74"/>
      <use x="203.076172" xlink:href="#DejaVuSans-20"/>
      <use x="234.863281" xlink:href="#DejaVuSans-64"/>
      <use x="298.339844" xlink:href="#DejaVuSans-69"/>
      <use x="326.123047" xlink:href="#DejaVuSans-66"/>
      <use x="361.328125" xlink:href="#DejaVuSans-66"/>
      <use x="396.533203" xlink:href="#DejaVuSans-65"/>
      <use x="458.056641" xlink:href="#DejaVuSans-72"/>
      <use x="499.138672" xlink:href="#DejaVuSans-65"/>
      <use x="560.662109" xlink:href="#DejaVuSans-6e"/>
      <use x="624.041016" xlink:href="#DejaVuSans-74"/>
      <use x="663.25" xlink:href="#DejaVuSans-69"/>
      <use x="691.033203" xlink:href="#DejaVuSans-61"/>
      <use x="752.3125" xlink:href="#DejaVuSans-65"/>
      <use x="813.835938" xlink:href="#DejaVuSans-20"/>
      <use x="845.623047" xlink:href="#DejaVuSans-63"/>
      <use x="900.603516" xlink:href="#DejaVuSans-61"/>
      <use x="961.882812" xlink:href="#DejaVuSans-6e"/>
      <use x="1025.261719" xlink:href="#DejaVuSans-20"/>
      <use x="1057.048828" xlink:href="#DejaVuSans-6e"/>
      <use x="1120.427734" xlink:href="#DejaVuSans-6f"/>
      <use x="1181.609375" xlink:href="#DejaVuSans-74"/>
      <use x="1220.818359" xlink:href="#DejaVuSans-20"/>
      <use x="1252.605469" xlink:href="#DejaVuSans-62"/>
      <use x="1316.082031" xlink:href="#DejaVuSans-65"/>
     </g>
    </g>
    <g clip-path="url(#p4ce8ac0d76)">
     <!-- present in subjects -->
     <g transform="translate(160.054106 606.648097)scale(0.1 -0.1)">
      <use xlink:href="#DejaVuSans-70"/>
      <use x="63.476562" xlink:href="#DejaVuSans-72"/>
      <use x="104.558594" xlink:href="#DejaVuSans-65"/>
      <use x="166.082031" xlink:href="#DejaVuSans-73"/>
      <use x="218.181641" xlink:href="#DejaVuSans-65"/>
      <use x="279.705078" xlink:href="#DejaVuSans-6e"/>
      <use x="343.083984" xlink:href="#DejaVuSans-74"/>
      <use x="382.292969" xlink:href="#DejaVuSans-20"/>
      <use x="414.080078" xlink:href="#DejaVuSans-69"/>
      <use x="441.863281" xlink:href="#DejaVuSans-6e"/>
      <use x="505.242188" xlink:href="#DejaVuSans-20"/>
      <use x="537.029297" xlink:href="#DejaVuSans-73"/>
      <use x="589.128906" xlink:href="#DejaVuSans-75"/>
      <use x="652.507812" xlink:href="#DejaVuSans-62"/>
      <use x="715.984375" xlink:href="#DejaVuSans-6a"/>
      <use x="743.767578" xlink:href="#DejaVuSans-65"/>
      <use x="805.291016" xlink:href="#DejaVuSans-63"/>
      <use x="860.271484" xlink:href="#DejaVuSans-74"/>
      <use x="899.480469" xlink:href="#DejaVuSans-73"/>
     </g>
    </g>
   </g>
   <g id="text_5">
    <g clip-path="url(#p4ce8ac0d76)">
     <!-- 441  Yet this is not peculiar -->
     <defs>
      <path d="M 12.40625 8.296875 
L 28.515625 8.296875 
L 28.515625 63.921875 
L 10.984375 60.40625 
L 10.984375 69.390625 
L 28.421875 72.90625 
L 38.28125 72.90625 
L 38.28125 8.296875 
L 54.390625 8.296875 
L 54.390625 0 
L 12.40625 0 
z
" id="DejaVuSans-31"/>
     </defs>
     <g transform="translate(830.838081 589.851378)scale(0.1 -0.1)">
      <use xlink:href="#DejaVuSans-34"/>
      <use x="63.623047" xlink:href="#DejaVuSans-34"/>
      <use x="127.246094" xlink:href="#DejaVuSans-31"/>
      <use x="190.869141" xlink:href="#DejaVuSans-20"/>
      <use x="222.65625" xlink:href="#DejaVuSans-20"/>
      <use x="254.443359" xlink:href="#DejaVuSans-59"/>
      <use x="315.324219" xlink:href="#DejaVuSans-65"/>
      <use x="376.847656" xlink:href="#DejaVuSans-74"/>
      <use x="416.056641" xlink:href="#DejaVuSans-20"/>
      <use x="447.84375" xlink:href="#DejaVuSans-74"/>
      <use x="487.052734" xlink:href="#DejaVuSans-68"/>
      <use x="550.431641" xlink:href="#DejaVuSans-69"/>
      <use x="578.214844" xlink:href="#DejaVuSans-73"/>
      <use x="630.314453" xlink:href="#DejaVuSans-20"/>
      <use x="662.101562" xlink:href="#DejaVuSans-69"/>
      <use x="689.884766" xlink:href="#DejaVuSans-73"/>
      <use x="741.984375" xlink:href="#DejaVuSans-20"/>
      <use x="773.771484" xlink:href="#DejaVuSans-6e"/>
      <use x="837.150391" xlink:href="#DejaVuSans-6f"/>
      <use x="898.332031" xlink:href="#DejaVuSans-74"/>
      <use x="937.541016" xlink:href="#DejaVuSans-20"/>
      <use x="969.328125" xlink:href="#DejaVuSans-70"/>
      <use x="1032.804688" xlink:href="#DejaVuSans-65"/>
      <use x="1094.328125" xlink:href="#DejaVuSans-63"/>
      <use x="1149.308594" xlink:href="#DejaVuSans-75"/>
      <use x="1212.6875" xlink:href="#DejaVuSans-6c"/>
      <use x="1240.470703" xlink:href="#DejaVuSans-69"/>
      <use x="1268.253906" xlink:href="#DejaVuSans-61"/>
      <use x="1329.533203" xlink:href="#DejaVuSans-72"/>
     </g>
    </g>
    <g clip-path="url(#p4ce8ac0d76)">
     <!-- to substance -->
     <g transform="translate(867.188081 601.04919)scale(0.1 -0.1)">
      <use xlink:href="#DejaVuSans-74"/>
      <use x="39.208984" xlink:href="#DejaVuSans-6f"/>
      <use x="100.390625" xlink:href="#DejaVuSans-20"/>
      <use x="132.177734" xlink:href="#DejaVuSans-73"/>
      <use x="184.277344" xlink:href="#DejaVuSans-75"/>
      <use x="247.65625" xlink:href="#DejaVuSans-62"/>
      <use x="311.132812" xlink:href="#DejaVuSans-73"/>
      <use x="363.232422" xlink:href="#DejaVuSans-74"/>
      <use x="402.441406" xlink:href="#DejaVuSans-61"/>
      <use x="463.720703" xlink:href="#DejaVuSans-6e"/>
      <use x="527.099609" xlink:href="#DejaVuSans-63"/>
      <use x="582.080078" xlink:href="#DejaVuSans-65"/>
     </g>
    </g>
   </g>
   <g id="text_6">
    <!-- Yet this is not peculiar to substance , for it is also the case that differentiae can not -->
    <g transform="translate(302.75625 26.087875)scale(0.12 -0.12)">
     <use xlink:href="#DejaVuSans-59"/>
     <use x="60.880859" xlink:href="#DejaVuSans-65"/>
     <use x="122.404297" xlink:href="#DejaVuSans-74"/>
     <use x="161.613281" xlink:href="#DejaVuSans-20"/>
     <use x="193.400391" xlink:href="#DejaVuSans-74"/>
     <use x="232.609375" xlink:href="#DejaVuSans-68"/>
     <use x="295.988281" xlink:href="#DejaVuSans-69"/>
     <use x="323.771484" xlink:href="#DejaVuSans-73"/>
     <use x="375.871094" xlink:href="#DejaVuSans-20"/>
     <use x="407.658203" xlink:href="#DejaVuSans-69"/>
     <use x="435.441406" xlink:href="#DejaVuSans-73"/>
     <use x="487.541016" xlink:href="#DejaVuSans-20"/>
     <use x="519.328125" xlink:href="#DejaVuSans-6e"/>
     <use x="582.707031" xlink:href="#DejaVuSans-6f"/>
     <use x="643.888672" xlink:href="#DejaVuSans-74"/>
     <use x="683.097656" xlink:href="#DejaVuSans-20"/>
     <use x="714.884766" xlink:href="#DejaVuSans-70"/>
     <use x="778.361328" xlink:href="#DejaVuSans-65"/>
     <use x="839.884766" xlink:href="#DejaVuSans-63"/>
     <use x="894.865234" xlink:href="#DejaVuSans-75"/>
     <use x="958.244141" xlink:href="#DejaVuSans-6c"/>
     <use x="986.027344" xlink:href="#DejaVuSans-69"/>
     <use x="1013.810547" xlink:href="#DejaVuSans-61"/>
     <use x="1075.089844" xlink:href="#DejaVuSans-72"/>
     <use x="1116.203125" xlink:href="#DejaVuSans-20"/>
     <use x="1147.990234" xlink:href="#DejaVuSans-74"/>
     <use x="1187.199219" xlink:href="#DejaVuSans-6f"/>
     <use x="1248.380859" xlink:href="#DejaVuSans-20"/>
     <use x="1280.167969" xlink:href="#DejaVuSans-73"/>
     <use x="1332.267578" xlink:href="#DejaVuSans-75"/>
     <use x="1395.646484" xlink:href="#DejaVuSans-62"/>
     <use x="1459.123047" xlink:href="#DejaVuSans-73"/>
     <use x="1511.222656" xlink:href="#DejaVuSans-74"/>
     <use x="1550.431641" xlink:href="#DejaVuSans-61"/>
     <use x="1611.710938" xlink:href="#DejaVuSans-6e"/>
     <use x="1675.089844" xlink:href="#DejaVuSans-63"/>
     <use x="1730.070312" xlink:href="#DejaVuSans-65"/>
     <use x="1791.59375" xlink:href="#DejaVuSans-20"/>
     <use x="1823.380859" xlink:href="#DejaVuSans-2c"/>
     <use x="1855.167969" xlink:href="#DejaVuSans-20"/>
     <use x="1886.955078" xlink:href="#DejaVuSans-66"/>
     <use x="1922.160156" xlink:href="#DejaVuSans-6f"/>
     <use x="1983.341797" xlink:href="#DejaVuSans-72"/>
     <use x="2024.455078" xlink:href="#DejaVuSans-20"/>
     <use x="2056.242188" xlink:href="#DejaVuSans-69"/>
     <use x="2084.025391" xlink:href="#DejaVuSans-74"/>
     <use x="2123.234375" xlink:href="#DejaVuSans-20"/>
     <use x="2155.021484" xlink:href="#DejaVuSans-69"/>
     <use x="2182.804688" xlink:href="#DejaVuSans-73"/>
     <use x="2234.904297" xlink:href="#DejaVuSans-20"/>
     <use x="2266.691406" xlink:href="#DejaVuSans-61"/>
     <use x="2327.970703" xlink:href="#DejaVuSans-6c"/>
     <use x="2355.753906" xlink:href="#DejaVuSans-73"/>
     <use x="2407.853516" xlink:href="#DejaVuSans-6f"/>
     <use x="2469.035156" xlink:href="#DejaVuSans-20"/>
     <use x="2500.822266" xlink:href="#DejaVuSans-74"/>
     <use x="2540.03125" xlink:href="#DejaVuSans-68"/>
     <use x="2603.410156" xlink:href="#DejaVuSans-65"/>
     <use x="2664.933594" xlink:href="#DejaVuSans-20"/>
     <use x="2696.720703" xlink:href="#DejaVuSans-63"/>
     <use x="2751.701172" xlink:href="#DejaVuSans-61"/>
     <use x="2812.980469" xlink:href="#DejaVuSans-73"/>
     <use x="2865.080078" xlink:href="#DejaVuSans-65"/>
     <use x="2926.603516" xlink:href="#DejaVuSans-20"/>
     <use x="2958.390625" xlink:href="#DejaVuSans-74"/>
     <use x="2997.599609" xlink:href="#DejaVuSans-68"/>
     <use x="3060.978516" xlink:href="#DejaVuSans-61"/>
     <use x="3122.257812" xlink:href="#DejaVuSans-74"/>
     <use x="3161.466797" xlink:href="#DejaVuSans-20"/>
     <use x="3193.253906" xlink:href="#DejaVuSans-64"/>
     <use x="3256.730469" xlink:href="#DejaVuSans-69"/>
     <use x="3284.513672" xlink:href="#DejaVuSans-66"/>
     <use x="3319.71875" xlink:href="#DejaVuSans-66"/>
     <use x="3354.923828" xlink:href="#DejaVuSans-65"/>
     <use x="3416.447266" xlink:href="#DejaVuSans-72"/>
     <use x="3457.529297" xlink:href="#DejaVuSans-65"/>
     <use x="3519.052734" xlink:href="#DejaVuSans-6e"/>
     <use x="3582.431641" xlink:href="#DejaVuSans-74"/>
     <use x="3621.640625" xlink:href="#DejaVuSans-69"/>
     <use x="3649.423828" xlink:href="#DejaVuSans-61"/>
     <use x="3710.703125" xlink:href="#DejaVuSans-65"/>
     <use x="3772.226562" xlink:href="#DejaVuSans-20"/>
     <use x="3804.013672" xlink:href="#DejaVuSans-63"/>
     <use x="3858.994141" xlink:href="#DejaVuSans-61"/>
     <use x="3920.273438" xlink:href="#DejaVuSans-6e"/>
     <use x="3983.652344" xlink:href="#DejaVuSans-20"/>
     <use x="4015.439453" xlink:href="#DejaVuSans-6e"/>
     <use x="4078.818359" xlink:href="#DejaVuSans-6f"/>
     <use x="4140" xlink:href="#DejaVuSans-74"/>
    </g>
    <!-- be present in subjects . -->
    <g transform="translate(483.184687 39.52525)scale(0.12 -0.12)">
     <use xlink:href="#DejaVuSans-62"/>
     <use x="63.476562" xlink:href="#DejaVuSans-65"/>
     <use x="125" xlink:href="#DejaVuSans-20"/>
     <use x="156.787109" xlink:href="#DejaVuSans-70"/>
     <use x="220.263672" xlink:href="#DejaVuSans-72"/>
     <use x="261.345703" xlink:href="#DejaVuSans-65"/>
     <use x="322.869141" xlink:href="#DejaVuSans-73"/>
     <use x="374.96875" xlink:href="#DejaVuSans-65"/>
     <use x="436.492188" xlink:href="#DejaVuSans-6e"/>
     <use x="499.871094" xlink:href="#DejaVuSans-74"/>
     <use x="539.080078" xlink:href="#DejaVuSans-20"/>
     <use x="570.867188" xlink:href="#DejaVuSans-69"/>
     <use x="598.650391" xlink:href="#DejaVuSans-6e"/>
     <use x="662.029297" xlink:href="#DejaVuSans-20"/>
     <use x="693.816406" xlink:href="#DejaVuSans-73"/>
     <use x="745.916016" xlink:href="#DejaVuSans-75"/>
     <use x="809.294922" xlink:href="#DejaVuSans-62"/>
     <use x="872.771484" xlink:href="#DejaVuSans-6a"/>
     <use x="900.554688" xlink:href="#DejaVuSans-65"/>
     <use x="962.078125" xlink:href="#DejaVuSans-63"/>
     <use x="1017.058594" xlink:href="#DejaVuSans-74"/>
     <use x="1056.267578" xlink:href="#DejaVuSans-73"/>
     <use x="1108.367188" xlink:href="#DejaVuSans-20"/>
     <use x="1140.154297" xlink:href="#DejaVuSans-2e"/>
    </g>
    <!-- ¬441 ∧ ¬442 ∧ 443 -->
    <defs>
     <path d="M 10.59375 42.09375 
L 73.1875 42.09375 
L 73.1875 14.015625 
L 64.984375 14.015625 
L 64.984375 33.796875 
L 10.59375 33.796875 
z
" id="DejaVuSans-ac"/>
     <path d="M 12.890625 0 
L 30.515625 57.90625 
L 42.71875 57.90625 
L 60.296875 0 
L 50.78125 0 
L 36.625 45.90625 
L 22.40625 0 
z
" id="DejaVuSans-2227"/>
    </defs>
    <g transform="translate(492.676875 52.962625)scale(0.12 -0.12)">
     <use xlink:href="#DejaVuSans-ac"/>
     <use x="83.789062" xlink:href="#DejaVuSans-34"/>
     <use x="147.412109" xlink:href="#DejaVuSans-34"/>
     <use x="211.035156" xlink:href="#DejaVuSans-31"/>
     <use x="274.658203" xlink:href="#DejaVuSans-20"/>
     <use x="306.445312" xlink:href="#DejaVuSans-2227"/>
     <use x="379.638672" xlink:href="#DejaVuSans-20"/>
     <use x="411.425781" xlink:href="#DejaVuSans-ac"/>
     <use x="495.214844" xlink:href="#DejaVuSans-34"/>
     <use x="558.837891" xlink:href="#DejaVuSans-34"/>
     <use x="622.460938" xlink:href="#DejaVuSans-32"/>
     <use x="686.083984" xlink:href="#DejaVuSans-20"/>
     <use x="717.871094" xlink:href="#DejaVuSans-2227"/>
     <use x="791.064453" xlink:href="#DejaVuSans-20"/>
     <use x="822.851562" xlink:href="#DejaVuSans-34"/>
     <use x="886.474609" xlink:href="#DejaVuSans-34"/>
     <use x="950.097656" xlink:href="#DejaVuSans-33"/>
    </g>
    <!-- ~ pyprover.logic.Prop('441')&amp;~ pyprover.logic.Prop('442')&amp; pyprover.logic.Prop('443') -->
    <defs>
     <path d="M 73.1875 39.890625 
L 73.1875 31.203125 
Q 68.0625 27.34375 63.6875 25.6875 
Q 59.328125 24.03125 54.59375 24.03125 
Q 49.21875 24.03125 42.09375 26.90625 
Q 41.546875 27.09375 41.3125 27.203125 
Q 40.96875 27.34375 40.234375 27.59375 
Q 32.671875 30.609375 28.078125 30.609375 
Q 23.78125 30.609375 19.578125 28.734375 
Q 15.375 26.859375 10.59375 22.796875 
L 10.59375 31.5 
Q 15.71875 35.359375 20.09375 37.03125 
Q 24.46875 38.71875 29.203125 38.71875 
Q 34.578125 38.71875 41.75 35.796875 
Q 42.234375 35.59375 42.484375 35.5 
Q 42.875 35.359375 43.5625 35.109375 
Q 51.125 32.078125 55.71875 32.078125 
Q 59.90625 32.078125 64.03125 33.9375 
Q 68.171875 35.796875 73.1875 39.890625 
z
" id="DejaVuSans-7e"/>
     <path d="M 32.171875 -5.078125 
Q 28.375 -14.84375 24.75 -17.8125 
Q 21.140625 -20.796875 15.09375 -20.796875 
L 7.90625 -20.796875 
L 7.90625 -13.28125 
L 13.1875 -13.28125 
Q 16.890625 -13.28125 18.9375 -11.515625 
Q 21 -9.765625 23.484375 -3.21875 
L 25.09375 0.875 
L 2.984375 54.6875 
L 12.5 54.6875 
L 29.59375 11.921875 
L 46.6875 54.6875 
L 56.203125 54.6875 
z
" id="DejaVuSans-79"/>
     <path d="M 2.984375 54.6875 
L 12.5 54.6875 
L 29.59375 8.796875 
L 46.6875 54.6875 
L 56.203125 54.6875 
L 35.6875 0 
L 23.484375 0 
z
" id="DejaVuSans-76"/>
     <path d="M 19.671875 64.796875 
L 19.671875 37.40625 
L 32.078125 37.40625 
Q 38.96875 37.40625 42.71875 40.96875 
Q 46.484375 44.53125 46.484375 51.125 
Q 46.484375 57.671875 42.71875 61.234375 
Q 38.96875 64.796875 32.078125 64.796875 
z
M 9.8125 72.90625 
L 32.078125 72.90625 
Q 44.34375 72.90625 50.609375 67.359375 
Q 56.890625 61.8125 56.890625 51.125 
Q 56.890625 40.328125 50.609375 34.8125 
Q 44.34375 29.296875 32.078125 29.296875 
L 19.671875 29.296875 
L 19.671875 0 
L 9.8125 0 
z
" id="DejaVuSans-50"/>
     <path d="M 17.921875 72.90625 
L 17.921875 45.796875 
L 9.625 45.796875 
L 9.625 72.90625 
z
" id="DejaVuSans-27"/>
     <path d="M 24.3125 39.203125 
Q 19.875 35.25 17.796875 31.3125 
Q 15.71875 27.390625 15.71875 23.09375 
Q 15.71875 15.96875 20.890625 11.234375 
Q 26.078125 6.5 33.890625 6.5 
Q 38.53125 6.5 42.578125 8.03125 
Q 46.625 9.578125 50.203125 12.703125 
z
M 31.203125 44.671875 
L 56 19.28125 
Q 58.890625 23.640625 60.5 28.59375 
Q 62.109375 33.546875 62.40625 39.109375 
L 71.484375 39.109375 
Q 70.90625 32.671875 68.359375 26.359375 
Q 65.828125 20.0625 61.28125 13.921875 
L 74.90625 0 
L 62.59375 0 
L 55.609375 7.171875 
Q 50.53125 2.828125 44.96875 0.703125 
Q 39.40625 -1.421875 33.015625 -1.421875 
Q 21.234375 -1.421875 13.765625 5.296875 
Q 6.296875 12.015625 6.296875 22.515625 
Q 6.296875 28.765625 9.5625 34.25 
Q 12.84375 39.75 19.390625 44.578125 
Q 17.046875 47.65625 15.8125 50.703125 
Q 14.59375 53.765625 14.59375 56.6875 
Q 14.59375 64.59375 20.015625 69.40625 
Q 25.4375 74.21875 34.421875 74.21875 
Q 38.484375 74.21875 42.5 73.34375 
Q 46.53125 72.46875 50.6875 70.703125 
L 50.6875 61.8125 
Q 46.4375 64.109375 42.578125 65.296875 
Q 38.71875 66.5 35.40625 66.5 
Q 30.28125 66.5 27.078125 63.78125 
Q 23.875 61.078125 23.875 56.78125 
Q 23.875 54.296875 25.3125 51.78125 
Q 26.765625 49.265625 31.203125 44.671875 
z
" id="DejaVuSans-26"/>
    </defs>
    <g transform="translate(294.582188 66.4)scale(0.12 -0.12)">
     <use xlink:href="#DejaVuSans-7e"/>
     <use x="83.789062" xlink:href="#DejaVuSans-20"/>
     <use x="115.576172" xlink:href="#DejaVuSans-70"/>
     <use x="179.052734" xlink:href="#DejaVuSans-79"/>
     <use x="238.232422" xlink:href="#DejaVuSans-70"/>
     <use x="301.708984" xlink:href="#DejaVuSans-72"/>
     <use x="342.791016" xlink:href="#DejaVuSans-6f"/>
     <use x="403.972656" xlink:href="#DejaVuSans-76"/>
     <use x="463.152344" xlink:href="#DejaVuSans-65"/>
     <use x="524.675781" xlink:href="#DejaVuSans-72"/>
     <use x="565.648438" xlink:href="#DejaVuSans-2e"/>
     <use x="597.435547" xlink:href="#DejaVuSans-6c"/>
     <use x="625.21875" xlink:href="#DejaVuSans-6f"/>
     <use x="686.400391" xlink:href="#DejaVuSans-67"/>
     <use x="749.876953" xlink:href="#DejaVuSans-69"/>
     <use x="777.660156" xlink:href="#DejaVuSans-63"/>
     <use x="832.640625" xlink:href="#DejaVuSans-2e"/>
     <use x="864.427734" xlink:href="#DejaVuSans-50"/>
     <use x="924.714844" xlink:href="#DejaVuSans-72"/>
     <use x="965.796875" xlink:href="#DejaVuSans-6f"/>
     <use x="1026.978516" xlink:href="#DejaVuSans-70"/>
     <use x="1090.455078" xlink:href="#DejaVuSans-28"/>
     <use x="1129.46875" xlink:href="#DejaVuSans-27"/>
     <use x="1156.958984" xlink:href="#DejaVuSans-34"/>
     <use x="1220.582031" xlink:href="#DejaVuSans-34"/>
     <use x="1284.205078" xlink:href="#DejaVuSans-31"/>
     <use x="1347.828125" xlink:href="#DejaVuSans-27"/>
     <use x="1375.318359" xlink:href="#DejaVuSans-29"/>
     <use x="1414.332031" xlink:href="#DejaVuSans-26"/>
     <use x="1492.310547" xlink:href="#DejaVuSans-7e"/>
     <use x="1576.099609" xlink:href="#DejaVuSans-20"/>
     <use x="1607.886719" xlink:href="#DejaVuSans-70"/>
     <use x="1671.363281" xlink:href="#DejaVuSans-79"/>
     <use x="1730.542969" xlink:href="#DejaVuSans-70"/>
     <use x="1794.019531" xlink:href="#DejaVuSans-72"/>
     <use x="1835.101562" xlink:href="#DejaVuSans-6f"/>
     <use x="1896.283203" xlink:href="#DejaVuSans-76"/>
     <use x="1955.462891" xlink:href="#DejaVuSans-65"/>
     <use x="2016.986328" xlink:href="#DejaVuSans-72"/>
     <use x="2057.958984" xlink:href="#DejaVuSans-2e"/>
     <use x="2089.746094" xlink:href="#DejaVuSans-6c"/>
     <use x="2117.529297" xlink:href="#DejaVuSans-6f"/>
     <use x="2178.710938" xlink:href="#DejaVuSans-67"/>
     <use x="2242.1875" xlink:href="#DejaVuSans-69"/>
     <use x="2269.970703" xlink:href="#DejaVuSans-63"/>
     <use x="2324.951172" xlink:href="#DejaVuSans-2e"/>
     <use x="2356.738281" xlink:href="#DejaVuSans-50"/>
     <use x="2417.025391" xlink:href="#DejaVuSans-72"/>
     <use x="2458.107422" xlink:href="#DejaVuSans-6f"/>
     <use x="2519.289062" xlink:href="#DejaVuSans-70"/>
     <use x="2582.765625" xlink:href="#DejaVuSans-28"/>
     <use x="2621.779297" xlink:href="#DejaVuSans-27"/>
     <use x="2649.269531" xlink:href="#DejaVuSans-34"/>
     <use x="2712.892578" xlink:href="#DejaVuSans-34"/>
     <use x="2776.515625" xlink:href="#DejaVuSans-32"/>
     <use x="2840.138672" xlink:href="#DejaVuSans-27"/>
     <use x="2867.628906" xlink:href="#DejaVuSans-29"/>
     <use x="2906.642578" xlink:href="#DejaVuSans-26"/>
     <use x="2984.621094" xlink:href="#DejaVuSans-20"/>
     <use x="3016.408203" xlink:href="#DejaVuSans-70"/>
     <use x="3079.884766" xlink:href="#DejaVuSans-79"/>
     <use x="3139.064453" xlink:href="#DejaVuSans-70"/>
     <use x="3202.541016" xlink:href="#DejaVuSans-72"/>
     <use x="3243.623047" xlink:href="#DejaVuSans-6f"/>
     <use x="3304.804688" xlink:href="#DejaVuSans-76"/>
     <use x="3363.984375" xlink:href="#DejaVuSans-65"/>
     <use x="3425.507812" xlink:href="#DejaVuSans-72"/>
     <use x="3466.480469" xlink:href="#DejaVuSans-2e"/>
     <use x="3498.267578" xlink:href="#DejaVuSans-6c"/>
     <use x="3526.050781" xlink:href="#DejaVuSans-6f"/>
     <use x="3587.232422" xlink:href="#DejaVuSans-67"/>
     <use x="3650.708984" xlink:href="#DejaVuSans-69"/>
     <use x="3678.492188" xlink:href="#DejaVuSans-63"/>
     <use x="3733.472656" xlink:href="#DejaVuSans-2e"/>
     <use x="3765.259766" xlink:href="#DejaVuSans-50"/>
     <use x="3825.546875" xlink:href="#DejaVuSans-72"/>
     <use x="3866.628906" xlink:href="#DejaVuSans-6f"/>
     <use x="3927.810547" xlink:href="#DejaVuSans-70"/>
     <use x="3991.287109" xlink:href="#DejaVuSans-28"/>
     <use x="4030.300781" xlink:href="#DejaVuSans-27"/>
     <use x="4057.791016" xlink:href="#DejaVuSans-34"/>
     <use x="4121.414062" xlink:href="#DejaVuSans-34"/>
     <use x="4185.037109" xlink:href="#DejaVuSans-33"/>
     <use x="4248.660156" xlink:href="#DejaVuSans-27"/>
     <use x="4276.150391" xlink:href="#DejaVuSans-29"/>
    </g>
   </g>
  </g>
 </g>
 <defs>
  <clipPath id="p4ce8ac0d76">
   <rect height="554.4" width="837" x="135" y="86.4"/>
  </clipPath>
 </defs>
</svg>
